<?xml version="1.0" encoding="utf-8"?>
<!-- Generator: Adobe Illustrator 22.1.0, SVG Export Plug-In . SVG Version: 6.00 Build 0)  -->
<svg version="1.1" id="Layer_1" xmlns="http://www.w3.org/2000/svg" xmlns:xlink="http://www.w3.org/1999/xlink" x="0px" y="0px"
	 viewBox="0 0 141.7 183" style="enable-background:new 0 0 141.7 183;" xml:space="preserve">
<style type="text/css">
	.st0{filter:url(#Adobe_OpacityMaskFilter);}
	.st1{fill:#FFFFFF;}
	.st2{mask:url(#mask-2_1_);fill:#000076;fill-opacity:0.2;}
	.st3{filter:url(#Adobe_OpacityMaskFilter_1_);}
	.st4{mask:url(#mask-4_1_);fill:#FFFFFF;}
	.st5{filter:url(#Adobe_OpacityMaskFilter_2_);}
	.st6{mask:url(#mask-6_1_);fill:#FF6F00;}
	.st7{filter:url(#Adobe_OpacityMaskFilter_3_);}
	.st8{mask:url(#mask-8_1_);fill:#FFFFFF;}
	.st9{filter:url(#Adobe_OpacityMaskFilter_4_);}
	.st10{mask:url(#mask-10_1_);fill:#64EFFF;}
	.st11{filter:url(#Adobe_OpacityMaskFilter_5_);}
	.st12{mask:url(#mask-12_1_);fill:#FFFFFF;}
	.st13{filter:url(#Adobe_OpacityMaskFilter_6_);}
	.st14{mask:url(#mask-14_1_);fill:#FFFFFF;}
	.st15{filter:url(#Adobe_OpacityMaskFilter_7_);}
	.st16{mask:url(#mask-16_1_);fill:#000076;}
	.st17{fill:#64EFFF;}
</style>
<title>Traceability Copy</title>
<desc>Created with Sketch.</desc>
<g id="Desktop">
	<g id="_x35_-Project-" transform="translate(-568.000000, -2960.000000)">
		<g id="Traceability-Copy" transform="translate(563.000000, 2959.000000)">
			<g id="Group-3" transform="translate(0.000000, 112.640000)">
				<g id="Clip-2">
				</g>
				<defs>
					<filter id="Adobe_OpacityMaskFilter" filterUnits="userSpaceOnUse" x="12.4" y="3" width="117.6" height="68.1">
						<feColorMatrix  type="matrix" values="1 0 0 0 0  0 1 0 0 0  0 0 1 0 0  0 0 0 1 0"/>
					</filter>
				</defs>
				<mask maskUnits="userSpaceOnUse" x="12.4" y="3" width="117.6" height="68.1" id="mask-2_1_">
					<g class="st0">
						<polyline id="path-1_1_" class="st1" points="7.4,42.4 80.2,0.1 134.9,31.7 62,74 						"/>
					</g>
				</mask>
				<path id="Fill-1" class="st2" d="M126.4,26.7L88.7,5c-4.7-2.7-12.3-2.7-17,0L15.8,37.5c-4.6,2.7-4.6,7.1,0.1,9.8l37.6,21.7
					c4.7,2.7,12.3,2.7,17,0l55.9-32.5C131.1,33.9,131.1,29.4,126.4,26.7"/>
			</g>
			<g id="Group-22" transform="translate(1.000000, 86.640000)">
				<g id="Group-6">
					<g id="Clip-5">
					</g>
					<defs>
						<filter id="Adobe_OpacityMaskFilter_1_" filterUnits="userSpaceOnUse" x="61.7" y="3.9" width="63.3" height="21.9">
							<feColorMatrix  type="matrix" values="1 0 0 0 0  0 1 0 0 0  0 0 1 0 0  0 0 0 1 0"/>
						</filter>
					</defs>
					<mask maskUnits="userSpaceOnUse" x="61.7" y="3.9" width="63.3" height="21.9" id="mask-4_1_">
						<g class="st3">
							<polyline id="path-3_1_" class="st1" points="7.9,45 66.8,79 143.9,34.2 85,0.2 							"/>
						</g>
					</mask>
					<path id="Fill-4" class="st4" d="M124.2,22.8L95.8,6.5c-6-3.5-15.7-3.5-21.6,0l-11.6,6.7c-1.2,0.7-1.2,1.8,0,2.5
						c1.2,0.7,3.1,0.7,4.3,0l11.6-6.7c3.6-2.1,9.5-2.1,13.1,0L120,25.3c1.2,0.7,3.1,0.7,4.3,0C125.4,24.6,125.4,23.5,124.2,22.8"/>
				</g>
				<g id="Group-9">
					<g id="Clip-8">
					</g>
					<defs>
						<filter id="Adobe_OpacityMaskFilter_2_" filterUnits="userSpaceOnUse" x="121.5" y="27.5" width="16" height="17.3">
							<feColorMatrix  type="matrix" values="1 0 0 0 0  0 1 0 0 0  0 0 1 0 0  0 0 0 1 0"/>
						</filter>
					</defs>
					<mask maskUnits="userSpaceOnUse" x="121.5" y="27.5" width="16" height="17.3" id="mask-6_1_">
						<g class="st5">
							<polyline id="path-5_1_" class="st1" points="7.9,45 66.8,79 143.9,34.2 85,0.2 							"/>
						</g>
					</mask>
					<path id="Fill-7" class="st6" d="M133,28c-1.2-0.7-3.1-0.7-4.2,0c-1.2,0.7-1.2,1.8,0,2.5c3.6,2.1,3.7,5.5,0,7.6l-6.5,3.8
						c-1.2,0.7-1.2,1.8,0,2.5c1.2,0.7,3.1,0.7,4.2,0l6.5-3.8C139.1,37,139,31.4,133,28"/>
				</g>
				<g id="Group-12">
					<g id="Clip-11">
					</g>
					<defs>
						<filter id="Adobe_OpacityMaskFilter_3_" filterUnits="userSpaceOnUse" x="44" y="46.3" width="75" height="29.1">
							<feColorMatrix  type="matrix" values="1 0 0 0 0  0 1 0 0 0  0 0 1 0 0  0 0 0 1 0"/>
						</filter>
					</defs>
					<mask maskUnits="userSpaceOnUse" x="44" y="46.3" width="75" height="29.1" id="mask-8_1_">
						<g class="st7">
							<polyline id="path-7_1_" class="st1" points="7.9,45 66.8,79 143.9,34.2 85,0.2 							"/>
						</g>
					</mask>
					<path id="Fill-10" class="st8" d="M118.1,46.8c-1.2-0.7-3.1-0.7-4.3,0L73.3,70.3c-3.6,2.1-9.5,2.1-13.1,0l-11.1-6.4
						c-1.2-0.7-3.1-0.7-4.2,0s-1.2,1.8,0,2.5L56,72.8c6,3.5,15.7,3.5,21.6,0l40.5-23.5C119.2,48.6,119.2,47.5,118.1,46.8"/>
				</g>
				<g id="Group-15">
					<g id="Clip-14">
					</g>
					<defs>
						<filter id="Adobe_OpacityMaskFilter_4_" filterUnits="userSpaceOnUse" x="14.2" y="22" width="37.4" height="39">
							<feColorMatrix  type="matrix" values="1 0 0 0 0  0 1 0 0 0  0 0 1 0 0  0 0 0 1 0"/>
						</filter>
					</defs>
					<mask maskUnits="userSpaceOnUse" x="14.2" y="22" width="37.4" height="39" id="mask-10_1_">
						<g class="st9">
							<polyline id="path-9_1_" class="st1" points="7.9,45 66.8,79 143.9,34.2 85,0.2 							"/>
						</g>
					</mask>
					<path id="Fill-13" class="st10" d="M50.8,22.5c-1.2-0.7-3.1-0.7-4.2,0L18.7,38.7c-5.9,3.5-5.9,9.1,0.1,12.5l16.1,9.3
						c1.2,0.7,3.1,0.7,4.2,0c1.2-0.7,1.2-1.8,0-2.5L23,48.8c-3.6-2.1-3.7-5.5,0-7.6L50.8,25C52,24.3,52,23.2,50.8,22.5"/>
				</g>
				<g id="Group-18">
					<g id="Clip-17">
					</g>
					<defs>
						<filter id="Adobe_OpacityMaskFilter_5_" filterUnits="userSpaceOnUse" x="69" y="20.5" width="33.7" height="19.5">
							<feColorMatrix  type="matrix" values="1 0 0 0 0  0 1 0 0 0  0 0 1 0 0  0 0 0 1 0"/>
						</filter>
					</defs>
					<mask maskUnits="userSpaceOnUse" x="69" y="20.5" width="33.7" height="19.5" id="mask-12_1_">
						<g class="st11">
							<polyline id="path-11_1_" class="st1" points="7.9,45 66.8,79 143.9,34.2 85,0.2 							"/>
						</g>
					</mask>
					<path id="Fill-16" class="st12" d="M101.8,37L74.1,21c-1.2-0.7-3.1-0.7-4.3,0s-1.2,1.8,0,2.5l27.7,16c1.2,0.7,3.1,0.7,4.2,0
						C103,38.8,103,37.7,101.8,37"/>
				</g>
				<g id="Group-21">
					<g id="Clip-20">
					</g>
					<defs>
						<filter id="Adobe_OpacityMaskFilter_6_" filterUnits="userSpaceOnUse" x="57.3" y="32.1" width="35" height="20.2">
							<feColorMatrix  type="matrix" values="1 0 0 0 0  0 1 0 0 0  0 0 1 0 0  0 0 0 1 0"/>
						</filter>
					</defs>
					<mask maskUnits="userSpaceOnUse" x="57.3" y="32.1" width="35" height="20.2" id="mask-14_1_">
						<g class="st13">
							<polyline id="path-13_1_" class="st1" points="7.9,45 66.8,79 143.9,34.2 85,0.2 							"/>
						</g>
					</mask>
					<path id="Fill-19" class="st14" d="M91.5,49.4l-29-16.8c-1.2-0.7-3.1-0.7-4.2,0c-1.2,0.7-1.2,1.8,0,2.5l29,16.8
						c1.2,0.7,3.1,0.7,4.2,0C92.7,51.1,92.7,50.1,91.5,49.4"/>
				</g>
			</g>
			<g id="Group-35" transform="translate(0.000000, 0.640000)">
				<g id="Group-25" transform="translate(23.000000, 0.000000)">
					<g id="Clip-24">
					</g>
					<defs>
						<filter id="Adobe_OpacityMaskFilter_7_" filterUnits="userSpaceOnUse" x="7.4" y="0.4" width="67.2" height="67.2">
							<feColorMatrix  type="matrix" values="1 0 0 0 0  0 1 0 0 0  0 0 1 0 0  0 0 0 1 0"/>
						</filter>
					</defs>
					<mask maskUnits="userSpaceOnUse" x="7.4" y="0.4" width="67.2" height="67.2" id="mask-16_1_">
						<g class="st15">
							<polygon id="path-15_1_" class="st1" points="7.4,0.4 74.6,0.4 74.6,67.6 7.4,67.6 							"/>
						</g>
					</mask>
					<path id="Fill-23" class="st16" d="M74.6,34c0,18.6-15.1,33.6-33.6,33.6S7.4,52.6,7.4,34S22.4,0.4,41,0.4S74.6,15.4,74.6,34"/>
				</g>
				<path id="Fill-26" class="st1" d="M57.2,21.4c-1.6,0-2.9,1.3-2.9,2.9v5.9c0,1.6,1.3,2.9,2.9,2.9h3.2c1.6,0,2.9-1.3,2.9-2.9v-5.9
					c0-1.6-1.3-2.9-2.9-2.9H57.2z M60.4,35.5h-3.2c-2.9,0-5.3-2.4-5.3-5.3v-5.9c0-2.9,2.4-5.3,5.3-5.3h3.2c2.9,0,5.3,2.4,5.3,5.3
					v5.9C65.7,33.2,63.3,35.5,60.4,35.5z"/>
				<path id="Fill-28" class="st1" d="M69.9,48c0-5.7-4.6-10.3-10.3-10.3h-2.3C51.6,37.7,47,42.3,47,48v3.2c0,0.3,0,0.5,0,0.8h2.1
					c0-0.2,0-0.5,0-0.8V48c0-4.5,3.7-8.2,8.2-8.2h2.3c4.5,0,8.2,3.7,8.2,8.2v3.2c0,0.3,0,0.5,0,0.8h2.1c0-0.2,0-0.5,0-0.8V48z"/>
				<path id="Fill-30" class="st1" d="M75.7,45.9h5.7V26.3h-5.7V45.9z M76.7,44.9h3.7V27.3h-3.7V44.9z"/>
				<path id="Fill-32" class="st17" d="M81.2,47.4L78.6,51c-0.1,0.1-0.2,0.1-0.2,0l-2.6-3.7c-0.1-0.1,0-0.2,0.1-0.2l5.1,0
					C81.2,47.2,81.2,47.3,81.2,47.4"/>
				<path id="Fill-33" class="st17" d="M81.3,23.1c0-1.6-1.3-2.8-2.8-2.8c-1.6,0-2.8,1.3-2.8,2.8v1.7h5.7V23.1z"/>
				<path id="Fill-34" class="st1" d="M65.7,93.1c-0.3,0-0.5-0.2-0.5-0.5v-18c0-0.3,0.2-0.5,0.5-0.5c0.3,0,0.5,0.2,0.5,0.5v18
					C66.2,92.9,65.9,93.1,65.7,93.1"/>
			</g>
		</g>
	</g>
</g>
</svg>
