<svg width="400" height="400" viewBox="0 0 400 400" fill="none" xmlns="http://www.w3.org/2000/svg">
<path d="M164 32.7846C186.277 19.923 213.723 19.923 236 32.7846L326.813 85.2154C349.09 98.077 362.813 121.846 362.813 147.569V252.431C362.813 278.154 349.09 301.923 326.813 314.785L236 367.215C213.723 380.077 186.277 380.077 164 367.215L73.1872 314.785C50.9103 301.923 37.1872 278.154 37.1872 252.431V147.569C37.1872 121.846 50.9103 98.077 73.1872 85.2154L164 32.7846Z" stroke="#007BFF" stroke-width="2"/>
<path d="M172 44.1658C189.326 34.1624 210.674 34.1624 228 44.1658L320.956 97.8342C338.283 107.838 348.956 126.325 348.956 146.332V253.668C348.956 273.675 338.283 292.162 320.956 302.166L228 355.834C210.674 365.838 189.326 365.838 172 355.834L79.0436 302.166C61.7172 292.162 51.0436 273.675 51.0436 253.668V146.332C51.0436 126.325 61.7172 107.838 79.0436 97.8342L172 44.1658Z" stroke="#007BFF" stroke-width="2"/>
<path d="M182 62.3923C193.138 55.9615 206.862 55.9615 218 62.3923L310.172 115.608C321.31 122.038 328.172 133.923 328.172 146.785V253.215C328.172 266.077 321.31 277.962 310.172 284.392L218 337.608C206.862 344.038 193.138 344.038 182 337.608L89.8282 284.392C78.6898 277.962 71.8282 266.077 71.8282 253.215V146.785C71.8282 133.923 78.6898 122.038 89.8282 115.608L182 62.3923Z" stroke="#007BFF" stroke-width="4"/>
<path d="M147.499 122.311L188 98.9282C195.425 94.641 204.574 94.641 211.999 98.9282L281.53 139.072C288.956 143.359 293.53 151.282 293.53 159.856V187.5M131.5 131.548L118.469 139.072C111.043 143.359 106.469 151.282 106.469 159.856V211.5M106.469 232.75V240.144C106.469 248.718 111.043 256.641 118.469 260.928L187.999 301.072C195.425 305.359 204.574 305.359 211.999 301.072L281.53 260.928C288.956 256.641 293.53 248.718 293.53 240.144V211.5" stroke="#64F0FF" stroke-width="8" stroke-linecap="round"/>
<path d="M160.766 175.436C158.163 173.885 158.163 170.115 160.766 168.564L196.159 147.472C198.683 145.968 201.827 145.968 204.35 147.472L239.744 168.564C242.347 170.115 242.347 173.885 239.744 175.436L204.35 196.528C201.827 198.032 198.683 198.032 196.159 196.528L160.766 175.436Z" fill="#007BFF"/>
<path d="M209.915 252.827C207.245 254.26 204.013 252.318 204.024 249.288L204.174 208.086C204.184 205.149 205.804 202.454 208.392 201.065L244.701 181.591C247.371 180.158 250.603 182.1 250.592 185.13L250.442 226.332C250.432 229.269 248.812 231.964 246.224 233.353L209.915 252.827Z" fill="#64F0FF"/>
<path d="M190.085 252.827C192.755 254.26 195.987 252.318 195.976 249.288L195.826 208.086C195.816 205.149 194.196 202.454 191.608 201.065L155.299 181.591C152.629 180.158 149.397 182.1 149.408 185.13L149.558 226.332C149.568 229.269 151.188 231.964 153.776 233.353L190.085 252.827Z" fill="#007BFF"/>
</svg>
