<?xml version="1.0" encoding="UTF-8"?>
<svg width="408px" height="289px" viewBox="0 0 408 289" version="1.1" xmlns="http://www.w3.org/2000/svg" xmlns:xlink="http://www.w3.org/1999/xlink">
    <!-- Generator: Sketch 51.2 (57519) - http://www.bohemiancoding.com/sketch -->
    <title>Group 125</title>
    <desc>Created with Sketch.</desc>
    <defs>
        <polygon id="path-1" points="0 289 407.228 289 407.228 0.288 0 0.288"></polygon>
    </defs>
    <g id="Desktop" stroke="none" stroke-width="1" fill="none" fill-rule="evenodd">
        <g id="APPII" transform="translate(-196.000000, -1220.000000)">
            <g id="Group-125" transform="translate(196.000000, 1219.000000)">
                <path d="M53.1085,32.3651 L117.1755,32.3651 L279.3485,269.6711 L328.1005,269.6711" id="Stroke-1" stroke="#D4D4D4" stroke-width="3" stroke-linecap="round" stroke-linejoin="round" stroke-dasharray="3,10"></path>
                <path d="M336.6756,32.3651 L280.5526,32.3651 L119.1646,269.6711 L62.9576,269.6711" id="Stroke-2" stroke="#D4D4D4" stroke-width="3" stroke-linecap="round" stroke-linejoin="round" stroke-dasharray="3,10"></path>
                <g id="Group-101" transform="translate(1.000000, 0.712000)">
                    <path d="M219.2779,152.2493 C219.8039,154.1823 220.0849,154.3123 220.0849,156.4063 L220.0849,164.4503 C220.0849,170.5443 217.7049,176.1103 213.8289,180.2633" id="Stroke-3" stroke="#005EFF" stroke-width="6" stroke-linecap="round"></path>
                    <path d="M281.784,141.4924 C281.784,189.5424 242.832,228.4944 194.782,228.4944 C146.732,228.4944 107.781,189.5424 107.781,141.4924 C107.781,93.4434 146.732,54.4914 194.782,54.4914 C242.832,54.4914 281.784,93.4434 281.784,141.4924" id="Fill-5" fill="#FFFFFF"></path>
                    <path d="M255.8497,140.552 C255.8497,173.82 228.8807,200.788 195.6137,200.788 C162.3457,200.788 135.3767,173.82 135.3767,140.552 C135.3767,107.284 162.3457,80.316 195.6137,80.316 C228.8807,80.316 255.8497,107.284 255.8497,140.552" id="Fill-7" fill="#000076"></path>
                    <path d="M129.3795,104.7864 C142.5265,81.2474 167.6935,65.2944 196.5165,65.2944 C218.5955,65.2944 238.5295,74.6554 252.5585,89.6164" id="Stroke-9" stroke="#007BFF" stroke-width="4" stroke-linecap="round" stroke-linejoin="round"></path>
                    <path d="M264.1634,105.7131 C270.0264,116.5581 273.3564,128.9641 273.3564,142.1341 C273.3564,184.5041 238.8864,218.9741 196.5174,218.9741 C184.5494,218.9741 173.2114,216.2241 163.1034,211.3221" id="Stroke-11" stroke="#64EFFF" stroke-width="4" stroke-linecap="round" stroke-linejoin="round"></path>
                    <path d="M151.7938,204.5842 C132.3598,190.6272 119.6778,167.8342 119.6778,142.1342 C119.6778,137.9672 120.0108,133.8762 120.6528,129.8872" id="Stroke-13" stroke="#FF6F00" stroke-width="4" stroke-linecap="round" stroke-linejoin="round"></path>
                    <path d="M324.6703,128.0081 C315.4983,131.0631 307.3403,133.7811 307.3403,133.7811 C305.4793,134.4411 305.4253,137.0531 307.2563,137.7911 L348.0703,153.1771 C348.5683,153.3781 349.1233,153.3841 349.6263,153.1951 L392.0053,137.8841 C393.8633,137.1861 393.8573,134.5561 391.9963,133.8661 C391.9963,133.8661 376.7383,128.5161 364.9203,124.3731" id="Stroke-15" stroke="#64EFFF" stroke-width="3" stroke-linecap="round" stroke-linejoin="round"></path>
                    <path d="M357.5089,121.7737 C353.8089,120.4767 351.3559,119.6167 351.3559,119.6167 C350.8839,119.4417 350.3669,119.4377 349.8929,119.6057 C349.8929,119.6057 341.1109,122.5317 331.5259,125.7247" id="Stroke-17" stroke="#000076" stroke-width="4" stroke-linecap="round" stroke-linejoin="round"></path>
                    <path d="M327.0426,164.095 C331.0396,167.266 337.9716,170.477 350.0566,171.319 C361.1276,170.806 368.1666,167.738 372.5316,164.601" id="Stroke-19" stroke="#007BFF" stroke-width="4" stroke-linecap="round" stroke-linejoin="round"></path>
                    <path d="M376.3055,161.2644 C377.6255,159.8124 378.3815,158.5784 378.7535,157.8894 C378.9255,157.5704 379.0155,157.2094 379.0155,156.8394 L378.4715,145.8214 C378.4715,144.3694 377.1365,143.3664 375.8865,143.8784 L349.8815,153.5074 C349.4375,153.6894 348.9475,153.6854 348.5065,153.4964 L324.2535,144.2324 C323.0005,143.6954 321.6425,144.6994 321.6425,146.1634 L321.6425,156.6294 C321.6425,156.9404 321.7055,157.2454 321.8295,157.5254 C322.0635,158.0524 322.4635,158.9214 323.1725,159.9764" id="Stroke-21" stroke="#64EFFF" stroke-width="3" stroke-linecap="round" stroke-linejoin="round"></path>
                    <path d="M391.6803,143.1331 L391.6803,156.4871" id="Stroke-23" stroke="#000076" stroke-width="3" stroke-linecap="round" stroke-linejoin="round"></path>
                    <path d="M391.4278,160.1438 C390.6868,160.2918 388.9178,166.7868 388.9178,166.7868 C388.4828,167.9458 389.3398,169.1818 390.5778,169.1818 L392.4238,169.1818 C393.5938,169.1818 394.4428,168.0718 394.1338,166.9438 C393.2728,163.7948 392.1688,159.9958 391.4278,160.1438" id="Fill-25" fill="#000076"></path>
                    <g id="Group-30" transform="translate(330.000000, 232.000000)">
                        <path d="M0.2003,29.3293 L0.2003,4.0733 C0.2003,2.0143 1.8693,0.3443 3.9283,0.3443 L70.5003,0.3443 C72.5583,0.3443 74.2283,2.0143 74.2283,4.0733 L74.2283,46.9373 C74.2283,48.9963 72.5583,50.6653 70.5003,50.6653 L47.9073,50.6653" id="Fill-27" fill="#FFFFFF"></path>
                        <path d="M0.2003,29.3293 L0.2003,4.0733 C0.2003,2.0143 1.8693,0.3443 3.9283,0.3443 L70.5003,0.3443 C72.5583,0.3443 74.2283,2.0143 74.2283,4.0733 L74.2283,46.9373 C74.2283,48.9963 72.5583,50.6653 70.5003,50.6653 L47.9073,50.6653" id="Stroke-29" stroke="#005EFF" stroke-width="4" stroke-linecap="round" stroke-linejoin="round"></path>
                    </g>
                    <path d="M356.6156,282.8982 L333.9286,282.8982 C331.8696,282.8982 330.2006,281.2292 330.2006,279.1702 L330.2006,267.6892" id="Stroke-31" stroke="#64EFFF" stroke-width="3" stroke-linecap="round" stroke-linejoin="round"></path>
                    <g id="Group-36" transform="translate(385.000000, 233.000000)">
                        <polyline id="Fill-33" fill="#FFFFFF" points="0.3272 0.3269 0.3272 27.8759 6.0432 20.9349 12.5762 27.4679 12.5762 11.9519"></polyline>
                        <polyline id="Stroke-35" stroke="#005EFF" stroke-width="3" stroke-linecap="round" stroke-linejoin="round" points="0.3272 0.3269 0.3272 27.8759 6.0432 20.9349 12.5762 27.4679 12.5762 11.9519"></polyline>
                    </g>
                    <path d="M341.7596,249.4758 L363.5556,249.4758" id="Stroke-37" stroke="#005EFF" stroke-width="3" stroke-linecap="round" stroke-linejoin="round"></path>
                    <path d="M341.8106,258.884 L371.1896,258.884" id="Stroke-39" stroke="#005EFF" stroke-width="3" stroke-linecap="round" stroke-linejoin="round"></path>
                    <path d="M342.7977,274.093 C342.3137,274.39 342.1497,274.878 342.3997,275.275 C343.1427,275.346 343.8787,275.126 344.5047,274.862 C347.0957,273.767 347.8547,272.519 350.2457,270.869 C352.2347,269.498 353.9447,267.924 357.0157,267.596 C355.8337,269.578 354.8547,271.167 353.6727,273.149 C353.3517,273.685 353.0297,274.28 353.3437,274.818 C353.7577,275.527 355.1817,275.831 356.3367,275.644 C357.4927,275.457 358.4077,274.904 359.1687,274.321 C359.1877,274.835 360.1947,275.14 360.9797,275.012 C361.7647,274.884 362.3477,274.478 362.8817,274.092 C362.8147,274.664 365.1637,275.213 364.4427,275.56" id="Stroke-41" stroke="#000076" stroke-width="2" stroke-linecap="round" stroke-linejoin="round"></path>
                    <path d="M61.1009,258.6995 C61.1009,275.4335 47.5349,288.9995 30.7999,288.9995 C14.0659,288.9995 0.4999,275.4335 0.4999,258.6995 C0.4999,241.9655 14.0659,228.3995 30.7999,228.3995 C47.5349,228.3995 61.1009,241.9655 61.1009,258.6995" id="Fill-43" fill="#000076"></path>
                    <path d="M30.3922,244.4646 C28.8302,244.4646 27.5592,245.7356 27.5592,247.2976 L27.5592,253.0566 C27.5592,254.6196 28.8302,255.8906 30.3922,255.8906 L33.5292,255.8906 C35.0912,255.8906 36.3622,254.6196 36.3622,253.0566 L36.3622,247.2976 C36.3622,245.7356 35.0912,244.4646 33.5292,244.4646 L30.3922,244.4646 Z M33.5292,258.1876 L30.3922,258.1876 C27.5632,258.1876 25.2612,255.8856 25.2612,253.0566 L25.2612,247.2976 C25.2612,244.4686 27.5632,242.1676 30.3922,242.1676 L33.5292,242.1676 C36.3582,242.1676 38.6602,244.4686 38.6602,247.2976 L38.6602,253.0566 C38.6602,255.8856 36.3582,258.1876 33.5292,258.1876 Z" id="Fill-45" fill="#FFFFFF"></path>
                    <path d="M25.1366,268.6638 C24.5016,268.6638 23.9876,269.1788 23.9876,269.8128 L23.9876,275.0208 L26.2856,275.0208 L26.2856,269.8128 C26.2856,269.1788 25.7716,268.6638 25.1366,268.6638" id="Fill-47" fill="#FFFFFF"></path>
                    <path d="M37.4281,268.6638 C36.7931,268.6638 36.2791,269.1788 36.2791,269.8128 L36.2791,275.0208 L38.5771,275.0208 L38.5771,269.8128 C38.5771,269.1788 38.0631,268.6638 37.4281,268.6638" id="Fill-49" fill="#FFFFFF"></path>
                    <path d="M44.139,270.7048 C44.139,264.5098 39.098,259.4688 32.903,259.4688 L30.379,259.4688 C24.184,259.4688 19.143,264.5098 19.143,270.7048 L19.143,274.1998 C19.143,274.4748 19.161,274.7478 19.181,275.0208 L21.479,275.0208 C21.454,274.7488 21.441,274.4748 21.441,274.1998 L21.441,270.7048 C21.441,265.7758 25.451,261.7668 30.379,261.7668 L32.903,261.7668 C37.832,261.7668 41.842,265.7758 41.842,270.7048 L41.842,274.1998 C41.842,274.4748 41.828,274.7488 41.803,275.0208 L44.102,275.0208 C44.122,274.7478 44.139,274.4748 44.139,274.1998 L44.139,270.7048 Z" id="Fill-51" fill="#FFFFFF"></path>
                    <path d="M403.9483,30.5881 C403.9483,47.3231 390.3823,60.8891 373.6473,60.8891 C356.9133,60.8891 343.3473,47.3231 343.3473,30.5881 C343.3473,13.8541 356.9133,0.2881 373.6473,0.2881 C390.3823,0.2881 403.9483,13.8541 403.9483,30.5881" id="Fill-53" fill="#007BFF"></path>
                    <path d="M373.2396,16.3538 C371.6776,16.3538 370.4066,17.6248 370.4066,19.1868 L370.4066,24.9458 C370.4066,26.5078 371.6776,27.7788 373.2396,27.7788 L376.3766,27.7788 C377.9386,27.7788 379.2096,26.5078 379.2096,24.9458 L379.2096,19.1868 C379.2096,17.6248 377.9386,16.3538 376.3766,16.3538 L373.2396,16.3538 Z M376.3766,30.0768 L373.2396,30.0768 C370.4106,30.0768 368.1086,27.7748 368.1086,24.9458 L368.1086,19.1868 C368.1086,16.3578 370.4106,14.0558 373.2396,14.0558 L376.3766,14.0558 C379.2056,14.0558 381.5076,16.3578 381.5076,19.1868 L381.5076,24.9458 C381.5076,27.7748 379.2056,30.0768 376.3766,30.0768 Z" id="Fill-55" fill="#FFFFFF"></path>
                    <path d="M367.984,40.553 C367.349,40.553 366.835,41.067 366.835,41.701 L366.835,46.909 L369.133,46.909 L369.133,41.701 C369.133,41.067 368.619,40.553 367.984,40.553" id="Fill-57" fill="#FFFFFF"></path>
                    <path d="M380.2755,40.553 C379.6405,40.553 379.1265,41.067 379.1265,41.701 L379.1265,46.909 L381.4245,46.909 L381.4245,41.701 C381.4245,41.067 380.9105,40.553 380.2755,40.553" id="Fill-59" fill="#FFFFFF"></path>
                    <path d="M386.9864,42.5935 C386.9864,36.3985 381.9454,31.3575 375.7504,31.3575 L373.2264,31.3575 C367.0314,31.3575 361.9904,36.3985 361.9904,42.5935 L361.9904,46.0885 C361.9904,46.3635 362.0084,46.6365 362.0284,46.9095 L364.3264,46.9095 C364.3014,46.6375 364.2884,46.3635 364.2884,46.0885 L364.2884,42.5935 C364.2884,37.6645 368.2984,33.6555 373.2264,33.6555 L375.7504,33.6555 C380.6794,33.6555 384.6894,37.6645 384.6894,42.5935 L384.6894,46.0885 C384.6894,46.3635 384.6754,46.6375 384.6504,46.9095 L386.9494,46.9095 C386.9694,46.6365 386.9864,46.3635 386.9864,46.0885 L386.9864,42.5935 Z" id="Fill-61" fill="#FFFFFF"></path>
                    <path d="M186.6912,171.3875 C186.2252,171.3875 185.8482,171.0105 185.8482,170.5445 L185.8482,141.1455 C185.8482,140.6805 186.2252,140.3025 186.6912,140.3025 C187.1572,140.3025 187.5342,140.6805 187.5342,141.1455 L187.5342,170.5445 C187.5342,171.0105 187.1572,171.3875 186.6912,171.3875" id="Fill-63" fill="#FF6F00"></path>
                    <path d="M201.0567,171.3875 C200.5907,171.3875 200.2137,171.0105 200.2137,170.5445 L200.2137,141.1455 C200.2137,140.6805 200.5907,140.3025 201.0567,140.3025 C201.5227,140.3025 201.8997,140.6805 201.8997,141.1455 L201.8997,170.5445 C201.8997,171.0105 201.5227,171.3875 201.0567,171.3875" id="Fill-65" fill="#007BFF"></path>
                    <path d="M183.9837,154.9006 C183.7497,154.9006 183.5177,154.8036 183.3507,154.6146 C181.3097,152.3026 180.1857,149.3396 180.1857,146.2726 L180.1857,142.1886 C180.1857,135.2226 185.8527,129.5556 192.8187,129.5556 L195.0477,129.5556 C195.3337,129.5556 195.7037,129.5556 195.9897,129.8006 C195.9957,129.8016 196.0017,129.8026 196.0067,129.8036 C196.4647,129.8866 196.7687,130.3256 196.6857,130.7846 C196.6017,131.2426 196.1627,131.5476 195.7047,131.4626 C195.4937,131.4236 195.2647,131.3716 195.0667,131.2426 L195.0477,131.2426 L192.8187,131.2426 C186.7827,131.2426 181.8727,136.1526 181.8727,142.1886 L181.8727,146.2726 C181.8727,148.9286 182.8467,151.4956 184.6157,153.4996 C184.9237,153.8486 184.8907,154.3806 184.5417,154.6896 C184.3807,154.8306 184.1817,154.9006 183.9837,154.9006" id="Fill-67" fill="#FFFFFF"></path>
                    <path d="M205.3826,137.3757 C205.0846,137.3757 204.7966,137.2187 204.6436,136.9397 C203.4906,134.8477 201.6576,133.1597 199.4826,132.1877 C199.0576,131.9967 198.8666,131.4987 199.0566,131.0727 C199.2476,130.6477 199.7456,130.4577 200.1706,130.6477 C202.6786,131.7687 204.7916,133.7147 206.1206,136.1257 C206.3446,136.5337 206.1966,137.0457 205.7886,137.2707 C205.6596,137.3417 205.5196,137.3757 205.3826,137.3757" id="Fill-69" fill="#29EAEF"></path>
                    <path d="M203.66,155.1458 C203.454,155.1458 203.247,155.0708 203.085,154.9188 C202.744,154.6008 202.726,154.0678 203.044,153.7268 C204.946,151.6888 205.993,149.0418 205.993,146.2728 L205.993,142.1888 C205.993,141.5378 205.943,141.3798 205.809,140.9568 C205.753,140.7798 205.688,140.5738 205.613,140.2988 C205.491,139.8498 205.756,139.3858 206.206,139.2638 C206.654,139.1418 207.118,139.4068 207.241,139.8558 C207.308,140.1028 207.367,140.2888 207.417,140.4468 C207.59,140.9928 207.68,141.3178 207.68,142.1888 L207.68,146.2728 C207.68,149.4698 206.471,152.5258 204.277,154.8778 C204.111,155.0558 203.886,155.1458 203.66,155.1458" id="Fill-71" fill="#007BFF"></path>
                    <path d="M194.6671,111.0217 C191.5551,111.0217 189.0231,113.5537 189.0231,116.6657 L189.0231,119.7297 C189.0231,122.8417 191.5551,125.3737 194.6671,125.3737 C197.7791,125.3737 200.3111,122.8417 200.3111,119.7297 L200.3111,116.6657 C200.3111,113.5537 197.7791,111.0217 194.6671,111.0217 M194.6671,127.0607 C190.6251,127.0607 187.3371,123.7717 187.3371,119.7297 L187.3371,116.6657 C187.3371,112.6237 190.6251,109.3347 194.6671,109.3347 C198.7091,109.3347 201.9971,112.6237 201.9971,116.6657 L201.9971,119.7297 C201.9971,123.7717 198.7091,127.0607 194.6671,127.0607" id="Fill-73" fill="#007BFF"></path>
                    <path d="M193.4271,171.3948 C192.9611,171.3948 192.5841,171.0178 192.5841,170.5518 L192.5841,153.9268 C192.5841,153.4608 192.9611,153.0838 193.4271,153.0838 C193.8931,153.0838 194.2701,153.4608 194.2701,153.9268 L194.2701,170.5518 C194.2701,171.0178 193.8931,171.3948 193.4271,171.3948" id="Fill-75" fill="#007BFF"></path>
                    <path d="M212.4869,127.7102 L210.8249,127.7102 C210.7769,127.7102 209.7729,127.7092 209.7239,127.7072 C209.2589,127.6902 208.8949,127.3002 208.9109,126.8352 C208.9269,126.3692 209.3129,125.9952 209.7829,126.0222 C209.8639,126.0232 210.7799,126.0232 210.8249,126.0232 L212.4869,126.0232 C214.3699,126.0232 215.9009,124.4922 215.9009,122.6092 L215.9009,118.5442 C215.9009,116.6612 214.3699,115.1292 212.4869,115.1292 L210.8249,115.1292 C210.5049,115.1292 209.5169,115.1522 209.3349,115.1762 C208.8779,115.2352 208.4479,114.9222 208.3799,114.4662 C208.3109,114.0112 208.6109,113.5872 209.0649,113.5112 C209.4179,113.4522 210.8119,113.4432 210.8249,113.4432 L212.4869,113.4432 C215.2999,113.4432 217.5879,115.7312 217.5879,118.5442 L217.5879,122.6092 C217.5879,125.4222 215.2999,127.7102 212.4869,127.7102" id="Fill-77" fill="#FFFFFF"></path>
                    <path d="M220.8563,138.7903 C220.5583,138.7903 220.2703,138.6333 220.1163,138.3543 C219.2003,136.6923 217.7443,135.3513 216.0153,134.5783 C215.5903,134.3883 215.4003,133.8893 215.5903,133.4633 C215.7803,133.0393 216.2793,132.8483 216.7043,133.0383 C218.7653,133.9593 220.5013,135.5583 221.5943,137.5403 C221.8183,137.9483 221.6703,138.4613 221.2623,138.6863 C221.1333,138.7573 220.9933,138.7903 220.8563,138.7903" id="Fill-79" fill="#FFFFFF"></path>
                    <path d="M219.4617,153.1711 C219.2557,153.1711 219.0497,153.0961 218.8867,152.9441 C218.5457,152.6271 218.5277,152.0931 218.8457,151.7531 C220.3567,150.1331 221.1897,148.0291 221.1897,145.8301 L221.1897,142.5251 C221.1897,142.1481 221.1757,142.1161 221.1197,141.9831 C221.0647,141.8521 220.9807,141.6541 220.8877,141.3111 C220.7647,140.8611 221.0307,140.3981 221.4797,140.2751 C221.9287,140.1531 222.3927,140.4191 222.5147,140.8681 C222.5787,141.1031 222.6267,141.2161 222.6727,141.3271 C222.8107,141.6531 222.8757,141.8781 222.8757,142.5251 L222.8757,145.8301 C222.8757,148.4581 221.8827,150.9701 220.0787,152.9031 C219.9127,153.0811 219.6877,153.1711 219.4617,153.1711" id="Fill-81" fill="#007BFF"></path>
                    <path d="M218.7852,171.6326 C218.3192,171.6326 217.9422,171.2556 217.9422,170.7896 L217.9422,145.7276 C217.9422,145.2616 218.3192,144.8846 218.7852,144.8846 C219.2512,144.8846 219.6282,145.2616 219.6282,145.7276 L219.6282,170.7896 C219.6282,171.2556 219.2512,171.6326 218.7852,171.6326" id="Fill-83" fill="#FFFFFF"></path>
                    <path d="M212.3309,171.3948 C211.8649,171.3948 211.4879,171.0178 211.4879,170.5518 L211.4879,159.0538 C211.4879,158.5878 211.8649,158.2108 212.3309,158.2108 C212.7969,158.2108 213.1739,158.5878 213.1739,159.0538 L213.1739,170.5518 C213.1739,171.0178 212.7969,171.3948 212.3309,171.3948" id="Fill-85" fill="#FF6F00"></path>
                    <path d="M179.7237,127.7102 L178.0617,127.7102 C175.2497,127.7102 172.9617,125.4222 172.9617,122.6092 L172.9617,118.5442 C172.9617,115.7312 175.2497,113.4432 178.0617,113.4432 L179.7237,113.4432 C179.7367,113.4432 181.1317,113.4522 181.4837,113.5112 C181.9427,113.5882 182.2537,114.0222 182.1767,114.4812 C182.1007,114.9392 181.6697,115.2492 181.2117,115.1762 C181.0257,115.1512 180.0427,115.1292 179.7237,115.1292 L178.0617,115.1292 C176.1797,115.1292 174.6477,116.6612 174.6477,118.5442 L174.6477,122.6092 C174.6477,124.4922 176.1797,126.0232 178.0617,126.0232 L179.7237,126.0232 C179.7697,126.0232 180.6847,126.0232 180.7757,126.0222 C180.7797,126.0222 180.7857,126.0212 180.7897,126.0212 C181.2457,126.0212 181.6237,126.3852 181.6357,126.8422 C181.6477,127.3052 181.2867,127.6902 180.8247,127.7072 C180.7757,127.7092 179.7727,127.7102 179.7237,127.7102" id="Fill-87" fill="#007BFF"></path>
                    <path d="M169.6927,138.7903 C169.5557,138.7903 169.4157,138.7573 169.2867,138.6863 C168.8787,138.4613 168.7307,137.9483 168.9547,137.5403 C170.0477,135.5583 171.7837,133.9593 173.8447,133.0383 C174.2707,132.8483 174.7687,133.0393 174.9587,133.4633 C175.1487,133.8893 174.9587,134.3883 174.5337,134.5783 C172.8047,135.3513 171.3487,136.6923 170.4327,138.3543 C170.2787,138.6333 169.9907,138.7903 169.6927,138.7903" id="Fill-89" fill="#64EFFF"></path>
                    <path d="M171.087,153.1711 C170.861,153.1711 170.636,153.0811 170.47,152.9031 C168.666,150.9701 167.673,148.4581 167.673,145.8301 L167.673,142.5251 C167.673,141.8781 167.738,141.6531 167.876,141.3271 C167.922,141.2161 167.97,141.1031 168.034,140.8681 C168.156,140.4191 168.62,140.1531 169.069,140.2751 C169.518,140.3981 169.784,140.8611 169.661,141.3111 C169.568,141.6541 169.484,141.8521 169.429,141.9831 C169.373,142.1161 169.359,142.1481 169.359,142.5251 L169.359,145.8301 C169.359,148.0291 170.192,150.1331 171.703,151.7531 C172.021,152.0931 172.003,152.6271 171.662,152.9441 C171.5,153.0961 171.293,153.1711 171.087,153.1711" id="Fill-91" fill="#007BFF"></path>
                    <path d="M171.7637,171.6326 C171.2977,171.6326 170.9207,171.2556 170.9207,170.7896 L170.9207,145.7276 C170.9207,145.2616 171.2977,144.8846 171.7637,144.8846 C172.2297,144.8846 172.6067,145.2616 172.6067,145.7276 L172.6067,170.7896 C172.6067,171.2556 172.2297,171.6326 171.7637,171.6326" id="Fill-93" fill="#007BFF"></path>
                    <path d="M178.2178,171.3948 C177.7518,171.3948 177.3748,171.0178 177.3748,170.5518 L177.3748,159.0538 C177.3748,158.5878 177.7518,158.2108 178.2178,158.2108 C178.6838,158.2108 179.0608,158.5878 179.0608,159.0538 L179.0608,170.5518 C179.0608,171.0178 178.6838,171.3948 178.2178,171.3948" id="Fill-95" fill="#FFFFFF"></path>
                    <path d="M102.7164,154.9646 L94.1734,148.5916 C93.1854,147.8556 93.1854,146.3746 94.1734,145.6376 L102.7164,139.2656 C103.9324,138.3596 105.6614,139.2266 105.6614,140.7426 L105.6614,153.4866 C105.6614,155.0036 103.9324,155.8706 102.7164,154.9646" id="Fill-97" fill="#FF6F00"></path>
                    <path d="M289.3548,139.2654 L297.8978,145.6374 C298.8868,146.3744 298.8868,147.8554 297.8978,148.5924 L289.3548,154.9644 C288.1388,155.8704 286.4098,155.0034 286.4098,153.4874 L286.4098,140.7434 C286.4098,139.2264 288.1388,138.3594 289.3548,139.2654" id="Fill-99" fill="#64EFFF"></path>
                </g>
                <g id="Group-124" transform="translate(0.000000, 0.712000)">
                    <path d="M30.1932,6.4666 L37.0322,6.4666 C40.8562,6.4666 43.9852,9.5946 43.9852,13.4196 L43.9852,55.5476" id="Stroke-102" stroke="#000076" stroke-width="4" stroke-linecap="round" stroke-linejoin="round"></path>
                    <path d="M43.9852,64.0461 L43.9852,74.6991 C43.9852,78.5231 40.8562,81.6511 37.0322,81.6511 L27.8032,81.6511" id="Stroke-104" stroke="#007BFF" stroke-width="3" stroke-linecap="round" stroke-linejoin="round"></path>
                    <path d="M17.1366,81.6516 L8.4526,81.6516 C4.6286,81.6516 1.5006,78.5236 1.5006,74.6986 L1.5006,13.4196 C1.5006,9.5946 4.6286,6.4666 8.4526,6.4666 L23.4736,6.4666" id="Stroke-106" stroke="#007BFF" stroke-width="3" stroke-linecap="round" stroke-linejoin="round"></path>
                    <mask id="mask-2" fill="white">
                        <use xlink:href="#path-1"></use>
                    </mask>
                    <g id="Clip-109"></g>
                    <polygon id="Stroke-108" stroke="#64EFFF" stroke-width="2" stroke-linecap="round" stroke-linejoin="round" mask="url(#mask-2)" points="9.865 26.591 19.115 26.591 19.115 17.195 9.865 17.195"></polygon>
                    <polygon id="Stroke-110" stroke="#000076" stroke-width="2" stroke-linecap="round" stroke-linejoin="round" mask="url(#mask-2)" points="9.865 40.693 19.115 40.693 19.115 31.297 9.865 31.297"></polygon>
                    <polygon id="Stroke-111" stroke="#000076" stroke-width="2" stroke-linecap="round" stroke-linejoin="round" mask="url(#mask-2)" points="9.865 54.794 19.115 54.794 19.115 45.398 9.865 45.398"></polygon>
                    <polygon id="Stroke-112" stroke="#64EFFF" stroke-width="2" stroke-linecap="round" stroke-linejoin="round" mask="url(#mask-2)" points="25.829 26.591 35.079 26.591 35.079 17.195 25.829 17.195"></polygon>
                    <polygon id="Stroke-113" stroke="#000076" stroke-width="2" stroke-linecap="round" stroke-linejoin="round" mask="url(#mask-2)" points="25.829 40.693 35.079 40.693 35.079 31.297 25.829 31.297"></polygon>
                    <polygon id="Stroke-114" stroke="#000076" stroke-width="2" stroke-linecap="round" stroke-linejoin="round" mask="url(#mask-2)" points="25.829 54.794 35.079 54.794 35.079 45.398 25.829 45.398"></polygon>
                    <polyline id="Stroke-115" stroke="#007BFF" stroke-width="3" stroke-linecap="round" stroke-linejoin="round" mask="url(#mask-2)" points="17.1632 81.6897 17.1632 63.1837 28.4402 63.1837 28.4402 81.6897 22.5642 81.6897"></polyline>
                    <path d="M19.5384,148.6233 L19.5384,134.8923 C19.5384,129.9593 23.5734,125.9243 28.5064,125.9243 L68.4034,125.9243" id="Stroke-116" stroke="#000076" stroke-width="3" stroke-linecap="round" stroke-linejoin="round" mask="url(#mask-2)"></path>
                    <path d="M76.0235,125.9773 C80.5015,126.4673 84.0155,130.2893 84.0155,134.8923 L84.0155,163.4403 C84.0155,168.3733 79.9805,172.4083 75.0485,172.4083 L73.6935,172.4083" id="Stroke-117" stroke="#007BFF" stroke-width="3" stroke-linecap="round" stroke-linejoin="round" mask="url(#mask-2)"></path>
                    <path d="M66.7337,172.408 L28.5057,172.408 C23.5737,172.408 19.5387,168.373 19.5387,163.441 L19.5387,155.757" id="Stroke-118" stroke="#007BFF" stroke-width="4" stroke-linecap="round" stroke-linejoin="round" mask="url(#mask-2)"></path>
                    <path d="M39.6661,125.0017 L39.6661,123.0477 C39.6661,121.3247 41.0761,119.9157 42.7991,119.9157 L60.2561,119.9157 C61.9791,119.9157 63.3891,121.3247 63.3891,123.0477 L63.3891,125.8177" id="Stroke-119" stroke="#000076" stroke-width="3" stroke-linecap="round" stroke-linejoin="round" mask="url(#mask-2)"></path>
                    <path d="M47.6578,150.6843 L20.2848,142.9323" id="Stroke-120" stroke="#000076" stroke-width="3" stroke-linecap="round" stroke-linejoin="round" mask="url(#mask-2)"></path>
                    <path d="M57.1483,149.8503 L82.3013,142.9323" id="Stroke-121" stroke="#007BFF" stroke-width="3" stroke-linecap="round" stroke-linejoin="round" mask="url(#mask-2)"></path>
                    <path d="M54.3585,155.2234 L48.6965,155.2234 C48.0075,155.2234 47.4445,154.6604 47.4445,153.9724 L47.4445,143.8184 C47.4445,143.1304 48.0075,142.5664 48.6965,142.5664 L54.3585,142.5664 C55.0465,142.5664 55.6105,143.1304 55.6105,143.8184 L55.6105,153.9724 C55.6105,154.6604 55.0465,155.2234 54.3585,155.2234" id="Fill-122" fill="#FFFFFF" mask="url(#mask-2)"></path>
                    <path d="M54.3585,155.2234 L48.6965,155.2234 C48.0075,155.2234 47.4445,154.6604 47.4445,153.9724 L47.4445,143.8184 C47.4445,143.1304 48.0075,142.5664 48.6965,142.5664 L54.3585,142.5664 C55.0465,142.5664 55.6105,143.1304 55.6105,143.8184 L55.6105,153.9724 C55.6105,154.6604 55.0465,155.2234 54.3585,155.2234 Z" id="Stroke-123" stroke="#FF6F00" stroke-width="3" stroke-linecap="round" stroke-linejoin="round" mask="url(#mask-2)"></path>
                </g>
            </g>
        </g>
    </g>
</svg>