<?xml version="1.0" encoding="UTF-8"?>
<svg width="421px" height="313px" viewBox="0 0 421 313" version="1.1" xmlns="http://www.w3.org/2000/svg" xmlns:xlink="http://www.w3.org/1999/xlink">
    <!-- Generator: Sketch 51.2 (57519) - http://www.bohemiancoding.com/sketch -->
    <title>Group 131</title>
    <desc>Created with Sketch.</desc>
    <defs>
        <polygon id="path-1" points="0 0.631102439 54.1058011 0.631102439 54.1058011 34.2940079 0 34.2940079"></polygon>
        <polygon id="path-3" points="0 0.631102439 54.1058011 0.631102439 54.1058011 34.2940079 0 34.2940079"></polygon>
        <polygon id="path-5" points="0.564652027 0.737202744 4.41054392 0.737202744 4.41054392 11.3780488 0.564652027 11.3780488"></polygon>
        <polygon id="path-7" points="0.279434009 0.737202744 4.1253259 0.737202744 4.1253259 11.3780488 0.279434009 11.3780488"></polygon>
        <polygon id="path-9" points="0.0403932432 0.51637378 41.8824833 0.51637378 41.8824833 26.5487805 0.0403932432 26.5487805"></polygon>
    </defs>
    <g id="Desktop" stroke="none" stroke-width="1" fill="none" fill-rule="evenodd">
        <g id="5-Project-" transform="translate(-163.000000, -1169.000000)">
            <g id="Group-131" transform="translate(163.000000, 1171.000000)">
                <path d="M212,45 L213,45" id="Stroke-1" stroke="#D4D4D4" stroke-width="4" stroke-linecap="round" stroke-linejoin="round"></path>
                <g id="Group-129">
                    <path d="M222.918647,45.4701912 L260.689174,45.4701912 C271.287185,45.4701912 279.958457,54.1421607 279.958457,64.7398649 L279.958457,81.7775448" id="Stroke-2" stroke="#D4D4D4" stroke-width="4" stroke-linecap="round" stroke-linejoin="round" stroke-dasharray="3.129,10.43"></path>
                    <path d="M279.958742,86.7221604 L279.958742,88.1444165" id="Stroke-4" stroke="#D4D4D4" stroke-width="4" stroke-linecap="round" stroke-linejoin="round"></path>
                    <path d="M279.958742,220.007753 L279.958742,221.430009" id="Stroke-6" stroke="#D4D4D4" stroke-width="4" stroke-linecap="round" stroke-linejoin="round"></path>
                    <path d="M279.958742,231.112634 L279.958742,260.686079 C279.958742,270.579292 271.864922,278.672877 261.97237,278.672877 L173.568059,278.672877" id="Stroke-8" stroke="#D4D4D4" stroke-width="4" stroke-linecap="round" stroke-linejoin="round" stroke-dasharray="3.063,10.212"></path>
                    <path d="M168.726465,278.672972 L167.304167,278.672972" id="Stroke-10" stroke="#D4D4D4" stroke-width="4" stroke-linecap="round" stroke-linejoin="round"></path>
                    <path d="M341.591625,158.395145 L343.01487,158.395145" id="Stroke-12" stroke="#D4D4D4" stroke-width="3" stroke-linecap="round" stroke-linejoin="round"></path>
                    <path d="M352.90562,158.395145 L360.824972,158.395145" id="Stroke-14" stroke="#D4D4D4" stroke-width="3" stroke-linecap="round" stroke-linejoin="round" stroke-dasharray="3.129,10.429"></path>
                    <path d="M363.373823,158.395145 L361.955319,158.395145 C362.436055,158.395145 362.909206,158.429279 363.373823,158.494702" id="Stroke-16" stroke="#D4D4D4" stroke-width="3" stroke-linecap="round" stroke-linejoin="round"></path>
                    <path d="M371.330249,164.256357 C372.192161,165.892899 372.684276,167.775018 372.684276,169.772814 L372.684276,198.707192" id="Stroke-18" stroke="#D4D4D4" stroke-width="3" stroke-linecap="round" stroke-linejoin="round" stroke-dasharray="3.226,10.753"></path>
                    <path d="M372.684466,203.805506 L372.684466,205.227762" id="Stroke-20" stroke="#D4D4D4" stroke-width="3" stroke-linecap="round" stroke-linejoin="round"></path>
                    <path d="M121.220976,195.281641 L121.220976,135.072799" id="Stroke-22" stroke="#D4D4D4" stroke-width="4" stroke-linecap="round" stroke-linejoin="round" stroke-dasharray="3,10"></path>
                    <path d="M138.970488,9.44017744 L138.970488,4.5011561 C138.970488,2.08616524 140.946533,0.109229268 143.362542,0.109229268 L157.828254,0.109229268" id="Stroke-24" stroke="#000076" stroke-width="4" stroke-linecap="round" stroke-linejoin="round"></path>
                    <path d="M177.976043,0.109418902 L197.269032,0.109418902 C199.684093,0.109418902 201.660138,2.08540671 201.660138,4.50134573 L201.660138,83.9457268 C201.660138,86.3607177 199.684093,88.3376537 197.269032,88.3376537 L186.93462,88.3376537" id="Stroke-26" stroke="#64EFFF" stroke-width="4" stroke-linecap="round" stroke-linejoin="round"></path>
                    <path d="M106.635697,53.8482277 L106.635697,37.705621" id="Stroke-28" stroke="#FF6F00" stroke-width="6" stroke-linecap="round" stroke-linejoin="round"></path>
                    <path d="M108.034574,20.8339659 L156.025729,20.8339659 L178.402258,42.4456213 L178.402258,113.652295 C178.402258,116.370701 176.214765,118.574249 173.517141,118.574249 L138.049788,118.574249" id="Stroke-30" stroke="#000076" stroke-width="5" stroke-linecap="round" stroke-linejoin="round"></path>
                    <polyline id="Stroke-32" stroke="#000076" stroke-width="6" stroke-linecap="round" stroke-linejoin="round" points="156.02535 21.4400366 156.02535 42.556747 178.292836 42.556747"></polyline>
                    <path d="M129.280661,67.0953107 C131.516512,68.2454418 134.378175,68.1297649 136.508776,66.8023259 C137.548001,66.1556735 138.397587,65.2615485 139.351474,64.5011155 C141.922039,62.4521186 145.299521,61.3996491 148.607785,61.6177284 C149.447889,61.6727223 150.440652,61.9296765 150.701407,62.7128655 C151.134733,64.0137558 149.135931,65.4966948 150.016807,66.5605424 C150.497544,67.1408229 151.448587,66.969204 152.126548,66.6240698 C153.797274,65.7735607 155.001485,64.2545912 156.547048,63.2030698 C158.091663,62.1496521 160.391992,61.6698777 161.746967,62.9489601" id="Stroke-34" stroke="#64EFFF" stroke-width="3" stroke-linecap="round" stroke-linejoin="round"></path>
                    <g id="Group-39" transform="translate(138.436937, 243.679878)">
                        <path d="M0.59470991,0.586728049 L1.28879099,0.586728049 L3.81384279,0.586728049 C5.5462009,0.586728049 6.96280901,2.00424329 6.96280901,3.73560305 L6.96280901,39.1317646" id="Fill-36" fill="#FFFFFF"></path>
                        <path d="M0.59470991,0.586728049 L1.28879099,0.586728049 L3.81384279,0.586728049 C5.5462009,0.586728049 6.96280901,2.00424329 6.96280901,3.73560305 L6.96280901,39.1317646" id="Stroke-38" stroke="#64EFFF" stroke-width="4" stroke-linecap="round" stroke-linejoin="round"></path>
                    </g>
                    <path d="M145.40003,293.419208 L145.40003,304.906296 C145.40003,306.638604 143.983422,308.05612 142.251064,308.05612 L103.596816,308.05612 C101.865407,308.05612 100.44785,306.638604 100.44785,304.906296 L100.44785,300.615824" id="Stroke-40" stroke="#64EFFF" stroke-width="4" stroke-linecap="round" stroke-linejoin="round"></path>
                    <path d="M119.3352,202.287864 L122.651049,202.287864 L126.172657,202.287864 C128.587718,202.287864 130.563763,204.263852 130.563763,206.679791 L130.563763,249.542797" id="Stroke-42" stroke="#FF6F00" stroke-width="4" stroke-linecap="round" stroke-linejoin="round"></path>
                    <path d="M130.564047,262.187412 L130.564047,283.733644 C130.564047,286.148635 128.588002,288.125571 126.171993,288.125571 L81.9309617,288.125571" id="Stroke-44" stroke="#000076" stroke-width="4" stroke-linecap="round" stroke-linejoin="round"></path>
                    <path d="M35.8833282,200.54342 L35.8833282,183.440316 L35.8833282,178.140041 C35.8833282,175.421636 38.0708214,173.218087 40.7693935,173.218087 L48.5275511,173.218087" id="Stroke-46" stroke="#007BFF" stroke-width="6" stroke-linecap="round" stroke-linejoin="round"></path>
                    <polyline id="Stroke-48" stroke="#000076" stroke-width="4" stroke-linecap="round" stroke-linejoin="round" points="62.512716 173.217708 88.289484 173.217708 110.666961 194.830312 110.666961 235.948684"></polyline>
                    <path d="M110.666677,251.282975 L110.666677,266.035563 C110.666677,268.753969 108.479184,270.957517 105.780612,270.957517 L67.5113324,270.957517" id="Stroke-50" stroke="#007BFF" stroke-width="4" stroke-linecap="round" stroke-linejoin="round"></path>
                    <polyline id="Stroke-52" stroke="#000076" stroke-width="4" stroke-linecap="round" stroke-linejoin="round" points="88.2897685 173.824253 88.2897685 194.940015 110.557255 194.940015"></polyline>
                    <path d="M58.1131712,244.21019 C60.3205766,245.414367 63.1841351,245.367906 65.3469752,244.092617 C66.4004234,243.470617 67.2718176,242.5983 68.2446689,241.860623 C70.8635923,239.875153 74.2657275,238.905175 77.5673536,239.2029 C78.406509,239.278754 79.3926351,239.559413 79.6344257,240.349239 C80.0364617,241.660559 78.0016284,243.094193 78.855955,244.177952 C79.3224685,244.770559 80.2782523,244.621696 80.9637995,244.292681 C82.6544369,243.483891 83.8956284,241.995263 85.4658446,240.979772 C87.0360608,239.96523 89.3468198,239.540449 90.6705045,240.852717" id="Stroke-54" stroke="#FF6F00" stroke-width="3" stroke-linecap="round" stroke-linejoin="round"></path>
                    <path d="M24.3496349,216.574806 C20.9683601,216.574806 18.216689,219.325449 18.216689,222.706626 L18.216689,235.173175 C18.216689,238.554352 20.9683601,241.305943 24.3496349,241.305943 L31.1406304,241.305943 C34.5219052,241.305943 37.2735764,238.554352 37.2735764,235.173175 L37.2735764,222.706626 C37.2735764,219.325449 34.5219052,216.574806 31.1406304,216.574806 L24.3496349,216.574806 Z M31.1406304,246.279098 L24.3496349,246.279098 C18.2261709,246.279098 13.2433894,241.296461 13.2433894,235.173175 L13.2433894,222.706626 C13.2433894,216.583339 18.2261709,211.60165 24.3496349,211.60165 L31.1406304,211.60165 C37.2640944,211.60165 42.2468759,216.583339 42.2468759,222.706626 L42.2468759,235.173175 C42.2468759,241.296461 37.2640944,246.279098 31.1406304,246.279098 Z" id="Fill-56" fill="#000076"></path>
                    <path d="M12.9730581,268.954696 C11.6000671,268.954696 10.4868824,270.068797 10.4868824,271.441748 L10.4868824,282.71455 L15.460182,282.71455 L15.460182,271.441748 C15.460182,270.068797 14.3460491,268.954696 12.9730581,268.954696" id="Fill-58" fill="#000076"></path>
                    <path d="M39.5791203,268.954696 C38.2061293,268.954696 37.0929446,270.068797 37.0929446,271.441748 L37.0929446,282.71455 L42.0652959,282.71455 L42.0652959,271.441748 C42.0652959,270.068797 40.9521113,268.954696 39.5791203,268.954696" id="Fill-60" fill="#000076"></path>
                    <g id="Group-64" transform="translate(0.000000, 248.420732)">
                        <mask id="mask-2" fill="white">
                            <use xlink:href="#path-1"></use>
                        </mask>
                        <g id="Clip-63"></g>
                        <path d="M54.1058011,24.9516817 C54.1058011,11.5407549 43.1948845,0.631102439 29.7845173,0.631102439 L24.3209993,0.631102439 C10.9106322,0.631102439 -0.000284459459,11.5407549 -0.000284459459,24.9516817 L-0.000284459459,32.5161878 C-0.000284459459,33.111639 0.0376434685,33.7032976 0.0812605856,34.2940079 L5.05645653,34.2940079 C5.00240923,33.7042457 4.97301509,33.111639 4.97301509,32.5161878 L4.97301509,24.9516817 C4.97301509,14.2828646 13.6528214,5.60330976 24.3209993,5.60330976 L29.7845173,5.60330976 C40.4536435,5.60330976 49.1325016,14.2828646 49.1325016,24.9516817 L49.1325016,32.5161878 C49.1325016,33.111639 49.1040556,33.7042457 49.0490601,34.2940079 L54.0242561,34.2940079 C54.0678732,33.7032976 54.1058011,33.111639 54.1058011,32.5161878 L54.1058011,24.9516817 Z" id="Fill-62" fill="#000076" mask="url(#mask-2)"></path>
                    </g>
                    <path d="M24.3496349,216.574806 C20.9683601,216.574806 18.216689,219.325449 18.216689,222.706626 L18.216689,235.173175 C18.216689,238.554352 20.9683601,241.305943 24.3496349,241.305943 L31.1406304,241.305943 C34.5219052,241.305943 37.2735764,238.554352 37.2735764,235.173175 L37.2735764,222.706626 C37.2735764,219.325449 34.5219052,216.574806 31.1406304,216.574806 L24.3496349,216.574806 Z M31.1406304,246.279098 L24.3496349,246.279098 C18.2261709,246.279098 13.2433894,241.296461 13.2433894,235.173175 L13.2433894,222.706626 C13.2433894,216.583339 18.2261709,211.60165 24.3496349,211.60165 L31.1406304,211.60165 C37.2640944,211.60165 42.2468759,216.583339 42.2468759,222.706626 L42.2468759,235.173175 C42.2468759,241.296461 37.2640944,246.279098 31.1406304,246.279098 Z" id="Fill-65" fill="#000076"></path>
                    <path d="M12.9730581,268.954696 C11.6000671,268.954696 10.4868824,270.068797 10.4868824,271.441748 L10.4868824,282.71455 L15.460182,282.71455 L15.460182,271.441748 C15.460182,270.068797 14.3460491,268.954696 12.9730581,268.954696" id="Fill-67" fill="#000076"></path>
                    <path d="M39.5791203,268.954696 C38.2061293,268.954696 37.0929446,270.068797 37.0929446,271.441748 L37.0929446,282.71455 L42.0652959,282.71455 L42.0652959,271.441748 C42.0652959,270.068797 40.9521113,268.954696 39.5791203,268.954696" id="Fill-69" fill="#000076"></path>
                    <g id="Group-73" transform="translate(0.000000, 248.420732)">
                        <mask id="mask-4" fill="white">
                            <use xlink:href="#path-3"></use>
                        </mask>
                        <g id="Clip-72"></g>
                        <path d="M54.1058011,24.9516817 C54.1058011,11.5407549 43.1948845,0.631102439 29.7845173,0.631102439 L24.3209993,0.631102439 C10.9106322,0.631102439 -0.000284459459,11.5407549 -0.000284459459,24.9516817 L-0.000284459459,32.5161878 C-0.000284459459,33.111639 0.0376434685,33.7032976 0.0812605856,34.2940079 L5.05645653,34.2940079 C5.00240923,33.7042457 4.97301509,33.111639 4.97301509,32.5161878 L4.97301509,24.9516817 C4.97301509,14.2828646 13.6528214,5.60330976 24.3209993,5.60330976 L29.7845173,5.60330976 C40.4536435,5.60330976 49.1325016,14.2828646 49.1325016,24.9516817 L49.1325016,32.5161878 C49.1325016,33.111639 49.1040556,33.7042457 49.0490601,34.2940079 L54.0242561,34.2940079 C54.0678732,33.7032976 54.1058011,33.111639 54.1058011,32.5161878 L54.1058011,24.9516817 Z" id="Fill-71" fill="#000076" mask="url(#mask-4)"></path>
                    </g>
                    <path d="M104.289475,69.1036311 C101.570991,69.1036311 99.3597928,71.3157134 99.3597928,74.0331707 L99.3597928,84.0543872 C99.3597928,86.7727927 101.570991,88.984875 104.289475,88.984875 L109.748252,88.984875 C112.466736,88.984875 114.678883,86.7727927 114.678883,84.0543872 L114.678883,74.0331707 C114.678883,71.3157134 112.466736,69.1036311 109.748252,69.1036311 L104.289475,69.1036311 Z M109.748252,92.9823628 L104.289475,92.9823628 C99.3664302,92.9823628 95.361241,88.9772896 95.361241,84.0543872 L95.361241,74.0331707 C95.361241,69.1112165 99.3664302,65.1061433 104.289475,65.1061433 L109.748252,65.1061433 C114.671297,65.1061433 118.676486,69.1112165 118.676486,74.0331707 L118.676486,84.0543872 C118.676486,88.9772896 114.671297,92.9823628 109.748252,92.9823628 Z" id="Fill-74" fill="#000076"></path>
                    <path d="M95.1442932,111.211135 C94.0396423,111.211135 93.1454914,112.106208 93.1454914,113.209879 L93.1454914,122.272495 L97.143095,122.272495 L97.143095,113.209879 C97.143095,112.106208 96.2479959,111.211135 95.1442932,111.211135" id="Fill-76" fill="#000076"></path>
                    <path d="M116.532231,111.211135 C115.42758,111.211135 114.533429,112.106208 114.533429,113.209879 L114.533429,122.272495 L118.531033,122.272495 L118.531033,113.209879 C118.531033,112.106208 117.635934,111.211135 116.532231,111.211135" id="Fill-78" fill="#000076"></path>
                    <path d="M128.209956,114.762129 C128.209956,103.981428 119.439122,95.2108485 108.658109,95.2108485 L104.267003,95.2108485 C93.4859894,95.2108485 84.7151561,103.981428 84.7151561,114.762129 L84.7151561,120.843696 C84.7151561,121.321574 84.7454984,121.797556 84.7805818,122.272589 L88.7800818,122.272589 C88.7364646,121.798504 88.7127597,121.321574 88.7127597,120.843696 L88.7127597,114.762129 C88.7127597,106.185925 95.6905502,99.2092845 104.267003,99.2092845 L108.658109,99.2092845 C117.234561,99.2092845 124.212352,106.185925 124.212352,114.762129 L124.212352,120.843696 C124.212352,121.321574 124.189595,121.798504 124.14503,122.272589 L128.14453,122.272589 C128.179613,121.797556 128.209956,121.321574 128.209956,120.843696 L128.209956,114.762129 Z" id="Fill-80" fill="#000076"></path>
                    <path d="M57.0615245,220.190181 C56.3162408,220.648147 56.0630718,221.399098 56.4480403,222.010669 C57.5934637,222.120656 58.7275088,221.781211 59.6918264,221.374446 C63.684689,219.68765 64.8547655,217.76476 68.5394637,215.222714 C71.6030921,213.109242 74.2381349,210.682873 78.9705921,210.179394 C77.1491034,213.233452 75.64052,215.680681 73.8190313,218.734739 C73.32502,219.561544 72.8291124,220.478425 73.3126935,221.307126 C73.9508309,222.400367 76.1440133,222.868763 77.9247295,222.580519 C79.7054457,222.291327 81.1163646,221.438922 82.2873894,220.541952 C82.3177318,221.332727 83.8699322,221.803019 85.0798331,221.6058 C86.2887858,221.40858 87.1867295,220.783736 88.0097655,220.188284 C87.9073601,221.070083 91.5266327,221.914903 90.4153444,222.449672" id="Stroke-82" stroke="#000076" stroke-width="3" stroke-linecap="round" stroke-linejoin="round"></path>
                    <path d="M315.907401,154.813619 C315.907401,175.298848 299.299709,191.906058 278.813887,191.906058 C258.328065,191.906058 241.720374,175.298848 241.720374,154.813619 C241.720374,134.328391 258.328065,117.72118 278.813887,117.72118 C299.299709,117.72118 315.907401,134.328391 315.907401,154.813619" id="Fill-84" fill="#000076"></path>
                    <path d="M271.208959,142.36793 C273.625916,140.91154 276.457236,140.074305 279.484832,140.074305 C288.354278,140.074305 295.544465,147.264284 295.544465,156.133473 C295.544465,157.422985 295.392754,158.678363 295.104501,159.879695" id="Stroke-86" stroke="#FF6F00" stroke-width="4" stroke-linecap="round" stroke-linejoin="round"></path>
                    <path d="M289.762922,168.473156 C286.978064,170.795227 283.394823,172.191882 279.485401,172.191882 C270.615955,172.191882 263.425768,165.001903 263.425768,156.132714 C263.425768,155.086882 263.525329,154.063806 263.716865,153.072967" id="Stroke-88" stroke="#FFFFFF" stroke-width="4" stroke-linecap="round" stroke-linejoin="round"></path>
                    <path d="M284.8907,166.144449 C284.8907,166.144449 290.286896,167.686175 292.34259,166.915312 C292.34259,166.915312 289.772973,170.768678 290.029934,174.622992" id="Stroke-90" stroke="#FFFFFF" stroke-width="4" stroke-linecap="round" stroke-linejoin="round"></path>
                    <path d="M274.963823,146.105524 C274.963823,146.105524 269.850191,143.793884 267.704418,144.25754 C267.704418,144.25754 270.807871,140.818524 271.115087,136.968003" id="Stroke-92" stroke="#FF6F00" stroke-width="4" stroke-linecap="round" stroke-linejoin="round"></path>
                    <path d="M303.032386,122.088739 L256.682562,187.748614" id="Stroke-94" stroke="#FFFFFF" stroke-width="5" stroke-linecap="round" stroke-linejoin="round"></path>
                    <path d="M303.032386,122.088739 L256.682562,187.748614" id="Stroke-96" stroke="#FFFFFF" stroke-width="5" stroke-linecap="round" stroke-linejoin="round"></path>
                    <path d="M234.438686,130.852397 C243.246499,115.081473 260.108307,104.394641 279.419312,104.394641 C294.211204,104.394641 307.566575,110.664894 316.966064,120.688006" id="Stroke-98" stroke="#64EFFF" stroke-width="5" stroke-linecap="round" stroke-linejoin="round"></path>
                    <path d="M324.74072,131.472785 C328.669106,138.738617 330.900216,147.050282 330.900216,155.873959 C330.900216,184.259346 307.805901,207.352992 279.419691,207.352992 C271.400779,207.352992 263.805711,205.509748 257.032732,202.226233" id="Stroke-100" stroke="#64EFFF" stroke-width="5" stroke-linecap="round" stroke-linejoin="round"></path>
                    <path d="M249.455775,197.712277 C236.435117,188.361417 227.938313,173.091127 227.938313,155.874243 C227.938313,153.08188 228.162088,150.341667 228.591622,147.668773" id="Stroke-102" stroke="#64EFFF" stroke-width="5" stroke-linecap="round" stroke-linejoin="round"></path>
                    <path d="M345.064685,248.391244 L345.064685,233.992323 L345.064685,230.166454 C345.064685,228.203741 346.643435,226.61271 348.591034,226.61271 L380.717886,226.61271 L396.870442,242.213911 L396.870442,268.51996" id="Stroke-104" stroke="#64EFFF" stroke-width="4" stroke-linecap="round" stroke-linejoin="round"></path>
                    <g id="Group-109" transform="translate(365.056306, 296.777439)">
                        <path d="M14.9639899,0.390930793 L0.631974099,0.390930793" id="Fill-106" fill="#FFFFFF"></path>
                        <path d="M14.9639899,0.390930793 L0.631974099,0.390930793" id="Stroke-108" stroke="#000076" stroke-width="6" stroke-linecap="round" stroke-linejoin="round"></path>
                    </g>
                    <polyline id="Stroke-110" stroke="#64EFFF" stroke-width="4" stroke-linecap="round" stroke-linejoin="round" points="380.717506 227.05048 380.717506 242.293273 396.791362 242.293273"></polyline>
                    <path d="M354.666614,267.20096 C356.902466,268.351091 359.764128,268.235414 361.894729,266.907975 C362.933954,266.261323 363.78354,265.367198 364.737427,264.606765 C367.307993,262.557768 370.685475,261.505298 373.993738,261.723377 C374.833842,261.778371 375.826605,262.035326 376.08736,262.818515 C376.520686,264.119405 374.521884,265.602344 375.402761,266.666191 C375.883497,267.246472 376.83454,267.074853 377.512502,266.729719 C379.183227,265.87921 380.387439,264.36024 381.933002,263.308719 C383.478565,262.255301 385.777945,261.775527 387.13292,263.054609" id="Stroke-112" stroke="#D4D4D4" stroke-width="3" stroke-linecap="round" stroke-linejoin="round"></path>
                    <path d="M334.620851,259.851688 C332.00572,259.851688 329.877964,261.979384 329.877964,264.59349 L329.877964,274.23449 C329.877964,276.849545 332.00572,278.97724 334.620851,278.97724 L339.872921,278.97724 C342.487103,278.97724 344.61486,276.849545 344.61486,274.23449 L344.61486,264.59349 C344.61486,261.979384 342.487103,259.851688 339.872921,259.851688 L334.620851,259.851688 Z M339.872921,282.823021 L334.620851,282.823021 C329.885549,282.823021 326.032072,278.970603 326.032072,274.23449 L326.032072,264.59349 C326.032072,259.858326 329.885549,256.005908 334.620851,256.005908 L339.872921,256.005908 C344.608223,256.005908 348.460752,259.858326 348.460752,264.59349 L348.460752,274.23449 C348.460752,278.970603 344.608223,282.823021 339.872921,282.823021 Z" id="Fill-114" fill="#007BFF"></path>
                    <g id="Group-118" transform="translate(323.335586, 299.621951)">
                        <mask id="mask-6" fill="white">
                            <use xlink:href="#path-5"></use>
                        </mask>
                        <g id="Clip-117"></g>
                        <path d="M2.48759797,0.737202744 C1.42561599,0.737202744 0.564652027,1.59814177 0.564652027,2.66009299 L0.564652027,11.3785229 L4.41054392,11.3785229 L4.41054392,2.66009299 C4.41054392,1.59814177 3.54957995,0.737202744 2.48759797,0.737202744" id="Fill-116" fill="#007BFF" mask="url(#mask-6)"></path>
                    </g>
                    <g id="Group-121" transform="translate(344.195946, 299.621951)">
                        <mask id="mask-8" fill="white">
                            <use xlink:href="#path-7"></use>
                        </mask>
                        <g id="Clip-120"></g>
                        <path d="M2.20237995,0.737202744 C1.14039797,0.737202744 0.279434009,1.59814177 0.279434009,2.66009299 L0.279434009,11.3785229 L4.1253259,11.3785229 L4.1253259,2.66009299 C4.1253259,1.59814177 3.26436194,0.737202744 2.20237995,0.737202744" id="Fill-119" fill="#007BFF" mask="url(#mask-8)"></path>
                    </g>
                    <g id="Group-124" transform="translate(315.750000, 284.451220)">
                        <mask id="mask-10" fill="white">
                            <use xlink:href="#path-9"></use>
                        </mask>
                        <g id="Clip-123"></g>
                        <path d="M41.8824833,19.3242884 C41.8824833,8.95319695 33.4444676,0.51637378 23.0740239,0.51637378 L18.8488527,0.51637378 C8.47840901,0.51637378 0.0403932432,8.95319695 0.0403932432,19.3242884 L0.0403932432,25.1735537 C0.0403932432,25.6343646 0.0697873874,26.0923311 0.102974324,26.5493494 L3.95076261,26.5493494 C3.90904189,26.0932793 3.88628514,25.6343646 3.88628514,25.1735537 L3.88628514,19.3242884 C3.88628514,11.0742549 10.5985802,4.36215427 18.8488527,4.36215427 L23.0740239,4.36215427 C31.3242964,4.36215427 38.0365914,11.0742549 38.0365914,19.3242884 L38.0365914,25.1735537 C38.0365914,25.6343646 38.0138347,26.0932793 37.972114,26.5493494 L41.8199023,26.5493494 C41.8530892,26.0923311 41.8824833,25.6343646 41.8824833,25.1735537 L41.8824833,19.3242884 Z" id="Fill-122" fill="#007BFF" mask="url(#mask-10)"></path>
                    </g>
                    <path d="M420.414298,291.785794 C420.479724,301.166047 412.927325,308.823474 403.5468,308.888898 C394.166275,308.953373 386.508627,301.402142 386.443201,292.021889 C386.378724,282.640688 393.930174,274.984209 403.310699,274.918785 C412.691224,274.853361 420.348872,282.404593 420.414298,291.785794" id="Fill-125" fill="#000076"></path>
                    <path d="M398.072568,296.037297 L401.665291,291.377986 L398.586491,287.279044 C398.296342,286.88176 398.078257,286.539471 397.933182,286.254071 C397.78716,285.967724 397.7132,285.692754 397.711304,285.428215 C397.709408,285.157038 397.845948,284.913358 398.120926,284.695279 C398.395903,284.477199 398.731565,284.367212 399.129809,284.364367 C399.585892,284.361523 399.942414,284.476251 400.198428,284.709501 C400.454441,284.943699 400.809068,285.377013 401.263255,286.013236 L403.71814,289.439925 L406.29155,285.978154 C406.502998,285.686117 406.684104,285.436748 406.833919,285.229099 C406.982786,285.022398 407.126912,284.850779 407.266297,284.713294 C407.405682,284.577705 407.561187,284.474355 407.733759,284.405138 C407.906331,284.33687 408.106401,284.301788 408.334917,284.299891 C408.747383,284.297047 409.08589,284.402294 409.348541,284.617529 C409.61214,284.830867 409.743939,285.086873 409.746784,285.383651 C409.749628,285.815068 409.46991,286.403882 408.907628,287.149145 L405.743491,291.350489 L409.212,295.959547 C409.523957,296.363468 409.751525,296.69912 409.893755,296.965556 C410.035036,297.231992 410.107099,297.485154 410.108995,297.723145 C410.109944,297.949757 410.049259,298.15551 409.925045,298.344196 C409.800831,298.531934 409.625414,298.680797 409.397847,298.792681 C409.170279,298.903617 408.912369,298.960507 408.625065,298.962404 C408.315953,298.9643 408.053302,298.909306 407.839009,298.79837 C407.624716,298.687434 407.450248,298.548053 407.3175,298.381175 C407.182856,298.214297 406.934428,297.890971 406.57032,297.4093 L403.69159,293.502837 L400.691491,297.565748 C400.458234,297.890971 400.2923,298.117584 400.193687,298.247483 C400.095074,298.377382 399.975601,298.503489 399.837164,298.626751 C399.697779,298.750013 399.532793,298.847675 399.341257,298.920684 C399.150669,298.992745 398.925946,299.029724 398.668036,299.03162 C398.269793,299.034465 397.93982,298.930166 397.677169,298.719672 C397.41357,298.50823 397.280822,298.200074 397.277977,297.793309 C397.275133,297.316379 397.53968,296.73041 398.072568,296.037297" id="Fill-127" fill="#FF6F00"></path>
                </g>
            </g>
        </g>
    </g>
</svg>