<?xml version="1.0" encoding="utf-8"?>
<!-- Generator: Adobe Illustrator 22.1.0, SVG Export Plug-In . SVG Version: 6.00 Build 0)  -->
<svg version="1.1" id="Layer_1" xmlns="http://www.w3.org/2000/svg" xmlns:xlink="http://www.w3.org/1999/xlink" x="0px" y="0px"
	 viewBox="0 0 57 57" style="enable-background:new 0 0 57 57;" xml:space="preserve">
<style type="text/css">
	.st0{fill:none;stroke:#FFFFFF;stroke-width:3.2;stroke-linecap:round;stroke-linejoin:round;}
	.st1{fill:#FFFFFF;}
</style>
<title>Group 20</title>
<desc>Created with Sketch.</desc>
<g id="Desktop">
	<g id="_x37_-Media" transform="translate(-1108.000000, -915.000000)">
		<g id="Group-20" transform="translate(1110.000000, 917.000000)">
			<path id="Stroke-6" class="st0" d="M30.5,8.1h12.1c2.2,0,4,1.8,4,4v8.2"/>
			<path id="Stroke-8" class="st0" d="M46.6,34.9v6.4c0,2.2-1.8,4-4,4h-6.8"/>
			<path id="Stroke-10" class="st0" d="M35.5,45.2H11.1c-2.2,0-4-1.8-4-4v-4.3"/>
			<path id="Stroke-12" class="st0" d="M6.8,20.1v-8c0-2.2,1.8-4,4-4h12.3"/>
			<path id="Stroke-14" class="st0" d="M16.5,17.6c10.9,1,19.5,9.8,20.4,20.7"/>
			<path id="Stroke-16" class="st0" d="M16.4,25c6.9,1,12.3,6.5,13.1,13.4"/>
			<path id="Fill-18" class="st1" d="M21.5,37c0,1.8-1.5,3.3-3.3,3.3c-1.8,0-3.3-1.5-3.3-3.3c0-1.8,1.5-3.3,3.3-3.3
				C20.1,33.7,21.5,35.2,21.5,37"/>
		</g>
	</g>
</g>
</svg>
