<svg width="200" height="100" viewBox="0 0 200 100" fill="none" xmlns="http://www.w3.org/2000/svg">
<path d="M82.5201 35.5952C81.4652 36.6157 80.9055 37.9764 80.9055 39.4648V65.2337C80.9055 65.5739 81.1854 65.914 81.5944 65.914H86.8255C87.1699 65.914 87.5144 65.6376 87.5144 65.2337V56.3889C87.5144 55.6447 88.1387 55.0919 88.8491 55.0919H112.378C113.153 55.0919 113.713 55.7085 113.713 56.3889V65.2337C113.713 65.5739 113.993 65.914 114.402 65.914H119.633C119.977 65.914 120.322 65.6376 120.322 65.2337V39.4435C120.322 38.019 119.762 36.5945 118.707 35.5739C117.652 34.5533 116.253 34.0006 114.725 34.0006H86.4165C84.9526 33.9793 83.5534 34.5746 82.5201 35.5952ZM114.423 49.5427L117.071 52.1366L111.776 49.4789C110.807 49.0112 109.752 48.7348 108.697 48.7348H92.358C91.2386 48.7348 90.1838 49.0112 89.215 49.4789L84.1131 52.1366L86.6318 49.4789C87.1269 49.0112 87.4067 48.3308 87.4067 47.6504V41.6759C87.4067 40.9318 88.031 40.379 88.7414 40.379H112.271C113.046 40.379 113.605 40.9956 113.605 41.6759V47.6504C113.648 48.3095 113.928 48.9899 114.423 49.5427Z" fill="white"/>
<path d="M64.3509 34.5755V55.7307C64.3509 55.8583 64.3509 56.0709 64.4155 56.1985L66.5898 61.4926L64.3509 59.1751L40.3912 34.2353C40.262 34.1078 40.0467 34.0227 39.8961 34.0227H32.0817C31.8018 34.0227 31.522 34.2991 31.522 34.5755V65.4472C31.522 65.7236 31.8018 66 32.0817 66H37.5281C37.8079 66 38.0878 65.7236 38.0878 65.4472V44.292C38.0878 44.1645 38.0878 43.9518 38.0232 43.8243L35.8489 38.5302L38.0878 40.8477L62.0475 65.7236C62.1767 65.8512 62.3274 65.9362 62.5427 65.9362H70.357C70.6369 65.9362 70.9167 65.6598 70.9167 65.3834V34.5755C70.9167 34.2991 70.6369 34.0227 70.357 34.0227H64.9107C64.5447 34.044 64.3509 34.2991 64.3509 34.5755Z" fill="white"/>
<path d="M154.851 52.1148C154.851 52.1148 154.787 52.051 154.787 51.9872L150.245 47.2246L154.292 48.9255C154.421 48.6491 154.572 48.309 154.851 48.1176L168.478 34.0425H160.319C159.91 34.0425 159.544 34.1701 159.264 34.4465L150.675 43.2912C149.491 44.5244 147.532 44.5244 146.348 43.2912L137.759 34.4465C137.479 34.1701 137.135 34.0425 136.704 34.0425H128.61L141.182 47.1608L141.526 47.5648L142.15 48.2452L146.693 53.0077L142.646 51.3068C142.516 51.5832 142.301 51.9234 142.086 52.1148L128.739 65.8497L128.61 65.9773H136.919C137.328 65.9773 137.694 65.8497 137.974 65.5733L146.284 56.9411C147.468 55.708 149.427 55.708 150.611 56.9411L158.92 65.5733C159.2 65.8497 159.544 65.9773 159.975 65.9773H168.284L168.155 65.8497L154.851 52.1148Z" fill="white"/>
</svg>
