<svg width="200" height="100" viewBox="0 0 200 100" fill="none" xmlns="http://www.w3.org/2000/svg">
<path fill-rule="evenodd" clip-rule="evenodd" d="M137.925 25.1311C129.89 14.3762 116.245 6.17047 99.9613 6C83.6817 6 70.0753 14.0352 61.6178 24.7902C54.8146 34.3131 50.181 44.3436 52.6915 62.8393C58.007 66.7058 62.4275 70.0648 68.1653 74.1483L70.331 91.7026H93.4139C94.9868 92.8493 96.9007 93.9148 99.9613 94C103.065 93.9148 105.021 92.8532 106.466 91.7026H129.72L131.889 74.1483L146.553 63.3507C149.486 48.1752 145.449 35.3359 137.925 25.135V25.1311ZM138.902 58.2444L123.002 70.0609L121.216 83.3225H103.619C103.107 84.3415 101.96 85.5774 99.9613 85.7013C97.877 85.5735 97.4547 84.8102 96.1762 83.3225L78.5328 83.1947L76.832 69.9757L60.8042 58.074C60.2501 56.2027 59.7426 53.0994 60.0371 50.5075C60.2928 47.8304 60.8042 46.4706 61.61 44.855C69.8157 52.8476 80.0166 63.1338 88.3075 71.1264C80.3575 61.5182 70.9198 49.9574 63.0125 40.3066C63.2682 38.137 63.8609 35.8861 65.0542 33.9722C66.4567 31.5934 67.5221 30.6984 68.9246 29.4664C76.1501 41.2829 84.8672 56.9698 92.0501 68.8715C85.8436 55.7804 78.4476 38.9855 72.2836 25.8091C73.6861 23.6821 74.581 22.7911 76.1114 21.6017C77.5565 20.4123 79.5556 19.2655 81.5935 18.8393C85.8436 33.8017 91.5813 52.5919 95.8778 67.5969C92.7319 52.1657 89.0321 32.3566 85.8435 16.7976C87.587 15.8213 89.0746 15.2672 91.1164 14.628C93.1581 14.2871 95.6222 14.1592 97.3656 14.5854C98.3845 30.7798 98.7254 50.9724 99.9574 67.3412C101.189 51.0616 101.232 30.9115 102.422 14.5854C104.208 14.287 106.462 14.3723 108.756 14.7985C110.755 15.3951 112.243 15.9452 113.773 17.0533C110.755 32.5697 106.97 52.2083 103.952 67.6395C108.287 52.7624 113.773 33.8017 118.236 18.8819C120.193 19.3507 122.192 20.4975 123.804 21.7295C125.163 22.8337 126.144 23.8952 127.503 25.9796C121.254 38.9855 114.029 55.7804 107.652 68.9142C114.835 57.0977 123.68 41.2829 130.948 29.509C132.308 30.7837 133.16 31.6747 134.648 34.0574C135.922 35.9713 136.434 38.1796 136.86 40.3492C128.867 50.0852 119.515 61.6887 111.526 71.2116C119.732 63.219 129.975 52.9328 138.224 44.9828C138.905 46.4705 139.413 47.873 139.669 50.678C139.882 53.2699 139.498 56.2879 138.902 58.2444Z" fill="white"/>
</svg>
