<svg width="200" height="100" viewBox="0 0 200 100" fill="none" xmlns="http://www.w3.org/2000/svg">
<path fill-rule="evenodd" clip-rule="evenodd" d="M100.305 9.00443C73.6272 9.00443 52 22.4016 52 38.9236C52 55.4456 73.6227 68.8484 100.305 68.8484C126.988 68.8484 148.61 55.4556 148.61 38.9236C148.61 22.3917 126.988 9 100.305 9V9.00443ZM94.3351 38.153C96.2046 38.3137 98.1362 38.3991 100.112 38.3991C102.088 38.3991 104.019 38.3137 105.888 38.153C105.623 47.4729 103.138 54.7803 100.112 54.7803C97.0861 54.7803 94.6001 47.474 94.3351 38.1541V38.153ZM104.051 13.4388C116.636 14.0852 126.281 17.7988 126.281 22.2797C126.281 25.9389 119.85 29.0858 110.636 30.4686C109.638 22.6389 107.188 16.3506 104.054 13.4388H104.051ZM105.638 30.9676C103.863 31.1328 102.014 31.2204 100.109 31.2204C98.2039 31.2204 96.351 31.1328 94.579 30.9676C95.3231 23.577 97.5175 18.2213 100.109 18.2213C102.7 18.2213 104.895 23.577 105.638 30.9731V30.9676ZM89.598 30.4686C80.3867 29.0858 73.9543 25.9389 73.9543 22.2797C73.9543 20.7672 75.052 19.3423 76.9914 18.0937C79.3593 16.8948 81.8279 15.9059 84.3687 15.1386C87.7584 14.2637 91.7902 13.665 96.1791 13.4388C93.0466 16.3506 90.6015 22.6423 89.598 30.4686ZM111.124 37.6762C123.71 35.9652 132.933 31.4034 133.846 25.9433C137.018 29.6957 138.829 34.0325 138.829 38.652C138.829 52.3663 122.872 63.5835 102.719 64.4196C107.545 61.5798 111.129 51.019 111.129 38.4246C111.129 38.1755 111.129 37.926 111.129 37.6762H111.124ZM66.4606 26.3037C67.7114 31.6029 76.8029 36.0029 89.1101 37.675C89.1101 37.9249 89.1101 38.1744 89.1101 38.4235C89.1101 50.9913 92.6784 61.5332 97.4898 64.3996C77.5303 63.4316 61.7846 52.2743 61.7846 38.6508C61.7779 34.1788 63.4745 29.9718 66.4606 26.3037Z" fill="white"/>
<path fill-rule="evenodd" clip-rule="evenodd" d="M63.4545 90.735V78.6351H59.1422V76.1746H70.6942V78.6351H66.4029V90.735H63.4545ZM71.6268 83.5429C71.6268 82.0593 71.8485 80.8118 72.2921 79.8005C72.6221 79.06 73.0813 78.3841 73.6482 77.8046C74.181 77.2431 74.8224 76.7957 75.5333 76.4895C76.4418 76.1058 77.4889 75.914 78.6747 75.914C80.8247 75.914 82.539 76.5793 83.8298 77.9099C85.1205 79.2406 85.7625 81.1001 85.7625 83.4753C85.7625 85.8305 85.1231 87.6734 83.8442 89.0041C82.5653 90.3347 80.8558 91 78.7157 91C76.5505 91 74.8277 90.338 73.5473 89.014C72.267 87.6901 71.6275 85.8667 71.629 83.544L71.6268 83.5429ZM74.6562 83.4454C74.6562 85.0953 75.0384 86.3469 75.8027 87.1999C76.5671 88.053 77.5351 88.4792 78.7068 88.4785C79.883 88.4785 80.8477 88.056 81.6009 87.211C82.3542 86.3661 82.7305 85.0972 82.7298 83.4043C82.7298 81.7337 82.3627 80.4877 81.6287 79.6664C80.8946 78.8451 79.9207 78.4337 78.7068 78.4322C77.4915 78.4322 76.5142 78.848 75.775 79.6797C75.0358 80.5113 74.6639 81.768 74.6595 83.4498L74.6562 83.4454ZM91.8778 90.735V84.6085L86.5398 76.1812H89.9861L93.4302 81.9473L96.7823 76.1812H100.17L94.8307 84.6352V90.7416L91.8778 90.735ZM101.009 83.5429C101.009 82.0593 101.231 80.8118 101.675 79.8005C102.004 79.0598 102.463 78.3838 103.031 77.8046C103.564 77.2431 104.205 76.7957 104.916 76.4895C105.825 76.1058 106.873 75.914 108.058 75.914C110.207 75.914 111.922 76.5793 113.213 77.9099C114.505 79.2406 115.139 81.1001 115.139 83.4753C115.139 85.8305 114.5 87.6734 113.221 89.0041C111.942 90.3347 110.233 91 108.094 91C105.927 91 104.204 90.338 102.924 89.014C101.645 87.6901 101.005 85.8667 101.006 83.544L101.009 83.5429ZM104.039 83.4454C104.039 85.0953 104.42 86.3469 105.184 87.1999C105.948 88.053 106.916 88.4792 108.089 88.4785C109.266 88.4785 110.231 88.056 110.983 87.211C111.736 86.3661 112.112 85.0972 112.112 83.4043C112.112 81.7337 111.745 80.4877 111.011 79.6664C110.278 78.8414 109.307 78.4322 108.089 78.4322C106.872 78.4322 105.896 78.8491 105.154 79.6797C104.412 80.5102 104.039 81.7665 104.039 83.4498V83.4454ZM120.711 90.735V78.6351H116.4V76.1746H127.951V78.6351H123.66V90.735H120.711ZM141.467 90.735L135.634 76.1746H132.52L126.865 90.735H129.983L131.192 87.4206H137.032L138.289 90.735H141.467ZM136.079 84.9601H132.087L134.053 79.571L136.079 84.9601Z" fill="white"/>
</svg>
