<?xml version="1.0" encoding="utf-8"?>
<svg version="1.1" id="Layer_1" xmlns="http://www.w3.org/2000/svg" xmlns:xlink="http://www.w3.org/1999/xlink" x="0px" y="0px"
	 viewBox="0 0 183 236" style="enable-background:new 0 0 183 236;" xml:space="preserve">
<style type="text/css">
	.st0{opacity:0.2;fill:#161656;enable-background:new    ;}
	.st1{clip-path:url(#mask_1_);fill:#007bff;}
	.st2{fill:none;stroke:#007bff;stroke-width:5;}
	.st3{fill:none;stroke:#ff6f00;stroke-width:5;stroke-linecap:round;stroke-linejoin:round;}
	.st4{fill:none;stroke:#007bff;stroke-width:5;stroke-linecap:round;stroke-linejoin:round;}
	.st5{fill:none;stroke:#161656;stroke-width:5;stroke-linecap:round;stroke-linejoin:round;}
	.st6{fill:none;stroke:#64f0ff;stroke-width:5;stroke-linecap:round;stroke-linejoin:round;}
	.st7{fill:#161656;}
	.st8{fill:#007bff;}
</style>
<path id="shadow" class="st0" d="M174.4,191.5c4.7-2.7,4.7-9.4,0-12.1l-72.5-40.9c-6.6-3.7-14.8-3.7-21.3,0.1L8.2,179.9
	c-4.7,2.7-4.7,9.4,0,12.1l72.5,40.9c6.6,3.7,14.8,3.7,21.3-0.1L174.4,191.5z"/>
<g id="network">
	<defs>
		<path id="mask" d="M175.1,168.1c4.8-2.7,4.8-9.5,0-12.2l-72.8-41.4c-6.6-3.8-14.8-3.8-21.4,0L8,155.9c-4.8,2.7-4.8,9.5,0,12.2
			l72.8,41.3c6.6,3.8,14.8,3.8,21.4,0L175.1,168.1z"/>
	</defs>
	<clipPath id="mask_1_">
		<use xlink:href="#mask"  style="overflow:visible;"/>
	</clipPath>
	<path id="graphic" class="st1" d="M149.1,96.4c-1.2-0.7-3.2-0.8-4.6-0.2h-0.1L78.2,68.7l0.1-0.1c0.7-0.8,0.5-1.8-0.6-2.4
		c-1.4-0.8-3.7-0.8-5.2,0c-1.1,0.6-1.3,1.6-0.7,2.4v0.1L27.4,85.8h-0.1l-0.1-0.1l-0.1-0.1c-0.1-0.1-0.2-0.1-0.3-0.1
		c-0.8-0.3-1.7-0.4-2.7-0.3c-0.9,0.1-1.8,0.4-2.3,0.9c-0.5,0.4-0.7,0.9-0.6,1.4v0.1l-62.9,8.9l0,0c-0.1-0.1-0.3-0.2-0.4-0.3
		c-0.1-0.1-0.3-0.2-0.5-0.2c-1.6-0.6-3.9-0.4-5,0.5c-1,0.8-0.8,1.9,0.4,2.6c0.2,0.1,0.3,0.2,0.5,0.2c0.5,0.2,1.1,0.3,1.7,0.3h0.1
		l14.5,31.5h-0.1c-0.6,0.2-1.2,0.4-1.6,0.7c-1,0.8-0.8,1.9,0.5,2.6c0.1,0.1,0.2,0.1,0.3,0.2h0.1l-27.7,26.9H-59
		c-1.4-0.3-2.9-0.1-4,0.5c-1.4,0.8-1.4,2.2,0,3c1.1,0.6,2.6,0.8,4,0.4h0.1l16.3,15h-0.1h-0.1h-0.1c-1.4,0.8-1.4,2.2,0,3
		c1,0.6,2.5,0.8,3.9,0.5h0.1l37,37.7H-2c-1.4,0.8-1.3,2.1,0.1,2.9s3.7,0.8,5.1,0c0.3-0.2,0.6-0.5,0.8-0.7v-0.1l48.4,6.1v0.1
		c-0.1,0.6,0.3,1.2,1,1.7c0.1,0.1,0.3,0.2,0.5,0.2c1.4,0.6,3.2,0.4,4.5-0.3h0.1l29.9,13.6v0.1c-0.6,0.7-0.4,1.5,0.5,2
		c1.1,0.7,3,0.7,4.2,0c0.3-0.2,0.5-0.4,0.7-0.7v-0.1l37.7,2v0.1c0,0.6,0.4,1.1,1,1.4c0.1,0.1,0.3,0.2,0.5,0.2c1.6,0.6,3.9,0.4,5-0.5
		c0.3-0.3,0.5-0.6,0.6-1v-0.1l68.3-9.4l0,0c0.1,0.1,0.3,0.2,0.4,0.3c0.1,0.1,0.3,0.2,0.5,0.2c0.8,0.3,1.7,0.4,2.7,0.3
		c0.9-0.1,1.8-0.4,2.3-0.9c0.8-0.7,0.8-1.6,0-2.3h-0.1l44.2-22.9h0.1c1.5,0.7,3.5,0.6,4.8-0.1c1.4-0.8,1.4-2.2,0-3
		c-0.6-0.4-1.4-0.6-2.4-0.6h-0.1l-7.2-41.6h0.1c0.7-0.1,1.3-0.3,1.7-0.5c1.4-0.8,1.4-2.2,0-3c-1.2-0.7-3.2-0.8-4.6-0.2h-0.1
		l-57-34.8h0.1l0,0l0,0c1-0.8,0.8-1.9-0.4-2.6c-0.2-0.1-0.3-0.2-0.5-0.2c-1.1-0.4-2.4-0.5-3.6-0.1h-0.1l-38.3-28l0,0
		C150.4,98.1,150.3,97.1,149.1,96.4 M128.8,133.7l17.4-33.8h0.1c0.9,0,1.8-0.1,2.5-0.5h0.1l38.1,27.9h-0.1c-0.1,0-0.1,0.1-0.2,0.1
		c-0.1,0.1-0.2,0.1-0.3,0.2c-0.3,0.3-0.5,0.5-0.6,0.9l0,0l-55.3,6.4v-0.1c-0.2-0.3-0.5-0.5-0.8-0.8c-0.2-0.1-0.3-0.2-0.5-0.2h-0.1
		L128.8,133.7L128.8,133.7 M89.3,102l-13-32.3h0.1c0.5-0.1,0.9-0.3,1.2-0.5l0,0l0.1-0.1l66,27.4l-0.1,0.1c-0.4,0.3-0.7,0.7-0.7,1.1
		v0.1l-49.8,5.7v-0.1c-0.2-0.3-0.5-0.6-0.9-0.8c-0.1-0.1-0.3-0.1-0.4-0.2c-0.7-0.3-1.5-0.4-2.3-0.3L89.3,102 M126.1,133.6l-34-28
		h0.1c0.2-0.1,0.4-0.2,0.5-0.3c0.4-0.3,0.6-0.7,0.6-1.2V104l49.8-5.6v0.1c0.2,0.4,0.5,0.7,0.9,1c0.4,0.2,0.8,0.4,1.3,0.5h0.1
		L128,133.5h-0.1C127.3,133.5,126.7,133.5,126.1,133.6L126.1,133.6 M192.2,163.3l-1.1-32.7h0.1c0.1,0,0.2-0.1,0.3-0.1l0.2-0.1
		l57,34.8h-0.1c-0.3,0.3-0.6,0.5-0.7,0.9v0.1L195,165v-0.1c-0.1-0.4-0.5-0.8-1-1.1c-0.2-0.1-0.3-0.2-0.5-0.2
		C193.1,163.5,192.7,163.4,192.2,163.3L192.2,163.3 M186.9,130.2c0.2,0.1,0.3,0.2,0.5,0.2c0.8,0.3,1.7,0.4,2.7,0.3h0.1l1.1,32.5
		h-0.1c-0.7,0-1.3,0.2-1.8,0.4h-0.1l-58.9-27.3l0,0c0.2-0.3,0.3-0.6,0.2-0.9v-0.1l55.2-6.3v0.1C186.1,129.5,186.4,129.9,186.9,130.2
		 M257.4,210.4l-32.5-23.6h0.1c0.9-0.6,0.9-1.5,0.1-2.1H225l24.5-16.4h0.1c0.6,0.2,1.1,0.3,1.7,0.3h0.1l7.2,41.6h-0.1
		C258.1,210.2,257.8,210.3,257.4,210.4L257.4,210.4 M221.2,184.3l-26.9-17.7h0.1l0,0c0.3-0.3,0.5-0.6,0.6-0.9v-0.1l52.9,1.2v0.1
		c0.1,0.4,0.4,0.8,0.8,1.1h0.1l-24.4,16.4h-0.1C223.3,183.9,222.2,183.9,221.2,184.3L221.2,184.3 M72.5,69.2
		c0.7,0.4,1.8,0.6,2.8,0.6h0.1l13,32.3h-0.1c-0.7,0.2-1.2,0.4-1.6,0.7l0,0l0,0l-0.1,0.1L28.2,87.8v-0.1c0.2-0.5,0.1-1-0.3-1.5v-0.1
		l44.4-17L72.5,69.2L72.5,69.2L72.5,69.2 M65.9,124.8l22.2-18.9h0.1c1,0.3,2.2,0.3,3.2,0h0.1l33.9,27.9h-0.1c-0.4,0.2-0.7,0.3-1,0.6
		c-0.1,0.1-0.1,0.1-0.2,0.2l-0.1,0.1l-56.8-8v-0.1c0.1-0.6-0.3-1.2-1-1.6C66.1,124.9,66,124.9,65.9,124.8L65.9,124.8 M62.2,124.5
		L26.9,88.9H27c0.3-0.1,0.6-0.3,0.8-0.5l0,0l0,0l0.1-0.1l58.4,15.1v0.1c-0.4,0.7,0,1.5,0.9,2l0.1,0.1h0.1l-22.2,18.9h-0.1
		c-0.9-0.2-1.9-0.2-2.8,0H62.2 M147.7,158.2l-18.6-20.9h0.1c0.3-0.1,0.5-0.3,0.8-0.4l0.1-0.1l58.7,27.2l-0.1,0.1l-0.1,0.1l-0.1,0.1
		c-0.1,0.1-0.3,0.3-0.4,0.5v0.1l-36.4-4.8V160c0.1-0.5-0.2-1-0.8-1.3c-0.1-0.1-0.3-0.1-0.4-0.2c-0.8-0.3-1.7-0.4-2.6-0.2
		L147.7,158.2 M176.4,202.4l14.8-35h0.1c0.8,0,1.6-0.1,2.3-0.4h0.1l26.8,17.7h-0.1c-0.7,0.5-0.8,1.1-0.4,1.7v0.1l-42.6,16.6h-0.1
		c-0.1,0-0.1-0.1-0.2-0.1c-0.1,0-0.1-0.1-0.2-0.1c-0.1,0-0.1-0.1-0.2-0.1c-0.1,0-0.2-0.1-0.3-0.1L176.4,202.4 M134.4,175.5
		l13.3-14.2h0.1c1.2,0.3,2.6,0,3.4-0.6c0.1-0.1,0.2-0.2,0.3-0.3v-0.1l36.4,4.8v0.1c0,0.2,0,0.3,0,0.5v0.1l-52.3,10.7v-0.1
		c-0.2-0.2-0.4-0.4-0.7-0.5C134.8,175.7,134.7,175.6,134.4,175.5L134.4,175.5 M189,166.8c0.1,0.1,0.3,0.2,0.5,0.2
		c0.2,0.1,0.5,0.2,0.9,0.2h0.1l-14.8,35h-0.1c-0.7-0.1-1.5,0-2.2,0.2h-0.1l-37.8-24.2l0,0c0.4-0.4,0.5-0.9,0.4-1.4v-0.1l52.3-10.6
		v0.1C188.4,166.4,188.6,166.6,189,166.8 M211.8,208.9l10.7-21.5h0.1c0.6,0,1.1,0,1.6-0.2h0.1l32.5,23.6h-0.1
		c-0.5,0.3-0.8,0.8-0.9,1.2v0.1l-42.3-1.8v-0.1c-0.1-0.4-0.4-0.8-0.8-1C212.4,209.1,212.1,209,211.8,208.9L211.8,208.9 M178.4,204.6
		L178.4,204.6c0.1-0.4-0.1-0.8-0.4-1.1v-0.1l42.5-16.5h0.1h0.1c0.2,0.1,0.5,0.2,0.8,0.3h0.1l-10.7,21.5h-0.1
		c-0.9-0.1-1.7,0.1-2.3,0.5c-0.1,0.1-0.2,0.1-0.2,0.2l-0.1,0.1h-0.1L178.4,204.6 M133.4,175.2l-4.8-37.5h0.2l18.4,20.7h-0.1
		c-0.3,0.1-0.5,0.3-0.7,0.4c-0.8,0.7-0.6,1.6,0.4,2.1c0.1,0.1,0.2,0.1,0.3,0.2h0.1l-13.3,14.2h-0.1
		C133.7,175.3,133.6,175.3,133.4,175.2L133.4,175.2 M78.7,157.2l-13.8-28.8H65c0.7-0.2,1.2-0.4,1.6-0.8c0.1-0.1,0.3-0.3,0.4-0.4
		v-0.1l56.7,8v0.1c-0.2,0.6,0.1,1.1,0.6,1.6l0.1,0.1l-43,21.1h-0.1h-0.1c-0.2-0.1-0.3-0.2-0.5-0.2C80.2,157.4,79.5,157.3,78.7,157.2
		L78.7,157.2 M82.1,159.9L82.1,159.9c0.3-0.6,0.2-1.1-0.3-1.6v-0.1l43.2-21.1h0.1h0.1h0.1c0.7,0.3,1.5,0.4,2.4,0.3h0.1l4.8,37.6
		h-0.1c-0.9,0-1.8,0.2-2.4,0.6H130L82.1,159.9 M210.4,235.8l0.5-23.8h0.1c0.7-0.1,1.2-0.2,1.6-0.4c0.3-0.2,0.6-0.4,0.7-0.8v-0.1
		l42.4,1.8v0.1c0.1,0.2,0.3,0.5,0.5,0.7l0.1,0.1L212,236.3h-0.1l0,0h-0.1l0,0l0,0c-0.4-0.1-0.8-0.2-1.3-0.3L210.4,235.8 M13.6,118
		l10.9-28.7h0.1c0.6,0,1.1,0,1.6-0.1h0.1l35.3,35.7h-0.1c-0.3,0.1-0.5,0.3-0.7,0.4c-0.1,0.1-0.3,0.3-0.4,0.4v0.1L16,120.2v-0.1
		c0.1-0.6-0.3-1.2-1-1.6c-0.2-0.1-0.3-0.2-0.5-0.2C14.2,118.2,14,118.1,13.6,118L13.6,118 M22.3,88.7c0.2,0.1,0.3,0.2,0.5,0.2
		c0.2,0.1,0.5,0.2,0.8,0.2h0.1l-10.9,28.8h-0.1c-1.1,0-2.2,0.2-2.9,0.7H9.7l-51.1-20.2v-0.1c0.4-0.5,0.5-1,0.2-1.5v-0.1l62.7-8.8V88
		C21.7,88.2,22,88.5,22.3,88.7 M209.5,235.9l-32-30.2l0.1-0.1c0.1-0.1,0.2-0.1,0.2-0.2c0.1-0.1,0.1-0.2,0.2-0.2l0.1-0.1V205l29.5,5
		v0.1c-0.2,0.6,0.1,1.1,0.8,1.5c0.4,0.2,0.9,0.4,1.5,0.4h0.1L209.5,235.9 M50.3,142.3l12.2-13.9h0.1c0.5,0.1,1,0.1,1.4,0.1h0.1
		l13.8,28.9h-0.1c-0.5,0.1-0.9,0.2-1.3,0.4h-0.1L51,144.6l0.1-0.1c0.8-0.7,0.6-1.5-0.4-2.1C50.6,142.4,50.5,142.4,50.3,142.3
		L50.3,142.3 M1.8,152.9L12.2,122h0.1c1.3,0,2.4-0.3,3.1-0.9c0.1-0.1,0.3-0.3,0.4-0.4v-0.1l44.3,5.5v0.1c-0.1,0.4,0.1,0.8,0.4,1.1
		v0.1l-57.3,26H3.1c-0.1-0.1-0.3-0.2-0.4-0.2c-0.2-0.1-0.5-0.2-0.8-0.2L1.8,152.9 M4,154.1L4,154.1c-0.1-0.1-0.1-0.2-0.2-0.2
		l-0.1-0.1l57.3-26l0.1,0.1c0.2,0.1,0.3,0.2,0.5,0.2h0.1h0.1h0.1l-12.2,14h-0.1c-1.2-0.2-2.6,0-3.3,0.6c-0.5,0.4-0.6,0.9-0.4,1.3
		v0.1L4,154.1 M118.8,216.7l14-37.4h0.1c0.8-0.1,1.5-0.2,2.1-0.6l0.1-0.1l37.6,24.1h-0.1c-0.2,0.1-0.4,0.2-0.6,0.4
		c-0.6,0.5-0.7,1.1-0.5,1.6v0.1l-50.4,12.7H121c-0.1-0.1-0.3-0.2-0.4-0.3c-0.1-0.1-0.3-0.2-0.5-0.2
		C119.7,216.9,119.3,216.7,118.8,216.7L118.8,216.7 M93.3,177.8l-12.8-16.7h0.1c0.4-0.2,0.8-0.4,1.1-0.6l0,0l0,0l0.1-0.1l47.6,15.7
		l-0.1,0.1c-0.3,0.3-0.5,0.7-0.5,1v0.1L97,179.1V179c-0.1-0.3-0.4-0.6-0.8-0.8c-0.1-0.1-0.3-0.1-0.4-0.2
		C95.1,177.7,94.2,177.6,93.3,177.8L93.3,177.8 M117.6,216.7l-8-17h0.1c0.4-0.1,0.8-0.3,1-0.5c0.7-0.6,0.6-1.5-0.2-2h-0.1l20.4-18
		h0.1c0.3,0.1,0.7,0.2,1,0.2h0.1l-14,37.3h-0.2H117.6L117.6,216.7 M73.9,196.5l18.9-15.7h0.1c1.3,0.4,2.9,0.1,3.7-0.5
		c0.3-0.3,0.5-0.6,0.5-0.9v-0.1l31.9-1.8v0.1c0.1,0.1,0.1,0.3,0.3,0.4v0.1l-55.2,18.6H74L73.9,196.5L73.9,196.5 M129.8,178.6
		l0.1,0.1c0.1,0,0.2,0.1,0.3,0.1h0.1l-20.4,18h-0.1c-1.3-0.5-3-0.3-3.9,0.5c-0.3,0.2-0.4,0.5-0.5,0.8v0.1l-30.3-0.3v-0.1
		c-0.1-0.2-0.2-0.4-0.4-0.6l-0.1-0.1L129.8,178.6L129.8,178.6 M179,228.1l-3.4-21.8h0.1c0.4,0,0.8-0.1,1.1-0.3h0.1l31.7,29.9h-0.1
		c-0.6,0.2-1.2,0.4-1.6,0.7l-0.1,0.1l-0.1,0.1l-0.1,0.1l-25.8-6.5v-0.1c0.4-0.6,0.1-1.3-0.7-1.7c-0.1-0.1-0.3-0.1-0.4-0.2
		C179.6,228.3,179.4,228.2,179,228.1L179,228.1 M137.2,246.7l36.6-40.4h0.1c0.3,0.1,0.6,0.1,0.9,0.1h0.1l3.4,21.7h-0.1
		c-0.9,0-1.8,0.3-2.3,0.7c-0.8,0.6-0.6,1.5,0.3,2.1l0.1,0.1l-38.6,16h-0.1h-0.1C137.5,246.8,137.4,246.8,137.2,246.7L137.2,246.7
		 M133.9,246.3l-14.7-25.6h0.1c0.7-0.1,1.3-0.4,1.8-0.8c0.6-0.6,0.8-1.3,0.4-1.9v-0.1l50.3-12.7l0.1,0.1c0.2,0.2,0.4,0.3,0.6,0.5
		c0.1,0.1,0.3,0.2,0.5,0.2l0,0h0.1l-36.6,40.3h-0.1c-0.7-0.2-1.5-0.2-2.3-0.1L133.9,246.3 M-29.6,131L-44,99.5h0.1
		c0.7-0.1,1.4-0.3,1.9-0.6h0.1L9.2,119v0.1c-0.4,0.5-0.5,1.1-0.1,1.6v0.1L-26.2,132l-0.1-0.1c-0.1-0.1-0.3-0.2-0.4-0.3
		c-0.1-0.1-0.3-0.2-0.5-0.2c-0.7-0.3-1.5-0.4-2.4-0.3L-29.6,131 M46.7,144.9c0.1,0.1,0.3,0.1,0.4,0.2c1.1,0.4,2.5,0.4,3.5-0.1h0.1
		L76,158l-0.1,0.1h-0.1h-0.1c-0.2,0.2-0.3,0.4-0.5,0.6v0.1l-71-3.9v-0.1c0-0.1,0-0.2-0.1-0.3v-0.1l41.9-10l0.1,0.1
		C46.3,144.6,46.5,144.8,46.7,144.9 M72.1,196.1l7.1-34.7h0.1c0.2,0,0.3,0,0.5-0.1h0.1L92.7,178h-0.1c-0.3,0.1-0.6,0.3-0.9,0.5
		c-0.8,0.7-0.6,1.6,0.4,2.1l0.1,0.1l-18.8,15.6h-0.1c-0.4-0.1-0.7-0.2-1-0.2H72.1 M9.9,121.5c0.1,0.1,0.3,0.2,0.5,0.2
		c0.2,0.1,0.5,0.2,0.8,0.2h0.1L1,152.8H0.9c-0.7,0-1.4,0.1-2,0.3h-0.1l-25.4-18.6h0.1c0.1-0.1,0.3-0.2,0.4-0.3
		c0.6-0.6,0.8-1.3,0.4-1.9v-0.1l35.2-11h0.1C9.7,121.3,9.8,121.4,9.9,121.5 M3.8,155.9L3.8,155.9c0.2-0.2,0.3-0.4,0.4-0.5v-0.1
		l70.9,3.9v0.1c0,0.1,0,0.3,0.1,0.4v0.1l-39.6,8.8l-0.1-0.1c-0.1-0.1-0.3-0.3-0.5-0.4c-0.1-0.1-0.2-0.1-0.4-0.2
		c-1.1-0.4-2.6-0.4-3.6,0.2h-0.1L3.8,155.9 M22.2,196.8L22.2,196.8c-0.1-0.5-0.4-1-1-1.3l-0.1-0.1l55.7-34.3h0.1
		c0.4,0.1,0.9,0.2,1.4,0.3h0.1l-7.1,34.7h-0.1c-1.1,0.1-2,0.4-2.6,0.9c-0.2,0.2-0.3,0.3-0.4,0.6v0.1L22.2,196.8 M19.3,194.8
		L32.5,171h0.1c1.1,0.1,2.2-0.2,2.9-0.7c0.4-0.4,0.6-0.9,0.4-1.3v-0.1l39.5-8.8v0.1c0.2,0.2,0.4,0.4,0.6,0.5h0.1l-55.6,34.4h-0.1
		c-0.3-0.1-0.7-0.2-1-0.2L19.3,194.8 M138.5,248L138.5,248c-0.1-0.3-0.2-0.5-0.4-0.7l-0.1-0.1l38.8-16.1h0.1
		c1.3,0.4,2.9,0.2,3.7-0.5h0.1l25.8,6.5v0.1c-0.2,0.4-0.2,0.8,0,1.2v0.1L138.5,248 M106.2,199.4c0.1,0.1,0.3,0.1,0.4,0.2
		c0.6,0.3,1.4,0.3,2.2,0.3h0.1l8,17h-0.1c-0.5,0.1-0.9,0.3-1.3,0.5h-0.1l-40.7-18.3V199c0.2-0.3,0.4-0.6,0.4-0.9V198l30.3,0.3v0.1
		C105.6,198.8,105.8,199.1,106.2,199.4 M-58.2,161.9l27.8-26.9h0.1c1,0.2,2.1,0.2,3-0.1h0.1l25.4,18.6h-0.1
		c-0.1,0.1-0.3,0.2-0.4,0.3c-0.4,0.3-0.6,0.8-0.6,1.2v0.1l-54.1,7.7v-0.1c-0.2-0.3-0.5-0.5-0.8-0.7h-0.1L-58.2,161.9L-58.2,161.9
		 M17.7,194.9l-15.8-38H2c0.5-0.1,1-0.3,1.4-0.6h0.1l27.1,12.3l-0.1,0.1c-0.6,0.7-0.5,1.5,0.5,2c0.1,0.1,0.3,0.1,0.4,0.2
		c0.1,0,0.2,0.1,0.3,0.1h0.1l-13.2,23.8h-0.1c-0.2,0-0.5,0-0.7,0.1H17.7 M57.8,228.5l12.9-28.4h0.1c1.2,0.2,2.5-0.1,3.4-0.6h0.1
		l40.8,18.3v0.1c-0.3,0.3-0.4,0.7-0.3,1.1v0.1l-55.2,10.5v-0.1c-0.2-0.3-0.4-0.5-0.8-0.7c-0.2-0.1-0.3-0.2-0.5-0.2h-0.1L57.8,228.5
		L57.8,228.5 M92.7,244.6l24-24h0.1c0.6,0.1,1.1,0.2,1.6,0.2h0.1l14.7,25.7h-0.1c-0.4,0.2-0.8,0.4-1.1,0.6c-0.2,0.2-0.3,0.4-0.4,0.6
		v0.1l-37.8-2v-0.1c-0.1-0.4-0.3-0.8-0.8-1h-0.1L92.7,244.6L92.7,244.6 M59.2,231.3L59.2,231.3c0.4-0.4,0.5-0.8,0.5-1.2V230
		l55.2-10.5v0.1c0.2,0.2,0.4,0.4,0.8,0.6c0.1,0,0.1,0.1,0.2,0.1h0.1l-24,24h-0.1c-1-0.2-2.1-0.1-2.9,0.3h-0.1L59.2,231.3
		 M-36.8,182.6L-36.8,182.6c0.3-0.7,0.1-1.4-0.7-1.9h-0.1l36.2-24.1h0.1c0.7,0.3,1.5,0.4,2.3,0.3h0.1L16.9,195h-0.1
		c-0.5,0.2-0.9,0.4-1.2,0.6l-0.1,0.1l-0.1,0.1l-0.1,0.1L-36.8,182.6 M-41.8,180.2l-16.3-15h0.1h0.1h0.1c0.7-0.4,1.1-1,1-1.7v-0.1
		l54.2-7.8v0.1c0.1,0.2,0.3,0.4,0.6,0.6h0.1l-36.3,24.1h-0.1C-39.3,180-40.6,180-41.8,180.2L-41.8,180.2 M54.8,228.3l-34.2-29.7h0.1
		c0.4-0.2,0.7-0.3,1-0.5s0.4-0.5,0.5-0.7v-0.1L68,198v0.1c0,0.6,0.4,1.1,1,1.5c0.2,0.1,0.3,0.2,0.5,0.2l0.2,0.1h0.1h0.1L57,228.2
		h-0.1C56.3,228.2,55.5,228.2,54.8,228.3L54.8,228.3 M2.5,221.4l15.3-22.6h0.1c0.7,0.1,1.3,0.1,1.8,0h0.1l34.3,29.8H54
		c-0.3,0.1-0.6,0.3-0.8,0.5c-0.1,0.1-0.1,0.2-0.2,0.3l-0.1,0.1v0.1l-48.5-6.1v-0.1c0.1-0.6-0.3-1.2-1-1.6c-0.2-0.1-0.4-0.2-0.6-0.2
		L2.5,221.4L2.5,221.4 M-1.1,221.4l-37-37.7h0.1l0.2-0.1l0.2-0.1c0.1-0.1,0.2-0.2,0.3-0.3l0.1-0.1l0.1-0.1l52.3,13.3v0.1
		c-0.2,0.7,0.1,1.4,1,1.9c0.2,0.1,0.3,0.2,0.5,0.2h0.1h0.1H17L1.7,221.1H1.6c-0.9-0.1-1.7,0-2.5,0.2L-1.1,221.4"/>
</g>
<path id="border" class="st2" d="M175.1,168.1c4.8-2.7,4.8-9.5,0-12.2l-72.8-41.4c-6.6-3.8-14.8-3.8-21.4,0L8,155.9
	c-4.8,2.7-4.8,9.5,0,12.2l72.8,41.3c6.6,3.8,14.8,3.8,21.4,0L175.1,168.1z"/>
<g id="lines">
	<path id="line_x5F_9" class="st3" d="M59.7,74.4v25.1"/>
	<path id="line_x5F_8" class="st4" d="M119.5,73.5v25.1"/>
	<path id="line_x5F_7" class="st5" d="M59.7,111.6v11.3"/>
	<path id="line_x5F_6" class="st3" d="M90,115.1v21.7"/>
	<path id="line_x5F_5" class="st4" d="M90,94.3v10.4"/>
	<path id="line_x5F_4" class="st4" d="M75.3,129v12.1"/>
	<path id="line_x5F_3" class="st6" d="M75.3,87.4v32.1"/>
	<path id="line_x5F_2" class="st6" d="M105.6,125.5v7.8"/>
	<path id="line_x5F_1" class="st5" d="M105.6,83.9V116"/>
</g>
<g id="logo">
	<path id="Fill-50" class="st7" d="M152.7,42.5c3.6-2,3.6-7.1,0-9.2L97.9,2.2c-5-2.8-11.2-2.8-16.2,0L26.9,33.4
		c-3.6,2-3.6,7.1,0,9.2l54.9,31.1c5,2.8,11.2,2.8,16.2,0L152.7,42.5z"/>
	<path id="icon_1_" class="st8" d="M105.5,28.2c-0.7-0.4-1.8-0.4-2.5,0l-20.6,12c-0.7,0.4-0.7,1.1,0,1.5c0.7,0.4,1.8,0.4,2.5,0
		l20.6-12C106.2,29.3,106.2,28.6,105.5,28.2 M73.5,33c-0.7-0.4-1.8-0.4-2.5,0l-9.2,5.4c-0.7,0.4-0.7,1.1,0,1.5
		c0.7,0.4,1.8,0.4,2.5,0l9.2-5.4C74.2,34.1,74.2,33.4,73.5,33 M97.3,46.8c-0.7-0.4-1.8-0.4-2.5,0l-9.2,5.3c-0.7,0.4-0.7,1.1,0,1.5
		c0.7,0.4,1.8,0.4,2.5,0l9.2-5.4C98,47.8,98,47.2,97.3,46.8 M82.7,32.3c-0.7-0.4-1.8-0.4-2.5,0l-14.4,8.4c-0.7,0.4-0.7,1.1,0,1.5
		c0.7,0.4,1.8,0.4,2.5,0l14.4-8.4C83.4,33.3,83.4,32.7,82.7,32.3 M98.6,41.4c-0.7-0.4-1.8-0.4-2.5,0l-14.4,8.4
		c-0.7,0.4-0.7,1.1,0,1.5c0.7,0.4,1.8,0.4,2.5,0l14.4-8.4C99.3,42.5,99.3,41.8,98.6,41.4 M95.6,29.4c-0.7-0.4-1.8-0.4-2.5,0
		L74.4,40.3c-0.7,0.4-0.7,1.1,0,1.5c0.7,0.4,1.8,0.4,2.5,0l18.7-11C96.3,30.4,96.3,29.8,95.6,29.4 M103.5,34c-0.7-0.4-1.8-0.4-2.5,0
		L82.3,44.8c-0.7,0.4-0.7,1.1,0,1.5c0.7,0.4,1.8,0.4,2.5,0l18.7-10.9C104.2,35,104.2,34.4,103.5,34"/>
</g>
</svg>
