<svg width="20" height="20" viewBox="0 0 20 20" fill="none" xmlns="http://www.w3.org/2000/svg">
  <path d="M7.06807 15.0502C7.06807 15.1216 6.98592 15.1788 6.88235 15.1788C6.7645 15.1895 6.68235 15.1324 6.68235 15.0502C6.68235 14.9788 6.7645 14.9216 6.86807 14.9216C6.97521 14.9109 7.06807 14.9681 7.06807 15.0502ZM5.95735 14.8895C5.93235 14.9609 6.00378 15.0431 6.11092 15.0645C6.20378 15.1002 6.31092 15.0645 6.33235 14.9931C6.35378 14.9216 6.28592 14.8395 6.17878 14.8074C6.08592 14.7824 5.98235 14.8181 5.95735 14.8895ZM7.53592 14.8288C7.43235 14.8538 7.36092 14.9216 7.37164 15.0038C7.38235 15.0752 7.47521 15.1216 7.58235 15.0966C7.68592 15.0716 7.75735 15.0038 7.74664 14.9324C7.73592 14.8645 7.6395 14.8181 7.53592 14.8288ZM9.88592 1.14307C4.93235 1.14307 1.14307 4.90378 1.14307 9.85735C1.14307 13.8181 3.63592 17.2074 7.19664 18.4002C7.65378 18.4824 7.8145 18.2002 7.8145 17.9681C7.8145 17.7466 7.80378 16.5252 7.80378 15.7752C7.80378 15.7752 5.30378 16.3109 4.77878 14.7109C4.77878 14.7109 4.37164 13.6716 3.78592 13.4038C3.78592 13.4038 2.96807 12.8431 3.84307 12.8538C3.84307 12.8538 4.73235 12.9252 5.22164 13.7752C6.00378 15.1538 7.3145 14.7574 7.82521 14.5216C7.90735 13.9502 8.1395 13.5538 8.39664 13.3181C6.40021 13.0966 4.38592 12.8074 4.38592 9.37164C4.38592 8.38949 4.65735 7.89664 5.22878 7.26807C5.13592 7.03592 4.83235 6.07878 5.32164 4.84307C6.06807 4.61092 7.78592 5.80735 7.78592 5.80735C8.50021 5.60735 9.26807 5.50378 10.0288 5.50378C10.7895 5.50378 11.5574 5.60735 12.2716 5.80735C12.2716 5.80735 13.9895 4.60735 14.7359 4.84307C15.2252 6.08235 14.9216 7.03592 14.8288 7.26807C15.4002 7.90021 15.7502 8.39307 15.7502 9.37164C15.7502 12.8181 13.6466 13.0931 11.6502 13.3181C11.9788 13.6002 12.2574 14.1359 12.2574 14.9752C12.2574 16.1788 12.2466 17.6681 12.2466 17.9609C12.2466 18.1931 12.4109 18.4752 12.8645 18.3931C16.4359 17.2074 18.8574 13.8181 18.8574 9.85735C18.8574 4.90378 14.8395 1.14307 9.88592 1.14307ZM4.6145 13.4609C4.56807 13.4966 4.57878 13.5788 4.6395 13.6466C4.69664 13.7038 4.77878 13.7288 4.82521 13.6824C4.87164 13.6466 4.86092 13.5645 4.80021 13.4966C4.74307 13.4395 4.66092 13.4145 4.6145 13.4609ZM4.22878 13.1716C4.20378 13.2181 4.2395 13.2752 4.31092 13.3109C4.36807 13.3466 4.4395 13.3359 4.4645 13.2859C4.4895 13.2395 4.45378 13.1824 4.38235 13.1466C4.31092 13.1252 4.25378 13.1359 4.22878 13.1716ZM5.38592 14.4431C5.32878 14.4895 5.35021 14.5966 5.43235 14.6645C5.5145 14.7466 5.61807 14.7574 5.6645 14.7002C5.71092 14.6538 5.6895 14.5466 5.61807 14.4788C5.5395 14.3966 5.43235 14.3859 5.38592 14.4431ZM4.97878 13.9181C4.92164 13.9538 4.92164 14.0466 4.97878 14.1288C5.03592 14.2109 5.13235 14.2466 5.17878 14.2109C5.23592 14.1645 5.23592 14.0716 5.17878 13.9895C5.12878 13.9074 5.03592 13.8716 4.97878 13.9181Z"/>
</svg>
