<svg width="20" height="20" viewBox="0 0 20 20" fill="none" xmlns="http://www.w3.org/2000/svg">
  <path d="M5.58143 16.8576H2.26429V6.17541H5.58143V16.8576ZM3.92107 4.71827C2.86036 4.71827 2 3.8397 2 2.77898C2 2.26948 2.2024 1.78085 2.56267 1.42058C2.92294 1.06031 3.41157 0.85791 3.92107 0.85791C4.43057 0.85791 4.9192 1.06031 5.27947 1.42058C5.63974 1.78085 5.84214 2.26948 5.84214 2.77898C5.84214 3.8397 4.98143 4.71827 3.92107 4.71827ZM17.9964 16.8576H14.6864V11.6576C14.6864 10.4183 14.6614 8.82898 12.9618 8.82898C11.2371 8.82898 10.9729 10.1754 10.9729 11.5683V16.8576H7.65929V6.17541H10.8407V7.63255H10.8871C11.33 6.79327 12.4118 5.90755 14.0257 5.90755C17.3829 5.90755 18 8.11827 18 10.9897V16.8576H17.9964Z"/>
</svg>
