<svg width="20" height="20" viewBox="0 0 20 20" fill="none" xmlns="http://www.w3.org/2000/svg">
  <path d="M3.41069 5.93949C3.43212 5.72878 3.34998 5.51807 3.19283 5.37521L1.58212 3.43235V3.14307H6.58927L10.4607 11.6324L13.8643 3.14307H18.6393V3.43235L17.2607 4.75378C17.1429 4.84307 17.0821 4.99307 17.1071 5.13949V14.8538C17.0821 15.0002 17.1429 15.1502 17.2607 15.2395L18.6071 16.5609V16.8502H11.8321V16.5609L13.2286 15.2074C13.3643 15.0716 13.3643 15.0288 13.3643 14.8216V6.97164L9.48213 16.8252H8.95713L4.44284 6.97164V13.5752C4.40355 13.8538 4.49641 14.1324 4.69284 14.3324L6.50712 16.5324V16.8216H1.36426V16.5359L3.17855 14.3324C3.3714 14.1324 3.46069 13.8502 3.41069 13.5752V5.93949Z"/>
</svg>
