<svg width="20" height="20" viewBox="0 0 20 20" fill="none" xmlns="http://www.w3.org/2000/svg">
  <path d="M17.263 6.27543C17.2746 6.43786 17.2746 6.60033 17.2746 6.76275C17.2746 11.717 13.5038 17.4255 6.61183 17.4255C4.48854 17.4255 2.51611 16.8106 0.856934 15.7432C1.15861 15.778 1.44865 15.7896 1.76193 15.7896C3.5139 15.7896 5.12668 15.1979 6.41458 14.1884C4.767 14.1536 3.38629 13.0746 2.91058 11.5894C3.14265 11.6242 3.37468 11.6474 3.61836 11.6474C3.95483 11.6474 4.29133 11.601 4.60458 11.5198C2.8874 11.1717 1.59947 9.6634 1.59947 7.84179V7.7954C2.09836 8.07386 2.67854 8.2479 3.29343 8.27108C2.284 7.59811 1.62268 6.44947 1.62268 5.14997C1.62268 4.45383 1.80829 3.81568 2.13318 3.25875C3.978 5.53286 6.75104 7.01797 9.8605 7.18043C9.8025 6.90197 9.76768 6.61193 9.76768 6.32186C9.76768 4.25658 11.4385 2.57422 13.5153 2.57422C14.5944 2.57422 15.569 3.02672 16.2535 3.75768C17.1005 3.59525 17.9127 3.28197 18.6321 2.85268C18.3536 3.7229 17.7619 4.45386 16.9845 4.91793C17.7387 4.83675 18.4696 4.62786 19.1426 4.33783C18.6321 5.08036 17.994 5.74168 17.263 6.27543Z"/>
</svg>
