<?xml version="1.0" encoding="UTF-8"?>
<svg width="503px" height="278px" viewBox="0 0 503 278" version="1.1" xmlns="http://www.w3.org/2000/svg" xmlns:xlink="http://www.w3.org/1999/xlink">
    <title>Group 130</title>
    <desc>Created with Sketch.</desc>
    <defs>
        <polygon id="path-1" points="0 279 503 279 503 0 0 0"></polygon>
    </defs>
    <g id="Desktop" stroke="none" stroke-width="1" fill="none" fill-rule="evenodd">
        <g id="Travel-Ledger" transform="translate(-217.000000, -1196.000000)">
            <g id="Group-130" transform="translate(217.000000, 1196.000000)">
                <path d="M134,248 L134,258.880344 C134,262.261026 131.331073,265 128.039862,265 L91,265" id="Stroke-1" stroke="#64f0ff" stroke-width="4" stroke-linecap="round" stroke-linejoin="round"></path>
                <path d="M81,265 L52.0616272,265 C48.7139493,265 46,262.31004 46,258.990796 L46,245" id="Stroke-3" stroke="#161656" stroke-width="4" stroke-linecap="round" stroke-linejoin="round"></path>
                <path d="M122,177 L111,177" id="Stroke-5" stroke="#007bff" stroke-width="6" stroke-linecap="round"></path>
                <path d="M121,191 L111,191" id="Stroke-7" stroke="#007bff" stroke-width="6" stroke-linecap="round"></path>
                <path d="M121,205 L111,205" id="Stroke-9" stroke="#ff6f00" stroke-width="6" stroke-linecap="round"></path>
                <path d="M121,220 L111,220" id="Stroke-11" stroke="#007bff" stroke-width="6" stroke-linecap="round"></path>
                <path d="M108,147 L129.013515,147 C132.319275,147 135,149.672479 135,152.968069 L135,173" id="Stroke-13" stroke="#161656" stroke-width="4" stroke-linecap="round" stroke-linejoin="round"></path>
                <path d="M372,178 L372,179" id="Stroke-15" stroke="#D4D4D4" stroke-width="3" stroke-linecap="round" stroke-linejoin="round"></path>
                <path d="M372,190 L372,198" id="Stroke-17" stroke="#D4D4D4" stroke-width="3" stroke-linecap="round" stroke-linejoin="round" stroke-dasharray="3.21,10.699"></path>
                <path d="M372.105,201.999332 L372.105,201 C372.105,201.338904 372.069,201.67246 372,202" id="Stroke-19" stroke="#D4D4D4" stroke-width="3" stroke-linecap="round" stroke-linejoin="round"></path>
                <path d="M368,210 C366.120027,211.254297 363.787624,212 361.268817,212 L317,212" id="Stroke-21" stroke="#D4D4D4" stroke-width="3" stroke-linecap="round" stroke-linejoin="round" stroke-dasharray="2.745,9.151"></path>
                <path d="M312,212 L311,212" id="Stroke-23" stroke="#D4D4D4" stroke-width="3" stroke-linecap="round" stroke-linejoin="round"></path>
                <path d="M264,211 L264,212" id="Stroke-25" stroke="#D4D4D4" stroke-width="3" stroke-linecap="round" stroke-linejoin="round"></path>
                <path d="M264,222 L264,248.423364 C264,254.241215 269.061231,259 275.247179,259 L340,259" id="Stroke-27" stroke="#D4D4D4" stroke-width="3" stroke-linecap="round" stroke-linejoin="round" stroke-dasharray="3.098,10.326"></path>
                <path d="M345,259 L346,259" id="Stroke-29" stroke="#D4D4D4" stroke-width="3" stroke-linecap="round" stroke-linejoin="round"></path>
                <path d="M264,93 L264,92" id="Stroke-31" stroke="#D4D4D4" stroke-width="3" stroke-linecap="round" stroke-linejoin="round"></path>
                <path d="M264,83 L264,54.5790761 C264,48.759883 269.059033,44 275.242296,44 L347,44" id="Stroke-33" stroke="#D4D4D4" stroke-width="3" stroke-linecap="round" stroke-linejoin="round" stroke-dasharray="3.007,10.023"></path>
                <path d="M352,44 L353,44" id="Stroke-35" stroke="#D4D4D4" stroke-width="3" stroke-linecap="round" stroke-linejoin="round"></path>
                <path d="M300,150.5 C300,169.000977 285.001703,184 266.499532,184 C247.998297,184 233,169.000977 233,150.5 C233,131.998088 247.998297,117 266.499532,117 C285.001703,117 300,131.998088 300,150.5" id="Fill-37" fill="#161656"></path>
                <path d="M259,140.08427 C261.184742,138.761253 263.744841,138 266.481853,138 C274.500064,138 281,144.534163 281,152.594595 C281,153.767055 280.862401,154.907523 280.603114,156" id="Stroke-39" stroke="#ff6f00" stroke-width="4" stroke-linecap="round" stroke-linejoin="round"></path>
                <path d="M276,163.693166 C273.461865,165.758096 270.197201,167 266.634376,167 C258.551974,167 252,160.606358 252,152.721326 C252,151.790588 252.09058,150.881025 252.265136,150" id="Stroke-41" stroke="#ffffff" stroke-width="4" stroke-linecap="round" stroke-linejoin="round"></path>
                <path d="M272,161 C272,161 277.068362,162.454634 279,161.727806 C279,161.727806 276.585939,165.363903 276.82715,169" id="Stroke-43" stroke="#ffffff" stroke-width="4" stroke-linecap="round" stroke-linejoin="round"></path>
                <path d="M263,143 C263,143 258.068749,140.975751 256,141.380963 C256,141.380963 258.992298,138.371331 259.288832,135" id="Stroke-45" stroke="#ff6f00" stroke-width="4" stroke-linecap="round" stroke-linejoin="round"></path>
                <path d="M288,121 L246,181" id="Stroke-47" stroke="#ffffff" stroke-width="5" stroke-linecap="round" stroke-linejoin="round"></path>
                <path d="M288,121 L246,181" id="Stroke-49" stroke="#ffffff" stroke-width="5" stroke-linecap="round" stroke-linejoin="round"></path>
                <path d="M79,104 L105,104" id="Stroke-51" stroke="#007bff" stroke-width="6" stroke-linecap="round"></path>
                <path d="M116,104 L131,104" id="Stroke-53" stroke="#161656" stroke-width="6" stroke-linecap="round"></path>
                <path d="M96,33 L139.458158,33 C142.519059,33 145,35.210702 145,37.9372973 L145,119.062703 C145,121.789298 142.519059,124 139.458158,124 L107.570774,124" id="Stroke-55" stroke="#161656" stroke-width="4" stroke-linecap="round" stroke-linejoin="round"></path>
                <g id="Group-60" transform="translate(64.000000, 55.000000)">
                    <path d="M0.1119,45.2082367 L0.1119,0.918685714" id="Fill-57" fill="#ffffff"></path>
                    <path d="M0.1119,45.2082367 L0.1119,0.918685714" id="Stroke-59" stroke="#007bff" stroke-width="4" stroke-linecap="round" stroke-linejoin="round"></path>
                </g>
                <path d="M64,48 L64,38.0060564 C64,35.2414892 66.4141169,33 69.3925727,33 L86,33" id="Stroke-61" stroke="#64f0ff" stroke-width="4" stroke-linecap="round" stroke-linejoin="round"></path>
                <path d="M124.382655,92 L87.617345,92 C83.4102559,92 80,88.6505951 80,84.5185755 L80,59.4814245 C80,55.3494049 83.4102559,52 87.617345,52 L124.382655,52 C128.589744,52 132,55.3494049 132,59.4814245 L132,84.5185755 C132,88.6505951 128.589744,92 124.382655,92 Z" id="Stroke-63" stroke="#64f0ff" stroke-width="4"></path>
                <path d="M100,58 L100,91" id="Stroke-65" stroke="#64f0ff" stroke-width="4"></path>
                <path d="M132,59 L81,59" id="Stroke-67" stroke="#64f0ff" stroke-width="4"></path>
                <path d="M18,165 L46,165" id="Stroke-69" stroke="#007bff" stroke-width="6" stroke-linecap="round"></path>
                <path d="M18,152 L75,152" id="Stroke-71" stroke="#ff6f00" stroke-width="4" stroke-linecap="round"></path>
                <path d="M18,182 L75,182" id="Stroke-73" stroke="#007bff" stroke-width="4" stroke-linecap="round"></path>
                <path d="M59,166 L75,166" id="Stroke-75" stroke="#161656" stroke-width="6" stroke-linecap="round"></path>
                <path d="M70.4333662,221 L22.5666338,221 C18.3875527,221 15,217.647297 15,213.511209 L15,202.488791 C15,198.352703 18.3875527,195 22.5666338,195 L70.4333662,195 C74.6124473,195 78,198.352703 78,202.488791 L78,213.511209 C78,217.647297 74.6124473,221 70.4333662,221 Z" id="Stroke-77" stroke="#64f0ff" stroke-width="4"></path>
                <path d="M37.032638,125 L84.0092643,125 C87.3180845,125 90,127.695899 90,131.021971 L90,229.978029 C90,233.304101 87.3180845,236 84.0092643,236 L7.99073571,236 C4.68285255,236 2,233.304101 2,229.978029 L2,223.494497" id="Stroke-79" stroke="#007bff" stroke-width="4" stroke-linecap="round" stroke-linejoin="round"></path>
                <g id="Group-84" transform="translate(2.000000, 153.000000)">
                    <path d="M0,54.6329915 L0,0.920364407" id="Fill-81" fill="#ffffff"></path>
                    <path d="M0,54.6329915 L0,0.920364407" id="Stroke-83" stroke="#007bff" stroke-width="4" stroke-linecap="round" stroke-linejoin="round"></path>
                </g>
                <path d="M2,143 L2,131.00689 C2,127.690087 4.7433764,125 8.12802423,125 L27,125" id="Stroke-85" stroke="#64f0ff" stroke-width="4" stroke-linecap="round" stroke-linejoin="round"></path>
                <path d="M35,195 L35,221" id="Stroke-87" stroke="#64f0ff" stroke-width="4"></path>
                <path d="M56,195 L56,221" id="Stroke-89" stroke="#64f0ff" stroke-width="4"></path>
                <path d="M413.712128,276 L378.148074,276 C374.766775,276 372,273.273074 372,269.940475 L372,233.060455 C372,229.726926 374.766775,227 378.148074,227 L438.851926,227 C442.233225,227 445,229.726926 445,233.060455 L445,269.940475 C445,273.273074 442.233225,276 438.851926,276 L430.240092,276" id="Stroke-91" stroke="#161656" stroke-width="4" stroke-linecap="round" stroke-linejoin="round"></path>
                <mask id="mask-2" fill="white">
                    <use xlink:href="#path-1"></use>
                </mask>
                <g id="Clip-94"></g>
                <polygon id="Fill-93" fill="#007bff" mask="url(#mask-2)" points="373 252 444 252 444 238 373 238"></polygon>
                <polygon id="Fill-95" fill="#007bff" mask="url(#mask-2)" points="378 271 389 271 389 260 378 260"></polygon>
                <path d="M438.622563,57.0186982 C438.036839,57.3857107 437.837524,57.9874964 438.140257,58.4762077 C439.040937,58.5653256 439.932216,58.2931805 440.68905,57.967373 C443.827328,56.61623 444.746811,55.0763103 447.642526,53.0400133 C450.050293,51.3467724 452.120541,49.4034264 455.838902,49 C454.407968,51.4464312 453.222417,53.4060676 451.790543,55.8524989 C451.403194,56.515613 451.013024,57.2486799 451.392852,57.9137106 C451.893961,58.7885996 453.618227,59.1642365 455.017196,58.9332965 C456.417104,58.7013982 457.525561,58.0191189 458.445985,57.2994676 C458.469489,57.933834 459.689826,58.3104292 460.640335,58.1532749 C461.589904,57.9951625 462.295969,57.4939938 462.942804,57.0177399 C462.86195,57.7230174 465.705955,58.4005054 464.83348,58.8288464" id="Stroke-96" stroke="#64f0ff" stroke-width="3" stroke-linecap="round" stroke-linejoin="round" mask="url(#mask-2)"></path>
                <polyline id="Stroke-97" stroke="#007bff" stroke-width="4" stroke-linecap="round" stroke-linejoin="round" mask="url(#mask-2)" points="473 26 473 67 401 67"></polyline>
                <polyline id="Stroke-98" stroke="#007bff" stroke-width="4" stroke-linecap="round" stroke-linejoin="round" mask="url(#mask-2)" points="389 67 375 67 375 38"></polyline>
                <path d="M411,59 L432,59" id="Stroke-99" stroke="#007bff" stroke-width="3" stroke-linecap="round" stroke-linejoin="round" mask="url(#mask-2)"></path>
                <polygon id="Fill-100" fill="#007bff" mask="url(#mask-2)" points="381 61 401 61 401 39 381 39"></polygon>
                <polyline id="Stroke-101" stroke="#161656" stroke-width="4" stroke-linecap="round" stroke-linejoin="round" mask="url(#mask-2)" points="444.028181 21 473 21 473 32 374 32 374 21 430.771918 21"></polyline>
                <path d="M395,52.1515698 C395,50.1877469 393.612159,49.3824243 392.581807,48.9516252 L391.146953,48.3228914 C390.377127,47.9881489 390.121498,47.8193222 390.121498,47.4739067 C390.121498,46.863608 390.91483,46.8150946 391.157727,46.8150946 C391.772804,46.8150946 392.297774,47.0343752 392.764959,47.4855499 C392.921666,47.637882 393.149871,47.742671 393.35653,47.7067711 C393.5769,47.6980387 393.781599,47.598101 393.924594,47.4321852 L394.497556,46.7646407 C394.759062,46.4590062 394.748288,46.0078315 394.470133,45.7157807 C393.810002,45.0162173 392.916769,44.5640724 391.94812,44.3991268 L391.94812,43.5239448 C391.94812,43.2348049 391.7111,43 391.419232,43 L390.688583,43 C390.396716,43 390.159695,43.2348049 390.159695,43.5239448 L390.159695,44.4437591 C388.579887,44.8066394 387.47314,46.0068612 387.47314,47.5301823 C387.47314,48.9118442 388.274308,49.9558528 389.849219,50.6321297 L391.205718,51.2269042 C392.190038,51.6596438 392.33793,51.7896597 392.33793,52.2223993 C392.33793,52.9695059 391.453512,53.0510084 391.072517,53.0510084 C390.324238,53.0510084 389.577919,52.709474 389.022586,52.1146996 C388.869796,51.949754 388.664118,51.9022108 388.429056,51.8604893 C388.204769,51.8643704 387.991255,51.9604269 387.842382,52.1273131 L387.197923,52.8491926 C386.928582,53.1538568 386.934458,53.6118234 387.213593,53.9096958 C388.005946,54.7470372 389.031401,55.2719523 390.159695,55.4592141 L390.159695,56.4760552 C390.159695,56.7651951 390.396716,57 390.688583,57 L391.419232,57 C391.7111,57 391.94812,56.7651951 391.94812,56.4760552 L391.94812,55.4669762 C393.759072,55.1448472 395,53.8524499 395,52.1515698" id="Fill-102" fill="#ffffff" mask="url(#mask-2)"></path>
                <polygon id="Fill-103" fill="#ffffff" mask="url(#mask-2)" points="456 28 460 28 460 24 456 24"></polygon>
                <polygon id="Fill-104" fill="#ffffff" mask="url(#mask-2)" points="463 28 467 28 467 24 463 24"></polygon>
                <path d="M226,129 C234.004931,114.695234 249.328817,105 266.878124,105 C280.321929,105 292.45871,110.688659 301,119.780934" id="Stroke-105" stroke="#64f0ff" stroke-width="4" stroke-linecap="round" stroke-linejoin="round" mask="url(#mask-2)"></path>
                <path d="M308.413849,130 C311.97704,136.607475 314,144.164927 314,152.188424 C314,177.999754 293.052874,199 267.305677,199 C260.032787,199 253.143075,197.324123 247,194.337672" id="Stroke-106" stroke="#64f0ff" stroke-width="4" stroke-linecap="round" stroke-linejoin="round" mask="url(#mask-2)"></path>
                <path d="M240,190 C227.897599,181.59177 220,167.859847 220,152.377568 C220,149.867482 220.207882,147.403017 220.607286,145" id="Stroke-107" stroke="#64f0ff" stroke-width="4" stroke-linecap="round" stroke-linejoin="round" mask="url(#mask-2)"></path>
                <path d="M477,232 C477,246.359422 465.359633,258 450.999528,258 C436.640367,258 425,246.359422 425,232 C425,217.640578 436.640367,206 450.999528,206 C465.359633,206 477,217.640578 477,232" id="Fill-108" fill="#161656" mask="url(#mask-2)"></path>
                <path d="M451.211997,219.007834 C449.929417,219.007834 448.88636,220.118059 448.88636,221.483233 L448.88636,226.516767 C448.88636,227.881941 449.929417,228.992166 451.211997,228.992166 L453.788003,228.992166 C455.070583,228.992166 456.11364,227.881941 456.11364,226.516767 L456.11364,221.483233 C456.11364,220.118059 455.070583,219.007834 453.788003,219.007834 L451.211997,219.007834 Z M453.788003,231 L451.211997,231 C448.889071,231 447,228.988318 447,226.516767 L447,221.483233 C447,219.01072 448.889071,217 451.211997,217 L453.788003,217 C456.110025,217 458,219.01072 458,221.483233 L458,226.516767 C458,228.988318 456.110025,231 453.788003,231 Z" id="Fill-109" fill="#ffffff" mask="url(#mask-2)"></path>
                <path d="M446,240 C445.447747,240 445,240.404399 445,240.903187 L445,245 L447,245 L447,240.903187 C447,240.404399 446.552253,240 446,240" id="Fill-110" fill="#ffffff" mask="url(#mask-2)"></path>
                <path d="M457,240 C456.447747,240 456,240.404399 456,240.903187 L456,245 L458,245 L458,240.903187 C458,240.404399 457.552253,240 457,240" id="Fill-111" fill="#ffffff" mask="url(#mask-2)"></path>
                <path d="M462,241.392468 C462,236.214003 457.765592,232 452.559989,232 L450.439086,232 C445.234408,232 441,236.214003 441,241.392468 L441,244.313465 C441,244.543537 441.014799,244.771768 441.031448,245 L442.962738,245 C442.941464,244.772689 442.930365,244.543537 442.930365,244.313465 L442.930365,241.392468 C442.930365,237.272335 446.299022,233.920643 450.439086,233.920643 L452.559989,233.920643 C456.700978,233.920643 460.069635,237.272335 460.069635,241.392468 L460.069635,244.313465 C460.069635,244.543537 460.058536,244.772689 460.037262,245 L461.968552,245 C461.985201,244.771768 462,244.543537 462,244.313465 L462,241.392468 Z" id="Fill-112" fill="#ffffff" mask="url(#mask-2)"></path>
                <path d="M504,25.9995277 C504,40.359633 492.358688,52 477.999528,52 C463.640367,52 452,40.359633 452,25.9995277 C452,11.640367 463.640367,0 477.999528,0 C492.358688,0 504,11.640367 504,25.9995277" id="Fill-113" fill="#161656" mask="url(#mask-2)"></path>
                <path d="M477.211997,14.007834 C475.929417,14.007834 474.88636,15.1180594 474.88636,16.4832325 L474.88636,21.5167675 C474.88636,22.8819406 475.929417,23.992166 477.211997,23.992166 L479.788003,23.992166 C481.070583,23.992166 482.11364,22.8819406 482.11364,21.5167675 L482.11364,16.4832325 C482.11364,15.1180594 481.070583,14.007834 479.788003,14.007834 L477.211997,14.007834 Z M479.788003,26 L477.211997,26 C474.889071,26 473,23.9892798 473,21.5167675 L473,16.4832325 C473,14.0116822 474.889071,12 477.211997,12 L479.788003,12 C482.110025,12 484,14.0116822 484,16.4832325 L484,21.5167675 C484,23.9892798 482.110025,26 479.788003,26 Z" id="Fill-114" fill="#ffffff" mask="url(#mask-2)"></path>
                <path d="M473,34 C472.447747,34 472,34.404399 472,34.9031867 L472,39 L474,39 L474,34.9031867 C474,34.404399 473.552253,34 473,34" id="Fill-115" fill="#ffffff" mask="url(#mask-2)"></path>
                <path d="M483,34 C482.447747,34 482,34.404399 482,34.9031867 L482,39 L484,39 L484,34.9031867 C484,34.404399 483.552253,34 483,34" id="Fill-116" fill="#ffffff" mask="url(#mask-2)"></path>
                <path d="M488,36.3924678 C488,31.2140025 483.765592,27 478.559989,27 L476.440011,27 C471.234408,27 467,31.2140025 467,36.3924678 L467,39.3134645 C467,39.5435367 467.014799,39.7717684 467.031448,40 L468.962738,40 C468.941464,39.7726887 468.930365,39.5435367 468.930365,39.3134645 L468.930365,36.3924678 C468.930365,32.2723347 472.299022,28.9206428 476.440011,28.9206428 L478.559989,28.9206428 C482.700978,28.9206428 486.069635,32.2723347 486.069635,36.3924678 L486.069635,39.3134645 C486.069635,39.5435367 486.058536,39.7726887 486.037262,40 L487.968552,40 C487.985201,39.7717684 488,39.5435367 488,39.3134645 L488,36.3924678 Z" id="Fill-117" fill="#ffffff" mask="url(#mask-2)"></path>
                <polyline id="Stroke-118" stroke="#007bff" stroke-width="4" stroke-linecap="round" stroke-linejoin="round" mask="url(#mask-2)" points="450 144 375 144 375 100 390.067306 100"></polyline>
                <polyline id="Stroke-119" stroke="#161656" stroke-width="4" stroke-linecap="round" stroke-linejoin="round" mask="url(#mask-2)" points="401 100 470 100 470 144 456.156645 144"></polyline>
                <path d="M440,120.5 C440,129.060368 433.060368,136 424.5,136 C415.939632,136 409,129.060368 409,120.5 C409,111.939632 415.939632,105 424.5,105 C433.060368,105 440,111.939632 440,120.5" id="Fill-120" fill="#64f0ff" mask="url(#mask-2)"></path>
                <path d="M430,123.073854 C430,120.269067 428.091737,119.117647 426.674737,118.502505 L424.702475,117.603451 C423.644232,117.127482 423.291785,116.885322 423.291785,116.390796 C423.291785,115.518649 424.382479,115.450919 424.717799,115.450919 C425.56241,115.450919 426.284431,115.762665 426.926228,116.408425 C427.142564,116.626461 427.456251,116.77584 427.740192,116.72481 C428.043062,116.71182 428.324298,116.568937 428.520803,116.331416 L429.308627,115.378549 C429.669186,114.941548 429.653863,114.297643 429.272571,113.880126 C428.36396,112.880868 427.135353,112.234181 425.803986,111.997588 L425.803986,110.74782 C425.803986,110.334942 425.47858,110 425.077458,110 L424.072397,110 C423.670373,110 423.344968,110.334942 423.344968,110.74782 L423.344968,112.062535 C421.172595,112.581184 419.651033,114.295788 419.651033,116.472444 C419.651033,118.444981 420.751642,119.936909 422.918606,120.903693 L424.783601,121.753572 C426.136602,122.371497 426.339417,122.557988 426.339417,123.174986 C426.339417,124.242902 425.123429,124.358879 424.600617,124.358879 C423.571219,124.358879 422.544525,123.871776 421.78104,123.020969 C421.571915,122.786231 421.287974,122.718501 420.965273,122.65912 C420.656093,122.66376 420.36404,122.802004 420.158521,123.038597 L419.273346,124.071256 C418.901068,124.506402 418.910082,125.16144 419.294079,125.585452 C420.382969,126.782334 421.793659,127.53201 423.344968,127.800148 L423.344968,129.25218 C423.344968,129.665058 423.670373,130 424.072397,130 L425.077458,130 C425.47858,130 425.803986,129.665058 425.803986,129.25218 L425.803986,127.810354 C428.293651,127.351086 430,125.503804 430,123.073854" id="Fill-121" fill="#ffffff" mask="url(#mask-2)"></path>
                <path d="M154,114 L204,114" id="Stroke-122" stroke="#D4D4D4" stroke-width="3" stroke-linecap="round" stroke-linejoin="round" stroke-dasharray="3,10" mask="url(#mask-2)"></path>
                <path d="M154,149 L204,149" id="Stroke-123" stroke="#D4D4D4" stroke-width="3" stroke-linecap="round" stroke-linejoin="round" stroke-dasharray="3,10" mask="url(#mask-2)"></path>
                <path d="M154,190 L204,190" id="Stroke-124" stroke="#D4D4D4" stroke-width="3" stroke-linecap="round" stroke-linejoin="round" stroke-dasharray="3,10" mask="url(#mask-2)"></path>
                <path d="M400,137.999528 C400,152.359633 388.359633,164 374.000472,164 C359.640367,164 348,152.359633 348,137.999528 C348,123.640367 359.640367,112 374.000472,112 C388.359633,112 400,123.640367 400,137.999528" id="Fill-125" fill="#007bff" mask="url(#mask-2)"></path>
                <path d="M373.211997,126.007834 C371.929417,126.007834 370.88636,127.118059 370.88636,128.483233 L370.88636,133.516767 C370.88636,134.881941 371.929417,135.992166 373.211997,135.992166 L375.788003,135.992166 C377.070583,135.992166 378.11364,134.881941 378.11364,133.516767 L378.11364,128.483233 C378.11364,127.118059 377.070583,126.007834 375.788003,126.007834 L373.211997,126.007834 Z M375.788003,138 L373.211997,138 C370.889071,138 369,135.98928 369,133.516767 L369,128.483233 C369,126.011682 370.889071,124 373.211997,124 L375.788003,124 C378.110025,124 380,126.011682 380,128.483233 L380,133.516767 C380,135.98928 378.110025,138 375.788003,138 Z" id="Fill-126" fill="#ffffff" mask="url(#mask-2)"></path>
                <path d="M369,147 C368.447747,147 368,147.404399 368,147.903187 L368,152 L370,152 L370,147.903187 C370,147.404399 369.552253,147 369,147" id="Fill-127" fill="#ffffff" mask="url(#mask-2)"></path>
                <path d="M379,147 C378.447747,147 378,147.404399 378,147.903187 L378,152 L380,152 L380,147.903187 C380,147.404399 379.552253,147 379,147" id="Fill-128" fill="#ffffff" mask="url(#mask-2)"></path>
                <path d="M385,148.392468 C385,143.214003 380.765592,139 375.559989,139 L373.440011,139 C368.234408,139 364,143.214003 364,148.392468 L364,151.313465 C364,151.543537 364.014799,151.772689 364.031448,152 L365.962738,152 C365.941464,151.772689 365.930365,151.543537 365.930365,151.313465 L365.930365,148.392468 C365.930365,144.272335 369.299022,140.920643 373.440011,140.920643 L375.559989,140.920643 C379.700978,140.920643 383.069635,144.272335 383.069635,148.392468 L383.069635,151.313465 C383.069635,151.543537 383.058536,151.772689 383.037262,152 L384.968552,152 C384.985201,151.772689 385,151.543537 385,151.313465 L385,148.392468 Z" id="Fill-129" fill="#ffffff" mask="url(#mask-2)"></path>
            </g>
        </g>
    </g>
</svg>