<svg width="294" height="32" viewBox="0 0 294 32" fill="none" xmlns="http://www.w3.org/2000/svg">
<g clip-path="url(#clip0_5301_8322)">
<path d="M59.5971 24.2581C57.7207 22.4301 56.7832 19.6774 56.7832 16.0001C56.7832 12.3227 57.7207 9.57073 59.5971 7.74273C61.4728 5.91407 64.1124 5.00073 67.5144 5.00073C70.9165 5.00073 73.586 5.91473 75.4624 7.74273C77.3381 9.57073 78.277 12.3234 78.277 16.0001C78.277 19.6767 77.3388 22.4301 75.4624 24.2581C73.586 26.0861 70.9365 27.0001 67.5144 27.0001C64.0924 27.0001 61.4728 26.0861 59.5971 24.2581ZM72.1069 21.4381C73.1476 20.2714 73.6685 18.6134 73.6685 16.4647V15.5354C73.6685 13.3867 73.1476 11.7294 72.1069 10.5621C71.0656 9.3954 69.5352 8.8114 67.5144 8.8114C65.4937 8.8114 63.968 9.3954 62.9373 10.5621C61.906 11.7294 61.391 13.3874 61.391 15.5354V16.4647C61.391 18.6134 61.906 20.2714 62.9373 21.4381C63.968 22.6054 65.4937 23.1887 67.5144 23.1887C69.5352 23.1887 71.0656 22.6054 72.1069 21.4381Z" fill="#0C1731"/>
<path d="M82.2234 5.37207H85.6627C85.8597 5.37207 86.044 5.46807 86.1578 5.62874L94.141 16.9294C94.3766 17.2634 94.7598 17.9041 95.2928 18.8534C95.3394 18.9367 95.4458 18.9647 95.527 18.9161L95.5323 18.9127L95.4392 17.1154V5.98007C95.4392 5.64407 95.7106 5.37207 96.046 5.37207H99.1932C99.5286 5.37207 99.8001 5.64407 99.8001 5.98007V26.0201C99.8001 26.3561 99.5286 26.6281 99.1932 26.6281H95.7539C95.5563 26.6281 95.3713 26.5321 95.2582 26.3701L87.2437 14.9767C86.8784 14.4567 86.5038 13.8281 86.1205 13.0921C86.0753 13.0054 85.9668 12.9741 85.883 13.0247C85.9442 13.9134 85.9755 14.5327 85.9755 14.8841V26.0201C85.9755 26.3561 85.704 26.6281 85.3686 26.6281H82.2221C81.8867 26.6281 81.6152 26.3561 81.6152 26.0201V5.98007C81.6152 5.64407 81.8867 5.37207 82.2221 5.37207H82.2234Z" fill="#0C1731"/>
<path d="M103.943 5.98007C103.943 5.64407 104.215 5.37207 104.55 5.37207H112.726C115.963 5.37207 118.463 6.2554 120.226 8.0214C121.988 9.7874 122.87 12.4474 122.87 16.0001C122.87 19.5527 121.988 22.2127 120.226 23.9794C118.463 25.7454 115.963 26.6287 112.726 26.6287H104.55C104.215 26.6287 103.943 26.3567 103.943 26.0207V5.98007ZM112.726 22.8174C114.54 22.8174 115.916 22.2647 116.855 21.1594C117.793 20.0547 118.262 18.4894 118.262 16.4647V15.5354C118.262 13.5107 117.793 11.9461 116.855 10.8407C115.917 9.73607 114.54 9.18274 112.726 9.18274H108.731C108.563 9.18274 108.427 9.31874 108.427 9.48674V22.5127C108.427 22.6807 108.563 22.8167 108.731 22.8167H112.726V22.8174Z" fill="#0C1731"/>
<path d="M128.312 24.2581C126.436 22.4301 125.498 19.6774 125.498 16.0001C125.498 12.3227 126.436 9.57073 128.312 7.74273C130.188 5.91407 132.827 5.00073 136.229 5.00073C139.631 5.00073 142.301 5.91473 144.177 7.74273C146.053 9.57073 146.992 12.3234 146.992 16.0001C146.992 19.6767 146.054 22.4301 144.177 24.2581C142.301 26.0861 139.651 27.0001 136.229 27.0001C132.807 27.0001 130.188 26.0861 128.312 24.2581ZM140.822 21.4381C141.862 20.2714 142.383 18.6134 142.383 16.4647V15.5354C142.383 13.3867 141.862 11.7294 140.822 10.5621C139.78 9.3954 138.25 8.8114 136.229 8.8114C134.209 8.8114 132.683 9.3954 131.652 10.5621C130.621 11.7294 130.106 13.3874 130.106 15.5354V16.4647C130.106 18.6134 130.621 20.2714 131.652 21.4381C132.683 22.6054 134.209 23.1887 136.229 23.1887C138.25 23.1887 139.78 22.6054 140.822 21.4381Z" fill="#0C1731"/>
<path d="M150.94 5.37207H154.38C154.576 5.37207 154.761 5.46807 154.875 5.62874L162.858 16.9294C163.093 17.2634 163.477 17.9041 164.01 18.8534C164.056 18.9367 164.163 18.9647 164.244 18.9161L164.249 18.9127L164.156 17.1154V5.98007C164.156 5.64407 164.427 5.37207 164.763 5.37207H167.91C168.245 5.37207 168.517 5.64407 168.517 5.98007V26.0201C168.517 26.3561 168.245 26.6281 167.91 26.6281H164.471C164.273 26.6281 164.088 26.5321 163.975 26.3701L155.96 14.9767C155.595 14.4567 155.221 13.8281 154.837 13.0921C154.792 13.0054 154.684 12.9741 154.6 13.0247C154.661 13.9134 154.692 14.5327 154.692 14.8841V26.0201C154.692 26.3561 154.421 26.6281 154.085 26.6281H150.939C150.603 26.6281 150.332 26.3561 150.332 26.0201V5.98007C150.332 5.64407 150.603 5.37207 150.939 5.37207H150.94Z" fill="#0C1731"/>
<path d="M178.598 5.97934C178.598 5.644 178.869 5.37134 179.204 5.37134H190.752C191.865 5.37134 192.875 5.59334 193.783 6.03734C194.69 6.482 195.401 7.10134 195.917 7.89667C196.432 8.692 196.69 9.606 196.69 10.6387C196.69 11.816 196.365 12.834 195.716 13.6907C195.066 14.548 194.236 15.142 193.226 15.4727V15.5967C194.422 15.824 195.396 16.4073 196.148 17.3473C196.901 18.2873 197.278 19.398 197.278 20.6787C197.278 22.6 196.664 24.0713 195.438 25.094C194.211 26.1167 192.649 26.628 190.752 26.628H179.204C178.87 26.628 178.598 26.356 178.598 26.02V5.97934ZM189.483 13.862C190.308 13.862 190.947 13.6507 191.401 13.2267C191.854 12.8033 192.082 12.2613 192.082 11.6C192.082 10.8153 191.87 10.216 191.447 9.80267C191.025 9.38934 190.442 9.18267 189.7 9.18267H183.45C183.282 9.18267 183.146 9.31867 183.146 9.48667V13.558C183.146 13.726 183.282 13.862 183.45 13.862H189.483ZM190.009 22.8167C190.792 22.8167 191.431 22.5893 191.927 22.1347C192.422 21.6807 192.668 21.03 192.668 20.1827C192.668 19.4187 192.421 18.7987 191.927 18.3233C191.431 17.8487 190.71 17.6107 189.762 17.6107H183.45C183.282 17.6107 183.146 17.7467 183.146 17.9147V22.5127C183.146 22.6807 183.282 22.8167 183.45 22.8167H190.01H190.009Z" fill="#0C1731"/>
<path d="M199.825 5.97934C199.825 5.644 200.096 5.37134 200.432 5.37134H211.082C213.453 5.37134 215.236 5.95534 216.433 7.122C217.628 8.28934 218.227 9.926 218.227 12.0333C218.227 14.888 217.087 16.83 214.808 17.858C214.65 17.9293 214.582 18.1167 214.66 18.2713L218.404 25.7473C218.607 26.1513 218.313 26.6273 217.862 26.6273H214.373C214.139 26.6273 213.926 26.492 213.825 26.2793L210.329 18.8687C210.279 18.7627 210.172 18.6947 210.055 18.6947H204.677C204.509 18.6947 204.373 18.8307 204.373 18.9987V26.0193C204.373 26.3547 204.102 26.6273 203.767 26.6273H200.431C200.096 26.6273 199.824 26.3553 199.824 26.0193V5.97934H199.825ZM210.68 14.9467C211.649 14.9467 212.391 14.6887 212.906 14.172C213.421 13.656 213.679 12.9433 213.679 12.034C213.679 11.1247 213.421 10.4227 212.906 9.92667C212.391 9.43067 211.649 9.18334 210.68 9.18334H204.677C204.509 9.18334 204.373 9.31934 204.373 9.48734V14.6433C204.373 14.8113 204.509 14.9473 204.677 14.9473H210.68V14.9467Z" fill="#0C1731"/>
<path d="M255.923 24.304C254.139 22.5067 253.248 19.7387 253.248 16C253.248 12.2613 254.196 9.59667 256.093 7.758C257.99 5.91933 260.67 5 264.134 5C265.969 5 267.644 5.284 269.16 5.852C270.675 6.42067 271.881 7.27733 272.778 8.424C273.553 9.41533 273.994 10.5953 274.099 11.9647C274.126 12.3193 273.849 12.6227 273.494 12.6227H270.048C269.745 12.6227 269.492 12.398 269.448 12.0973C269.314 11.1827 268.816 10.4333 267.955 9.84933C266.934 9.15733 265.713 8.81133 264.29 8.81133C262.126 8.81133 260.512 9.39 259.45 10.5467C258.388 11.704 257.857 13.3667 257.857 15.5353V16.4647C257.857 18.7373 258.347 20.426 259.326 21.5307C260.305 22.636 261.805 23.1887 263.826 23.1887C265.496 23.1887 266.877 22.7913 267.97 21.9953C268.973 21.266 269.524 20.2967 269.624 19.0887C269.639 18.9107 269.5 18.758 269.322 18.758H263.814C263.48 18.758 263.207 18.486 263.207 18.15V15.678C263.207 15.3427 263.479 15.07 263.814 15.07H273.518C273.853 15.07 274.125 15.342 274.125 15.678V26.0207C274.125 26.356 273.854 26.6287 273.518 26.6287H271.543C271.248 26.6287 270.995 26.4153 270.946 26.1233L270.724 24.822C270.684 24.588 270.404 24.4887 270.225 24.6447C269.358 25.406 268.451 25.974 267.506 26.3493C266.413 26.7833 265.084 27 263.517 27C260.239 27 257.707 26.1013 255.924 24.304H255.923Z" fill="#0C1731"/>
<path d="M223.175 5.372H226.511C226.845 5.372 227.118 5.644 227.118 5.98V26.0207C227.118 26.356 226.846 26.6287 226.511 26.6287H223.175C222.841 26.6287 222.568 26.3567 222.568 26.0207V5.97934C222.568 5.644 222.84 5.37134 223.175 5.37134V5.372Z" fill="#0C1731"/>
<path d="M231.668 5.97934C231.668 5.644 231.939 5.37134 232.275 5.37134H240.136C243.373 5.37134 245.873 6.25467 247.636 8.02067C249.398 9.78667 250.28 12.4467 250.28 15.9993C250.28 19.552 249.398 22.212 247.636 23.9787C245.872 25.7447 243.373 26.628 240.136 26.628H232.275C231.94 26.628 231.668 26.356 231.668 26.02V5.97934ZM240.136 22.8167C241.951 22.8167 243.326 22.264 244.265 21.1587C245.203 20.054 245.672 18.4887 245.672 16.464V15.5347C245.672 13.51 245.203 11.9453 244.265 10.84C243.327 9.73534 241.951 9.182 240.136 9.182H236.52C236.352 9.182 236.217 9.318 236.217 9.486V22.512C236.217 22.68 236.352 22.816 236.52 22.816H240.136V22.8167Z" fill="#0C1731"/>
<path d="M279.277 5.372H293.041C293.375 5.372 293.648 5.644 293.648 5.98V8.576C293.648 8.91134 293.376 9.184 293.041 9.184H283.523C283.355 9.184 283.219 9.32001 283.219 9.48801V13.5593C283.219 13.7273 283.355 13.8633 283.523 13.8633H291.68C292.015 13.8633 292.287 14.1353 292.287 14.4713V17.0673C292.287 17.4027 292.015 17.6753 291.68 17.6753H283.523C283.355 17.6753 283.219 17.8113 283.219 17.9793V22.5153C283.219 22.6833 283.355 22.8193 283.523 22.8193H293.226C293.561 22.8193 293.833 23.0913 293.833 23.4273V26.0233C293.833 26.3587 293.562 26.6313 293.226 26.6313H279.277C278.942 26.6313 278.67 26.3593 278.67 26.0233V5.97934C278.67 5.644 278.941 5.37134 279.277 5.37134V5.372Z" fill="#0C1731"/>
<path d="M40.5971 5.36597H43.9346C44.27 5.36597 44.5414 5.63797 44.5414 5.97397V22.4233C44.5414 22.5913 44.6772 22.7273 44.8448 22.7273H54.5541C54.8894 22.7273 55.1609 22.9993 55.1609 23.3353V26.026C55.1609 26.362 54.8894 26.634 54.5541 26.634H40.5971C40.2617 26.634 39.9902 26.362 39.9902 26.026V5.97397C39.9902 5.63797 40.2617 5.36597 40.5971 5.36597Z" fill="#0C1731"/>
<path d="M26.6152 32H5.32304C2.38206 32 0 29.6133 0 26.6667V5.33333C0 2.38667 2.38206 0 5.32304 0H26.6152C29.5562 0 31.9382 2.38667 31.9382 5.33333V26.6667C31.9382 29.6133 29.5562 32 26.6152 32Z" fill="#0C1731"/>
<path d="M12.6727 14.3928C11.2475 13.8501 9.97661 12.9654 8.94727 11.8328V23.4994H12.6727V14.3928Z" fill="url(#paint0_linear_5301_8322)"/>
<path d="M22.9911 11.8333C21.9617 12.9659 20.6909 13.8506 19.2656 14.3933V23.4999H22.9911V11.8333Z" fill="url(#paint1_linear_5301_8322)"/>
<path d="M17.8322 14.8101C17.2294 14.9334 16.6066 14.9987 15.9698 14.9987C15.3331 14.9987 14.7103 14.9341 14.1074 14.8101V23.5001H17.8329V14.8101H17.8322Z" fill="url(#paint2_linear_5301_8322)"/>
<path d="M7.29646 6H3.99219V26H7.29646V6Z" fill="#CA4820"/>
<path d="M27.9469 6H24.6426V26H27.9469V6Z" fill="#444EA6"/>
</g>
<defs>
<linearGradient id="paint0_linear_5301_8322" x1="23.0081" y1="17.6668" x2="8.92864" y2="17.6668" gradientUnits="userSpaceOnUse">
<stop stop-color="#5059C4"/>
<stop offset="1" stop-color="#CB4920"/>
</linearGradient>
<linearGradient id="paint1_linear_5301_8322" x1="23.0097" y1="17.6666" x2="8.93028" y2="17.6666" gradientUnits="userSpaceOnUse">
<stop stop-color="#5059C4"/>
<stop offset="1" stop-color="#CB4920"/>
</linearGradient>
<linearGradient id="paint2_linear_5301_8322" x1="23.0089" y1="19.1547" x2="8.92944" y2="19.1547" gradientUnits="userSpaceOnUse">
<stop stop-color="#5059C4"/>
<stop offset="1" stop-color="#CB4920"/>
</linearGradient>
<clipPath id="clip0_5301_8322">
<rect width="294" height="32" fill="white"/>
</clipPath>
</defs>
</svg>
