<svg width="239" height="34" viewBox="0 0 239 34" fill="none" xmlns="http://www.w3.org/2000/svg">
<g clip-path="url(#clip0_5301_8418)">
<path d="M46.3588 27.8871C44.9377 27.3488 43.8036 26.5554 42.9566 25.5C42.1095 24.4446 41.6895 23.1696 41.6895 21.6821L41.7035 21.4342C41.7175 21.1721 41.9345 20.9596 42.1935 20.9596H45.9878C46.2678 20.9596 46.4919 21.2004 46.4779 21.4838C46.4779 22.4471 46.9049 23.2192 47.745 23.7929C48.592 24.3667 49.7751 24.65 51.2943 24.65C52.8974 24.65 54.0595 24.4375 54.7805 24.0054C55.4946 23.5804 55.8516 22.9996 55.8516 22.2771C55.8516 21.6396 55.6206 21.1083 55.1516 20.6763C54.6825 20.2513 54.1015 19.9042 53.3944 19.6563C52.6874 19.4013 51.7213 19.1038 50.4822 18.7496C48.725 18.2467 47.3039 17.765 46.2188 17.2975C45.1337 16.8371 44.2027 16.15 43.4186 15.2363C42.6415 14.3225 42.2495 13.1254 42.2495 11.6308C42.2495 9.56959 43.0756 7.99709 44.7207 6.92042C46.3728 5.84375 48.564 5.30542 51.2943 5.30542C53.8775 5.30542 55.9846 5.85792 57.6298 6.97C59.0929 7.96167 59.905 9.3925 60.059 11.2696C60.087 11.645 59.807 11.9638 59.4359 11.9708L55.9846 12.0417C55.6836 12.0488 55.4106 11.8363 55.3476 11.5388C55.2216 10.9438 54.8646 10.455 54.2765 10.0796C53.5274 9.59792 52.5124 9.35709 51.2313 9.35709C49.8661 9.35709 48.8161 9.54125 48.088 9.91667C47.3599 10.2921 46.9959 10.8092 46.9959 11.4679C46.9959 11.9708 47.2129 12.41 47.6469 12.7713C48.081 13.1325 48.62 13.43 49.2781 13.6638C49.9291 13.8975 50.8532 14.1738 52.0433 14.5067C53.8215 14.9883 55.2846 15.47 56.4187 15.9375C57.5598 16.4121 58.5399 17.1063 59.3659 18.0271C60.192 18.9479 60.605 20.1592 60.605 21.6538C60.605 24.0692 59.751 25.8471 58.0498 26.9875C56.3487 28.1279 54.0175 28.7017 51.0632 28.7017C49.3481 28.6946 47.78 28.4254 46.3588 27.8871Z" fill="#0C1731"/>
<path d="M65.0288 5.70215H68.5361C68.8861 5.70215 69.1732 5.99257 69.1732 6.34673V27.6534C69.1732 28.0076 68.8861 28.298 68.5361 28.298H65.0218C64.6718 28.298 64.3848 28.0076 64.3848 27.6534V6.34673C64.3848 5.99257 64.6718 5.70215 65.0288 5.70215Z" fill="#0C1731"/>
<path d="M74.6059 5.70215H78.1202C78.4703 5.70215 78.7573 5.99257 78.7573 6.34673V23.8213C78.7573 23.9984 78.8973 24.1472 79.0793 24.1472H89.2932C89.6432 24.1472 89.9302 24.4376 89.9302 24.7917V27.6534C89.9302 28.0076 89.6432 28.298 89.2932 28.298H74.6059C74.2559 28.298 73.9689 28.0076 73.9689 27.6534V6.34673C73.9619 5.99257 74.2489 5.70215 74.6059 5.70215Z" fill="#0C1731"/>
<path d="M94.1089 5.70215H108.6C108.95 5.70215 109.237 5.99257 109.237 6.34673V9.10923C109.237 9.4634 108.95 9.75381 108.6 9.75381H98.5823C98.4073 9.75381 98.2602 9.89548 98.2602 10.0796V14.4076C98.2602 14.5846 98.4003 14.7334 98.5823 14.7334H107.172C107.522 14.7334 107.809 15.0238 107.809 15.378V18.1405C107.809 18.4946 107.522 18.7851 107.172 18.7851H98.5823C98.4073 18.7851 98.2602 18.9267 98.2602 19.1109V23.9346C98.2602 24.1117 98.4003 24.2605 98.5823 24.2605H108.789C109.139 24.2605 109.426 24.5509 109.426 24.9051V27.6676C109.426 28.0217 109.139 28.3121 108.789 28.3121H94.1019C93.7519 28.3121 93.4648 28.0217 93.4648 27.6676V6.34673C93.4648 5.99257 93.7519 5.70215 94.1089 5.70215Z" fill="#0C1731"/>
<path d="M114.86 5.70215H118.668C118.878 5.70215 119.074 5.8084 119.193 5.9784L127.412 17.9067C127.664 18.268 127.895 18.9692 128.462 20.0034C128.497 20.0601 128.567 20.0813 128.623 20.0459C128.658 20.0247 128.679 19.9822 128.679 19.9397L128.588 18.098V6.33965C128.588 5.98548 128.875 5.69507 129.225 5.69507H132.732C133.082 5.69507 133.369 5.98548 133.369 6.33965V27.6463C133.369 28.0005 133.082 28.2909 132.732 28.2909H128.924C128.714 28.2909 128.511 28.1847 128.399 28.0076L120.348 15.9872C119.949 15.4205 119.55 14.7334 119.13 13.9188C119.102 13.8622 119.025 13.8409 118.969 13.8763C118.934 13.8976 118.913 13.9401 118.913 13.9826C118.976 14.8892 119.004 15.5267 119.004 15.888V27.6463C119.004 28.0005 118.717 28.2909 118.367 28.2909H114.86C114.51 28.2909 114.223 28.0005 114.223 27.6463V6.34673C114.223 5.99257 114.51 5.70215 114.86 5.70215Z" fill="#0C1731"/>
<path d="M143.351 9.81757H137.905C137.555 9.81757 137.268 9.52715 137.268 9.17298V6.34673C137.268 5.99257 137.555 5.70215 137.905 5.70215H154.188C154.538 5.70215 154.825 5.99257 154.825 6.34673V9.17298C154.825 9.52715 154.538 9.81757 154.188 9.81757H148.763C148.588 9.81757 148.441 9.95923 148.441 10.1434V27.6534C148.441 28.0076 148.153 28.298 147.803 28.298H144.31C143.96 28.298 143.673 28.0076 143.673 27.6534V10.1434C143.673 9.96632 143.526 9.81757 143.351 9.81757Z" fill="#0C1731"/>
<path d="M158.738 6.34673C158.738 5.99257 159.025 5.70215 159.375 5.70215H167.65C171.059 5.70215 173.692 6.64423 175.547 8.52132C177.402 10.3984 178.333 13.2246 178.333 17.0001C178.333 20.7755 177.402 23.6017 175.547 25.4859C173.692 27.363 171.059 28.3051 167.65 28.3051H159.375C159.025 28.3051 158.738 28.0147 158.738 27.6605V6.34673ZM167.657 24.2463C169.568 24.2463 171.017 23.6584 172.004 22.4826C172.991 21.3067 173.489 19.6421 173.489 17.4888V16.5042C173.489 14.3509 172.991 12.6863 172.004 11.5105C171.017 10.3346 169.568 9.74673 167.657 9.74673H163.849C163.674 9.74673 163.527 9.8884 163.527 10.0726V23.9205C163.527 24.0976 163.667 24.2463 163.849 24.2463H167.657Z" fill="#0C1731"/>
<path d="M188.352 5.70215H193.407C193.673 5.70215 193.904 5.86507 194.002 6.11298L202.227 27.4197C202.388 27.8447 202.08 28.298 201.632 28.298H197.866C197.6 28.298 197.362 28.128 197.271 27.8801L195.906 24.1967C195.857 24.0692 195.738 23.9842 195.605 23.9842H185.888C185.755 23.9842 185.636 24.0692 185.587 24.1967L184.222 27.8801C184.131 28.1351 183.893 28.298 183.627 28.298H180.127C179.679 28.298 179.371 27.8376 179.532 27.4197L187.757 6.11298C187.848 5.86507 188.086 5.70215 188.352 5.70215ZM193.869 19.9963C194.093 19.9963 194.247 19.7697 194.17 19.5571L192.217 14.2588C191.958 13.5646 191.503 12.1055 190.838 9.8884C190.824 9.83882 190.782 9.81048 190.733 9.81048C190.684 9.81048 190.642 9.8459 190.627 9.8884C189.969 12.1055 189.507 13.5646 189.248 14.2588L187.295 19.5571C187.218 19.7697 187.372 19.9963 187.596 19.9963H193.869Z" fill="#0C1731"/>
<path d="M225.064 5.70215H230.118C230.384 5.70215 230.615 5.86507 230.713 6.11298L238.932 27.4197C239.093 27.8447 238.785 28.298 238.337 28.298H234.57C234.304 28.298 234.066 28.128 233.975 27.8801L232.61 24.1967C232.561 24.0692 232.442 23.9842 232.309 23.9842H222.592C222.459 23.9842 222.34 24.0692 222.291 24.1967L220.926 27.8801C220.835 28.1351 220.597 28.298 220.331 28.298H216.824C216.376 28.298 216.068 27.8376 216.229 27.4197L224.455 6.11298C224.56 5.86507 224.798 5.70215 225.064 5.70215ZM230.58 19.9963C230.804 19.9963 230.958 19.7697 230.881 19.5571L228.928 14.2588C228.669 13.5646 228.214 12.1055 227.549 9.8884C227.535 9.83882 227.493 9.81048 227.444 9.81048C227.395 9.81048 227.353 9.8459 227.339 9.8884C226.681 12.1055 226.219 13.5646 225.96 14.2588L224.006 19.5571C223.929 19.7697 224.084 19.9963 224.308 19.9963H230.58Z" fill="#0C1731"/>
<path d="M206.539 9.81757H201.092C200.742 9.81757 200.455 9.52715 200.455 9.17298V6.34673C200.455 5.99257 200.742 5.70215 201.092 5.70215H217.369C217.719 5.70215 218.006 5.99257 218.006 6.34673V9.17298C218.006 9.52715 217.719 9.81757 217.369 9.81757H211.943C211.768 9.81757 211.621 9.95923 211.621 10.1434V27.6534C211.621 28.0076 211.334 28.298 210.984 28.298H207.491C207.141 28.298 206.854 28.0076 206.854 27.6534V10.1434C206.854 9.96632 206.714 9.81757 206.539 9.81757Z" fill="#0C1731"/>
<path d="M28.0023 34H5.60047C2.50621 34 0 31.4642 0 28.3333V5.66667C0 2.53583 2.50621 0 5.60047 0H28.0023C31.0966 0 33.6028 2.53583 33.6028 5.66667V28.3333C33.6028 31.4642 31.0966 34 28.0023 34Z" fill="#0C1731"/>
<path d="M30.4938 16.4332C30.3538 16.4191 30.2068 16.5537 30.0948 16.7803L27.2245 11.737C27.3995 11.3899 27.3435 10.802 27.0425 10.2495C26.9305 10.037 26.7905 9.84574 26.6435 9.69699L26.7695 8.11741C27.1125 8.32282 27.4135 8.38657 27.5535 8.25199C27.6446 8.15991 27.6516 7.99699 27.5885 7.79157C27.0775 7.16824 26.5175 6.58741 25.9084 6.06324C25.7124 5.99949 25.5584 6.00657 25.4674 6.09157C25.3274 6.23324 25.3904 6.55199 25.6004 6.92032L23.6542 6.94157L21.428 4.17907C21.6731 4.14366 21.8411 4.05866 21.8831 3.92407C21.9111 3.81782 21.8621 3.69741 21.7571 3.56991C20.945 3.25824 20.1119 3.01741 19.2719 2.86157C19.1388 2.90407 19.0548 2.97491 19.0268 3.07407C18.9358 3.37866 19.5099 3.81782 20.3009 4.05157C20.4269 4.08699 20.546 4.11532 20.665 4.13657L22.9332 6.94866L20.49 6.97699C20.3149 6.61574 19.9439 6.30407 19.4609 6.16241C19.0128 6.02782 18.5578 6.07032 18.2218 6.24741L16.6396 5.08574C16.8286 4.95116 16.9477 4.78116 16.9547 4.58991C16.9687 4.12241 16.3106 3.73282 15.4845 3.71157C14.9735 3.69741 14.5185 3.83199 14.2454 4.04449L13.2163 3.81074C13.4124 3.63366 13.5034 3.45657 13.4544 3.31491C13.4194 3.20866 13.3074 3.13782 13.1463 3.10241C12.7403 3.20866 12.3343 3.33616 11.9352 3.48491C11.8302 3.52741 11.7252 3.56282 11.6202 3.60532C11.5292 3.64074 11.4382 3.67616 11.3542 3.71157C11.3402 3.71866 11.3262 3.71866 11.3122 3.72574C8.07091 5.09991 5.4877 7.60741 3.99657 10.8445C3.92657 10.9932 3.86356 11.142 3.80056 11.2907C3.80056 11.2907 3.80056 11.2907 3.80056 11.2978C2.40044 14.627 2.29543 18.3103 3.52753 21.7316C4.75964 25.1528 7.17484 27.9082 10.3671 29.5445C10.3671 29.5445 10.3671 29.5445 10.3741 29.5445C10.5141 29.6153 10.6611 29.6862 10.8081 29.757C13.0763 30.8266 15.5335 31.2587 17.9627 31.0391C17.9977 31.0462 18.0397 31.0391 18.0748 31.032C19.2509 30.9187 20.4199 30.6495 21.561 30.2316C23.9412 29.3532 25.9924 27.887 27.5745 25.9532C28.1206 25.2874 28.6106 24.5649 29.0307 23.7928C29.0377 23.6228 28.9957 23.5024 28.9047 23.4387C28.6456 23.2616 28.0576 23.6795 27.6025 24.3737C27.5255 24.487 27.4625 24.6003 27.3995 24.7137L25.9714 25.4574C25.9084 25.4007 25.8314 25.3582 25.7404 25.3299L28.1206 21.1012C28.1346 21.1082 28.1486 21.1153 28.1626 21.1153C28.6526 21.2641 29.2407 20.7399 29.4787 19.9395C29.5627 19.6632 29.5907 19.387 29.5767 19.1391L29.8777 18.8557C29.9547 19.2028 30.0948 19.4295 30.2768 19.4437C30.4028 19.4507 30.5288 19.3516 30.6338 19.1816C30.7668 18.3812 30.8298 17.5737 30.8228 16.7662C30.7318 16.5607 30.6268 16.4403 30.4938 16.4332ZM26.0274 7.48699C26.0484 7.51532 26.0764 7.53657 26.0974 7.56491C26.1394 7.60741 26.1814 7.64991 26.2234 7.68532L26.0974 9.3074C25.9084 9.23657 25.7264 9.23657 25.5794 9.31449L24.1163 7.50116L26.0274 7.48699ZM23.3882 7.52241L25.2644 9.84574C25.2083 10.1857 25.2924 10.6391 25.5234 11.0712C25.5444 11.1137 25.5654 11.1491 25.5934 11.1916L22.2051 16.3624L17.0247 13.9399C17.0947 13.6566 17.0807 13.3591 16.9757 13.0687C16.8847 12.8207 16.7376 12.6082 16.5486 12.4453L18.8308 8.40782C19.6149 8.63449 20.3919 8.32282 20.567 7.70657C20.581 7.65699 20.588 7.60741 20.595 7.55782L23.3882 7.52241ZM27.6166 20.1732C25.7754 21.7599 23.4582 23.1695 20.91 24.2532C20.742 24.0832 20.49 23.9841 20.2029 23.9557L20.966 20.407C21.106 20.3999 21.253 20.3716 21.393 20.3149C22.1701 20.0316 22.5691 19.1603 22.2821 18.3812C22.2051 18.1616 22.0791 17.9774 21.9251 17.8216L22.4011 17.0991L27.6656 19.557C27.6166 19.7695 27.6025 19.982 27.6166 20.1732ZM18.2988 8.16699L16.0446 12.1549C15.8206 12.077 15.5755 12.0557 15.3375 12.0912L14.1684 8.84699C15.4075 8.40074 16.6606 8.04657 17.8997 7.78449C18.0047 7.92616 18.1378 8.06074 18.2988 8.16699ZM21.456 17.4957C21.12 17.3541 20.742 17.3399 20.3779 17.4745C19.7059 17.7224 19.3139 18.4166 19.4119 19.1037L13.0693 21.3349C12.9853 21.1932 12.8803 21.0657 12.7683 20.9666L15.2605 15.0662C15.5265 15.1228 15.8066 15.1087 16.0796 15.0095C16.3736 14.9032 16.6116 14.712 16.7796 14.4782L21.8831 16.8582L21.456 17.4957ZM11.7042 20.5628C11.4872 20.0316 11.2772 19.4932 11.0812 18.9407C10.7451 17.9987 10.4441 17.0637 10.1851 16.1287C11.4662 15.5266 12.8523 14.9387 14.3014 14.372C14.4134 14.5562 14.5605 14.712 14.7355 14.8253L12.2783 20.6407C12.0822 20.577 11.8862 20.5487 11.7042 20.5628ZM14.7985 12.2895C14.2734 12.6082 13.9934 13.2245 14.0984 13.8337C12.6703 14.3932 11.3052 14.9741 10.0311 15.5691C9.63204 14.0603 9.33802 12.587 9.156 11.1916C10.5281 10.377 12.0332 9.65449 13.6294 9.04532L14.7985 12.2895ZM10.5421 19.1462C10.7381 19.6987 10.9482 20.237 11.1652 20.7682C10.7871 21.0445 10.6191 21.5474 10.7031 22.0645C9.51303 22.3549 8.39294 22.5816 7.37086 22.7445C7.04883 22.0645 6.7548 21.3632 6.49578 20.6337C6.23676 19.9112 6.01274 19.1745 5.82373 18.4449C6.93682 17.7649 8.22493 17.0707 9.65305 16.3837C9.91207 17.2974 10.2061 18.2253 10.5421 19.1462ZM10.8922 22.6099C10.8992 22.6241 10.9062 22.6382 10.9202 22.6595C11.2562 23.2332 11.8442 23.5307 12.3763 23.4528C12.8663 24.4374 13.3844 25.3724 13.9164 26.2366C12.4113 26.4562 10.9552 26.527 9.59704 26.442C8.86898 25.4787 8.21793 24.4232 7.64388 23.2899C8.63796 23.127 9.73005 22.9003 10.8922 22.6099ZM12.8943 23.2191C13.2583 22.9145 13.3984 22.3974 13.2793 21.8732L19.5939 19.6562C19.7759 19.9749 20.0629 20.2087 20.3989 20.322L19.6009 23.9982C19.5099 24.0195 19.4259 24.0407 19.3349 24.0762C18.7118 24.3028 18.2918 24.7774 18.2428 25.2307C16.9897 25.6274 15.7436 25.932 14.5255 26.1374C13.9584 25.2378 13.4124 24.2532 12.8943 23.2191ZM18.4178 25.7832C18.6838 26.0949 19.2018 26.2224 19.7619 26.0949L20.497 28.142C19.2508 28.5812 17.9837 28.8928 16.7096 29.0841C16.0866 28.3757 15.4705 27.5612 14.8685 26.6616C16.0376 26.4562 17.2277 26.1657 18.4178 25.7832ZM17.7877 6.65116C17.7527 6.71491 17.7177 6.78574 17.6967 6.85657C17.6617 6.98407 17.6547 7.11157 17.6687 7.23907C16.4366 7.50116 15.1975 7.85532 13.9654 8.29449L12.9853 5.56741C13.4544 5.40449 13.9234 5.25574 14.3994 5.12116C14.6655 5.27699 15.0295 5.37616 15.4285 5.38324C15.6315 5.39032 15.8276 5.36907 16.0026 5.33366L17.7877 6.65116ZM13.9654 4.57574C13.9654 4.59699 13.9724 4.62532 13.9794 4.64657C13.5804 4.75991 13.1883 4.88741 12.7893 5.02907L12.5093 4.24991L13.9654 4.57574ZM9.128 5.58866C9.70205 5.19199 10.3181 4.83782 10.9552 4.53324C11.2072 4.58282 11.5712 4.55449 11.9702 4.44116L12.2503 5.22741C11.1092 5.66657 10.0101 6.19782 8.98099 6.81407C9.01599 6.38199 9.065 5.97824 9.128 5.58866ZM8.95299 7.50824C10.0451 6.82824 11.2212 6.24032 12.4533 5.77282L13.4334 8.49991C11.8862 9.08782 10.4231 9.78199 9.086 10.5612C8.96699 9.48449 8.91798 8.45741 8.95299 7.50824ZM9.49903 15.817C8.08492 16.4899 6.80381 17.177 5.68371 17.8499C5.40369 16.6103 5.23568 15.3778 5.17967 14.1666C6.16675 13.2174 7.32885 12.3249 8.61696 11.5174C8.81298 12.8987 9.107 14.3437 9.49903 15.817ZM5.63471 9.10907C6.42578 7.94032 7.38486 6.92032 8.48395 6.06324C8.44195 6.42449 8.41394 6.79282 8.39294 7.18241C7.37786 7.83407 6.43278 8.56366 5.57871 9.36407C5.59271 9.27907 5.61371 9.19407 5.63471 9.10907ZM5.38269 10.3557C6.26476 9.44907 7.27285 8.62032 8.37194 7.88366C8.36494 8.82574 8.42094 9.83157 8.54695 10.887C7.29385 11.6591 6.15975 12.502 5.16567 13.4016C5.15167 12.3603 5.22168 11.3403 5.38269 10.3557ZM4.3046 11.5741C4.43061 11.4112 4.56362 11.2553 4.69663 11.0995C4.59162 12.0203 4.55662 12.9695 4.59162 13.9328C4.12958 14.3862 3.70955 14.8466 3.33152 15.3212C3.47853 14.0462 3.80056 12.7853 4.3046 11.5741ZM3.47853 19.3445C3.29651 18.3599 3.22651 17.3682 3.25451 16.3837C3.65354 15.817 4.11558 15.2574 4.63363 14.7191C4.71763 15.8595 4.89265 17.0212 5.16567 18.1757C4.53562 18.5724 3.96857 18.962 3.47853 19.3445ZM4.06658 21.5262C3.88456 21.0162 3.73055 20.492 3.60454 19.9678C4.09458 19.5782 4.66863 19.1745 5.31268 18.7566C5.4947 19.4507 5.70472 20.1378 5.94974 20.8249C6.19476 21.512 6.46778 22.1778 6.76881 22.8224C6.00574 22.9287 5.30568 22.9924 4.69663 23.0137C4.46561 22.5391 4.24859 22.0432 4.06658 21.5262ZM6.7128 26.0028C6.06175 25.2662 5.4877 24.4587 4.99766 23.5945C5.61371 23.5662 6.29977 23.4953 7.03483 23.3891C7.56687 24.4516 8.16192 25.4574 8.82698 26.3853C8.09192 26.3003 7.38486 26.1728 6.7128 26.0028ZM10.5771 28.9991C9.42203 28.397 8.37194 27.6462 7.44786 26.7607C8.04291 26.8741 8.65896 26.952 9.29602 27.0016C9.88407 27.7595 10.5141 28.4678 11.1792 29.1053C10.9762 29.077 10.7731 29.0416 10.5771 28.9991ZM10.0661 27.0441C11.3962 27.0866 12.8033 26.9945 14.2524 26.7678C14.8265 27.6532 15.4215 28.4678 16.0306 29.1832C14.7215 29.332 13.4264 29.3532 12.1733 29.2328C11.4242 28.5812 10.7171 27.8445 10.0661 27.0441ZM13.1533 30.0191C13.0833 29.9695 13.0203 29.9199 12.9503 29.8632C14.1124 29.9199 15.2955 29.8632 16.4926 29.7003C16.7516 29.9837 17.0107 30.2528 17.2697 30.4937C15.8906 30.5645 14.5045 30.4016 13.1533 30.0191ZM18.0748 30.4512C17.7807 30.1962 17.4797 29.9128 17.1857 29.6082C18.3688 29.4099 19.5449 29.1053 20.693 28.6945L21.085 29.7853C20.0979 30.1253 19.0898 30.3449 18.0748 30.4512ZM27.1265 25.5849C25.6704 27.3699 23.8012 28.737 21.6311 29.587L21.239 28.4962C22.1001 28.1632 22.9332 27.7807 23.7312 27.3557C24.0743 27.5399 24.6833 27.4407 25.2434 27.0795C25.6984 26.7891 26.0134 26.3924 26.1044 26.0453L27.1335 25.5141C27.1265 25.5353 27.1265 25.5566 27.1265 25.5849ZM25.0683 25.337C24.8373 25.3937 24.5853 25.4999 24.3473 25.6557C23.8222 25.9957 23.4862 26.4632 23.4582 26.8387C22.6811 27.2566 21.8761 27.6249 21.036 27.9507L20.3009 25.9037C20.805 25.6345 21.127 25.1953 21.134 24.7845C23.5142 23.7716 25.7054 22.4824 27.5045 21.0162L25.0683 25.337ZM29.0307 18.2253C28.6246 18.0978 28.1556 18.4378 27.8686 19.0116L22.7301 16.6103L25.9644 11.6732C26.2164 11.9212 26.4965 12.0557 26.7415 12.0557L29.8567 17.5382C29.8357 17.6516 29.8217 17.7791 29.8147 17.8995C29.8077 17.9774 29.8077 18.0553 29.8077 18.1262L29.3947 18.5228C29.2967 18.3741 29.1777 18.2678 29.0307 18.2253Z" fill="url(#paint0_linear_5301_8418)"/>
</g>
<defs>
<linearGradient id="paint0_linear_5301_8418" x1="3.52792" y1="21.7271" x2="29.2703" y2="12.4671" gradientUnits="userSpaceOnUse">
<stop stop-color="#8C78FF"/>
<stop offset="0.8" stop-color="white"/>
</linearGradient>
<clipPath id="clip0_5301_8418">
<rect width="239" height="34" fill="white"/>
</clipPath>
</defs>
</svg>
