<svg width="115" height="32" viewBox="0 0 115 32" fill="none" xmlns="http://www.w3.org/2000/svg">
<path d="M30.9085 7.02148V25.5744H27.1406V7.02148H30.9085Z" fill="white"/>
<path d="M46.2832 13.066V25.6159C46.2832 29.5114 43.2636 31.9061 39.5677 31.9061C35.8719 31.9061 33.3429 29.6864 33.0872 26.5498L36.8437 26.5707C36.9971 27.9079 38.164 28.4823 39.7003 28.4823C41.1533 28.4823 42.5059 27.7006 42.5059 25.6654V24.0619C41.5435 24.6896 40.316 25.0586 38.9426 25.0586C35.5025 25.0586 32.75 22.2625 32.75 19.0461C32.75 15.3047 35.5138 12.7959 38.9426 12.7959C40.3255 12.7959 41.5435 13.1668 42.5059 13.7926V13.1135L46.2832 13.0622V13.066ZM42.5153 20.4575V17.4046C41.7481 16.2843 40.6835 15.9134 39.6284 15.9134C37.7757 15.9134 36.4857 17.1574 36.4857 19.048C36.4857 20.4365 37.7757 21.9563 39.6284 21.9563C40.6835 21.9468 41.7481 21.5664 42.5153 20.4556V20.4575Z" fill="white"/>
<path d="M61.312 19.1724C61.312 23.0374 58.4667 25.7916 54.6477 25.7916C50.8287 25.7916 47.9531 23.0374 47.9531 19.1724C47.9531 15.3074 50.7984 12.5322 54.6477 12.5322C58.497 12.5322 61.312 15.3378 61.312 19.1724ZM57.6787 19.1724C57.6787 17.3521 56.4909 15.8837 54.6477 15.8837C52.8045 15.8837 51.5978 17.354 51.5978 19.1724C51.5978 20.9908 52.7856 22.4402 54.6477 22.4402C56.4796 22.4306 57.6787 21.0421 57.6787 19.1724Z" fill="white"/>
<path d="M84.7017 13.0848V25.5529L81.0059 25.5738V24.8643C80.0435 25.492 78.816 25.8819 77.4426 25.8819C74.0025 25.8819 71.25 22.9527 71.25 19.3445C71.25 15.7363 74.0138 12.7861 77.4426 12.7861C78.8255 12.7861 80.0435 13.1761 81.0059 13.8037V13.0943L84.7017 13.0848ZM81.0059 21.2561V17.4329C80.2273 16.3221 79.1418 16.014 78.0583 16.014C76.1639 16.014 74.8549 17.5356 74.8549 19.354C74.8549 21.1724 76.1658 22.675 78.0583 22.675C79.1437 22.6655 80.2292 22.3669 81.0059 21.2561Z" fill="white"/>
<path d="M99.8945 18.8008V25.5741H96.2611V19.2421C96.2611 17.2069 95.2476 16.1284 93.4461 16.1284C92.5046 16.1284 91.4703 16.6724 90.58 17.7223V25.576H86.8633V13.106H90.58V14.0513C91.5935 13.2391 92.7698 12.7979 94.1735 12.7979C97.4905 12.7979 99.8964 15.1412 99.8964 18.8008H99.8945Z" fill="white"/>
<path d="M25.4208 25.5648H21.581L19.0824 16.2427L13.7081 25.5648H9.41932L17.7109 11.1337L16.381 6.11794L5.19114 25.5743H0.902344L15.0796 0.90625H18.838L20.4861 7.03284H24.3657L21.7136 11.6568L25.4208 25.5648Z" fill="white"/>
<path d="M114.903 7.02118V25.574H111.135V24.8646C110.172 25.4923 108.945 25.8822 107.572 25.8822C104.131 25.8822 101.379 22.953 101.379 19.3238C101.379 15.6947 104.143 12.7864 107.572 12.7864C108.954 12.7864 110.172 13.1763 111.135 13.804V7.00977L114.903 7.01928V7.02118ZM111.135 21.2677V17.4122C110.347 16.2919 109.252 15.9838 108.166 15.9838C106.263 15.9838 104.942 17.5149 104.942 19.3238C104.942 21.1327 106.263 22.6962 108.166 22.6962C109.252 22.6962 110.347 22.3881 111.135 21.2677Z" fill="white"/>
<path d="M70.5751 16.2524C69.7568 16.3551 67.8321 16.4483 66.705 18.0099V25.5859H62.9883V13.1273H66.705V14.0631C67.5555 13.3327 68.8342 12.9009 70.5751 13.0759" fill="white"/>
</svg>
