<svg width="98" height="27" viewBox="0 0 98 27" fill="none" xmlns="http://www.w3.org/2000/svg">
<path d="M5.51977 12.102C6.87904 12.102 7.98095 11.0001 7.98095 9.64087C7.98095 8.2816 6.87904 7.17969 5.51977 7.17969C4.1605 7.17969 3.05859 8.2816 3.05859 9.64087C3.05859 11.0001 4.1605 12.102 5.51977 12.102Z" fill="white"/>
<path d="M5.52016 25.9681C8.42001 25.9681 10.7708 23.6173 10.7708 20.7174C10.7708 17.8176 8.42001 15.4668 5.52016 15.4668C2.6203 15.4668 0.269531 17.8176 0.269531 20.7174C0.269531 23.6173 2.6203 25.9681 5.52016 25.9681Z" fill="white"/>
<path d="M16.9153 22.4997V12.9176C16.9153 8.09871 13.0235 7.51376 12.0685 7.35857C11.1334 7.22526 9.48596 7.15761 8.44141 7.18149C8.44141 7.18149 11.7362 8.01714 11.7362 10.6932V21.3855C11.7362 26.0114 18.6084 26.0333 19.653 26.0114L20.0589 25.4105C19.0561 25.4324 16.9153 25.4205 16.9153 22.4977V22.4997Z" fill="white"/>
<path d="M29.5117 7.17777C23.5686 7.17777 19.8281 11.3858 19.8281 16.5052C19.8281 21.6245 23.4353 25.946 29.4918 25.9659C35.4348 25.9659 39.1753 21.7817 39.1753 16.6584C39.1753 11.5351 35.5681 7.17578 29.5117 7.17578V7.17777ZM30.9144 25.2795C28.6223 25.2795 27.1957 22.3408 25.994 17.7984C25.3474 15.3731 24.9912 13.5008 24.9912 12.1877C24.9912 8.75953 26.5491 7.8244 28.0413 7.8244C30.3334 7.8244 31.8037 10.785 33.0055 15.2835C33.674 17.7089 33.9844 19.6249 33.9844 20.9401C33.9844 24.3463 32.4265 25.3033 30.9124 25.2815L30.9144 25.2795Z" fill="white"/>
<path d="M52.5052 7.86452C50.7762 7.86452 49.1566 9.26921 48.0325 12.4666V7.58398L40.5156 10.8032V10.9325L42.9569 12.6178V24.9316H40.5156V25.5802H50.5235V24.9316H48.0563V14.0443C48.0563 13.2445 48.9417 12.2517 49.1148 12.0786L53.0901 13.6981C54.1267 13.4813 55.0778 12.3591 55.0778 10.6082C55.0778 8.96678 54.0392 7.86651 52.5072 7.86651L52.5052 7.86452Z" fill="white"/>
<path d="M64.0622 6.57324C62.3412 8.85734 56.806 9.04636 56.806 9.04636C56.806 9.04636 58.3619 9.884 58.3619 11.5851C58.3619 11.989 58.4117 24.9416 58.4117 24.9416H56.3086V25.5802H66.2727V24.9416H64.0622V6.57324Z" fill="white"/>
<path d="M75.6394 13.3282C72.6609 12.2398 71.7158 11.6569 71.7158 10.0592C71.7158 8.78781 72.6231 8.11531 74.1133 8.11531C76.475 8.11531 81.2123 13.742 81.2123 13.742L80.8502 7.5801C79.4734 7.5801 76.1109 7.25977 74.0059 7.25977C70.6275 7.25977 67.9037 9.54785 67.9037 12.9621C67.9037 16.3763 69.7918 18.0834 73.787 19.5358C76.2581 20.4073 77.5295 21.0261 77.5295 22.769C77.5295 24.3666 76.4412 25.1585 74.7699 25.1585C72.0441 25.1585 67.832 19.1379 67.832 19.1379L68.1941 25.3117C69.0039 25.3117 72.5893 25.9683 74.8773 25.9683C78.8367 25.9683 81.7058 23.6066 81.7058 19.9019C81.7058 16.5235 79.8176 14.8542 75.6394 13.3262V13.3282Z" fill="white"/>
<path d="M97.229 22.5316L96.8927 22.0521L96.6699 22.2431C96.6699 22.2431 95.2016 23.4667 93.574 23.4966C92.4797 23.5165 92.0221 23.1802 91.8351 22.5336C91.7555 22.3645 91.7117 22.1277 91.7117 21.7915V9.22095H96.0014L96.7435 7.15173H91.7117V0.798828C91.7117 0.798828 89.0357 6.81548 83.8984 7.62527V9.21896H85.5339V21.5209C85.5339 23.033 86.1805 24.1094 87.1236 24.8913H87.1177C87.1316 24.9052 87.1515 24.9172 87.1654 24.9271C88.399 25.8742 92.1435 26.7019 95.4602 24.2328C96.071 23.7791 96.6659 23.228 97.227 22.5316H97.229Z" fill="white"/>
</svg>
