<svg width="200" height="100" viewBox="0 0 200 100" fill="none" xmlns="http://www.w3.org/2000/svg">
<path d="M27.5064 28.1724L25.9646 28.378L26.1702 34.2367L24.0803 35.1618C19.3522 37.3545 15.5491 42.4252 14.7269 47.7014C13.4249 56.2325 19.3864 64.5238 27.9518 65.9971L30.1788 66.3739L30.4186 68.6009C30.7612 72.1984 30.727 72.1641 32.7484 71.89C35.9005 71.4789 35.8319 71.5474 35.5921 69.3889C35.4551 68.2926 35.2837 67.0592 35.181 66.5795C35.0439 65.8257 35.181 65.6544 36.3116 65.2433C39.8063 64.0442 43.438 60.7208 45.1511 57.1576C47.104 53.1147 47.3095 53.5944 42.3416 51.3332C39.909 50.2368 37.8534 49.2432 37.7163 49.1404C37.5793 49.0376 39.1553 47.5644 41.211 45.8856C43.3009 44.241 44.9797 42.6993 44.9797 42.4594C44.9797 41.7399 43.575 39.787 41.8619 38.1082C39.8405 36.1211 36.6885 34.545 33.5707 33.9626L31.3094 33.5515L31.1039 31.9754C30.5899 27.7613 30.5899 27.7613 27.5064 28.1724ZM32.1317 46.1597C36.5857 48.2154 37.2709 48.7293 36.9626 49.6543C36.6885 50.3738 29.8019 55.9585 28.9111 56.1983C27.9175 56.4724 27.6092 55.6158 26.9925 50.6822C26.3758 45.5772 26.4786 44.3096 27.4721 44.3096C27.8148 44.3096 29.9047 45.1318 32.1317 46.1597Z" fill="white"/>
<path d="M173.803 32.4894C173.563 32.7634 173.049 34.3395 172.638 35.984C171.816 39.2389 172.124 38.9305 168.903 39.65C167.978 39.8556 167.944 39.9241 168.047 41.8427L168.15 43.7956L171.37 44.0012L171.473 51.6072C171.576 58.8022 171.61 59.2818 172.364 60.5837C172.809 61.3375 173.7 62.3653 174.385 62.8107C175.516 63.5645 175.996 63.6673 178.908 63.6673C181.546 63.6673 182.505 63.5302 183.841 62.9135C184.732 62.5024 185.452 61.9885 185.452 61.8172C185.452 61.6116 184.904 60.5837 184.218 59.5216C183.293 58.0827 182.848 57.6715 182.437 57.8428C180.998 58.391 180.073 58.391 179.525 57.8428C179.011 57.3632 178.942 56.3696 178.942 50.6137V43.9669H185.109V39.1703H178.942V31.9754H176.578C174.933 31.9754 174.111 32.1125 173.803 32.4894Z" fill="white"/>
<path d="M91.0614 38.999C90.2734 39.2731 89.0742 40.1297 88.252 41.0547L86.813 42.6307L86.6074 41.6714C86.0592 39.2046 86.025 39.1703 82.8387 39.1703H79.9264V63.496H87.464V48.0783L88.6288 46.7764C89.7937 45.543 89.8623 45.5087 92.2263 45.5772C93.6995 45.6115 94.7274 45.4744 94.933 45.2346C95.1385 44.9948 95.3784 43.5558 95.5154 42.0483L95.7552 39.2731L94.6246 38.862C93.2541 38.3823 92.7745 38.4166 91.0614 38.999Z" fill="white"/>
<path d="M109.186 39.1361C108.432 39.4787 107.233 40.4038 106.548 41.226L105.314 42.665L105.109 41.7057C104.56 39.1703 104.526 39.1703 101.34 39.1703H98.4276V63.496H105.965V48.0783L107.13 46.7764C108.295 45.543 108.363 45.5087 110.727 45.5087C112.029 45.5087 113.263 45.3374 113.434 45.1661C113.64 44.9605 113.88 43.5558 114.017 42.0483L114.256 39.2731L113.126 38.862C111.618 38.3481 110.83 38.3823 109.186 39.1361Z" fill="white"/>
<path d="M122.822 39.4444C119.498 40.6436 116.655 43.6243 115.695 46.9477C114.873 49.8256 115.147 54.5195 116.312 57.0206C117.443 59.4874 119.533 61.6116 122.034 62.7765C123.781 63.5988 124.329 63.6673 128.064 63.6673C132.758 63.6673 134.882 63.0163 137.28 60.9949L138.651 59.83L137.314 58.254C135.704 56.3353 134.882 56.2325 132.312 57.5345C130.257 58.5623 127.207 58.7336 125.563 57.8771C124.158 57.1576 123.062 55.5473 122.856 53.9028L122.65 52.5323H130.394C135.773 52.5323 138.205 52.4295 138.376 52.1554C138.514 51.9499 138.616 50.7507 138.582 49.483C138.548 45.1318 136.287 41.3631 132.758 39.7528C130.462 38.7249 125.323 38.5536 122.822 39.4444ZM129.434 44.104C130.702 44.6522 132.004 46.4338 132.004 47.6329C132.004 48.4209 131.935 48.4209 127.379 48.4209C123.096 48.4209 122.753 48.3867 122.753 47.77C122.753 46.7764 124.226 44.8577 125.494 44.241C126.967 43.4873 127.892 43.4873 129.434 44.104Z" fill="white"/>
<path d="M153.143 39.3074C152.458 39.5815 151.362 40.1639 150.711 40.6778C149.306 41.7399 149.135 41.7742 149.135 40.9519C149.135 39.65 148.038 39.1703 145.263 39.1703H142.625V63.496H149.82V46.0569L151.293 45.1661C152.252 44.6179 153.314 44.3096 154.205 44.3096C157.597 44.3096 157.7 44.6864 157.7 55.1019V63.496H165.272L165.169 54.1426C165.032 44.2068 165.032 44.0697 163.182 41.6029C161.4 39.1703 156.604 38.074 153.143 39.3074Z" fill="white"/>
<path d="M51.832 46.6051C51.832 56.8835 52.346 59.5216 54.8128 61.8514C57.6907 64.5923 63.755 64.5238 66.8728 61.6801C67.3182 61.269 67.7294 61.0634 67.8321 61.269C68.5859 63.2561 68.6544 63.3247 71.8065 63.4274L74.7872 63.5302V39.1703H67.2497V56.6094L66.1533 57.3632C65.4338 57.8771 64.4403 58.1854 63.1726 58.2882C61.4595 58.4253 61.1511 58.3225 60.3974 57.5002L59.5409 56.5752L59.3353 39.1703H51.832V46.6051Z" fill="white"/>
</svg>
