<svg width="200" height="100" viewBox="0 0 200 100" fill="none" xmlns="http://www.w3.org/2000/svg">
<path d="M79.1431 41.3145C79.0561 38.9125 79.0977 36.5028 79.1204 34.1008C92.8746 34.1426 106.625 34.1084 120.379 34.116C120.379 36.5104 120.379 38.8973 120.379 41.2879C106.633 41.3031 92.8859 41.2575 79.1431 41.3145ZM97.7856 11.0076H101.219C101.245 12.182 101.245 13.3488 101.237 14.5233C102.387 14.5233 103.536 14.5233 104.685 14.5157C104.693 15.6673 104.693 16.8189 104.659 17.9667C103.521 17.9667 102.379 17.9743 101.241 17.9667C101.241 19.0993 101.241 20.2319 101.249 21.3684C100.118 21.4406 98.9842 21.4254 97.8537 21.414C97.8462 20.2623 97.8462 19.1107 97.8424 17.9553C96.6931 17.9705 95.5437 17.9629 94.3944 17.9667C94.3755 16.8189 94.3793 15.6673 94.3755 14.5195C95.5324 14.5195 96.6893 14.5119 97.8424 14.5195C97.8159 13.345 97.9217 12.1668 97.7856 11V11.0076ZM126.337 26.6019C126.337 29.9238 123.661 32.6147 120.356 32.6147C117.052 32.6147 114.375 29.9238 114.375 26.6019C114.375 23.2801 117.052 20.5892 120.356 20.5892C123.661 20.5892 126.337 23.2801 126.337 26.6019ZM112.591 26.6019C112.591 29.9238 109.914 32.6147 106.61 32.6147C103.306 32.6147 100.629 29.9238 100.629 26.6019C100.629 23.2801 103.306 20.5892 106.61 20.5892C109.914 20.5892 112.591 23.2801 112.591 26.6019ZM98.8442 26.6019C98.8442 29.9238 96.1676 32.6147 92.8632 32.6147C89.5589 32.6147 86.8822 29.9238 86.8822 26.6019C86.8822 23.2801 89.5589 20.5892 92.8632 20.5892C96.1676 20.5892 98.8442 23.2801 98.8442 26.6019ZM85.0977 26.6019C85.0977 29.9238 82.4209 32.6147 79.1166 32.6147C75.8123 32.6147 73.1355 29.9238 73.1355 26.6019C73.1355 23.2801 75.8123 20.5892 79.1166 20.5892C82.4209 20.5892 85.0977 23.2801 85.0977 26.6019Z" fill="white"/>
<path d="M109.631 47.4033C115.347 47.3843 121.068 47.4413 126.784 47.3767C128.587 52.31 130.168 57.327 131.873 62.2983C132.013 62.0741 132.213 61.8878 132.285 61.6256C133.914 56.8823 135.582 52.1504 137.226 47.4071C142.977 47.3995 148.723 47.3995 154.474 47.4071V74.9699C150.954 75.0155 147.434 74.9851 143.914 74.9851C143.907 68.6379 143.945 62.2907 143.895 55.9435C143.404 56.221 143.355 56.8443 143.143 57.3156C141.102 63.2105 139.003 69.0864 136.962 74.9851C133.654 74.9851 130.342 75.0307 127.034 74.9623C124.958 68.9344 122.814 62.9368 120.72 56.9165C120.644 56.5782 120.459 56.335 120.164 56.1792C120.156 62.4503 120.164 68.7215 120.164 74.9965C116.652 74.9965 113.14 74.9965 109.627 74.9965C109.635 65.8026 109.627 56.6048 109.627 47.4071L109.631 47.4033ZM45 47.4033C48.4707 47.4033 51.9452 47.4033 55.4196 47.4033C55.4272 50.7441 55.4121 54.085 55.4196 57.4258C58.8638 54.1116 62.2286 50.7175 65.6728 47.4033C69.1737 47.3957 72.6747 47.3957 76.1718 47.4033C72.1378 51.5271 67.9942 55.5406 63.9904 59.691C69.0339 64.6091 73.9072 69.7097 78.996 74.5746C79.0414 65.5175 79.0036 56.4604 79.0149 47.3995C82.565 47.3919 86.115 47.3919 89.6651 47.3995C89.6651 54.2712 89.6575 61.1391 89.6651 68.0108C95.3361 67.9956 101.003 68.0298 106.671 67.9918C106.75 70.3216 106.682 72.6553 106.709 74.9851C92.9279 74.9851 79.1435 74.9965 65.3629 74.9775C62.1039 71.6595 58.7996 68.3871 55.5255 65.0842C55.4801 68.3871 55.533 71.6899 55.499 74.9965C51.9981 74.9699 48.4971 74.9965 45 74.9813V47.4033Z" fill="white"/>
</svg>
