<svg width="66" height="39" viewBox="0 0 66 39" fill="none" xmlns="http://www.w3.org/2000/svg">
<path d="M20.4186 18.4055C20.3669 16.9793 20.3916 15.5485 20.4051 14.1223C28.5716 14.1472 36.7359 14.1268 44.9025 14.1314C44.9025 15.5531 44.9025 16.9703 44.9025 18.3897C36.7404 18.3987 28.5784 18.3716 20.4186 18.4055ZM31.4876 0.410763H33.5258C33.5416 1.10808 33.5416 1.80088 33.5371 2.49819C34.2195 2.49819 34.9019 2.49819 35.5843 2.49368C35.5888 3.17745 35.5888 3.86122 35.5686 4.54274C34.8929 4.54274 34.215 4.54725 33.5393 4.54274C33.5393 5.21523 33.5393 5.88772 33.5438 6.56246C32.8726 6.60534 32.1992 6.59631 31.528 6.58954C31.5235 5.90577 31.5235 5.222 31.5213 4.53597C30.8388 4.54499 30.1564 4.54048 29.474 4.54274C29.4628 3.86122 29.4651 3.17745 29.4628 2.49593C30.1497 2.49593 30.8366 2.49142 31.5213 2.49593C31.5055 1.79862 31.5684 1.09905 31.4876 0.40625V0.410763ZM48.4402 9.6699C48.4402 11.6422 46.8509 13.24 44.889 13.24C42.927 13.24 41.3377 11.6422 41.3377 9.6699C41.3377 7.69757 42.927 6.09984 44.889 6.09984C46.8509 6.09984 48.4402 7.69757 48.4402 9.6699ZM40.2782 9.6699C40.2782 11.6422 38.6889 13.24 36.727 13.24C34.765 13.24 33.1756 11.6422 33.1756 9.6699C33.1756 7.69757 34.765 6.09984 36.727 6.09984C38.6889 6.09984 40.2782 7.69757 40.2782 9.6699ZM32.1161 9.6699C32.1161 11.6422 30.5268 13.24 28.5649 13.24C26.603 13.24 25.0136 11.6422 25.0136 9.6699C25.0136 7.69757 26.603 6.09984 28.5649 6.09984C30.5268 6.09984 32.1161 7.69757 32.1161 9.6699ZM23.9541 9.6699C23.9541 11.6422 22.3648 13.24 20.4028 13.24C18.4409 13.24 16.8516 11.6422 16.8516 9.6699C16.8516 7.69757 18.4409 6.09984 20.4028 6.09984C22.3648 6.09984 23.9541 7.69757 23.9541 9.6699Z" fill="white"/>
<path d="M38.5191 22.0207C41.9133 22.0094 45.3097 22.0432 48.7038 22.0049C49.7745 24.934 50.7128 27.9129 51.7252 30.8646C51.8083 30.7314 51.9272 30.6209 51.9699 30.4652C52.9374 27.6488 53.9274 24.8393 54.9039 22.0229C58.3182 22.0184 61.7302 22.0184 65.1445 22.0229V38.3883C63.0546 38.4154 60.9648 38.3974 58.8749 38.3974C58.8704 34.6287 58.8928 30.8601 58.8636 27.0914C58.5718 27.2562 58.5427 27.6263 58.417 27.9061C57.2048 31.4062 55.9589 34.895 54.7467 38.3974C52.7825 38.3974 50.8162 38.4245 48.852 38.3838C47.6196 34.8047 46.3467 31.2437 45.1031 27.6691C45.0582 27.4683 44.9482 27.3239 44.7731 27.2313C44.7686 30.9549 44.7731 34.6784 44.7731 38.4041C42.6877 38.4041 40.6024 38.4041 38.517 38.4041C38.5214 32.9452 38.517 27.4841 38.517 22.0229L38.5191 22.0207ZM0.144531 22.0207C2.20525 22.0207 4.26822 22.0207 6.33118 22.0207C6.33567 24.0043 6.32669 25.9879 6.33118 27.9715C8.37618 26.0037 10.374 23.9885 12.419 22.0207C14.4977 22.0162 16.5764 22.0162 18.6528 22.0207C16.2576 24.4692 13.7973 26.8522 11.4201 29.3165C14.4146 32.2366 17.3082 35.2651 20.3296 38.1537C20.3566 32.776 20.3341 27.3983 20.3409 22.0184C22.4487 22.0139 24.5566 22.0139 26.6644 22.0184C26.6644 26.0985 26.6599 30.1763 26.6644 34.2564C30.0316 34.2473 33.3965 34.2677 36.7615 34.2451C36.8086 35.6284 36.7682 37.014 36.7839 38.3974C28.6017 38.3974 20.4172 38.4041 12.235 38.3929C10.3 36.4228 8.33802 34.4798 6.39404 32.5187C6.3671 34.4798 6.39851 36.4408 6.37831 38.4041C4.29964 38.3883 2.22096 38.4041 0.144531 38.3951V22.0207Z" fill="white"/>
</svg>
