<svg width="200" height="100" viewBox="0 0 200 100" fill="none" xmlns="http://www.w3.org/2000/svg">
<path fill-rule="evenodd" clip-rule="evenodd" d="M100.868 86.6517L114.791 77.604L100.869 68.5547L100.868 86.6517Z" fill="#D9D9D9"/>
<path fill-rule="evenodd" clip-rule="evenodd" d="M93.1305 65.2754L86.9475 77.6099L100.87 68.5606L93.1305 65.2754Z" fill="#F4F4F4"/>
<path fill-rule="evenodd" clip-rule="evenodd" d="M108.61 65.2754L100.868 68.5606L114.79 77.6099L108.61 65.2754Z" fill="#F4F4F4"/>
<path fill-rule="evenodd" clip-rule="evenodd" d="M93.1306 65.2754L100.87 68.5606L108.612 65.2754H93.1306Z" fill="white"/>
<path fill-rule="evenodd" clip-rule="evenodd" d="M93.1306 89.9382H108.612L100.87 86.6514L93.1306 89.9382Z" fill="#ACACAC"/>
<path fill-rule="evenodd" clip-rule="evenodd" d="M100.868 86.6483L108.61 89.9351L114.791 77.6006L100.868 86.6483Z" fill="#CDCDCD"/>
<path fill-rule="evenodd" clip-rule="evenodd" d="M93.1305 89.9351L100.871 86.6483L86.9475 77.6006L93.1305 89.9351Z" fill="#CDCDCD"/>
<path fill-rule="evenodd" clip-rule="evenodd" d="M86.9475 77.6034L100.87 86.6511V68.5557L86.9475 77.6034Z" fill="#DFDFDF"/>
<path fill-rule="evenodd" clip-rule="evenodd" d="M41.3377 30.723C36.5789 30.723 33 34.0693 33 38.8621V50.6672H36.305V38.7494C36.305 35.8284 38.481 33.8645 41.3377 33.8645C44.1727 33.8645 46.3329 35.8272 46.3329 38.7494V50.6672H49.6391V38.8621C49.6391 34.0693 46.0748 30.723 41.3377 30.723ZM65.3939 42.407C65.3939 45.328 63.2337 47.2907 60.3987 47.2907C57.542 47.2907 55.6217 45.328 55.6217 42.407V30.637H52.3166V42.4058C52.3166 47.1211 55.7162 50.5436 60.3987 50.5436C65.0825 50.5436 68.7365 47.1211 68.7365 42.4058V30.637H65.3939V42.4058V42.407ZM142.526 43.5398V34.5187H147.384V31.1168H142.526V27H139.037V43.5398C139.037 45.7629 139.668 47.6178 140.865 48.9008C142.038 50.1608 143.702 50.8247 145.678 50.8247L148.014 50.8283V47.4857H146.267C143.783 47.4857 142.526 46.1579 142.526 43.5398ZM154.438 36.0307C154.438 34.5345 156.259 33.3363 158.787 33.3363C161.128 33.3363 162.949 34.3843 163.394 36.4427H166.59C166.182 32.6627 163.209 30.4177 158.786 30.4177C153.657 30.4177 151.279 33.3739 151.279 36.1434C151.279 39.7731 154.103 40.8962 158.749 41.5698C163.432 42.2059 163.952 43.2163 163.952 44.5623C163.952 46.2463 162.131 47.7062 159.158 47.7062C156.408 47.7062 154.215 46.3215 153.806 44.0765H150.61C151.131 48.1557 154.512 50.6636 159.158 50.6636C163.729 50.6636 167 48.2308 167 44.3757C167 39.9973 163.506 39.1747 159.27 38.501C155.516 37.9025 154.438 37.4155 154.438 36.0307ZM103.564 47.0399C100.002 47.0399 97.1166 44.1322 97.1166 40.5461C97.1166 36.96 100.002 34.0535 103.564 34.0535C106.872 34.0535 109.595 36.5614 109.967 39.7913L109.975 41.2524C109.624 44.5066 106.888 47.0399 103.564 47.0399ZM103.566 30.6443C98.1318 30.6443 93.7291 35.0785 93.7291 40.5461C93.7291 46.0162 98.1318 50.4503 103.564 50.4503C106.029 50.4503 108.277 49.5356 110.004 48.0273L110.012 49.9778C110.012 53.564 107.125 56.4716 103.564 56.4716C102.379 56.4704 101.216 56.142 100.205 55.5225C99.1939 54.903 98.3734 54.0165 97.8338 52.9606L94.1895 52.9812C95.4519 56.9829 99.1725 59.8821 103.564 59.8821C108.996 59.8821 113.4 55.4479 113.4 49.9791V39.7913H113.368C112.984 34.675 108.745 30.6443 103.566 30.6443ZM81.2904 47.0399C77.7285 47.0399 74.8426 44.1322 74.8426 40.5461C74.8426 36.96 77.7297 34.0535 81.2904 34.0535C84.5978 34.0535 87.3214 36.5614 87.6933 39.7913L87.6993 41.2524C87.3504 44.5066 84.6148 47.0399 81.2904 47.0399ZM81.2904 30.6443C75.8591 30.6443 71.4552 35.0785 71.4552 40.5461C71.4552 46.0162 75.8591 50.4503 81.2904 50.4503C83.7546 50.4503 86.0032 49.5356 87.7296 48.0273L87.7381 49.9778C87.7381 53.564 84.851 56.4716 81.2904 56.4716C80.1046 56.4704 78.9421 56.142 77.931 55.5225C76.9199 54.903 76.0994 54.0165 75.5598 52.9606L71.9155 52.9812C73.178 56.9829 76.8986 59.8821 81.2904 59.8821C86.7216 59.8821 91.1256 55.4479 91.1256 49.9791V39.7913H91.0941C90.71 34.675 86.4696 30.6443 81.2904 30.6443ZM120.028 38.5725C120.876 35.9835 123.299 34.1129 126.155 34.1129C128.996 34.1129 131.42 35.9968 132.28 38.5653L120.028 38.5725ZM126.13 30.7024C120.699 30.7024 116.295 35.1366 116.295 40.6055C116.295 46.0743 120.699 50.5085 126.13 50.5085C130.332 50.5085 133.918 47.8553 135.326 44.1237L131.576 44.1213C130.995 45.033 130.194 45.7837 129.246 46.304C128.299 46.8242 127.236 47.0973 126.155 47.098C122.835 47.098 120.103 44.5744 119.746 41.3287L135.94 41.3203C135.956 41.0824 135.965 40.8439 135.964 40.6055C135.964 35.1366 131.562 30.7024 126.13 30.7024Z" fill="white"/>
</svg>
