<svg width="143" height="39" viewBox="0 0 143 39" fill="none" xmlns="http://www.w3.org/2000/svg">
<path d="M52.3833 22.7297C50.1379 20.4843 50.1379 16.8499 52.3833 14.6025C54.7247 12.4098 58.3686 12.4098 60.7213 14.6025C62.9667 16.848 62.9667 20.4824 60.7213 22.7297C58.3686 24.9225 54.7247 24.9225 52.3833 22.7297ZM53.6331 15.7375C51.9692 17.3486 51.9372 20.0081 53.5483 21.6607C55.1595 23.3245 57.819 23.3565 59.4715 21.7454C61.1353 20.1342 61.1674 17.4747 59.5562 15.8222C58.762 15.0072 57.6816 14.5517 56.5467 14.5517C55.455 14.531 54.3953 14.9545 53.6331 15.7375Z" fill="white"/>
<path d="M66.5253 24.2031V13.1322H71.2608C72.4372 13.0588 73.5909 13.4823 74.4492 14.2766C75.9851 15.8764 75.9756 18.3985 74.4379 19.9983C73.5796 20.8039 72.4353 21.2161 71.2589 21.154H68.208V24.205H66.5234L66.5253 24.2031ZM68.1985 19.573H70.858C71.6636 19.637 72.4579 19.4149 73.1148 18.9368C74.101 17.9411 74.101 16.3413 73.1148 15.355C72.4692 14.8789 71.6636 14.6455 70.858 14.7095H68.1985V19.573Z" fill="white"/>
<path d="M87.7045 13.1299H89.3777V19.5405C89.421 20.8336 88.9429 22.0833 88.0527 23.015C85.9447 24.8275 82.8184 24.8275 80.7104 23.015C79.8201 22.0833 79.3439 20.8223 79.3853 19.5405V13.1299H81.0586V19.3918C81.0059 20.3028 81.3126 21.2044 81.9281 21.8819C83.3379 23.079 85.4026 23.079 86.8123 21.8819C87.4259 21.2044 87.7346 20.3028 87.6819 19.3918V13.1299H87.7026H87.7045Z" fill="white"/>
<path d="M94.0527 24.2027V13.1318H95.7259V22.6029H101.913V24.2027H94.0508H94.0527Z" fill="white"/>
<path d="M105.918 22.7297C103.673 20.4843 103.673 16.8499 105.918 14.6025C108.26 12.4098 111.904 12.4098 114.256 14.6025C116.502 16.848 116.502 20.4824 114.256 22.7297C111.904 24.9225 108.271 24.9225 105.918 22.7297ZM107.168 15.7375C105.504 17.3486 105.472 20.0081 107.084 21.6607C108.695 23.3245 111.354 23.3565 113.007 21.7454C114.671 20.1342 114.703 17.4747 113.091 15.8222C112.297 15.0072 111.217 14.5517 110.082 14.5517C108.99 14.531 107.942 14.9545 107.168 15.7375Z" fill="white"/>
<path d="M128.201 13.1299H129.874V19.5405C129.917 20.8336 129.439 22.0833 128.549 23.015C126.441 24.8275 123.314 24.8275 121.206 23.015C120.316 22.0833 119.84 20.8223 119.881 19.5405V13.1299H121.555V19.3918C121.502 20.3028 121.809 21.2044 122.424 21.8819C123.834 23.079 125.899 23.079 127.308 21.8819C127.922 21.2044 128.231 20.3028 128.178 19.3918L128.199 13.1299H128.201Z" fill="white"/>
<path d="M133.846 21.3834L135.509 20.9072C135.573 21.5208 135.933 22.0629 136.464 22.3697C137.109 22.7198 137.841 22.8892 138.583 22.8459C139.261 22.8892 139.94 22.7405 140.542 22.4224C140.966 22.2003 141.243 21.7542 141.243 21.278C141.254 20.9392 141.094 20.6099 140.819 20.4085C140.682 20.2918 140.522 20.1958 140.364 20.1111C140.173 20.0151 139.961 19.9304 139.759 19.8777C139.505 19.8043 139.283 19.729 139.091 19.6763C138.901 19.6236 138.647 19.5596 138.329 19.4862C138.212 19.4542 138.128 19.4335 138.064 19.4222C137.544 19.3055 137.025 19.1568 136.528 18.978C136.084 18.8086 135.658 18.5959 135.267 18.3419C134.875 18.0991 134.546 17.7584 134.324 17.3556C134.102 16.9415 133.994 16.4766 133.994 15.9986C133.974 15.1083 134.397 14.2613 135.127 13.7625C136.038 13.1697 137.109 12.8723 138.199 12.9363C139.332 12.893 140.456 13.1904 141.419 13.8058C142.246 14.3573 142.722 15.3003 142.681 16.2847V16.4747H141.007V16.4013C141.039 15.8179 140.742 15.2683 140.245 14.9596C139.62 14.6001 138.911 14.4307 138.19 14.4721C137.554 14.4401 136.929 14.5775 136.377 14.8956C135.974 15.129 135.732 15.5525 135.741 16.008C135.741 16.2207 135.794 16.422 135.899 16.6009C135.995 16.7702 136.121 16.9189 136.27 17.0356C136.471 17.1843 136.684 17.301 136.915 17.3744C137.202 17.4798 137.456 17.5645 137.657 17.6285C137.858 17.6812 138.165 17.7659 138.547 17.8619C139.14 18.0106 139.607 18.1367 139.946 18.2327C140.348 18.3607 140.74 18.5075 141.122 18.6769C141.493 18.8256 141.832 19.0364 142.138 19.2905C142.381 19.5333 142.594 19.8099 142.743 20.1167C142.912 20.4762 143.008 20.8696 142.997 21.2724C143.029 22.1946 142.573 23.0529 141.8 23.5498C140.825 24.1333 139.701 24.4194 138.568 24.3554C137.444 24.3987 136.332 24.1333 135.348 23.5931C134.51 23.1376 133.96 22.3208 133.844 21.3797L133.846 21.3834Z" fill="white"/>
<path d="M0.364731 19.3796C0.364731 16.4773 0.376013 13.5637 0.353427 10.6595C0.32143 9.95934 0.703497 9.30246 1.32838 8.98626C4.51676 7.15303 7.70703 5.3198 10.8841 3.47716C12.7061 2.4288 14.5393 1.37855 16.3612 0.320773C16.9974 -0.0933036 17.8124 -0.0933039 18.4485 0.309479C23.4607 3.20237 28.4711 6.09525 33.4927 8.97685C33.9689 9.21965 34.3189 9.65443 34.4469 10.1739C34.4789 10.3019 34.4902 10.4393 34.4902 10.5767V28.2182C34.5109 28.8638 34.1609 29.4586 33.5906 29.7654C32.5836 30.3488 31.5672 30.9304 30.5603 31.5139C26.5663 33.8139 22.5724 36.112 18.5766 38.412C18.3639 38.54 18.1418 38.6454 17.9084 38.7301C17.4209 38.8788 16.892 38.8035 16.4572 38.5287C15.1115 37.7439 13.7563 36.9722 12.4106 36.1986C11.6163 35.7431 10.822 35.2763 10.0165 34.8209C9.37089 34.4915 8.9775 33.8139 9.0095 33.0836V28.03C8.96621 27.119 9.61366 26.3342 10.5039 26.1968C10.9387 26.1328 11.3829 26.2288 11.7537 26.4622C12.9828 27.1717 14.2231 27.8813 15.4521 28.5909C15.981 28.8977 16.5325 29.1951 17.052 29.5226C17.2647 29.6712 17.5508 29.6712 17.7616 29.5226C19.9863 28.2295 22.2016 26.9478 24.4357 25.6773C24.9759 25.3592 25.5161 25.0411 26.0675 24.7456C26.2689 24.6609 26.3856 24.4595 26.3649 24.2374C26.3536 21.0171 26.3536 17.7948 26.3649 14.5744C26.3856 14.3617 26.2689 14.1603 26.0788 14.0662C23.2819 12.4664 20.4945 10.8552 17.7089 9.246C17.5188 9.11801 17.2741 9.11801 17.0953 9.25729C14.3191 10.8684 11.5429 12.4683 8.75727 14.0568C8.53518 14.1735 8.40721 14.4163 8.4505 14.661V30.6481C8.4618 30.8382 8.45052 31.0302 8.41852 31.2203C8.22842 32.1745 7.29486 32.7881 6.34249 32.598C6.17309 32.566 6.00367 32.502 5.84369 32.4173C5.4202 32.1952 5.00614 31.9411 4.59395 31.6965C3.49288 31.0603 2.40123 30.4354 1.29828 29.7992C0.991484 29.6298 0.737403 29.3852 0.556715 29.0784C0.419317 28.8243 0.344018 28.5269 0.355311 28.2408C0.366604 25.2839 0.376026 22.3402 0.366615 19.3833L0.364731 19.3796ZM6.70008 30.8533V14.5593C6.65679 13.7218 7.11415 12.9388 7.86513 12.5567C10.6827 10.9456 13.4909 9.32505 16.2878 7.7045C16.988 7.26031 17.8764 7.26031 18.5766 7.7045C21.3847 9.32505 24.1911 10.9475 26.9992 12.5567C27.7615 12.9482 28.217 13.7425 28.1756 14.6008C28.1643 17.8117 28.1643 21.0208 28.1756 24.2318C28.2189 25.0901 27.7521 25.905 26.9785 26.2984C24.1609 27.9095 21.364 29.5301 18.5558 31.1506C18.4071 31.2353 18.2585 31.3087 18.1004 31.3633C17.5075 31.5647 16.8506 31.4913 16.3198 31.1619C14.6033 30.1663 12.8867 29.18 11.1608 28.1843C11.0554 28.1203 10.9481 28.0676 10.8013 27.9829V28.3744C10.8013 29.8896 10.8126 31.4047 10.79 32.9199C10.7693 33.1325 10.886 33.3339 11.0874 33.4186C13.1013 34.5743 15.1134 35.7281 17.116 36.8931C17.2967 37.0211 17.5395 37.0305 17.7202 36.9044C22.6251 34.0642 27.5319 31.2466 32.4481 28.429C32.6495 28.333 32.7662 28.1222 32.7455 27.9001C32.7342 22.2536 32.7342 16.6166 32.7455 10.9701C32.7662 10.748 32.6401 10.5353 32.4387 10.4506C27.5432 7.64239 22.659 4.82479 17.7748 2.00719L17.4246 1.81709C12.3183 4.76268 7.22145 7.69698 2.14714 10.6219V28.2841C3.65098 29.0991 5.14542 29.9573 6.70385 30.8589L6.70008 30.8533Z" fill="white"/>
<path d="M11.8076 19.3911C11.8076 18.5535 11.8189 17.7065 11.8076 16.869C11.7756 16.4248 12.0203 15.9994 12.4212 15.8093C13.893 14.9717 15.3555 14.1248 16.8179 13.2778C17.1774 13.035 17.6555 13.035 18.0262 13.2778C19.5094 14.1361 20.9926 14.9943 22.487 15.8526C22.8578 16.0427 23.0798 16.4248 23.0591 16.8389V21.9885C23.0798 22.4119 22.8465 22.8147 22.4663 22.9954C20.9831 23.8424 19.5094 24.6912 18.0375 25.5495C17.678 25.7923 17.2 25.7923 16.8292 25.5495C15.3574 24.6912 13.8836 23.8443 12.4005 22.9954C12.009 22.8053 11.7756 22.3912 11.8076 21.9565C11.8189 21.0982 11.8076 20.2512 11.8076 19.393V19.3911ZM17.4334 14.0627C17.4014 14.074 17.36 14.0947 17.328 14.106C15.8655 14.9435 14.4144 15.7792 12.9519 16.6168C12.8145 16.6902 12.7392 16.8502 12.7618 16.9988C12.7618 18.5987 12.7731 20.2098 12.7618 21.8097C12.7505 21.9903 12.8465 22.1597 13.0159 22.2237C13.9476 22.7526 14.8811 23.2947 15.8128 23.8349L17.4127 24.7571C17.5181 24.6931 17.6254 24.6404 17.7195 24.5877C19.0859 23.8029 20.4317 23.0199 21.7981 22.2463C21.9788 22.1616 22.0955 21.9715 22.0729 21.7701C22.0616 20.191 22.0616 18.6137 22.0729 17.0233C22.0936 16.8219 21.9769 16.6318 21.7981 16.5471C20.4109 15.7623 19.0426 14.968 17.6555 14.1737C17.5915 14.1417 17.5068 14.1003 17.4334 14.0683V14.0627Z" fill="white"/>
</svg>
