<svg width="50" height="47" viewBox="0 0 50 47" fill="none" xmlns="http://www.w3.org/2000/svg">
<path fill-rule="evenodd" clip-rule="evenodd" d="M44.1271 10.6354C40.0006 5.11214 32.9931 0.898091 24.6306 0.810547C16.2702 0.810547 9.28261 4.93705 4.93924 10.4603C1.44544 15.3508 -0.934173 20.502 0.355111 30.0005C3.08489 31.9861 5.35505 33.7112 8.3017 35.8082L9.41393 44.8233H21.2682C22.076 45.4122 23.0588 45.9594 24.6306 46.0031C26.2243 45.9594 27.2291 45.4142 27.9713 44.8233H39.913L41.0272 35.8082L48.558 30.2631C50.0642 22.4697 47.991 15.8761 44.1271 10.6374V10.6354ZM44.6285 27.6408L36.463 33.7092L35.5458 40.5197H26.5089C26.2462 41.043 25.6573 41.6777 24.6306 41.7413C23.5602 41.6757 23.3434 41.2837 22.6868 40.5197L13.626 40.454L12.7525 33.6654L4.52139 27.5532C4.23688 26.5922 3.97624 24.9985 4.12745 23.6675C4.25877 22.2926 4.52141 21.5943 4.93525 20.7646C9.1493 24.8692 14.388 30.1517 18.6458 34.2563C14.5631 29.322 9.71632 23.3849 5.65548 18.4288C5.78679 17.3146 6.09121 16.1586 6.70402 15.1757C7.42427 13.9541 7.97141 13.4945 8.69166 12.8618C12.4023 18.9302 16.879 26.9862 20.5678 33.0984C17.3804 26.3754 13.5822 17.7503 10.4167 10.9836C11.137 9.89124 11.5965 9.43363 12.3824 8.82281C13.1246 8.21199 14.1513 7.62306 15.1978 7.4042C17.3804 15.0882 20.3271 24.7379 22.5336 32.4438C20.918 24.519 19.0179 14.346 17.3804 6.35566C18.2758 5.85427 19.0398 5.56976 20.0883 5.24147C21.1368 5.06638 22.4023 5.00072 23.2976 5.21958C23.8209 13.5363 23.996 23.9062 24.6287 32.3124C25.2614 23.952 25.2833 13.6039 25.8941 5.21958C26.8113 5.06638 27.9692 5.11015 29.1471 5.32901C30.1738 5.63542 30.9378 5.91794 31.7237 6.48698C30.1738 14.4555 28.2299 24.5409 26.68 32.4656C28.9064 24.8254 31.7237 15.0882 34.0157 7.42608C35.0205 7.66683 36.0472 8.25576 36.8749 8.88847C37.5732 9.45551 38.0766 10.0007 38.775 11.0711C35.5657 17.7503 31.855 26.3754 28.5801 33.1202C32.2689 27.0518 36.8112 18.9302 40.5437 12.8837C41.2421 13.5382 41.6798 13.9959 42.4439 15.2195C43.0984 16.2024 43.3611 17.3365 43.5799 18.4507C39.4753 23.4506 34.6724 29.4096 30.5697 34.3001C34.7838 30.1955 40.0444 24.913 44.2803 20.8303C44.6305 21.5943 44.8911 22.3145 45.0224 23.755C45.1318 25.0861 44.9349 26.636 44.6285 27.6408Z" fill="white"/>
</svg>
