<svg width="200" height="100" viewBox="0 0 200 100" fill="none" xmlns="http://www.w3.org/2000/svg">
<path d="M59.2675 53.372L59.5178 53.5789C59.2475 51.7032 59.1006 49.6639 59.6413 47.8716C60.4524 44.9978 61.4737 42.2042 61.9943 39.227C62.4115 36.914 62.8888 34.3106 62.6185 32.0811C62.3047 33.2893 61.9943 34.4775 61.3268 35.5189C58.8069 39.4139 56.2235 43.9965 57.9925 48.9563C57.9524 49.0197 57.889 49.0798 57.8256 49.0397C57.118 47.3943 56.9511 45.5385 56.4939 43.7896C55.2656 39.1435 51.7043 35.2485 52.7457 29.8748C52.1816 31.043 51.9747 32.3547 51.6843 33.6231C51.0601 36.914 51.6843 40.3918 52.5788 43.4358C53.6836 47.2073 57.3684 49.9142 59.2641 53.372H59.2675Z" fill="white"/>
<path d="M58.3096 29.2474C59.144 27.5385 60.4958 25.9131 62.1212 24.7048C65.7059 21.998 69.621 18.4968 69.6844 13.9142C68.4761 17.2051 64.8715 18.5802 62.4784 20.8298C61.2067 22.018 60.2288 23.4532 59.6647 24.9552L59.5813 24.8918C59.8716 23.56 60.4357 22.3718 60.8295 21.0801C61.8709 17.5789 61.684 13.3935 65.0984 11.0404C63.3495 11.4977 61.8709 12.6225 60.5559 14.0811C57.7856 17.1417 58.0359 21.6642 58.3897 25.6628C58.5132 26.911 58.4532 27.9758 58.3063 29.2474H58.3096Z" fill="white"/>
<path d="M62.4787 19.2711C64.3945 17.4788 66.604 16.1471 68.2295 14.021C70.1653 11.4577 71.8541 8.58393 74.3941 6.37439C70.9563 7.70612 67.2482 9.08124 65.0186 12.6225C63.7069 14.6852 63.4966 17.1217 62.4787 19.2678V19.2711Z" fill="white"/>
<path d="M63.914 28.333C64.7484 26.6441 65.2691 24.7283 65.496 22.8759C65.1823 23.6669 64.705 24.3979 64.0375 25.022C61.2472 27.6688 57.9763 30.2521 57.3521 34.0003C57.2687 34.541 57.2053 35.0851 57.0617 35.6057C56.9382 35.6692 56.9382 35.5223 56.8949 35.4823L57.2487 30.8562C57.5824 26.337 55.206 21.3139 57.8127 17.3354C57.7293 17.3153 57.6659 17.3988 57.6058 17.4188C55.2294 20.4394 53.6473 23.7737 53.6473 27.8357C53.6473 32.8555 56.5444 36.3767 56.8982 41.0828C57.6492 36.1665 61.7712 32.6686 63.9173 28.333H63.914Z" fill="white"/>
<path d="M58.3932 59.183C61.0801 61.3091 64.2876 62.9545 66.7474 64.827C66.2668 63.5987 65.4758 62.4739 65.1654 61.2023C63.7268 55.3914 64.5212 48.6426 62.0413 43.2656C62.4986 46.3263 61.2904 49.0365 61.02 51.9536C60.7897 54.35 61.2069 56.6831 62.1448 58.6823C62.4152 59.2864 62.9158 59.8071 63.0627 60.4313C62.1682 59.6202 61.5207 58.5989 60.9165 57.5976C58.0194 52.9115 51.9583 49.8676 51.5411 44.1601C51.3341 46.7001 51.5611 49.3903 52.3955 51.6398C53.5403 54.7238 55.7899 57.117 58.3932 59.1796V59.183Z" fill="white"/>
<path d="M94.9342 74.5763C90.2481 74.5763 86.0393 76.846 81.934 78.5548C78.2058 80.0968 73.2694 79.8031 69.9551 77.5135C71.5805 79.5561 73.7667 80.8244 76.0363 81.6789C80.2218 83.3444 85.1181 82.0761 88.7028 79.7831C91.2661 78.1376 93.4723 75.8046 96.5363 75.8046C101.473 75.8046 106.659 80.8678 111.098 85.4504C111.786 84.8864 112.514 84.3056 113.078 83.6581C108.432 79.2424 101.87 74.5763 94.9342 74.5763Z" fill="white"/>
<path d="M86.5597 75.0769C87.2873 74.89 88.1652 74.9534 88.8294 74.7031C86.0391 74.139 83.3522 73.2879 81.1828 71.3087C78.0787 68.475 75.3285 65.4544 72.0175 63.2482C74.6209 66.7495 75.3519 71.8294 80.1014 73.6017C80.9358 73.9154 81.9137 73.9755 82.6413 74.4361C81.7235 74.5829 80.9325 74.2892 80.078 74.1023C73.9534 72.7906 66.497 74.4762 61.9144 69.2694C63.6433 72.6872 67.228 75.374 70.6858 76.4988C75.9994 78.2911 81.5599 76.3119 86.5597 75.0836V75.0769Z" fill="white"/>
<path d="M76.3099 72.5136C72.3314 69.3061 71.7273 64.4932 69.955 60.2844C68.8502 57.661 67.0579 55.3046 65.1421 53.0149C67.2448 57.2237 66.3303 62.6374 69.0572 66.5959C69.9116 67.8442 71.0999 69.0324 72.2013 70.0136L72.1612 70.0771C71.1599 69.6198 70.2654 68.9089 69.3476 68.1612C64.578 64.1828 57.392 63.6821 54.535 57.2037C55.306 61.9532 59.0776 66.162 63.1595 68.8288C67.0345 71.3687 72.0143 71.0984 76.3032 72.5169L76.3099 72.5136Z" fill="white"/>
<path d="M131.742 14.0211C133.367 16.1673 135.573 17.479 137.493 19.2713C136.471 17.1252 136.264 14.6887 134.973 12.626C132.743 9.08473 129.035 7.70962 125.597 6.37789C128.097 8.58742 129.783 11.4411 131.742 14.0245V14.0211Z" fill="white"/>
<path d="M139.138 21.0836C139.512 22.3552 140.076 23.5635 140.387 24.8952L140.303 24.9586C139.739 23.46 138.761 22.0215 137.489 20.8333C135.093 18.5637 131.492 17.2086 130.303 13.8976C130.367 18.5002 134.282 22.0014 137.867 24.6883C139.472 25.8965 140.847 27.5219 141.678 29.2308C141.531 27.9592 141.471 26.8978 141.595 25.6695C141.969 21.6476 142.199 17.1485 139.449 14.0878C138.137 12.6293 136.658 11.4845 134.906 11.0472C138.28 13.4003 138.094 17.5891 139.135 21.0869L139.138 21.0836Z" fill="white"/>
<path d="M142.719 30.833L143.073 35.459C143.033 35.499 143.033 35.6259 142.906 35.5825C142.759 35.0618 142.699 34.5211 142.616 33.9771C141.992 30.2489 138.701 27.6455 135.93 24.9987C135.263 24.3746 134.786 23.6436 134.472 22.8526C134.702 24.705 135.223 26.6242 136.054 28.3097C138.2 32.642 142.325 36.1432 143.073 41.0796C143.427 36.3501 146.324 32.8522 146.324 27.8324C146.324 23.7705 144.742 20.4361 142.365 17.4155C142.302 17.3755 142.242 17.3121 142.158 17.3321C144.762 21.3106 142.365 26.3305 142.722 30.8296L142.719 30.833Z" fill="white"/>
<path d="M143.47 43.7664C143.013 45.5154 142.846 47.3911 142.139 49.0166C142.075 49.0566 142.015 48.9765 141.972 48.9331C143.744 43.9767 141.161 39.4141 138.637 35.4957C137.97 34.4744 137.659 33.2661 137.346 32.0579C137.075 34.3075 137.553 36.8908 137.97 39.2038C138.51 42.1844 139.512 44.9747 140.323 47.8484C140.864 49.6407 140.72 51.66 140.446 53.5558L140.697 53.3489C142.572 49.8911 146.281 47.1842 147.405 43.3926C148.3 40.372 148.927 36.8708 148.3 33.5799C148.009 32.3082 147.779 30.9965 147.238 29.8317C148.26 35.2253 144.698 39.1237 143.467 43.7664H143.47Z" fill="white"/>
<path d="M118.014 78.5549C113.889 76.8461 109.703 74.5764 105.014 74.5764C98.0982 74.5764 91.5163 79.2625 86.9103 83.6582C87.4744 84.3024 88.202 84.9065 88.8896 85.4505C93.3053 80.888 98.512 75.8047 103.452 75.8047C106.512 75.8047 108.722 78.1377 111.285 79.7832C114.847 82.0528 119.743 83.3445 123.952 81.679C126.201 80.8246 128.387 79.5529 130.033 77.5136C126.699 79.7832 121.742 80.0969 118.014 78.5549Z" fill="white"/>
<path d="M139.075 57.5576C138.451 58.5589 137.827 59.6002 136.929 60.3913C137.076 59.7871 137.573 59.2464 137.847 58.6423C138.785 56.623 139.202 54.3101 138.971 51.9136C138.681 48.9965 137.473 46.2896 137.95 43.2257C135.45 48.5993 136.261 55.3481 134.826 61.1623C134.512 62.454 133.721 63.5788 133.244 64.787C135.701 62.9112 138.911 61.2657 141.598 59.143C144.202 57.1003 146.451 54.6839 147.639 51.5598C148.494 49.3102 148.701 46.6234 148.494 44.0801C148.057 49.8309 141.972 52.8715 139.078 57.5576H139.075Z" fill="white"/>
<path d="M130.573 68.1614C129.656 68.9123 128.761 69.6199 127.76 70.0772L127.72 70.0138C128.825 69.0125 130.013 67.8276 130.864 66.596C133.594 62.6375 132.676 57.2005 134.779 53.015C132.863 55.308 131.071 57.6611 129.966 60.2845C128.194 64.4933 127.59 69.3028 123.611 72.5137C127.903 71.0985 132.88 71.3689 136.735 68.8489C140.797 66.1821 144.568 61.9733 145.359 57.2238C142.526 63.6822 135.36 64.1829 130.57 68.1614H130.573Z" fill="white"/>
<path d="M119.89 74.1191C119.035 74.3061 118.244 74.5764 117.326 74.4529C118.054 73.9957 119.015 73.9322 119.866 73.6185C124.616 71.8262 125.343 66.7429 127.95 63.2651C124.639 65.4746 121.889 68.4952 118.785 71.3255C116.619 73.3048 113.932 74.1392 111.138 74.7199C111.806 74.9703 112.68 74.9069 113.408 75.0938C118.428 76.342 123.968 78.3013 129.302 76.5323C132.74 75.3875 136.321 72.7006 138.073 69.3029C133.471 74.4896 125.991 72.8242 119.886 74.1158L119.89 74.1191Z" fill="white"/>
<path d="M99.9741 3C81.0161 3 65.6028 18.4167 65.6028 37.3713C65.6028 56.3259 81.0195 71.7425 99.9741 71.7425C118.929 71.7425 134.345 56.3259 134.345 37.3713C134.345 18.4167 118.929 3 99.9741 3ZM99.9741 43.9331C96.3494 43.9331 93.4122 40.996 93.4122 37.3713C93.4122 33.7466 96.3494 30.8094 99.9741 30.8094C103.599 30.8094 106.536 33.7466 106.536 37.3713C106.536 40.996 103.599 43.9331 99.9741 43.9331ZM104.91 31.8508C103.702 30.766 102.14 30.0785 100.411 29.975V24.351C103.682 24.4545 106.659 25.7662 108.889 27.8723L104.91 31.8508ZM99.5569 29.975C97.8279 30.0785 96.2659 30.766 95.0577 31.8508L91.0792 27.8723C93.3087 25.7695 96.2859 24.4545 99.5569 24.351V29.975ZM94.4736 32.4549C93.3889 33.6631 92.7013 35.2252 92.5978 36.9541H86.9738C87.0773 33.6832 88.389 30.706 90.4951 28.4764L94.4736 32.4549ZM92.5978 37.7885C92.7013 39.5174 93.3889 41.0794 94.4736 42.2877L90.4951 46.2662C88.3924 44.0366 87.0773 41.0594 86.9738 37.7885H92.5978ZM95.0543 42.8918C96.2626 43.9765 97.8246 44.6641 99.5535 44.7675V50.3915C96.2826 50.288 93.3054 48.9763 91.0758 46.8703L95.0543 42.8918ZM100.388 44.7442C102.117 44.6407 103.679 43.9531 104.887 42.8684L108.866 46.8469C106.636 48.9496 103.659 50.2647 100.388 50.3681V44.7442ZM105.491 42.2877C106.576 41.0794 107.264 39.5174 107.367 37.7885H112.991C112.887 41.0594 111.576 44.0366 109.47 46.2662L105.491 42.2877ZM107.367 36.9541C107.264 35.2252 106.576 33.6631 105.491 32.4549L109.47 28.4764C111.572 30.706 112.887 33.6832 112.991 36.9541H107.367ZM109.47 27.2882C107.073 25.0386 103.909 23.6234 100.388 23.5166V17.2685C105.618 17.372 110.368 19.4981 113.885 22.8725L109.47 27.2882ZM99.5535 23.5166C96.0523 23.6201 92.8682 25.0386 90.4717 27.2882L86.056 22.8725C89.5772 19.4981 94.3267 17.372 99.5535 17.2685V23.5166ZM89.8876 27.869C87.6381 30.2654 86.2229 33.4295 86.1161 36.9507H79.868C79.9714 31.7206 82.0975 26.9711 85.4719 23.4532L89.8876 27.869ZM86.1394 37.7851C86.2429 41.2864 87.6614 44.4705 89.911 46.8669L85.4752 51.2827C82.1008 47.7614 79.9748 43.0119 79.8713 37.7851H86.1428H86.1394ZM90.4917 47.451C92.8882 49.7006 96.0523 51.1158 99.5735 51.2226V57.4707C94.3434 57.3672 89.5939 55.2411 86.076 51.8668L90.4917 47.451ZM100.388 51.1992C103.889 51.0958 107.073 49.6772 109.47 47.4277L113.885 51.8434C110.364 55.2178 105.615 57.3439 100.388 57.4473V51.1992ZM110.054 46.8469C112.303 44.4505 113.719 41.2864 113.825 37.7651H120.073C119.97 42.9952 117.844 47.7447 114.47 51.2626L110.054 46.8469ZM113.825 36.9507C113.722 33.4495 112.303 30.2654 110.054 27.869L114.47 23.4532C117.844 26.9744 119.97 31.7239 120.073 36.9507H113.825ZM114.47 22.285C110.805 18.7638 105.845 16.5576 100.388 16.4508V10.9103C107.367 11.0137 113.699 13.8474 118.365 18.3666L114.47 22.2817V22.285ZM99.5535 16.4308C94.0964 16.5342 89.1366 18.7438 85.4719 22.265L81.5769 18.37C86.2429 13.8508 92.5745 11.0171 99.5535 10.9136V16.4341V16.4308ZM84.8878 22.8691C81.3666 26.5339 79.1604 31.4936 79.0536 36.9507H73.5331C73.6366 29.9717 76.4702 23.6401 80.9894 18.9741L84.8845 22.8691H84.8878ZM79.0536 37.7851C79.157 43.2422 81.3666 48.202 84.8878 51.8668L80.9928 55.7618C76.4736 51.0957 73.6399 44.7642 73.5364 37.7851H79.0569H79.0536ZM85.4686 52.4508C89.1333 55.9721 94.0931 58.1783 99.5502 58.2851V63.8056C92.5711 63.7021 86.2396 60.8684 81.5735 56.3492L85.4686 52.4542V52.4508ZM100.385 58.3051C105.842 58.2016 110.801 55.9921 114.466 52.4709L118.361 56.3659C113.695 60.8851 107.364 63.7188 100.385 63.8223V58.3018V58.3051ZM115.07 51.8668C118.592 48.202 120.798 43.2422 120.905 37.7851H126.425C126.322 44.7642 123.488 51.0957 118.969 55.7618L115.074 51.8668H115.07ZM120.905 36.9507C120.801 31.4936 118.592 26.5339 115.07 22.8691L118.965 18.9741C123.485 23.6401 126.318 29.9717 126.422 36.9507H120.901H120.905ZM118.969 17.7859C114.136 13.0998 107.614 10.1827 100.388 10.0792V3.83109C109.326 3.93455 117.427 7.55926 123.384 13.3735L118.969 17.7892V17.7859ZM99.5535 10.0792C92.3475 10.1827 85.8057 13.0998 80.9727 17.7859L76.577 13.3701C82.5348 7.55925 90.6386 3.93455 99.5735 3.82774V10.0759H99.5535V10.0792ZM80.3886 18.37C75.7025 23.2029 72.7854 29.7247 72.682 36.9507H66.4339C66.5373 28.0125 70.162 19.912 75.9762 13.9542L80.392 18.37H80.3886ZM72.702 37.7851C72.8055 44.9912 75.7226 51.533 80.4087 56.3659L75.9729 60.7616C70.162 54.8239 66.5573 46.7201 66.4539 37.7851H72.702ZM80.9928 56.95C85.8257 61.6361 92.3475 64.5532 99.5735 64.6567V70.9048C90.6353 70.8013 82.5348 67.1766 76.577 61.3624L80.9928 56.9467V56.95ZM100.388 64.6567C107.594 64.5532 114.136 61.6361 118.969 56.95L123.384 61.3658C117.427 67.1766 109.323 70.8013 100.388 70.9081V64.6567ZM119.553 56.3459C124.239 51.513 127.156 44.9912 127.259 37.7651H133.508C133.404 46.7034 129.779 54.8039 123.965 60.7616L119.549 56.3459H119.553ZM127.259 36.9507C127.156 29.7447 124.239 23.2029 119.553 18.37L123.969 13.9542C129.779 19.912 133.404 28.0158 133.511 36.9507H127.259Z" fill="white"/>
<path d="M101.954 29.4144L101.743 29.4345V29.6853L101.954 29.6653V29.4144Z" fill="white"/>
<path d="M101.704 29.0807H101.433V29.288H101.704V29.0807Z" fill="white"/>
<path d="M100.932 29.021L101.183 29.0612L101.203 28.8538L100.952 28.8103L100.932 29.021Z" fill="white"/>
<path d="M100.726 28.9376L100.495 28.9142L100.515 28.7069L100.766 28.7269L100.726 28.9376Z" fill="white"/>
<path d="M98.9937 28.6635H98.7229V28.8709H98.9937V28.6635Z" fill="white"/>
<path d="M98.1188 29.0811L98.3697 29.1246L98.3931 28.9138L98.1623 28.8737L98.1188 29.0811Z" fill="white"/>
<path d="M98.1625 29.415L97.8715 29.3314L97.9317 29.124L98.2026 29.2077L98.1625 29.415Z" fill="white"/>
<path d="M97.6611 29.6647L97.6211 29.4578L97.828 29.4144L97.8714 29.6247L97.6611 29.6647Z" fill="white"/>
<path d="M70.4761 51.2261V51.6834H70.6863L70.6429 51.1627L70.3726 51.0593V50.8723H70.2057V51.2261H70.4761Z" fill="white"/>
<path d="M71.9347 52.4943L72.4554 52.7446L72.6222 53.2253L72.8726 53.4122L73.1029 53.9328L72.9761 54.1832L72.5822 53.8294L72.3085 53.4322L72.165 53.1218L71.9347 52.4943Z" fill="white"/>
<path d="M80.6827 63.3084L80.873 63.7657L80.6226 63.9126L80.4758 63.7023L80.142 63.5988L80.1019 63.2851L79.8316 62.8712L80.2455 62.9313L80.6827 63.3084Z" fill="white"/>
<path d="M98.913 31.684H98.5392L98.4758 30.913L98.6827 30.7661V30.369H97.4745L97.4344 29.9718L97.6013 29.8683L97.331 29.7648L97.124 30.0352L97.0606 30.3489L96.7068 30.4124V30.5792H96.4565V31.0365L95.4786 31.8475L93.5427 31.7841C93.3959 32.0979 93.0621 31.7441 93.0621 31.7441C92.9987 31.5371 92.498 31.7441 92.498 31.7441C92.498 32.1413 91.8305 31.5772 91.8305 31.5772L90.6223 30.7027C89.9347 30.0786 88.8933 30.8696 88.8499 31.0565C88.89 31.5572 88.0589 31.16 88.0589 31.16C88.0589 31.16 87.3713 30.953 87.2679 31.2234C87.1644 31.4938 86.7038 31.4303 86.7038 31.4303L86.6404 31.5772L86.2866 31.6406L86.2232 31.8475L85.806 31.911L86.8473 31.8709C87.1177 31.8309 86.7439 32.475 86.577 32.435L86.0964 32.475L85.9295 32.6419H85.4722L85.2653 32.9323L84.5978 32.8922C84.5978 32.8922 84.2239 33.206 84.244 33.3094C84.284 33.4129 84.1806 33.7267 84.0771 33.7267C83.9736 33.7267 83.7634 34.0404 83.8268 34.1439C83.8902 34.2473 83.6198 34.6011 83.6198 34.6011L83.5564 34.9549L83.3495 35.0183V35.9762L82.9323 36.2666V36.6838L82.3081 37.3513L82.3716 37.9154L81.8509 38.4795L81.9143 39.0435L81.6005 39.147L81.5371 39.3973L81.3903 40.1249L81.7441 40.165C81.911 40.1016 81.8909 40.6223 81.7441 40.6857C81.5972 40.7491 81.2234 40.8926 81.4303 41.0395C81.6372 41.1863 80.8663 41.1429 80.8663 40.936C80.8663 40.7291 80.449 40.5388 80.3456 40.6223C80.2421 40.6857 80.0752 40.3085 80.0752 40.3085C79.7014 39.9113 78.5132 40.3486 78.5132 40.3486L78.3463 40.9126C77.9725 40.9761 77.7222 41.6202 77.7222 41.6202C77.4084 41.7237 77.1581 42.1209 77.2649 42.2243C77.3717 42.3278 77.098 42.3712 77.098 42.3712V43.1422L76.9311 43.3925L76.9712 44.2269C77.1781 44.2269 77.1381 44.6241 77.1381 44.6241C76.7843 44.6642 76.8677 45.1248 76.8677 45.1248L76.1401 45.3751L75.9933 45.582L75.0988 45.542L74.8484 45.7923L74.5981 45.542H72.8692L72.8058 45.3751L72.452 45.3117L72.4119 44.9145L71.8913 44.9545L71.7878 45.1615L71.2237 45.2015C71.2638 45.5553 70.6597 46.076 70.5996 45.9292C70.5362 45.7823 70.1423 45.4085 70.3292 45.325C70.4961 45.2616 70.9534 45.1782 70.9534 45.1782V44.9279L69.6617 44.8878L69.5149 45.0947L68.9942 45.1348V45.6989L68.7438 45.7623C68.577 45.8657 68.7839 46.2629 68.7839 46.2629C69.0342 46.5132 68.7438 46.8871 68.7438 46.8871C68.5369 47.094 68.9107 47.4912 68.9107 47.4912C69.1811 47.5546 68.7438 47.7615 68.7438 47.7615C68.8073 48.1153 69.0142 48.2188 69.0142 48.2188C68.8073 48.5726 69.161 48.7395 69.161 48.7395L69.2011 49.3436L69.4514 49.4904V49.8876L69.5983 50.1379H70.1623L70.1223 49.2635C69.6417 48.6994 70.5395 48.5559 70.5796 48.7628C70.6196 48.9698 70.9968 49.0766 70.9968 49.0766C71.0602 49.5972 71.6643 49.911 71.8312 49.3903C71.9981 48.8696 72.1449 49.1834 72.2484 49.4304C72.3519 49.6807 73.0194 50.2848 73.0194 50.2848H73.5401L73.6035 50.7855C74.1876 50.7454 74.3745 50.8255 74.6048 51.6199C74.8551 52.4309 75.4993 52.6412 75.4993 52.6412L75.9799 52.6011C75.9799 52.1839 76.4605 52.6646 76.4605 52.8915C76.4605 53.0985 77.3984 53.9128 77.3984 53.9128L78.3363 54.1198L79.2108 54.8274L79.8783 54.7639H80.1487C80.3155 54.1598 81.15 54.804 81.2334 55.0143C81.2968 55.2212 81.8576 55.5783 81.921 55.4115C81.9844 55.2446 82.3782 55.348 82.4416 55.8687C82.505 56.3894 82.7554 56.2859 82.7554 56.2859L84.7346 56.2459L85.4222 55.6418L87.1945 55.6017C88.089 55.5616 87.5483 54.3301 87.3613 54.3301C87.0476 54.0797 87.4648 53.0584 87.4648 53.0584L84.9449 50.7054C84.3608 50.7054 84.8815 49.8509 84.8815 49.8509C85.3387 49.5605 84.778 49.1233 84.778 49.1233C84.8414 48.7061 84.5277 48.2054 84.5277 48.2054C83.9035 47.7882 84.0704 46.9772 84.0704 46.9772V46.4131C83.5497 45.9125 84.2773 45.8491 84.2773 45.8491C84.5277 45.4318 84.1105 45.1214 84.1105 45.1214L84.0704 44.6642L83.5064 44.6007L83.4429 42.9553L82.1946 41.163C81.9443 41.0995 82.1313 40.6623 82.1313 40.6623C82.445 40.4954 82.0678 40.0582 82.0678 40.0582L82.0278 39.2872L82.7554 39.2238L82.9223 38.9534H83.276L83.236 38.0356C83.4029 37.5783 83.8201 37.8286 83.8201 37.8286L84.3007 37.8687L84.5711 37.348L84.6345 36.9308L84.2606 36.8908C83.8434 36.6404 84.0537 35.7226 84.0537 35.7226C84.7212 34.7446 85.4689 35.3054 85.4689 35.3054L85.9495 35.2653C86.6771 35.766 86.0129 36.6604 86.0129 36.6604C85.8661 36.8674 85.9495 37.5349 85.9495 37.5349L86.1164 38.6597L85.6591 39.0569C85.2853 39.2638 85.2853 39.7645 85.6992 39.8679C85.9695 39.908 85.8661 40.5755 85.4489 40.1183C84.8247 40.1183 85.8026 40.6823 85.5123 40.5355C86.1364 40.8492 85.9929 40.2651 85.9929 40.2651L86.8273 39.5976C87.1411 39.3473 87.7018 40.1183 87.7018 40.2217C87.7018 40.3252 89.0769 40.2618 89.0769 40.2618C89.4507 40.5121 89.5976 41.1363 89.5976 41.1363C89.9714 40.6356 90.7858 41.0962 90.1817 41.3866C90.7458 41.7404 90.7457 42.0541 90.7457 42.0541C91.203 41.9073 91.203 42.261 91.203 42.3678C91.203 42.4747 91.3499 41.8472 91.3499 41.8472C90.8292 41.45 92.0374 41.3265 91.7037 42.0141L91.4967 42.3278L91.8505 42.5981L91.8906 43.4092C92.6616 43.3458 92.4546 42.3879 92.4546 42.3879L92.8084 42.3245C92.8084 42.0107 93.0588 42.1776 93.0588 42.1776C92.8084 40.9894 93.6228 40.7825 93.6228 40.7825C94.0801 40.679 94.1035 39.7211 94.1035 39.7211C93.7897 39.5742 93.9566 39.0969 94.3104 39.5141C94.6642 39.9314 94.1035 38.6597 94.1035 38.6597L93.8331 38.4094L93.4593 38.3693L93.4192 37.9721H92.7951L92.6916 38.4728L92.4613 38.5763L92.3979 38.4294L92.2944 38.8266H91.6703L91.6302 38.4094L92.004 38.3059L92.1509 38.099L92.2544 37.5349H92.7116L93.2957 37.368C93.3358 36.7639 93.6495 36.9108 93.6495 36.9108L93.8564 37.0777L94.1702 37.328L94.2102 37.5349L94.0033 37.6384L93.9633 37.9288L94.0667 38.3259H94.3371C94.4405 37.7619 95.1715 37.7619 95.3784 38.119L95.5854 37.6184C95.1047 37.368 95.5854 36.9942 95.7089 37.1611C95.8557 37.328 96.1661 36.7038 96.1661 36.7038C96.1661 36.7038 96.4164 37.0176 96.1661 36.6004C95.9158 36.1832 96.333 35.9762 96.333 35.9762C96.2696 35.559 96.7903 35.6224 96.7903 35.6224L96.8303 35.0584L96.3497 35.0183C96.2462 35.519 95.829 35.0817 96.0359 34.9783C96.2429 34.8748 96.4531 34.6645 96.4531 34.6645V34.3107L96.6601 34.2473L96.7001 33.8935H97.2208L97.6781 33.6866L97.7815 33.5197L98.2622 33.4797L98.9497 32.8555L98.8863 32.5852C98.4691 32.5852 98.8863 32.2714 98.8863 32.2714L98.9264 31.6873L98.913 31.684Z" fill="white"/>
<path d="M84.9551 38.6431L84.331 38.5797L84.371 38.83H84.5379C84.8082 39.3307 84.5779 40.5189 84.5779 40.5189C84.5779 40.5189 84.1607 40.559 84.0973 40.352C84.0339 40.1451 83.847 40.8093 83.9939 40.9161C84.1407 41.0196 84.618 40.9161 84.6614 41.3133C84.7048 41.7105 84.9751 41.0629 84.9751 41.0629L84.9551 38.6465V38.6431Z" fill="white"/>
<path d="M84.3308 41.4968V42.3312L84.8715 43.0788L85.0784 42.5815L85.1618 42.2678L84.9115 42.1643L84.9549 41.6436L85.1618 41.6002L85.1852 41.3499L84.6645 41.7037L84.3308 41.4968Z" fill="white"/>
<path d="M85.2254 43.8506V43.4961L84.9745 43.5396L84.9545 43.8105L85.2254 43.8506Z" fill="white"/>
<path d="M84.912 45.5391V45.2883L84.621 45.3285V45.5793L84.912 45.5391Z" fill="white"/>
<path d="M85.3289 44.4545C85.4125 44.4545 85.4761 44.391 85.4761 44.3074C85.4761 44.2238 85.4125 44.1602 85.3289 44.1602C85.2453 44.1602 85.1817 44.2238 85.1817 44.3074C85.1817 44.391 85.2453 44.4545 85.3289 44.4545Z" fill="white"/>
<path d="M85.5592 45.1854C85.6405 45.1854 85.7064 45.1195 85.7064 45.0383C85.7064 44.957 85.6405 44.8911 85.5592 44.8911C85.4779 44.8911 85.4121 44.957 85.4121 45.0383C85.4121 45.1195 85.4779 45.1854 85.5592 45.1854Z" fill="white"/>
<path d="M85.5793 41.1669C85.6606 41.1669 85.7265 41.101 85.7265 41.0197C85.7265 40.9385 85.6606 40.8726 85.5793 40.8726C85.4981 40.8726 85.4322 40.9385 85.4322 41.0197C85.4322 41.101 85.4981 41.1669 85.5793 41.1669Z" fill="white"/>
<path d="M96.6833 36.2467H96.8902L96.9336 36.477L96.7867 36.6004L96.7233 36.7907L96.4529 36.8508L95.8288 37.4549L95.7854 37.7252L95.6185 37.9756L95.4116 38.4962L94.684 38.5396L94.5371 39.1638L94.6406 39.7045L95.2648 39.9548L95.3282 39.601L95.5384 39.4975L95.5785 39.1437L95.7254 38.8934L95.9323 38.6431L95.9957 38.3727L96.3495 38.1625L96.7667 38.079L96.9336 37.8721L96.9936 37.4549L97.037 37.1445L97.1839 36.9142L97.5978 36.7473V36.0798H97.3909L97.3475 35.8294L96.9736 35.7894L96.8902 35.9763H96.7233L96.6833 36.2467Z" fill="white"/>
<path d="M98.3091 38.2258V37.7251L98.2457 37.2679L97.725 37.0176L97.3512 37.3714L97.2878 37.872V38.1857L96.934 38.2492L96.8706 39.2071L96.6002 39.3105L96.6403 39.6643L95.8927 39.8713L95.8292 40.3285L95.5589 40.4954L95.412 40.9126L95.2451 41.9339C95.2451 41.9339 95.5589 42.5381 95.7258 42.2477C95.8927 41.9773 96.183 41.9339 96.183 41.9339L96.2865 41.6836L97.2244 41.7237C97.2878 41.3265 97.745 41.4733 97.745 41.6602C97.745 41.8271 98.0988 41.7003 98.0988 41.7003L98.3492 41.3031H98.723L98.763 40.8859L98.9299 40.7824V40.1583C99.494 39.9914 99.4105 39.4507 99.4105 39.4507L99.5574 39.2838L99.494 39.0335C99.2236 38.93 99.3471 38.6797 99.534 38.7431C99.7009 38.8065 99.2837 38.4294 99.2837 38.4294C99.0768 38.5963 98.9099 38.2225 98.9099 38.2225H98.3058L98.3091 38.2258Z" fill="white"/>
<path d="M98.8697 42.4747C98.8296 42.8919 98.3056 43.0388 98.3056 43.0388L97.9318 42.9353L97.7249 42.7684L97.6848 42.2678L97.9986 42.2277L98.062 42.4347L98.873 42.4747H98.8697Z" fill="white"/>
<path d="M100.746 40.2252C100.829 40.5389 100.809 39.7245 100.952 39.7679C101.096 39.8113 100.993 39.2673 100.993 39.2673L100.368 39.7245C100.659 39.7646 100.702 40.0783 100.742 40.2252H100.746Z" fill="white"/>
<path d="M102.578 38.3928C102.725 38.7065 102.681 39.1638 103.202 39.5176C103.369 39.641 103.098 39.8713 102.932 39.7679C102.765 39.6644 102.264 38.8934 102.264 38.8934V38.4362C102.367 38.1658 102.514 38.2693 102.578 38.3961V38.3928Z" fill="white"/>
<path d="M102.578 49.0803L102.681 49.184L102.785 49.3713L103.016 48.9766L102.829 48.9131L102.578 49.0803Z" fill="white"/>
<path d="M106.723 48.0193L106.994 47.8287L106.891 47.6615L106.6 47.8287L106.723 48.0193Z" fill="white"/>
<path d="M116.743 55.3514L117.056 55.4983L117.096 56.1024C117.513 56.5196 118.869 56.1658 118.869 56.0624C118.869 55.9589 118.805 54.7707 118.805 54.7707L118.638 54.6038L118.598 53.7293C118.745 53.2721 117.931 52.6046 117.871 52.7514C117.807 52.8983 117.35 52.7915 117.35 52.9183C117.35 53.0652 117.08 53.7527 117.203 54.003C117.35 54.2534 117.1 54.2534 117.056 54.5037C117.016 54.7106 116.659 55.1278 116.743 55.3581V55.3514Z" fill="white"/>
<path d="M115.972 53.9328C115.908 54.2032 115.658 54.35 115.514 54.2466C115.368 54.1431 115.681 54.4135 115.765 54.5603C115.828 54.7072 116.035 54.7072 116.119 54.5603C116.182 54.4135 116.159 54.1031 116.222 53.9562C116.285 53.8327 116.015 53.7893 115.972 53.9362V53.9328Z" fill="white"/>
<path d="M114.62 47.498H114.37V48.1655H114.62V47.498Z" fill="white"/>
<path d="M117.951 40.7258C117.804 40.5189 118.639 40.1617 118.785 40.579C118.932 40.9962 118.785 40.9328 118.639 40.8927C118.515 40.8526 118.158 40.9962 117.951 40.7258Z" fill="white"/>
<path d="M118.702 36.0197L118.659 36.2271L119.037 36.2906L119.077 36.0799L118.702 36.0197Z" fill="white"/>
<path d="M117.721 36.6238L117.744 36.6839L117.951 36.6005L117.868 36.4336L117.828 36.3101L117.721 36.3735L117.474 36.517L117.243 36.3735L117.14 36.5604L117.41 36.7273L117.474 36.7674L117.514 36.7273L117.721 36.6238Z" fill="white"/>
<path d="M119.036 28.0593H118.515C118.515 28.0593 118.682 28.1227 118.202 27.6621C117.721 27.2049 117.411 27.7656 117.411 27.7656L116.846 27.829V28.3931L116.576 28.4966L116.616 28.8503L116.99 28.8103C116.99 28.8103 116.99 29.2275 117.093 29.0606C117.197 28.8937 118.071 29.1007 117.988 29.5179C117.968 29.6848 118.862 30.142 118.759 30.7061C119.216 30.7695 119.113 31.2268 119.113 31.2268L119.697 31.2902L119.864 30.9364L120.031 30.9765V30.7695L119.657 30.666L119.593 29.5412L119.343 29.3744L119.406 29.084L119.136 28.9805L119.283 28.5233L119.033 28.066L119.036 28.0593Z" fill="white"/>
<path d="M120.554 31.6439L120.284 31.6039L119.66 31.7073L119.306 32.3749C119.306 32.3749 119.473 32.4783 119.62 32.7287C119.767 32.979 119.827 34.4175 119.413 34.6645C118.999 34.9115 119.453 34.768 119.453 34.768L119.39 35.539C119.493 35.8928 119.66 35.7059 119.763 35.539C119.867 35.3721 119.97 35.332 120.117 35.1418C120.264 34.9749 120.471 34.6411 120.491 34.4142C120.531 34.1639 120.698 33.79 120.594 33.6866C120.491 33.5831 120.698 33.0825 120.698 33.0825C120.698 33.0825 120.845 32.7921 120.698 32.5184C120.551 32.228 120.738 31.9143 120.845 31.7908L120.554 31.6439Z" fill="white"/>
<path d="M120.972 33.0831L120.992 32.8088L121.202 32.8322L121.182 33.1232L120.972 33.0831Z" fill="white"/>
<path d="M120.952 34.0611L120.765 33.9575L120.868 33.7468L121.055 33.8538L120.952 34.0611Z" fill="white"/>
<path d="M120.658 31.2701L120.511 30.9564C120.511 30.9564 120.511 30.6861 120.574 30.5392C120.638 30.3924 120.428 30.2689 120.324 30.2255C120.221 30.1854 120.261 29.9117 120.221 29.7682C120.181 29.6247 119.95 29.5179 119.95 29.5179C119.95 29.5179 119.887 28.9972 119.887 28.8937C119.887 28.7903 119.573 28.6434 119.68 28.5399C119.783 28.4365 119.847 28.2896 119.95 28.2262C120.054 28.1628 119.847 27.6621 120.014 27.7689C120.181 27.8757 120.181 28.0593 120.264 28.1861C120.327 28.333 120.224 28.8103 120.411 28.9138C120.578 29.0172 120.371 29.371 120.661 29.371C120.931 29.371 120.765 30.0386 120.765 30.0386C120.765 30.0386 120.701 30.5392 120.868 30.5592C121.035 30.5993 120.932 31.4337 120.932 31.4337L120.661 31.2668L120.658 31.2701Z" fill="white"/>
<path d="M118.408 25.5828C118.512 25.7296 118.722 25.8331 118.722 25.9799C118.722 26.1268 118.658 26.2303 118.869 26.2503C119.076 26.2903 119.223 26.2102 119.286 26.3971C119.349 26.564 119.349 26.8544 119.326 27.0013C119.286 27.1481 119.366 27.3551 119.533 27.3551C119.7 27.3551 119.74 27.3951 119.74 27.5019C119.74 27.6087 119.947 27.1047 119.947 27.1047C119.78 26.9579 119.633 26.6475 119.633 26.6475C119.633 26.6475 119.466 26.1468 119.466 26.0834C119.466 26.02 119.216 25.9366 119.112 25.9165C119.009 25.8765 118.842 25.5627 118.842 25.5627L118.405 25.5828H118.408Z" fill="white"/>
<path d="M118.742 25.249C118.639 25.1021 118.535 24.9987 118.388 24.9353C118.242 24.8718 118.138 24.7884 118.015 24.7884C117.868 24.7884 117.744 24.6415 117.808 24.4747C117.871 24.3078 117.704 24.2243 117.704 24.0775C117.704 23.9306 117.808 23.9306 117.974 24.0374C118.141 24.1442 118.121 24.1843 118.245 24.3512C118.392 24.518 118.452 24.705 118.599 24.6649C118.745 24.6249 118.849 24.9786 118.972 24.8718C119.119 24.7684 119.076 25.1222 119.076 25.1222L118.742 25.2457V25.249Z" fill="white"/>
<path d="M114.7 29.2274C114.887 29.4144 113.659 29.3743 113.659 29.2274C113.659 29.0806 113.762 28.6033 114.076 28.7068C114.39 28.8102 114.43 28.0826 114.43 28.0826C114.43 28.0826 114.159 28.1227 114.39 27.9792C114.64 27.8323 114.39 27.6254 114.286 27.5219C114.183 27.4184 114.079 27.2315 114.079 27.2315H114.56C114.767 27.0847 114.83 26.4205 114.83 26.4205C115.247 26.5673 115.454 26.2736 115.454 26.2736C115.454 26.2736 115.518 26.4806 115.661 26.6708C115.808 26.8377 115.308 26.9211 115.494 27.0246C115.661 27.1281 115.745 27.4418 115.661 27.5453C115.598 27.6487 115.204 27.5853 115.204 27.4418C115.204 27.2983 115.057 27.6087 115.204 27.7956C115.351 27.9625 115.037 28.2128 114.954 28.2128C114.89 28.2128 114.433 28.2762 114.807 28.5032C115.181 28.7101 115.598 28.6066 115.598 28.6066C115.598 28.6066 115.912 28.5666 116.015 28.7535C116.119 28.9204 115.975 28.9604 115.808 28.9604C115.641 28.9604 114.807 28.897 114.807 28.897C114.807 28.897 114.6 29.1273 114.703 29.2308L114.7 29.2274Z" fill="white"/>
<path d="M112.474 29.5412C112.641 29.5012 113.058 29.4778 113.141 29.5813C113.205 29.6848 112.891 29.8316 112.891 29.8316L112.474 29.895C112.35 29.7282 112.307 29.5813 112.474 29.5412Z" fill="white"/>
<path d="M116.953 26.6041C117.223 26.4572 117.827 26.4572 117.787 26.2503C117.747 26.0434 118.141 25.98 118.141 25.98L118.245 26.3972L118.558 26.6041L118.598 27.0013C118.598 27.0013 118.702 26.9379 118.328 27.0413C117.954 27.1448 118.181 27.3117 118.181 27.3117L117.347 27.3517L117.243 26.9979L116.953 26.6008V26.6041Z" fill="white"/>
<path d="M115.598 24.6849C115.805 24.6849 115.535 25.496 116.079 25.4125C116.643 25.3491 116.119 25.6629 116.536 25.6829C116.953 25.7229 116.85 25.3691 116.993 25.1188C117.14 24.8685 117.057 24.7216 116.826 24.6616C116.659 24.6193 116.555 24.5014 116.513 24.3078C116.449 24.0374 116.159 23.954 116.159 23.954L116.055 23.5368L115.598 23.8071L115.141 24.4112C115.141 24.9119 115.391 24.6816 115.598 24.6816V24.6849Z" fill="white"/>
<path d="M116.513 27.6659L116.62 27.4552L116.807 27.5388L116.703 27.7696L116.513 27.6659Z" fill="white"/>
<path d="M116.366 27.3317H116.159V27.582H116.366V27.3317Z" fill="white"/>
<path d="M116.326 22.6457L116.369 22.9567L116.159 22.9801L116.119 22.6658L116.326 22.6457Z" fill="white"/>
<path d="M115.953 25.9166H115.744V26.0848H115.953V25.9166Z" fill="white"/>
<path d="M115.181 25.917L115.16 25.7063L115.515 25.6863L115.535 25.8936L115.181 25.917Z" fill="white"/>
<path d="M112.328 29.3117L112.14 29.2281L112.244 28.9772L112.431 29.0609L112.328 29.3117Z" fill="white"/>
<path d="M111.242 28.6639L111.222 28.4566L111.577 28.4164L111.6 28.6238L111.242 28.6639Z" fill="white"/>
<path d="M105.245 28.6033L104.474 28.6234L104.494 28.8303L105.245 28.8103V28.6033Z" fill="white"/>
<path d="M103.973 28.8945L103.889 28.5801L104.1 28.54L104.16 28.8543L103.973 28.8945Z" fill="white"/>
<path d="M103.83 29.1241L103.766 28.9138L103.87 28.8938L103.933 29.0807L103.83 29.1241Z" fill="white"/>
<path d="M105.558 28.5199L105.518 28.7702L105.892 28.8103C105.892 28.8103 106.059 28.9571 106.059 29.0606C106.059 29.164 106.309 29.2675 106.433 29.2675C106.58 29.2675 106.954 28.9771 106.954 28.9771C106.954 28.9771 107.12 28.4765 106.994 28.5199C106.847 28.5599 106.576 28.7702 106.536 28.5599C106.496 28.353 106.079 28.4565 106.079 28.4565L105.558 28.5199Z" fill="white"/>
<path d="M107.287 28.1428C107.287 28.2462 107.224 28.3931 107.434 28.4332C107.641 28.4732 108.018 28.2863 108.058 28.4966C108.098 28.7068 108.098 28.8504 108.372 28.9538C108.642 29.0573 108.829 29.1007 109.04 29.1007C109.25 29.1007 109.707 29.0373 109.707 29.0373C109.707 29.0373 110.208 29.1207 110.291 29.2042C110.665 29.6014 110.915 29.7048 111.019 29.5179C111.122 29.351 110.979 28.9538 110.955 28.8103C110.915 28.6635 110.435 27.9993 110.268 28.1428C110.101 28.2896 110.061 28.1428 109.747 28.2462C109.433 28.3497 108.769 28.2863 108.746 28.1428C108.706 27.9959 108.225 27.9358 108.225 27.789C108.225 27.6421 107.871 27.4753 107.911 27.6855C107.951 27.8958 107.661 27.9993 107.598 27.9358C107.494 27.8524 107.284 28.1428 107.284 28.1428H107.287Z" fill="white"/>
<path d="M115.244 23.6436L115.495 22.8726C115.141 22.8092 115.224 22.4153 115.224 22.4153C115.184 22.1016 114.704 21.7478 114.537 21.8513C114.37 21.9547 114.433 21.1237 114.433 21.1237C114.433 21.1237 114.747 20.9167 114.891 21.0202C115.037 21.1237 113.702 19.2713 113.432 19.4381C113.162 19.605 112.537 19.2713 112.557 18.9375C112.598 18.6238 111.309 17.5624 111.309 17.5624C111.309 17.5624 110.892 17.292 110.829 17.499C110.765 17.7059 110.622 17.8527 110.829 17.9562C111.036 18.0597 110.995 17.7893 111.246 18.0196C111.496 18.27 111.933 18.5837 111.766 18.7906C111.6 18.9976 111.393 19.081 111.393 19.081L111.643 19.3714H112.017L112.08 19.9755C112.08 19.9755 112.497 20.1824 112.601 20.4328C112.704 20.6831 112.704 20.8299 112.601 20.9534C112.497 21.1003 112.287 21.3506 112.331 21.5776C112.371 21.8279 112.644 21.9314 112.644 21.9314L112.915 21.9714L113.122 22.0749V22.5322C113.392 22.4687 113.849 22.8459 113.809 23.0962C113.769 23.3465 113.873 23.1997 114.226 23.45C114.58 23.7003 114.477 23.7404 114.707 23.9073C114.937 24.0541 115.144 23.9473 115.248 23.6369L115.244 23.6436Z" fill="white"/>
<path d="M109.537 18.854C109.497 18.7072 109.434 18.2299 109.641 18.2499C109.847 18.29 109.704 18.2499 109.954 18.3534C110.205 18.4569 110.225 18.1865 110.225 18.1865H110.598L111.079 18.5837L111.016 18.8974L110.662 18.9375C110.495 18.6671 110.141 18.7706 110.205 19.0009C110.268 19.2512 110.038 19.7085 109.891 19.7285C109.744 19.7686 109.307 19.7686 109.327 19.5616C109.39 19.3547 109.534 18.854 109.534 18.854H109.537Z" fill="white"/>
<path d="M109.266 17.9162V17.6459C109.266 17.6459 109.226 17.3755 109.059 17.3755C108.892 17.3755 108.579 17.1686 108.642 17.0217C108.705 16.8749 108.058 16.7314 108.058 16.7314C108.058 16.7314 107.474 16.1673 107.684 16.2307C107.891 16.2941 107.788 15.9804 107.788 15.9804C107.788 15.9804 107.37 16.0438 107.267 16.0204C107.163 15.9804 107.204 15.6666 107.204 15.6666C107.204 15.6666 106.786 15.5632 106.786 15.6666C106.786 15.7701 106.933 15.7701 106.993 15.9804C107.057 16.1873 107.033 16.5444 107.347 16.6045C107.661 16.6679 107.721 16.7514 107.764 16.8949C107.804 17.0418 108.181 17.0618 108.181 17.0618L108.452 17.2086L109.263 17.9162H109.266Z" fill="white"/>
<path d="M105.516 14.3322L105.412 14.0413L105.141 13.9777V14.2921L105.516 14.3322Z" fill="white"/>
<path d="M105.411 12.8529C105.058 12.5826 105.892 13.0598 105.892 13.0598C106.162 13.0598 106.349 13.2668 106.349 13.3736C106.349 13.4804 106.723 13.437 106.723 13.437L106.763 13.1867L106.493 12.8329L106.242 12.666C106.242 12.666 105.869 12.6259 105.869 12.5191C105.869 12.4357 105.555 12.9564 105.411 12.8529Z" fill="white"/>
<path d="M111.786 13.0632C111.683 13.3769 111.64 13.7908 111.473 13.7908C111.306 13.7908 111.369 14.2481 111.369 14.2481C111.369 14.2481 111.826 14.2481 111.953 14.2881C112.1 14.3282 112.1 14.6853 112.1 14.6853C112.621 14.6452 112.828 15.3528 112.768 15.5397C112.704 15.7066 112.975 15.7066 112.975 15.7066C112.975 15.7066 112.975 16.2707 112.911 16.4142C112.848 16.5577 113.368 16.6645 113.495 16.8715C113.642 17.0784 113.432 17.7893 113.328 17.8294C113.225 17.8694 113.599 17.9762 113.579 18.1431C113.539 18.31 113.682 18.1431 113.726 18.4335C113.766 18.7038 113.829 19.308 113.829 19.308L114.31 19.348C114.373 18.8907 115.268 18.8674 115.414 18.9308C115.999 19.1377 116.456 20.0556 116.456 20.2625C116.456 20.4695 116.082 20.5128 116.082 20.5128L116.145 21.5342C116.729 21.7011 117.23 22.5555 117.147 22.7024C117.083 22.8492 117.564 22.8058 117.564 22.8058C117.627 22.1817 118.231 22.3886 118.251 22.5989C118.292 22.8058 118.398 23.2664 118.398 23.2664L118.565 23.5802L118.815 23.8305L119.189 23.7904L119.293 23.9974L119.75 24.0608C119.75 24.0608 120.124 24.478 120.167 24.5815C120.211 24.6849 120.731 24.6449 120.855 24.6849C121.002 24.725 121.209 24.8318 121.229 24.9987C121.269 25.1656 121.479 25.4559 121.479 25.4559C121.479 25.4559 121.896 25.5594 121.936 25.7063C121.976 25.8531 122.143 26.1635 122.143 26.1635L122.497 26.4539L122.537 26.7676L122.911 26.8077L123.014 27.2249L123.638 27.1848L123.992 26.9345C124.449 26.6842 124.763 26.3705 124.783 26.2269C124.823 26.0801 124.887 25.5594 125.241 25.6629C125.594 25.7663 125.344 24.8919 125.344 24.8919C125.344 24.8919 124.863 24.5381 124.887 24.3712C124.927 24.2043 124.406 23.8505 124.429 23.7037C124.47 23.5568 123.972 23.2864 124.012 23.1396C124.052 22.9927 123.762 22.6189 123.762 22.6189L123.241 22.1183L123.178 21.8045L122.761 21.7645L121.926 20.7432L121.966 20.4528L121.716 20.4127V20.0155L121.466 19.8687L121.092 19.8286L120.321 18.9942L120.257 18.597H119.884L119.947 17.8694C120.197 17.5557 120.05 16.9516 120.05 16.9516C120.05 16.9516 119.57 17.2019 119.323 17.0984C119.076 16.995 119.426 16.7446 119.426 16.7446V16.4743L119.219 16.2673C119.219 16.2673 118.635 16.3308 118.595 16.2273C118.555 16.1238 118.448 15.6632 118.448 15.6632L118.408 15.0591L118.158 14.9556L118.118 14.7487L117.744 14.7888V14.3715L117.537 14.3081L117.33 14.2047L117.29 13.7875L116.519 13.7474L116.269 13.3936L115.999 12.9764L115.124 12.913L114.917 12.7061L114.563 12.6426L114.313 12.5392L114.21 12.7061L113.542 12.7461L113.502 12.953C113.212 13.0999 111.836 12.953 111.793 13.0565L111.786 13.0632Z" fill="white"/>
<path d="M115.431 12.1453C115.368 11.8749 116.118 11.6246 116.305 11.8316C116.472 12.0385 116.973 12.0819 117.033 13.1232C117.053 13.4971 116.409 12.7261 116.409 12.7261L115.888 12.5592C115.598 12.4958 115.451 12.3289 115.431 12.142V12.1453Z" fill="white"/>
<path d="M105.265 12.5834L105.077 12.4998L105.225 12.1653L105.412 12.2723L105.265 12.5834Z" fill="white"/>
<path d="M103.472 9.12475L103.015 8.66749V8.2703L102.868 8.12345L102.721 7.6228L102.264 7.47594L101.807 7.64282L101.326 7.95656L100.805 8.01998L100.535 8.33372L101.64 8.43719L101.847 8.79098L102.638 8.8544L103.158 9.37507C103.639 9.58201 103.742 9.37507 103.472 9.12475Z" fill="white"/>
<path d="M103.412 7.39585C103.329 7.08211 102.892 7.79303 103.349 7.91653C103.806 8.06338 104.243 7.91653 104.243 7.91653L104.347 7.70959L106.076 7.74964C106.223 7.60279 106.283 7.39585 106.283 7.39585C106.283 7.39585 106.7 7.24899 106.867 7.33244C107.034 7.39585 106.907 6.83178 106.72 6.91523C106.553 6.97864 106.199 6.95528 106.199 6.95528H105.575C105.535 6.70495 104.991 6.80842 104.951 6.95528C104.931 7.07877 104.721 7.12216 104.721 7.12216L103.93 7.18558C103.846 7.39251 103.449 7.53937 103.409 7.39251L103.412 7.39585Z" fill="white"/>
<path d="M99.9741 13.3337C100.515 13.5005 100.702 13.3737 100.745 13.2302C100.788 13.0867 100.809 13.0633 101.015 13.0232C101.222 12.9832 100.975 12.566 100.765 12.606C100.555 12.6461 100.348 12.5426 100.308 12.3557C100.268 12.1888 99.9341 11.7316 99.8907 12.0854C99.8473 12.4392 99.6404 12.4391 99.6838 12.6895C99.7472 12.9198 99.8506 13.2936 99.9741 13.3337Z" fill="white"/>
<path d="M95.9959 13.7274C95.9758 13.6039 96.6834 13.5806 96.7869 13.6874C96.8904 13.7909 96.827 13.9778 97.1407 13.9778C97.4544 13.9778 97.3076 14.1847 97.2875 14.2915C97.2475 14.395 96.9137 14.3549 96.8703 14.2515C96.827 14.148 96.3063 14.1046 96.3063 14.1046C96.3063 14.1046 96.0359 13.8977 95.9925 13.7308L95.9959 13.7274Z" fill="white"/>
<path d="M107.494 6.7083L107.557 6.64489L107.911 6.35451L107.764 6.18763L107.494 6.41793L107.327 6.23102L107.18 6.39456L107.494 6.7083Z" fill="white"/>
<path d="M105.869 5.81382L105.912 5.77043L106.306 5.5201L106.182 5.35322L105.869 5.56349L105.642 5.41663L105.535 5.60354L105.805 5.77043L105.869 5.81382Z" fill="white"/>
<path d="M104.62 12.9798L104.847 13.3335L105.014 13.2067L104.787 12.8329L104.744 12.7928H104.704L104.35 12.7495L104.327 12.9564L104.62 12.9798Z" fill="white"/>
<path d="M93.2856 22.5822L93.3256 22.9794H93.8463C94.0532 22.9794 93.6794 22.7291 93.6794 22.7291C93.6794 22.7291 93.2622 22.7691 93.2822 22.5822H93.2856Z" fill="white"/>
<path d="M93.9532 22.6025L94.0803 22.4353L94.2876 22.6025L94.1639 22.7698L93.9532 22.6025Z" fill="white"/>
<path d="M87.6419 16.0206L87.7891 15.8735L87.9965 16.0842L87.8493 16.228L87.6419 16.0206Z" fill="white"/>
<path d="M97.4112 61.4535L97.5584 61.6006L97.8293 61.3297L97.7056 61.2461L97.3477 61.0789L97.2675 61.2662L97.4748 61.3699L97.4112 61.4535Z" fill="white"/>
<path d="M94.6844 58.9133L94.9352 59.0805L95.0589 58.9133L94.9118 58.8096L95.0155 58.726L94.8917 58.5588L94.6844 58.7461L94.5773 58.8297L94.6844 58.9133Z" fill="white"/>
<path d="M120.785 52.0571C120.744 51.8702 120.534 51.8068 120.514 51.8068L120.451 52.0137C120.471 52.0137 120.491 52.0338 120.514 52.0538L120.554 52.2407C120.534 52.2607 120.514 52.2807 120.514 52.3041L120.661 52.451C120.764 52.2841 120.808 52.1806 120.785 52.0538V52.0571Z" fill="white"/>
<path d="M121.099 51.3936L120.765 51.3702L120.785 51.0592L121.119 51.0993L121.099 51.3936Z" fill="white"/>
<path d="M129.116 48.6627C129.263 48.5793 129.45 48.3924 129.43 48.7862C129.409 49.1834 129.243 49.0566 129.116 49.1834C128.992 49.3069 128.909 48.7862 129.116 48.6627Z" fill="white"/>
<path d="M130.888 47.1646V47.1245C130.888 47.061 130.868 46.9774 130.825 46.8937L130.637 46.9974C130.657 47.0376 130.657 47.1011 130.678 47.1446C130.678 47.2081 130.698 47.2683 130.741 47.3118C130.781 47.3319 130.825 47.3519 130.888 47.3319L130.848 47.1245C130.848 47.1446 130.868 47.1446 130.888 47.1646Z" fill="white"/>
<path d="M130.431 47.3312C130.494 47.5386 130.554 47.7493 130.554 47.7693L130.742 47.6857C130.742 47.6857 130.658 47.4784 130.618 47.2677L130.431 47.3312Z" fill="white"/>
<path d="M129.66 48.1621L129.453 48.142C129.433 48.3092 129.473 48.5166 129.64 48.54L129.68 48.3326C129.68 48.3326 129.66 48.249 129.66 48.1654V48.1621Z" fill="white"/>
<path d="M128.762 43.9766C128.742 43.9132 128.722 43.8531 128.658 43.8297C128.512 43.7663 128.241 43.8698 128.118 43.9532L128.241 44.1201C128.365 44.0367 128.555 43.9966 128.575 44.0166V43.9966L128.762 43.9766Z" fill="white"/>
<path d="M119.159 32.7488C119.013 32.8956 118.702 32.9557 118.702 32.9557L118.599 33.3529L118.432 33.4998C118.432 33.4998 118.472 33.6032 118.432 33.8535C118.392 34.1039 118.078 34.2507 118.078 34.2507L117.931 34.4176C117.931 34.4176 117.097 34.4577 116.993 34.4176C116.679 34.2708 116.89 33.8535 117.097 33.8969C117.304 33.9403 117.057 33.2928 117.057 33.2928L117.327 33.2528C117.327 33.2528 117.367 32.6286 117.474 32.6286C117.581 32.6286 117.434 32.4217 117.307 32.3149C117.16 32.2114 116.993 31.8576 116.85 31.8977C116.706 31.9377 116.162 31.8977 116.162 31.8977L116.059 32.1046L115.685 32.168C115.685 32.168 115.725 32.4384 115.645 32.5218C115.438 32.7721 114.643 33.2928 114.977 32.4183L115.081 32.2114V31.8977L114.457 31.8576C114.457 31.8576 114.143 31.7541 114.143 31.6073C114.143 31.4604 114.103 31.2935 114.103 31.2935L113.375 30.4825L112.501 30.379L112.437 30.2121L111.917 30.1487C111.293 29.835 110.728 30.1087 110.832 30.6494C110.935 31.1701 111.102 31.377 110.768 31.377C110.415 31.377 110.351 31.1066 110.351 31.1066C110.351 31.1066 110.081 31.0032 110.081 31.1467C110.081 31.2902 109.977 31.5639 110.081 31.7108C110.184 31.8576 109.934 32.0645 109.831 31.9611C109.727 31.8576 109.457 31.5439 109.517 31.4404C109.58 31.3369 109.036 30.6694 109.58 30.5659C110.144 30.4625 109.54 30.1487 109.747 30.0653L110.017 29.9184H110.288L110.455 29.7716L109.997 29.7082L109.727 29.6681L109.206 29.628C108.686 29.9818 108.582 30.3991 108.582 30.3991C108.312 30.9197 107.644 30.1921 107.895 29.8984C108.145 29.6047 107.124 29.8583 106.957 30.0019C106.79 30.1487 106.269 30.0653 106.269 30.0653C106.166 30.379 105.685 30.0252 105.812 29.815C105.959 29.608 105.959 29.4612 105.959 29.4612L105.792 29.4211L105.585 29.8183C105.104 29.8183 104.961 30.0886 105.064 30.2756C105.168 30.4424 104.918 30.2355 104.857 30.4825C104.794 30.7328 104.898 30.7328 105.108 30.8363C105.315 30.9398 105.004 30.9398 105.148 31.1066C105.295 31.2735 105.712 31.1066 105.462 31.357C105.211 31.6073 104.734 31.5038 104.734 31.5038C104.694 31.8176 104.046 31.7541 103.963 31.6507C103.9 31.5472 103.379 30.9231 103.379 30.9231L102.711 30.883C102.648 30.3824 103.025 30.6327 103.169 30.2589C103.315 29.8617 103.376 29.2376 103.376 29.2376C103.376 29.2376 102.811 29.1975 102.791 29.3844C102.751 29.5513 102.418 29.6748 102.418 29.6748C102.418 29.6748 102.147 29.7783 102.251 29.9251C102.354 30.072 102.044 30.132 102.044 30.132C102.044 30.132 102.107 30.3623 102.004 30.4458C101.733 30.7362 101.026 30.4858 100.919 30.3824L100.502 30.2155L100.085 29.9451L99.604 30.1521L99.4571 30.2989H98.9365L98.8964 30.7161L99.8343 30.8196L99.8977 31.6941L99.5239 31.5706H99.2736L99.1701 31.3636L98.9631 31.3236V32.0946L99.1701 32.2615L99.337 32.4284L99.6908 32.4684L99.7542 32.8856L100.629 32.9257L100.732 33.0925L101.253 33.1326L102.254 34.1539L102.191 34.4677L102.024 34.5711C102.087 34.8215 101.567 34.6746 101.567 34.6746V34.8815L101.817 34.9216L102.067 35.0684L102.421 34.4643C102.795 34.214 102.985 34.5678 103.005 34.7781C103.045 34.985 102.838 34.9449 102.838 34.9449V35.4456L103.045 35.509C103.399 35.9262 102.898 36.1765 102.898 36.1765L102.795 36.5303C102.691 36.8441 102.314 36.7807 102.314 36.7807L102.167 36.9876L101.75 37.0911L102.561 37.1945C102.645 36.9042 102.852 36.8407 102.958 36.9876C103.062 37.1345 103.062 37.3848 103.062 37.3848L103.269 37.4248L103.229 37.822L103.436 37.8854V39.0102L103.686 39.2806C104.103 39.1137 104.103 39.384 103.893 39.5309C103.683 39.6778 103.829 40.3019 103.829 40.3019L103.663 40.4688V40.7592L103.456 40.906V41.3032C103.102 41.1363 102.685 41.1997 102.581 41.3032C102.267 41.0963 101.603 41.1564 101.603 41.3433C101.81 41.6136 101.353 41.6971 101.353 41.6971L101.103 41.9674C101.269 42.3212 100.936 42.3646 100.936 42.3646V43.0321L100.519 43.4293L100.559 44.3472C100.559 44.5975 101.079 44.6175 101.183 44.494C101.286 44.3472 101.703 44.7844 101.703 44.7844H102.017L102.081 44.1603L101.874 44.0568V43.0354L102.227 42.6383C102.645 42.4914 102.498 43.5561 102.498 43.6596C102.538 44.0568 102.705 44.0134 102.872 43.93C103.225 43.7831 102.935 44.3271 102.665 44.2838C102.394 44.2437 102.561 44.6375 102.561 44.6375L102.728 44.701L102.414 44.9513L102.144 45.265L101.79 45.1616L101.373 45.1215L101.226 44.8712L100.976 44.8311L100.936 45.3318L100.769 45.5387L100.352 45.9559C100.916 45.9559 100.288 46.3531 100.145 46.3531C100.458 46.4566 100.105 46.7703 99.3103 46.52V46.7703L99.0399 46.8104L99.2902 47.0807L99.5606 47.1208L99.4571 47.7249C99.4571 48.1821 98.3123 47.8717 98.2088 47.7649L98.1688 48.3891L97.9618 48.4291L98.0019 48.8463L97.9618 49.4504L98.3357 49.387V49.6374L99.2736 49.6774L100.629 48.2389L101.42 48.072C101.483 47.7182 101.837 48.1354 101.837 48.1354C102.191 48.0954 102.254 48.3423 102.254 48.3423L102.711 48.4058C103.085 48.5092 102.858 48.5526 102.878 48.6961C102.918 48.9031 103.085 48.843 103.085 48.843L103.149 48.3857L103.356 48.4258L103.149 48.1755L102.775 48.0086L102.358 47.8417C102.087 47.4445 102.421 47.528 102.711 47.5713H103.169C103.169 47.5713 103.689 48.2789 103.689 48.4458C103.689 48.6127 103.94 48.6527 103.94 48.6527L104.253 48.6127L104.357 48.863H104.671L104.774 49.07H105.398L105.438 48.7562L104.854 48.6527L104.814 48.299L104.397 48.1955C104.25 47.5914 104.5 47.4245 104.667 47.6948L104.874 47.7349L104.811 47.2142L105.061 47.1508L104.998 46.4232L104.791 46.3598V46.1094L105.665 46.1495C105.602 45.6922 105.705 45.482 105.705 45.482H105.956L105.996 45.6488L107.057 45.7523L107.808 44.8979C107.768 44.8344 107.891 44.7944 107.808 44.711C107.704 44.6075 107.558 44.711 107.391 44.6075C107.224 44.504 107.391 43.8999 107.351 43.7731C107.311 43.6262 107.935 43.4193 107.831 43.733C107.728 44.0468 107.831 44.1903 107.831 44.1903C108.289 43.7731 108.666 44.2303 108.622 44.3371C108.579 44.4439 108.873 44.5441 109.04 44.4406C109.206 44.3371 109.413 44.7543 109.353 44.9613C109.293 45.1682 108.666 45.1282 108.626 44.9212C108.586 44.7143 108.479 44.7744 108.419 44.8812C108.355 44.9847 108.045 45.0481 107.855 44.9446C107.815 44.9246 107.815 44.9045 107.791 44.8812L107.04 45.7356H107.08C107.498 45.986 107.287 46.2997 107.144 46.3598C106.997 46.4232 106.77 46.4232 106.77 46.4232L106.707 46.57L105.812 46.6335L105.749 46.9873C105.291 46.9238 105.124 47.4045 105.228 47.6548C105.331 47.9051 105.228 48.112 105.228 48.112L105.602 48.2789L106.082 48.1321C106.146 47.7783 106.456 47.7149 106.75 47.5079C107.02 47.301 107.478 47.9051 107.334 48.1755C107.187 48.4458 107.187 48.5726 107.187 48.5726L107.227 48.8864L106.873 49.0332L106.603 49.1801L106.563 49.347H105.625L105.458 49.5139L105.001 49.5539L104.854 49.7608L104.54 49.8009C104.54 49.8009 104.02 50.0512 104.227 50.3216C104.434 50.612 103.352 50.5719 103.122 50.1747C103.058 50.5285 102.665 50.2148 102.665 50.2148L102.291 50.1113L102.251 49.5906C102.187 49.2368 101.523 49.2368 101.563 49.4872C101.603 49.7375 100.315 49.5906 100.315 49.5906L99.8977 49.7976L99.5239 50.0279L99.4838 50.1947L98.8597 50.2582L98.5893 50.405L98.4859 50.1981H98.2155L97.9451 50.5953C97.2175 50.6353 96.53 51.0525 96.5901 51.2194C96.6535 51.3863 96.3197 51.5732 96.3197 51.5732L96.006 51.6767L95.799 51.9904L95.3818 52.1373L95.3184 52.8649L95.1115 53.0117V53.3255L94.8611 53.3889V53.5558L94.5074 53.5958L94.7143 54.1165L94.9846 54.2634C95.4653 54.3268 95.255 54.9309 95.255 54.9309L95.5253 54.9709L95.6722 55.3681L95.9425 55.9322C96.046 56.3494 96.3598 56.2459 96.5066 56.2226C96.6535 56.1825 96.777 56.6398 96.777 56.6398L98.1521 56.6798C98.1521 56.6798 98.0887 56.8267 98.319 56.8868C98.5693 56.9502 100.151 57.0336 100.215 56.9268C100.151 56.6131 101.089 56.5296 101.463 56.8234C101.837 57.0937 102.358 56.9268 102.358 56.9268L102.878 57.551L103.232 58.322L103.816 58.4889L104.233 58.5923L104.38 59.1964L104.694 59.2365L104.797 59.6337C105.171 59.904 104.694 60.5081 104.694 60.5081V61.2791L104.964 61.426L104.924 61.7164L105.381 62.1736L105.902 62.2137L107.214 63.6088L108.255 63.9226L108.422 64.4866L108.692 64.4466L108.899 64.2797L109.734 64.2396L110.151 63.8425L110.608 63.779L114.463 60.5081L114.109 60.3012V59.5302C114.734 59.0729 114.777 58.2586 114.173 58.1985C113.736 58.1351 113.923 57.6778 114.34 57.5944L114.59 57.4909V57.1772L115.381 56.4495V55.8855L113.652 54.4469C112.881 54.1766 113.652 52.4877 114.173 52.5111C114.694 52.5511 114.133 49.9077 114.133 49.9077L113.862 49.7608L113.926 48.9064H113.552L112.928 49.7175L112.761 50.2815C112.698 51.0091 110.552 50.8856 110.448 50.7822C110.345 50.6787 109.614 50.365 109.614 50.365C109.614 50.365 109.05 49.9077 108.946 50.0512C108.843 50.1947 108.362 49.8843 108.362 49.9878C108.362 50.0913 107.905 49.7375 107.905 49.7375L107.217 49.4872L107.738 49.3837L107.634 48.9665L108.529 49.4237C108.632 49.5706 109.093 49.5272 109.093 49.5272L109.24 49.6941C109.24 49.6941 109.51 49.654 109.697 49.861C109.864 50.0679 110.782 49.901 110.782 49.901L111.032 50.108L111.406 50.2548L112.491 50.2949L112.531 49.6273L112.738 49.4204L112.698 49.0032L112.948 48.7963V48.4425L113.155 48.3791L113.195 47.6081L113.362 47.568V45.8791L112.841 45.3785C112.801 45.5454 112.257 45.5454 112.257 45.5454C112.257 45.5454 112.11 45.7957 112.007 45.7957C111.903 45.7957 112.154 46.1094 112.07 46.3164C112.007 46.5233 111.716 46.5233 111.716 46.5233L111.196 46.6702L111.049 46.8371H110.485L110.421 46.3798L111.045 46.2129L111.399 46.046L111.566 45.6922C111.606 45.3384 112.023 45.3785 112.023 45.3785C112.023 45.3785 112.814 44.711 112.858 44.4006C112.901 44.0902 113.172 43.2124 113.649 43.2124H114.543C114.897 43.0655 114.794 42.6082 114.794 42.6082L115.251 42.5448L115.314 42.7951C115.314 42.7951 115.939 42.8586 116.002 42.7551C116.065 42.6516 116.209 42.4013 116.376 42.5048C116.543 42.6082 117.103 42.2544 117.103 42.2544C117.143 42.0041 117.998 42.1076 117.998 42.1076L118.101 41.7938C118.101 41.7938 117.517 40.9828 117.414 40.9828C117.31 40.9828 116.746 40.4821 116.686 40.6691C116.122 40.5222 116.165 39.7512 116.165 39.7512L115.959 39.2505C115.959 38.9602 115.438 38.3761 115.334 38.4395C114.814 38.0423 115.188 37.6051 115.334 37.565C115.481 37.525 115.815 37.0444 115.815 37.0444L115.982 36.5437L116.566 36.3768L116.629 35.9196L116.316 35.8795C116.316 35.8795 116.669 35.2553 116.836 35.2553C117.003 35.2553 118.148 35.2553 118.252 35.1919C118.355 35.1285 118.565 34.5678 118.565 34.4643C118.565 34.3609 118.836 34.3175 118.939 34.2974C119.043 34.2574 119.293 33.9837 119.356 33.8402C119.543 33.4864 119.316 32.6119 119.169 32.7554L119.159 32.7488Z" fill="white"/>
<path d="M99.9742 45.4118C100.014 45.3718 100.078 45.5787 100.181 45.5353C100.285 45.5153 100.328 45.7222 100.221 45.7222C100.114 45.7222 100.118 45.8457 100.118 45.9091C100.118 45.9726 100.118 46.096 100.034 46.1795C99.9508 46.2629 99.8874 46.1995 99.7839 46.1595C99.6805 46.096 99.6371 46.096 99.4936 46.096C99.3701 46.096 99.4736 46.303 99.4736 46.303C99.4736 46.303 98.9328 46.283 99.0363 46.1995C99.1398 46.1161 99.2432 46.096 99.1598 46.0326C99.0764 45.9692 99.1598 45.9292 99.1598 45.8257C99.1598 45.7222 99.4101 45.7623 99.3467 45.7022C99.2633 45.6188 99.3467 45.3284 99.4702 45.4953L99.5537 45.3084C99.4702 45.2249 99.5336 45.2049 99.3667 45.1415C99.2199 45.0781 99.3467 44.7676 99.3467 44.7676L99.3667 44.5607C99.4068 44.2904 99.9308 44.2703 99.9709 44.4973C99.9909 44.7276 99.9709 44.8945 99.9709 44.8945L100.118 44.9579C100.118 44.9579 100.098 45.1248 99.9709 45.1248C99.844 45.1248 99.9709 45.2082 99.8874 45.2917L99.9709 45.4151L99.9742 45.4118Z" fill="white"/>
<path d="M98.2655 45.6855C98.349 45.5186 98.5159 44.8511 98.7228 45.0613C98.9297 45.2716 99.0566 45.0613 99.0566 45.0613C99.0566 45.0613 99.16 45.1648 99.0966 45.3751C99.0566 45.582 98.9931 45.7923 98.8663 45.8323C98.7428 45.8524 98.636 45.9358 98.4691 45.9558C98.3456 45.9759 98.2622 45.6855 98.2622 45.6855H98.2655Z" fill="white"/>
<path d="M62.6942 94.9282C62.6942 95.3384 62.6007 95.7003 62.4137 96.0139C62.2328 96.3275 61.9704 96.5718 61.6266 96.7467C61.2889 96.9156 60.8969 97 60.4505 97H60.3329C59.8866 97 59.4946 96.9156 59.1568 96.7467C58.8251 96.5778 58.5657 96.3366 58.3788 96.0229C58.1918 95.7093 58.0983 95.3444 58.0983 94.9282V90.7033H58.9849V94.9101C58.9849 95.2962 59.1176 95.6068 59.383 95.842C59.6544 96.0772 59.9982 96.1948 60.4143 96.1948C60.8426 96.1948 61.1803 96.0772 61.4276 95.842C61.6809 95.6068 61.8076 95.2962 61.8076 94.9101V90.7033H62.6942V94.9282Z" fill="white"/>
<path d="M69.7728 90.7033V96.9095H69.0219L65.9911 92.368L65.964 92.377V96.9095H65.1588V90.7033H65.9368L68.9404 95.1906L68.9676 95.1816V90.7033H69.7728Z" fill="white"/>
<path d="M74.2788 90.7033V91.5085H73.5551V96.1044H74.2788V96.9095H71.9447V96.1044H72.6685V91.5085H71.9447V90.7033H74.2788Z" fill="white"/>
<path d="M80.6207 90.7033V91.5085H78.6756V96.9095H77.789V91.5085H75.8439V90.7033H80.6207Z" fill="white"/>
<path d="M86.6085 90.7033L86.4909 91.5085H83.424V93.336H86.2014V94.1412H83.424V96.1044H86.5452L86.6719 96.9095H82.5374V90.7033H86.6085Z" fill="white"/>
<path d="M90.9105 90.7033C91.4292 90.7033 91.8815 90.8179 92.2675 91.0471C92.6535 91.2702 92.9521 91.5929 93.1632 92.0151C93.3743 92.4313 93.4798 92.9228 93.4798 93.4898V94.1231C93.4798 94.69 93.3743 95.1846 93.1632 95.6068C92.9521 96.0229 92.6535 96.3456 92.2675 96.5748C91.8815 96.798 91.4292 96.9095 90.9105 96.9095H88.7573V90.7033H90.9105ZM89.6439 91.5085V96.1044H90.9105C91.4473 96.1044 91.8604 95.9385 92.1499 95.6068C92.4454 95.269 92.5932 94.7744 92.5932 94.1231V93.4898C92.5932 92.8505 92.4485 92.3619 92.159 92.0242C91.8755 91.6804 91.4593 91.5085 90.9105 91.5085H89.6439Z" fill="white"/>
<path d="M103.399 90.7033V96.9095H102.648L99.6175 92.368L99.5903 92.377V96.9095H98.7851V90.7033H99.5632L102.567 95.1906L102.594 95.1816V90.7033H103.399Z" fill="white"/>
<path d="M108.529 90.7033L110.954 96.9095H109.995L109.47 95.5615H106.503L105.987 96.9095H105.128L107.552 90.7033H108.529ZM108.023 91.7709H107.968L106.82 94.7563H109.163L108.023 91.7709Z" fill="white"/>
<path d="M116.853 90.7033V91.5085H114.908V96.9095H114.022V91.5085H112.077V90.7033H116.853Z" fill="white"/>
<path d="M120.751 90.7033V91.5085H120.028V96.1044H120.751V96.9095H118.417V96.1044H119.141V91.5085H118.417V90.7033H120.751Z" fill="white"/>
<path d="M125.211 90.6128C125.724 90.6128 126.173 90.7244 126.559 90.9476C126.945 91.1707 127.244 91.4934 127.455 91.9156C127.672 92.3318 127.781 92.8263 127.781 93.3993V94.2135C127.781 94.7865 127.672 95.2841 127.455 95.7063C127.244 96.1224 126.945 96.4421 126.559 96.6653C126.173 96.8884 125.724 97 125.211 97C124.699 97 124.249 96.8884 123.863 96.6653C123.477 96.4421 123.176 96.1224 122.959 95.7063C122.748 95.2841 122.642 94.7865 122.642 94.2135V93.3993C122.642 92.8263 122.748 92.3318 122.959 91.9156C123.176 91.4934 123.477 91.1707 123.863 90.9476C124.249 90.7244 124.699 90.6128 125.211 90.6128ZM125.211 91.418C124.681 91.418 124.268 91.5869 123.972 91.9247C123.676 92.2624 123.529 92.754 123.529 93.3993V94.2135C123.529 94.8589 123.67 95.3504 123.954 95.6882C124.243 96.0259 124.663 96.1948 125.211 96.1948C125.742 96.1948 126.155 96.029 126.451 95.6972C126.746 95.3595 126.894 94.8649 126.894 94.2135V93.3993C126.894 92.754 126.749 92.2624 126.46 91.9247C126.176 91.5869 125.76 91.418 125.211 91.418Z" fill="white"/>
<path d="M134.64 90.7033V96.9095H133.889L130.858 92.368L130.831 92.377V96.9095H130.026V90.7033H130.804L133.808 95.1906L133.835 95.1816V90.7033H134.64Z" fill="white"/>
<path d="M139.173 90.6128C139.855 90.6128 140.388 90.7636 140.774 91.0652C141.166 91.3667 141.362 91.795 141.362 92.3499V92.4584H140.476V92.3227C140.476 92.0332 140.358 91.8101 140.123 91.6532C139.888 91.4964 139.577 91.418 139.191 91.418C138.763 91.418 138.428 91.4904 138.187 91.6351C137.952 91.7739 137.834 91.9759 137.834 92.2413C137.834 92.4403 137.9 92.6032 138.033 92.7298C138.172 92.8565 138.341 92.956 138.54 93.0284C138.745 93.1008 139.025 93.1822 139.381 93.2726C139.84 93.3933 140.21 93.5109 140.494 93.6255C140.777 93.7401 141.019 93.912 141.218 94.1412C141.423 94.3703 141.525 94.6749 141.525 95.0549C141.525 95.7304 141.317 96.225 140.901 96.5386C140.491 96.8462 139.912 97 139.164 97C138.416 97 137.834 96.8432 137.418 96.5296C137.008 96.2099 136.803 95.7485 136.803 95.1454L136.812 94.9644H137.698L137.689 95.1544C137.689 95.5042 137.819 95.7666 138.078 95.9415C138.344 96.1104 138.709 96.1948 139.173 96.1948C139.625 96.1948 139.981 96.1134 140.241 95.9506C140.506 95.7817 140.639 95.5525 140.639 95.263C140.639 95.0338 140.566 94.8498 140.422 94.7111C140.283 94.5664 140.105 94.4548 139.888 94.3764C139.677 94.298 139.387 94.2105 139.019 94.114C138.567 93.9934 138.205 93.8788 137.934 93.7702C137.662 93.6617 137.43 93.4958 137.237 93.2726C137.044 93.0435 136.948 92.7449 136.948 92.377C136.948 91.7799 137.15 91.3366 137.554 91.0471C137.958 90.7576 138.498 90.6128 139.173 90.6128Z" fill="white"/>
</svg>
