<svg width="59" height="50" viewBox="0 0 59 50" fill="none" xmlns="http://www.w3.org/2000/svg">
<path d="M5.54578 30.8586L5.695 30.982C5.53384 29.8638 5.4463 28.6481 5.76862 27.5797C6.2521 25.8666 6.86091 24.2013 7.1713 22.4265C7.42 21.0477 7.70452 19.4958 7.54336 18.1667C7.35633 18.887 7.1713 19.5953 6.77337 20.216C5.27119 22.5379 3.73122 25.2697 4.78573 28.2263C4.76185 28.2641 4.72405 28.2999 4.68624 28.2761C4.26444 27.2952 4.16496 26.1889 3.89238 25.1464C3.1602 22.3768 1.03726 20.0549 1.65803 16.8516C1.32178 17.5479 1.19841 18.3299 1.02531 19.0859C0.653249 21.0477 1.02532 23.1209 1.55854 24.9355C2.21711 27.1837 4.41368 28.7973 5.54379 30.8586H5.54578Z" fill="white"/>
<path d="M4.97335 16.4775C5.47076 15.4588 6.27657 14.4898 7.24552 13.7696C9.38239 12.156 11.7162 10.0689 11.754 7.3371C11.0338 9.29888 8.88499 10.1186 7.45842 11.4596C6.70037 12.1679 6.1174 13.0235 5.78115 13.9188L5.73141 13.881C5.90451 13.0871 6.24075 12.3788 6.47553 11.6088C7.0963 9.52172 6.98489 7.02672 9.02028 5.62402C7.97771 5.8966 7.09631 6.56711 6.31239 7.43658C4.661 9.26108 4.81022 11.957 5.02112 14.3406C5.09474 15.0847 5.05892 15.7194 4.97138 16.4775H4.97335Z" fill="white"/>
<path d="M7.46094 10.5307C8.60299 9.46229 9.92012 8.66843 10.8891 7.40103C12.0431 5.87299 13.0498 4.15991 14.5639 2.84277C12.5146 3.63664 10.3041 4.45637 8.97505 6.56737C8.19312 7.79697 8.06778 9.2494 7.46094 10.5287V10.5307Z" fill="white"/>
<path d="M8.31543 15.9327C8.81284 14.9259 9.12322 13.7839 9.25852 12.6796C9.07149 13.1512 8.78697 13.5869 8.38905 13.959C6.72571 15.5367 4.77586 17.0767 4.4038 19.3111C4.35406 19.6334 4.31626 19.9577 4.23071 20.2681C4.15709 20.3059 4.15709 20.2184 4.13122 20.1945L4.34214 17.4368C4.5411 14.7429 3.12447 11.7485 4.67837 9.37684C4.62863 9.3649 4.59083 9.41464 4.55502 9.42658C3.1384 11.2272 2.19531 13.2148 2.19531 15.6362C2.19531 18.6286 3.92231 20.7277 4.13321 23.5331C4.58088 20.6024 7.03809 18.5172 8.31742 15.9327H8.31543Z" fill="white"/>
<path d="M5.02595 34.3226C6.62761 35.59 8.53966 36.5708 10.006 37.687C9.71951 36.9548 9.24797 36.2843 9.06293 35.5263C8.2054 32.0623 8.67893 28.0393 7.20064 24.834C7.47322 26.6585 6.75298 28.2741 6.59182 30.013C6.45454 31.4416 6.70324 32.8323 7.26233 34.0241C7.42349 34.3842 7.72193 34.6946 7.80948 35.0667C7.27625 34.5832 6.89025 33.9744 6.53013 33.3775C4.80313 30.584 1.18996 28.7695 0.941252 25.3672C0.817895 26.8813 0.953177 28.485 1.45059 29.826C2.13303 31.6644 3.47404 33.091 5.02595 34.3206V34.3226Z" fill="white"/>
<path d="M26.8084 43.499C24.015 43.499 21.506 44.852 19.0588 45.8707C16.8363 46.7899 13.8937 46.6148 11.918 45.2499C12.8869 46.4676 14.1902 47.2236 15.5431 47.733C18.0381 48.7258 20.9569 47.9697 23.0938 46.6029C24.6218 45.622 25.9369 44.2312 27.7634 44.2312C30.7061 44.2312 33.798 47.2495 36.4442 49.9813C36.8541 49.645 37.2878 49.2988 37.6241 48.9128C34.8545 46.2805 30.9429 43.499 26.8084 43.499Z" fill="white"/>
<path d="M21.8165 43.7973C22.2502 43.6859 22.7735 43.7237 23.1694 43.5745C21.5061 43.2383 19.9044 42.7309 18.6112 41.5511C16.7608 39.8619 15.1213 38.0612 13.1476 36.7461C14.6995 38.8332 15.1353 41.8614 17.9665 42.9179C18.4639 43.105 19.0469 43.1408 19.4806 43.4153C18.9335 43.5029 18.4619 43.3278 17.9526 43.2164C14.3016 42.4345 9.85677 43.4392 7.125 40.3354C8.15563 42.3728 10.2925 43.9744 12.3538 44.6449C15.5213 45.7134 18.836 44.5335 21.8165 43.8013V43.7973Z" fill="white"/>
<path d="M15.7069 42.269C13.3353 40.3569 12.9752 37.4879 11.9187 34.9789C11.2601 33.4151 10.1917 32.0104 9.04963 30.6455C10.3031 33.1544 9.75793 36.3816 11.3835 38.7413C11.8928 39.4855 12.6011 40.1938 13.2577 40.7787L13.2338 40.8165C12.6369 40.5439 12.1037 40.1202 11.5566 39.6745C8.71338 37.3028 4.42969 37.0044 2.72656 33.1425C3.18617 35.9737 5.43445 38.4827 7.86777 40.0724C10.1777 41.5865 13.1463 41.4253 15.703 42.2709L15.7069 42.269Z" fill="white"/>
<path d="M48.7488 7.40099C49.7178 8.68033 51.033 9.46225 52.177 10.5307C51.5682 9.25135 51.4448 7.79891 50.6748 6.56932C49.3457 4.45831 47.1353 3.63859 45.0859 2.84473C46.5762 4.16186 47.5809 5.863 48.7488 7.40298V7.40099Z" fill="white"/>
<path d="M53.1572 11.6108C53.38 12.3688 53.7163 13.0891 53.9013 13.8829L53.8516 13.9207C53.5153 13.0274 52.9324 12.1699 52.1743 11.4615C50.7458 10.1086 48.5989 9.3008 47.8906 7.32708C47.9284 10.0708 50.2623 12.1579 52.3991 13.7596C53.3562 14.4798 54.1759 15.4488 54.6713 16.4675C54.5837 15.7094 54.5479 15.0767 54.6216 14.3445C54.8444 11.947 54.9817 9.26498 53.3422 7.44048C52.5603 6.57101 51.6789 5.88857 50.6343 5.62793C52.6459 7.03062 52.5344 9.52762 53.1552 11.6128L53.1572 11.6108Z" fill="white"/>
<path d="M55.2914 17.4224L55.5023 20.1801C55.4784 20.2039 55.4784 20.2795 55.4028 20.2537C55.3153 19.9433 55.2795 19.621 55.2297 19.2967C54.8577 17.0742 52.8959 15.5223 51.2445 13.9445C50.8465 13.5725 50.562 13.1367 50.375 12.6652C50.5123 13.7694 50.8227 14.9135 51.3181 15.9183C52.5974 18.5008 55.0566 20.5879 55.5023 23.5306C55.7132 20.7113 57.4402 18.6261 57.4402 15.6337C57.4402 13.2123 56.4971 11.2247 55.0805 9.42409C55.0427 9.40021 55.0069 9.36241 54.9571 9.37434C56.5091 11.746 55.0805 14.7384 55.2934 17.4204L55.2914 17.4224Z" fill="white"/>
<path d="M55.741 25.1329C55.4684 26.1755 55.369 27.2937 54.9472 28.2626C54.9094 28.2865 54.8735 28.2387 54.8477 28.2129C55.9042 25.2583 54.3642 22.5384 52.86 20.2026C52.4621 19.5938 52.2771 18.8735 52.09 18.1533C51.9289 19.4943 52.2134 21.0343 52.4621 22.4131C52.7844 24.1898 53.3813 25.8532 53.8648 27.5662C54.1871 28.6347 54.1016 29.8384 53.9384 30.9685L54.0876 30.8451C55.2058 28.7839 57.4163 27.1703 58.0868 24.9101C58.62 23.1094 58.9941 21.0223 58.62 19.0605C58.4469 18.3025 58.3096 17.5206 57.9873 16.8262C58.5962 20.0414 56.4732 22.3653 55.739 25.1329H55.741Z" fill="white"/>
<path d="M40.5648 45.8707C38.1056 44.852 35.6107 43.499 32.8152 43.499C28.6927 43.499 24.7691 46.2925 22.0234 48.9128C22.3597 49.2968 22.7934 49.6569 23.2033 49.9813C25.8356 47.2614 28.9394 44.2312 31.8841 44.2312C33.7086 44.2312 35.0257 45.622 36.5537 46.6029C38.6767 47.9558 41.5955 48.7258 44.1044 47.733C45.4454 47.2236 46.7486 46.4656 47.7295 45.2499C45.7419 46.6029 42.7873 46.7899 40.5648 45.8707Z" fill="white"/>
<path d="M53.1204 33.354C52.7484 33.9509 52.3763 34.5717 51.8411 35.0432C51.9286 34.6831 52.2251 34.3608 52.3882 34.0007C52.9473 32.7969 53.196 31.4181 53.0588 29.9896C52.8857 28.2506 52.1654 26.637 52.4499 24.8105C50.9597 28.0139 51.4432 32.0369 50.5876 35.5029C50.4006 36.2728 49.929 36.9433 49.6445 37.6636C51.1089 36.5454 53.0229 35.5645 54.6246 34.2991C56.1765 33.0815 57.5175 31.641 58.2258 29.7787C58.7352 28.4377 58.8585 26.836 58.7352 25.3199C58.4745 28.748 54.8474 30.5606 53.1224 33.354H53.1204Z" fill="white"/>
<path d="M48.0527 39.6745C47.5056 40.1221 46.9724 40.5439 46.3755 40.8165L46.3516 40.7787C47.0102 40.1818 47.7185 39.4755 48.2258 38.7413C49.8533 36.3816 49.3062 33.1405 50.5597 30.6455C49.4176 32.0124 48.3492 33.4151 47.6906 34.9789C46.6341 37.4879 46.274 40.3549 43.9023 42.269C46.461 41.4253 49.4276 41.5865 51.7256 40.0843C54.147 38.4946 56.3953 35.9857 56.8668 33.1544C55.1776 37.0044 50.9059 37.3028 48.0507 39.6745H48.0527Z" fill="white"/>
<path d="M41.6817 43.2261C41.1723 43.3376 40.7008 43.4987 40.1536 43.4251C40.5874 43.1525 41.1604 43.1147 41.6677 42.9277C44.499 41.8593 44.9327 38.8291 46.4866 36.7559C44.5129 38.073 42.8735 39.8736 41.0231 41.5608C39.7318 42.7407 38.1302 43.2381 36.4648 43.5843C36.8628 43.7335 37.3841 43.6957 37.8178 43.8071C40.8102 44.5512 44.113 45.7192 47.2924 44.6647C49.3418 43.9822 51.4767 42.3806 52.5212 40.3551C49.7775 43.447 45.3187 42.4542 41.6797 43.2242L41.6817 43.2261Z" fill="white"/>
<path d="M29.8135 0.831055C18.5124 0.831055 9.32422 10.0212 9.32422 21.3203C9.32422 32.6195 18.5143 41.8096 29.8135 41.8096C41.1126 41.8096 50.3027 32.6195 50.3027 21.3203C50.3027 10.0212 41.1126 0.831055 29.8135 0.831055ZM29.8135 25.2319C27.6527 25.2319 25.9018 23.4811 25.9018 21.3203C25.9018 19.1596 27.6527 17.4087 29.8135 17.4087C31.9742 17.4087 33.7251 19.1596 33.7251 21.3203C33.7251 23.4811 31.9742 25.2319 29.8135 25.2319ZM32.7562 18.0295C32.0359 17.3828 31.1047 16.973 30.0741 16.9113V13.5587C32.0239 13.6204 33.7987 14.4024 35.1278 15.6578L32.7562 18.0295ZM29.5648 16.9113C28.5341 16.973 27.603 17.3828 26.8827 18.0295L24.5111 15.6578C25.8402 14.4043 27.6149 13.6204 29.5648 13.5587V16.9113ZM26.5346 18.3896C25.8879 19.1098 25.4781 20.041 25.4164 21.0716H22.0638C22.1255 19.1218 22.9074 17.347 24.1629 16.0179L26.5346 18.3896ZM25.4164 21.569C25.4781 22.5997 25.8879 23.5308 26.5346 24.251L24.1629 26.6227C22.9094 25.2936 22.1255 23.5189 22.0638 21.569H25.4164ZM26.8808 24.6112C27.601 25.2578 28.5322 25.6677 29.5628 25.7293V29.0819C27.6129 29.0202 25.8382 28.2383 24.5091 26.9828L26.8808 24.6112ZM30.0602 25.7154C31.0908 25.6537 32.022 25.2439 32.7422 24.5972L35.1139 26.9689C33.7848 28.2224 32.01 29.0063 30.0602 29.068V25.7154ZM33.1024 24.251C33.749 23.5308 34.1588 22.5997 34.2205 21.569H37.5731C37.5114 23.5189 36.7294 25.2936 35.474 26.6227L33.1024 24.251ZM34.2205 21.0716C34.1588 20.041 33.749 19.1098 33.1024 18.3896L35.474 16.0179C36.7274 17.347 37.5114 19.1218 37.5731 21.0716H34.2205ZM35.474 15.3096C34.0454 13.9686 32.1593 13.125 30.0602 13.0613V9.33674C33.1779 9.39842 36.0092 10.6658 38.1063 12.6773L35.474 15.3096ZM29.5628 13.0613C27.4757 13.123 25.5775 13.9686 24.149 15.3096L21.5167 12.6773C23.6157 10.6658 26.447 9.39842 29.5628 9.33674V13.0613ZM23.8008 15.6558C22.4598 17.0844 21.6162 18.9706 21.5525 21.0696H17.8279C17.8896 17.9519 19.157 15.1206 21.1685 13.0235L23.8008 15.6558ZM21.5664 21.567C21.6281 23.6542 22.4737 25.5523 23.8147 26.9808L21.1705 29.6131C19.159 27.514 17.8916 24.6828 17.8299 21.567H21.5684H21.5664ZM24.1609 27.329C25.5895 28.67 27.4756 29.5136 29.5747 29.5773V33.3019C26.4569 33.2402 23.6257 31.9728 21.5286 29.9613L24.1609 27.329ZM30.0602 29.5634C32.1473 29.5017 34.0454 28.6561 35.474 27.3151L38.1063 29.9474C36.0072 31.9589 33.176 33.2263 30.0602 33.288V29.5634ZM35.8222 26.9689C37.1632 25.5403 38.0068 23.6542 38.0705 21.5551H41.7951C41.7334 24.6729 40.466 27.5041 38.4544 29.6012L35.8222 26.9689ZM38.0705 21.0696C38.0088 18.9825 37.1632 17.0844 35.8222 15.6558L38.4544 13.0235C40.466 15.1226 41.7334 17.9539 41.7951 21.0696H38.0705ZM38.4544 12.3272C36.2698 10.2281 33.3132 8.91296 30.0602 8.84929V5.54649C34.2205 5.60817 37.9949 7.29737 40.7764 9.99134L38.4544 12.3252V12.3272ZM29.5628 8.83735C26.3097 8.89903 23.3531 10.2162 21.1685 12.3152L18.8466 9.99333C21.6281 7.29936 25.4025 5.61016 29.5628 5.54848V8.83934V8.83735ZM20.8203 12.6754C18.7212 14.86 17.4061 17.8166 17.3424 21.0696H14.0516C14.1133 16.9093 15.8025 13.135 18.4964 10.3535L20.8183 12.6754H20.8203ZM17.3424 21.567C17.4041 24.8201 18.7212 27.7767 20.8203 29.9613L18.4984 32.2832C15.8045 29.5017 14.1153 25.7274 14.0536 21.567H17.3444H17.3424ZM21.1665 30.3095C23.3511 32.4086 26.3077 33.7237 29.5608 33.7874V37.0782C25.4005 37.0165 21.6261 35.3273 18.8446 32.6334L21.1665 30.3115V30.3095ZM30.0582 33.7993C33.3113 33.7376 36.2678 32.4205 38.4525 30.3214L40.7744 32.6433C37.9929 35.3373 34.2185 37.0265 30.0582 37.0882V33.7973V33.7993ZM38.8126 29.9613C40.9117 27.7767 42.2268 24.8201 42.2905 21.567H45.5813C45.5197 25.7274 43.8305 29.5017 41.1365 32.2832L38.8146 29.9613H38.8126ZM42.2905 21.0696C42.2288 17.8166 40.9117 14.86 38.8126 12.6754L41.1345 10.3535C43.8285 13.135 45.5177 16.9093 45.5793 21.0696H42.2885H42.2905ZM41.1365 9.64514C38.2555 6.85169 34.3678 5.11275 30.0602 5.05107V1.32648C35.3884 1.38816 40.2173 3.5489 43.7688 7.01484L41.1365 9.64713V9.64514ZM29.5628 5.05107C25.2672 5.11275 21.3675 6.85169 18.4865 9.64514L15.8661 7.01285C19.4176 3.5489 24.2485 1.38815 29.5747 1.32449V5.04908H29.5628V5.05107ZM18.1383 9.99333C15.3448 12.8743 13.6059 16.7621 13.5442 21.0696H9.81964C9.88131 15.7414 12.0421 10.9125 15.508 7.36104L18.1403 9.99333H18.1383ZM13.5562 21.567C13.6179 25.8627 15.3568 29.7623 18.1502 32.6433L15.506 35.2637C12.042 31.7241 9.89324 26.8933 9.83156 21.567H13.5562ZM18.4984 32.9915C21.3794 35.785 25.2671 37.5239 29.5747 37.5856V41.3102C24.2465 41.2485 19.4176 39.0878 15.8661 35.6218L18.4984 32.9895V32.9915ZM30.0602 37.5856C34.3558 37.5239 38.2555 35.785 41.1365 32.9915L43.7688 35.6238C40.2173 39.0878 35.3864 41.2485 30.0602 41.3122V37.5876V37.5856ZM41.4847 32.6314C44.2781 29.7504 46.0171 25.8627 46.0787 21.5551H49.8033C49.7417 26.8833 47.5809 31.7122 44.115 35.2637L41.4827 32.6314H41.4847ZM46.0787 21.0696C46.0171 16.774 44.2781 12.8743 41.4847 9.99333L44.117 7.36104C47.5809 10.9125 49.7417 15.7434 49.8053 21.0696H46.0807H46.0787Z" fill="white"/>
<path d="M30.9928 16.5771L30.8672 16.5891V16.7386L30.9928 16.7267V16.5771Z" fill="white"/>
<path d="M30.8412 16.3779H30.6797V16.5015H30.8412V16.3779Z" fill="white"/>
<path d="M30.3828 16.3424L30.5323 16.3663L30.5443 16.2427L30.3948 16.2168L30.3828 16.3424Z" fill="white"/>
<path d="M30.2587 16.2928L30.1211 16.2789L30.1331 16.1553L30.2826 16.1672L30.2587 16.2928Z" fill="white"/>
<path d="M29.2279 16.1289H29.0664V16.2525H29.2279V16.1289Z" fill="white"/>
<path d="M28.707 16.3785L28.8566 16.4044L28.8705 16.2788L28.733 16.2549L28.707 16.3785Z" fill="white"/>
<path d="M28.732 16.5768L28.5586 16.5269L28.5945 16.4033L28.756 16.4532L28.732 16.5768Z" fill="white"/>
<path d="M28.434 16.7264L28.4102 16.603L28.5335 16.5771L28.5594 16.7025L28.434 16.7264Z" fill="white"/>
<path d="M12.2276 29.5791V29.8516H12.3529L12.3271 29.5413L12.1659 29.4796V29.3682H12.0664V29.5791H12.2276Z" fill="white"/>
<path d="M13.0977 30.335L13.408 30.4842L13.5075 30.7707L13.6567 30.8821L13.794 31.1925L13.7184 31.3417L13.4836 31.1308L13.3205 30.894L13.2349 30.709L13.0977 30.335Z" fill="white"/>
<path d="M18.312 36.7811L18.4255 37.0537L18.2762 37.1413L18.1887 37.0159L17.9897 36.9542L17.9658 36.7672L17.8047 36.5205L18.0514 36.5563L18.312 36.7811Z" fill="white"/>
<path d="M29.1793 17.9292H28.9565L28.9187 17.4696L29.0421 17.382V17.1453H28.3218L28.2979 16.9085L28.3974 16.8468L28.2363 16.7852L28.1129 16.9463L28.0751 17.1333L27.8642 17.1711V17.2706H27.715V17.5432L27.132 18.0267L25.978 17.9889C25.8905 18.1759 25.6915 17.965 25.6915 17.965C25.6537 17.8417 25.3553 17.965 25.3553 17.965C25.3553 18.2018 24.9573 17.8655 24.9573 17.8655L24.2371 17.3442C23.8272 16.9722 23.2064 17.4437 23.1806 17.5551C23.2045 17.8536 22.709 17.6168 22.709 17.6168C22.709 17.6168 22.2992 17.4935 22.2375 17.6546C22.1758 17.8158 21.9013 17.778 21.9013 17.778L21.8634 17.8655L21.6526 17.9033L21.6147 18.0267L21.366 18.0645L21.9868 18.0406C22.148 18.0167 21.9251 18.4007 21.8257 18.3769L21.5391 18.4007L21.4397 18.5002H21.1671L21.0437 18.6733L20.6458 18.6494C20.6458 18.6494 20.423 18.8365 20.4349 18.8981C20.4588 18.9598 20.3971 19.1469 20.3354 19.1469C20.2737 19.1469 20.1484 19.3339 20.1862 19.3956C20.224 19.4572 20.0628 19.6681 20.0628 19.6681L20.025 19.879L19.9017 19.9168V20.4879L19.653 20.661V20.9097L19.2809 21.3076L19.3187 21.6438L19.0083 21.9801L19.0461 22.3163L18.8591 22.378L18.8213 22.5272L18.7338 22.961L18.9447 22.9849C19.0441 22.9471 19.0322 23.2574 18.9447 23.2952C18.8571 23.333 18.6343 23.4186 18.7576 23.5061C18.881 23.5937 18.4214 23.5678 18.4214 23.4445C18.4214 23.3211 18.1727 23.2077 18.111 23.2574C18.0493 23.2952 17.9498 23.0704 17.9498 23.0704C17.727 22.8336 17.0187 23.0943 17.0187 23.0943L16.9192 23.4305C16.6964 23.4683 16.5471 23.8523 16.5471 23.8523C16.3601 23.914 16.2109 24.1508 16.2746 24.2125C16.3382 24.2741 16.1751 24.3 16.1751 24.3V24.7596L16.0756 24.9088L16.0995 25.4062C16.2228 25.4062 16.199 25.643 16.199 25.643C15.9881 25.6669 16.0378 25.9414 16.0378 25.9414L15.6041 26.0907L15.5165 26.214L14.9833 26.1902L14.8341 26.3394L14.6849 26.1902H13.6542L13.6164 26.0907L13.4055 26.0529L13.3816 25.8161L13.0713 25.84L13.0096 25.9633L12.6733 25.9872C12.6972 26.1981 12.3371 26.5085 12.3013 26.421C12.2635 26.3334 12.0287 26.1106 12.1401 26.0608C12.2396 26.023 12.5122 25.9733 12.5122 25.9733V25.8241L11.7422 25.8002L11.6546 25.9235L11.3442 25.9474V26.2837L11.195 26.3215C11.0955 26.3832 11.2189 26.6199 11.2189 26.6199C11.3681 26.7691 11.195 26.992 11.195 26.992C11.0717 27.1153 11.2945 27.3521 11.2945 27.3521C11.4557 27.3899 11.195 27.5133 11.195 27.5133C11.2328 27.7242 11.3562 27.7858 11.3562 27.7858C11.2328 27.9967 11.4437 28.0962 11.4437 28.0962L11.4676 28.4564L11.6168 28.5439V28.7807L11.7044 28.9299H12.0406L12.0167 28.4086C11.7302 28.0724 12.2654 27.9868 12.2893 28.1102C12.3132 28.2335 12.538 28.2972 12.538 28.2972C12.5758 28.6076 12.936 28.7946 13.0354 28.4842C13.1349 28.1738 13.2225 28.3609 13.2841 28.5081C13.3458 28.6573 13.7438 29.0174 13.7438 29.0174H14.0541L14.0919 29.3159C14.4401 29.292 14.5515 29.3398 14.6888 29.8133C14.8381 30.2968 15.222 30.4221 15.222 30.4221L15.5086 30.3982C15.5086 30.1495 15.7951 30.436 15.7951 30.5713C15.7951 30.6947 16.3542 31.1802 16.3542 31.1802L16.9132 31.3035L17.4345 31.7253L17.8325 31.6875H17.9936C18.0931 31.3274 18.5905 31.7114 18.6402 31.8367C18.678 31.9601 19.0123 32.173 19.0501 32.0735C19.0879 31.974 19.3227 32.0357 19.3605 32.3461C19.3983 32.6565 19.5475 32.5948 19.5475 32.5948L20.7274 32.5709L21.1372 32.2108L22.1937 32.1869C22.727 32.163 22.4046 31.4289 22.2932 31.4289C22.1062 31.2796 22.3549 30.6708 22.3549 30.6708L20.8527 29.2681C20.5045 29.2681 20.8149 28.7588 20.8149 28.7588C21.0875 28.5857 20.7532 28.325 20.7532 28.325C20.791 28.0763 20.604 27.7779 20.604 27.7779C20.232 27.5292 20.3314 27.0457 20.3314 27.0457V26.7095C20.0211 26.411 20.4548 26.3732 20.4548 26.3732C20.604 26.1245 20.3553 25.9395 20.3553 25.9395L20.3314 25.6669L19.9952 25.6291L19.9574 24.6482L19.2133 23.5798C19.064 23.542 19.1755 23.2813 19.1755 23.2813C19.3625 23.1818 19.1377 22.9212 19.1377 22.9212L19.1138 22.4616L19.5475 22.4238L19.647 22.2626H19.8579L19.834 21.7155C19.9335 21.4429 20.1822 21.5921 20.1822 21.5921L20.4687 21.616L20.6299 21.3056L20.6677 21.0569L20.4448 21.033C20.1961 20.8838 20.3215 20.3367 20.3215 20.3367C20.7194 19.7537 21.1651 20.0879 21.1651 20.0879L21.4516 20.0641C21.8853 20.3625 21.4894 20.8957 21.4894 20.8957C21.4018 21.0191 21.4516 21.417 21.4516 21.417L21.5511 22.0875L21.2785 22.3243C21.0557 22.4477 21.0557 22.7461 21.3024 22.8078C21.4635 22.8316 21.4019 23.2296 21.1532 22.957C20.7811 22.957 21.364 23.2932 21.1909 23.2057C21.563 23.3927 21.4775 23.0445 21.4775 23.0445L21.9749 22.6466C22.1619 22.4974 22.4962 22.957 22.4962 23.0187C22.4962 23.0804 23.3159 23.0425 23.3159 23.0425C23.5387 23.1918 23.6263 23.5638 23.6263 23.5638C23.8491 23.2654 24.3346 23.54 23.9745 23.7131C24.3107 23.924 24.3107 24.111 24.3107 24.111C24.5833 24.0235 24.5833 24.2343 24.5833 24.298C24.5833 24.3617 24.6708 23.9876 24.6708 23.9876C24.3605 23.7509 25.0807 23.6772 24.8817 24.0871L24.7584 24.2741L24.9693 24.4353L24.9932 24.9188C25.4528 24.881 25.3294 24.31 25.3294 24.31L25.5403 24.2722C25.5403 24.0851 25.6895 24.1846 25.6895 24.1846C25.5403 23.4763 26.0258 23.3529 26.0258 23.3529C26.2984 23.2913 26.3123 22.7202 26.3123 22.7202C26.1253 22.6327 26.2247 22.3482 26.4356 22.5969C26.6465 22.8456 26.3123 22.0875 26.3123 22.0875L26.1511 21.9383L25.9283 21.9144L25.9044 21.6777H25.5323L25.4707 21.9761L25.3334 22.0378L25.2956 21.9502L25.2339 22.187H24.8618L24.838 21.9383L25.0608 21.8766L25.1483 21.7533L25.21 21.417H25.4826L25.8308 21.3175C25.8547 20.9574 26.0417 21.045 26.0417 21.045L26.165 21.1444L26.3521 21.2937L26.3759 21.417L26.2526 21.4787L26.2287 21.6518L26.2904 21.8886H26.4516C26.5132 21.5523 26.949 21.5523 27.0723 21.7652L27.1957 21.4668C26.9092 21.3175 27.1957 21.0947 27.2693 21.1942C27.3568 21.2937 27.5419 20.9216 27.5419 20.9216C27.5419 20.9216 27.6911 21.1086 27.5419 20.8599C27.3926 20.6112 27.6414 20.4879 27.6414 20.4879C27.6035 20.2392 27.9139 20.277 27.9139 20.277L27.9378 19.9407L27.6513 19.9168C27.5896 20.2153 27.3409 19.9546 27.4643 19.893C27.5876 19.8313 27.713 19.7059 27.713 19.7059V19.495L27.8363 19.4572L27.8602 19.2463H28.1706L28.4432 19.123L28.5048 19.0235L28.7914 18.9996L29.2012 18.6275L29.1634 18.4664C28.9147 18.4664 29.1634 18.2794 29.1634 18.2794L29.1873 17.9312L29.1793 17.9292Z" fill="white"/>
<path d="M20.8597 22.0778L20.4876 22.04L20.5115 22.1893H20.611C20.7721 22.4877 20.6349 23.196 20.6349 23.196C20.6349 23.196 20.3861 23.2199 20.3483 23.0965C20.3105 22.9732 20.1991 23.3691 20.2867 23.4328C20.3742 23.4945 20.6587 23.4328 20.6846 23.6696C20.7105 23.9063 20.8716 23.5203 20.8716 23.5203L20.8597 22.0798V22.0778Z" fill="white"/>
<path d="M20.4883 23.779V24.2764L20.8106 24.722L20.934 24.4256L20.9837 24.2386L20.8345 24.1769L20.8603 23.8665L20.9837 23.8406L20.9976 23.6914L20.6872 23.9023L20.4883 23.779Z" fill="white"/>
<path d="M21.0209 25.182V24.9707L20.8713 24.9966L20.8594 25.1581L21.0209 25.182Z" fill="white"/>
<path d="M20.8336 26.1886V26.0391L20.6602 26.063V26.2125L20.8336 26.1886Z" fill="white"/>
<path d="M21.0799 25.5426C21.1298 25.5426 21.1676 25.5048 21.1676 25.4549C21.1676 25.4051 21.1298 25.3672 21.0799 25.3672C21.0301 25.3672 20.9922 25.4051 20.9922 25.4549C20.9922 25.5048 21.0301 25.5426 21.0799 25.5426Z" fill="white"/>
<path d="M21.2205 25.9782C21.269 25.9782 21.3083 25.9389 21.3083 25.8904C21.3083 25.842 21.269 25.8027 21.2205 25.8027C21.1721 25.8027 21.1328 25.842 21.1328 25.8904C21.1328 25.9389 21.1721 25.9782 21.2205 25.9782Z" fill="white"/>
<path d="M21.2323 23.5827C21.2807 23.5827 21.32 23.5434 21.32 23.4949C21.32 23.4465 21.2807 23.4072 21.2323 23.4072C21.1838 23.4072 21.1445 23.4465 21.1445 23.4949C21.1445 23.5434 21.1838 23.5827 21.2323 23.5827Z" fill="white"/>
<path d="M27.8497 20.6495H27.973L27.9989 20.7868L27.9113 20.8604L27.8735 20.9738L27.7124 21.0097L27.3403 21.3698L27.3144 21.5309L27.215 21.6802L27.0916 21.9905L26.6579 22.0164L26.5703 22.3885L26.632 22.7108L27.0041 22.86L27.0419 22.6491L27.1672 22.5874L27.1911 22.3765L27.2786 22.2273L27.402 22.0781L27.4398 21.9169L27.6507 21.7916L27.8994 21.7418L27.9989 21.6185L28.0347 21.3698L28.0605 21.1847L28.1481 21.0475L28.3948 20.948V20.5501H28.2715L28.2456 20.4008L28.0228 20.377L27.973 20.4884H27.8735L27.8497 20.6495Z" fill="white"/>
<path d="M28.8187 21.8296V21.5312L28.7809 21.2586L28.4705 21.1094L28.2477 21.3203L28.2098 21.6187V21.8057L27.999 21.8436L27.9611 22.4146L27.8 22.4763L27.8239 22.6872L27.601 22.7488L27.3782 22.8105L27.3404 23.0831L27.1792 23.1826L27.0917 23.4313L26.9922 24.0401C26.9922 24.0401 27.1792 24.4002 27.2787 24.2271C27.3782 24.066 27.5513 24.0401 27.5513 24.0401L27.613 23.8909L28.1721 23.9148C28.2099 23.678 28.4824 23.7655 28.4824 23.877C28.4824 23.9764 28.6933 23.9008 28.6933 23.9008L28.8426 23.6641H29.0654L29.0893 23.4154L29.1888 23.3537V22.9816C29.525 22.8821 29.4752 22.5598 29.4752 22.5598L29.5628 22.4603L29.525 22.3111C29.3638 22.2494 29.4374 22.1002 29.5489 22.138C29.6483 22.1758 29.3996 21.951 29.3996 21.951C29.2763 22.0505 29.1768 21.8276 29.1768 21.8276H28.8167L28.8187 21.8296Z" fill="white"/>
<path d="M29.1555 24.3621C29.1316 24.6108 28.8193 24.6983 28.8193 24.6983L28.5964 24.6366L28.4731 24.5372L28.4492 24.2387L28.6362 24.2148L28.674 24.3382L29.1575 24.3621H29.1555Z" fill="white"/>
<path d="M30.2717 23.0212C30.3214 23.2082 30.3095 22.7228 30.3951 22.7486C30.4806 22.7745 30.4189 22.4502 30.4189 22.4502L30.0469 22.7228C30.22 22.7466 30.2458 22.9337 30.2697 23.0212H30.2717Z" fill="white"/>
<path d="M31.3628 21.9289C31.4503 22.116 31.4245 22.3885 31.7349 22.5994C31.8343 22.673 31.6732 22.8103 31.5737 22.7487C31.4742 22.687 31.1758 22.2274 31.1758 22.2274V21.9548C31.2375 21.7936 31.325 21.8553 31.3628 21.9309V21.9289Z" fill="white"/>
<path d="M31.3633 28.2999L31.4251 28.3617L31.4869 28.4733L31.6245 28.2381L31.5128 28.2002L31.3633 28.2999Z" fill="white"/>
<path d="M33.8355 27.6674L33.997 27.5538L33.9352 27.4541L33.7617 27.5538L33.8355 27.6674Z" fill="white"/>
<path d="M39.8083 32.0378L39.9953 32.1254L40.0192 32.4855C40.2679 32.7342 41.0757 32.5233 41.0757 32.4616C41.0757 32.4 41.0379 31.6916 41.0379 31.6916L40.9384 31.5922L40.9145 31.0709C41.0021 30.7983 40.5166 30.4004 40.4808 30.4879C40.443 30.5755 40.1704 30.5118 40.1704 30.5874C40.1704 30.6749 40.0092 31.0848 40.0829 31.234C40.1704 31.3833 40.0212 31.3833 39.9953 31.5325C39.9714 31.6558 39.7585 31.9045 39.8083 32.0418V32.0378Z" fill="white"/>
<path d="M39.3503 31.1929C39.3125 31.3541 39.1632 31.4416 39.0777 31.38C38.9901 31.3183 39.1772 31.4795 39.2269 31.567C39.2647 31.6545 39.3881 31.6545 39.4378 31.567C39.4756 31.4795 39.4617 31.2944 39.4995 31.2069C39.5373 31.1333 39.3761 31.1074 39.3503 31.1949V31.1929Z" fill="white"/>
<path d="M38.5438 27.3564H38.3945V27.7544H38.5438V27.3564Z" fill="white"/>
<path d="M40.5298 23.32C40.4423 23.1966 40.9397 22.9837 41.0272 23.2325C41.1148 23.4812 41.0272 23.4434 40.9397 23.4195C40.8661 23.3956 40.6532 23.4812 40.5298 23.32Z" fill="white"/>
<path d="M40.9751 20.5146L40.9492 20.6383L41.1745 20.6761L41.1984 20.5505L40.9751 20.5146Z" fill="white"/>
<path d="M40.3892 20.8745L40.4031 20.9103L40.5265 20.8606L40.4767 20.7611L40.4528 20.6875L40.3892 20.7253L40.2419 20.8109L40.1047 20.7253L40.043 20.8367L40.2041 20.9362L40.2419 20.9601L40.2658 20.9362L40.3892 20.8745Z" fill="white"/>
<path d="M41.1734 15.7686H40.863C40.863 15.7686 40.9625 15.8064 40.676 15.5318C40.3895 15.2592 40.2044 15.5935 40.2044 15.5935L39.8682 15.6313V15.9675L39.707 16.0292L39.7309 16.2401L39.9537 16.2162C39.9537 16.2162 39.9538 16.4649 40.0154 16.3655C40.0771 16.266 40.5984 16.3893 40.5486 16.638C40.5367 16.7375 41.0699 17.0101 41.0083 17.3464C41.2808 17.3842 41.2191 17.6567 41.2191 17.6567L41.5673 17.6945L41.6668 17.4836L41.7663 17.5075V17.3841L41.5435 17.3225L41.5057 16.652L41.3564 16.5525L41.3942 16.3794L41.2331 16.3177L41.3206 16.0451L41.1714 15.7725L41.1734 15.7686Z" fill="white"/>
<path d="M42.0811 17.9057L41.92 17.8818L41.5479 17.9435L41.337 18.3415C41.337 18.3415 41.4365 18.4031 41.524 18.5524C41.6116 18.7016 41.6474 19.5591 41.4007 19.7063C41.1539 19.8536 41.4245 19.768 41.4245 19.768L41.3867 20.2276C41.4484 20.4385 41.5479 20.3271 41.6096 20.2276C41.6713 20.1281 41.7329 20.1043 41.8205 19.9909C41.908 19.8914 42.0314 19.6924 42.0433 19.5571C42.0672 19.4079 42.1667 19.1851 42.105 19.1234C42.0433 19.0617 42.1667 18.7633 42.1667 18.7633C42.1667 18.7633 42.2542 18.5902 42.1667 18.427C42.0791 18.2539 42.1906 18.0669 42.2542 17.9933L42.0811 17.9057Z" fill="white"/>
<path d="M42.3281 18.7641L42.3401 18.6006L42.4657 18.6145L42.4537 18.788L42.3281 18.7641Z" fill="white"/>
<path d="M42.3187 19.3466L42.207 19.2848L42.2688 19.1592L42.3805 19.223L42.3187 19.3466Z" fill="white"/>
<path d="M42.143 17.6829L42.0555 17.4959C42.0555 17.4959 42.0555 17.3347 42.0933 17.2472C42.1311 17.1597 42.0058 17.086 41.9441 17.0602C41.8824 17.0363 41.9063 16.8731 41.8824 16.7876C41.8585 16.702 41.7212 16.6384 41.7212 16.6384C41.7212 16.6384 41.6834 16.328 41.6834 16.2663C41.6834 16.2046 41.4964 16.1171 41.5601 16.0554C41.6218 15.9937 41.6596 15.9062 41.7212 15.8684C41.7829 15.8306 41.6596 15.5321 41.7591 15.5958C41.8585 15.6595 41.8585 15.7689 41.9083 15.8445C41.9461 15.932 41.8844 16.2166 41.9958 16.2782C42.0953 16.3399 41.9719 16.5508 42.145 16.5508C42.3062 16.5508 42.2067 16.9488 42.2067 16.9488C42.2067 16.9488 42.1689 17.2472 42.2684 17.2591C42.3679 17.283 42.3062 17.7804 42.3062 17.7804L42.145 17.6809L42.143 17.6829Z" fill="white"/>
<path d="M40.7989 14.2922C40.8605 14.3798 40.9859 14.4414 40.9859 14.529C40.9859 14.6165 40.9481 14.6782 41.0734 14.6901C41.1968 14.714 41.2843 14.6663 41.3221 14.7777C41.3599 14.8772 41.3599 15.0503 41.346 15.1378C41.3221 15.2253 41.3699 15.3487 41.4694 15.3487C41.5689 15.3487 41.5927 15.3726 41.5927 15.4363C41.5927 15.4999 41.7161 15.1995 41.7161 15.1995C41.6166 15.1119 41.5291 14.9269 41.5291 14.9269C41.5291 14.9269 41.4296 14.6285 41.4296 14.5907C41.4296 14.5529 41.2804 14.5031 41.2187 14.4912C41.157 14.4673 41.0575 14.2803 41.0575 14.2803L40.7969 14.2922H40.7989Z" fill="white"/>
<path d="M41.0016 14.0935C40.9399 14.006 40.8782 13.9443 40.7907 13.9065C40.7031 13.8687 40.6415 13.819 40.5678 13.819C40.4803 13.819 40.4067 13.7314 40.4445 13.6319C40.4823 13.5325 40.3828 13.4827 40.3828 13.3952C40.3828 13.3076 40.4445 13.3076 40.544 13.3713C40.6434 13.435 40.6315 13.4588 40.7051 13.5583C40.7927 13.6578 40.8285 13.7692 40.916 13.7453C41.0036 13.7215 41.0652 13.9324 41.1389 13.8687C41.2264 13.807 41.2005 14.0179 41.2005 14.0179L41.0016 14.0915V14.0935Z" fill="white"/>
<path d="M38.5895 16.4649C38.7009 16.5763 37.9688 16.5525 37.9688 16.4649C37.9688 16.3774 38.0304 16.0929 38.2175 16.1545C38.4045 16.2162 38.4283 15.7825 38.4283 15.7825C38.4283 15.7825 38.2672 15.8064 38.4045 15.7208C38.5537 15.6333 38.4045 15.5099 38.3428 15.4482C38.2811 15.3865 38.2194 15.2751 38.2194 15.2751H38.5059C38.6293 15.1876 38.6671 14.7916 38.6671 14.7916C38.9158 14.8792 39.0392 14.7041 39.0392 14.7041C39.0392 14.7041 39.077 14.8275 39.1625 14.9409C39.2501 15.0404 38.9516 15.0901 39.063 15.1518C39.1625 15.2134 39.2123 15.4005 39.1625 15.4622C39.1247 15.5238 38.89 15.486 38.89 15.4005C38.89 15.3149 38.8024 15.5 38.89 15.6114C38.9775 15.7109 38.7905 15.8601 38.7407 15.8601C38.7029 15.8601 38.4303 15.8979 38.6532 16.0332C38.876 16.1565 39.1247 16.0949 39.1247 16.0949C39.1247 16.0949 39.3117 16.071 39.3734 16.1824C39.4351 16.2819 39.3495 16.3058 39.2501 16.3058C39.1506 16.3058 38.6532 16.268 38.6532 16.268C38.6532 16.268 38.5298 16.4052 38.5915 16.4669L38.5895 16.4649Z" fill="white"/>
<path d="M37.2645 16.6521C37.364 16.6282 37.6127 16.6143 37.6624 16.676C37.7002 16.7376 37.5132 16.8252 37.5132 16.8252L37.2645 16.863C37.1909 16.7635 37.165 16.676 37.2645 16.6521Z" fill="white"/>
<path d="M39.9336 14.9014C40.0948 14.8138 40.4549 14.8138 40.431 14.6905C40.4071 14.5671 40.6419 14.5293 40.6419 14.5293L40.7036 14.778L40.8906 14.9014L40.9145 15.1381C40.9145 15.1381 40.9762 15.1003 40.7533 15.162C40.5305 15.2237 40.6658 15.3232 40.6658 15.3232L40.1684 15.347L40.1067 15.1361L39.9336 14.8994V14.9014Z" fill="white"/>
<path d="M39.1241 13.7577C39.2475 13.7577 39.0864 14.2412 39.4107 14.1914C39.7469 14.1536 39.4345 14.3406 39.6832 14.3526C39.9319 14.3765 39.8703 14.1655 39.9558 14.0163C40.0434 13.8671 39.9936 13.7796 39.8563 13.7437C39.7569 13.7185 39.6945 13.6482 39.6693 13.5328C39.6315 13.3717 39.4584 13.3219 39.4584 13.3219L39.3967 13.0732L39.1241 13.2344L38.8516 13.5945C38.8516 13.893 39.0008 13.7557 39.1241 13.7557V13.7577Z" fill="white"/>
<path d="M39.6719 15.5348L39.7357 15.4092L39.8473 15.459L39.7855 15.5966L39.6719 15.5348Z" fill="white"/>
<path d="M39.5843 15.335H39.4609V15.4842H39.5843V15.335Z" fill="white"/>
<path d="M39.5611 12.542L39.587 12.7274L39.4614 12.7414L39.4375 12.554L39.5611 12.542Z" fill="white"/>
<path d="M39.3391 14.4912H39.2148V14.5914H39.3391V14.4912Z" fill="white"/>
<path d="M38.8752 14.4921L38.8633 14.3665L39.0746 14.3545L39.0866 14.4781L38.8752 14.4921Z" fill="white"/>
<path d="M37.1781 16.5158L37.0664 16.4659L37.1282 16.3164L37.2399 16.3662L37.1781 16.5158Z" fill="white"/>
<path d="M36.5276 16.129L36.5156 16.0054L36.727 15.9814L36.7409 16.1051L36.5276 16.129Z" fill="white"/>
<path d="M32.9557 16.0928L32.4961 16.1047L32.508 16.2281L32.9557 16.2161V16.0928Z" fill="white"/>
<path d="M32.1944 16.267L32.1445 16.0796L32.2701 16.0557L32.306 16.2431L32.1944 16.267Z" fill="white"/>
<path d="M32.112 16.4039L32.0742 16.2785L32.1359 16.2666L32.1737 16.378L32.112 16.4039Z" fill="white"/>
<path d="M33.1411 16.0435L33.1172 16.1927L33.34 16.2166C33.34 16.2166 33.4395 16.3041 33.4395 16.3658C33.4395 16.4275 33.5887 16.4891 33.6623 16.4891C33.7499 16.4891 33.9727 16.316 33.9727 16.316C33.9727 16.316 34.0722 16.0176 33.9966 16.0435C33.9091 16.0673 33.7479 16.1927 33.724 16.0673C33.7002 15.944 33.4515 16.0057 33.4515 16.0057L33.1411 16.0435Z" fill="white"/>
<path d="M34.1733 15.8191C34.1733 15.8808 34.1355 15.9683 34.2609 15.9922C34.3842 16.016 34.609 15.9046 34.6329 16.03C34.6568 16.1553 34.6568 16.2409 34.82 16.3026C34.9811 16.3642 35.0925 16.3901 35.2179 16.3901C35.3432 16.3901 35.6158 16.3523 35.6158 16.3523C35.6158 16.3523 35.9143 16.402 35.964 16.4518C36.1868 16.6886 36.336 16.7502 36.3977 16.6388C36.4594 16.5393 36.3739 16.3026 36.3599 16.217C36.3361 16.1295 36.0495 15.7335 35.9501 15.8191C35.8506 15.9066 35.8267 15.8191 35.6397 15.8808C35.4527 15.9424 35.0567 15.9046 35.0428 15.8191C35.0189 15.7315 34.7324 15.6957 34.7324 15.6082C34.7324 15.5206 34.5215 15.4211 34.5454 15.5465C34.5693 15.6718 34.3961 15.7335 34.3583 15.6957C34.2967 15.646 34.1713 15.8191 34.1713 15.8191H34.1733Z" fill="white"/>
<path d="M38.9153 13.1371L39.0645 12.6775C38.8536 12.6397 38.9033 12.405 38.9033 12.405C38.8794 12.2179 38.5929 12.007 38.4935 12.0687C38.394 12.1304 38.4318 11.635 38.4318 11.635C38.4318 11.635 38.6188 11.5116 38.7043 11.5733C38.7919 11.635 37.996 10.5307 37.8349 10.6302C37.6737 10.7297 37.3017 10.5307 37.3136 10.3318C37.3375 10.1447 36.5695 9.51203 36.5695 9.51203C36.5695 9.51203 36.3208 9.35087 36.283 9.47422C36.2452 9.59758 36.1596 9.68512 36.283 9.7468C36.4063 9.80848 36.3825 9.64732 36.5317 9.78461C36.6809 9.93383 36.9415 10.1209 36.8421 10.2442C36.7426 10.3676 36.6192 10.4173 36.6192 10.4173L36.7684 10.5904H36.9913L37.0291 10.9505C37.0291 10.9505 37.2778 11.0739 37.3395 11.2231C37.4011 11.3723 37.4011 11.4599 37.3395 11.5335C37.2778 11.621 37.1524 11.7703 37.1783 11.9056C37.2022 12.0548 37.3653 12.1165 37.3653 12.1165L37.5265 12.1403L37.6499 12.202V12.4746C37.811 12.4368 38.0836 12.6616 38.0597 12.8108C38.0358 12.9601 38.0975 12.8725 38.3084 13.0217C38.5193 13.171 38.4576 13.1948 38.5949 13.2943C38.7322 13.3819 38.8556 13.3182 38.9173 13.1332L38.9153 13.1371Z" fill="white"/>
<path d="M35.5125 10.2817C35.4886 10.1942 35.4508 9.90965 35.5741 9.92159C35.6975 9.94547 35.6119 9.9216 35.7612 9.98328C35.9104 10.045 35.9223 9.88379 35.9223 9.88379H36.1452L36.4317 10.1206L36.3939 10.3076L36.183 10.3315C36.0835 10.1703 35.8726 10.232 35.9104 10.3693C35.9482 10.5185 35.8109 10.7911 35.7234 10.803C35.6358 10.8269 35.3752 10.8269 35.3871 10.7035C35.4249 10.5802 35.5105 10.2817 35.5105 10.2817H35.5125Z" fill="white"/>
<path d="M35.3494 9.72292V9.56176C35.3494 9.56176 35.3255 9.4006 35.226 9.4006C35.1265 9.4006 34.9395 9.27724 34.9773 9.1897C35.0151 9.10215 34.6291 9.0166 34.6291 9.0166C34.6291 9.0166 34.2809 8.68035 34.4063 8.71815C34.5297 8.75596 34.468 8.56893 34.468 8.56893C34.468 8.56893 34.2193 8.60673 34.1576 8.59281C34.0959 8.56893 34.1198 8.3819 34.1198 8.3819C34.1198 8.3819 33.8711 8.32023 33.8711 8.3819C33.8711 8.44358 33.9586 8.44358 33.9945 8.56893C34.0323 8.69229 34.0183 8.90518 34.2053 8.94099C34.3924 8.97879 34.4282 9.02853 34.454 9.11409C34.4779 9.20163 34.7027 9.21357 34.7027 9.21357L34.8639 9.30112L35.3474 9.72292H35.3494Z" fill="white"/>
<path d="M33.1139 7.58633L33.0521 7.41288L32.8906 7.375V7.56241L33.1139 7.58633Z" fill="white"/>
<path d="M33.0521 6.70439C32.8412 6.54323 33.3386 6.82774 33.3386 6.82774C33.4998 6.82774 33.6112 6.9511 33.6112 7.01477C33.6112 7.07844 33.834 7.05257 33.834 7.05257L33.8579 6.90335L33.6967 6.69245L33.5475 6.59297C33.5475 6.59297 33.3247 6.56909 33.3247 6.50542C33.3247 6.45568 33.1377 6.76607 33.0521 6.70439Z" fill="white"/>
<path d="M36.8534 6.82995C36.7917 7.01698 36.7659 7.26369 36.6664 7.26369C36.5669 7.26369 36.6047 7.53627 36.6047 7.53627C36.6047 7.53627 36.8773 7.53627 36.9529 7.56014C37.0404 7.58402 37.0404 7.79691 37.0404 7.79691C37.3508 7.77304 37.4742 8.19484 37.4384 8.30626C37.4006 8.40574 37.5617 8.40574 37.5617 8.40574C37.5617 8.40574 37.5617 8.74199 37.5239 8.82754C37.4861 8.9131 37.7965 8.97676 37.8721 9.10012C37.9597 9.22348 37.8343 9.64727 37.7726 9.67115C37.7109 9.69503 37.9338 9.7587 37.9218 9.85818C37.898 9.95766 37.9835 9.85818 38.0094 10.0313C38.0333 10.1924 38.0711 10.5526 38.0711 10.5526L38.3576 10.5764C38.3954 10.3039 38.9286 10.2899 39.0161 10.3277C39.3643 10.4511 39.6369 10.9982 39.6369 11.1216C39.6369 11.2449 39.4141 11.2708 39.4141 11.2708L39.4519 11.8796C39.8001 11.9791 40.0985 12.4885 40.0488 12.576C40.011 12.6636 40.2975 12.6377 40.2975 12.6377C40.3353 12.2656 40.6954 12.389 40.7073 12.5143C40.7312 12.6377 40.7949 12.9123 40.7949 12.9123L40.8944 13.0993L41.0436 13.2485L41.2664 13.2246L41.3281 13.348L41.6007 13.3858C41.6007 13.3858 41.8235 13.6345 41.8494 13.6962C41.8753 13.7579 42.1856 13.734 42.2592 13.7579C42.3468 13.7817 42.4701 13.8454 42.4821 13.9449C42.506 14.0444 42.6313 14.2175 42.6313 14.2175C42.6313 14.2175 42.88 14.2791 42.9039 14.3667C42.9278 14.4542 43.0272 14.6393 43.0272 14.6393L43.2381 14.8124L43.262 14.9994L43.4849 15.0233L43.5465 15.272L43.9186 15.2481L44.1295 15.0989C44.4021 14.9496 44.5891 14.7626 44.601 14.6771C44.6249 14.5895 44.6627 14.2791 44.8736 14.3408C45.0845 14.4025 44.9353 13.8812 44.9353 13.8812C44.9353 13.8812 44.6488 13.6703 44.6627 13.5708C44.6866 13.4713 44.3762 13.2604 44.3902 13.1729C44.414 13.0854 44.1176 12.9242 44.1414 12.8367C44.1653 12.7491 43.9922 12.5263 43.9922 12.5263L43.6818 12.2278L43.644 12.0408L43.3953 12.0169L42.8979 11.4081L42.9218 11.235L42.7726 11.2111V10.9744L42.6234 10.8868L42.4005 10.8629L41.9409 10.3655L41.9031 10.1288H41.6803L41.7181 9.69503C41.8673 9.508 41.7798 9.14788 41.7798 9.14788C41.7798 9.14788 41.4932 9.2971 41.346 9.23542C41.1988 9.17374 41.4077 9.02452 41.4077 9.02452V8.86336L41.2843 8.74C41.2843 8.74 40.9362 8.7778 40.9123 8.71612C40.8884 8.65444 40.8247 8.37987 40.8247 8.37987L40.8008 8.01975L40.6516 7.95807L40.6277 7.83472L40.4049 7.85859V7.60989L40.2816 7.57208L40.1582 7.5104L40.1343 7.2617L39.6747 7.23782L39.5255 7.02692L39.3643 6.77822L38.843 6.74042L38.7197 6.61706L38.5088 6.57926L38.3596 6.51758L38.2979 6.61706L37.9 6.64093L37.8761 6.76429C37.703 6.85183 36.8833 6.76429 36.8574 6.82597L36.8534 6.82995Z" fill="white"/>
<path d="M39.0257 6.28235C38.9879 6.12119 39.4356 5.97197 39.547 6.09533C39.6465 6.21868 39.9449 6.24455 39.9807 6.86532C39.9927 7.08815 39.6087 6.62855 39.6087 6.62855L39.2983 6.52907C39.1252 6.49126 39.0376 6.39178 39.0257 6.28036V6.28235Z" fill="white"/>
<path d="M32.9671 6.54316L32.8555 6.49331L32.9432 6.29395L33.0548 6.35774L32.9671 6.54316Z" fill="white"/>
<path d="M31.8954 4.4819L31.6228 4.20932V3.97256L31.5353 3.88501L31.4478 3.58657L31.1752 3.49902L30.9026 3.59851L30.6161 3.78553L30.3057 3.82333L30.1445 4.01036L30.8031 4.07204L30.9265 4.28294L31.398 4.32074L31.7084 4.63113C31.9949 4.75448 32.0566 4.63113 31.8954 4.4819Z" fill="white"/>
<path d="M31.8633 3.45151C31.8136 3.26449 31.5529 3.68828 31.8255 3.76189C32.0981 3.84944 32.3588 3.76189 32.3588 3.76189L32.4204 3.63854L33.4511 3.66241C33.5386 3.57487 33.5744 3.45151 33.5744 3.45151C33.5744 3.45151 33.8231 3.36397 33.9226 3.41371C34.0221 3.45151 33.9465 3.11526 33.8351 3.165C33.7356 3.20281 33.5247 3.18888 33.5247 3.18888H33.1526C33.1287 3.03966 32.8044 3.10134 32.7806 3.18888C32.7686 3.2625 32.6433 3.28836 32.6433 3.28836L32.1717 3.32616C32.122 3.44952 31.8852 3.53706 31.8614 3.44952L31.8633 3.45151Z" fill="white"/>
<path d="M29.8134 6.9911C30.1357 7.09058 30.2471 7.01498 30.273 6.92942C30.2988 6.84387 30.3108 6.82994 30.4341 6.80606C30.5575 6.78219 30.4102 6.53348 30.2849 6.55736C30.1596 6.58123 30.0362 6.51955 30.0123 6.40813C29.9884 6.30865 29.7895 6.03607 29.7636 6.24697C29.7378 6.45788 29.6144 6.45788 29.6403 6.6071C29.6781 6.74438 29.7397 6.96723 29.8134 6.9911Z" fill="white"/>
<path d="M27.4395 7.22552C27.4276 7.15191 27.8494 7.13798 27.911 7.20165C27.9727 7.26333 27.9349 7.37474 28.1219 7.37474C28.309 7.37474 28.2214 7.4981 28.2095 7.56177C28.1856 7.62345 27.9866 7.59957 27.9608 7.5379C27.9349 7.47622 27.6245 7.45035 27.6245 7.45035C27.6245 7.45035 27.4634 7.327 27.4375 7.22751L27.4395 7.22552Z" fill="white"/>
<path d="M34.2467 2.99111L34.2964 3.04085L34.3342 3.00305L34.5451 2.82995L34.4576 2.73047L34.2964 2.86775L34.1969 2.75633L34.1094 2.85383L34.2467 2.99111Z" fill="white"/>
<path d="M33.324 2.50797L33.3498 2.4821L33.5846 2.33288L33.511 2.2334L33.324 2.35875L33.1887 2.2712L33.125 2.38262L33.2861 2.4821L33.324 2.50797Z" fill="white"/>
<path d="M32.5813 6.77986L32.7166 6.99076L32.8161 6.91516L32.6808 6.69232L32.655 6.66844H32.6311L32.4202 6.64258L32.4062 6.76593L32.5813 6.77986Z" fill="white"/>
<path d="M25.8266 12.5039L25.8505 12.7407H26.1609C26.2843 12.7407 26.0614 12.5915 26.0614 12.5915C26.0614 12.5915 25.8127 12.6153 25.8246 12.5039H25.8266Z" fill="white"/>
<path d="M26.2227 12.5157L26.2984 12.416L26.422 12.5157L26.3483 12.6154L26.2227 12.5157Z" fill="white"/>
<path d="M22.4609 8.59261L22.5487 8.50488L22.6723 8.63049L22.5845 8.71621L22.4609 8.59261Z" fill="white"/>
<path d="M28.2849 35.6754L28.3727 35.7632L28.4724 35.6635L28.5341 35.6017L28.4604 35.5518L28.2471 35.4521L28.1992 35.5638L28.3228 35.6256L28.2849 35.6754Z" fill="white"/>
<path d="M26.6576 34.1615L26.8071 34.2612L26.8809 34.1615L26.7931 34.0997L26.8549 34.0499L26.7812 33.9502L26.6576 34.0618L26.5938 34.1117L26.6576 34.1615Z" fill="white"/>
<path d="M42.2185 30.074C42.1946 29.9626 42.0693 29.9248 42.0573 29.9248L42.0195 30.0482C42.0315 30.0482 42.0434 30.0601 42.0573 30.072L42.0812 30.1835C42.0693 30.1954 42.0573 30.2073 42.0573 30.2213L42.1449 30.3088C42.2066 30.2093 42.2324 30.1476 42.2185 30.072V30.074Z" fill="white"/>
<path d="M42.4064 29.6789L42.207 29.6649L42.219 29.4795L42.4183 29.5034L42.4064 29.6789Z" fill="white"/>
<path d="M47.1844 28.0508C47.2719 28.0011 47.3834 27.8897 47.3714 28.1244C47.3595 28.3612 47.26 28.2856 47.1844 28.3612C47.1108 28.4348 47.061 28.1244 47.1844 28.0508Z" fill="white"/>
<path d="M48.2394 27.1576V27.1336C48.2394 27.0958 48.2274 27.0459 48.2015 26.9961L48.0898 27.0579C48.1018 27.0818 48.1018 27.1197 48.1138 27.1456C48.1138 27.1835 48.1257 27.2194 48.1516 27.2453C48.1756 27.2573 48.2015 27.2692 48.2394 27.2573L48.2154 27.1336C48.2154 27.1456 48.2274 27.1456 48.2394 27.1576Z" fill="white"/>
<path d="M47.9688 27.2576C48.0066 27.3812 48.0425 27.5068 48.0425 27.5188L48.1541 27.4689C48.1541 27.4689 48.1043 27.3453 48.0804 27.2197L47.9688 27.2576Z" fill="white"/>
<path d="M47.5092 27.7522L47.3856 27.7402C47.3737 27.8399 47.3976 27.9635 47.4973 27.9775L47.5212 27.8539C47.5212 27.8539 47.5092 27.804 47.5092 27.7542V27.7522Z" fill="white"/>
<path d="M46.9739 25.2574C46.9619 25.2196 46.95 25.1838 46.9122 25.1699C46.8246 25.1321 46.6635 25.1938 46.5898 25.2435L46.6635 25.343C46.7371 25.2933 46.8505 25.2694 46.8624 25.2813V25.2694L46.9739 25.2574Z" fill="white"/>
<path d="M41.2501 18.564C41.1626 18.6515 40.9776 18.6874 40.9776 18.6874L40.9159 18.9241L40.8164 19.0117C40.8164 19.0117 40.8403 19.0733 40.8164 19.2226C40.7925 19.3718 40.6055 19.4593 40.6055 19.4593L40.5179 19.5588C40.5179 19.5588 40.0205 19.5827 39.9589 19.5588C39.7718 19.4713 39.8972 19.2226 40.0205 19.2484C40.1439 19.2743 39.9966 18.8883 39.9966 18.8883L40.1578 18.8644C40.1578 18.8644 40.1817 18.4924 40.2454 18.4924C40.309 18.4924 40.2215 18.369 40.1459 18.3053C40.0583 18.2437 39.9588 18.0328 39.8733 18.0566C39.7877 18.0805 39.4634 18.0566 39.4634 18.0566L39.4018 18.18L39.1789 18.2178C39.1789 18.2178 39.2028 18.379 39.155 18.4287C39.0317 18.5779 38.5581 18.8883 38.7571 18.367L38.8188 18.2437V18.0566L38.4467 18.0328C38.4467 18.0328 38.2597 17.9711 38.2597 17.8835C38.2597 17.796 38.2358 17.6965 38.2358 17.6965L37.8021 17.213L37.2808 17.1514L37.243 17.0519L36.9326 17.0141C36.5606 16.827 36.2243 16.9902 36.286 17.3125C36.3477 17.6229 36.4471 17.7462 36.2482 17.7462C36.0373 17.7462 35.9995 17.5851 35.9995 17.5851C35.9995 17.5851 35.8383 17.5234 35.8383 17.609C35.8383 17.6945 35.7767 17.8577 35.8383 17.9452C35.9 18.0328 35.7508 18.1561 35.6891 18.0944C35.6274 18.0328 35.4663 17.8457 35.5021 17.7841C35.5399 17.7224 35.2156 17.3244 35.5399 17.2628C35.8761 17.2011 35.516 17.0141 35.6394 16.9643L35.8005 16.8768H35.9617L36.0612 16.7892L35.7886 16.7514L35.6274 16.7276L35.317 16.7037C35.0067 16.9146 34.945 17.1633 34.945 17.1633C34.7838 17.4737 34.3859 17.0399 34.5351 16.8648C34.6843 16.6898 34.0755 16.841 33.976 16.9265C33.8765 17.0141 33.5662 16.9643 33.5662 16.9643C33.5045 17.1514 33.218 16.9404 33.2936 16.8151C33.3811 16.6917 33.3811 16.6042 33.3811 16.6042L33.2816 16.5803L33.1583 16.8171C32.8718 16.8171 32.7862 16.9783 32.8479 17.0897C32.9096 17.1892 32.7604 17.0658 32.7245 17.213C32.6867 17.3623 32.7484 17.3623 32.8738 17.4239C32.9971 17.4856 32.8121 17.4856 32.8976 17.5851C32.9852 17.6846 33.2339 17.5851 33.0847 17.7343C32.9354 17.8835 32.6509 17.8219 32.6509 17.8219C32.6271 18.0089 32.2411 17.9711 32.1913 17.9094C32.1535 17.8477 31.8431 17.4757 31.8431 17.4757L31.4452 17.4518C31.4074 17.1533 31.6322 17.3026 31.7178 17.0797C31.8053 16.843 31.8411 16.4709 31.8411 16.4709C31.8411 16.4709 31.5049 16.447 31.493 16.5584C31.4691 16.6579 31.2701 16.7315 31.2701 16.7315C31.2701 16.7315 31.109 16.7932 31.1706 16.8808C31.2323 16.9683 31.0473 17.0041 31.0473 17.0041C31.0473 17.0041 31.0851 17.1414 31.0234 17.1911C30.8622 17.3642 30.4404 17.215 30.3768 17.1533L30.1281 17.0539L29.8794 16.8927L29.5929 17.0161L29.5053 17.1036H29.1949L29.1711 17.3523L29.7301 17.414L29.768 17.9353L29.5451 17.8617H29.3959L29.3342 17.7383L29.2108 17.7144V18.174L29.3342 18.2735L29.4337 18.373L29.6446 18.3969L29.6824 18.6456L30.2037 18.6694L30.2654 18.7689L30.5757 18.7928L31.1726 19.4016L31.1348 19.5887L31.0353 19.6503C31.0732 19.7996 30.7628 19.712 30.7628 19.712V19.8354L30.912 19.8592L31.0612 19.9468L31.2721 19.5867C31.4949 19.4374 31.6084 19.6483 31.6203 19.7737C31.6442 19.897 31.5208 19.8732 31.5208 19.8732V20.1716L31.6442 20.2094C31.8551 20.4581 31.5566 20.6073 31.5566 20.6073L31.4949 20.8182C31.4333 21.0053 31.2084 20.9675 31.2084 20.9675L31.1209 21.0908L30.8722 21.1525L31.3557 21.2142C31.4054 21.0411 31.5288 21.0033 31.5924 21.0908C31.6541 21.1784 31.6541 21.3276 31.6541 21.3276L31.7775 21.3515L31.7536 21.5882L31.877 21.626V22.2965L32.0262 22.4577C32.2749 22.3582 32.2749 22.5194 32.1495 22.6069C32.0242 22.6945 32.1117 23.0665 32.1117 23.0665L32.0122 23.166V23.3391L31.8889 23.4267V23.6634C31.678 23.564 31.4293 23.6018 31.3676 23.6634C31.1806 23.5401 30.7847 23.5759 30.7847 23.6873C30.908 23.8485 30.6354 23.8982 30.6354 23.8982L30.4862 24.0594C30.5857 24.2703 30.3867 24.2961 30.3867 24.2961V24.6941L30.138 24.9308L30.1619 25.478C30.1619 25.6272 30.4723 25.6391 30.534 25.5655C30.5956 25.478 30.8443 25.7386 30.8443 25.7386H31.0314L31.0692 25.3666L30.9458 25.3049V24.696L31.1567 24.4593C31.4054 24.3717 31.3179 25.0064 31.3179 25.0681C31.3417 25.3049 31.4412 25.279 31.5407 25.2293C31.7516 25.1417 31.5785 25.466 31.4173 25.4402C31.2562 25.4163 31.3557 25.6511 31.3557 25.6511L31.4552 25.6889L31.2681 25.8381L31.107 26.0251L30.8961 25.9635L30.6474 25.9396L30.5598 25.7903L30.4106 25.7665L30.3867 26.0649L30.2872 26.1883L30.0385 26.437C30.3748 26.437 30.0007 26.6737 29.9152 26.6737C30.1022 26.7354 29.8913 26.9224 29.4178 26.7732V26.9224L29.2566 26.9463L29.4058 27.1075L29.567 27.1314L29.5053 27.4915C29.5053 27.7641 28.8229 27.579 28.7612 27.5154L28.7373 27.8874L28.614 27.9113L28.6378 28.16L28.614 28.5201L28.8368 28.4823V28.6315L29.3959 28.6554L30.2037 27.7979L30.6752 27.6984C30.713 27.4875 30.9239 27.7362 30.9239 27.7362C31.1348 27.7123 31.1726 27.8596 31.1726 27.8596L31.4452 27.8974C31.668 27.9591 31.5327 27.9849 31.5447 28.0705C31.5686 28.1938 31.668 28.158 31.668 28.158L31.7059 27.8854L31.8292 27.9093L31.7059 27.7601L31.483 27.6606L31.2343 27.5611C31.0732 27.3244 31.2721 27.3741 31.4452 27.4H31.7178C31.7178 27.4 32.0282 27.8218 32.0282 27.9212C32.0282 28.0207 32.1774 28.0446 32.1774 28.0446L32.3644 28.0207L32.4261 28.17H32.6131L32.6748 28.2933H33.0469L33.0707 28.1063L32.7226 28.0446L32.6987 27.8337L32.45 27.772C32.3624 27.4119 32.5116 27.3124 32.6111 27.4736L32.7345 27.4975L32.6967 27.1871L32.8459 27.1493L32.8081 26.7155L32.6847 26.6777V26.5285L33.206 26.5524C33.1682 26.2798 33.2299 26.1544 33.2299 26.1544H33.3791L33.403 26.2539L34.0357 26.3156L34.4834 25.8063C34.4595 25.7685 34.5331 25.7446 34.4834 25.6948C34.4217 25.6332 34.3342 25.6948 34.2347 25.6332C34.1352 25.5715 34.2347 25.2114 34.2108 25.1358C34.1869 25.0482 34.559 24.9249 34.4973 25.1119C34.4356 25.2989 34.4973 25.3845 34.4973 25.3845C34.7699 25.1358 34.9947 25.4083 34.9689 25.472C34.943 25.5357 35.1181 25.5954 35.2176 25.5337C35.317 25.472 35.4404 25.7207 35.4046 25.8441C35.3688 25.9674 34.9947 25.9435 34.9708 25.8202C34.947 25.6968 34.8833 25.7326 34.8475 25.7963C34.8097 25.858 34.6246 25.8958 34.5112 25.8341C34.4874 25.8222 34.4873 25.8102 34.4734 25.7963L34.0258 26.3057H34.0497C34.2984 26.4549 34.173 26.6419 34.0874 26.6777C33.9999 26.7155 33.8646 26.7155 33.8646 26.7155L33.8268 26.8031L33.2936 26.8409L33.2558 27.0518C32.9832 27.014 32.8837 27.3005 32.9454 27.4497C33.0071 27.5989 32.9454 27.7223 32.9454 27.7223L33.1682 27.8218L33.4547 27.7342C33.4925 27.5233 33.6776 27.4855 33.8527 27.3622C34.0138 27.2388 34.2864 27.5989 34.2008 27.7601C34.1133 27.9212 34.1133 27.9969 34.1133 27.9969L34.1372 28.1839L33.9263 28.2714L33.7651 28.359L33.7412 28.4585H33.1821L33.0827 28.5579L32.8101 28.5818L32.7226 28.7052L32.5355 28.729C32.5355 28.729 32.2251 28.8783 32.3485 29.0394C32.4719 29.2125 31.8272 29.1886 31.6899 28.9519C31.6521 29.1628 31.4173 28.9757 31.4173 28.9757L31.1945 28.9141L31.1706 28.6037C31.1328 28.3928 30.7369 28.3928 30.7608 28.542C30.7847 28.6912 30.0167 28.6037 30.0167 28.6037L29.768 28.727L29.5451 28.8643L29.5212 28.9638L29.1492 29.0016L28.988 29.0892L28.9263 28.9658H28.7652L28.604 29.2026C28.1703 29.2264 27.7604 29.4752 27.7962 29.5746C27.834 29.6741 27.635 29.7855 27.635 29.7855L27.448 29.8472L27.3247 30.0342L27.076 30.1218L27.0382 30.5555L26.9148 30.6431V30.8301L26.7656 30.8679V30.9674L26.5547 30.9913L26.678 31.3016L26.8392 31.3892C27.1257 31.427 27.0004 31.7871 27.0004 31.7871L27.1615 31.811L27.2491 32.0477L27.4102 32.384C27.4719 32.6327 27.6589 32.571 27.7465 32.5571C27.834 32.5332 27.9076 32.8058 27.9076 32.8058L28.7274 32.8297C28.7274 32.8297 28.6896 32.9172 28.8269 32.953C28.9761 32.9908 29.9192 33.0406 29.957 32.9769C29.9192 32.7899 30.4782 32.7402 30.7011 32.9152C30.9239 33.0764 31.2343 32.9769 31.2343 32.9769L31.5447 33.349L31.7556 33.8086L32.1038 33.9081L32.3525 33.9697L32.44 34.3299L32.6271 34.3537L32.6887 34.5905C32.9116 34.7517 32.6271 35.1118 32.6271 35.1118V35.5714L32.7882 35.6589L32.7643 35.832L33.0369 36.1046L33.3473 36.1285L34.1292 36.9602L34.75 37.1472L34.8495 37.4834L35.0106 37.4596L35.134 37.3601L35.6314 37.3362L35.8801 37.0994L36.1527 37.0616L38.4507 35.1118L38.2398 34.9884V34.5288C38.6119 34.2562 38.6377 33.7708 38.2776 33.735C38.017 33.6972 38.1284 33.4246 38.3771 33.3748L38.5263 33.3132V33.1261L38.9979 32.6924V32.3561L37.9672 31.4986C37.5076 31.3374 37.9672 30.3307 38.2776 30.3446C38.588 30.3685 38.2537 28.7927 38.2537 28.7927L38.0926 28.7052L38.1304 28.1958H37.9075L37.5355 28.6793L37.436 29.0155C37.3982 29.4493 36.1189 29.3757 36.0572 29.314C35.9955 29.2523 35.5598 29.0653 35.5598 29.0653C35.5598 29.0653 35.2235 28.7927 35.1619 28.8783C35.1002 28.9638 34.8137 28.7788 34.8137 28.8405C34.8137 28.9021 34.5411 28.6912 34.5411 28.6912L34.1312 28.542L34.4416 28.4803L34.3799 28.2316L34.9131 28.5042C34.9748 28.5918 35.2494 28.5659 35.2494 28.5659L35.3369 28.6654C35.3369 28.6654 35.4981 28.6415 35.6095 28.7648C35.709 28.8882 36.2562 28.7887 36.2562 28.7887L36.4054 28.9121L36.6282 28.9996L37.2748 29.0235L37.2987 28.6256L37.4221 28.5022L37.3982 28.2535L37.5474 28.1302V27.9193L37.6708 27.8815L37.6947 27.4218L37.7941 27.398V26.3912L37.4837 26.0928C37.4599 26.1923 37.1356 26.1923 37.1356 26.1923C37.1356 26.1923 37.048 26.3415 36.9863 26.3415C36.9247 26.3415 37.0739 26.5285 37.0241 26.6519C36.9863 26.7752 36.8132 26.7752 36.8132 26.7752L36.5029 26.8628L36.4153 26.9622H36.0791L36.0413 26.6897L36.4133 26.5902L36.6242 26.4907L36.7237 26.2798C36.7476 26.0689 36.9963 26.0928 36.9963 26.0928C36.9963 26.0928 37.4678 25.6948 37.4937 25.5098C37.5196 25.3248 37.6807 24.8015 37.9652 24.8015H38.4985C38.7094 24.714 38.6477 24.4414 38.6477 24.4414L38.9203 24.4036L38.9581 24.5528C38.9581 24.5528 39.3301 24.5906 39.3679 24.5289C39.4057 24.4672 39.4913 24.318 39.5908 24.3797C39.6903 24.4414 40.0245 24.2305 40.0245 24.2305C40.0484 24.0813 40.5577 24.1429 40.5577 24.1429L40.6194 23.9559C40.6194 23.9559 40.2712 23.4724 40.2096 23.4724C40.1479 23.4724 39.8116 23.174 39.7758 23.2854C39.4396 23.1979 39.4654 22.7382 39.4654 22.7382L39.3421 22.4398C39.3421 22.2667 39.0317 21.9185 38.97 21.9563C38.6596 21.7196 38.8825 21.4589 38.97 21.435C39.0576 21.4112 39.2565 21.1247 39.2565 21.1247L39.356 20.8262L39.7042 20.7267L39.742 20.4542L39.555 20.4303C39.555 20.4303 39.7659 20.0582 39.8654 20.0582C39.9648 20.0582 40.6473 20.0582 40.709 20.0204C40.7706 19.9826 40.896 19.6483 40.896 19.5867C40.896 19.525 41.0571 19.4991 41.1188 19.4872C41.1805 19.4633 41.3297 19.3002 41.3675 19.2146C41.4789 19.0037 41.3436 18.4824 41.2561 18.568L41.2501 18.564Z" fill="white"/>
<path d="M29.813 26.1128C29.8369 26.089 29.8747 26.2123 29.9364 26.1864C29.9981 26.1745 30.0239 26.2979 29.9603 26.2979C29.8966 26.2979 29.8986 26.3715 29.8986 26.4093C29.8986 26.4471 29.8986 26.5207 29.8488 26.5704C29.7991 26.6202 29.7613 26.5824 29.6996 26.5585C29.6379 26.5207 29.6121 26.5207 29.5265 26.5207C29.4529 26.5207 29.5146 26.6441 29.5146 26.6441C29.5146 26.6441 29.1923 26.6321 29.2539 26.5824C29.3156 26.5326 29.3773 26.5207 29.3276 26.4829C29.2778 26.4451 29.3276 26.4212 29.3276 26.3595C29.3276 26.2979 29.4768 26.3217 29.439 26.2859C29.3892 26.2362 29.439 26.0631 29.5126 26.1626L29.5623 26.0512C29.5126 26.0014 29.5504 25.9895 29.4509 25.9517C29.3634 25.9139 29.439 25.7288 29.439 25.7288L29.4509 25.6055C29.4748 25.4443 29.7872 25.4324 29.811 25.5677C29.823 25.7049 29.811 25.8044 29.811 25.8044L29.8986 25.8422C29.8986 25.8422 29.8867 25.9417 29.811 25.9417C29.7354 25.9417 29.811 25.9915 29.7613 26.0412L29.811 26.1148L29.813 26.1128Z" fill="white"/>
<path d="M28.795 26.2761C28.8447 26.1766 28.9442 25.7787 29.0675 25.9041C29.1909 26.0294 29.2665 25.9041 29.2665 25.9041C29.2665 25.9041 29.3282 25.9657 29.2904 26.0911C29.2665 26.2144 29.2287 26.3398 29.1531 26.3637C29.0795 26.3756 29.0158 26.4253 28.9163 26.4373C28.8427 26.4492 28.793 26.2761 28.793 26.2761H28.795Z" fill="white"/>
</svg>
