<svg width="99" height="27" viewBox="0 0 99 27" fill="none" xmlns="http://www.w3.org/2000/svg">
<path d="M85.1996 13.7251L82.2377 11.8173C80.7559 10.8305 80.0748 10.3034 80.0748 9.22474C80.0748 8.238 80.8224 7.5927 81.9162 7.5927C82.8236 7.5927 83.4247 7.77653 84.2122 8.51377L86.2934 12.0799H86.8012V7.30192C86.8012 7.11808 86.6414 6.97363 86.4664 6.97363C85.3327 6.98676 84.3701 6.97363 82.797 6.97363C82.2491 6.97363 81.7032 7.03929 81.1686 7.19687C78.2049 8.05229 76.7383 9.55303 76.7383 11.4346C76.7383 13.3161 77.8854 14.2241 79.0876 15.027L81.9828 16.9348C83.5179 17.9215 84.1857 18.3961 84.1857 19.5798C84.1857 20.4746 83.3981 21.3038 81.9562 21.3038C80.8091 21.3038 80.0882 20.7898 79.1542 19.9738L77.3528 16.4602H76.8315V20.8817C77.5125 21.21 78.4199 21.5139 79.4338 21.724C81.2619 22.1048 83.1698 21.9078 84.8134 21.0262C86.6148 20.0657 87.4156 18.7225 87.4422 17.2481C87.4156 15.6948 86.8146 14.7212 85.1996 13.7213V13.7251Z" fill="white"/>
<path d="M75.2688 7.11816H73.4274C73.3075 7.11816 73.1877 7.18382 73.1344 7.302L70.6254 12.08L70.4257 7.43332C70.4124 7.26261 70.2659 7.11816 70.0928 7.11816H66.8095C66.623 7.11816 66.4766 7.26261 66.4766 7.44645V21.1613C66.4766 21.3451 66.623 21.4896 66.8095 21.4896H70.3191C70.5056 21.4896 70.652 21.3451 70.652 21.1613V12.7647L71.0515 12.1719C71.4244 11.6054 72.0654 11.2771 72.7464 11.2771H75.2688C75.4571 11.2771 75.6035 11.1326 75.6035 10.9488V7.44833C75.6035 7.26449 75.4571 7.12004 75.2688 7.12004V7.11816Z" fill="white"/>
<path d="M97.799 18.9763C96.9316 19.3834 96.2905 19.6348 95.3831 19.6348C94.4225 19.6348 93.7281 19.0682 93.7281 17.8189V8.24981H97.5593V7.77519H93.7281V4.04961C93.7281 3.80012 93.4619 3.64254 93.2336 3.76073L89.7239 5.616C89.6174 5.66853 89.5508 5.78672 89.5508 5.9049V18.0796C89.5508 19.7379 90.0454 20.9892 91.2058 21.567C92.0199 21.974 93.0072 21.9346 93.8214 21.5144L98.0253 19.4078L97.799 18.9726V18.9763Z" fill="white"/>
<path d="M12.6202 7.11816H9.09719C8.91077 7.11816 8.7643 7.27574 8.7643 7.44645V19.1203C7.77703 19.8181 7.04272 20.3453 5.81387 20.3453C4.30538 20.3453 4.38528 18.4769 4.38528 17.6477V7.44833C4.38528 7.26449 4.2388 7.12004 4.05238 7.12004H0.356331C0.169911 7.12004 0.0234375 7.27762 0.0234375 7.44833V17.5427C0.0234375 21.3076 1.87814 21.8854 3.50646 21.8854C5.13479 21.8854 6.72311 21.1088 8.8308 19.9119C8.97728 19.8463 11.4198 20.9643 12.4737 21.4652C12.7 21.5703 12.9549 21.4127 12.9549 21.1632V7.44833C12.9549 7.26449 12.8084 7.12004 12.622 7.12004L12.6202 7.11816Z" fill="white"/>
<path d="M25.3816 7.1707C23.272 7.1707 21.4573 8.51385 20.4301 9.77634L20.2436 7.42018C20.2303 7.24948 20.0839 7.11816 19.9108 7.11816H16.6141C16.4277 7.11816 16.2812 7.26261 16.2812 7.44645V26.0706C16.2812 26.307 16.521 26.4645 16.7359 26.3858L20.2455 25.082C20.3787 25.0295 20.4586 24.9113 20.4586 24.7668V21.0806C21.326 21.726 22.3799 21.8835 23.1807 21.8835C25.4634 21.8835 30.0669 19.8444 30.0669 13.592C30.0802 9.39366 27.7841 7.16882 25.3816 7.16882V7.1707ZM22.2448 21.03C21.4573 21.0694 20.8295 20.7017 20.47 20.2008V10.7237C20.47 10.7237 21.6038 9.55311 22.6995 9.55311C24.421 9.55311 25.4748 11.1983 25.4748 15.2259C25.4748 18.7658 24.3278 21.03 22.2448 21.03Z" fill="white"/>
<path d="M41.7159 7.1707C39.6064 7.1707 37.7916 8.51385 36.7644 9.77634L36.578 7.42018C36.5647 7.24948 36.4182 7.11816 36.2451 7.11816H32.9618C32.7754 7.11816 32.6289 7.26261 32.6289 7.44645V26.0706C32.6289 26.307 32.8686 26.4645 33.0836 26.3858L36.5933 25.082C36.7264 25.0295 36.8062 24.9113 36.8062 24.7668V21.0806C37.6737 21.726 38.7275 21.8835 39.5284 21.8835C41.8111 21.8835 46.4145 19.8444 46.4145 13.592C46.4145 9.39366 44.1185 7.16882 41.7159 7.16882V7.1707ZM38.5792 21.03C37.7917 21.0694 37.1639 20.7017 36.8044 20.2008V10.7237C36.8044 10.7237 37.9381 9.55311 39.0338 9.55311C40.7686 9.55311 41.8092 11.1983 41.8092 15.2259C41.7959 18.7658 40.6621 21.03 38.5792 21.03Z" fill="white"/>
<path d="M62.4145 7.11816H58.8915C58.7051 7.11816 58.5586 7.26261 58.5586 7.44645V21.1744C58.5586 21.3583 58.7051 21.5027 58.8915 21.5027H62.4145C62.6009 21.5027 62.7473 21.3583 62.7473 21.1744V7.44645C62.7473 7.26261 62.6009 7.11816 62.4145 7.11816Z" fill="white"/>
<path d="M53.2735 3.66847L53.2868 3.57655C53.3267 3.39271 53.4999 3.24826 53.6863 3.24826H58.1965C58.6093 3.24826 59.0373 3.31392 59.4368 3.44523L62.1722 4.32692C62.2121 4.34005 62.2521 4.34005 62.3054 4.34005C62.5317 4.34005 62.7181 4.15621 62.7181 3.93298V0.813322C62.7181 0.590087 62.5317 0.40625 62.3054 0.40625H55.3793C54.7382 0.40625 54.1105 0.642617 53.6311 1.05157L50.8291 3.46024C49.4138 4.61769 48.8412 5.84266 48.8412 7.50097V7.68482C48.8412 7.72422 48.8013 7.76361 48.7613 7.76361H47.1464C47.1064 7.76361 47.0664 7.803 47.0664 7.84239V8.17068C47.0664 8.21007 47.1064 8.24948 47.1464 8.24948H48.7613C48.8013 8.24948 48.8412 8.28887 48.8412 8.32826V21.0958C48.8412 21.319 49.0276 21.5029 49.254 21.5029H52.6039C52.8303 21.5029 53.0167 21.319 53.0167 21.0958V8.32826C53.0167 8.28887 53.0566 8.24948 53.0966 8.24948H56.8459C56.8858 8.24948 56.9258 8.21007 56.9258 8.17068V7.85553C56.9391 7.81613 56.9124 7.77674 56.8592 7.77674H53.108C53.068 7.77674 53.0281 7.73735 53.0281 7.69796V6.85567C53.0281 5.27614 53.0547 4.5389 53.2677 3.67035L53.2735 3.66847Z" fill="white"/>
</svg>
