<svg width="65" height="53" viewBox="0 0 65 53" fill="none" xmlns="http://www.w3.org/2000/svg">
<path d="M2.41618 44.9209L4.56698 50.0243L6.64615 44.9209H8.79694L5.46629 52.6089H3.61991L0.171875 44.9209H2.41618Z" fill="white"/>
<path d="M9.47691 46.5857C9.85096 45.9292 10.3543 45.4477 10.9612 45.1612C11.568 44.8767 12.2107 44.7334 12.8653 44.7334C13.7884 44.7334 14.5604 44.9642 15.1911 45.4338C15.8219 45.8934 16.2437 46.4306 16.4526 47.0653C16.6754 47.7218 16.7908 48.2809 16.7908 48.7405C16.7908 49.5185 16.6038 50.2407 16.2297 50.9192C15.9492 51.4345 15.5751 51.8503 15.1195 52.1448C14.6639 52.4412 14.2321 52.6263 13.8342 52.7039C13.4363 52.7695 13.11 52.8133 12.8633 52.8133C12.2087 52.8133 11.6237 52.6919 11.1343 52.4631C10.6428 52.2323 10.235 51.916 9.90667 51.532C9.58037 51.148 9.33366 50.7222 9.17051 50.2407C9.00736 49.7592 8.92578 49.2658 8.92578 48.7624C8.92578 47.9526 9.11281 47.2403 9.47492 46.5838L9.47691 46.5857ZM11.1243 49.6518C11.2059 49.9363 11.3233 50.189 11.4745 50.3959C11.6257 50.6028 11.8247 50.7799 12.0595 50.8993C12.2942 51.0187 12.5628 51.0863 12.8653 51.0863H12.9707C13.297 51.0863 13.5676 51.0087 13.7884 50.8456C14.0332 50.6585 14.2202 50.4397 14.3734 50.189C14.5127 49.9363 14.6181 49.6737 14.6778 49.4011C14.7136 49.2041 14.7355 49.039 14.7355 48.8977C14.7355 48.842 14.7355 48.7883 14.7236 48.7445C14.7236 48.1635 14.5943 47.682 14.3376 47.2881C14.0809 46.8941 13.8123 46.6534 13.5198 46.544C13.2512 46.4445 13.0523 46.4007 12.9011 46.4127H12.8553C12.3758 46.4127 11.9779 46.5778 11.6635 46.8941C11.4069 47.1568 11.2318 47.4532 11.1383 47.7815C11.0447 48.1098 10.999 48.4282 10.999 48.7445C10.999 49.0609 11.0447 49.3693 11.1283 49.6538L11.1243 49.6518Z" fill="white"/>
<path d="M18.3674 46.5856C18.6241 46.0822 18.9862 45.6982 19.4538 45.4137C19.9214 45.1292 20.3531 44.9422 20.763 44.8546C21.137 44.7671 21.4414 44.7333 21.6742 44.7333H21.7439C22.1418 44.7333 22.6094 44.8109 23.1466 44.9641V41.9736H25.2377V52.6182H23.3097L23.2281 52.0273C23.0292 52.2362 22.7725 52.4113 22.4561 52.5645C22.1398 52.7177 21.7657 52.7953 21.334 52.7953C20.7729 52.7953 20.2715 52.6858 19.8378 52.455C19.404 52.2242 19.0439 51.9298 18.7514 51.5577C18.459 51.1856 18.2381 50.7479 18.0849 50.2664C17.9337 49.773 17.8521 49.2696 17.8521 48.7324C17.8402 47.9107 18.0153 47.1984 18.3655 46.5856H18.3674ZM20.0149 49.6079C20.0845 49.9043 20.2019 50.155 20.3531 50.3739C20.5043 50.5927 20.7033 50.7678 20.9381 50.8991C21.1708 51.0305 21.4514 51.0961 21.7677 51.0961C22.0244 51.0961 22.293 51.0305 22.5616 50.8991C22.8302 50.7678 23.0292 50.6146 23.1466 50.4276V46.6274C22.7029 46.4742 22.3169 46.3966 22.0005 46.3966C21.4156 46.3966 20.9381 46.5717 20.574 46.9338C20.2238 47.284 20.0129 47.6341 19.9552 47.9744C19.9094 48.2151 19.8855 48.4121 19.8855 48.5553C19.8855 48.5991 19.8855 48.6429 19.8975 48.6767C19.8975 49.005 19.9333 49.3114 20.0149 49.6079Z" fill="white"/>
<path d="M26.6891 49.2681C26.8761 48.9617 27.1208 48.7091 27.4252 48.5021C27.7296 48.2952 28.0559 48.1301 28.3962 48.0206C28.7344 47.9112 29.0627 47.8336 29.3432 47.8018C29.5064 47.7799 30.0675 47.7142 31.0504 47.6048V47.4954C31.0504 47.0676 30.933 46.7612 30.7002 46.5861C30.4674 46.411 30.151 46.3115 29.7292 46.3115C29.3074 46.3115 28.9234 46.3991 28.5494 46.5642C28.1753 46.7294 27.8948 46.8925 27.6958 47.0457L26.9955 45.655C27.2283 45.4361 27.6739 45.2172 28.3285 45.0203C29.007 44.8114 29.59 44.7139 30.0814 44.7139C30.6067 44.7139 31.0623 44.7915 31.4483 44.9447C31.8343 45.0979 32.1606 45.3068 32.4192 45.5794C32.6759 45.8539 32.8629 46.1603 32.9803 46.5205C33.0977 46.8826 33.1554 47.2546 33.1554 47.6585V52.6087H31.2036L31.122 52.0278C30.8991 52.2586 30.6087 52.4436 30.2565 52.5869C29.9063 52.7182 29.5203 52.7958 29.1005 52.7958C28.7503 52.7958 28.4101 52.7401 28.0957 52.6306C27.7694 52.5212 27.4889 52.3561 27.2303 52.1491C26.9855 51.9402 26.7746 51.6895 26.6234 51.3831C26.4722 51.0767 26.3906 50.7365 26.3906 50.3545C26.4145 49.9386 26.508 49.5765 26.695 49.2701L26.6891 49.2681ZM28.7682 50.9215C28.9672 51.0747 29.2477 51.1523 29.6218 51.1523C29.8904 51.1523 30.159 51.0966 30.4157 50.9872C30.6723 50.8778 30.8952 50.7464 31.0702 50.5813V49.0155C30.3798 49.0931 29.9143 49.1468 29.6914 49.1806C29.2358 49.2681 28.9195 49.4114 28.7444 49.6183C28.5693 49.8252 28.4758 50.056 28.4758 50.2968C28.4638 50.5594 28.5573 50.7564 28.7682 50.9215Z" fill="white"/>
<path d="M34.2852 44.9204H35.3715V44.5046C35.3715 43.7604 35.5346 43.1695 35.8629 42.7298C36.1793 42.2801 36.5533 42.0175 36.9851 41.92C37.395 41.8205 37.7571 41.7668 38.0714 41.7549C38.5848 41.7549 39.0066 41.7987 39.3448 41.8862C39.683 41.9737 39.882 42.0394 39.9417 42.0732L39.697 43.7167C39.6273 43.6828 39.498 43.6391 39.299 43.5853C39.1001 43.5296 38.8315 43.4978 38.5052 43.4978C38.2127 43.4978 37.968 43.5754 37.769 43.7385C37.57 43.9037 37.4646 44.1663 37.4646 44.5483V44.9104H39.2413V46.5101H37.4885V52.6103H35.3735V46.5101H34.2871V44.9224L34.2852 44.9204Z" fill="white"/>
<path d="M40.1878 46.5857C40.5619 45.9292 41.0653 45.4477 41.6721 45.1612C42.279 44.8767 42.9216 44.7334 43.5762 44.7334C44.4994 44.7334 45.2714 44.9642 45.9021 45.4338C46.5328 45.8934 46.9546 46.4306 47.1635 47.0653C47.3863 47.7218 47.5017 48.2809 47.5017 48.7405C47.5017 49.5185 47.3147 50.2407 46.9407 50.9192C46.6601 51.4345 46.2861 51.8503 45.8304 52.1448C45.3748 52.4412 44.9431 52.6263 44.5451 52.7039C44.1472 52.7695 43.8209 52.8133 43.5742 52.8133C42.9196 52.8133 42.3347 52.6919 41.8452 52.4631C41.3538 52.2323 40.9459 51.916 40.6176 51.532C40.2913 51.148 40.0446 50.7222 39.8814 50.2407C39.7183 49.7592 39.6367 49.2658 39.6367 48.7624C39.6487 47.9526 39.8237 47.2403 40.1859 46.5838L40.1878 46.5857ZM41.8472 49.6518C41.9288 49.9363 42.0462 50.189 42.1974 50.3959C42.3486 50.6048 42.5476 50.7799 42.7823 50.8993C43.0171 51.0187 43.2857 51.0863 43.5881 51.0863H43.6936C44.0199 51.0863 44.2905 51.0087 44.5113 50.8456C44.756 50.6585 44.9431 50.4397 45.0963 50.189C45.2475 49.9363 45.341 49.6737 45.4007 49.4011C45.4365 49.2041 45.4584 49.039 45.4584 48.8977C45.4584 48.842 45.4584 48.7883 45.4465 48.7445C45.4465 48.1635 45.3171 47.682 45.0605 47.2881C44.8038 46.8941 44.5352 46.6534 44.2427 46.544C43.9741 46.4445 43.7752 46.4007 43.6239 46.4127H43.5782C43.0987 46.4127 42.7008 46.5778 42.3864 46.8941C42.1297 47.1568 41.9546 47.4532 41.8611 47.7815C41.7676 48.1098 41.7219 48.4282 41.7219 48.7445C41.7219 49.0609 41.7676 49.3693 41.8512 49.6538L41.8472 49.6518Z" fill="white"/>
<path d="M48.7309 44.9204H50.6469L50.7524 45.5332C51.0787 45.2805 51.4527 45.0836 51.8626 44.9423C52.2824 44.7991 52.6923 44.7334 53.1121 44.7334C53.7667 44.7334 54.3397 44.8767 54.7953 45.1492C55.2629 45.4238 55.5892 45.8396 55.7762 46.3748C55.9632 46.912 56.0567 47.4811 56.0567 48.072V52.6283H53.9418V48.2371C53.9418 47.6462 53.8124 47.1966 53.5558 46.8802C53.2991 46.5619 52.937 46.3987 52.4575 46.3987C52.1312 46.3987 51.8268 46.4763 51.5462 46.6395C51.2657 46.8026 51.021 46.9797 50.822 47.1647V52.6183H48.707V44.9204H48.7309Z" fill="white"/>
<path d="M57.5973 47.0455C57.7963 46.5422 58.0649 46.1263 58.415 45.7861C58.7652 45.4459 59.1631 45.1832 59.6307 44.9982C60.0863 44.8112 60.5778 44.7236 61.103 44.7236C62.0262 44.7236 62.7743 44.9644 63.3593 45.4359C63.9442 45.9174 64.3302 46.4765 64.4934 47.1331C64.6685 47.7678 64.75 48.3587 64.75 48.9078V49.258H59.4337C59.4795 49.9046 59.6904 50.3742 60.0764 50.6607C60.4624 50.9452 60.9638 51.0885 61.5726 51.0885C62.1098 51.0885 62.5893 51.0109 62.9992 50.8477C63.409 50.6945 63.6896 50.5413 63.8408 50.3981L64.4019 52.0077C64.1571 52.1828 63.9104 52.3041 63.6896 52.3698C63.5503 52.4355 63.2101 52.5131 62.6848 52.6105C62.1595 52.72 61.7039 52.7757 61.2821 52.7757C60.7449 52.7757 60.2415 52.6981 59.7521 52.5349C59.2606 52.3698 58.8408 52.1291 58.4787 51.7908C58.1166 51.4506 57.8241 51.0348 57.6132 50.5433C57.4023 50.0399 57.2969 49.449 57.2969 48.7467C57.3088 48.1219 57.4023 47.5429 57.6013 47.0495L57.5973 47.0455ZM62.5993 47.8454C62.5634 47.4077 62.4361 47.0794 62.1894 46.8386C61.9566 46.6078 61.7338 46.4546 61.5109 46.4009C61.3 46.3452 61.1607 46.3134 61.0792 46.3134C60.7171 46.3134 60.3669 46.4447 60.0386 46.6974C59.7123 46.95 59.5253 47.332 59.4656 47.8474H62.5973L62.5993 47.8454Z" fill="white"/>
<path d="M41.3909 1.81853C37.7678 2.30002 34.9644 5.46553 34.8928 9.31945C39.9067 10.1849 43.693 13.3385 43.693 18.9672C43.693 24.5959 38.878 28.79 32.8594 28.79C26.8766 28.802 22.0258 23.8736 22.0258 17.4889C22.0258 8.68476 30.3704 1.38081 40.9234 1.60961C38.4562 0.580974 35.7344 0 32.8594 0C21.99 0 13.168 8.25699 13.168 18.4519C13.168 28.6468 21.992 36.9038 32.8594 36.9038C43.7268 36.9038 52.5508 28.6468 52.5508 18.4519C52.5508 11.126 47.9925 4.79701 41.3909 1.81853Z" fill="white"/>
</svg>
