<svg width="200" height="100" viewBox="0 0 200 100" fill="none" xmlns="http://www.w3.org/2000/svg">
<path d="M51.5839 81.5457L55.0185 90.2415L58.3411 81.5457H61.7757L56.4558 94.6454H53.5065L48 81.5457H51.5839Z" fill="white"/>
<path d="M62.8583 84.3821C63.4556 83.2625 64.2583 82.4414 65.2289 81.9562C66.1995 81.4711 67.2262 81.2285 68.2715 81.2285C69.7461 81.2285 70.9781 81.6204 71.9861 82.4228C72.994 83.2065 73.666 84.1209 74.002 85.2032C74.3567 86.3228 74.5433 87.2745 74.5433 88.0583C74.5433 89.3832 74.2447 90.6148 73.6474 91.7717C73.1994 92.6488 72.602 93.3579 71.8741 93.8617C71.1461 94.3655 70.4554 94.6828 69.8208 94.8134C69.1861 94.9254 68.6635 95 68.2715 95C67.2262 95 66.2929 94.7947 65.5089 94.4029C64.7249 94.011 64.0716 93.4698 63.5489 92.8167C63.0263 92.1636 62.6343 91.4358 62.373 90.6148C62.1116 89.7937 61.981 88.954 61.981 88.0956C61.981 86.7147 62.2796 85.5018 62.8583 84.3821ZM65.4902 89.6071C65.6209 90.0923 65.8076 90.5215 66.0502 90.876C66.2929 91.2306 66.6102 91.5291 66.9835 91.7344C67.3568 91.9397 67.7862 92.0516 68.2715 92.0516H68.4395C68.9621 92.0516 69.3915 91.921 69.7461 91.6411C70.1381 91.3239 70.4368 90.9506 70.6794 90.5215C70.9034 90.0923 71.0714 89.6444 71.1647 89.1779C71.2207 88.842 71.2581 88.5621 71.2581 88.3195C71.2581 88.2262 71.2581 88.1329 71.2394 88.0583C71.2394 87.0693 71.0341 86.2482 70.6234 85.5764C70.2128 84.9046 69.7835 84.4941 69.3168 84.3075C68.8875 84.1395 68.5701 84.0649 68.3275 84.0835H68.2528C67.4875 84.0835 66.8529 84.3635 66.3489 84.9046C65.9382 85.3525 65.6582 85.8563 65.5089 86.4161C65.3596 86.976 65.2849 87.5171 65.2849 88.0583C65.2849 88.5994 65.3596 89.1219 65.4902 89.6071Z" fill="white"/>
<path d="M77.0633 84.3821C77.4739 83.5237 78.0526 82.8706 78.7992 82.3854C79.5459 81.9003 80.2365 81.583 80.8898 81.4338C81.4872 81.2845 81.9725 81.2285 82.3458 81.2285H82.4578C83.0925 81.2285 83.8391 81.3591 84.6977 81.6204V76.526H88.039V94.6641H84.9591L84.8284 93.6564C84.5111 94.011 84.1004 94.3096 83.5964 94.5708C83.0924 94.8321 82.4951 94.9627 81.8045 94.9627C80.9085 94.9627 80.1059 94.7761 79.4152 94.3842C78.7246 93.9923 78.1459 93.4885 77.6793 92.854C77.2126 92.2196 76.8579 91.4731 76.6153 90.6521C76.3726 89.8124 76.242 88.954 76.242 88.0396C76.2233 86.6401 76.5033 85.4271 77.0633 84.3821ZM79.6952 89.5324C79.8072 90.0363 79.9939 90.4655 80.2365 90.8387C80.4792 91.2119 80.7965 91.5105 81.1698 91.7344C81.5432 91.9583 81.9911 92.0703 82.4951 92.0703C82.9058 92.0703 83.3351 91.9583 83.7644 91.7344C84.1938 91.5105 84.5111 91.2492 84.6977 90.932V84.4568C83.9884 84.1955 83.3724 84.0649 82.8685 84.0649C81.9351 84.0649 81.1698 84.3635 80.5912 84.9793C80.0312 85.5764 79.6952 86.1735 79.6019 86.752C79.5272 87.1626 79.4899 87.4984 79.4899 87.741C79.4899 87.8157 79.4899 87.8903 79.5085 87.9463C79.5085 88.5061 79.5645 89.0286 79.6952 89.5324Z" fill="white"/>
<path d="M90.3536 88.954C90.6523 88.4315 91.0442 88.0023 91.5296 87.6477C92.0149 87.2932 92.5375 87.0133 93.0789 86.8267C93.6202 86.6401 94.1428 86.5094 94.5908 86.4535C94.8521 86.4161 95.7481 86.3042 97.3161 86.1176V85.931C97.3161 85.2032 97.1294 84.6807 96.7561 84.3821C96.3828 84.0836 95.8788 83.9156 95.2068 83.9156C94.5535 83.9156 93.9188 84.0649 93.3215 84.3448C92.7242 84.6247 92.2762 84.9046 91.9589 85.1659L90.8389 82.796C91.2122 82.4228 91.9216 82.0496 92.9669 81.7137C94.0495 81.3591 94.9828 81.1912 95.7668 81.1912C96.6068 81.1912 97.3348 81.3218 97.9507 81.583C98.5667 81.8443 99.0894 82.1988 99.5 82.6654C99.9107 83.1319 100.209 83.6544 100.396 84.2702C100.583 84.886 100.676 85.5204 100.676 86.2109V94.6454H97.5588L97.4281 93.6564C97.0734 94.0483 96.6068 94.3655 96.0468 94.6081C95.4868 94.8321 94.8708 94.9627 94.1988 94.9627C93.6388 94.9627 93.0975 94.8694 92.5935 94.6828C92.0709 94.4962 91.6229 94.2163 91.2122 93.8617C90.8203 93.5071 90.4843 93.078 90.2416 92.5555C89.9989 92.033 89.8683 91.4545 89.8683 90.8014C89.9056 90.0923 90.0549 89.4765 90.3536 88.954ZM93.6762 91.7717C93.9935 92.033 94.4415 92.1636 95.0388 92.1636C95.4681 92.1636 95.8975 92.0703 96.3081 91.8837C96.7188 91.6971 97.0734 91.4731 97.3534 91.1932V88.5248C96.2521 88.6554 95.5055 88.7487 95.1508 88.8047C94.4228 88.954 93.9188 89.1966 93.6388 89.5511C93.3589 89.9057 93.2095 90.2975 93.2095 90.7081C93.1909 91.1559 93.3402 91.4918 93.6762 91.7717Z" fill="white"/>
<path d="M102.487 81.5457H104.223V80.8366C104.223 79.5677 104.484 78.56 105.007 77.8136C105.511 77.0485 106.108 76.6007 106.799 76.4327C107.452 76.2648 108.03 76.1715 108.534 76.1528C109.356 76.1528 110.028 76.2274 110.569 76.3767C111.11 76.526 111.428 76.638 111.521 76.694L111.129 79.4931C111.017 79.4371 110.812 79.3624 110.494 79.2691C110.177 79.1758 109.748 79.1198 109.225 79.1198C108.758 79.1198 108.366 79.2505 108.049 79.5304C107.732 79.8103 107.564 80.2581 107.564 80.9113V81.5271H110.401V84.2515H107.601V94.6454H104.223V84.2515H102.487V81.5457Z" fill="white"/>
<path d="M111.913 84.3821C112.51 83.2625 113.313 82.4414 114.284 81.9562C115.254 81.4711 116.281 81.2285 117.326 81.2285C118.801 81.2285 120.033 81.6204 121.041 82.4228C122.049 83.2065 122.721 84.1209 123.057 85.2032C123.411 86.3228 123.598 87.2745 123.598 88.0583C123.598 89.3832 123.299 90.6148 122.702 91.7717C122.254 92.6488 121.657 93.3579 120.929 93.8617C120.201 94.3655 119.51 94.6828 118.876 94.8134C118.241 94.9254 117.718 95 117.326 95C116.281 95 115.348 94.7947 114.564 94.4029C113.78 94.011 113.126 93.4698 112.604 92.8167C112.081 92.1636 111.689 91.4358 111.428 90.6148C111.166 89.7937 111.036 88.954 111.036 88.0956C111.054 86.7147 111.334 85.5018 111.913 84.3821ZM114.564 89.6071C114.694 90.0923 114.881 90.5215 115.124 90.876C115.366 91.2306 115.684 91.5291 116.057 91.7344C116.43 91.9397 116.86 92.0516 117.345 92.0516H117.513C118.036 92.0516 118.465 91.921 118.82 91.6411C119.212 91.3239 119.51 90.9506 119.753 90.5215C119.996 90.0923 120.145 89.6444 120.238 89.1779C120.294 88.842 120.332 88.5621 120.332 88.3195C120.332 88.2262 120.332 88.1329 120.313 88.0583C120.313 87.0693 120.108 86.2482 119.697 85.5764C119.286 84.9046 118.857 84.4941 118.39 84.3075C117.961 84.1395 117.644 84.0649 117.401 84.0835H117.326C116.561 84.0835 115.926 84.3635 115.422 84.9046C115.012 85.3525 114.732 85.8563 114.582 86.4161C114.433 86.976 114.358 87.5171 114.358 88.0583C114.358 88.5994 114.433 89.1219 114.564 89.6071Z" fill="white"/>
<path d="M128.619 81.5457L128.787 82.5907C129.31 82.1615 129.907 81.8256 130.561 81.583C131.233 81.3404 131.886 81.2285 132.558 81.2285C133.603 81.2285 134.518 81.4711 135.246 81.9376C135.992 82.4041 136.515 83.1132 136.814 84.0276C137.112 84.9419 137.262 85.9123 137.262 86.92V94.6828H133.883V87.1999C133.883 86.1922 133.678 85.4271 133.267 84.886C132.857 84.3448 132.278 84.0649 131.513 84.0649C130.99 84.0649 130.505 84.1955 130.057 84.4754C129.609 84.7553 129.217 85.0539 128.899 85.3711V94.6641H125.521V81.5457H128.619Z" fill="white"/>
<path d="M139.726 85.1659C140.043 84.3075 140.472 83.5984 141.032 83.0199C141.592 82.4414 142.227 81.9936 142.974 81.6763C143.702 81.3591 144.486 81.2098 145.326 81.2098C146.8 81.2098 147.995 81.6204 148.928 82.4228C149.861 83.2438 150.477 84.1955 150.739 85.3152C151.019 86.3975 151.149 87.4051 151.149 88.3382V88.9353H142.656C142.731 90.0363 143.067 90.8387 143.683 91.3239C144.299 91.809 145.102 92.0516 146.072 92.0516C146.931 92.0516 147.696 91.921 148.349 91.6411C149.003 91.3798 149.451 91.1186 149.693 90.876L150.589 93.6191C150.197 93.9177 149.805 94.1229 149.451 94.2349C149.227 94.3469 148.685 94.4775 147.845 94.6454C147.006 94.8321 146.278 94.9254 145.606 94.9254C144.747 94.9254 143.944 94.7947 143.16 94.5148C142.376 94.2349 141.704 93.8244 141.126 93.2459C140.547 92.6674 140.08 91.9583 139.744 91.1186C139.408 90.2602 139.24 89.2525 139.24 88.0583C139.259 86.9946 139.408 86.0056 139.726 85.1659ZM147.715 86.5281C147.659 85.7817 147.453 85.2218 147.062 84.8113C146.688 84.4194 146.334 84.1582 145.979 84.0649C145.643 83.9716 145.419 83.9156 145.288 83.9156C144.71 83.9156 144.15 84.1395 143.627 84.5687C143.104 84.9979 142.806 85.651 142.712 86.5281H147.715Z" fill="white"/>
<path d="M113.836 8.09766C108.049 8.91872 103.569 14.3116 103.457 20.8802C111.465 22.3543 117.513 27.7286 117.513 37.3201C117.513 46.5758 109.822 54.0587 100.209 54.0587C90.6523 54.0773 82.9058 45.6801 82.9058 34.801C82.9058 19.7978 96.2335 7.35123 113.089 7.74311C109.15 5.98901 104.801 5 100.209 5C82.8498 5 68.7568 19.0701 68.7568 36.4431C68.7568 53.8161 82.8498 67.8862 100.209 67.8862C117.569 67.8862 131.662 53.8161 131.662 36.4431C131.662 23.9592 124.382 13.1733 113.836 8.09766Z" fill="white"/>
</svg>
