<?xml version="1.0" encoding="utf-8"?>
<!-- Generator: Adobe Illustrator 24.1.2, SVG Export Plug-In . SVG Version: 6.00 Build 0)  -->
<svg version="1.1" id="Layer_1" xmlns="http://www.w3.org/2000/svg" xmlns:xlink="http://www.w3.org/1999/xlink" x="0px" y="0px"
	 viewBox="0 0 183 236" style="enable-background:new 0 0 183 236;" xml:space="preserve">
<style type="text/css">
	.st0{opacity:0.2701;fill:#000076;enable-background:new    ;}
	.st1{fill:#007BFF;}
	.st2{fill:#161656;}
	.st3{fill:none;stroke:#007BFF;stroke-width:1.231;stroke-dasharray:8.62;}
	.st4{fill:#FF6F00;}
	.st5{fill:#64F0FF;}
</style>
<path id="shadow" class="st0" d="M159.1,188.4c3.9-2.2,3.9-7.6,0-9.8l-58.9-33.3c-5.4-3-12-3-17.4,0l-58.9,33.3
	c-3.9,2.2-3.9,7.6,0,9.8l58.9,33.3c5.4,3,12,3,17.4,0L159.1,188.4z"/>
<path id="side-right" class="st1" d="M82.8,101L27,69l-2.5,1.4C23,71.3,22,73,22,74.8s0.9,3.5,2.5,4.4l58.7,33.7
	c5.1,2.9,11.5,2.9,16.6,0l58.7-33.7c1.6-0.9,2.5-2.5,2.5-4.4c0-1.8-0.9-3.4-2.5-4.4L156,69l-55.8,32C94.8,104.1,88.2,104.1,82.8,101
	"/>
<path id="side-left" class="st2" d="M20,62v11.8c0,0-0.6,3.8,3,6.1c3.6,2.2,56.9,32,56.9,32s4.1,2.4,8,3.1v-11.7
	c0,0-2.8-0.1-9.1-3.7c-6.3-3.6-55-31.2-55-31.2S19.7,66.6,20,62"/>
<path id="background" class="st2" d="M158,68.9c3.8-2.2,3.8-7.7,0-9.8L99.3,25.7c-5.3-3-12-3-17.3,0L23.2,59.1
	c-3.8,2.2-3.8,7.6,0,9.8L82,102.3c5.3,3,12,3,17.3,0L158,68.9z"/>
<path id="Fill-12" class="st1" d="M114.2,52.2c-0.9-0.5-2.2-0.5-3.1,0L85.8,66.7c-0.8,0.5-0.8,1.3,0,1.8c0.9,0.5,2.2,0.5,3.1,0
	L114.2,54C115,53.5,115,52.7,114.2,52.2 M75,58c-0.8-0.5-2.2-0.5-3.1,0l-11.3,6.5c-0.8,0.5-0.8,1.3,0,1.8c0.9,0.5,2.2,0.5,3.1,0
	L75,59.8C75.8,59.3,75.8,58.5,75,58 M104.1,74.6c-0.9-0.5-2.2-0.5-3.1,0l-11.3,6.5c-0.8,0.5-0.8,1.3,0,1.8c0.8,0.5,2.2,0.5,3.1,0
	l11.3-6.5C105,75.9,105,75.1,104.1,74.6 M86.3,57.1c-0.9-0.5-2.2-0.5-3.1,0L65.5,67.3c-0.8,0.5-0.8,1.3,0,1.8s2.2,0.5,3.1,0
	l17.7-10.2C87.1,58.4,87.1,57.6,86.3,57.1 M105.7,68.2c-0.8-0.5-2.2-0.5-3.1,0L84.9,78.3c-0.8,0.5-0.8,1.3,0,1.8
	c0.9,0.5,2.2,0.5,3.1,0l17.7-10.2C106.6,69.4,106.5,68.7,105.7,68.2 M102,53.6c-0.9-0.5-2.2-0.5-3.1,0L76,66.7
	c-0.8,0.5-0.8,1.3,0,1.8s2.2,0.5,3.1,0L102,55.3C102.9,54.9,102.9,54.1,102,53.6 M111.8,59.1c-0.8-0.5-2.2-0.5-3.1,0L85.8,72.3
	c-0.8,0.5-0.8,1.3,0,1.8c0.9,0.5,2.2,0.5,3.1,0l22.9-13.2C112.6,60.4,112.6,59.6,111.8,59.1"/>
<path id="border" class="st3" d="M174.5,191.5c4.7-2.7,4.7-9.3,0-12l-72.3-40.7c-6.6-3.7-14.7-3.7-21.3,0L8.5,179.5
	c-4.7,2.7-4.7,9.3,0,12l72.3,40.7c6.6,3.7,14.7,3.7,21.3,0L174.5,191.5z"/>
<path id="cog" class="st1" d="M115.4,171.7l-3.7-2.1c-0.5-0.3-1.5-0.3-2.1-0.1l-3,1.3c-0.6,0.3-1.7,0.3-2.3,0.1l-4.3-1.2
	c-0.2-0.1-0.5-0.1-0.7-0.3c-0.4-0.2-0.7-0.5-0.7-0.8l-0.1-1.9c0-0.2-0.2-0.4-0.5-0.6c-0.3,0-0.7-0.1-1-0.1l-5.2-0.3
	c-0.8,0-1.5,0.3-1.7,0.7l-0.7,1.6c-0.2,0.4-1,0.8-1.7,0.9l-5.1,0.5c-0.7,0.1-1.5-0.1-2-0.3c-0.1,0-0.1-0.1-0.2-0.1l-1.8-1.5
	c0,0-0.1-0.1-0.2-0.1c-0.5-0.3-1.3-0.4-1.9-0.2l-4.6,1.4c-0.7,0.2-1,0.7-0.8,1.1l1.1,1.7c0.3,0.4,0,1-0.6,1.2c0,0-0.7,0.3-1.6,0.8
	c-1.1,0.6-2.2,1.4-2.2,1.4c-0.5,0.3-1.4,0.5-2.2,0.4l-3.2-0.7c-0.7-0.1-1.6,0-2,0.4l-2.4,2.6c-0.3,0.3-0.2,0.8,0.3,1.1
	c0.1,0,0.1,0.1,0.2,0.1l3.1,1.3c0.1,0,0.2,0.1,0.2,0.1c0.5,0.3,0.8,0.8,0.6,1.1l-0.4,2.9c0,0.4-0.7,0.9-1.4,1.1l-3.2,0.7
	c-0.7,0.2-1.2,0.6-1,1.1l1.2,2.9c0.1,0.2,0.2,0.3,0.4,0.4c0.3,0.2,0.8,0.3,1.3,0.3l2.9-0.2c0.6,0,1.2,0.1,1.6,0.4
	c0.2,0.1,0.3,0.2,0.4,0.3l2.3,2.4c0.4,0.4,0.4,1-0.1,1.3l-2,1.5c-0.5,0.3-0.4,0.9,0.2,1.2l0,0l3.7,2.1c0.6,0.3,1.5,0.3,2.1,0.1
	l2.8-1.2c0.6-0.3,1.6-0.3,2.3-0.1l5,1.4c0.2,0,0.4,0.1,0.6,0.2c0.4,0.2,0.7,0.5,0.6,0.9l-0.1,1.7c0,0.3,0.2,0.5,0.5,0.7
	c0.2,0.1,0.5,0.2,0.8,0.3l5.2,0.5c0.8,0.1,1.6-0.2,1.8-0.6l1-1.9c0.2-0.4,1-0.8,1.8-0.8l5-0.5c0.7-0.1,1.5,0.1,2,0.3
	c0.1,0,0.1,0.1,0.2,0.1l2.3,1.8c0,0,0.1,0.1,0.2,0.1c0.5,0.3,1.3,0.3,1.9,0.2l4.6-1.4c0.7-0.2,1-0.7,0.8-1.1l-1.4-2.2
	c-0.3-0.4,0-1,0.6-1.3c0,0,0.5-0.2,1.3-0.7c1.2-0.7,2.4-1.6,2.4-1.6c0.5-0.3,1.5-0.6,2.2-0.5l3.7,0.5c0.8,0.1,1.6-0.2,1.9-0.6
	l1.8-2.8c0.2-0.3,0-0.7-0.4-1c-0.1-0.1-0.2-0.1-0.4-0.1l-2.8-0.8c-0.1,0-0.3-0.1-0.4-0.2c-0.4-0.3-0.7-0.6-0.6-1l0.6-2.9
	c0-0.4,0.7-0.9,1.4-1l2.8-0.5c0.7-0.1,1.3-0.6,1.1-1l-0.8-2.9c-0.1-0.2-0.2-0.4-0.5-0.5c-0.3-0.2-0.7-0.3-1.2-0.3h-3.4
	c-0.6,0-1.2-0.2-1.6-0.4c-0.2-0.1-0.3-0.2-0.4-0.3l-2.4-2.5c-0.4-0.4-0.4-0.9,0.1-1.3l2.1-1.6C116,172.6,115.9,172,115.4,171.7
	 M74.7,193.4c-8.6-4.8-8.6-12.7-0.1-17.5c8.5-4.8,22.4-4.8,31,0c8.6,4.8,8.6,12.7,0.1,17.5C97.1,198.3,83.3,198.3,74.7,193.4"/>
<polygon id="arrow-2" class="st4" points="106.7,134.2 97.2,128.8 97.1,165.8 89.9,161.7 101.6,190.8 113.8,175.3 106.6,171.2 "/>
<polygon id="arrow-1" class="st5" points="76.3,120.2 66.8,114.7 66.6,151.7 59.5,147.6 71.2,176.8 83.4,161.2 76.2,157.2 "/>
</svg>
