<?xml version="1.0" encoding="utf-8"?>
<!-- Generator: Adobe Illustrator 22.1.0, SVG Export Plug-In . SVG Version: 6.00 Build 0)  -->
<svg version="1.1" id="Layer_1" xmlns="http://www.w3.org/2000/svg" xmlns:xlink="http://www.w3.org/1999/xlink" x="0px" y="0px"
	 viewBox="0 0 183 236" style="enable-background:new 0 0 183 236;" xml:space="preserve">
<style type="text/css">
	.st0{opacity:0.2701;fill:#000076;enable-background:new    ;}
	.st1{fill:#004BF1;}
	.st2{fill:#040444;}
	.st3{filter:url(#Adobe_OpacityMaskFilter);}
	.st4{fill:#FFFFFF;}
	.st5{mask:url(#mask-2_1_);fill:#000076;}
	.st6{filter:url(#Adobe_OpacityMaskFilter_1_);}
	.st7{mask:url(#mask-4_1_);fill:#005EFF;}
	.st8{fill:none;stroke:#FFFFFF;stroke-width:1.231;stroke-dasharray:8.62;}
	.st9{filter:url(#Adobe_OpacityMaskFilter_2_);}
	.st10{mask:url(#mask-6_1_);fill:#007BFF;}
	.st11{filter:url(#Adobe_OpacityMaskFilter_3_);}
	.st12{mask:url(#mask-8_1_);fill:#FF6F00;}
	.st13{filter:url(#Adobe_OpacityMaskFilter_4_);}
	.st14{mask:url(#mask-10_1_);fill:#86F4FC;}
</style>
<title>Group 26</title>
<desc>Created with Sketch.</desc>
<g id="Desktop">
	<g id="_x32_-Services" transform="translate(-648.000000, -587.000000)">
		<g id="Group-26" transform="translate(649.000000, 587.000000)">
			<path id="Fill-1" class="st0" d="M158.1,188.4c3.9-2.2,3.9-7.6,0-9.8l-58.9-33.3c-5.4-3-12-3-17.4,0l-58.9,33.3
				c-3.9,2.2-3.9,7.6,0,9.8l58.9,33.3c5.4,3,12,3,17.4,0L158.1,188.4z"/>
			<path id="Fill-3" class="st1" d="M81.8,101L26,69l-2.5,1.4C22,71.3,21,73,21,74.8c0,1.8,0.9,3.5,2.5,4.4l58.7,33.7
				c5.1,2.9,11.5,2.9,16.6,0l58.7-33.7c1.6-0.9,2.5-2.5,2.5-4.4c0-1.8-0.9-3.4-2.5-4.4L155,69l-55.8,32
				C93.8,104.1,87.2,104.1,81.8,101"/>
			<path id="Fill-5" class="st2" d="M19,62v11.8c0,0-0.6,3.8,3,6.1c3.6,2.2,56.9,32,56.9,32s4.1,2.4,8,3.1v-11.7
				c0,0-2.8-0.1-9.1-3.7c-6.3-3.6-55-31.2-55-31.2S18.7,66.6,19,62"/>
			<g id="Group-11" transform="translate(15.000000, 0.000000)">
				<g id="Clip-10">
				</g>
				<defs>
					<filter id="Adobe_OpacityMaskFilter" filterUnits="userSpaceOnUse" x="4.3" y="23.4" width="140.6" height="81.2">
						<feColorMatrix  type="matrix" values="1 0 0 0 0  0 1 0 0 0  0 0 1 0 0  0 0 0 1 0"/>
					</filter>
				</defs>
				<mask maskUnits="userSpaceOnUse" x="4.3" y="23.4" width="140.6" height="81.2" id="mask-2_1_">
					<g class="st3">
						<polygon id="path-1_1_" class="st4" points="4.3,23.4 144.9,23.4 144.9,104.6 4.3,104.6 						"/>
					</g>
				</mask>
				<path id="Fill-9" class="st5" d="M142,68.9c3.8-2.2,3.8-7.7,0-9.8L83.3,25.7c-5.3-3-12-3-17.3,0L7.2,59.1
					c-3.8,2.2-3.8,7.6,0,9.8L66,102.3c5.3,3,12,3,17.3,0L142,68.9z"/>
			</g>
			<g id="Group-14" transform="translate(54.000000, 20.000000)">
				<g id="Clip-13">
				</g>
				<defs>
					<filter id="Adobe_OpacityMaskFilter_1_" filterUnits="userSpaceOnUse" x="5" y="31.8" width="54.8" height="31.4">
						<feColorMatrix  type="matrix" values="1 0 0 0 0  0 1 0 0 0  0 0 1 0 0  0 0 0 1 0"/>
					</filter>
				</defs>
				<mask maskUnits="userSpaceOnUse" x="5" y="31.8" width="54.8" height="31.4" id="mask-4_1_">
					<g class="st6">
						<polyline id="path-3_1_" class="st4" points="4.1,45.4 43,23 75.3,41.4 36.3,63.7 						"/>
					</g>
				</mask>
				<path id="Fill-12" class="st7" d="M59.2,32.2c-0.9-0.5-2.2-0.5-3.1,0L30.8,46.7c-0.8,0.5-0.8,1.3,0,1.8c0.9,0.5,2.2,0.5,3.1,0
					L59.2,34C60,33.5,60,32.7,59.2,32.2 M20,38c-0.8-0.5-2.2-0.5-3.1,0L5.6,44.5c-0.8,0.5-0.8,1.3,0,1.8c0.9,0.5,2.2,0.5,3.1,0
					L20,39.8C20.8,39.3,20.8,38.5,20,38 M49.1,54.6c-0.9-0.5-2.2-0.5-3.1,0l-11.3,6.5c-0.8,0.5-0.8,1.3,0,1.8c0.8,0.5,2.2,0.5,3.1,0
					l11.3-6.5C50,55.9,50,55.1,49.1,54.6 M31.3,37.1c-0.9-0.5-2.2-0.5-3.1,0L10.5,47.3c-0.8,0.5-0.8,1.3,0,1.8
					c0.8,0.5,2.2,0.5,3.1,0l17.7-10.2C32.1,38.4,32.1,37.6,31.3,37.1 M50.7,48.2c-0.8-0.5-2.2-0.5-3.1,0L29.9,58.3
					c-0.8,0.5-0.8,1.3,0,1.8c0.9,0.5,2.2,0.5,3.1,0l17.7-10.2C51.6,49.4,51.5,48.7,50.7,48.2 M47,33.6c-0.9-0.5-2.2-0.5-3.1,0
					L21,46.7c-0.8,0.5-0.8,1.3,0,1.8c0.8,0.5,2.2,0.5,3.1,0l22.9-13.2C47.9,34.9,47.9,34.1,47,33.6 M56.8,39.1
					c-0.8-0.5-2.2-0.5-3.1,0L30.8,52.3c-0.8,0.5-0.8,1.3,0,1.8c0.9,0.5,2.2,0.5,3.1,0l22.9-13.2C57.6,40.4,57.6,39.6,56.8,39.1"/>
			</g>
			<path id="Stroke-15" class="st8" d="M173.5,191.5c4.7-2.7,4.7-9.3,0-12l-72.3-40.7c-6.6-3.7-14.7-3.7-21.3,0L7.5,179.5
				c-4.7,2.7-4.7,9.3,0,12l72.3,40.7c6.6,3.7,14.7,3.7,21.3,0L173.5,191.5z"/>
			<g id="Group-19" transform="translate(37.000000, 134.000000)">
				<g id="Clip-18">
				</g>
				<defs>
					<filter id="Adobe_OpacityMaskFilter_2_" filterUnits="userSpaceOnUse" x="18.5" y="31.6" width="67.1" height="38.2">
						<feColorMatrix  type="matrix" values="1 0 0 0 0  0 1 0 0 0  0 0 1 0 0  0 0 0 1 0"/>
					</filter>
				</defs>
				<mask maskUnits="userSpaceOnUse" x="18.5" y="31.6" width="67.1" height="38.2" id="mask-6_1_">
					<g class="st9">
						<polyline id="path-5_1_" class="st4" points="4.7,51 52.6,23.8 100.2,50.6 52.2,77.8 						"/>
					</g>
				</mask>
				<path id="Fill-17" class="st10" d="M77.4,37.7l-3.7-2.1c-0.5-0.3-1.5-0.3-2.1-0.1l-3,1.3c-0.6,0.3-1.7,0.3-2.3,0.1l-4.3-1.2
					c-0.2-0.1-0.5-0.1-0.7-0.3c-0.4-0.2-0.7-0.5-0.7-0.8l-0.1-1.9c0-0.2-0.2-0.4-0.5-0.6C59.7,32.1,59.3,32,59,32l-5.2-0.3
					c-0.8,0-1.5,0.3-1.7,0.7L51.4,34c-0.2,0.4-1,0.8-1.7,0.9l-5.1,0.5c-0.7,0.1-1.5-0.1-2-0.3c-0.1,0-0.1-0.1-0.2-0.1l-1.8-1.5
					c0,0-0.1-0.1-0.2-0.1c-0.5-0.3-1.3-0.4-1.9-0.2l-4.6,1.4c-0.7,0.2-1,0.7-0.8,1.1l1.1,1.7c0.3,0.4,0,1-0.6,1.2
					c0,0-0.7,0.3-1.6,0.8c-1.1,0.6-2.2,1.4-2.2,1.4c-0.5,0.3-1.4,0.5-2.2,0.4l-3.2-0.7c-0.7-0.1-1.6,0-2,0.4l-2.4,2.6
					c-0.3,0.3-0.2,0.8,0.3,1.1c0.1,0,0.1,0.1,0.2,0.1l3.1,1.3c0.1,0,0.2,0.1,0.2,0.1c0.5,0.3,0.8,0.8,0.6,1.1L24,50.1
					c0,0.4-0.7,0.9-1.4,1.1l-3.2,0.7c-0.7,0.2-1.2,0.6-1,1.1l1.2,2.9c0.1,0.2,0.2,0.3,0.4,0.4c0.3,0.2,0.8,0.3,1.3,0.3l2.9-0.2
					c0.6,0,1.2,0.1,1.6,0.4c0.2,0.1,0.3,0.2,0.4,0.3l2.3,2.4c0.4,0.4,0.4,1-0.1,1.3l-2,1.5c-0.5,0.3-0.4,0.9,0.2,1.2c0,0,0,0,0,0
					l3.7,2.1c0.6,0.3,1.5,0.3,2.1,0.1l2.8-1.2c0.6-0.3,1.6-0.3,2.3-0.1l5,1.4c0.2,0,0.4,0.1,0.6,0.2c0.4,0.2,0.7,0.5,0.6,0.9
					l-0.1,1.7c0,0.3,0.2,0.5,0.5,0.7c0.2,0.1,0.5,0.2,0.8,0.3l5.2,0.5c0.8,0.1,1.6-0.2,1.8-0.6l1-1.9c0.2-0.4,1-0.8,1.8-0.8l5-0.5
					c0.7-0.1,1.5,0.1,2,0.3c0.1,0,0.1,0.1,0.2,0.1l2.3,1.8c0,0,0.1,0.1,0.2,0.1c0.5,0.3,1.3,0.3,1.9,0.2l4.6-1.4
					c0.7-0.2,1-0.7,0.8-1.1l-1.4-2.2c-0.3-0.4,0-1,0.6-1.3c0,0,0.5-0.2,1.3-0.7c1.2-0.7,2.4-1.6,2.4-1.6c0.5-0.3,1.5-0.6,2.2-0.5
					l3.7,0.5c0.8,0.1,1.6-0.2,1.9-0.6l1.8-2.8c0.2-0.3,0-0.7-0.4-1c-0.1-0.1-0.2-0.1-0.4-0.1l-2.8-0.8c-0.1,0-0.3-0.1-0.4-0.2
					c-0.4-0.3-0.7-0.6-0.6-1l0.6-2.9c0-0.4,0.7-0.9,1.4-1l2.8-0.5c0.7-0.1,1.3-0.6,1.1-1l-0.8-2.9c-0.1-0.2-0.2-0.4-0.5-0.5
					c-0.3-0.2-0.7-0.3-1.2-0.3l-3.4,0c-0.6,0-1.2-0.2-1.6-0.4c-0.2-0.1-0.3-0.2-0.4-0.3l-2.4-2.5c-0.4-0.4-0.4-0.9,0.1-1.3l2.1-1.6
					C78,38.6,77.9,38,77.4,37.7 M36.7,59.4c-8.6-4.8-8.6-12.7-0.1-17.5c8.5-4.8,22.4-4.8,31,0c8.6,4.8,8.6,12.7,0.1,17.5
					C59.1,64.3,45.3,64.3,36.7,59.4"/>
			</g>
			<g id="Group-22" transform="translate(84.000000, 101.000000)">
				<g id="Clip-21">
				</g>
				<defs>
					<filter id="Adobe_OpacityMaskFilter_3_" filterUnits="userSpaceOnUse" x="4.9" y="27.8" width="23.9" height="62.1">
						<feColorMatrix  type="matrix" values="1 0 0 0 0  0 1 0 0 0  0 0 1 0 0  0 0 0 1 0"/>
					</filter>
				</defs>
				<mask maskUnits="userSpaceOnUse" x="4.9" y="27.8" width="23.9" height="62.1" id="mask-8_1_">
					<g class="st11">
						<polygon id="path-7_1_" class="st4" points="4.8,83.1 5,23.7 28.9,37.3 28.7,96.8 						"/>
					</g>
				</mask>
				<polygon id="Fill-20" class="st12" points="21.7,33.2 12.2,27.8 12.1,64.8 4.9,60.7 16.6,89.8 28.8,74.3 21.6,70.2 				"/>
			</g>
			<g id="Group-25" transform="translate(54.000000, 87.000000)">
				<g id="Clip-24">
				</g>
				<defs>
					<filter id="Adobe_OpacityMaskFilter_4_" filterUnits="userSpaceOnUse" x="4.5" y="27.7" width="23.9" height="62.1">
						<feColorMatrix  type="matrix" values="1 0 0 0 0  0 1 0 0 0  0 0 1 0 0  0 0 0 1 0"/>
					</filter>
				</defs>
				<mask maskUnits="userSpaceOnUse" x="4.5" y="27.7" width="23.9" height="62.1" id="mask-10_1_">
					<g class="st13">
						<polygon id="path-9_1_" class="st4" points="4.4,83.1 4.6,23.6 28.5,37.3 28.3,96.7 						"/>
					</g>
				</mask>
				<polygon id="Fill-23" class="st14" points="21.3,33.2 11.8,27.7 11.6,64.7 4.5,60.6 16.2,89.8 28.4,74.2 21.2,70.2 				"/>
			</g>
		</g>
	</g>
</g>
</svg>
