<?xml version="1.0" encoding="utf-8"?>
<!-- Generator: Adobe Illustrator 22.1.0, SVG Export Plug-In . SVG Version: 6.00 Build 0)  -->
<svg version="1.1" id="Layer_1" xmlns="http://www.w3.org/2000/svg" xmlns:xlink="http://www.w3.org/1999/xlink" x="0px" y="0px"
	 viewBox="0 0 183 236" style="enable-background:new 0 0 183 236;" xml:space="preserve">
<style type="text/css">
	.st0{opacity:0.2;fill:#000076;enable-background:new    ;}
	.st1{fill:none;stroke:#FFFFFF;stroke-width:12;stroke-linecap:round;stroke-linejoin:round;}
	.st2{fill:none;stroke:#FF6F00;stroke-width:10;stroke-linecap:round;stroke-linejoin:round;}
	.st3{fill:none;stroke:#FFFFFF;stroke-width:13;stroke-linecap:round;stroke-linejoin:round;}
	.st4{fill:#000076;}
	.st5{filter:url(#Adobe_OpacityMaskFilter);}
	.st6{fill:#FFFFFF;}
	.st7{mask:url(#mask-2_1_);fill:#000076;}
	.st8{filter:url(#Adobe_OpacityMaskFilter_1_);}
	.st9{mask:url(#mask-4_1_);fill:#000076;}
	.st10{fill:none;stroke:#005EFF;stroke-width:7;stroke-linecap:round;stroke-linejoin:round;}
</style>
<title>Security Audit icon</title>
<desc>Created with Sketch.</desc>
<g id="Desktop">
	<g id="_x32_-Services-Copy" transform="translate(-1021.000000, -588.000000)">
		<g id="Security-Audit-icon" transform="translate(1021.000000, 594.000000)">
			<g id="Group-12">
				<path id="Fill-2" class="st0" d="M134.7,111.1c0,37.1-30.1,67.2-67.3,67.2S0,148.3,0,111.1S30.2,44,67.4,44
					S134.7,74,134.7,111.1"/>
				<path id="Stroke-4" class="st1" d="M24.1,55.9c11.3-17.5,30.6-29.5,53.1-30.4c36.5-1.5,67.4,26.9,68.9,63.3
					c1.5,36.5-26.9,67.3-63.5,68.8c-15.5,0.6-29.9-4.1-41.6-12.5"/>
				<path id="Stroke-6" class="st2" d="M29.2,134.1c-9.1-10.8-14.8-24.6-15.5-39.8c-0.2-5.9,0.3-11.6,1.5-17.1"/>
				<path id="Stroke-8" class="st3" d="M135.9,159.5l38.7,38.6"/>
				<path id="Fill-10" class="st4" d="M104.4,66.4c-7.3-1.3-14.1-5.1-17.5-7.3c-2.2-1.4-4.8-2.2-7.4-2.2c-2.6,0-5.2,0.8-7.4,2.2
					c-3.4,2.2-10.1,6.1-17.5,7.3c-4.3,0.8-7.5,4.4-7.5,8.6v17.7c0,5.8,1.7,11.5,5,16.9c2.6,4.2,6.2,8.2,10.7,12
					c7.6,6.3,15.1,9.5,15.4,9.7l1.2,0.5l1.2-0.5c0.3-0.1,7.8-3.4,15.4-9.7c4.5-3.7,8.1-7.7,10.7-12c3.3-5.4,5-11.1,5-16.9V75.1
					C111.9,70.8,108.8,67.2,104.4,66.4"/>
			</g>
			<g id="Group-15" transform="translate(48.039216, 30.882353)">
				<g id="Clip-14">
				</g>
				<defs>
					<filter id="Adobe_OpacityMaskFilter" filterUnits="userSpaceOnUse" x="-904.4" y="-1115.8" width="1219.5" height="3995.6">
						<feColorMatrix  type="matrix" values="1 0 0 0 0  0 1 0 0 0  0 0 1 0 0  0 0 0 1 0"/>
					</filter>
				</defs>
				<mask maskUnits="userSpaceOnUse" x="-904.4" y="-1115.8" width="1219.5" height="3995.6" id="mask-2_1_">
					<g class="st5">
						<path id="path-1_1_" class="st6" d="M24.9,28c-3.4,2.2-10.1,6.1-17.4,7.4C3.2,36.2,0,39.8,0,44.1v17.7c0,5.8,1.7,11.5,5,16.9
							c2.6,4.2,6.2,8.3,10.7,12c7.5,6.3,15,9.6,15.3,9.7l1.2,0.5l1.2-0.5c0.3-0.1,7.8-3.4,15.3-9.7c4.5-3.7,8.1-7.8,10.7-12
							c3.3-5.4,5-11.1,5-16.9V44.1c0-4.3-3.1-7.9-7.5-8.7c-7.3-1.3-14-5.2-17.4-7.4c-2.2-1.4-4.7-2.2-7.4-2.2
							C29.6,25.8,27,26.6,24.9,28z"/>
					</g>
				</mask>
				<polygon id="Fill-13" class="st7" points="-904.4,2879.8 315.1,2879.8 315.1,-1115.8 -904.4,-1115.8 				"/>
			</g>
			<g id="Group-18" transform="translate(48.039216, 30.882353)">
				<g id="Clip-17">
				</g>
				<defs>
					<filter id="Adobe_OpacityMaskFilter_1_" filterUnits="userSpaceOnUse" x="-4.2" y="21.6" width="72.8" height="83.6">
						<feColorMatrix  type="matrix" values="1 0 0 0 0  0 1 0 0 0  0 0 1 0 0  0 0 0 1 0"/>
					</filter>
				</defs>
				<mask maskUnits="userSpaceOnUse" x="-4.2" y="21.6" width="72.8" height="83.6" id="mask-4_1_">
					<g class="st8">
						<path id="path-3_1_" class="st6" d="M24.9,28c-3.4,2.2-10.1,6.1-17.4,7.4C3.2,36.2,0,39.8,0,44.1v17.7c0,5.8,1.7,11.5,5,16.9
							c2.6,4.2,6.2,8.3,10.7,12c7.5,6.3,15,9.6,15.3,9.7l1.2,0.5l1.2-0.5c0.3-0.1,7.8-3.4,15.3-9.7c4.5-3.7,8.1-7.8,10.7-12
							c3.3-5.4,5-11.1,5-16.9V44.1c0-4.3-3.1-7.9-7.5-8.7c-7.3-1.3-14-5.2-17.4-7.4c-2.2-1.4-4.7-2.2-7.4-2.2
							C29.6,25.8,27,26.6,24.9,28z"/>
					</g>
				</mask>
				<polygon id="Fill-16" class="st9" points="-4.2,105.2 68.6,105.2 68.6,21.6 -4.2,21.6 				"/>
			</g>
			<polyline id="Stroke-19" class="st10" points="66.3,95.2 73.9,102.8 94.9,86.8 			"/>
		</g>
	</g>
</g>
</svg>
