<?xml version="1.0" encoding="utf-8"?>
<!-- Generator: Adobe Illustrator 22.1.0, SVG Export Plug-In . SVG Version: 6.00 Build 0)  -->
<svg version="1.1" id="Layer_1" xmlns="http://www.w3.org/2000/svg" xmlns:xlink="http://www.w3.org/1999/xlink" x="0px" y="0px"
	 viewBox="0 0 183 236" style="enable-background:new 0 0 183 236;" xml:space="preserve">
<style type="text/css">
	.st0{filter:url(#Adobe_OpacityMaskFilter);}
	.st1{fill:#FFFFFF;}
	.st2{mask:url(#mask-2_1_);fill:#FFFFFF;}
	.st3{filter:url(#Adobe_OpacityMaskFilter_1_);}
	.st4{mask:url(#mask-4_1_);fill:#FF6F00;}
	.st5{filter:url(#Adobe_OpacityMaskFilter_2_);}
	.st6{mask:url(#mask-6_1_);fill:#000076;}
	.st7{filter:url(#Adobe_OpacityMaskFilter_3_);}
	.st8{mask:url(#mask-8_1_);fill:#005EFF;}
	.st9{filter:url(#Adobe_OpacityMaskFilter_4_);}
	.st10{mask:url(#mask-10_1_);fill:#64EFFF;}
	.st11{filter:url(#Adobe_OpacityMaskFilter_5_);}
	.st12{mask:url(#mask-12_1_);fill:#64EFFF;}
	.st13{filter:url(#Adobe_OpacityMaskFilter_6_);}
	.st14{mask:url(#mask-14_1_);fill:#000076;}
	.st15{filter:url(#Adobe_OpacityMaskFilter_7_);}
	.st16{mask:url(#mask-16_1_);fill:#005EFF;}
	.st17{opacity:0.2;fill:#000076;enable-background:new    ;}
	.st18{fill:none;stroke:#FFFFFF;stroke-width:5;}
	.st19{fill:none;stroke:#FF6F00;stroke-width:5;stroke-linecap:round;stroke-linejoin:round;}
	.st20{fill:none;stroke:#64EFFF;stroke-width:5;stroke-linecap:round;stroke-linejoin:round;}
	.st21{fill:none;stroke:#000076;stroke-width:5;stroke-linecap:round;stroke-linejoin:round;}
	.st22{fill:none;stroke:#FFFFFF;stroke-width:5;stroke-linecap:round;stroke-linejoin:round;}
	.st23{fill:#000076;}
	.st24{fill:#005EFF;}
</style>
<title>Future Proof icon</title>
<desc>Created with Sketch.</desc>
<g id="Desktop">
	<g id="_x32_-Services-Copy" transform="translate(-225.000000, -563.000000)">
		<g id="Future-Proof-icon" transform="translate(228.000000, 562.261376)">
			<g id="Group-25" transform="translate(0.000000, 111.836262)">
				<g id="Group-3">
					<g id="Clip-2">
					</g>
					<defs>
						<filter id="Adobe_OpacityMaskFilter" filterUnits="userSpaceOnUse" x="-66" y="-44.5" width="327" height="184.7">
							<feColorMatrix  type="matrix" values="1 0 0 0 0  0 1 0 0 0  0 0 1 0 0  0 0 0 1 0"/>
						</filter>
					</defs>
					<mask maskUnits="userSpaceOnUse" x="-66" y="-44.5" width="327" height="184.7" id="mask-2_1_">
						<g class="st0">
							<path id="path-1_1_" class="st1" d="M77.8,3.5c3.3-1.9,7-2.8,10.7-2.8s7.4,0.9,10.7,2.8l72.8,41.4c4.8,2.7,4.8,9.5,0,12.2
								L99.3,98.4c-6.6,3.8-14.8,3.8-21.4,0L5,57c-4.8-2.7-4.8-9.5,0-12.2"/>
						</g>
					</mask>
					<path id="Fill-1" class="st2" d="M147.1-13.7c-1.2-0.7-3.2-0.8-4.6-0.2l-0.1,0L76.2-41.4l0.1-0.1c0.7-0.8,0.5-1.8-0.6-2.4
						c-1.4-0.8-3.7-0.8-5.2,0c-1.1,0.6-1.3,1.6-0.7,2.4l0,0.1L25.4-24.3l-0.1,0l-0.1-0.1l-0.1-0.1c-0.1-0.1-0.2-0.1-0.3-0.1
						c-0.8-0.3-1.7-0.4-2.7-0.3c-0.9,0.1-1.8,0.4-2.3,0.9c-0.5,0.4-0.7,0.9-0.6,1.4l0,0.1l-62.9,8.9l0,0c-0.1-0.1-0.3-0.2-0.4-0.3
						c-0.1-0.1-0.3-0.2-0.5-0.2c-1.6-0.6-3.9-0.4-5,0.5c-1,0.8-0.8,1.9,0.4,2.6c0.2,0.1,0.3,0.2,0.5,0.2c0.5,0.2,1.1,0.3,1.7,0.3
						h0.1L-32.4,21l-0.1,0c-0.6,0.2-1.2,0.4-1.6,0.7c-1,0.8-0.8,1.9,0.5,2.6c0.1,0.1,0.2,0.1,0.3,0.2l0.1,0l-27.7,26.9l-0.1,0
						c-1.4-0.3-2.9-0.1-4,0.5c-1.4,0.8-1.4,2.2,0,3c1.1,0.6,2.6,0.8,4,0.4l0.1,0l16.3,15l-0.1,0l-0.1,0l-0.1,0c-1.4,0.8-1.4,2.2,0,3
						c1,0.6,2.5,0.8,3.9,0.5l0.1,0l37,37.7l-0.1,0c-1.4,0.8-1.3,2.1,0.1,2.9c1.4,0.8,3.7,0.8,5.1,0c0.3-0.2,0.6-0.5,0.8-0.7l0-0.1
						l48.4,6.1l0,0.1c-0.1,0.6,0.3,1.2,1,1.7c0.1,0.1,0.3,0.2,0.5,0.2c1.4,0.6,3.2,0.4,4.5-0.3l0.1,0L86.4,135l0,0.1
						c-0.6,0.7-0.4,1.5,0.5,2c1.1,0.7,3,0.7,4.2,0c0.3-0.2,0.5-0.4,0.7-0.7l0-0.1l37.7,2v0.1c0,0.6,0.4,1.1,1,1.4
						c0.1,0.1,0.3,0.2,0.5,0.2c1.6,0.6,3.9,0.4,5-0.5c0.3-0.3,0.5-0.6,0.6-1l0-0.1l68.3-9.4l0,0c0.1,0.1,0.3,0.2,0.4,0.3
						c0.1,0.1,0.3,0.2,0.5,0.2c0.8,0.3,1.7,0.4,2.7,0.3c0.9-0.1,1.8-0.4,2.3-0.9c0.8-0.7,0.8-1.6,0-2.3l-0.1,0l44.2-22.9l0.1,0
						c1.5,0.7,3.5,0.6,4.8-0.1c1.4-0.8,1.4-2.2,0-3c-0.6-0.4-1.4-0.6-2.4-0.6l-0.1,0l-7.2-41.6l0.1,0c0.7-0.1,1.3-0.3,1.7-0.5
						c1.4-0.8,1.4-2.2,0-3c-1.2-0.7-3.2-0.8-4.6-0.2l-0.1,0l-57-34.8l0.1,0l0,0l0,0c1-0.8,0.8-1.9-0.4-2.6c-0.2-0.1-0.3-0.2-0.5-0.2
						c-1.1-0.4-2.4-0.5-3.6-0.1l-0.1,0l-38.3-28l0,0C148.4-12,148.3-13,147.1-13.7 M126.8,23.6l17.4-33.8l0.1,0
						c0.9,0,1.8-0.1,2.5-0.5l0.1,0L185,17.2l-0.1,0c-0.1,0-0.1,0.1-0.2,0.1c-0.1,0.1-0.2,0.1-0.3,0.2c-0.3,0.3-0.5,0.5-0.6,0.9l0,0
						l-55.3,6.4l0-0.1c-0.2-0.3-0.5-0.5-0.8-0.8c-0.2-0.1-0.3-0.2-0.5-0.2l-0.1,0L126.8,23.6L126.8,23.6 M87.3-8.1l-13-32.3l0.1,0
						c0.5-0.1,0.9-0.3,1.2-0.5l0,0l0.1-0.1l66,27.4l-0.1,0.1c-0.4,0.3-0.7,0.7-0.7,1.1l0,0.1L91.1-6.6l0-0.1
						c-0.2-0.3-0.5-0.6-0.9-0.8c-0.1-0.1-0.3-0.1-0.4-0.2c-0.7-0.3-1.5-0.4-2.3-0.3L87.3-8.1 M124.1,23.5l-34-28l0.1,0
						c0.2-0.1,0.4-0.2,0.5-0.3c0.4-0.3,0.6-0.7,0.6-1.2l0-0.1l49.8-5.6l0,0.1c0.2,0.4,0.5,0.7,0.9,1c0.4,0.2,0.8,0.4,1.3,0.5l0.1,0
						L126,23.4l-0.1,0C125.3,23.4,124.7,23.4,124.1,23.5L124.1,23.5 M190.2,53.2l-1.1-32.7l0.1,0c0.1,0,0.2-0.1,0.3-0.1l0.2-0.1
						l57,34.8l-0.1,0c-0.3,0.3-0.6,0.5-0.7,0.9l0,0.1L193,54.9l0-0.1c-0.1-0.4-0.5-0.8-1-1.1c-0.2-0.1-0.3-0.2-0.5-0.2
						C191.1,53.4,190.7,53.3,190.2,53.2L190.2,53.2 M184.9,20.1c0.2,0.1,0.3,0.2,0.5,0.2c0.8,0.3,1.7,0.4,2.7,0.3l0.1,0l1.1,32.5
						l-0.1,0c-0.7,0-1.3,0.2-1.8,0.4l-0.1,0l-58.9-27.3l0,0c0.2-0.3,0.3-0.6,0.2-0.9l0-0.1l55.2-6.3l0,0.1
						C184.1,19.4,184.4,19.8,184.9,20.1 M255.4,100.3l-32.5-23.6l0.1,0c0.9-0.6,0.9-1.5,0.1-2.1l-0.1,0l24.5-16.4l0.1,0
						c0.6,0.2,1.1,0.3,1.7,0.3l0.1,0l7.2,41.6l-0.1,0C256.1,100.1,255.8,100.2,255.4,100.3L255.4,100.3 M219.2,74.2l-26.9-17.7
						l0.1,0l0,0c0.3-0.3,0.5-0.6,0.6-0.9l0-0.1l52.9,1.2l0,0.1c0.1,0.4,0.4,0.8,0.8,1.1l0.1,0l-24.4,16.4l-0.1,0
						C221.3,73.8,220.2,73.8,219.2,74.2L219.2,74.2 M70.5-40.9c0.7,0.4,1.8,0.6,2.8,0.6l0.1,0l13,32.3l-0.1,0
						c-0.7,0.2-1.2,0.4-1.6,0.7l0,0l0,0l-0.1,0.1L26.2-22.3l0-0.1c0.2-0.5,0.1-1-0.3-1.5l0-0.1L70.3-41L70.5-40.9L70.5-40.9
						L70.5-40.9 M63.9,14.7L86.1-4.2l0.1,0c1,0.3,2.2,0.3,3.2,0l0.1,0l33.9,27.9l-0.1,0c-0.4,0.2-0.7,0.3-1,0.6
						c-0.1,0.1-0.1,0.1-0.2,0.2l-0.1,0.1l-56.8-8l0-0.1c0.1-0.6-0.3-1.2-1-1.6C64.1,14.8,64,14.8,63.9,14.7L63.9,14.7 M60.2,14.4
						L24.9-21.2l0.1,0c0.3-0.1,0.6-0.3,0.8-0.5l0,0l0,0l0.1-0.1L84.3-6.7l0,0.1c-0.4,0.7,0,1.5,0.9,2l0.1,0.1l0.1,0L63.2,14.4
						l-0.1,0c-0.9-0.2-1.9-0.2-2.8,0L60.2,14.4 M145.7,48.1l-18.6-20.9l0.1,0c0.3-0.1,0.5-0.3,0.8-0.4l0.1-0.1l58.7,27.2l-0.1,0.1
						l-0.1,0.1l-0.1,0.1c-0.1,0.1-0.3,0.3-0.4,0.5l0,0.1l-36.4-4.8l0-0.1c0.1-0.5-0.2-1-0.8-1.3c-0.1-0.1-0.3-0.1-0.4-0.2
						c-0.8-0.3-1.7-0.4-2.6-0.2L145.7,48.1 M174.4,92.3l14.8-35l0.1,0c0.8,0,1.6-0.1,2.3-0.4l0.1,0l26.8,17.7l-0.1,0
						c-0.7,0.5-0.8,1.1-0.4,1.7l0,0.1l-42.6,16.6l-0.1,0c-0.1,0-0.1-0.1-0.2-0.1c-0.1,0-0.1-0.1-0.2-0.1c-0.1,0-0.1-0.1-0.2-0.1
						c-0.1,0-0.2-0.1-0.3-0.1L174.4,92.3 M132.4,65.4l13.3-14.2l0.1,0c1.2,0.3,2.6,0,3.4-0.6c0.1-0.1,0.2-0.2,0.3-0.3l0-0.1
						l36.4,4.8l0,0.1c0,0.2,0,0.3,0,0.5l0,0.1l-52.3,10.7l0-0.1c-0.2-0.2-0.4-0.4-0.7-0.5C132.8,65.6,132.7,65.5,132.4,65.4
						L132.4,65.4 M187,56.7c0.1,0.1,0.3,0.2,0.5,0.2c0.2,0.1,0.5,0.2,0.9,0.2l0.1,0l-14.8,35l-0.1,0c-0.7-0.1-1.5,0-2.2,0.2l-0.1,0
						l-37.8-24.2l0,0c0.4-0.4,0.5-0.9,0.4-1.4l0-0.1L186.2,56l0,0.1C186.4,56.3,186.6,56.5,187,56.7 M209.8,98.8l10.7-21.5l0.1,0
						c0.6,0,1.1,0,1.6-0.2l0.1,0l32.5,23.6l-0.1,0c-0.5,0.3-0.8,0.8-0.9,1.2l0,0.1l-42.3-1.8l0-0.1c-0.1-0.4-0.4-0.8-0.8-1
						C210.4,99,210.1,98.9,209.8,98.8L209.8,98.8 M176.4,94.5L176.4,94.5c0.1-0.4-0.1-0.8-0.4-1.1l0-0.1l42.5-16.5l0.1,0l0.1,0
						c0.2,0.1,0.5,0.2,0.8,0.3l0.1,0l-10.7,21.5l-0.1,0c-0.9-0.1-1.7,0.1-2.3,0.5c-0.1,0.1-0.2,0.1-0.2,0.2l-0.1,0.1l-0.1,0
						L176.4,94.5 M131.4,65.1l-4.8-37.5l0.2,0l18.4,20.7l-0.1,0c-0.3,0.1-0.5,0.3-0.7,0.4c-0.8,0.7-0.6,1.6,0.4,2.1
						c0.1,0.1,0.2,0.1,0.3,0.2l0.1,0l-13.3,14.2l-0.1,0c-0.1,0-0.2,0-0.3,0L131.4,65.1 M76.7,47.1L62.9,18.3l0.1,0
						c0.7-0.2,1.2-0.4,1.6-0.8c0.1-0.1,0.3-0.3,0.4-0.4l0-0.1l56.7,8l0,0.1c-0.2,0.6,0.1,1.1,0.6,1.6l0.1,0.1l-43,21.1l-0.1,0
						l-0.1,0c-0.2-0.1-0.3-0.2-0.5-0.2C78.2,47.3,77.5,47.2,76.7,47.1L76.7,47.1 M80.1,49.8L80.1,49.8c0.3-0.6,0.2-1.1-0.3-1.6
						l0-0.1L123,27l0.1,0l0.1,0l0.1,0c0.7,0.3,1.5,0.4,2.4,0.3l0.1,0l4.8,37.6l-0.1,0c-0.9,0-1.8,0.2-2.4,0.6l-0.1,0L80.1,49.8
						 M208.4,125.7l0.5-23.8l0.1,0c0.7-0.1,1.2-0.2,1.6-0.4c0.3-0.2,0.6-0.4,0.7-0.8l0-0.1l42.4,1.8l0,0.1c0.1,0.2,0.3,0.5,0.5,0.7
						l0.1,0.1l-44.3,22.9l-0.1,0l0,0l-0.1,0l0,0l0,0c-0.4-0.1-0.8-0.2-1.3-0.3L208.4,125.7 M11.6,7.9l10.9-28.7l0.1,0
						c0.6,0,1.1,0,1.6-0.1l0.1,0l35.3,35.7l-0.1,0c-0.3,0.1-0.5,0.3-0.7,0.4c-0.1,0.1-0.3,0.3-0.4,0.4l0,0.1L14,10.1l0-0.1
						c0.1-0.6-0.3-1.2-1-1.6c-0.2-0.1-0.3-0.2-0.5-0.2C12.2,8.1,12,8,11.6,7.9L11.6,7.9 M20.3-21.4c0.2,0.1,0.3,0.2,0.5,0.2
						c0.2,0.1,0.5,0.2,0.8,0.2l0.1,0L10.8,7.8l-0.1,0C9.6,7.8,8.5,8,7.8,8.5l-0.1,0l-51.1-20.2l0-0.1c0.4-0.5,0.5-1,0.2-1.5l0-0.1
						l62.7-8.8l0,0.1C19.7-21.9,20-21.6,20.3-21.4 M207.5,125.8l-32-30.2l0.1-0.1c0.1-0.1,0.2-0.1,0.2-0.2c0.1-0.1,0.1-0.2,0.2-0.2
						c0,0,0.1-0.1,0.1-0.1l0-0.1l29.5,5l0,0.1c-0.2,0.6,0.1,1.1,0.8,1.5c0.4,0.2,0.9,0.4,1.5,0.4l0.1,0L207.5,125.8 M48.3,32.2
						l12.2-13.9l0.1,0c0.5,0.1,1,0.1,1.4,0.1l0.1,0l13.8,28.9l-0.1,0c-0.5,0.1-0.9,0.2-1.3,0.4l-0.1,0L49,34.5l0.1-0.1
						c0.8-0.7,0.6-1.5-0.4-2.1C48.6,32.3,48.5,32.3,48.3,32.2L48.3,32.2 M-0.2,42.8l10.4-30.9h0.1c1.3,0,2.4-0.3,3.1-0.9
						c0.1-0.1,0.3-0.3,0.4-0.4l0-0.1l44.3,5.5l0,0.1c-0.1,0.4,0.1,0.8,0.4,1.1l0,0.1l-57.3,26l-0.1,0c-0.1-0.1-0.3-0.2-0.4-0.2
						c-0.2-0.1-0.5-0.2-0.8-0.2L-0.2,42.8 M2,44L2,44c-0.1-0.1-0.1-0.2-0.2-0.2l-0.1-0.1l57.3-26l0.1,0.1c0.2,0.1,0.3,0.2,0.5,0.2
						l0.1,0l0.1,0l0.1,0L47.7,32l-0.1,0c-1.2-0.2-2.6,0-3.3,0.6c-0.5,0.4-0.6,0.9-0.4,1.3l0,0.1L2,44 M116.8,106.6l14-37.4l0.1,0
						c0.8-0.1,1.5-0.2,2.1-0.6l0.1-0.1l37.6,24.1l-0.1,0c-0.2,0.1-0.4,0.2-0.6,0.4c-0.6,0.5-0.7,1.1-0.5,1.6l0,0.1l-50.4,12.7
						l-0.1,0c-0.1-0.1-0.3-0.2-0.4-0.3c-0.1-0.1-0.3-0.2-0.5-0.2c-0.4-0.1-0.8-0.3-1.3-0.3L116.8,106.6 M91.3,67.7L78.5,51l0.1,0
						c0.4-0.2,0.8-0.4,1.1-0.6l0,0l0,0l0.1-0.1L127.4,66l-0.1,0.1c-0.3,0.3-0.5,0.7-0.5,1l0,0.1L95,69l0-0.1
						c-0.1-0.3-0.4-0.6-0.8-0.8c-0.1-0.1-0.3-0.1-0.4-0.2c-0.7-0.3-1.6-0.4-2.4-0.2L91.3,67.7 M115.6,106.6l-8-17l0.1,0
						c0.4-0.1,0.8-0.3,1-0.5c0.7-0.6,0.6-1.5-0.2-2l-0.1,0l20.4-18l0.1,0c0.3,0.1,0.7,0.2,1,0.2l0.1,0L116,106.6l-0.2,0l-0.2,0
						L115.6,106.6 M71.9,86.4l18.9-15.7l0.1,0c1.3,0.4,2.9,0.1,3.7-0.5c0.3-0.3,0.5-0.6,0.5-0.9l0-0.1l31.9-1.8l0,0.1
						c0.1,0.1,0.1,0.3,0.3,0.4l0,0.1L72.1,86.6l-0.1,0L71.9,86.4L71.9,86.4 M127.8,68.5l0.1,0.1c0.1,0,0.2,0.1,0.3,0.1l0.1,0
						l-20.4,18l-0.1,0c-1.3-0.5-3-0.3-3.9,0.5c-0.3,0.2-0.4,0.5-0.5,0.8l0,0.1l-30.3-0.3l0-0.1c-0.1-0.2-0.2-0.4-0.4-0.6l-0.1-0.1
						L127.8,68.5L127.8,68.5 M177,118l-3.4-21.8l0.1,0c0.4,0,0.8-0.1,1.1-0.3l0.1,0l31.7,29.9l-0.1,0c-0.6,0.2-1.2,0.4-1.6,0.7
						l-0.1,0.1l-0.1,0.1l-0.1,0.1l-25.8-6.5l0-0.1c0.4-0.6,0.1-1.3-0.7-1.7c-0.1-0.1-0.3-0.1-0.4-0.2
						C177.6,118.2,177.4,118.1,177,118L177,118 M135.2,136.6l36.6-40.4l0.1,0c0.3,0.1,0.6,0.1,0.9,0.1h0.1l3.4,21.7l-0.1,0
						c-0.9,0-1.8,0.3-2.3,0.7c-0.8,0.6-0.6,1.5,0.3,2.1l0.1,0.1l-38.6,16l-0.1,0l-0.1,0C135.5,136.7,135.4,136.7,135.2,136.6
						L135.2,136.6 M131.9,136.2l-14.7-25.6l0.1,0c0.7-0.1,1.3-0.4,1.8-0.8c0.6-0.6,0.8-1.3,0.4-1.9l0-0.1l50.3-12.7l0.1,0.1
						c0.2,0.2,0.4,0.3,0.6,0.5c0.1,0.1,0.3,0.2,0.5,0.2l0,0l0.1,0l-36.6,40.3l-0.1,0c-0.7-0.2-1.5-0.2-2.3-0.1L131.9,136.2
						 M-31.6,20.9l-14.4-31.5l0.1,0c0.7-0.1,1.4-0.3,1.9-0.6l0.1,0L7.2,8.9l0,0.1c-0.4,0.5-0.5,1.1-0.1,1.6l0,0.1l-35.3,11.2
						l-0.1-0.1c-0.1-0.1-0.3-0.2-0.4-0.3c-0.1-0.1-0.3-0.2-0.5-0.2c-0.7-0.3-1.5-0.4-2.4-0.3L-31.6,20.9 M44.7,34.8
						c0.1,0.1,0.3,0.1,0.4,0.2c1.1,0.4,2.5,0.4,3.5-0.1l0.1,0L74,47.9L73.9,48l-0.1,0l-0.1,0c-0.2,0.2-0.3,0.4-0.5,0.6l0,0.1
						l-71-3.9l0-0.1c0-0.1,0-0.2-0.1-0.3l0-0.1l41.9-10l0.1,0.1C44.3,34.5,44.5,34.7,44.7,34.8 M70.1,86l7.1-34.7l0.1,0
						c0.2,0,0.3,0,0.5-0.1l0.1,0l12.8,16.7l-0.1,0c-0.3,0.1-0.6,0.3-0.9,0.5c-0.8,0.7-0.6,1.6,0.4,2.1l0.1,0.1L71.4,86.2l-0.1,0
						c-0.4-0.1-0.7-0.2-1-0.2L70.1,86 M7.9,11.4c0.1,0.1,0.3,0.2,0.5,0.2c0.2,0.1,0.5,0.2,0.8,0.2l0.1,0L-1,42.7l-0.1,0
						c-0.7,0-1.4,0.1-2,0.3l-0.1,0l-25.4-18.6l0.1,0c0.1-0.1,0.3-0.2,0.4-0.3c0.6-0.6,0.8-1.3,0.4-1.9l0-0.1L7.5,11.1l0.1,0
						C7.7,11.2,7.8,11.3,7.9,11.4 M1.8,45.8L1.8,45.8c0.2-0.2,0.3-0.4,0.4-0.5l0-0.1l70.9,3.9l0,0.1c0,0.1,0,0.3,0.1,0.4l0,0.1
						l-39.6,8.8l-0.1-0.1c-0.1-0.1-0.3-0.3-0.5-0.4c-0.1-0.1-0.2-0.1-0.4-0.2c-1.1-0.4-2.6-0.4-3.6,0.2l-0.1,0L1.8,45.8 M20.2,86.7
						L20.2,86.7c-0.1-0.5-0.4-1-1-1.3l-0.1-0.1L74.8,51l0.1,0c0.4,0.1,0.9,0.2,1.4,0.3l0.1,0L69.3,86l-0.1,0c-1.1,0.1-2,0.4-2.6,0.9
						c-0.2,0.2-0.3,0.3-0.4,0.6l0,0.1L20.2,86.7 M17.3,84.7l13.2-23.8l0.1,0c1.1,0.1,2.2-0.2,2.9-0.7c0.4-0.4,0.6-0.9,0.4-1.3l0-0.1
						L73.4,50l0,0.1c0.2,0.2,0.4,0.4,0.6,0.5l0.1,0L18.5,85l-0.1,0c-0.3-0.1-0.7-0.2-1-0.2L17.3,84.7 M136.5,137.9L136.5,137.9
						c-0.1-0.3-0.2-0.5-0.4-0.7l-0.1-0.1l38.8-16.1l0.1,0c1.3,0.4,2.9,0.2,3.7-0.5l0.1,0l25.8,6.5l0,0.1c-0.2,0.4-0.2,0.8,0,1.2
						l0,0.1L136.5,137.9 M104.2,89.3c0.1,0.1,0.3,0.1,0.4,0.2c0.6,0.3,1.4,0.3,2.2,0.3l0.1,0l8,17l-0.1,0c-0.5,0.1-0.9,0.3-1.3,0.5
						l-0.1,0L72.7,89l0-0.1c0.2-0.3,0.4-0.6,0.4-0.9l0-0.1l30.3,0.3l0,0.1C103.6,88.7,103.8,89,104.2,89.3 M-60.2,51.8l27.8-26.9
						l0.1,0c1,0.2,2.1,0.2,3-0.1l0.1,0l25.4,18.6l-0.1,0c-0.1,0.1-0.3,0.2-0.4,0.3c-0.4,0.3-0.6,0.8-0.6,1.2l0,0.1L-59,52.7l0-0.1
						c-0.2-0.3-0.5-0.5-0.8-0.7l-0.1,0L-60.2,51.8L-60.2,51.8 M15.7,84.8l-15.8-38l0.1,0c0.5-0.1,1-0.3,1.4-0.6l0.1,0l27.1,12.3
						l-0.1,0.1c-0.6,0.7-0.5,1.5,0.5,2c0.1,0.1,0.3,0.1,0.4,0.2c0.1,0,0.2,0.1,0.3,0.1l0.1,0L16.6,84.7h-0.1c-0.2,0-0.5,0-0.7,0.1
						L15.7,84.8 M55.8,118.4L68.7,90l0.1,0c1.2,0.2,2.5-0.1,3.4-0.6l0.1,0l40.8,18.3l0,0.1c-0.3,0.3-0.4,0.7-0.3,1.1l0,0.1
						l-55.2,10.5l0-0.1c-0.2-0.3-0.4-0.5-0.8-0.7c-0.2-0.1-0.3-0.2-0.5-0.2l-0.1,0L55.8,118.4L55.8,118.4 M90.7,134.5l24-24l0.1,0
						c0.6,0.1,1.1,0.2,1.6,0.2h0.1l14.7,25.7l-0.1,0c-0.4,0.2-0.8,0.4-1.1,0.6c-0.2,0.2-0.3,0.4-0.4,0.6l0,0.1l-37.8-2l0-0.1
						c-0.1-0.4-0.3-0.8-0.8-1l-0.1,0L90.7,134.5L90.7,134.5 M57.2,121.2L57.2,121.2c0.4-0.4,0.5-0.8,0.5-1.2l0-0.1l55.2-10.5l0,0.1
						c0.2,0.2,0.4,0.4,0.8,0.6c0.1,0,0.1,0.1,0.2,0.1l0.1,0l-24,24l-0.1,0c-1-0.2-2.1-0.1-2.9,0.3l-0.1,0L57.2,121.2 M-38.8,72.5
						L-38.8,72.5c0.3-0.7,0.1-1.4-0.7-1.9l-0.1,0l36.2-24.1l0.1,0c0.7,0.3,1.5,0.4,2.3,0.3l0.1,0l15.8,38.1l-0.1,0
						c-0.5,0.2-0.9,0.4-1.2,0.6l-0.1,0.1l-0.1,0.1l-0.1,0.1L-38.8,72.5 M-43.8,70.1l-16.3-15l0.1,0l0.1,0l0.1,0c0.7-0.4,1.1-1,1-1.7
						l0-0.1l54.2-7.8l0,0.1c0.1,0.2,0.3,0.4,0.6,0.6l0.1,0l-36.3,24.1l-0.1,0c-1-0.4-2.3-0.4-3.4-0.2L-43.8,70.1 M52.8,118.2
						L18.6,88.5l0.1,0c0.4-0.2,0.7-0.3,1-0.5c0.3-0.2,0.4-0.5,0.5-0.7l0-0.1L66,87.9l0,0.1c0,0.6,0.4,1.1,1,1.5
						c0.2,0.1,0.3,0.2,0.5,0.2l0.2,0.1l0.1,0l0.1,0l-12.9,28.3l-0.1,0C54.3,118.1,53.5,118.1,52.8,118.2L52.8,118.2 M0.5,111.3
						l15.3-22.6l0.1,0c0.7,0.1,1.3,0.1,1.8,0l0.1,0l34.3,29.8l-0.1,0c-0.3,0.1-0.6,0.3-0.8,0.5c-0.1,0.1-0.1,0.2-0.2,0.3
						c0,0-0.1,0.1-0.1,0.1l0,0.1l-48.5-6.1l0-0.1c0.1-0.6-0.3-1.2-1-1.6c-0.2-0.1-0.4-0.2-0.6-0.2L0.5,111.3L0.5,111.3 M-3.1,111.3
						l-37-37.7l0.1,0l0.2-0.1l0.2-0.1c0.1-0.1,0.2-0.2,0.3-0.3c0,0,0.1-0.1,0.1-0.1l0.1-0.1l52.3,13.3l0,0.1c-0.2,0.7,0.1,1.4,1,1.9
						c0.2,0.1,0.3,0.2,0.5,0.2l0.1,0l0.1,0l0.1,0l-15.3,22.6l-0.1,0c-0.9-0.1-1.7,0-2.5,0.2L-3.1,111.3"/>
				</g>
				<g id="Group-6">
					<g id="Clip-5">
					</g>
					<defs>
						<filter id="Adobe_OpacityMaskFilter_1_" filterUnits="userSpaceOnUse" x="72.7" y="46.9" width="7.3" height="4.2">
							<feColorMatrix  type="matrix" values="1 0 0 0 0  0 1 0 0 0  0 0 1 0 0  0 0 0 1 0"/>
						</filter>
					</defs>
					<mask maskUnits="userSpaceOnUse" x="72.7" y="46.9" width="7.3" height="4.2" id="mask-4_1_">
						<g class="st3">
							<path id="path-3_1_" class="st1" d="M77.8,3.5L5,44.8C0.2,47.5,0.2,54.3,5,57l72.8,41.3c6.6,3.8,14.8,3.8,21.4,0L172.1,57
								c4.8-2.7,4.8-9.5,0-12.2L99.3,3.5c-3.3-1.9-7-2.8-10.7-2.8S81.1,1.6,77.8,3.5"/>
						</g>
					</mask>
					<path id="Fill-4" class="st4" d="M79,47.5c-1.4-0.8-3.8-0.8-5.2,0c-1.4,0.8-1.4,2.2,0,3c1.4,0.8,3.8,0.8,5.2,0
						C80.4,49.7,80.4,48.4,79,47.5"/>
				</g>
				<g id="Group-9">
					<g id="Clip-8">
					</g>
					<defs>
						<filter id="Adobe_OpacityMaskFilter_2_" filterUnits="userSpaceOnUse" x="88.3" y="66.9" width="7.3" height="4.2">
							<feColorMatrix  type="matrix" values="1 0 0 0 0  0 1 0 0 0  0 0 1 0 0  0 0 0 1 0"/>
						</filter>
					</defs>
					<mask maskUnits="userSpaceOnUse" x="88.3" y="66.9" width="7.3" height="4.2" id="mask-6_1_">
						<g class="st5">
							<path id="path-5_1_" class="st1" d="M77.8,3.5L5,44.8C0.2,47.5,0.2,54.3,5,57l72.8,41.3c6.6,3.8,14.8,3.8,21.4,0L172.1,57
								c4.8-2.7,4.8-9.5,0-12.2L99.3,3.5c-3.3-1.9-7-2.8-10.7-2.8S81.1,1.6,77.8,3.5"/>
						</g>
					</mask>
					<path id="Fill-7" class="st6" d="M94.6,67.5c-1.4-0.8-3.8-0.8-5.2,0c-1.4,0.8-1.4,2.2,0,3c1.4,0.8,3.8,0.8,5.2,0
						C96,69.6,96,68.3,94.6,67.5"/>
				</g>
				<g id="Group-12">
					<g id="Clip-11">
					</g>
					<defs>
						<filter id="Adobe_OpacityMaskFilter_3_" filterUnits="userSpaceOnUse" x="126.4" y="64.3" width="7.3" height="4.2">
							<feColorMatrix  type="matrix" values="1 0 0 0 0  0 1 0 0 0  0 0 1 0 0  0 0 0 1 0"/>
						</filter>
					</defs>
					<mask maskUnits="userSpaceOnUse" x="126.4" y="64.3" width="7.3" height="4.2" id="mask-8_1_">
						<g class="st7">
							<path id="path-7_1_" class="st1" d="M77.8,3.5L5,44.8C0.2,47.5,0.2,54.3,5,57l72.8,41.3c6.6,3.8,14.8,3.8,21.4,0L172.1,57
								c4.8-2.7,4.8-9.5,0-12.2L99.3,3.5c-3.3-1.9-7-2.8-10.7-2.8S81.1,1.6,77.8,3.5"/>
						</g>
					</mask>
					<path id="Fill-10" class="st8" d="M132.7,64.9c-1.4-0.8-3.8-0.8-5.2,0c-1.4,0.8-1.4,2.2,0,3s3.8,0.8,5.2,0
						C134.1,67,134.1,65.7,132.7,64.9"/>
				</g>
				<g id="Group-15">
					<g id="Clip-14">
					</g>
					<defs>
						<filter id="Adobe_OpacityMaskFilter_4_" filterUnits="userSpaceOnUse" x="42.4" y="31.3" width="7.3" height="4.2">
							<feColorMatrix  type="matrix" values="1 0 0 0 0  0 1 0 0 0  0 0 1 0 0  0 0 0 1 0"/>
						</filter>
					</defs>
					<mask maskUnits="userSpaceOnUse" x="42.4" y="31.3" width="7.3" height="4.2" id="mask-10_1_">
						<g class="st9">
							<path id="path-9_1_" class="st1" d="M77.8,3.5L5,44.8C0.2,47.5,0.2,54.3,5,57l72.8,41.3c6.6,3.8,14.8,3.8,21.4,0L172.1,57
								c4.8-2.7,4.8-9.5,0-12.2L99.3,3.5c-3.3-1.9-7-2.8-10.7-2.8S81.1,1.6,77.8,3.5"/>
						</g>
					</mask>
					<path id="Fill-13" class="st10" d="M48.7,32c-1.4-0.8-3.8-0.8-5.2,0c-1.4,0.8-1.4,2.2,0,3s3.7,0.8,5.2,0
						C50.1,34.1,50.1,32.8,48.7,32"/>
				</g>
				<g id="Group-18">
					<g id="Clip-17">
					</g>
					<defs>
						<filter id="Adobe_OpacityMaskFilter_5_" filterUnits="userSpaceOnUse" x="143.8" y="47.8" width="7.3" height="4.2">
							<feColorMatrix  type="matrix" values="1 0 0 0 0  0 1 0 0 0  0 0 1 0 0  0 0 0 1 0"/>
						</filter>
					</defs>
					<mask maskUnits="userSpaceOnUse" x="143.8" y="47.8" width="7.3" height="4.2" id="mask-12_1_">
						<g class="st11">
							<path id="path-11_1_" class="st1" d="M77.8,3.5L5,44.8C0.2,47.5,0.2,54.3,5,57l72.8,41.3c6.6,3.8,14.8,3.8,21.4,0L172.1,57
								c4.8-2.7,4.8-9.5,0-12.2L99.3,3.5c-3.3-1.9-7-2.8-10.7-2.8S81.1,1.6,77.8,3.5"/>
						</g>
					</mask>
					<path id="Fill-16" class="st12" d="M150,48.4c-1.4-0.8-3.8-0.8-5.2,0c-1.4,0.8-1.4,2.2,0,3s3.8,0.8,5.2,0
						C151.5,50.6,151.4,49.2,150,48.4"/>
				</g>
				<g id="Group-21">
					<g id="Clip-20">
					</g>
					<defs>
						<filter id="Adobe_OpacityMaskFilter_6_" filterUnits="userSpaceOnUse" x="27.7" y="57.3" width="7.3" height="4.2">
							<feColorMatrix  type="matrix" values="1 0 0 0 0  0 1 0 0 0  0 0 1 0 0  0 0 0 1 0"/>
						</filter>
					</defs>
					<mask maskUnits="userSpaceOnUse" x="27.7" y="57.3" width="7.3" height="4.2" id="mask-14_1_">
						<g class="st13">
							<path id="path-13_1_" class="st1" d="M77.8,3.5L5,44.8C0.2,47.5,0.2,54.3,5,57l72.8,41.3c6.6,3.8,14.8,3.8,21.4,0L172.1,57
								c4.8-2.7,4.8-9.5,0-12.2L99.3,3.5c-3.3-1.9-7-2.8-10.7-2.8S81.1,1.6,77.8,3.5"/>
						</g>
					</mask>
					<path id="Fill-19" class="st14" d="M33.9,57.9c-1.4-0.8-3.8-0.8-5.2,0c-1.4,0.8-1.4,2.2,0,3c1.4,0.8,3.7,0.8,5.2,0
						C35.4,60.1,35.4,58.8,33.9,57.9"/>
				</g>
				<g id="Group-24">
					<g id="Clip-23">
					</g>
					<defs>
						<filter id="Adobe_OpacityMaskFilter_7_" filterUnits="userSpaceOnUse" x="64.9" y="85.9" width="7.3" height="4.2">
							<feColorMatrix  type="matrix" values="1 0 0 0 0  0 1 0 0 0  0 0 1 0 0  0 0 0 1 0"/>
						</filter>
					</defs>
					<mask maskUnits="userSpaceOnUse" x="64.9" y="85.9" width="7.3" height="4.2" id="mask-16_1_">
						<g class="st15">
							<path id="path-15_1_" class="st1" d="M77.8,3.5L5,44.8C0.2,47.5,0.2,54.3,5,57l72.8,41.3c6.6,3.8,14.8,3.8,21.4,0L172.1,57
								c4.8-2.7,4.8-9.5,0-12.2L99.3,3.5c-3.3-1.9-7-2.8-10.7-2.8S81.1,1.6,77.8,3.5"/>
						</g>
					</mask>
					<path id="Fill-22" class="st16" d="M71.2,86.5c-1.4-0.8-3.8-0.8-5.2,0c-1.4,0.8-1.4,2.2,0,3c1.4,0.8,3.7,0.8,5.2,0
						C72.6,88.7,72.6,87.4,71.2,86.5"/>
				</g>
			</g>
			<g id="Group-58" transform="translate(0.000000, 0.078837)">
				<path id="Fill-56" class="st17" d="M171.4,192.2c4.7-2.7,4.7-9.4,0-12.1l-72.5-40.9c-6.6-3.7-14.8-3.7-21.3,0.1L5.2,180.6
					c-4.7,2.7-4.7,9.4,0,12.1l72.5,40.9c6.6,3.7,14.8,3.7,21.3-0.1L171.4,192.2z"/>
				<path id="Stroke-26" class="st18" d="M172.1,168.8c4.8-2.7,4.8-9.5,0-12.2l-72.8-41.4c-6.6-3.8-14.8-3.8-21.4,0L5,156.6
					c-4.8,2.7-4.8,9.5,0,12.2l72.8,41.3c6.6,3.8,14.8,3.8,21.4,0L172.1,168.8z"/>
				<path id="Stroke-30" class="st19" d="M56.7,75.1v25.1"/>
				<path id="Stroke-32" class="st20" d="M116.5,74.2v25.1"/>
				<path id="Stroke-34" class="st21" d="M56.7,112.3v11.3"/>
				<path id="Stroke-36" class="st22" d="M87,115.8v21.7"/>
				<path id="Stroke-38" class="st21" d="M87,95v10.4"/>
				<path id="Stroke-40" class="st22" d="M72.3,129.7v12.1"/>
				<path id="Stroke-42" class="st20" d="M72.3,88.1v32.1"/>
				<path id="Stroke-44" class="st19" d="M102.6,126.2v7.8"/>
				<path id="Stroke-46" class="st21" d="M102.6,84.6v32.1"/>
				<g id="Group-52" transform="translate(19.925743, 0.000000)">
					<path id="Fill-50" class="st23" d="M129.8,43.2c3.6-2,3.6-7.1,0-9.2L75,2.9c-5-2.8-11.2-2.8-16.2,0L4,34.1
						c-3.6,2-3.6,7.1,0,9.2l54.9,31.1c5,2.8,11.2,2.8,16.2,0L129.8,43.2z"/>
				</g>
				<g id="Group-55" transform="translate(57.178218, 27.722772)">
					<path id="Fill-53" class="st24" d="M45.3,1.1c-0.7-0.4-1.8-0.4-2.5,0l-20.6,12c-0.7,0.4-0.7,1.1,0,1.5c0.7,0.4,1.8,0.4,2.5,0
						l20.6-12C46,2.2,46,1.5,45.3,1.1 M13.3,5.9c-0.7-0.4-1.8-0.4-2.5,0l-9.2,5.4c-0.7,0.4-0.7,1.1,0,1.5c0.7,0.4,1.8,0.4,2.5,0
						l9.2-5.4C14,7,14,6.3,13.3,5.9 M37.1,19.7c-0.7-0.4-1.8-0.4-2.5,0L25.4,25c-0.7,0.4-0.7,1.1,0,1.5c0.7,0.4,1.8,0.4,2.5,0
						l9.2-5.4C37.8,20.7,37.8,20.1,37.1,19.7 M22.5,5.2c-0.7-0.4-1.8-0.4-2.5,0L5.6,13.6c-0.7,0.4-0.7,1.1,0,1.5
						c0.7,0.4,1.8,0.4,2.5,0l14.4-8.4C23.2,6.2,23.2,5.6,22.5,5.2 M38.4,14.3c-0.7-0.4-1.8-0.4-2.5,0l-14.4,8.4
						c-0.7,0.4-0.7,1.1,0,1.5c0.7,0.4,1.8,0.4,2.5,0l14.4-8.4C39.1,15.4,39.1,14.7,38.4,14.3 M35.4,2.3c-0.7-0.4-1.8-0.4-2.5,0
						L14.2,13.2c-0.7,0.4-0.7,1.1,0,1.5c0.7,0.4,1.8,0.4,2.5,0L35.4,3.7C36.1,3.3,36.1,2.7,35.4,2.3 M43.3,6.9
						c-0.7-0.4-1.8-0.4-2.5,0L22.1,17.7c-0.7,0.4-0.7,1.1,0,1.5c0.7,0.4,1.8,0.4,2.5,0L43.3,8.3C44,7.9,44,7.3,43.3,6.9"/>
				</g>
			</g>
		</g>
	</g>
</g>
</svg>
