<?xml version="1.0" encoding="utf-8"?>
<!-- Generator: Adobe Illustrator 24.1.2, SVG Export Plug-In . SVG Version: 6.00 Build 0)  -->
<svg version="1.1" id="Layer_1" xmlns="http://www.w3.org/2000/svg" xmlns:xlink="http://www.w3.org/1999/xlink" x="0px" y="0px"
	 viewBox="0 0 183 236" style="enable-background:new 0 0 183 236;" xml:space="preserve">
<style type="text/css">
	.st0{opacity:0.2;fill:#000076;enable-background:new    ;}
	.st1{fill:none;stroke:#007BFF;stroke-width:12;stroke-linecap:round;stroke-linejoin:round;}
	.st2{fill:none;stroke:#FF6F00;stroke-width:10;stroke-linecap:round;stroke-linejoin:round;}
	.st3{fill:none;stroke:#007BFF;stroke-width:13;stroke-linecap:round;stroke-linejoin:round;}
	.st4{fill:#161656;}
	.st5{fill:none;stroke:#64F0FF;stroke-width:7;stroke-linecap:round;stroke-linejoin:round;}
</style>
<path id="shadow" class="st0" d="M134.7,117.1c0,37.1-30.1,67.2-67.3,67.2S0,154.3,0,117.1S30.2,50,67.4,50S134.7,80,134.7,117.1"/>
<g id="zoom">
	<path id="circle-1" class="st1" d="M24.1,61.9c11.3-17.5,30.6-29.5,53.1-30.4c36.5-1.5,67.4,26.9,68.9,63.3
		c1.5,36.5-26.9,67.3-63.5,68.8c-15.5,0.6-29.9-4.1-41.6-12.5"/>
	<path id="circle-2" class="st2" d="M29.2,140.1c-9.1-10.8-14.8-24.6-15.5-39.8c-0.2-5.9,0.3-11.6,1.5-17.1"/>
	<path id="handle" class="st3" d="M135.9,165.5l38.7,38.6"/>
</g>
<g id="shield_1_">
	<path id="background" class="st4" d="M104.4,72.4c-7.3-1.3-14.1-5.1-17.5-7.3c-2.2-1.4-4.8-2.2-7.4-2.2s-5.2,0.8-7.4,2.2
		c-3.4,2.2-10.1,6.1-17.5,7.3c-4.3,0.8-7.5,4.4-7.5,8.6v17.7c0,5.8,1.7,11.5,5,16.9c2.6,4.2,6.2,8.2,10.7,12
		c7.6,6.3,15.1,9.5,15.4,9.7l1.2,0.5l1.2-0.5c0.3-0.1,7.8-3.4,15.4-9.7c4.5-3.7,8.1-7.7,10.7-12c3.3-5.4,5-11.1,5-16.9V81.1
		C111.9,76.8,108.8,73.2,104.4,72.4"/>
	<polyline id="check" class="st5" points="66.3,101.2 73.9,108.8 94.9,92.8 	"/>
</g>
</svg>
