<?xml version="1.0" encoding="utf-8"?>
<!-- Generator: Adobe Illustrator 22.1.0, SVG Export Plug-In . SVG Version: 6.00 Build 0)  -->
<svg version="1.1" id="Layer_1" xmlns="http://www.w3.org/2000/svg" xmlns:xlink="http://www.w3.org/1999/xlink" x="0px" y="0px"
	 viewBox="0 0 183 236" style="enable-background:new 0 0 183 236;" xml:space="preserve">
<style type="text/css">
	.st0{fill:#337EFF;}
	.st1{fill:none;stroke:#FFFFFF;stroke-dasharray:7;}
	.st2{fill:#000076;fill-opacity:0.2;}
	.st3{fill:#004BF1;}
	.st4{fill:#040444;}
	.st5{filter:url(#Adobe_OpacityMaskFilter);}
	.st6{fill:#FFFFFF;}
	.st7{mask:url(#mask-2_1_);fill:#000076;}
	.st8{fill:none;stroke:#FFFFFF;stroke-width:8;}
	.st9{fill:none;stroke:#FF6F00;stroke-width:3;stroke-linecap:round;stroke-linejoin:round;}
	.st10{fill:none;stroke:#64EFFF;stroke-width:3;stroke-linecap:round;stroke-linejoin:round;}
	.st11{fill:none;stroke:#000076;stroke-width:3;stroke-linecap:round;stroke-linejoin:round;}
	.st12{filter:url(#Adobe_OpacityMaskFilter_1_);}
	.st13{mask:url(#mask-4_1_);fill:#005EFF;}
</style>
<title>Production ready icon</title>
<desc>Created with Sketch.</desc>
<g id="Desktop">
	<g id="_x32_-Services-Copy" transform="translate(-768.000000, -565.000000)">
		<g id="Production-ready-icon" transform="translate(772.000000, 565.000000)">
			<path id="Fill-1" class="st0" d="M170.9,174.3c4.8-2.7,4.8-9.5,0-12.2L98,120.7c-6.6-3.8-14.8-3.8-21.5,0L3.6,162.1
				c-4.8,2.7-4.8,9.5,0,12.2l72.9,41.4c6.6,3.8,14.8,3.8,21.5,0L170.9,174.3z"/>
			<path id="Stroke-3" class="st1" d="M148.7,185.2c3.7-2.1,3.7-7.4,0-9.5l-56.7-32.2c-5.1-2.9-11.5-2.9-16.7,0l-56.7,32.2
				c-3.7,2.1-3.7,7.4,0,9.5l56.7,32.2c5.1,2.9,11.5,2.9,16.7,0L148.7,185.2z"/>
			<path id="Fill-5" class="st2" d="M152.3,199.4c3.7-2.1,3.7-7.4,0-9.5l-56.7-32.2c-5.1-2.9-11.5-2.9-16.7,0l-56.7,32.2
				c-3.7,2.1-3.7,7.4,0,9.5l56.7,32.2c5.1,2.9,11.5,2.9,16.7,0L152.3,199.4z"/>
			<path id="Fill-7" class="st3" d="M78.8,79L25.1,48.5l-2.4,1.4c-1.5,0.9-2.4,2.4-2.4,4.2c0,1.7,0.9,3.3,2.4,4.2l56.5,32.1
				c4.9,2.8,11.1,2.8,16,0l56.5-32.1c1.5-0.9,2.4-2.4,2.4-4.2c0-1.7-0.9-3.3-2.4-4.2l-2.4-1.4L95.7,79C90.5,81.9,84,81.9,78.8,79"/>
			<path id="Fill-9" class="st4" d="M18.8,40.7v11.4c0,0-0.5,3.7,2.9,5.9c3.5,2.2,55.1,31,55.1,31s3.9,2.3,7.7,3V80.8
				c0,0-2.7-0.1-8.8-3.6c-6.1-3.5-53.2-30.2-53.2-30.2S18.5,45.2,18.8,40.7"/>
			<g id="Group-15" transform="translate(18.560606, 0.659343)">
				<g id="Clip-14">
				</g>
				<defs>
					<filter id="Adobe_OpacityMaskFilter" filterUnits="userSpaceOnUse" x="0.4" y="1.7" width="136.6" height="78.8">
						<feColorMatrix  type="matrix" values="1 0 0 0 0  0 1 0 0 0  0 0 1 0 0  0 0 0 1 0"/>
					</filter>
				</defs>
				<mask maskUnits="userSpaceOnUse" x="0.4" y="1.7" width="136.6" height="78.8" id="mask-2_1_">
					<g class="st5">
						<polygon id="path-1_1_" class="st6" points="0.4,1.7 137,1.7 137,80.5 0.4,80.5 						"/>
					</g>
				</mask>
				<path id="Fill-13" class="st7" d="M134.2,45.9c3.7-2.1,3.7-7.4,0-9.5L77.1,3.9C71.9,1,65.5,1,60.3,3.9L3.2,36.4
					c-3.7,2.1-3.7,7.4,0,9.5l57.1,32.4c5.2,2.9,11.6,2.9,16.8,0L134.2,45.9z"/>
			</g>
			<path id="Stroke-16" class="st8" d="M170.9,174.3c4.8-2.7,4.8-9.5,0-12.2L98,120.7c-6.6-3.8-14.8-3.8-21.5,0L3.6,162.1
				c-4.8,2.7-4.8,9.5,0,12.2l72.9,41.4c6.6,3.8,14.8,3.8,21.5,0L170.9,174.3z"/>
			<path id="Stroke-18" class="st9" d="M32.7,84.1l0.9,62.5"/>
			<path id="Stroke-20" class="st10" d="M53.9,101.4V156"/>
			<path id="Stroke-22" class="st11" d="M74.2,114v64.7"/>
			<g id="Group-26" transform="translate(54.797980, 19.219949)">
				<g id="Clip-25">
				</g>
				<defs>
					<filter id="Adobe_OpacityMaskFilter_1_" filterUnits="userSpaceOnUse" x="1" y="10.8" width="52.5" height="30.4">
						<feColorMatrix  type="matrix" values="1 0 0 0 0  0 1 0 0 0  0 0 1 0 0  0 0 0 1 0"/>
					</filter>
				</defs>
				<mask maskUnits="userSpaceOnUse" x="1" y="10.8" width="52.5" height="30.4" id="mask-4_1_">
					<g class="st12">
						<polyline id="path-3_1_" class="st6" points="0.2,23.9 37.5,2.3 68.3,20.1 31,41.7 						"/>
					</g>
				</mask>
				<path id="Fill-24" class="st13" d="M52.9,11.2c-0.8-0.5-2.1-0.5-2.9,0L25.8,25.2c-0.8,0.5-0.8,1.2,0,1.7c0.8,0.5,2.1,0.5,2.9,0
					l24.2-14.1C53.7,12.4,53.7,11.6,52.9,11.2 M15.4,16.8c-0.8-0.5-2.1-0.5-2.9,0L1.6,23.1c-0.8,0.5-0.8,1.2,0,1.7
					c0.8,0.5,2.1,0.5,2.9,0l10.8-6.3C16.2,18,16.2,17.3,15.4,16.8 M43.3,32.9c-0.8-0.5-2.1-0.5-2.9,0l-10.8,6.3
					c-0.8,0.5-0.8,1.2,0,1.7c0.8,0.5,2.1,0.5,2.9,0l10.8-6.3C44.1,34.1,44.1,33.4,43.3,32.9 M26.2,15.9c-0.8-0.5-2.1-0.5-2.9,0
					l-17,9.9c-0.8,0.5-0.8,1.2,0,1.7c0.8,0.5,2.1,0.5,2.9,0l17-9.9C27,17.1,27,16.4,26.2,15.9 M44.8,26.6c-0.8-0.5-2.1-0.5-2.9,0
					l-17,9.9c-0.8,0.5-0.8,1.2,0,1.7c0.8,0.5,2.1,0.5,2.9,0l17-9.9C45.6,27.9,45.6,27.1,44.8,26.6 M41.3,12.5
					c-0.8-0.5-2.1-0.5-2.9,0l-22,12.8c-0.8,0.5-0.8,1.2,0,1.7c0.8,0.5,2.1,0.5,2.9,0l22-12.8C42.1,13.7,42.1,13,41.3,12.5
					 M50.6,17.9c-0.8-0.5-2.1-0.5-2.9,0l-22,12.8c-0.8,0.5-0.8,1.2,0,1.7c0.8,0.5,2.1,0.5,2.9,0l22-12.8
					C51.4,19.1,51.4,18.4,50.6,17.9"/>
			</g>
		</g>
	</g>
</g>
</svg>
