<svg width="216" height="49" viewBox="0 0 216 49" fill="none" xmlns="http://www.w3.org/2000/svg">
<path d="M123.186 9.9346L123.04 11.671H122.336C121.207 11.671 120.612 12.5817 120.612 13.456V17.3781H118.608V9.9346H120.514L120.563 10.8696C120.964 10.2382 121.656 9.9346 122.518 9.9346H123.186Z" fill="white"/>
<path d="M107.23 17.3781V13.4438C107.23 12.6181 107.158 11.586 106.004 11.586C104.887 11.586 104.438 12.3874 104.438 13.3345V17.3902H102.422V9.9346H104.292L104.34 10.8817C104.741 10.2503 105.482 9.75246 106.587 9.75246C108.615 9.75246 109.258 11.1974 109.258 12.7031V17.3781H107.23Z" fill="white"/>
<path d="M101.56 15.6417L101.414 17.3416C100.928 17.4752 100.503 17.5116 99.9812 17.5116C98.087 17.5116 97.5406 16.6374 97.5406 14.901V7.83391H99.5562V9.9346H101.56L101.426 11.671H99.5684V14.7431C99.5684 15.4474 99.7627 15.8238 100.479 15.8238C100.783 15.8238 101.135 15.7874 101.56 15.6417Z" fill="white"/>
<path d="M96.8849 9.9346L96.727 11.671H96.1806C95.0513 11.671 94.4806 12.5817 94.4806 13.456V17.3781H92.4649V9.9346H94.3713L94.4077 10.8696C94.8085 10.2382 95.5127 9.9346 96.3749 9.9346H96.8849Z" fill="white"/>
<path d="M83.4065 16.5524C82.0465 17.2809 80.6744 17.7059 78.8773 17.6452C75.538 17.5481 73.1338 15.4717 73.1338 11.9746C73.1338 8.48962 75.5623 6.26751 78.8773 6.2068C80.5651 6.19465 82.0708 6.61965 83.2365 7.65177L81.8158 9.08461C81.0872 8.46533 80.0187 8.10105 78.7437 8.16177C76.6552 8.25891 75.4045 9.77674 75.368 11.8531C75.3438 14.1117 76.728 15.6659 78.8894 15.7267C79.9094 15.7509 80.638 15.6174 81.2694 15.3259V13.0188H79.023L79.1808 11.1246H83.4065V16.5524Z" fill="white"/>
<path d="M117.697 14.3667H112.185C112.342 15.3138 113.095 15.8845 114.018 15.9209C114.917 15.9452 115.427 15.6659 116.095 14.9981L117.406 15.9938C116.471 17.1473 115.354 17.5602 114.079 17.5602C111.832 17.5602 110.157 15.9938 110.157 13.6503C110.157 11.3189 111.832 9.74031 113.994 9.74031C116.386 9.74031 117.697 11.1853 117.697 13.7595V14.3667ZM115.682 12.8124C115.621 11.8774 114.917 11.2824 113.945 11.3189C112.974 11.3553 112.318 11.9867 112.185 12.8124H115.682Z" fill="white"/>
<path d="M91.2142 12.5088V17.3902H89.4414L89.3928 16.6616C88.8464 17.3416 87.96 17.5723 87.0614 17.5723C85.6893 17.5723 84.4022 16.8924 84.3658 15.3259C84.3293 12.8488 87.1464 12.6788 88.9193 12.6788H89.2714V12.5696C89.2714 11.756 88.725 11.3067 87.7171 11.3067C86.9886 11.3067 86.26 11.5981 85.7257 12.096L84.5722 10.9303C85.6286 10.0803 86.7214 9.75246 87.8871 9.75246C90.1942 9.75246 91.2142 10.821 91.2142 12.5088ZM89.2835 14.136H89.0043C88.0571 14.136 86.3814 14.1845 86.3814 15.1802C86.3936 16.5766 89.2835 16.1395 89.2835 14.4395V14.136Z" fill="white"/>
<path d="M72.7451 28.6449H74.8094V30.3449H74.8579C75.5379 28.9606 77.1408 28.3535 78.865 28.3535C82.7264 28.3535 84.6449 31.4135 84.6449 34.9591C84.6449 38.5048 82.7507 41.4919 78.9136 41.4919C77.6265 41.4919 75.7808 41.0062 74.8579 39.5248H74.8094V46.009H72.7451V28.6449ZM78.5736 30.1749C75.8051 30.1749 74.7365 32.5549 74.7365 34.9106C74.7365 37.3877 75.8536 39.6705 78.695 39.6705C81.5121 39.6705 82.4593 37.2662 82.4593 34.8134C82.4593 32.4577 81.245 30.1749 78.5736 30.1749Z" fill="white"/>
<path d="M97.7833 37.2177C97.2247 39.9862 95.2333 41.4919 92.4162 41.4919C88.4091 41.4919 86.5149 38.7234 86.3934 34.8863C86.3934 31.122 88.8705 28.3535 92.2948 28.3535C96.739 28.3535 98.099 32.5063 97.9775 35.542H88.5791C88.5063 37.7277 89.7448 39.6705 92.4891 39.6705C94.189 39.6705 95.379 38.8448 95.7433 37.2177H97.7833ZM95.7919 33.7206C95.6947 31.7535 94.2133 30.1749 92.1733 30.1749C90.012 30.1749 88.7248 31.802 88.5791 33.7206H95.7919Z" fill="white"/>
<path d="M111.796 37.2177C111.237 39.9862 109.246 41.4919 106.429 41.4919C102.422 41.4919 100.528 38.7234 100.406 34.8863C100.406 31.122 102.883 28.3535 106.307 28.3535C110.752 28.3535 112.112 32.5063 111.99 35.542H102.592C102.519 37.7277 103.758 39.6705 106.502 39.6705C108.202 39.6705 109.392 38.8448 109.756 37.2177H111.796ZM109.805 33.7206C109.707 31.7535 108.226 30.1749 106.186 30.1749C104.025 30.1749 102.738 31.802 102.592 33.7206H109.805Z" fill="white"/>
<path d="M115.026 28.6457H116.969V31.2928H117.017C118.013 29.2772 119.397 28.2815 121.632 28.3543V30.54C118.305 30.54 117.09 32.4343 117.09 35.6156V41.2013H115.026V28.6457Z" fill="white"/>
<path d="M125.639 26.3637V23.8623H126.562V26.3637H125.639ZM125.639 41.202V28.7194H126.562V41.202H125.639Z" fill="white"/>
<path d="M130.702 28.7196H131.625V31.391H131.674C132.305 29.5211 134.199 28.4282 136.142 28.4282C140.538 28.4282 140.586 31.9496 140.586 33.4796V41.2023H139.664V33.3096C139.664 32.0225 139.518 29.2296 136.118 29.2296C133.325 29.2296 131.625 31.391 131.625 34.451V41.2023H130.702V28.7196Z" fill="white"/>
<path d="M144.606 37.0495C144.752 39.3566 146.476 40.6923 148.734 40.6923C150.361 40.6923 152.693 40.2066 152.693 38.0452C152.693 35.9324 150.556 35.6167 148.419 35.1796C146.257 34.7424 144.12 34.1839 144.12 31.6339C144.12 29.1568 146.524 28.4282 148.637 28.4282C151.284 28.4282 153.251 29.5696 153.251 32.411H152.329C152.304 30.1525 150.726 29.2296 148.637 29.2296C146.937 29.2296 145.043 29.8611 145.043 31.6339C145.043 33.6253 147.18 33.941 149.196 34.3781C151.673 34.8396 153.616 35.4224 153.616 38.0452C153.616 40.7409 150.92 41.4937 148.734 41.4937C145.893 41.4937 143.756 39.9638 143.683 37.0495H144.606Z" fill="white"/>
<path d="M157.271 26.3637V23.8623H158.193V26.3637H157.271ZM157.271 41.202V28.7194H158.193V41.202H157.271Z" fill="white"/>
<path d="M172.072 28.7196V40.5466C172.072 41.518 172.072 46.1322 166.681 45.9623C164.01 45.9623 161.945 44.9666 161.8 42.0766H162.723C162.917 44.2866 164.665 45.1608 166.705 45.1608C171.077 45.1608 171.15 41.5909 171.15 40.7652V37.8995H171.101C170.227 39.7452 168.697 40.7409 166.584 40.7409C162.917 40.7409 161.193 38.0452 161.193 34.5724C161.193 31.2696 163.063 28.4282 166.584 28.4282C168.527 28.4282 170.421 29.4482 171.101 31.3182H171.15V28.7196H172.072ZM162.103 34.5724C162.103 37.5109 163.633 39.9395 166.572 39.9395C169.608 39.9395 171.113 37.3895 171.113 34.5724C171.113 31.7796 169.632 29.2296 166.572 29.2296C163.573 29.2296 162.103 31.9253 162.103 34.5724Z" fill="white"/>
<path d="M176.31 23.8623V31.3908H176.359C176.99 29.5208 178.884 28.4279 180.827 28.4279C185.223 28.4279 185.271 31.9493 185.271 33.4793V41.202H184.349V33.3093C184.349 32.0222 184.203 29.2294 180.803 29.2294C178.01 29.2294 176.31 31.3908 176.31 34.4507V41.202H175.387V23.8623H176.31Z" fill="white"/>
<path d="M193.553 29.5206H190.833V38.239C190.833 40.2547 191.78 40.449 193.529 40.4004V41.2018C191.634 41.3233 189.813 41.0561 189.91 38.239V29.5206H187.603V28.7192H189.91V24.8335H190.833V28.7192H193.553V29.5206Z" fill="white"/>
<path d="M196.661 37.0495C196.807 39.3566 198.531 40.6923 200.79 40.6923C202.417 40.6923 204.748 40.2066 204.748 38.0452C204.748 35.9324 202.611 35.6167 200.474 35.1796C198.313 34.7424 196.176 34.1839 196.176 31.6339C196.176 29.1568 198.58 28.4282 200.693 28.4282C203.34 28.4282 205.307 29.5696 205.307 32.411H204.384C204.36 30.1525 202.781 29.2296 200.693 29.2296C198.993 29.2296 197.098 29.8611 197.098 31.6339C197.098 33.6253 199.236 33.941 201.251 34.3781C203.728 34.8396 205.671 35.4224 205.671 38.0452C205.671 40.7409 202.975 41.4937 200.79 41.4937C197.948 41.4937 195.811 39.9638 195.738 37.0495H196.661Z" fill="white"/>
<path d="M207.65 37.6919H210.443V37.9833H209.217V41.2254H208.877V37.9833H207.65V37.6919Z" fill="white"/>
<path d="M211.257 37.6919L212.471 40.7761L213.686 37.6919H214.183V41.2133H213.843V38.1655H213.831L212.629 41.2133H212.313L211.099 38.1655H211.087V41.2133H210.747V37.6919H211.257Z" fill="white"/>
<path d="M41.1988 29.6778L46.3351 27.055L51.4108 29.7992L50.5001 24.1043L54.6893 20.1215L48.9823 19.2229L46.493 14.0259L43.8823 19.1622L38.1631 19.9272L42.2431 24.0072L41.1988 29.6778Z" fill="white"/>
<path d="M23.4219 29.6778L28.5704 27.055L33.6339 29.7992L32.7354 24.1043L36.9124 20.1215L31.2054 19.2229L28.7161 14.0259L26.1055 19.1622L20.3863 19.9272L24.4662 24.0072L23.4219 29.6778Z" fill="white"/>
<path d="M5.65719 29.6778L10.7935 27.055L15.8692 29.7992L14.9585 24.1043L19.1356 20.1215L13.4406 19.2229L10.9514 14.0259L8.32857 19.1622L2.60938 19.9272L6.68931 24.0072L5.65719 29.6778Z" fill="white"/>
<path d="M15.153 11.8279C19.3786 6.25443 26.6885 2.5752 34.9941 2.5752C48.0717 2.5752 58.6723 11.7065 58.6723 22.9627C58.6723 27.5405 56.9238 31.7662 53.9609 35.1661L58.6723 46.641L46.3961 40.8246C43.0083 42.4275 39.1226 43.3503 34.9819 43.3503C26.3849 43.3503 18.8686 39.4161 14.7158 33.5147" stroke="white" stroke-width="1.656" stroke-miterlimit="10" stroke-linecap="round"/>
</svg>
