<svg width="228" height="228" viewBox="0 0 228 228" fill="none" xmlns="http://www.w3.org/2000/svg">
<path d="M227.356 116.901C227.17 113.589 227.014 109.213 226.676 105.934C226.531 104.949 226.4 104.047 226.264 103.202C225.481 100.598 225.415 100.176 223.874 90.9646C223.874 90.9977 223.919 91.0474 223.936 91.0805C220.174 78.5408 220.174 78.5408 220.112 77.9363L220.165 77.9902C218.843 74.0656 218.229 72.7284 216.432 68.8203L212.419 60.9214C210.87 58.3795 208.884 54.9393 207.235 52.4636C200.173 42.7763 200.037 42.59 195.661 37.8581L190.985 33.0931C190.807 32.9317 190.634 32.7702 190.449 32.6129C190.651 32.8903 190.729 32.9938 192.674 35.0182C192.335 34.7977 192.008 34.56 191.693 34.3061C192.237 35.3038 193.222 35.8668 193.992 36.6451L193.815 36.7693C190.552 34.095 187.775 30.8783 184.478 28.2453C186.127 29.2761 187.424 30.7996 189.217 31.6276C188.805 30.8576 183.786 26.5066 180.49 24.507C178.121 23.0663 177.865 22.8262 177.605 22.5944C177.756 22.6437 177.903 22.7018 178.046 22.7682C177.714 22.4957 177.358 22.2533 176.983 22.0438L176.81 22.1804C176.6 22.0976 176.196 21.9444 174.618 20.868C174.758 20.9218 174.944 20.9881 175.088 21.0295C174.82 20.3961 171.928 19.063 171.709 19.0009C171.845 19.3321 171.845 19.3321 172.327 19.8993C171.322 19.5474 170.815 18.4835 169.814 18.1233C170.003 18.5828 170.502 18.7981 170.691 19.2535C170.329 20.0525 170.329 20.0525 170.391 20.5368C170.485 21.2655 172.813 25.3846 172.834 25.4219C174.573 28.1004 174.503 29.036 174.482 29.1478C174.144 31.6317 174.144 31.6317 172.78 32.6212C172.278 32.9813 172.29 33.1552 172.558 33.8135C172.595 33.9004 176.237 42.47 179.604 40.9051C180.683 40.4 180.148 38.6074 179.884 37.7422C180.164 37.9409 186.184 43.952 187.301 45.8605C187.837 46.763 188.343 47.6117 189.266 47.62C189.456 47.2805 189.546 44.9042 188.965 43.8113C187.622 41.3273 187.931 41.0293 188.607 40.4C188.632 39.7997 188.558 39.572 186.815 38.4129C185.603 37.6097 185.603 37.6097 183.959 34.9478C183.333 33.9294 184.371 32.6501 183.444 31.6856C181.03 29.1644 181.03 29.1644 180.972 29.0195C180.914 28.8746 180.877 28.8 180.832 28.7048L180.955 28.5185C181.854 28.8166 184.853 30.812 185.076 31.4165L184.833 31.4413C187.161 36.6617 187.161 36.6617 189.365 38.7234C191.289 40.5201 194.211 40.2468 196.143 42.0353C195.825 41.9554 195.516 41.8386 195.224 41.6875L195.035 41.8034C195.154 42.0353 195.311 42.2423 195.447 42.4617C194.322 42.1346 193.251 41.6337 192.085 41.4929C193.358 43.2565 195.179 44.573 196.172 46.5643C194.936 46.5146 194.833 44.6807 193.477 44.7883C193.44 44.8504 193.387 44.9373 193.341 44.9994C193.341 45.0201 194.874 47.8187 195.031 48.0133C195.237 48.2741 196.267 49.5988 196.189 50.1867C195.418 50.1163 195.418 50.1163 195.27 50.1536C195.163 50.3937 195.126 50.6586 195.027 50.8988C195.064 50.9526 195.117 51.0188 195.158 51.0726H195.13C191.582 50.8242 191.582 50.8242 191.561 51.1679L191.067 51.4701C190.238 51.0354 189.347 50.734 188.426 50.5758L190.136 50.8781C189.441 50.3361 188.569 50.0762 187.692 50.1494C187.223 50.1494 187.115 50.1784 185.793 48.6549C184.824 47.5413 183.683 45.9185 183.733 44.5151C183.757 43.9396 182.908 41.5095 182.249 41.4391C182.167 41.4391 180.329 41.4391 180.646 42.3292C180.778 42.7142 183.139 46.8582 184.816 48.804C185.496 49.5864 185.529 49.694 185.546 49.7437C185.459 49.8389 185.443 49.8596 184.94 49.9549L183.753 50.1536C183.646 50.2985 183.51 50.493 183.403 50.6421C181.524 50.5883 181.524 50.5883 181.009 51.0933C181.217 52.1954 181.521 53.2771 181.915 54.3266L181.615 54.8606C180.243 54.8275 180.069 54.8275 179.46 55.0469L179.048 54.4052V54.3763C179.048 54.3763 179.048 54.3266 179.048 54.3183C178.751 53.6435 177.704 54.2479 177.062 54.0202C176.757 53.1591 177.548 52.3643 177.226 51.5363C176.645 50.0004 176.044 50.0294 175.558 50.0584C174.457 50.1163 173.708 48.568 173.708 48.5514C173.715 48.5266 173.726 48.5026 173.741 48.4811C173.806 48.4811 173.806 48.4811 174.668 48.6508C175.059 48.7874 175.595 48.9779 175.558 48.775C175.556 48.7655 175.556 48.7555 175.558 48.746C175.434 48.568 175.28 48.4128 175.104 48.2865C173.79 47.206 172.142 46.6926 170.906 45.4796C170.316 44.9001 169.896 44.159 169.183 43.7036C168.309 43.1203 167.297 42.7763 166.25 42.7059C166.971 42.056 167.922 38.86 165.978 38.7813C165.638 38.778 165.299 38.8029 164.964 38.8558C163.728 39.0173 163.514 39.0421 163.505 38.7234C163.505 38.0775 164.585 36.8687 163.687 36.8107C163.662 36.8107 161.268 36.8563 160.914 37.7132C160.899 37.8091 160.908 37.907 160.938 37.9989C161.054 38.7606 161.581 39.3733 161.701 40.1309C161.8 40.7602 161.317 41.3439 161.569 41.9814L160.605 43.3931C160.246 43.4884 157.988 44.1259 159.554 45.0036C159.678 45.0797 159.821 45.1186 159.966 45.1153C159.893 45.1745 159.813 45.223 159.727 45.2602C159.125 45.5008 158.578 45.863 158.12 46.3242C157.996 46.4505 157.903 46.6057 157.852 46.7758C157.8 46.946 157.79 47.1265 157.823 47.3012C157.872 47.4424 157.95 47.5719 158.052 47.6804C158.155 47.7889 158.279 47.8742 158.417 47.9305C158.759 48.0311 159.111 48.0948 159.467 48.1209C159.457 48.1569 159.443 48.1913 159.426 48.2244C159.084 49.0379 158.828 49.8861 158.664 50.7539C158.553 51.4162 158.59 51.735 158.812 51.9958C159.187 52.4512 160.938 52.2608 162.207 51.4411C162.533 51.2341 162.826 50.994 163.168 50.8201C163.509 50.6462 164.103 50.7663 164.404 50.3316C164.577 50.0873 164.507 49.5036 164.193 48.6425C164.06 48.2803 163.874 47.94 163.641 47.6324C163.49 47.4788 163.395 47.278 163.371 47.0627C163.348 46.8479 163.399 46.631 163.514 46.4484C163.679 46.1271 163.725 45.757 163.641 45.4051C163.519 45.0114 163.258 44.6761 162.908 44.4612C162.755 44.3598 162.595 44.2683 162.43 44.188C162.018 43.9976 161.585 43.9024 161.194 43.7161C161.024 43.6515 160.872 43.548 160.749 43.4138H160.72L161.672 42.0311C161.894 42.056 162.29 41.9442 163.019 41.3936C163.328 41.1535 163.596 40.9506 163.806 41.0665C164.676 41.5509 163.666 42.4948 163.967 43.1779C164.568 44.5689 165.281 44.7593 166.18 44.9953C167.589 45.3679 167.77 45.4093 168.03 45.5956C168.075 45.8191 167.943 46.0551 168.067 46.2704C168.446 46.9493 169.113 47.4088 169.451 48.1209C169.628 48.8537 168.738 48.4272 168.087 48.1209C167.999 48.0749 167.906 48.0373 167.811 48.0091C167.587 47.8766 167.339 47.788 167.082 47.7483C166.975 47.7483 166.987 47.8187 167.012 47.9222C167.341 48.8288 168.359 49.2801 168.561 50.2654C168.672 50.8035 168.174 51.0933 167.457 51.4369C167.267 51.528 166.979 51.6688 167.082 51.8841C167.14 51.9958 167.457 52.3643 169.171 52.298C169.896 52.298 171.408 52.2359 171.45 52.7327C171.491 53.2295 171.141 53.1798 170.625 53.1716C170.469 53.1521 170.31 53.1703 170.162 53.2241C170.014 53.278 169.88 53.3665 169.773 53.482C169.406 53.8215 169.361 54.3431 169.027 54.724C168.615 55.1753 168.083 55.4526 167.675 55.8915C167.675 55.9329 167.675 55.9908 167.675 56.0322C167.906 56.086 167.906 56.086 171.173 55.672C172.822 55.4651 174.503 55.5934 176.155 55.3574C176.176 55.3591 176.196 55.3591 176.217 55.3574L179.056 54.3928C179.056 54.3928 179.439 55.0014 179.468 55.0304L179.147 55.1256C179.147 55.2125 179.147 55.2125 179.826 56.8768C179.415 57.15 178.971 57.3682 178.504 57.5267C178.491 57.9622 178.398 58.3915 178.232 58.7935C176.419 58.7024 176.13 58.4872 175.347 57.9076C175.568 58.2922 175.807 58.6652 176.064 59.0254C176.011 59.1992 175.933 59.4393 175.879 59.6174C175.478 59.7925 175.065 59.9378 174.643 60.052C173.765 59.4849 173.765 59.4849 172.352 59.4476L172.101 60.0024L173.283 61.0498L172.797 61.3975C181.273 63.7614 179.942 72.3185 179.892 72.3972C175.945 72.1115 172.142 70.9234 168.211 70.526C168.43 70.9023 168.685 71.2558 168.973 71.5816C168.973 71.6851 169.406 82.2584 170.757 82.6558C170.391 85.918 170.391 85.918 170.345 86.2161C173.089 86.005 173.642 85.9594 174.837 86.2161C175.29 88.0791 175.29 88.0791 175.315 88.1163L181.747 85.976C183.518 85.7524 183.967 83.4921 183.007 81.9727C184.029 77.7252 184.083 77.7045 186.716 76.6571C186.753 73.2293 186.753 73.2293 187.041 72.9933C188.277 71.9666 189.221 73.606 190.366 73.6102C191.413 71.7472 192.278 70.5425 193.914 71.9542C193.997 72.0246 202.979 82.3743 203.848 85.2764C204.516 87.4664 204.211 87.5119 200.42 88.0335C201.162 89.3003 203.457 91.2958 203.474 91.304C203.799 90.2732 203.156 89.2796 203.35 88.2529L203.91 88.3275C204.388 87.6195 204.578 86.7709 205.019 86.0464C204.454 84.0717 204.454 84.0717 204.471 83.3555L205.043 83.2064C205.274 83.5211 205.579 83.9433 205.814 84.2538C205.624 83.3265 205.624 83.3265 202.588 79.6585L202.728 79.0748C201.302 78.4331 200.169 77.9322 196.366 70.1202C196.583 69.7998 196.886 69.5477 197.239 69.3916L205.863 79.5716C205.896 79.6213 205.896 79.6213 208.459 87.0234L211.191 93.3119C211.243 92.9082 211.271 92.5017 211.273 92.0948C211.273 90.6003 210.701 89.1968 210.412 87.7769C209.477 83.1071 209.477 83.1071 209.934 82.7593C210.758 82.9373 212.514 84.0013 212.876 85.3426C213.071 84.9862 213.238 84.6152 213.375 84.2331L213.989 84.1959C214.553 79.9401 211.517 76.2638 212.056 72.0163C212.417 71.9128 212.801 71.9331 213.148 72.0743C213.074 72.2316 212.975 72.4427 212.905 72.6C213.278 73.0786 213.745 73.4748 214.277 73.7633C214.459 74.5127 214.459 74.5127 214.277 75.6718C214.834 76.3011 215.101 77.1125 215.567 77.7832C217.627 76.5992 214.562 74.5044 215.155 72.7739C216.061 72.5793 216.218 72.8815 216.482 73.6019L216.181 74.1525C216.502 74.6617 216.502 74.6617 216.968 76.4957L216.63 76.9842C218.105 80.6273 221.43 83.4631 221.294 87.8058L220.788 88.0915C219.024 86.9075 219.139 82.987 216.255 83.7405C216.225 84.1217 216.081 84.4852 215.843 84.7837C215.501 84.6719 215.044 84.5395 214.698 84.4608C214.793 84.8251 214.982 85.1576 215.246 85.4254C214.59 85.9884 213.705 85.6448 212.996 86.0008C212.934 86.4355 212.909 86.8744 212.922 87.3132L213.466 87.4746C213.75 89.6481 214.29 93.6845 216.947 95.9531C217.075 95.8289 217.236 95.6592 217.359 95.5391C217.359 95.3611 217.359 95.1252 217.359 94.9513C218.229 95.684 218.517 96.9053 219.523 97.5221C219.657 97.1421 219.747 96.7476 219.79 96.3464C220.069 96.623 220.395 96.8449 220.755 97.0005C221.195 105.239 221.266 106.522 220.367 108.729C219.189 108.629 218.995 108.373 218.62 107.214C218.248 107.233 217.894 107.379 217.615 107.628C213.696 107.338 214.055 101.612 209.963 101.546C209.201 102.912 209.803 104.498 209.279 105.897L208.719 106.125C207.874 105.5 198.883 97.2862 198.241 96.2139C198.043 95.8786 198.307 95.2742 198.517 94.943C199.007 94.1606 199.007 94.1606 198.632 89.2962C198.05 88.9108 197.446 88.5597 196.823 88.2447C196.032 88.8491 196.032 88.8491 192.74 88.0915C192.427 88.3875 192.151 88.7199 191.916 89.0809C187.647 87.425 184.194 92.1113 179.966 90.6334C179.501 90.592 179.418 90.5878 179.336 90.5878C178.133 90.8321 177.725 90.9149 176.419 89.3459C176.184 89.1803 176.176 89.1803 176.167 89.1803C175.98 89.3285 175.804 89.4904 175.64 89.6646C174.841 90.6458 175.446 92.0368 174.663 93.0262C173.691 94.2682 171.866 94.2309 170.955 95.564C170.683 95.978 170.811 96.6693 170.786 97.1454C170.518 102.329 170.518 102.329 169.138 103.003C167.902 103.608 165.743 105.276 165.479 105.707C164.709 106.949 159.014 116.884 159.014 116.884C158.779 119.538 160.53 121.769 160.572 124.361C160.609 126.539 157.523 127.569 158.511 130.086C159.974 133.862 162.001 137.364 163.736 141.008C164.465 142.535 169.937 147.789 170.976 147.693C176.126 147.205 181.1 145.255 186.374 145.826C186.562 145.87 186.734 145.965 186.872 146.1C187.824 146.899 187.144 148.339 188.075 149.151C189.007 149.962 190.173 149.565 191.195 149.875C191.87 151.945 188.694 159.438 189.052 161.011C189.617 163.495 190.391 166.907 187.223 174.387C185.764 177.828 182.974 180.357 181.042 183.495C179.254 186.393 179.048 189.924 177.391 192.884C170.955 204.397 170.77 204.592 169.735 205.66C169.035 206.38 168.648 206.782 167.922 208.446C171.219 209.473 175.1 206.819 176.373 205.962L181.483 202.348L187.944 197.169C189.402 195.642 190.272 193.646 191.833 192.201C193.617 190.545 195.999 189.742 197.763 188.061C201.974 184.013 205.884 175.977 206.292 174.979C207.919 170.98 213.494 164.857 215.147 163.094C217.747 160.196 221.233 152.595 222.102 149.618C221.439 149.403 221.439 149.403 220.277 149.647C220.017 149.283 220.017 149.283 220.561 144.526C220.763 142.763 220.367 141.028 220.334 139.273C220.244 134.719 221.125 130.198 220.722 125.636L219.527 111.238C219.815 111.685 219.815 111.685 220.116 113.759C220.437 113.445 220.661 113.046 220.763 112.608C223.692 123.446 220.586 134.313 220.932 145.164C222.114 144.605 222.114 144.605 222.642 144.725C225.769 137.944 225.769 137.944 225.938 137.07C225.909 137.265 225.872 137.522 225.839 137.712C225.909 137.356 225.996 136.884 226.053 136.52L226.115 136.106L226.457 133.622C226.597 132.475 226.775 131.043 227.038 127.147C227.038 127.35 227.038 127.561 227.038 127.731C227.154 124.353 227.376 120.122 227.356 116.901ZM210.079 58.3795C210.761 58.9595 211.385 59.6058 211.941 60.3087C211.376 59.6136 210.753 58.9682 210.079 58.3795ZM227.018 127.064C226.965 127.876 226.827 128.679 226.606 129.461C226.379 128.973 226.379 128.973 226.544 124.907C226.433 126.203 226.433 126.203 226.358 126.77C226.049 117.94 226.181 117.133 226.358 116.007C226.886 116.773 227.096 123.305 227.018 127.064Z" fill="#252D43"/>
<path d="M145.725 23.903C145.729 23.8576 145.729 23.8119 145.725 23.7665C145.488 23.3817 145.143 23.0753 144.734 22.8856C144.655 22.8566 144.552 22.8194 144.473 22.7987C143.78 22.6085 143.036 22.7739 142.351 22.4968C141.867 22.3024 141.525 21.8227 140.926 21.8516C140.257 22.0129 139.629 22.29 138.96 22.4472C138.291 22.6043 137.63 22.563 136.99 22.778C136.577 22.9145 136.878 23.4191 136.556 23.6052C136.234 23.7913 135.858 23.4315 135.516 23.63L135.342 23.7417C135.214 24.3124 135.73 24.9824 135.103 25.4787C134.913 25.4043 133.451 24.1966 133.207 23.7375C132.674 22.7284 130.477 22.0832 129.754 22.5299L123.972 18.6506C125.031 18.3885 126.059 18.017 127.041 17.5422C127.966 17.0624 128.974 16.7564 129.829 16.1526C129.849 16.1526 130.275 15.83 129.746 15.1434C128.974 14.1509 127.801 13.576 127.062 12.5503C126.587 11.8927 126.603 11.0656 126.277 10.3584C125.897 9.53122 126.066 9.31203 126.529 8.84469C127.169 8.19124 126.727 7.92655 125.406 7.14903C121.102 4.60554 121.065 4.5435 120.697 3.97277C120.722 3.919 120.747 3.84869 120.772 3.79079L120.995 3.70808C119.735 2.46735 117.183 3.45166 116.572 1.11081C116.44 1.04464 116.266 0.95779 116.159 0.89989C116.183 0.778439 116.213 0.658337 116.25 0.540079L116.423 0.494586C115.861 0.420142 114.23 0.316748 114.213 0.312612C113.298 0.292972 112.384 0.367812 111.484 0.535943C110.538 0.705509 109.741 0.0851458 108.832 0.0561955C107.556 0.0107022 104.756 0.00656649 103.637 0.0561955C101.572 0.171997 101.572 0.171997 101.345 0.329155C99.1063 0.449092 99.1063 0.449092 98.0407 0.65588C98.0201 0.65588 97.9912 0.65588 97.9788 0.65588C97.9664 0.65588 97.9788 0.65588 97.9994 0.65588H98.0697C98.6412 0.658556 99.2103 0.725142 99.7671 0.854396C99.6597 0.854396 99.6597 0.854396 98.1977 0.854396C97.6864 0.83847 97.1743 0.857816 96.6655 0.912297C94.4027 1.16937 92.1705 1.64584 89.9998 2.33501C89.4485 2.35279 88.8971 2.33621 88.3478 2.28538C89.5868 1.95038 90.8877 1.76014 92.1432 1.45822C90.929 1.45822 88.9054 1.71051 88.8889 1.71465C88.8723 1.71878 83.9784 2.5418 82.9294 2.95537C82.9802 3.02403 83.0467 3.07936 83.1235 3.11667C82.8365 3.20815 82.5308 3.22523 82.2356 3.1663C81.8804 3.12494 77.6927 4.14233 77.2797 4.6593C77.4944 4.7627 77.5481 4.78337 79.3446 4.30776C79.0101 4.44424 78.6714 4.56418 78.3287 4.68825C79.4066 4.43597 82.8716 3.48061 83.4456 3.31932C81.4377 4.03799 79.39 4.64007 77.3127 5.12251C77.0286 5.16387 76.7614 5.2826 76.5404 5.46577C76.4764 5.87832 76.2943 6.26336 76.0159 6.57416C75.7619 6.51411 75.4976 6.51411 75.2436 6.57416C75.3592 6.53408 75.4724 6.4871 75.5823 6.43354C75.6219 6.41505 75.6582 6.38987 75.6896 6.3591C75.6607 6.33428 75.6607 6.33428 75.3056 6.2557V6.22262C75.3844 6.17336 75.4674 6.13047 75.5533 6.09441C76.2265 5.78009 76.2307 5.75114 76.243 5.68083C76.1687 5.68083 76.0861 5.68083 76.0242 5.62707C76.1274 5.48232 76.3835 5.43682 76.3298 5.19282C76.4743 5.02325 76.7056 4.96121 76.8378 4.77924H76.6932C75.3093 5.20191 73.9509 5.70457 72.6252 6.28465C72.7793 6.28556 72.9321 6.26323 73.0795 6.21848C72.7401 6.40554 72.3713 6.53416 71.9892 6.59897C71.4755 6.70017 71.003 6.95043 70.6305 7.31859C71.0352 7.26884 71.4338 7.17736 71.8199 7.04563C72.3072 6.90088 72.4601 6.85952 72.6211 6.9257C72.6248 6.9448 72.6248 6.96449 72.6211 6.9836C72.3717 7.11123 72.1082 7.20974 71.8364 7.27724C71.2417 7.44014 70.6602 7.64892 70.0977 7.90173C69.8045 8.08784 69.7756 8.43525 69.9036 8.49315C69.9408 8.49315 69.9408 8.49315 70.7792 8.26568C71.1137 8.17056 71.473 8.26568 71.8075 8.1292C71.9665 8.06878 72.1226 7.99971 72.2742 7.92241C72.5051 7.95562 72.731 8.01675 72.9474 8.10439C72.9474 8.13747 72.9185 8.1871 72.9102 8.22019C73.4744 8.13598 74.0236 7.97163 74.5415 7.73217C72.5592 8.81574 72.3279 8.55932 72.1751 8.38975C70.6718 8.42284 70.5851 8.99771 70.5479 9.27067C69.7219 9.81659 67.5661 10.3294 66.7401 11.0408C66.686 10.9776 66.6113 10.9352 66.5295 10.9208C66.1954 10.9652 65.8662 11.0414 65.5466 11.1483C65.1542 11.1979 64.7784 11.049 64.3902 11.0904C64.2745 11.0904 63.8822 11.1566 63.6344 11.2186C63.2879 11.4557 63.0046 11.7737 62.8084 12.145C62.9839 12.1429 63.157 12.1034 63.3164 12.0292C63.6266 11.8857 63.9619 11.8056 64.3035 11.7935C64.51 11.93 63.8492 12.7695 63.8161 12.8026C63.4031 13.179 62.8497 13.3196 62.478 13.7456C61.7553 14.5727 62.0444 14.5727 62.2757 14.5727H62.3211C61.776 14.8167 60.9128 15.3999 60.4379 15.4867C56.023 16.5206 49.7744 25.1809 49.729 25.2636L49.8777 25.5738C50.3485 25.5738 50.811 25.4663 51.2818 25.4373C51.3025 25.5242 51.3273 25.64 51.3521 25.7268C50.3733 26.2149 50.2163 26.3017 49.7703 26.7318V26.9676L50.0553 27.0337C49.1136 28.6508 47.0569 29.2009 46.2888 30.9875C45.5702 30.2389 45.5702 30.2389 46.9165 28.7956C46.1442 28.597 46.1442 28.5971 43.6126 30.5822C43.4722 30.6897 42.6338 31.2274 39.5281 31.0785C39.3299 30.7849 39.3629 30.3961 39.1523 30.1066C36.6413 30.7518 35.8938 32.2117 34.4029 35.1233C34.1262 34.3871 34.7704 33.7792 34.6878 33.0554C33.3332 33.2746 32.2099 34.383 30.7438 34.1638C31.355 33.5641 32.3297 33.3366 32.5816 32.373C33.7916 32.0049 37.1575 30.5243 38.9127 29.1057C39.2563 28.783 39.6479 28.5151 40.0732 28.3117L40.1435 28.353C40.0728 28.4627 40.0158 28.5808 39.9741 28.7046C40.4218 28.8927 40.8885 29.0314 41.3659 29.1182C42.5182 28.7294 42.5182 28.7294 43.6456 27.4639C43.6828 27.4184 43.6911 27.4101 43.6952 27.3977C43.5754 27.3729 43.5754 27.3729 42.5058 27.9519C42.6255 27.5714 43.7447 26.7111 44.5253 26.7566C44.802 26.7566 44.8557 26.7566 44.9383 26.6781C44.9383 26.6781 45.5289 26.1404 45.4339 25.6565C44.8268 25.3133 44.5749 24.6391 44.897 24.2462C45.1241 23.965 46.772 21.9385 47.3749 21.0203C47.747 20.7673 48.103 20.4911 48.4405 20.1932C48.8534 19.8251 48.9526 19.6638 48.7791 19.6514C48.6866 19.6504 48.5945 19.6644 48.5065 19.6928C47.949 19.8405 47.4365 20.1248 47.0156 20.5199C45.9419 21.4836 45.1654 22.7615 43.8728 23.4977C43.7447 22.9393 44.3188 22.7615 44.4799 22.3645L44.3807 22.29C43.8521 22.4885 43.4102 22.8897 42.8444 23.0138C43.0014 22.7656 43.2574 22.6002 43.4061 22.3314L43.3483 22.2735C42.5966 22.5009 42.035 23.1006 41.3122 23.3653C41.7583 22.745 42.4975 22.4679 43.0055 21.9219C42.8027 21.9913 42.6086 22.0843 42.4273 22.199C42.6751 22.0377 42.9188 21.8723 43.1583 21.6986C43.3978 21.5249 43.435 21.496 43.7902 20.8301C43.7774 20.8075 43.7666 20.784 43.7571 20.7598C43.366 20.8978 42.9972 21.0929 42.6627 21.3388C42.9683 21.07 42.9683 21.07 43.0137 20.8549L42.9683 20.8301L42.8238 20.8756C41.3329 21.5001 41.3329 21.5001 34.7539 26.9179C34.1035 27.3893 33.5869 28.0222 33.2548 28.7542L33.3126 28.779C34.8861 28.0346 35.9929 26.6822 37.3351 25.6441L37.3764 25.6855C37.3995 25.6809 37.4218 25.6725 37.4425 25.6607C37.0295 26.0453 36.7445 26.3555 36.7734 26.5126C36.8544 26.5444 36.932 26.5846 37.0047 26.6326C36.8891 26.8269 36.885 26.8311 36.1787 27.2571C35.0017 27.9725 34.9398 28.1132 34.9398 28.2827C35.0069 28.3137 35.0821 28.3224 35.1545 28.3075C35.8112 28.1793 36.3439 27.7409 36.9965 27.5962C37.459 27.4928 37.9216 27.6955 38.3882 27.5962C37.6585 28.1031 36.847 28.4796 35.9888 28.7087C32.8955 29.6434 32.594 31.0123 33.1474 31.1488C33.4984 31.2315 33.7627 30.9255 34.0931 30.942C34.1121 30.9603 34.13 30.9796 34.1468 30.9999C34.0023 31.4135 33.5397 31.8271 32.5444 32.344L32.2884 32.2034C31.9538 32.3854 31.9043 32.4144 30.942 32.311C30.8201 32.1394 30.6817 31.9801 30.529 31.8353C29.8434 31.9801 29.4552 32.5674 28.9183 32.9313C29.0299 32.7248 29.1569 32.5271 29.2983 32.3399C28.9475 32.5912 28.6224 32.8765 28.3278 33.1919C28.6086 32.5384 28.6086 32.5384 29.5626 31.3473C27.9106 32.8527 27.9106 32.8527 24.9371 35.3962C25.8829 34.4946 26.9029 33.6716 27.8611 32.7824C26.1647 34.1135 24.5536 35.55 23.0373 37.0836C23.1409 36.9025 23.2582 36.7297 23.3884 36.5666L17.8708 42.762C10.7632 52.0261 10.6063 52.2494 7.47582 57.4481L7.63275 57.2123C5.51824 62.5433 5.51824 62.5433 5.25805 63.995C5.12177 64.4085 4.94418 64.9834 4.79963 65.4011L5.12177 65.9346C4.45272 68.0563 4.45272 68.0563 3.72998 71.6875C3.60212 72.5163 3.70206 73.3641 4.01908 74.14C3.84789 74.0841 3.67018 74.0511 3.49045 74.0407C3.40661 74.0469 3.3236 74.0205 3.25917 73.9663C3.222 73.9249 3.20548 73.9125 3.13115 73.652C3.09811 73.5196 2.96595 73.0854 2.85857 73.0606C2.71035 73.8141 2.72162 74.5904 2.89161 75.3393C3.13941 76.1665 3.71759 76.0631 3.7465 76.0631C3.84067 76.0275 3.9262 75.9721 3.9974 75.9006C4.06859 75.8294 4.12385 75.7438 4.15949 75.6495C4.21892 75.482 4.25097 75.3063 4.25448 75.1284C4.25151 74.9899 4.24048 74.8517 4.22144 74.7149C4.22144 74.7149 4.22144 74.6859 4.22144 74.6735C4.56881 75.4696 4.75148 76.3278 4.75833 77.1963C4.46924 77.035 4.08103 76.8282 3.78367 76.6835C0.198905 81.1087 -1.04007 103.38 1.35115 107.54C1.65677 107.59 1.65677 107.59 6.81503 118.173C6.44747 118.173 5.96014 118.194 5.57606 118.211C6.19967 119.517 10.7508 125.407 10.7921 125.456C11.2051 124.853 11.6181 124.216 9.55317 121.246C8.60328 119.894 7.52951 118.351 5.70408 110.965C7.98793 112.619 8.23159 113.723 8.53308 115.1C8.75196 116.085 8.99563 117.197 9.42927 117.892C10.3626 119.381 11.4942 120.717 12.4937 122.16C13.7781 124.038 15.9669 125.088 17.0366 127.148C17.908 128.802 17.4909 131.031 19.2791 132.289C19.5644 132.459 19.8678 132.598 20.1836 132.702C20.722 132.961 21.2734 133.192 21.8355 133.393C23.6692 133.869 25.5525 134.158 27.3985 134.609C29.2446 135.06 31.2972 133.976 33.1515 135.022C37.3888 137.442 37.3888 137.442 38.8797 137.603C39.1027 137.603 39.4042 137.661 39.6272 137.694C46.2888 138.625 49.0476 146.888 56.3451 146.627C59.5954 141.201 61.5942 147.711 62.3087 150.763C62.5317 151.723 62.5317 151.723 60.7063 155.726C60.6857 155.792 58.9181 163.026 59.6738 164.378C59.7977 164.597 59.9547 164.899 60.0868 165.106C62.4822 168.663 72.3072 178.394 72.3857 178.464C74.7852 180.532 78.0354 181.008 80.5671 182.828C82.4916 184.213 83.9371 186.939 84.6309 190.499C84.6598 190.661 88.4263 207.572 94.9805 216.807C103.29 228.524 111.335 227.229 111.405 227.204C103.666 223.209 103.666 223.209 104.384 219.929C103.311 218.78 103.311 218.78 101.279 213.176C101.592 213.077 101.592 213.077 103.054 213.122C103.054 212.969 103.054 212.969 101.279 210.521C102.637 209.309 102.637 209.309 102.518 208.345L102.86 208.134C105.264 208.87 106.069 206.894 105.446 205.971L104.739 204.975C110.203 204.826 112.533 191.583 112.549 191.447C113.334 189.759 115.395 188.754 116.245 188.403C118.186 187.596 118.215 185.313 119.582 184.064C119.796 183.852 120.058 183.694 120.346 183.605C120.633 183.515 120.938 183.497 121.234 183.551C122.036 183.655 122.098 183.663 122.201 182.906C122.424 181.252 122.271 179.598 122.354 177.91C122.399 176.98 121.85 176.024 122.465 175.114C123.184 174.068 123.444 173.675 122.944 172.98C122.839 172.839 122.76 172.679 122.713 172.509C127.289 170.855 128.908 165.892 128.908 165.83C128.916 165.768 128.916 165.705 128.908 165.644C128.809 165.093 128.363 164.692 128.259 164.146C128.102 163.319 129.205 162.194 128.164 161.665C127.425 161.289 126.694 161.839 125.959 161.665C123.572 161.144 122.011 159.068 119.723 158.356C116.32 157.306 112.805 156.702 109.357 155.838C107.354 155.097 107.172 152.781 105.941 151.446C103.835 150.072 102.257 147.843 100.06 146.586C97.1693 144.932 93.6383 145.502 90.7886 143.77C88.5295 142.401 87.0139 140.072 84.5937 138.906C84.2006 138.722 83.7834 138.594 83.3548 138.525C71.6464 136.759 62.3996 135.366 61.3547 144.659C57.8814 142.177 48.965 146.098 49.7909 140.324C50.1019 138.242 49.7492 136.115 48.7832 134.245C46.0699 132.872 43.3152 134.299 40.5771 134.113C41.4774 131.118 41.4774 131.118 40.8208 129.725C42.006 126.954 42.006 126.954 42.4397 124.443L45.6693 121.829C46.5882 121.883 47.503 121.666 48.3 121.205C49.8529 120.316 50.8936 120.816 50.9927 121.089C50.9101 121.246 50.6995 121.465 50.1998 121.184L50.142 121.226C50.2081 121.978 51.4512 122.293 52.2771 122.499C53.797 122.884 53.9002 123.211 54.2141 124.154C54.3219 124.583 54.5189 124.985 54.7923 125.332C54.9831 125.506 55.1255 125.727 55.2053 125.973C55.2424 126.49 54.6642 126.466 54.4164 126.739C55.0855 127.615 59.2856 127.925 59.3723 127.437L60.6113 128.533C60.6373 128.576 60.6708 128.614 60.7104 128.645C61.0524 128.921 61.3039 129.293 61.4328 129.713C61.5616 130.133 61.5616 130.582 61.4332 131.002C61.2845 131.135 60.6609 131.031 59.8019 130.895C58.4018 130.667 58.1499 130.833 54.3628 130.585C54.3091 130.171 53.194 129.319 52.3804 129.501C51.7526 129.758 52.112 130.742 52.5002 130.887C52.7645 130.982 54.3999 131.3 54.371 130.61C55.1268 130.659 58.0095 130.787 58.0342 130.804C58.9965 131.379 60.1694 131.358 61.1441 131.908C61.5571 132.156 61.2308 132.959 61.8503 133.021C62.9199 133.128 62.8002 131.677 63.717 131.586C63.8921 131.579 64.0672 131.598 64.2374 131.639C65.7258 131.842 67.2245 131.962 68.7266 131.999C68.8629 131.979 68.9538 131.954 68.962 131.821C68.9909 131.346 68.5944 130.945 68.7183 130.452C69.1065 128.918 61.2845 128.24 60.7972 128.323C60.7228 128.333 60.6534 128.366 60.5989 128.418C60.5964 128.449 60.5964 128.481 60.5989 128.513L59.3806 127.413C59.0998 126.805 54.0489 120.977 54.0117 120.94C53.4583 120.56 51.7857 119.402 48.6883 120.026C47.5839 120.395 46.575 121.005 45.7354 121.813L42.5099 124.418C41.6839 123.752 37.3929 120.733 36.4637 130.622C34.8902 130.523 33.8825 132.731 32.0819 131.697C27.8652 129.274 26.428 126.201 25.9448 124.588C25.3501 122.586 27.031 121.023 26.9855 119.133C26.9608 117.925 25.3336 117.338 25.7466 115.957C26.2958 114.166 29.5915 110.803 30.3638 110.208C31.7432 109.145 37.0956 110.353 37.1369 110.373L37.6159 109.96C37.203 109.509 36.6 109.356 36.1374 108.988C36.1746 108.81 36.2242 108.574 36.2655 108.396C37.3351 107.776 45.8345 107.04 45.8716 107.061C49.5142 109.004 47.2923 114.129 50.7904 116.159C54.9203 111.8 48.3124 107.933 49.0186 103.541C49.7827 98.9917 54.3132 97.9495 56.8407 95.0462H56.7788L56.4071 94.6326C56.4277 94.4672 56.4525 94.248 56.4731 94.0867L57.0018 93.9296C57.0224 93.731 57.0513 93.4705 57.0678 93.272L56.5475 93.0776L57.3735 84.7565C57.4395 85.9972 57.4354 89.7194 57.4354 89.7401C57.8278 89.4836 57.8278 89.4836 58.1788 84.0079C58.4803 84.591 59.0048 85.0501 59.1411 85.7284C59.8886 84.4463 59.6408 82.763 60.793 81.6422C60.8219 81.6133 65.7159 78.954 66.0752 78.9788C66.5295 74.6818 66.5295 74.6818 68.9372 72.4278C69.3502 72.4485 69.3502 72.4485 76.3256 68.3996L76.0902 68.8876C76.4925 69.0443 76.9183 69.1312 77.3499 69.144V69.8098C73.3067 72.6842 73.3067 72.6842 73.253 73.532C75.9911 73.5817 84.4038 68.6725 82.9129 64.8759C81.7524 65.6534 81.7069 67.0802 81.0131 68.1307C80.1128 67.8784 79.3611 67.6717 78.7706 67.4897C79.2038 67.3528 79.5796 67.0765 79.8402 66.7039V66.6708C79.7642 66.653 79.6849 66.653 79.6089 66.6708C78.9659 66.8127 78.2948 66.7506 77.6885 66.493C77.4829 66.4206 77.3106 66.2758 77.2037 66.0856C77.0963 65.8953 77.062 65.6729 77.1062 65.459C77.1062 65.2853 77.1062 65.2688 77.0732 65.2564H77.0443C76.9261 65.5 76.8576 65.7651 76.8427 66.0356C76.8278 66.306 76.8671 66.5769 76.9575 66.8321C75.9085 66.3358 75.7186 65.8023 75.3056 64.5285C74.3185 64.1645 74.2524 64.086 73.8312 63.5649C75.3097 63.1513 76.3752 62.8742 76.6932 61.3895C75.9333 60.6409 75.9333 60.6409 65.402 67.2374C72.6542 59.6855 72.6541 59.6855 80.0963 57.4274C81.5913 58.4489 87.6994 55.6242 89.9089 53.4943C89.5331 54.1023 89.054 55.2644 88.4222 56.0419C87.3897 57.3116 86.6876 58.8046 85.6758 60.0867C85.1348 60.7691 84.3872 61.253 83.8793 61.9685C83.6852 62.2414 83.8421 62.32 83.9247 62.3613C84.0073 62.4027 84.0568 62.4317 87.1212 62.6798C88.6055 62.7604 90.0787 62.9846 91.5196 63.3498C91.6893 63.4048 91.8636 63.4462 92.04 63.4739C92.5356 63.5028 93.0518 63.0065 93.535 63.5152C93.7361 63.818 93.8348 64.1778 93.8158 64.5409C93.8158 64.8718 93.9934 64.9048 94.0843 64.8924C94.5757 64.8345 95.1787 63.8916 95.2407 63.0892C95.3398 61.7989 94.361 59.7806 93.3781 58.7426C92.8701 58.1925 92.8701 58.1925 91.0736 58.5854C90.5243 58.7053 90.4045 58.5854 90.2806 58.1346C90.0411 57.2661 89.8305 57.1172 89.4959 56.9435C89.3184 56.8525 89.3184 56.7946 89.4051 56.6209C89.5629 56.3658 89.7409 56.1234 89.9378 55.8972C90.6234 54.9997 90.4252 53.5563 90.3095 53.0642C90.4054 52.9475 90.4913 52.8231 90.5656 52.692C90.1939 51.7738 90.1939 51.7738 90.7391 50.4132L90.4004 49.8879C89.7933 49.7597 89.1862 49.6232 88.5708 49.4992H88.0381C87.6664 49.5364 86.5431 49.648 84.5524 50.9508C84.4822 50.8019 84.3914 50.5993 84.3253 50.4462C84.9365 49.5777 86.9148 49.4454 87.8605 48.337C87.9637 48.0682 86.2085 46.5545 83.9949 47.1376C83.4952 47.2658 83.4952 47.2658 83.2309 47.179C83.0781 46.7654 83.425 46.2774 83.1152 45.8638C82.7022 45.3055 81.8762 45.4503 81.4633 44.8878C81.2898 44.6521 81.4054 44.4411 81.74 43.9821C82.2232 43.3038 82.2232 43.3038 81.1576 41.4013C78.4773 36.6039 78.4773 36.6039 77.164 39.1143C76.9575 39.503 77.4779 39.9083 77.1434 40.2971C76.8089 40.6859 76.0613 40.3302 75.6938 40.8306C74.8678 41.9762 74.8678 41.9762 74.6241 42.0465C73.1621 42.489 72.1462 41.3062 70.8783 41.025C70.6553 40.6114 71.1591 38.0183 71.9273 37.3979C71.1839 37.1498 70.4033 37.5096 69.66 37.2366C69.4865 37.1746 69.3791 37.0547 69.1479 36.6618C69.0694 36.5294 68.8877 36.2151 67.054 35.6113C66.7938 35.4995 66.5072 35.465 66.228 35.512C64.5513 35.9628 62.7547 35.5906 61.1193 36.273C61.4125 37.8322 59.5004 39.2342 60.793 40.8596C60.5452 41.6205 59.5541 41.877 59.5004 42.7703C59.4384 43.8084 60.4874 44.4246 60.5246 45.413C60.5246 45.4544 60.5989 49.4661 58.2903 49.9996C57.7823 50.1195 56.6383 50.4835 56.882 51.3313C56.699 51.5472 56.4847 51.7341 56.246 51.8855C55.6348 54.2139 57.1628 57.1213 54.5114 58.9618C53.6854 57.6879 52.2111 57.3075 51.063 56.501C51.6866 54.673 51.4181 54.0195 51.063 53.1634C51.2405 53.0228 51.542 52.7705 51.7155 52.6299C51.6866 52.5348 51.7155 52.3363 51.6866 52.237C51.4652 52.2048 51.2414 52.1907 51.0175 52.1957C49.9272 51.141 48.6098 52.0964 47.4369 51.7821C46.264 51.4678 45.6362 50.2477 44.4923 49.8424C44.2738 49.7696 44.0499 49.7126 43.8232 49.6729C42.7783 49.495 42.035 50.2643 41.1305 50.5248C40.8166 50.2643 40.8166 50.2643 40.416 47.8779C40.2756 47.0508 40.2756 47.0508 38.3139 46.8895C37.872 44.3501 44.0545 39.7553 46.6976 37.7908C46.392 36.9637 45.5082 37.34 45.0044 36.9389C50.142 36.0249 50.142 36.0249 53.066 32.9024C51.0753 33.2498 50.6624 33.3159 49.0476 32.4019C50.9597 31.7113 53.4253 32.9189 54.879 30.6815C54.7101 30.5688 54.5156 30.5005 54.3132 30.483C54.3132 30.483 55.2755 29.3167 56.2749 29.9536C59.6078 28.7459 59.6077 28.7459 60.4833 27.9767C60.6931 27.7902 60.8765 27.5759 61.0284 27.3398C61.3836 26.736 60.793 26.0991 61.1152 25.4787C61.4373 24.8583 62.1146 24.97 62.5111 24.5564C62.6771 24.2583 62.8154 23.9454 62.9241 23.6217C62.4376 23.1295 61.8218 22.7853 61.1482 22.6292C61.8804 22.5322 62.6011 22.3632 63.2999 22.1246C63.2132 21.7606 63.1553 21.5208 65.0551 21.2974C66.6699 21.1237 66.9094 20.7308 67.0705 20.4703C67.5735 20.8086 68.0526 21.1818 68.5036 21.5869C69.0611 22.1784 69.2924 22.9848 69.8128 23.6052C70.457 24.3993 71.9727 24.3165 71.9727 25.7517C71.9727 25.7806 71.6465 29.0024 67.1696 30.3465C65.8274 30.76 64.3737 30.6691 63.1017 31.3515C62.8869 31.5029 62.7296 31.7224 62.6544 31.9745C62.5796 32.2266 62.5916 32.4967 62.6887 32.7411C62.9365 32.9603 63.7294 33.0595 66.0835 32.2613C67.8841 31.6492 67.8841 31.6492 71.0848 33.0595C70.8246 33.3325 70.8246 33.3325 69.5319 33.8164C70.2381 34.4409 75.7268 35.5823 76.8295 34.962C76.7841 34.7924 76.7841 34.7924 76.4991 34.6518C76.3546 34.5815 76.3546 34.5815 73.922 32.311C75.8218 32.5177 76.4206 32.7618 77.4985 33.4938C77.7092 33.6385 77.862 33.7419 77.9652 33.7088C78.5723 33.5227 79.5924 31.2274 79.1009 30.7104C78.0396 29.6062 76.0613 29.7509 75.4542 28.0222C74.9545 26.6036 77.3664 25.8344 77.3912 25.8344C78.1428 25.7723 79.7989 27.8609 79.8154 27.9022C80.2284 28.4151 80.6208 28.9486 80.9925 28.8783C82.0291 28.6839 83.5778 24.7425 83.5902 24.6805C83.6385 24.5481 83.6608 24.4077 83.6562 24.2669L76.082 22.5464C76.2926 22.381 76.495 22.2239 78.3163 21.4132C79.1175 21.0617 79.5139 20.8839 79.4892 20.6729C79.4272 20.1312 76.7634 17.6084 75.4749 17.3974C74.9008 17.3064 74.2937 17.4801 73.7362 17.2072C73.1787 16.9342 73.2199 15.9665 72.4146 15.9003C71.6754 15.8382 70.0812 16.4421 68.9166 16.8805C67.7519 17.3188 67.723 17.323 67.5372 17.294C67.4587 17.1038 67.372 16.9094 67.3059 15.1848C66.8268 14.9946 65.3277 15.251 64.8817 15.3296C62.6019 15.8672 55.7958 21.5704 57.0844 22.443C57.7121 22.8566 59.0998 22.8566 60.4131 22.7243C59.9092 22.9517 59.4467 23.5514 59.1741 24.7922C57.4478 25.7889 56.2047 29.8419 54.1067 27.9643C54.2884 26.7236 56.8118 25.8964 55.6348 24.6557C54.2967 25.1602 53.7598 26.5085 52.7686 27.3853C52.5332 26.7111 53.8961 24.9286 53.9126 24.9038C53.493 24.8428 53.0689 24.8179 52.6447 24.8294C54.7097 21.4918 54.7097 21.4918 54.7097 21.0865L54.3958 20.8549C55.5687 19.0435 57.105 17.7283 62.5069 14.5355C64.0061 14.3659 70.7668 13.4809 72.7161 11.5453C73.3108 10.9581 71.8488 10.8712 71.8323 10.8712C71.0724 10.8505 67.3679 12.1326 66.5997 12.4428C65.9141 12.7199 65.3607 12.083 65.5218 11.9176C65.5879 11.8431 65.6994 11.8059 65.9348 11.7314C66.5667 11.5536 66.7608 11.3675 66.7608 11.2145C67.1407 11.1607 68.3838 10.7513 69.821 10.4659C70.9774 10.2384 72.0016 9.41542 73.2736 9.69665C73.1786 9.91998 73.1786 9.91998 72.9143 10.1102C73.761 10.2798 76.4661 8.96462 76.2183 8.29463L75.9168 8.22019C76.6387 7.60193 77.4453 7.09075 78.3121 6.70237C80.7281 6.11922 81.5748 5.20936 81.5954 5.00671L81.4715 4.96535C83.7099 4.37807 84.7342 4.10925 85.428 3.65018C85.2364 3.63645 85.0439 3.6546 84.8581 3.70394L89.0623 2.62865C88.1207 2.95951 87.5879 3.19938 87.5714 3.20352C87.7573 3.30278 87.7572 3.30278 88.5089 3.30278C87.9348 4.00999 86.4439 4.41943 85.618 4.63862C85.5808 4.63862 81.488 5.83386 81.3187 6.0696C80.1913 7.58742 83.0285 8.07544 83.0615 8.0713C90.0824 7.55847 90.1856 7.63291 90.6771 8.0713C90.7143 8.10439 93.981 11.7439 92.9196 13.7207C92.5067 14.5231 92.5067 14.5479 92.5067 14.6637C92.5851 15.0773 93.0931 15.1228 93.2418 15.4908C93.4648 16.0409 93.2418 16.6737 93.5474 17.2072C94.4725 16.988 95.1994 16.0202 96.3227 16.5165C98.2059 17.3437 97.3387 18.878 97.3221 18.8904C96.5499 19.8086 95.1415 19.7672 94.4312 20.8012C94.0471 21.3678 93.6713 22.9311 93.9604 23.8492C94.0967 24.2628 102.026 34.3954 102.117 34.4367C108.399 37.3069 108.944 35.5947 109.365 35.1233C110.063 34.3416 111.252 28.3158 111.261 28.2579C111.434 27.3687 110.967 26.4341 111.471 25.5738C111.74 25.1272 111.769 25.1189 113.416 24.6185C118.599 23.0469 118.599 23.0469 118.736 22.0626C118.872 21.0782 118.955 20.4868 119.888 19.9947C121.155 19.4148 122.478 18.9658 123.836 18.6547L129.68 22.5671C129.874 23.0675 130.506 22.9807 130.783 23.3446C130.601 24.1098 129.692 23.9857 129.329 24.5275C129.54 24.6805 130.271 24.573 130.679 24.4985C131.402 24.3703 133.678 25.1561 132.41 26.2066C132.951 26.8766 133.678 26.31 134.289 26.4837C134.9 26.6574 134.933 26.8973 134.937 27.4639C135.09 27.5921 135.218 27.6458 136.494 27.5135C136.955 27.4445 137.421 27.4141 137.886 27.4225C138.497 27.4639 139.067 27.7327 139.679 27.7699H139.93C140.145 27.7699 140.447 27.7699 142.14 27.3563C143.672 26.98 146.01 25.2884 145.89 24.788C145.82 24.4654 145.539 24.2504 145.448 23.9361C145.535 23.903 145.535 23.903 145.725 23.903ZM39.4001 24.1263L39.462 24.0849L39.367 24.1552L39.4001 24.1263Z" fill="#252D43"/>
<path d="M175.431 156.276C175.431 164.695 168.605 171.52 160.186 171.52C151.767 171.52 144.942 164.695 144.942 156.276C144.942 147.856 151.767 141.031 160.186 141.031C168.605 141.031 175.431 147.856 175.431 156.276Z" fill="url(#paint0_linear_3881_4039)"/>
<path fill-rule="evenodd" clip-rule="evenodd" d="M177.813 156.276C177.813 166.011 169.921 173.902 160.186 173.902C150.451 173.902 142.56 166.011 142.56 156.276C142.56 146.541 150.451 138.649 160.186 138.649C169.921 138.649 177.813 146.541 177.813 156.276ZM160.186 171.52C168.605 171.52 175.431 164.695 175.431 156.276C175.431 147.857 168.605 141.031 160.186 141.031C151.767 141.031 144.942 147.857 144.942 156.276C144.942 164.695 151.767 171.52 160.186 171.52Z" fill="#0062CC"/>
<g filter="url(#filter0_d_3881_4039)">
<path opacity="0.3" d="M157.804 154.688C158.462 154.688 158.995 154.155 158.995 153.497C158.995 152.839 158.462 152.306 157.804 152.306C157.146 152.306 156.613 152.839 156.613 153.497C156.613 154.155 157.146 154.688 157.804 154.688Z" fill="white"/>
<path opacity="0.3" d="M154.104 160.246H161.504C160.837 159.785 159.226 159.253 157.804 159.253C156.383 159.253 154.771 159.785 154.104 160.246Z" fill="white"/>
<path d="M157.804 156.276C159.337 156.276 160.583 155.029 160.583 153.497C160.583 151.964 159.337 150.718 157.804 150.718C156.272 150.718 155.025 151.964 155.025 153.497C155.025 155.029 156.272 156.276 157.804 156.276ZM157.804 152.306C158.463 152.306 158.995 152.838 158.995 153.497C158.995 154.156 158.463 154.688 157.804 154.688C157.145 154.688 156.613 154.156 156.613 153.497C156.613 152.838 157.145 152.306 157.804 152.306ZM157.804 157.665C155.946 157.665 152.246 158.594 152.246 160.444V161.834H163.362V160.444C163.362 158.594 159.662 157.665 157.804 157.665ZM154.104 160.246C154.771 159.785 156.383 159.253 157.804 159.253C159.226 159.253 160.837 159.785 161.504 160.246H154.104ZM163.394 157.713C164.315 158.38 164.95 159.269 164.95 160.444V161.834H168.126V160.444C168.126 158.84 165.347 157.927 163.394 157.713ZM162.568 156.276C164.101 156.276 165.347 155.029 165.347 153.497C165.347 151.964 164.101 150.718 162.568 150.718C162.139 150.718 161.742 150.821 161.377 150.996C161.877 151.702 162.171 152.568 162.171 153.497C162.171 154.426 161.877 155.291 161.377 155.998C161.742 156.172 162.139 156.276 162.568 156.276Z" fill="white"/>
</g>
<path d="M128.745 156.276C128.745 164.695 121.919 171.52 113.5 171.52C105.081 171.52 98.2556 164.695 98.2556 156.276C98.2556 147.856 105.081 141.031 113.5 141.031C121.919 141.031 128.745 147.856 128.745 156.276Z" fill="url(#paint1_linear_3881_4039)"/>
<path fill-rule="evenodd" clip-rule="evenodd" d="M131.126 156.276C131.126 166.011 123.235 173.902 113.5 173.902C103.765 173.902 95.8737 166.011 95.8737 156.276C95.8737 146.541 103.765 138.649 113.5 138.649C123.235 138.649 131.126 146.541 131.126 156.276ZM113.5 171.52C121.919 171.52 128.744 164.695 128.744 156.276C128.744 147.857 121.919 141.031 113.5 141.031C105.081 141.031 98.2556 147.857 98.2556 156.276C98.2556 164.695 105.081 171.52 113.5 171.52Z" fill="#0062CC"/>
<g clip-path="url(#clip0_3881_4039)" filter="url(#filter1_d_3881_4039)">
<path opacity="0.3" d="M111.118 161.278C111.907 161.278 112.547 160.638 112.547 159.849C112.547 159.059 111.907 158.419 111.118 158.419C110.329 158.419 109.689 159.059 109.689 159.849C109.689 160.638 110.329 161.278 111.118 161.278Z" fill="white"/>
<path d="M111.118 162.707C112.697 162.707 113.976 161.428 113.976 159.848V152.703H116.835V149.844H112.547V157.383C112.126 157.14 111.64 156.99 111.118 156.99C109.539 156.99 108.26 158.269 108.26 159.848C108.26 161.428 109.539 162.707 111.118 162.707ZM111.118 158.419C111.904 158.419 112.547 159.062 112.547 159.848C112.547 160.634 111.904 161.278 111.118 161.278C110.332 161.278 109.689 160.634 109.689 159.848C109.689 159.062 110.332 158.419 111.118 158.419Z" fill="white"/>
</g>
<path d="M82.0583 156.276C82.0583 164.695 75.2332 171.52 66.8139 171.52C58.3946 171.52 51.5695 164.695 51.5695 156.276C51.5695 147.856 58.3946 141.031 66.8139 141.031C75.2332 141.031 82.0583 147.856 82.0583 156.276Z" fill="url(#paint2_linear_3881_4039)"/>
<path fill-rule="evenodd" clip-rule="evenodd" d="M84.4403 156.276C84.4403 166.011 76.5487 173.902 66.8139 173.902C57.0791 173.902 49.1875 166.011 49.1875 156.276C49.1875 146.541 57.0791 138.649 66.8139 138.649C76.5487 138.649 84.4403 146.541 84.4403 156.276ZM66.8139 171.52C75.2332 171.52 82.0583 164.695 82.0583 156.276C82.0583 147.857 75.2332 141.031 66.8139 141.031C58.3946 141.031 51.5694 147.857 51.5694 156.276C51.5694 164.695 58.3946 171.52 66.8139 171.52Z" fill="#0062CC"/>
<g clip-path="url(#clip1_3881_4039)" filter="url(#filter2_d_3881_4039)">
<path opacity="0.3" d="M60.462 161.039H73.1657V151.512H60.462V161.039ZM64.4319 157.864H67.6079V157.07H65.2259C64.7892 157.07 64.4319 156.712 64.4319 156.276V153.894C64.4319 153.457 64.7892 153.1 65.2259 153.1H66.0199V152.306H67.6079V153.1H69.1958V154.688H66.0199V155.482H68.4018C68.8385 155.482 69.1958 155.839 69.1958 156.276V158.658C69.1958 159.094 68.8385 159.452 68.4018 159.452H67.6079V160.246H66.0199V159.452H64.4319V157.864Z" fill="white"/>
<path d="M73.1658 149.924H60.4621C59.5808 149.924 58.8821 150.63 58.8821 151.512L58.8741 161.04C58.8741 161.921 59.5808 162.628 60.4621 162.628H73.1658C74.0471 162.628 74.7538 161.921 74.7538 161.04V151.512C74.7538 150.63 74.0471 149.924 73.1658 149.924ZM73.1658 161.04H60.4621V151.512H73.1658V161.04ZM66.02 160.246H67.6079V159.452H68.4019C68.8386 159.452 69.1959 159.094 69.1959 158.658V156.276C69.1959 155.839 68.8386 155.482 68.4019 155.482H66.02V154.688H69.1959V153.1H67.6079V152.306H66.02V153.1H65.226C64.7893 153.1 64.432 153.457 64.432 153.894V156.276C64.432 156.712 64.7893 157.07 65.226 157.07H67.6079V157.864H64.432V159.452H66.02V160.246Z" fill="white"/>
</g>
<path d="M198.774 113.401C198.774 121.82 191.949 128.645 183.529 128.645C175.11 128.645 168.285 121.82 168.285 113.401C168.285 104.981 175.11 98.1562 183.529 98.1562C191.949 98.1562 198.774 104.981 198.774 113.401Z" fill="url(#paint3_linear_3881_4039)"/>
<path fill-rule="evenodd" clip-rule="evenodd" d="M201.156 113.401C201.156 123.136 193.264 131.027 183.529 131.027C173.794 131.027 165.903 123.136 165.903 113.401C165.903 103.666 173.794 95.7744 183.529 95.7744C193.264 95.7744 201.156 103.666 201.156 113.401ZM183.529 128.645C191.948 128.645 198.774 121.82 198.774 113.401C198.774 104.982 191.948 98.1564 183.529 98.1564C175.11 98.1564 168.285 104.982 168.285 113.401C168.285 121.82 175.11 128.645 183.529 128.645Z" fill="#0062CC"/>
<g clip-path="url(#clip2_3881_4039)" filter="url(#filter3_d_3881_4039)">
<path opacity="0.3" d="M177.971 117.371H189.087V113.401H177.971V117.371ZM187.102 114.195C187.761 114.195 188.293 114.727 188.293 115.386C188.293 116.045 187.761 116.577 187.102 116.577C186.443 116.577 185.911 116.045 185.911 115.386C185.911 114.727 186.443 114.195 187.102 114.195ZM179.956 114.195C180.615 114.195 181.147 114.727 181.147 115.386C181.147 116.045 180.615 116.577 179.956 116.577C179.297 116.577 178.765 116.045 178.765 115.386C178.765 114.727 179.297 114.195 179.956 114.195Z" fill="white"/>
<path d="M189.024 108.645C188.865 108.176 188.42 107.843 187.896 107.843H179.162C178.638 107.843 178.202 108.176 178.035 108.645L176.383 113.401V119.752C176.383 120.189 176.741 120.546 177.177 120.546H177.971C178.408 120.546 178.765 120.189 178.765 119.752V118.959H188.293V119.752C188.293 120.189 188.65 120.546 189.087 120.546H189.881C190.318 120.546 190.675 120.189 190.675 119.752V113.401L189.024 108.645ZM179.44 109.431H187.61L188.468 111.9H178.583L179.44 109.431ZM189.087 117.371H177.971V113.401H189.087V117.371Z" fill="white"/>
<path d="M179.956 116.577C180.614 116.577 181.147 116.044 181.147 115.386C181.147 114.728 180.614 114.195 179.956 114.195C179.299 114.195 178.765 114.728 178.765 115.386C178.765 116.044 179.299 116.577 179.956 116.577Z" fill="white"/>
<path d="M187.102 116.577C187.76 116.577 188.293 116.044 188.293 115.386C188.293 114.728 187.76 114.195 187.102 114.195C186.444 114.195 185.911 114.728 185.911 115.386C185.911 116.044 186.444 116.577 187.102 116.577Z" fill="white"/>
</g>
<path d="M152.088 113.401C152.088 121.82 145.262 128.645 136.843 128.645C128.424 128.645 121.599 121.82 121.599 113.401C121.599 104.981 128.424 98.1562 136.843 98.1562C145.262 98.1562 152.088 104.981 152.088 113.401Z" fill="url(#paint4_linear_3881_4039)"/>
<path fill-rule="evenodd" clip-rule="evenodd" d="M154.469 113.401C154.469 123.136 146.578 131.027 136.843 131.027C127.108 131.027 119.217 123.136 119.217 113.401C119.217 103.666 127.108 95.7744 136.843 95.7744C146.578 95.7744 154.469 103.666 154.469 113.401ZM136.843 128.645C145.262 128.645 152.088 121.82 152.088 113.401C152.088 104.982 145.262 98.1564 136.843 98.1564C128.424 98.1564 121.599 104.982 121.599 113.401C121.599 121.82 128.424 128.645 136.843 128.645Z" fill="#0062CC"/>
<g clip-path="url(#clip3_3881_4039)" filter="url(#filter4_d_3881_4039)">
<path opacity="0.3" d="M132.309 108.637L136.446 106.461L140.583 108.637H132.309Z" fill="white"/>
<path d="M132.476 111.813H130.888V117.371H132.476V111.813ZM137.24 111.813H135.652V117.371H137.24V111.813ZM143.989 118.959H128.903V120.547H143.989V118.959ZM142.004 111.813H140.416V117.371H142.004V111.813ZM136.446 104.667L128.903 108.637V110.225H143.989V108.637L136.446 104.667ZM132.31 108.637L136.446 106.461L140.583 108.637H132.31Z" fill="white"/>
</g>
<path d="M105.401 113.401C105.401 121.82 98.5763 128.645 90.157 128.645C81.7378 128.645 74.9126 121.82 74.9126 113.401C74.9126 104.981 81.7378 98.1562 90.157 98.1562C98.5763 98.1562 105.401 104.981 105.401 113.401Z" fill="url(#paint5_linear_3881_4039)"/>
<path fill-rule="evenodd" clip-rule="evenodd" d="M107.783 113.401C107.783 123.136 99.8918 131.027 90.157 131.027C80.4222 131.027 72.5306 123.136 72.5306 113.401C72.5306 103.666 80.4222 95.7744 90.157 95.7744C99.8918 95.7744 107.783 103.666 107.783 113.401ZM90.157 128.645C98.5763 128.645 105.401 121.82 105.401 113.401C105.401 104.982 98.5763 98.1564 90.157 98.1564C81.7378 98.1564 74.9126 104.982 74.9126 113.401C74.9126 121.82 81.7378 128.645 90.157 128.645Z" fill="#0062CC"/>
<g clip-path="url(#clip4_3881_4039)" filter="url(#filter5_d_3881_4039)">
<path opacity="0.3" d="M90.9511 107.049H85.3932V119.753H94.921V111.019H90.9511V107.049ZM93.333 118.165H86.9812V116.577H93.333V118.165ZM93.333 113.401V114.989H86.9812V113.401H93.333Z" fill="white"/>
<path d="M86.9811 116.577H93.333V118.165H86.9811V116.577ZM86.9811 113.401H93.333V114.989H86.9811V113.401ZM91.745 105.461H85.3931C84.5198 105.461 83.8052 106.176 83.8052 107.049V119.753C83.8052 120.626 84.5118 121.341 85.3852 121.341H94.9209C95.7943 121.341 96.5089 120.626 96.5089 119.753V110.225L91.745 105.461ZM94.9209 119.753H85.3931V107.049H90.951V111.019H94.9209V119.753Z" fill="white"/>
</g>
<path d="M58.7153 113.401C58.7153 121.82 51.8902 128.645 43.4709 128.645C35.0516 128.645 28.2264 121.82 28.2264 113.401C28.2264 104.981 35.0516 98.1562 43.4709 98.1562C51.8902 98.1562 58.7153 104.981 58.7153 113.401Z" fill="url(#paint6_linear_3881_4039)"/>
<path fill-rule="evenodd" clip-rule="evenodd" d="M61.0973 113.401C61.0973 123.136 53.2057 131.027 43.4709 131.027C33.7361 131.027 25.8445 123.136 25.8445 113.401C25.8445 103.666 33.7361 95.7744 43.4709 95.7744C53.2057 95.7744 61.0973 103.666 61.0973 113.401ZM43.4709 128.645C51.8901 128.645 58.7153 121.82 58.7153 113.401C58.7153 104.982 51.8901 98.1564 43.4709 98.1564C35.0516 98.1564 28.2264 104.982 28.2264 113.401C28.2264 121.82 35.0516 128.645 43.4709 128.645Z" fill="#0062CC"/>
<g clip-path="url(#clip5_3881_4039)" filter="url(#filter6_d_3881_4039)">
<path opacity="0.3" d="M39.0563 111.702L39.5168 107.843H37.9527L37.1508 111.305C37.0714 111.638 37.1428 111.971 37.3493 112.233C37.4604 112.376 37.6986 112.607 38.0956 112.607C38.5799 112.607 38.9928 112.218 39.0563 111.702Z" fill="white"/>
<path opacity="0.3" d="M41.6527 112.607C42.2402 112.607 42.6769 112.138 42.6769 111.567V107.843H41.1207L40.684 111.432C40.6443 111.741 40.7396 112.051 40.946 112.281C41.1286 112.488 41.3827 112.607 41.6527 112.607Z" fill="white"/>
<path opacity="0.3" d="M45.2334 112.607C45.559 112.607 45.8051 112.488 45.9957 112.281C46.1941 112.051 46.2894 111.741 46.2577 111.432L45.821 107.843H44.2648V111.567C44.2648 112.138 44.7015 112.607 45.2334 112.607Z" fill="white"/>
<path opacity="0.3" d="M48.9572 107.835L47.4248 107.843L47.8853 111.702C47.9488 112.218 48.3617 112.607 48.846 112.607C49.2351 112.607 49.4812 112.377 49.5844 112.234C49.7909 111.972 49.8623 111.63 49.7829 111.305L48.9572 107.835Z" fill="white"/>
<path d="M51.3313 110.931L50.4976 107.462C50.3229 106.747 49.7036 106.255 48.9811 106.255H37.9527C37.2381 106.255 36.6108 106.755 36.4441 107.462L35.6104 110.931C35.4199 111.741 35.5945 112.567 36.1027 113.218C36.1662 113.305 36.2535 113.369 36.325 113.448V118.959C36.325 119.832 37.0396 120.547 37.913 120.547H49.0287C49.9021 120.547 50.6167 119.832 50.6167 118.959V113.448C50.6881 113.377 50.7755 113.305 50.839 113.226C51.3471 112.575 51.5297 111.741 51.3313 110.931ZM44.2648 107.843H45.821L46.2498 111.432C46.2895 111.741 46.1942 112.051 45.9878 112.281C45.8131 112.488 45.559 112.607 45.2335 112.607C44.7015 112.607 44.2648 112.138 44.2648 111.567V107.843ZM40.684 111.432L41.1206 107.843H42.6769V111.567C42.6769 112.138 42.2402 112.607 41.6526 112.607C41.3827 112.607 41.1365 112.488 40.946 112.281C40.7475 112.051 40.6522 111.741 40.684 111.432ZM37.3492 112.234C37.1428 111.972 37.0713 111.63 37.1507 111.305L37.9527 107.843H39.5168L39.0563 111.702C38.9928 112.218 38.5799 112.607 38.0956 112.607C37.6986 112.607 37.4604 112.376 37.3492 112.234ZM49.0287 118.959H37.913V114.171C37.9765 114.179 38.0321 114.195 38.0956 114.195C38.7863 114.195 39.4136 113.909 39.8741 113.44C40.3505 113.917 40.9857 114.195 41.7082 114.195C42.399 114.195 43.0183 113.909 43.4788 113.456C43.9472 113.909 44.5824 114.195 45.297 114.195C45.9639 114.195 46.5991 113.917 47.0755 113.44C47.536 113.909 48.1633 114.195 48.854 114.195C48.9175 114.195 48.9731 114.179 49.0366 114.171V118.959H49.0287ZM49.5924 112.234C49.4813 112.376 49.2431 112.607 48.8461 112.607C48.3618 112.607 47.941 112.218 47.8854 111.702L47.4249 107.843L48.9572 107.835L49.7909 111.305C49.8703 111.638 49.7989 111.979 49.5924 112.234Z" fill="white"/>
</g>
<path d="M175.431 70.5257C175.431 78.945 168.605 85.7701 160.186 85.7701C151.767 85.7701 144.942 78.945 144.942 70.5257C144.942 62.1064 151.767 55.2812 160.186 55.2812C168.605 55.2812 175.431 62.1064 175.431 70.5257Z" fill="url(#paint7_linear_3881_4039)"/>
<path fill-rule="evenodd" clip-rule="evenodd" d="M177.813 70.5258C177.813 80.2606 169.921 88.1522 160.186 88.1522C150.451 88.1522 142.56 80.2606 142.56 70.5258C142.56 60.791 150.451 52.8994 160.186 52.8994C169.921 52.8994 177.813 60.791 177.813 70.5258ZM160.186 85.7702C168.605 85.7702 175.431 78.9451 175.431 70.5258C175.431 62.1065 168.605 55.2814 160.186 55.2814C151.767 55.2814 144.942 62.1065 144.942 70.5258C144.942 78.9451 151.767 85.7702 160.186 85.7702Z" fill="#0062CC"/>
<g filter="url(#filter7_d_3881_4039)">
<path d="M160.186 63.3799L152.246 70.5257H154.628V76.8776H159.392V72.1137H160.98V76.8776H165.744V70.5257H168.126L160.186 63.3799ZM164.156 75.2896H162.568V70.5257H157.804V75.2896H156.216V69.0886L160.186 65.5157L164.156 69.0886V75.2896Z" fill="white"/>
<path opacity="0.3" d="M156.216 69.0885V75.2895H157.804V70.5256H162.568V75.2895H164.156V69.0885L160.186 65.5156L156.216 69.0885Z" fill="white"/>
</g>
<path d="M128.745 70.5257C128.745 78.945 121.919 85.7701 113.5 85.7701C105.081 85.7701 98.2556 78.945 98.2556 70.5257C98.2556 62.1064 105.081 55.2812 113.5 55.2812C121.919 55.2812 128.745 62.1064 128.745 70.5257Z" fill="url(#paint8_linear_3881_4039)"/>
<path fill-rule="evenodd" clip-rule="evenodd" d="M131.126 70.5258C131.126 80.2606 123.235 88.1522 113.5 88.1522C103.765 88.1522 95.8737 80.2606 95.8737 70.5258C95.8737 60.791 103.765 52.8994 113.5 52.8994C123.235 52.8994 131.126 60.791 131.126 70.5258ZM113.5 85.7702C121.919 85.7702 128.744 78.9451 128.744 70.5258C128.744 62.1065 121.919 55.2814 113.5 55.2814C105.081 55.2814 98.2556 62.1065 98.2556 70.5258C98.2556 78.9451 105.081 85.7702 113.5 85.7702Z" fill="#0062CC"/>
<g filter="url(#filter8_d_3881_4039)">
<path opacity="0.3" d="M117.867 67.3498C118.232 67.3498 118.589 67.3101 118.931 67.2545C117.819 65.4124 115.803 64.1738 113.5 64.1738C113.135 64.1738 112.778 64.2135 112.436 64.2691C113.548 66.1111 115.564 67.3498 117.867 67.3498ZM110.388 64.9916C109.03 65.7618 107.982 67.0163 107.482 68.5169C108.839 67.7467 109.887 66.4923 110.388 64.9916Z" fill="white"/>
<path d="M113.5 62.5859C109.117 62.5859 105.56 66.143 105.56 70.5258C105.56 74.9085 109.117 78.4656 113.5 78.4656C117.883 78.4656 121.44 74.9085 121.44 70.5258C121.44 66.143 117.883 62.5859 113.5 62.5859ZM113.5 64.1739C115.803 64.1739 117.819 65.4125 118.931 67.2545C118.59 67.3101 118.232 67.3498 117.867 67.3498C115.564 67.3498 113.548 66.1112 112.436 64.2692C112.778 64.2136 113.135 64.1739 113.5 64.1739ZM110.388 64.9917C109.887 66.4923 108.839 67.7468 107.482 68.517C107.982 67.0164 109.03 65.7619 110.388 64.9917ZM113.5 76.8776C109.999 76.8776 107.148 74.0272 107.148 70.5258C107.148 70.4861 107.156 70.4464 107.156 70.4067C109.221 69.6286 110.872 68.0326 111.714 66.0001C113.167 67.7945 115.382 68.9378 117.867 68.9378C118.462 68.9378 119.034 68.8663 119.59 68.7472C119.757 69.311 119.852 69.9064 119.852 70.5258C119.852 74.0272 117.002 76.8776 113.5 76.8776Z" fill="white"/>
<path d="M111.118 72.3121C111.666 72.3121 112.111 71.8678 112.111 71.3196C112.111 70.7715 111.666 70.3271 111.118 70.3271C110.57 70.3271 110.126 70.7715 110.126 71.3196C110.126 71.8678 110.57 72.3121 111.118 72.3121Z" fill="white"/>
<path d="M115.882 72.3121C116.43 72.3121 116.874 71.8678 116.874 71.3196C116.874 70.7715 116.43 70.3271 115.882 70.3271C115.334 70.3271 114.89 70.7715 114.89 71.3196C114.89 71.8678 115.334 72.3121 115.882 72.3121Z" fill="white"/>
</g>
<path d="M82.0583 70.5257C82.0583 78.945 75.2332 85.7701 66.8139 85.7701C58.3946 85.7701 51.5695 78.945 51.5695 70.5257C51.5695 62.1064 58.3946 55.2812 66.8139 55.2812C75.2332 55.2812 82.0583 62.1064 82.0583 70.5257Z" fill="url(#paint9_linear_3881_4039)"/>
<path fill-rule="evenodd" clip-rule="evenodd" d="M84.4403 70.5258C84.4403 80.2606 76.5487 88.1522 66.8139 88.1522C57.0791 88.1522 49.1875 80.2606 49.1875 70.5258C49.1875 60.791 57.0791 52.8994 66.8139 52.8994C76.5487 52.8994 84.4403 60.791 84.4403 70.5258ZM66.8139 85.7702C75.2332 85.7702 82.0583 78.9451 82.0583 70.5258C82.0583 62.1065 75.2332 55.2814 66.8139 55.2814C58.3946 55.2814 51.5694 62.1065 51.5694 70.5258C51.5694 78.9451 58.3946 85.7702 66.8139 85.7702Z" fill="#0062CC"/>
<g clip-path="url(#clip6_3881_4039)" filter="url(#filter9_d_3881_4039)">
<path opacity="0.3" d="M61.256 76.1551H72.3717V64.8965H61.256V76.1551ZM62.05 66.5559H71.5777V68.1439H62.05V66.5559ZM62.05 69.7318H71.5777V71.3198H62.05V69.7318ZM62.05 72.9078H71.5777V74.4957H62.05V72.9078Z" fill="white"/>
<path d="M72.7688 63.7769L71.5778 62.5859L70.3868 63.7769L69.1959 62.5859L68.0049 63.7769L66.8139 62.5859L65.623 63.7769L64.432 62.5859L63.241 63.7769L62.05 62.5859L60.8591 63.7769L59.6681 62.5859V78.4656L60.8591 77.2746L62.05 78.4656L63.241 77.2746L64.432 78.4656L65.623 77.2746L66.8139 78.4656L68.0049 77.2746L69.1959 78.4656L70.3868 77.2746L71.5778 78.4656L72.7688 77.2746L73.9598 78.4656V62.5859L72.7688 63.7769ZM72.3718 76.1551H61.2561V64.8964H72.3718V76.1551ZM62.05 72.9077H71.5778V74.4957H62.05V72.9077ZM62.05 69.7318H71.5778V71.3197H62.05V69.7318ZM62.05 66.5558H71.5778V68.1438H62.05V66.5558Z" fill="white"/>
</g>
<defs>
<filter id="filter0_d_3881_4039" x="120.658" y="119.748" width="79.0555" height="79.0557" filterUnits="userSpaceOnUse" color-interpolation-filters="sRGB">
<feFlood flood-opacity="0" result="BackgroundImageFix"/>
<feColorMatrix in="SourceAlpha" type="matrix" values="0 0 0 0 0 0 0 0 0 0 0 0 0 0 0 0 0 0 127 0" result="hardAlpha"/>
<feOffset dy="3"/>
<feGaussianBlur stdDeviation="15"/>
<feColorMatrix type="matrix" values="0 0 0 0 0 0 0 0 0 0 0 0 0 0 0 0 0 0 0.4 0"/>
<feBlend mode="normal" in2="BackgroundImageFix" result="effect1_dropShadow_3881_4039"/>
<feBlend mode="normal" in="SourceGraphic" in2="effect1_dropShadow_3881_4039" result="shape"/>
</filter>
<filter id="filter1_d_3881_4039" x="73.9723" y="120.701" width="77.15" height="77.1499" filterUnits="userSpaceOnUse" color-interpolation-filters="sRGB">
<feFlood flood-opacity="0" result="BackgroundImageFix"/>
<feColorMatrix in="SourceAlpha" type="matrix" values="0 0 0 0 0 0 0 0 0 0 0 0 0 0 0 0 0 0 127 0" result="hardAlpha"/>
<feOffset dy="3"/>
<feGaussianBlur stdDeviation="15"/>
<feColorMatrix type="matrix" values="0 0 0 0 0 0 0 0 0 0 0 0 0 0 0 0 0 0 0.4 0"/>
<feBlend mode="normal" in2="BackgroundImageFix" result="effect1_dropShadow_3881_4039"/>
<feBlend mode="normal" in="SourceGraphic" in2="effect1_dropShadow_3881_4039" result="shape"/>
</filter>
<filter id="filter2_d_3881_4039" x="27.2861" y="119.748" width="79.0555" height="79.0557" filterUnits="userSpaceOnUse" color-interpolation-filters="sRGB">
<feFlood flood-opacity="0" result="BackgroundImageFix"/>
<feColorMatrix in="SourceAlpha" type="matrix" values="0 0 0 0 0 0 0 0 0 0 0 0 0 0 0 0 0 0 127 0" result="hardAlpha"/>
<feOffset dy="3"/>
<feGaussianBlur stdDeviation="15"/>
<feColorMatrix type="matrix" values="0 0 0 0 0 0 0 0 0 0 0 0 0 0 0 0 0 0 0.4 0"/>
<feBlend mode="normal" in2="BackgroundImageFix" result="effect1_dropShadow_3881_4039"/>
<feBlend mode="normal" in="SourceGraphic" in2="effect1_dropShadow_3881_4039" result="shape"/>
</filter>
<filter id="filter3_d_3881_4039" x="144.001" y="76.873" width="79.0555" height="79.0557" filterUnits="userSpaceOnUse" color-interpolation-filters="sRGB">
<feFlood flood-opacity="0" result="BackgroundImageFix"/>
<feColorMatrix in="SourceAlpha" type="matrix" values="0 0 0 0 0 0 0 0 0 0 0 0 0 0 0 0 0 0 127 0" result="hardAlpha"/>
<feOffset dy="3"/>
<feGaussianBlur stdDeviation="15"/>
<feColorMatrix type="matrix" values="0 0 0 0 0 0 0 0 0 0 0 0 0 0 0 0 0 0 0.4 0"/>
<feBlend mode="normal" in2="BackgroundImageFix" result="effect1_dropShadow_3881_4039"/>
<feBlend mode="normal" in="SourceGraphic" in2="effect1_dropShadow_3881_4039" result="shape"/>
</filter>
<filter id="filter4_d_3881_4039" x="97.3153" y="76.873" width="79.0555" height="79.0557" filterUnits="userSpaceOnUse" color-interpolation-filters="sRGB">
<feFlood flood-opacity="0" result="BackgroundImageFix"/>
<feColorMatrix in="SourceAlpha" type="matrix" values="0 0 0 0 0 0 0 0 0 0 0 0 0 0 0 0 0 0 127 0" result="hardAlpha"/>
<feOffset dy="3"/>
<feGaussianBlur stdDeviation="15"/>
<feColorMatrix type="matrix" values="0 0 0 0 0 0 0 0 0 0 0 0 0 0 0 0 0 0 0.4 0"/>
<feBlend mode="normal" in2="BackgroundImageFix" result="effect1_dropShadow_3881_4039"/>
<feBlend mode="normal" in="SourceGraphic" in2="effect1_dropShadow_3881_4039" result="shape"/>
</filter>
<filter id="filter5_d_3881_4039" x="50.6293" y="76.873" width="79.0555" height="79.0557" filterUnits="userSpaceOnUse" color-interpolation-filters="sRGB">
<feFlood flood-opacity="0" result="BackgroundImageFix"/>
<feColorMatrix in="SourceAlpha" type="matrix" values="0 0 0 0 0 0 0 0 0 0 0 0 0 0 0 0 0 0 127 0" result="hardAlpha"/>
<feOffset dy="3"/>
<feGaussianBlur stdDeviation="15"/>
<feColorMatrix type="matrix" values="0 0 0 0 0 0 0 0 0 0 0 0 0 0 0 0 0 0 0.4 0"/>
<feBlend mode="normal" in2="BackgroundImageFix" result="effect1_dropShadow_3881_4039"/>
<feBlend mode="normal" in="SourceGraphic" in2="effect1_dropShadow_3881_4039" result="shape"/>
</filter>
<filter id="filter6_d_3881_4039" x="3.94312" y="76.873" width="79.0555" height="79.0557" filterUnits="userSpaceOnUse" color-interpolation-filters="sRGB">
<feFlood flood-opacity="0" result="BackgroundImageFix"/>
<feColorMatrix in="SourceAlpha" type="matrix" values="0 0 0 0 0 0 0 0 0 0 0 0 0 0 0 0 0 0 127 0" result="hardAlpha"/>
<feOffset dy="3"/>
<feGaussianBlur stdDeviation="15"/>
<feColorMatrix type="matrix" values="0 0 0 0 0 0 0 0 0 0 0 0 0 0 0 0 0 0 0.4 0"/>
<feBlend mode="normal" in2="BackgroundImageFix" result="effect1_dropShadow_3881_4039"/>
<feBlend mode="normal" in="SourceGraphic" in2="effect1_dropShadow_3881_4039" result="shape"/>
</filter>
<filter id="filter7_d_3881_4039" x="120.658" y="33.998" width="79.0555" height="79.0557" filterUnits="userSpaceOnUse" color-interpolation-filters="sRGB">
<feFlood flood-opacity="0" result="BackgroundImageFix"/>
<feColorMatrix in="SourceAlpha" type="matrix" values="0 0 0 0 0 0 0 0 0 0 0 0 0 0 0 0 0 0 127 0" result="hardAlpha"/>
<feOffset dy="3"/>
<feGaussianBlur stdDeviation="15"/>
<feColorMatrix type="matrix" values="0 0 0 0 0 0 0 0 0 0 0 0 0 0 0 0 0 0 0.4 0"/>
<feBlend mode="normal" in2="BackgroundImageFix" result="effect1_dropShadow_3881_4039"/>
<feBlend mode="normal" in="SourceGraphic" in2="effect1_dropShadow_3881_4039" result="shape"/>
</filter>
<filter id="filter8_d_3881_4039" x="73.9723" y="33.998" width="79.0555" height="79.0557" filterUnits="userSpaceOnUse" color-interpolation-filters="sRGB">
<feFlood flood-opacity="0" result="BackgroundImageFix"/>
<feColorMatrix in="SourceAlpha" type="matrix" values="0 0 0 0 0 0 0 0 0 0 0 0 0 0 0 0 0 0 127 0" result="hardAlpha"/>
<feOffset dy="3"/>
<feGaussianBlur stdDeviation="15"/>
<feColorMatrix type="matrix" values="0 0 0 0 0 0 0 0 0 0 0 0 0 0 0 0 0 0 0.4 0"/>
<feBlend mode="normal" in2="BackgroundImageFix" result="effect1_dropShadow_3881_4039"/>
<feBlend mode="normal" in="SourceGraphic" in2="effect1_dropShadow_3881_4039" result="shape"/>
</filter>
<filter id="filter9_d_3881_4039" x="27.2861" y="33.998" width="79.0555" height="79.0557" filterUnits="userSpaceOnUse" color-interpolation-filters="sRGB">
<feFlood flood-opacity="0" result="BackgroundImageFix"/>
<feColorMatrix in="SourceAlpha" type="matrix" values="0 0 0 0 0 0 0 0 0 0 0 0 0 0 0 0 0 0 127 0" result="hardAlpha"/>
<feOffset dy="3"/>
<feGaussianBlur stdDeviation="15"/>
<feColorMatrix type="matrix" values="0 0 0 0 0 0 0 0 0 0 0 0 0 0 0 0 0 0 0.4 0"/>
<feBlend mode="normal" in2="BackgroundImageFix" result="effect1_dropShadow_3881_4039"/>
<feBlend mode="normal" in="SourceGraphic" in2="effect1_dropShadow_3881_4039" result="shape"/>
</filter>
<linearGradient id="paint0_linear_3881_4039" x1="144.942" y1="171.52" x2="175.431" y2="171.52" gradientUnits="userSpaceOnUse">
<stop stop-color="#4DA3FF"/>
<stop offset="1" stop-color="#007BFF"/>
</linearGradient>
<linearGradient id="paint1_linear_3881_4039" x1="98.2556" y1="171.52" x2="128.745" y2="171.52" gradientUnits="userSpaceOnUse">
<stop stop-color="#4DA3FF"/>
<stop offset="1" stop-color="#007BFF"/>
</linearGradient>
<linearGradient id="paint2_linear_3881_4039" x1="51.5695" y1="171.52" x2="82.0583" y2="171.52" gradientUnits="userSpaceOnUse">
<stop stop-color="#4DA3FF"/>
<stop offset="1" stop-color="#007BFF"/>
</linearGradient>
<linearGradient id="paint3_linear_3881_4039" x1="168.285" y1="128.645" x2="198.774" y2="128.645" gradientUnits="userSpaceOnUse">
<stop stop-color="#4DA3FF"/>
<stop offset="1" stop-color="#007BFF"/>
</linearGradient>
<linearGradient id="paint4_linear_3881_4039" x1="121.599" y1="128.645" x2="152.088" y2="128.645" gradientUnits="userSpaceOnUse">
<stop stop-color="#4DA3FF"/>
<stop offset="1" stop-color="#007BFF"/>
</linearGradient>
<linearGradient id="paint5_linear_3881_4039" x1="74.9126" y1="128.645" x2="105.401" y2="128.645" gradientUnits="userSpaceOnUse">
<stop stop-color="#4DA3FF"/>
<stop offset="1" stop-color="#007BFF"/>
</linearGradient>
<linearGradient id="paint6_linear_3881_4039" x1="28.2264" y1="128.645" x2="58.7153" y2="128.645" gradientUnits="userSpaceOnUse">
<stop stop-color="#4DA3FF"/>
<stop offset="1" stop-color="#007BFF"/>
</linearGradient>
<linearGradient id="paint7_linear_3881_4039" x1="144.942" y1="85.7703" x2="175.431" y2="85.7703" gradientUnits="userSpaceOnUse">
<stop stop-color="#4DA3FF"/>
<stop offset="1" stop-color="#007BFF"/>
</linearGradient>
<linearGradient id="paint8_linear_3881_4039" x1="98.2556" y1="85.7703" x2="128.745" y2="85.7703" gradientUnits="userSpaceOnUse">
<stop stop-color="#4DA3FF"/>
<stop offset="1" stop-color="#007BFF"/>
</linearGradient>
<linearGradient id="paint9_linear_3881_4039" x1="51.5695" y1="85.7703" x2="82.0583" y2="85.7703" gradientUnits="userSpaceOnUse">
<stop stop-color="#4DA3FF"/>
<stop offset="1" stop-color="#007BFF"/>
</linearGradient>
<clipPath id="clip0_3881_4039">
<rect width="17.15" height="17.15" fill="white" transform="translate(103.972 147.701)"/>
</clipPath>
<clipPath id="clip1_3881_4039">
<rect width="19.0555" height="19.0555" fill="white" transform="translate(57.2861 146.748)"/>
</clipPath>
<clipPath id="clip2_3881_4039">
<rect width="19.0556" height="19.0555" fill="white" transform="translate(174.001 103.873)"/>
</clipPath>
<clipPath id="clip3_3881_4039">
<rect width="19.0556" height="19.0555" fill="white" transform="translate(127.315 103.873)"/>
</clipPath>
<clipPath id="clip4_3881_4039">
<rect width="19.0556" height="19.0555" fill="white" transform="translate(80.6293 103.873)"/>
</clipPath>
<clipPath id="clip5_3881_4039">
<rect width="19.0556" height="19.0555" fill="white" transform="translate(33.9431 103.873)"/>
</clipPath>
<clipPath id="clip6_3881_4039">
<rect width="19.0555" height="19.0555" fill="white" transform="translate(57.2861 60.998)"/>
</clipPath>
</defs>
</svg>
