<svg width="319" height="329" viewBox="0 0 319 329" fill="none" xmlns="http://www.w3.org/2000/svg">
<g opacity="0.4">
<path d="M15.2286 263.118L14.034 263.47V258.098L12.6075 259.031L12.607 257.909L15.1009 256.133L15.2294 256.096L15.2286 263.118ZM15.2286 250.197L14.034 250.55V245.178L12.6075 246.11L12.607 244.988L15.1009 243.213L15.2294 243.175L15.2286 250.197ZM15.9524 272.921C15.9531 273.891 15.7808 274.683 15.4357 275.298C15.0917 275.915 14.5871 276.321 13.9218 276.515C13.2689 276.71 12.7446 276.601 12.4178 276.203C12.0556 275.746 11.8728 275.059 11.8835 274.193V272.902C11.8838 271.922 12.0582 271.128 12.4064 270.518C12.7559 269.907 13.2586 269.505 13.9146 269.312C14.5673 269.118 15.0917 269.226 15.4196 269.623C15.7821 270.078 15.9645 270.764 15.9529 271.629L15.9524 272.921ZM14.758 271.854C14.7752 271.366 14.7054 270.956 14.5523 270.643C14.4338 270.424 14.2083 270.351 13.9141 270.434C13.6329 270.517 13.4261 270.705 13.2916 270.996C13.159 271.289 13.0874 271.704 13.0786 272.243L13.0794 273.95C13.0642 274.435 13.132 274.847 13.2797 275.166C13.3944 275.397 13.6221 275.478 13.9223 275.393C14.2146 275.307 14.4253 275.112 14.5551 274.808C14.6847 274.501 14.7529 274.074 14.7573 273.522L14.758 271.854Z" fill="#FF6F00"/>
<path d="M25.2867 218.157L24.0921 218.509V213.137L22.6656 214.07L22.6651 212.948L25.1587 211.172L25.2875 211.135L25.2867 218.157ZM26.0105 202.119C26.0112 203.089 25.8389 203.881 25.4938 204.496C25.1496 205.113 24.6451 205.519 23.9799 205.713C23.327 205.908 22.8026 205.799 22.4759 205.401C22.1137 204.944 21.9309 204.257 21.9416 203.391V202.1C21.9418 201.121 22.1161 200.326 22.4645 199.716C22.814 199.105 23.3167 198.703 23.9727 198.511C24.6253 198.317 25.1498 198.425 25.4777 198.821C25.8402 199.276 26.0226 199.962 26.011 200.828L26.0105 202.119ZM24.8159 201.052C24.8331 200.565 24.7635 200.154 24.6104 199.841C24.4918 199.623 24.2664 199.549 23.9722 199.633C23.691 199.716 23.4842 199.903 23.3497 200.195C23.2171 200.487 23.1455 200.902 23.1367 201.441L23.1375 203.148C23.1223 203.634 23.1902 204.045 23.3378 204.364C23.4525 204.596 23.6802 204.676 23.9805 204.591C24.2728 204.505 24.4832 204.31 24.613 204.006C24.7426 203.7 24.811 203.272 24.8154 202.72L24.8159 201.052Z" fill="#FF6F00"/>
<path d="M59.7971 95.3334L58.6025 95.6861V90.3141L57.176 91.2467L57.1755 90.1248L59.6693 88.3489L59.7979 88.3114L59.7971 95.3334ZM60.5208 79.2956C60.5215 80.2658 60.3493 81.0582 60.0041 81.673C59.6602 82.2899 59.1556 82.6955 58.4903 82.8898C57.8373 83.0846 57.313 82.976 56.9863 82.5783C56.624 82.1212 56.4413 81.4336 56.452 80.5675V79.2769C56.4523 78.2971 56.6266 77.5025 56.9749 76.8932C57.3244 76.2821 57.8271 75.8801 58.483 75.6872C59.1357 75.4933 59.6602 75.6014 59.9881 75.9975C60.3506 76.4526 60.533 77.1392 60.5214 78.0045L60.5208 79.2956ZM59.3265 78.2291C59.3436 77.7414 59.2739 77.3309 59.1208 77.0183C59.0022 76.7995 58.7768 76.7258 58.4825 76.8096C58.2014 76.8924 57.9946 77.0796 57.8601 77.3714C57.7274 77.6635 57.6559 78.0786 57.6471 78.6184L57.6479 80.3248C57.6327 80.8104 57.7005 81.2222 57.8482 81.5411C57.9629 81.7725 58.1906 81.853 58.4908 81.7681C58.7831 81.6824 58.9938 81.4866 59.1236 81.1826C59.2532 80.8763 59.3213 80.4492 59.3258 79.8971L59.3265 78.2291ZM60.5208 118.057C60.5215 119.027 60.3493 119.82 60.0041 120.435C59.6602 121.051 59.1556 121.457 58.4903 121.651C57.8373 121.846 57.313 121.737 56.9863 121.34C56.6241 120.883 56.4413 120.195 56.452 119.329V118.038C56.4523 117.059 56.6266 116.264 56.9749 115.654C57.3244 115.043 57.8271 114.641 58.483 114.449C59.1357 114.255 59.6602 114.363 59.9881 114.759C60.3505 115.214 60.5329 115.901 60.5214 116.766L60.5208 118.057ZM59.3265 116.99C59.3436 116.503 59.2739 116.092 59.1208 115.78C59.0022 115.561 58.7768 115.487 58.4825 115.571C58.2014 115.654 57.9946 115.841 57.8601 116.133C57.7274 116.425 57.6559 116.84 57.6471 117.38L57.6479 119.086C57.6327 119.572 57.7005 119.984 57.8482 120.303C57.9629 120.534 58.1906 120.614 58.4908 120.529C58.7831 120.444 58.9938 120.248 59.1236 119.944C59.2532 119.638 59.3213 119.21 59.3258 118.658L59.3265 116.99ZM60.5208 105.137C60.5215 106.107 60.3493 106.899 60.0041 107.514C59.6602 108.131 59.1556 108.536 58.4903 108.731C57.8374 108.925 57.3131 108.817 56.9863 108.419C56.624 107.962 56.4413 107.275 56.452 106.408V105.118C56.4523 104.138 56.6266 103.343 56.9749 102.734C57.3244 102.123 57.8271 101.721 58.483 101.528C59.1357 101.334 59.6602 101.442 59.9881 101.838C60.3506 102.294 60.533 102.98 60.5214 103.845L60.5208 105.137ZM59.3265 104.07C59.3437 103.582 59.2739 103.172 59.1208 102.859C59.0023 102.64 58.7768 102.566 58.4825 102.65C58.2014 102.733 57.9946 102.92 57.8601 103.212C57.7274 103.504 57.6559 103.92 57.6471 104.459L57.6479 106.166C57.6327 106.651 57.7005 107.063 57.8482 107.382C57.9629 107.613 58.1906 107.694 58.4908 107.609C58.7831 107.523 58.9938 107.327 59.1236 107.024C59.2532 106.717 59.3213 106.29 59.3258 105.738L59.3265 104.07ZM37.8457 306.355L36.6511 306.708V301.335L35.2249 302.268L35.2244 301.146L37.7182 299.37L37.8468 299.333L37.8457 306.355ZM38.5697 290.317C38.5704 291.287 38.3982 292.08 38.053 292.694C37.7089 293.311 37.2043 293.717 36.5392 293.911C35.8862 294.106 35.3619 293.997 35.0352 293.6C34.6729 293.142 34.4902 292.455 34.5008 291.589V290.298C34.501 289.319 34.6753 288.524 35.0238 287.914C35.3731 287.304 35.8758 286.902 36.5319 286.708C37.1846 286.515 37.7091 286.623 38.037 287.019C38.3994 287.474 38.5818 288.16 38.5702 289.026L38.5697 290.317ZM37.3751 289.251C37.3924 288.763 37.3227 288.352 37.1696 288.039C37.0511 287.821 36.8256 287.747 36.5314 287.831C36.2502 287.914 36.0435 288.101 35.909 288.393C35.776 288.685 35.7048 289.1 35.696 289.64L35.6968 291.346C35.6816 291.832 35.7494 292.243 35.897 292.562C36.0117 292.794 36.2394 292.874 36.5397 292.789C36.832 292.703 37.0424 292.508 37.1722 292.204C37.3018 291.898 37.3702 291.47 37.3746 290.918L37.3751 289.251ZM70.8882 130.824L69.6936 131.177L69.6938 125.805L68.2676 126.737L68.2668 125.616L70.7606 123.84L70.8892 123.802L70.8882 130.824ZM70.8882 79.1427L69.6936 79.4951L69.6938 74.1229L68.2676 75.0553L68.2668 73.9337L70.7606 72.158L70.8892 72.1202L70.8882 79.1427ZM48.7055 85.6839L47.511 86.0365V80.6643L46.0847 81.5967L46.0842 80.4751L48.578 78.6991L48.7066 78.6616L48.7055 85.6839ZM48.7055 72.7633L47.511 73.1159V67.7439L46.0847 68.6763L46.0842 67.5545L48.578 65.7785L48.7066 65.741L48.7055 72.7633ZM71.6122 63.1047C71.613 64.0747 71.4408 64.8672 71.0954 65.4821C70.7515 66.0988 70.247 66.5043 69.5819 66.6987C68.9288 66.8934 68.4044 66.7848 68.0776 66.3872C67.7154 65.9301 67.5327 65.2425 67.5433 64.3766V63.086C67.5436 62.1062 67.718 61.3116 68.0662 60.7023C68.4157 60.091 68.9185 59.6889 69.5746 59.496C70.2272 59.3022 70.7516 59.4104 71.0794 59.8066C71.4418 60.2617 71.6243 60.9481 71.6127 61.8133L71.6122 63.1047ZM70.4178 62.0379C70.435 61.5503 70.3652 61.1397 70.2121 60.8271C70.0935 60.6084 69.868 60.5347 69.5738 60.6185C69.2927 60.7015 69.0862 60.8885 68.9517 61.1803C68.8187 61.4726 68.7472 61.8877 68.7384 62.4272L68.7392 64.1339C68.724 64.6195 68.7918 65.0314 68.9395 65.3502C69.0542 65.5815 69.2819 65.6619 69.5821 65.577C69.8744 65.4912 70.0851 65.2957 70.2149 64.9917C70.3445 64.6851 70.4127 64.2583 70.4171 63.7059L70.4178 62.0379ZM36.3768 206.964L35.1822 207.317V201.945L33.7557 202.877L33.7552 201.756L36.2491 199.98L36.3776 199.942L36.3768 206.964ZM36.3768 194.044L35.1822 194.397V189.025L33.7557 189.957L33.7552 188.835L36.2491 187.06L36.3776 187.022L36.3768 194.044ZM37.1006 178.006C37.1014 178.976 36.9292 179.769 36.5839 180.384C36.2399 181 35.7354 181.406 35.0703 181.6C34.4172 181.795 33.8928 181.686 33.566 181.289C33.2038 180.832 33.021 180.144 33.0317 179.278V177.988C33.032 177.008 33.2064 176.213 33.5546 175.604C33.9041 174.993 34.4068 174.591 35.0628 174.398C35.7154 174.204 36.2399 174.312 36.5678 174.708C36.9302 175.163 37.1127 175.85 37.1011 176.715L37.1006 178.006ZM35.9062 176.94C35.9234 176.452 35.8537 176.041 35.7005 175.729C35.582 175.51 35.3565 175.436 35.0623 175.52C34.7811 175.603 34.5743 175.79 34.4401 176.082C34.3071 176.374 34.2354 176.79 34.2268 177.329L34.2276 179.036C34.2124 179.521 34.2802 179.933 34.4279 180.252C34.5426 180.483 34.7703 180.564 35.0705 180.479C35.3628 180.393 35.5733 180.198 35.7031 179.894C35.8327 179.587 35.9011 179.16 35.9055 178.608L35.9062 176.94ZM37.1006 216.768C37.1014 217.738 36.9292 218.53 36.5839 219.145C36.2399 219.762 35.7354 220.167 35.0703 220.362C34.4172 220.556 33.8928 220.448 33.566 220.05C33.2037 219.593 33.021 218.906 33.0317 218.039V216.749C33.032 215.769 33.2064 214.975 33.5546 214.365C33.9041 213.754 34.4068 213.352 35.0628 213.159C35.7154 212.965 36.2399 213.073 36.5678 213.469C36.9302 213.925 37.1126 214.611 37.1011 215.476L37.1006 216.768ZM35.9062 215.701C35.9234 215.213 35.8537 214.803 35.7005 214.49C35.582 214.271 35.3565 214.198 35.0623 214.281C34.7811 214.364 34.5743 214.552 34.4401 214.843C34.3071 215.135 34.2354 215.551 34.2268 216.09L34.2276 217.797C34.2124 218.282 34.2802 218.694 34.4279 219.013C34.5426 219.244 34.7703 219.325 35.0705 219.24C35.3628 219.154 35.5733 218.959 35.7031 218.655C35.8327 218.348 35.9011 217.921 35.9055 217.369L35.9062 215.701Z" fill="#654023"/>
<path d="M37.8532 269.152L36.6586 269.505V264.133L35.2323 265.065L35.2318 263.944L37.7257 262.168L37.8542 262.13L37.8532 269.152ZM37.8532 256.232L36.6586 256.584V251.212L35.2323 252.145L35.2318 251.023L37.7257 249.247L37.8542 249.21L37.8532 256.232Z" fill="#FF6F00"/>
<path d="M14.1923 192.881L12.9977 193.234V187.861L11.5715 188.794L11.5707 187.672L14.0645 185.896L14.1933 185.859L14.1923 192.881Z" fill="#654023"/>
<path d="M3.10195 211.777L1.90736 212.129L1.90788 206.757L0.481366 207.689L0.480591 206.568L2.97445 204.792L3.10325 204.754L3.10195 211.777ZM81.4657 255.365C81.4663 256.336 81.2941 257.128 80.9489 257.743C80.6048 258.36 80.1002 258.765 79.4351 258.96C78.7821 259.154 78.2578 259.046 77.9311 258.648C77.5689 258.191 77.3861 257.503 77.3968 256.637V255.347C77.3969 254.367 77.5713 253.573 77.9197 252.963C78.269 252.352 78.7717 251.95 79.4278 251.757C80.0805 251.563 80.605 251.671 80.9329 252.067C81.2953 252.522 81.4777 253.209 81.4662 254.074L81.4657 255.365ZM80.2711 254.299C80.2884 253.811 80.2187 253.401 80.0656 253.088C79.9471 252.869 79.7216 252.795 79.4273 252.879C79.1462 252.962 78.9394 253.149 78.8049 253.441C78.672 253.734 78.6007 254.148 78.5919 254.688L78.5927 256.395C78.5775 256.88 78.6453 257.292 78.793 257.611C78.9077 257.842 79.1354 257.923 79.4356 257.838C79.7279 257.752 79.9384 257.557 80.0682 257.253C80.1977 256.946 80.2662 256.519 80.2706 255.967L80.2711 254.299Z" fill="#FF6F00"/>
<path d="M25.2726 303.625L24.078 303.977L24.0782 298.605L22.652 299.538L22.6512 298.416L25.1451 296.64L25.2736 296.602L25.2726 303.625ZM25.9966 287.587C25.9974 288.557 25.8252 289.349 25.4799 289.964C25.1359 290.581 24.6314 290.987 23.9663 291.181C23.3133 291.376 22.7889 291.267 22.462 290.87C22.0998 290.413 21.9171 289.725 21.9277 288.859V287.568C21.928 286.588 22.1024 285.794 22.4506 285.185C22.8001 284.573 23.3029 284.171 23.959 283.978C24.6116 283.784 25.136 283.893 25.4638 284.289C25.8262 284.744 26.0087 285.43 25.9971 286.296L25.9966 287.587ZM24.8022 286.52C24.8194 286.033 24.7496 285.622 24.5965 285.309C24.4779 285.091 24.2525 285.017 23.9582 285.101C23.6771 285.184 23.4706 285.371 23.3361 285.663C23.2031 285.955 23.1316 286.37 23.1228 286.91L23.1236 288.616C23.1084 289.102 23.1762 289.514 23.3239 289.832C23.4386 290.064 23.6663 290.144 23.9665 290.059C24.2588 289.973 24.4695 289.778 24.5994 289.474C24.7289 289.167 24.7971 288.741 24.8015 288.188L24.8022 286.52ZM25.2726 251.943L24.078 252.296L24.0782 246.923L22.652 247.856L22.6512 246.734L25.1451 244.958L25.2736 244.921L25.2726 251.943ZM25.9966 235.905C25.9974 236.875 25.8252 237.668 25.4799 238.283C25.1359 238.899 24.6314 239.305 23.9663 239.499C23.3132 239.694 22.7888 239.586 22.462 239.188C22.0998 238.731 21.9171 238.043 21.9277 237.177V235.886C21.928 234.907 22.1024 234.112 22.4506 233.503C22.8001 232.892 23.3029 232.49 23.959 232.297C24.6116 232.103 25.1359 232.211 25.4638 232.607C25.8262 233.062 26.0087 233.749 25.9971 234.614L25.9966 235.905ZM24.8022 234.839C24.8194 234.351 24.7497 233.94 24.5965 233.628C24.4779 233.409 24.2525 233.335 23.9582 233.419C23.6771 233.502 23.4706 233.689 23.3361 233.981C23.2031 234.273 23.1316 234.688 23.1228 235.228L23.1236 236.934C23.1084 237.42 23.1762 237.832 23.3239 238.151C23.4385 238.382 23.6663 238.463 23.9665 238.378C24.2588 238.292 24.4695 238.096 24.5994 237.792C24.7289 237.486 24.7971 237.059 24.8015 236.507L24.8022 234.839ZM25.9966 274.666C25.9974 275.636 25.8252 276.429 25.4799 277.044C25.1359 277.661 24.6314 278.066 23.9663 278.261C23.3132 278.455 22.7888 278.347 22.462 277.949C22.0998 277.492 21.917 276.804 21.9277 275.938V274.648C21.928 273.668 22.1024 272.873 22.4506 272.264C22.8001 271.653 23.3029 271.251 23.959 271.058C24.6116 270.864 25.1359 270.972 25.4638 271.368C25.8263 271.823 26.0087 272.51 25.9971 273.375L25.9966 274.666ZM24.8022 273.6C24.8194 273.112 24.7497 272.701 24.5965 272.389C24.4779 272.17 24.2525 272.096 23.9582 272.18C23.6771 272.263 23.4706 272.45 23.3361 272.742C23.2031 273.034 23.1316 273.45 23.1228 273.989L23.1236 275.696C23.1084 276.181 23.1762 276.593 23.3239 276.912C23.4386 277.143 23.6663 277.224 23.9665 277.139C24.2588 277.053 24.4695 276.857 24.5994 276.553C24.7289 276.247 24.7971 275.82 24.8015 275.268L24.8022 273.6ZM25.9966 261.746C25.9974 262.716 25.8252 263.509 25.4799 264.124C25.1359 264.74 24.6314 265.146 23.9663 265.34C23.3132 265.535 22.7888 265.426 22.462 265.029C22.0998 264.572 21.917 263.884 21.9277 263.018V261.727C21.928 260.748 22.1024 259.953 22.4506 259.344C22.8001 258.733 23.3029 258.33 23.959 258.137C24.6116 257.944 25.136 258.052 25.4638 258.448C25.8262 258.903 26.0086 259.589 25.9971 260.455L25.9966 261.746ZM24.8022 260.679C24.8194 260.192 24.7497 259.781 24.5965 259.468C24.4779 259.25 24.2525 259.176 23.9582 259.26C23.6771 259.343 23.4706 259.53 23.3361 259.822C23.2031 260.114 23.1316 260.529 23.1228 261.069L23.1236 262.775C23.1084 263.261 23.1762 263.673 23.3239 263.992C23.4386 264.223 23.6663 264.303 23.9665 264.218C24.2588 264.133 24.4695 263.937 24.5994 263.633C24.7289 263.327 24.7971 262.9 24.8015 262.347L24.8022 260.679ZM4.09897 286.008L2.90438 286.361V280.988L1.47813 281.921L1.47734 280.799L3.97122 279.024L4.10001 278.986L4.09897 286.008ZM4.09897 260.167L2.90438 260.52V255.148L1.47813 256.08L1.47734 254.959L3.97122 253.183L4.10001 253.145L4.09897 260.167ZM4.09897 247.247L2.90438 247.599V242.227L1.47813 243.16L1.47734 242.038L3.97122 240.262L4.10001 240.224L4.09897 247.247ZM4.82298 231.209C4.82367 232.179 4.65135 232.972 4.30602 233.587C3.96206 234.203 3.45754 234.609 2.79243 234.803C2.13944 234.998 1.61514 234.889 1.28844 234.491C0.926106 234.035 0.743299 233.347 0.753853 232.481L0.754122 231.19C0.754295 230.211 0.928508 229.416 1.27678 228.807C1.62626 228.196 2.12906 227.793 2.78518 227.601C3.43775 227.407 3.96211 227.515 4.28995 227.911C4.65241 228.366 4.83483 229.053 4.82325 229.918L4.82298 231.209ZM3.62839 230.142C3.64554 229.655 3.57578 229.244 3.42264 228.932C3.3042 228.713 3.07882 228.639 2.78467 228.723C2.50351 228.806 2.29672 228.993 2.16223 229.285C2.02929 229.577 1.95803 229.992 1.94896 230.532L1.94974 232.238C1.93467 232.724 2.00259 233.136 2.15032 233.455C2.26502 233.686 2.49274 233.766 2.79296 233.681C3.08526 233.596 3.29567 233.4 3.42524 233.096C3.5548 232.79 3.62321 232.363 3.62787 231.81L3.62839 230.142ZM4.82298 269.97C4.82367 270.94 4.65135 271.733 4.30602 272.348C3.96206 272.965 3.45754 273.37 2.79243 273.564C2.13946 273.759 1.61516 273.651 1.28844 273.253C0.926077 272.796 0.743268 272.108 0.753853 271.242L0.754122 269.952C0.754295 268.972 0.928508 268.177 1.27678 267.568C1.62626 266.957 2.12906 266.555 2.78518 266.362C3.43776 266.168 3.96213 266.276 4.28995 266.672C4.65241 267.127 4.83483 267.814 4.82325 268.679L4.82298 269.97ZM3.62839 268.904C3.64553 268.416 3.57577 268.006 3.42264 267.693C3.30416 267.474 3.07879 267.4 2.78467 267.484C2.50351 267.567 2.29672 267.754 2.16223 268.046C2.02929 268.338 1.95803 268.753 1.94896 269.293L1.94974 271C1.93467 271.485 2.00259 271.897 2.15032 272.216C2.26498 272.447 2.49271 272.528 2.79296 272.443C3.08526 272.357 3.29567 272.161 3.42524 271.858C3.5548 271.551 3.62321 271.124 3.62787 270.572L3.62839 268.904Z" fill="#654023"/>
<path d="M26.5022 21.2997C26.5029 22.2698 26.3306 23.0625 25.9852 23.6776C25.6413 24.2943 25.1367 24.6998 24.4716 24.8941C23.8187 25.0888 23.2944 24.9801 22.9676 24.5824C22.6053 24.1254 22.4225 23.4378 22.4331 22.5718L22.4333 21.2812C22.4335 20.3015 22.6077 19.5071 22.956 18.8978C23.3055 18.2865 23.8083 17.8844 24.4644 17.6915C25.1169 17.4978 25.6413 17.606 25.9692 18.0021C26.3316 18.4571 26.514 19.1435 26.5025 20.0088L26.5022 21.2997ZM25.3076 20.2334C25.3247 19.7458 25.2549 19.3352 25.1019 19.0226C24.9834 18.8038 24.758 18.73 24.4639 18.8137C24.1827 18.8967 23.9759 19.0839 23.8414 19.3757C23.7085 19.668 23.6372 20.083 23.6282 20.6227L23.6289 22.3291C23.6139 22.8147 23.6818 23.2265 23.8295 23.5454C23.9442 23.7768 24.1719 23.8571 24.4722 23.7722C24.7645 23.6864 24.9749 23.4909 25.1044 23.1871C25.234 22.8808 25.3024 22.4537 25.3071 21.9012L25.3076 20.2334ZM14.6869 150.963L13.4923 151.315V145.943L12.066 146.876L12.0652 145.754L14.5591 143.978L14.6879 143.94L14.6869 150.963ZM15.4106 134.925C15.4113 135.895 15.2391 136.688 14.8939 137.302C14.55 137.919 14.0454 138.325 13.3801 138.519C12.7271 138.714 12.2028 138.605 11.8761 138.208C11.5138 137.75 11.3311 137.063 11.3417 136.197V134.906C11.3421 133.926 11.5164 133.132 11.8647 132.522C12.2142 131.911 12.717 131.509 13.3731 131.316C14.0257 131.122 14.55 131.231 14.8778 131.627C15.2403 132.082 15.4228 132.768 15.4111 133.634L15.4106 134.925ZM14.2163 133.858C14.2335 133.371 14.1637 132.96 14.0105 132.647C13.892 132.429 13.6665 132.355 13.3723 132.439C13.0911 132.522 12.8846 132.709 12.7501 133C12.6172 133.293 12.5457 133.708 12.5369 134.248L12.5376 135.954C12.5225 136.44 12.5903 136.851 12.7379 137.17C12.8526 137.402 13.0804 137.482 13.3806 137.397C13.6732 137.311 13.8836 137.116 14.0134 136.812C14.143 136.505 14.2111 136.078 14.2155 135.526L14.2163 133.858ZM15.4106 122.004C15.4113 122.974 15.2391 123.767 14.8939 124.382C14.55 124.999 14.0454 125.404 13.3801 125.599C12.7271 125.793 12.2028 125.685 11.8761 125.287C11.5138 124.83 11.3311 124.142 11.3417 123.276V121.986C11.3421 121.006 11.5164 120.211 11.8647 119.602C12.2142 118.991 12.717 118.589 13.3731 118.396C14.0257 118.202 14.5501 118.31 14.8778 118.706C15.2403 119.162 15.4227 119.848 15.4111 120.713L15.4106 122.004ZM14.2163 120.938C14.2335 120.45 14.1637 120.04 14.0105 119.727C13.892 119.508 13.6665 119.435 13.3723 119.518C13.0911 119.601 12.8846 119.788 12.7501 120.08C12.6172 120.372 12.5457 120.787 12.5369 121.327L12.5376 123.033C12.5225 123.519 12.5903 123.931 12.7379 124.25C12.8526 124.481 13.0804 124.562 13.3806 124.477C13.6732 124.391 13.8836 124.195 14.0134 123.891C14.143 123.585 14.2111 123.158 14.2155 122.606L14.2163 120.938Z" fill="#FF6F00"/>
<path d="M36.8695 69.6041L35.6749 69.9568V64.5845L34.2486 65.5169L34.2481 64.3953L36.7417 62.6196L36.8705 62.5816L36.8695 69.6041ZM36.8695 82.5244L35.6749 82.8771V77.5051L34.2486 78.4375L34.2481 77.3156L36.7417 75.5399L36.8705 75.5022L36.8695 82.5244ZM36.8695 43.7632L35.6749 44.1158V38.7436L34.2486 39.676L34.2481 38.5544L36.7417 36.7786L36.8705 36.7409L36.8695 43.7632ZM36.8695 30.8428L35.6749 31.1952V25.8233L34.2486 26.7556L34.2481 25.6338L36.7417 23.8583L36.8705 23.8203L36.8695 30.8428ZM14.6869 37.384L13.4923 37.7366V32.3644L12.066 33.2967L12.0652 32.1754L14.5591 30.3994L14.6879 30.3617L14.6869 37.384ZM15.4106 47.1871C15.4113 48.1572 15.2391 48.9497 14.8939 49.5645C14.55 50.1812 14.0454 50.5868 13.3801 50.7813C12.7271 50.9761 12.2028 50.8675 11.8761 50.4698C11.5138 50.0127 11.3311 49.325 11.3417 48.459V47.1683C11.3421 46.1886 11.5164 45.394 11.8647 44.7847C12.2142 44.1736 12.717 43.7715 13.3731 43.5784C14.0256 43.3846 14.55 43.4929 14.8778 43.889C15.2403 44.344 15.4227 45.0304 15.4111 45.8957L15.4106 47.1871ZM14.2163 46.1205C14.2335 45.6327 14.1638 45.2221 14.0105 44.9095C13.892 44.6907 13.6665 44.617 13.3723 44.7009C13.0911 44.7839 12.8846 44.9708 12.7501 45.2627C12.6172 45.555 12.5457 45.9701 12.5369 46.5098L12.5376 48.2163C12.5225 48.7019 12.5903 49.1137 12.7379 49.4326C12.8526 49.6639 13.0804 49.7443 13.3806 49.6593C13.6732 49.5734 13.8836 49.378 14.0134 49.0741C14.143 48.7677 14.2111 48.3406 14.2155 47.7883L14.2163 46.1205ZM37.5935 53.5661C37.5942 54.5362 37.422 55.3287 37.0768 55.9435C36.7327 56.5605 36.2281 56.9661 35.563 57.1603C34.91 57.355 34.3857 57.2464 34.059 56.8488C33.6967 56.3917 33.514 55.704 33.5246 54.8379V53.5473C33.525 52.5675 33.6993 51.773 34.0476 51.1637C34.3969 50.5527 34.8996 50.1507 35.5557 49.9576C36.2084 49.7637 36.7328 49.8719 37.0607 50.268C37.4232 50.7231 37.6056 51.4095 37.594 52.2747L37.5935 53.5661ZM36.3989 52.4997C36.4161 52.012 36.3464 51.6014 36.1932 51.2887C36.0747 51.0699 35.8493 50.9961 35.5552 51.0798C35.274 51.1629 35.0672 51.35 34.9327 51.6419C34.7998 51.9342 34.7286 52.3491 34.7195 52.8891L34.7203 54.5955C34.7052 55.0811 34.7731 55.4928 34.9208 55.8116C35.0355 56.0429 35.2633 56.1232 35.5635 56.0383C35.8558 55.9526 36.0662 55.7572 36.196 55.4533C36.3256 55.1469 36.394 54.7196 36.3981 54.1675L36.3989 52.4997ZM14.6869 63.2246L13.4923 63.5773V58.2056L12.066 59.1379L12.0652 58.0163L14.5591 56.2404L14.6879 56.2024L14.6869 63.2246ZM36.8695 108.365L35.6749 108.718V103.346L34.2486 104.278L34.2481 103.157L36.7417 101.381L36.8705 101.343L36.8695 108.365ZM37.5935 92.3274C37.5942 93.2975 37.422 94.09 37.0768 94.705C36.7327 95.3217 36.2281 95.7273 35.563 95.9218C34.91 96.1164 34.3857 96.0077 34.059 95.61C33.6967 95.1529 33.514 94.4653 33.5246 93.5992V92.3086C33.525 91.3288 33.6993 90.5343 34.0476 89.9249C34.3969 89.314 34.8996 88.9121 35.5557 88.7191C36.2083 88.5252 36.7328 88.6332 37.0607 89.0292C37.4232 89.4844 37.6056 90.1709 37.594 91.0362L37.5935 92.3274ZM36.3989 91.261C36.4161 90.7732 36.3464 90.3626 36.1932 90.05C36.0747 89.8312 35.8493 89.7574 35.5552 89.8411C35.274 89.9241 35.0672 90.1116 34.9327 90.4031C34.7998 90.6954 34.7286 91.1104 34.7195 91.6503L34.7203 93.3567C34.7052 93.8423 34.7731 94.254 34.9208 94.5728C35.0355 94.8043 35.2632 94.8848 35.5635 94.7998C35.8558 94.7138 36.0662 94.5185 36.196 94.2146C36.3256 93.9082 36.394 93.4809 36.3981 92.9291L36.3989 91.261ZM47.9611 53.4127L46.7665 53.7654V48.3934L45.3399 49.326L45.3394 48.2042L47.8333 46.4282L47.9618 46.3907L47.9611 53.4127ZM48.6848 27.4821C48.6857 28.4521 48.5134 29.2447 48.1681 29.8598C47.8241 30.4765 47.3195 30.8821 46.6543 31.0766C46.0013 31.2712 45.477 31.1625 45.1503 30.7648C44.788 30.3078 44.6053 29.6202 44.616 28.7543V27.4636C44.6161 26.484 44.7904 25.6895 45.1389 25.08C45.4882 24.4689 45.9909 24.0669 46.647 23.8739C47.2997 23.68 47.8241 23.7882 48.152 24.1843C48.5145 24.6394 48.6969 25.3258 48.6853 26.191L48.6848 27.4821ZM47.4905 26.4156C47.5077 25.9279 47.4379 25.5174 47.2847 25.2048C47.1662 24.986 46.9407 24.9123 46.6465 24.9962C46.3653 25.0792 46.1586 25.2663 46.0243 25.558C45.8911 25.8505 45.8196 26.2656 45.8111 26.8049L45.8118 28.5115C45.7966 28.9972 45.8645 29.409 46.0121 29.7279C46.1268 29.9593 46.3545 30.0397 46.6548 29.9546C46.9471 29.8689 47.1575 29.6736 47.2873 29.3696C47.4169 29.063 47.4853 28.636 47.4897 28.0836L47.4905 26.4156Z" fill="#654023"/>
<path d="M58.5589 193.962L57.3644 194.315V188.943L55.9381 189.875L55.9373 188.754L58.4312 186.978L58.56 186.94L58.5589 193.962ZM58.5589 168.121L57.3644 168.474V163.102L55.9381 164.034L55.9373 162.912L58.4312 161.136L58.56 161.099L58.5589 168.121ZM58.5589 155.201L57.3644 155.553V150.182L55.9381 151.114L55.9373 149.992L58.4312 148.216L58.56 148.178L58.5589 155.201ZM59.2829 177.924C59.2836 178.894 59.1113 179.687 58.766 180.302C58.422 180.918 57.9175 181.324 57.2524 181.518C56.5995 181.713 56.0751 181.604 55.7484 181.207C55.3861 180.75 55.2032 180.062 55.2138 179.196V177.906C55.2142 176.926 55.3885 176.131 55.7368 175.522C56.0862 174.911 56.589 174.509 57.2451 174.316C57.8977 174.122 58.422 174.23 58.7499 174.626C59.1124 175.081 59.2948 175.768 59.2832 176.633L59.2829 177.924ZM58.0884 176.858C58.1055 176.37 58.0357 175.959 57.8826 175.647C57.7641 175.428 57.5386 175.354 57.2444 175.438C56.9632 175.521 56.7567 175.708 56.6222 176C56.4893 176.292 56.418 176.707 56.4089 177.247L56.4097 178.954C56.3946 179.439 56.4625 179.851 56.6103 180.17C56.7249 180.401 56.9527 180.481 57.2529 180.397C57.5452 180.311 57.756 180.116 57.8852 179.812C58.0148 179.505 58.0832 179.078 58.0878 178.526L58.0884 176.858Z" fill="#FF6F00"/>
<path d="M69.6525 210.072L68.4579 210.425V205.052L67.0316 205.985L67.0311 204.863L69.5247 203.088L69.6535 203.05L69.6525 210.072Z" fill="#FF6F00"/>
<path d="M306.623 170.515L305.416 169.82V164.448L303.976 164.129L303.975 163.007L306.494 163.419L306.623 163.494L306.623 170.515ZM306.623 157.595L305.416 156.899V151.527L303.976 151.208L303.975 150.086L306.494 150.498L306.623 150.573L306.623 157.595ZM307.353 180.953C307.354 181.924 307.18 182.565 306.832 182.877C306.484 183.192 305.975 183.155 305.303 182.766C304.644 182.388 304.114 181.819 303.784 181.135C303.419 180.36 303.234 179.512 303.245 178.655V177.365C303.245 176.385 303.421 175.744 303.773 175.44C304.126 175.135 304.633 175.174 305.296 175.557C305.955 175.936 306.484 176.504 306.815 177.188C307.181 177.961 307.366 178.807 307.354 179.662L307.353 180.953ZM306.147 178.839C306.165 178.366 306.094 177.894 305.94 177.447C305.82 177.125 305.592 176.853 305.295 176.679C305.011 176.515 304.803 176.521 304.667 176.695C304.533 176.87 304.461 177.223 304.452 177.755L304.452 179.462C304.437 179.934 304.506 180.405 304.655 180.854C304.771 181.186 305 181.466 305.304 181.644C305.599 181.815 305.811 181.804 305.943 181.614C306.073 181.421 306.142 181.054 306.147 180.506L306.147 178.839Z" fill="#FF6F00"/>
<path d="M239.426 49.2324L238.219 48.537V43.165L236.779 42.846L236.778 41.7238L239.296 42.1358L239.426 42.211L239.426 49.2324ZM240.156 33.8295C240.157 34.8003 239.983 35.4417 239.635 35.7539C239.287 36.0688 238.778 36.0317 238.106 35.6425C237.447 35.2643 236.917 34.6956 236.587 34.0112C236.222 33.2363 236.037 32.3884 236.048 31.5316V30.241C236.048 29.2617 236.224 28.6201 236.576 28.3161C236.929 28.0116 237.436 28.0508 238.099 28.4335C238.758 28.8121 239.287 29.3803 239.618 30.064C239.984 30.8371 240.169 31.6837 240.157 32.5389L240.156 33.8295ZM238.95 31.7152C238.968 31.2426 238.897 30.7708 238.743 30.3239C238.623 30.0011 238.395 29.7296 238.098 29.5553C237.814 29.3914 237.605 29.3974 237.47 29.571C237.336 29.7469 237.263 30.099 237.255 30.631L237.255 32.3381C237.24 32.8105 237.309 33.2819 237.458 33.7305C237.573 34.0624 237.803 34.3426 238.107 34.521C238.402 34.6917 238.614 34.6807 238.745 34.4907C238.876 34.298 238.945 33.9307 238.95 33.3825L238.95 31.7152Z" fill="#FF6F00"/>
<path d="M306.622 80.0723L305.416 79.3769V74.0049L303.975 73.686L303.975 72.5637L306.493 72.9757L306.623 73.0509L306.622 80.0723ZM307.353 64.6694C307.353 65.6402 307.18 66.2816 306.831 66.5935C306.484 66.9086 305.974 66.8715 305.302 66.4822C304.643 66.104 304.114 65.5355 303.784 64.8511C303.418 64.0762 303.233 63.2283 303.244 62.3715V61.0809C303.245 60.1014 303.421 59.4598 303.772 59.156C304.125 58.8516 304.633 58.8906 305.295 59.2731C305.954 59.6519 306.484 60.2202 306.815 60.9039C307.181 61.6771 307.365 62.5236 307.353 63.3788L307.353 64.6694ZM306.147 62.5551C306.164 62.0825 306.094 61.6107 305.939 61.1638C305.819 60.841 305.592 60.5695 305.295 60.3952C305.011 60.2313 304.802 60.237 304.666 60.4109C304.532 60.5865 304.46 60.9389 304.451 61.4709L304.452 63.178C304.436 63.6503 304.505 64.1216 304.654 64.5701C304.77 64.9021 305 65.1824 305.303 65.3609C305.598 65.5316 305.811 65.5206 305.942 65.3306C306.073 65.1379 306.142 64.7706 306.146 64.2224L306.147 62.5551ZM307.353 103.431C307.353 104.402 307.18 105.043 306.831 105.355C306.484 105.67 305.974 105.633 305.302 105.244C304.643 104.865 304.114 104.297 303.784 103.612C303.418 102.838 303.233 101.99 303.244 101.133V99.8424C303.245 98.863 303.421 98.2212 303.772 97.9173C304.125 97.6128 304.633 97.652 305.295 98.0347C305.954 98.4134 306.484 98.9817 306.815 99.6654C307.181 100.439 307.365 101.285 307.353 102.14L307.353 103.431ZM306.147 101.316C306.164 100.844 306.094 100.372 305.939 99.925C305.819 99.6022 305.592 99.3307 305.295 99.1564C305.011 98.9925 304.802 98.9986 304.666 99.1721C304.532 99.3481 304.46 99.7005 304.451 100.232L304.452 101.94C304.436 102.412 304.505 102.883 304.654 103.332C304.77 103.664 305 103.944 305.303 104.122C305.598 104.293 305.811 104.282 305.942 104.092C306.073 103.899 306.142 103.532 306.146 102.984L306.147 101.316ZM307.353 90.5104C307.353 91.4811 307.18 92.1225 306.831 92.4345C306.484 92.7496 305.974 92.7124 305.302 92.3231C304.643 91.9449 304.114 91.3764 303.784 90.6921C303.418 89.9171 303.233 89.0692 303.244 88.2125V86.9218C303.245 85.9424 303.421 85.3007 303.772 84.997C304.125 84.6925 304.633 84.7315 305.295 85.1141C305.954 85.4928 306.484 86.061 306.815 86.7448C307.181 87.518 307.365 88.3645 307.353 89.2197L307.353 90.5104ZM306.147 88.396C306.164 87.9233 306.094 87.4515 305.939 87.0044C305.819 86.6816 305.592 86.4101 305.295 86.2359C305.011 86.0722 304.802 86.0779 304.666 86.2518C304.532 86.4275 304.46 86.7799 304.451 87.3119L304.452 89.019C304.436 89.4913 304.505 89.9626 304.654 90.411C304.77 90.743 305 91.0231 305.303 91.2016C305.598 91.3723 305.811 91.3616 305.942 91.1715C306.073 90.9789 306.142 90.6116 306.146 90.0634L306.147 88.396ZM295.422 189.896L294.216 189.201V183.828L292.776 183.509L292.775 182.387L295.293 182.799L295.423 182.875L295.422 189.896ZM296.153 174.493C296.154 175.464 295.98 176.105 295.632 176.417C295.284 176.732 294.775 176.695 294.103 176.306C293.444 175.928 292.914 175.359 292.584 174.675C292.218 173.9 292.034 173.052 292.045 172.195V170.905C292.045 169.925 292.221 169.284 292.573 168.98C292.925 168.675 293.433 168.714 294.096 169.097C294.755 169.476 295.284 170.044 295.615 170.728C295.981 171.501 296.165 172.347 296.154 173.202L296.153 174.493ZM294.947 172.379C294.965 171.906 294.894 171.434 294.74 170.987C294.62 170.664 294.392 170.393 294.095 170.219C293.811 170.055 293.602 170.061 293.467 170.235C293.332 170.41 293.26 170.763 293.252 171.295L293.252 173.002C293.237 173.474 293.305 173.945 293.455 174.394C293.57 174.726 293.8 175.006 294.103 175.184C294.399 175.355 294.611 175.344 294.742 175.154C294.873 174.962 294.942 174.594 294.947 174.046L294.947 172.379ZM317.821 125.294L316.615 124.598L316.615 119.226L315.175 118.908L315.174 117.785L317.692 118.197L317.822 118.273L317.821 125.294ZM317.821 73.6122L316.615 72.9166L316.615 67.5446L315.175 67.2257L315.174 66.1034L317.692 66.5156L317.822 66.5907L317.821 73.6122ZM295.422 60.6916L294.216 59.9962V54.624L292.776 54.3051L292.775 53.183L295.293 53.595L295.423 53.6703L295.422 60.6916ZM295.422 47.771L294.216 47.0756V41.7037L292.776 41.3847L292.775 40.2624L295.293 40.6744L295.423 40.7497L295.422 47.771ZM318.552 58.2094C318.553 59.1802 318.379 59.8215 318.03 60.1335C317.683 60.4484 317.174 60.4113 316.502 60.0221C315.843 59.6439 315.313 59.0752 314.983 58.3908C314.617 57.616 314.433 56.7681 314.444 55.9115V54.6209C314.444 53.6414 314.62 52.9998 314.972 52.696C315.325 52.3913 315.832 52.4304 316.495 52.8131C317.154 53.1918 317.683 53.7601 318.014 54.4439C318.38 55.2169 318.564 56.0634 318.553 56.9185L318.552 58.2094ZM317.346 56.0948C317.364 55.6222 317.293 55.1504 317.138 54.7035C317.019 54.3807 316.791 54.1092 316.494 53.9349C316.21 53.7712 316.002 53.777 315.866 53.9508C315.732 54.1265 315.659 54.4789 315.65 55.0106L315.651 56.718C315.636 57.1903 315.704 57.6616 315.853 58.1101C315.969 58.442 316.199 58.7221 316.502 58.9006C316.798 59.0713 317.01 59.0606 317.141 58.8706C317.272 58.6776 317.341 58.3106 317.345 57.7621L317.346 56.0948ZM250.624 47.771L249.418 47.0756V41.7034L247.978 41.3845L247.977 40.2624L250.495 40.6744L250.625 40.7497L250.624 47.771ZM250.624 34.8504L249.418 34.155V28.7831L247.978 28.4641L247.977 27.3418L250.495 27.7541L250.625 27.8291L250.624 34.8504ZM251.355 19.4479C251.356 20.4186 251.182 21.06 250.833 21.372C250.486 21.6869 249.977 21.6498 249.305 21.2606C248.646 20.8824 248.116 20.3137 247.786 19.6293C247.42 18.8545 247.236 18.0066 247.247 17.15V15.8593C247.247 14.8799 247.423 14.2382 247.775 13.9345C248.128 13.6298 248.635 13.6689 249.298 14.0516C249.957 14.4303 250.486 14.9986 250.817 15.6823C251.183 16.4554 251.367 17.3019 251.356 18.157L251.355 19.4479ZM250.149 17.3332C250.167 16.8606 250.096 16.3889 249.941 15.9419C249.822 15.6192 249.594 15.3476 249.297 15.1734C249.013 15.0097 248.804 15.0155 248.669 15.1893C248.535 15.365 248.462 15.7174 248.453 16.2491L248.454 17.9565C248.439 18.4288 248.507 18.9001 248.656 19.3485C248.772 19.6805 249.002 19.9606 249.305 20.1391C249.601 20.3098 249.813 20.2991 249.944 20.109C250.075 19.9161 250.144 19.5491 250.148 19.0006L250.149 17.3332ZM251.355 58.2092C251.356 59.1799 251.182 59.8213 250.833 60.1332C250.486 60.4482 249.977 60.411 249.305 60.0219C248.646 59.6438 248.116 59.0752 247.786 58.3908C247.42 57.6159 247.236 56.768 247.247 55.9112V54.6206C247.247 53.6411 247.423 52.9995 247.775 52.6957C248.128 52.3913 248.635 52.4303 249.298 52.8129C249.957 53.1916 250.486 53.7598 250.817 54.4436C251.183 55.2167 251.367 56.0631 251.356 56.9182L251.355 58.2092ZM250.149 56.0945C250.167 55.6219 250.096 55.1502 249.941 54.7032C249.822 54.3804 249.594 54.1089 249.297 53.9346C249.013 53.771 248.804 53.7767 248.669 53.9506C248.535 54.1262 248.462 54.4786 248.453 55.0106L248.454 56.7177C248.439 57.19 248.507 57.6613 248.656 58.1098C248.772 58.4418 249.002 58.7219 249.305 58.9004C249.601 59.0711 249.813 59.0603 249.944 58.8703C250.075 58.6776 250.144 58.3103 250.148 57.7619L250.149 56.0945Z" fill="#654023"/>
<path d="M295.424 125.294L294.218 124.599V119.226L292.777 118.907L292.777 117.785L295.295 118.197L295.425 118.273L295.424 125.294ZM295.424 112.373L294.218 111.678V106.306L292.777 105.987L292.777 104.865L295.295 105.277L295.425 105.352L295.424 112.373Z" fill="#FF6F00"/>
<path d="M228.225 14.2249L227.019 13.5295V8.15728L225.579 7.83834L225.578 6.71631L228.096 7.12831L228.226 7.20361L228.225 14.2249Z" fill="#654023"/>
<path d="M217.026 23.3909L215.82 22.6955L215.82 17.3233L214.38 17.0044L214.379 15.8823L216.897 16.2943L217.027 16.3696L217.026 23.3909ZM296.154 135.731C296.155 136.702 295.981 137.344 295.632 137.656C295.285 137.97 294.775 137.933 294.104 137.544C293.444 137.166 292.915 136.597 292.585 135.913C292.219 135.138 292.035 134.29 292.045 133.434V132.143C292.045 131.163 292.221 130.522 292.573 130.218C292.926 129.913 293.434 129.952 294.096 130.335C294.755 130.714 295.285 131.282 295.616 131.966C295.982 132.739 296.166 133.585 296.154 134.441L296.154 135.731ZM294.948 133.617C294.965 133.144 294.895 132.673 294.74 132.225C294.62 131.903 294.393 131.631 294.096 131.457C293.812 131.293 293.603 131.299 293.467 131.473C293.333 131.649 293.261 132.001 293.252 132.533L293.253 134.24C293.238 134.712 293.306 135.184 293.455 135.632C293.571 135.964 293.801 136.244 294.104 136.423C294.399 136.593 294.612 136.583 294.743 136.393C294.874 136.2 294.943 135.833 294.947 135.284L294.948 133.617Z" fill="#FF6F00"/>
<path d="M317.821 202.817L316.615 202.121L316.615 196.749L315.175 196.43L315.174 195.308L317.692 195.72L317.822 195.795L317.821 202.817ZM318.552 187.414C318.553 188.385 318.379 189.026 318.03 189.338C317.683 189.653 317.173 189.616 316.502 189.227C315.842 188.849 315.313 188.28 314.983 187.596C314.617 186.821 314.433 185.973 314.443 185.116V183.826C314.444 182.846 314.62 182.205 314.971 181.901C315.324 181.596 315.832 181.635 316.494 182.018C317.153 182.397 317.683 182.965 318.014 183.649C318.38 184.422 318.564 185.268 318.552 186.123L318.552 187.414ZM317.346 185.3C317.363 184.827 317.293 184.355 317.138 183.908C317.018 183.586 316.791 183.314 316.494 183.14C316.21 182.976 316.001 182.982 315.865 183.156C315.731 183.331 315.659 183.684 315.65 184.216L315.651 185.923C315.636 186.395 315.704 186.866 315.853 187.315C315.969 187.647 316.199 187.927 316.502 188.105C316.797 188.276 317.01 188.265 317.141 188.075C317.272 187.882 317.341 187.515 317.345 186.967L317.346 185.3ZM317.821 151.135L316.615 150.44L316.615 145.068L315.175 144.749L315.174 143.627L317.692 144.039L317.822 144.114L317.821 151.135ZM318.552 135.732C318.553 136.703 318.379 137.345 318.03 137.657C317.683 137.971 317.173 137.934 316.502 137.545C315.842 137.167 315.313 136.598 314.983 135.914C314.617 135.139 314.433 134.291 314.443 133.434V132.144C314.444 131.164 314.62 130.523 314.971 130.219C315.324 129.914 315.832 129.954 316.494 130.336C317.153 130.715 317.683 131.283 318.014 131.967C318.38 132.74 318.564 133.587 318.552 134.442L318.552 135.732ZM317.346 133.618C317.363 133.145 317.293 132.673 317.138 132.226C317.018 131.904 316.791 131.632 316.494 131.458C316.21 131.294 316.001 131.3 315.865 131.474C315.731 131.649 315.659 132.002 315.65 132.534L315.651 134.241C315.636 134.713 315.704 135.185 315.853 135.633C315.969 135.965 316.199 136.245 316.502 136.424C316.797 136.594 317.01 136.584 317.141 136.394C317.272 136.201 317.341 135.834 317.345 135.285L317.346 133.618ZM318.552 174.494C318.553 175.464 318.379 176.106 318.03 176.418C317.683 176.733 317.173 176.696 316.502 176.307C315.842 175.928 315.313 175.36 314.983 174.675C314.617 173.9 314.433 173.052 314.443 172.196V170.905C314.444 169.926 314.62 169.284 314.971 168.98C315.324 168.676 315.832 168.715 316.494 169.098C317.153 169.476 317.683 170.044 318.014 170.728C318.38 171.501 318.564 172.348 318.552 173.203L318.552 174.494ZM317.346 172.379C317.363 171.907 317.293 171.435 317.138 170.988C317.018 170.665 316.791 170.393 316.494 170.219C316.21 170.055 316.001 170.061 315.865 170.235C315.731 170.411 315.659 170.763 315.65 171.295L315.651 173.002C315.636 173.475 315.704 173.946 315.853 174.394C315.969 174.726 316.199 175.007 316.502 175.185C316.797 175.356 317.01 175.345 317.141 175.155C317.272 174.962 317.341 174.595 317.345 174.047L317.346 172.379ZM318.552 161.573C318.553 162.544 318.379 163.186 318.03 163.498C317.683 163.812 317.173 163.775 316.502 163.386C315.842 163.008 315.313 162.439 314.983 161.755C314.617 160.98 314.433 160.132 314.443 159.275V157.985C314.444 157.005 314.62 156.364 314.971 156.06C315.324 155.755 315.832 155.794 316.494 156.177C317.153 156.556 317.683 157.124 318.014 157.808C318.38 158.581 318.564 159.427 318.552 160.282L318.552 161.573ZM317.346 159.459C317.363 158.986 317.293 158.514 317.138 158.067C317.018 157.745 316.791 157.473 316.494 157.299C316.21 157.135 316.001 157.141 315.865 157.315C315.731 157.49 315.659 157.843 315.65 158.375L315.651 160.082C315.636 160.554 315.704 161.026 315.853 161.474C315.969 161.806 316.199 162.086 316.502 162.265C316.797 162.435 317.01 162.425 317.141 162.234C317.272 162.042 317.341 161.674 317.345 161.126L317.346 159.459ZM295.37 318.65L294.163 317.954V312.582L292.723 312.263L292.722 311.141L295.241 311.553L295.371 311.628L295.37 318.65ZM295.37 292.809L294.163 292.113V286.741L292.723 286.422L292.722 285.3L295.241 285.712L295.371 285.787L295.37 292.809ZM295.37 279.888L294.163 279.193V273.821L292.723 273.502L292.722 272.379L295.241 272.792L295.371 272.867L295.37 279.888ZM296.101 264.486C296.101 265.456 295.927 266.098 295.579 266.41C295.231 266.725 294.722 266.688 294.05 266.298C293.391 265.92 292.862 265.352 292.532 264.667C292.166 263.892 291.981 263.044 291.992 262.188L291.992 260.897C291.992 259.918 292.168 259.276 292.52 258.972C292.873 258.668 293.381 258.707 294.043 259.089C294.702 259.468 295.231 260.036 295.562 260.72C295.928 261.493 296.113 262.34 296.101 263.195L296.101 264.486ZM294.894 262.371C294.912 261.898 294.841 261.427 294.687 260.98C294.567 260.657 294.34 260.385 294.043 260.211C293.759 260.048 293.55 260.053 293.414 260.227C293.28 260.403 293.208 260.755 293.199 261.287L293.199 262.994C293.184 263.467 293.253 263.938 293.402 264.386C293.518 264.718 293.748 264.998 294.051 265.177C294.346 265.348 294.558 265.337 294.689 265.147C294.82 264.954 294.889 264.587 294.894 264.038L294.894 262.371ZM296.101 303.247C296.101 304.218 295.927 304.859 295.579 305.171C295.231 305.486 294.722 305.449 294.05 305.06C293.391 304.682 292.862 304.113 292.532 303.429C292.166 302.654 291.981 301.806 291.992 300.949L291.992 299.658C291.992 298.679 292.168 298.037 292.52 297.734C292.873 297.429 293.381 297.468 294.043 297.851C294.702 298.229 295.231 298.798 295.562 299.481C295.928 300.255 296.113 301.101 296.101 301.956L296.101 303.247ZM294.894 301.132C294.912 300.66 294.841 300.188 294.687 299.741C294.567 299.418 294.34 299.147 294.043 298.972C293.759 298.809 293.55 298.815 293.414 298.988C293.28 299.164 293.208 299.516 293.199 300.048L293.199 301.756C293.184 302.228 293.253 302.699 293.402 303.148C293.518 303.48 293.748 303.76 294.051 303.938C294.346 304.109 294.558 304.098 294.689 303.908C294.82 303.715 294.889 303.348 294.894 302.8L294.894 301.132Z" fill="#654023"/>
<path d="M262.754 202.42C262.755 203.391 262.581 204.032 262.232 204.344C261.885 204.659 261.375 204.622 260.704 204.233C260.044 203.855 259.515 203.286 259.185 202.601C258.819 201.827 258.635 200.979 258.645 200.122L258.646 198.831C258.646 197.852 258.822 197.21 259.173 196.907C259.526 196.602 260.034 196.641 260.696 197.024C261.355 197.403 261.885 197.971 262.216 198.655C262.582 199.428 262.766 200.274 262.754 201.129L262.754 202.42ZM261.548 200.305C261.565 199.833 261.495 199.361 261.34 198.914C261.22 198.591 260.993 198.32 260.696 198.146C260.412 197.982 260.203 197.988 260.067 198.161C259.933 198.337 259.861 198.69 259.852 199.221L259.853 200.928C259.838 201.401 259.906 201.872 260.055 202.321C260.171 202.653 260.401 202.933 260.704 203.111C260.999 203.282 261.212 203.271 261.343 203.081C261.474 202.888 261.543 202.521 261.547 201.973L261.548 200.305ZM250.824 321.717L249.617 321.021V315.649L248.177 315.33L248.176 314.208L250.695 314.62L250.825 314.695L250.824 321.717ZM251.554 306.314C251.555 307.285 251.381 307.926 251.033 308.238C250.685 308.553 250.176 308.516 249.504 308.127C248.845 307.748 248.315 307.18 247.985 306.496C247.62 305.721 247.435 304.873 247.446 304.016V302.725C247.446 301.746 247.622 301.104 247.974 300.801C248.327 300.496 248.834 300.535 249.497 300.918C250.156 301.296 250.685 301.865 251.016 302.548C251.382 303.321 251.567 304.168 251.555 305.023L251.554 306.314ZM250.348 304.2C250.366 303.727 250.295 303.255 250.141 302.808C250.021 302.485 249.793 302.214 249.496 302.039C249.212 301.876 249.004 301.882 248.868 302.055C248.734 302.231 248.662 302.583 248.653 303.115L248.653 304.823C248.638 305.295 248.707 305.766 248.856 306.215C248.972 306.547 249.201 306.827 249.505 307.005C249.8 307.176 250.012 307.165 250.144 306.975C250.274 306.782 250.343 306.415 250.348 305.867L250.348 304.2ZM251.554 293.393C251.555 294.364 251.381 295.006 251.033 295.318C250.685 295.633 250.176 295.595 249.504 295.206C248.845 294.828 248.315 294.259 247.985 293.575C247.62 292.8 247.435 291.952 247.446 291.096V289.805C247.446 288.826 247.622 288.184 247.974 287.88C248.327 287.575 248.834 287.615 249.497 287.997C250.156 288.376 250.685 288.944 251.016 289.628C251.382 290.401 251.567 291.248 251.555 292.103L251.554 293.393ZM250.348 291.279C250.366 290.806 250.295 290.335 250.141 289.888C250.021 289.565 249.793 289.293 249.496 289.119C249.212 288.955 249.004 288.961 248.868 289.135C248.734 289.311 248.662 289.663 248.653 290.195L248.653 291.902C248.638 292.374 248.707 292.846 248.856 293.294C248.972 293.626 249.201 293.906 249.505 294.085C249.8 294.256 250.012 294.245 250.144 294.054C250.274 293.862 250.343 293.495 250.348 292.946L250.348 291.279Z" fill="#FF6F00"/>
<path d="M273.223 259.82L272.016 259.125V253.753L270.576 253.434L270.576 252.312L273.094 252.724L273.224 252.799L273.223 259.82ZM273.223 272.741L272.016 272.045V266.673L270.576 266.354L270.576 265.232L273.094 265.644L273.224 265.719L273.223 272.741ZM273.223 233.979L272.016 233.284V227.912L270.576 227.593L270.576 226.471L273.094 226.883L273.224 226.958L273.223 233.979ZM273.223 221.059L272.016 220.363V214.991L270.576 214.673L270.576 213.55L273.094 213.962L273.224 214.038L273.223 221.059ZM250.824 208.138L249.617 207.443V202.071L248.177 201.752L248.176 200.63L250.695 201.042L250.825 201.117L250.824 208.138ZM251.554 218.577C251.555 219.547 251.381 220.189 251.033 220.501C250.685 220.816 250.176 220.778 249.504 220.389C248.845 220.011 248.315 219.443 247.985 218.758C247.62 217.983 247.435 217.135 247.446 216.279V214.988C247.446 214.009 247.622 213.367 247.974 213.063C248.327 212.759 248.834 212.798 249.497 213.18C250.156 213.559 250.685 214.127 251.016 214.811C251.382 215.584 251.567 216.431 251.555 217.286L251.554 218.577ZM250.348 216.462C250.366 215.99 250.295 215.518 250.141 215.071C250.021 214.748 249.793 214.476 249.496 214.302C249.212 214.138 249.004 214.144 248.868 214.318C248.734 214.494 248.662 214.846 248.653 215.378L248.653 217.085C248.638 217.557 248.707 218.029 248.856 218.477C248.972 218.809 249.201 219.089 249.505 219.268C249.8 219.439 250.012 219.428 250.144 219.238C250.274 219.045 250.343 218.678 250.348 218.129L250.348 216.462ZM273.954 244.418C273.954 245.388 273.78 246.03 273.432 246.342C273.084 246.657 272.575 246.62 271.903 246.23C271.244 245.852 270.715 245.284 270.385 244.599C270.019 243.824 269.834 242.976 269.845 242.12V240.829C269.845 239.85 270.021 239.208 270.373 238.904C270.726 238.6 271.233 238.639 271.896 239.021C272.555 239.4 273.085 239.968 273.416 240.652C273.782 241.425 273.966 242.272 273.954 243.127L273.954 244.418ZM272.747 242.303C272.765 241.83 272.694 241.359 272.54 240.912C272.42 240.589 272.192 240.317 271.895 240.143C271.611 239.979 271.403 239.985 271.267 240.159C271.133 240.335 271.061 240.687 271.052 241.219L271.052 242.926C271.037 243.398 271.106 243.87 271.255 244.318C271.371 244.65 271.601 244.93 271.904 245.109C272.199 245.279 272.411 245.269 272.542 245.079C272.673 244.886 272.742 244.519 272.747 243.97L272.747 242.303ZM250.824 233.979L249.617 233.284V227.912L248.177 227.593L248.176 226.471L250.695 226.883L250.825 226.958L250.824 233.979ZM273.223 298.582L272.016 297.886V292.514L270.576 292.195L270.576 291.073L273.094 291.485L273.224 291.56L273.223 298.582ZM273.954 283.179C273.954 284.15 273.78 284.791 273.432 285.103C273.084 285.418 272.575 285.381 271.903 284.992C271.244 284.614 270.714 284.045 270.385 283.36C270.019 282.586 269.834 281.738 269.845 280.881V279.59C269.845 278.611 270.021 277.969 270.373 277.665C270.726 277.361 271.233 277.4 271.896 277.783C272.555 278.161 273.084 278.73 273.416 279.413C273.782 280.186 273.966 281.033 273.954 281.888L273.954 283.179ZM272.747 281.064C272.765 280.592 272.694 280.12 272.54 279.673C272.42 279.35 272.192 279.079 271.895 278.904C271.611 278.741 271.403 278.747 271.267 278.92C271.133 279.096 271.061 279.448 271.052 279.98L271.052 281.687C271.037 282.16 271.106 282.631 271.255 283.079C271.371 283.412 271.601 283.692 271.904 283.87C272.199 284.041 272.411 284.03 272.542 283.84C272.673 283.647 272.742 283.28 272.747 282.732L272.747 281.064ZM284.422 253.36L283.216 252.665V247.293L281.776 246.974L281.775 245.851L284.293 246.263L284.423 246.339L284.422 253.36ZM285.153 228.064C285.154 229.035 284.98 229.677 284.631 229.989C284.284 230.304 283.774 230.267 283.103 229.877C282.443 229.499 281.914 228.931 281.584 228.246C281.218 227.471 281.034 226.623 281.045 225.767V224.476C281.045 223.497 281.221 222.855 281.573 222.551C281.925 222.247 282.433 222.286 283.095 222.668C283.754 223.047 284.284 223.615 284.615 224.299C284.981 225.072 285.165 225.919 285.154 226.774L285.153 228.064ZM283.947 225.95C283.964 225.477 283.894 225.006 283.739 224.559C283.62 224.236 283.392 223.964 283.095 223.79C282.811 223.627 282.602 223.632 282.467 223.806C282.332 223.982 282.26 224.334 282.251 224.866L282.252 226.573C282.237 227.046 282.305 227.517 282.454 227.965C282.57 228.297 282.8 228.578 283.103 228.756C283.398 228.927 283.611 228.916 283.742 228.726C283.873 228.533 283.942 228.166 283.946 227.617L283.947 225.95Z" fill="#654023"/>
<path d="M273.024 54.2313L271.818 53.5359V48.1637L270.378 47.8447L270.377 46.7227L272.895 47.1347L273.025 47.21L273.024 54.2313ZM273.024 28.3904L271.818 27.695V22.3227L270.378 22.0038L270.377 20.8815L272.895 21.2935L273.025 21.3688L273.024 28.3904ZM273.024 15.47L271.818 14.7744V9.40265L270.378 9.08372L270.377 7.96143L272.895 8.37343L273.025 8.44846L273.024 15.47ZM273.755 38.8285C273.756 39.7992 273.582 40.4406 273.233 40.7526C272.886 41.0675 272.376 41.0304 271.705 40.6412C271.045 40.263 270.516 39.6945 270.186 39.0102C269.82 38.2353 269.636 37.3873 269.646 36.5306V35.2399C269.647 34.2605 269.823 33.6188 270.174 33.3151C270.527 33.0106 271.035 33.0496 271.697 33.4322C272.356 33.811 272.886 34.3792 273.217 35.0629C273.583 35.836 273.767 36.6825 273.755 37.5376L273.755 38.8285ZM272.549 36.7141C272.566 36.2414 272.496 35.7696 272.341 35.3225C272.221 34.9998 271.994 34.7282 271.697 34.5539C271.413 34.3903 271.204 34.3961 271.068 34.5702C270.934 34.7456 270.862 35.0982 270.853 35.63L270.854 37.3371C270.838 37.8094 270.907 38.2807 271.056 38.7291C271.172 39.0612 271.402 39.3414 271.705 39.52C272 39.6904 272.213 39.6803 272.344 39.4896C272.474 39.297 272.544 38.9297 272.548 38.3815L272.549 36.7141Z" fill="#FF6F00"/>
<path d="M284.223 80.0716L283.017 79.3762V74.004L281.576 73.685L281.576 72.563L284.094 72.975L284.224 73.05L284.223 80.0716Z" fill="#FF6F00"/>
</g>
<path d="M66.8903 165.354C66.8903 166.826 68.0842 168.02 69.557 168.02C71.0298 168.02 72.2237 166.826 72.2237 165.354C72.2237 163.881 71.0298 162.687 69.557 162.687C68.0842 162.687 66.8903 163.881 66.8903 165.354ZM69.557 165.854L101.951 165.854L101.951 164.854L69.557 164.854L69.557 165.854Z" fill="url(#paint0_linear_3881_4039)"/>
<path d="M250.776 165.354C250.776 166.826 251.97 168.02 253.443 168.02C254.916 168.02 256.11 166.826 256.11 165.354C256.11 163.881 254.916 162.687 253.443 162.687C251.97 162.687 250.776 163.881 250.776 165.354ZM221.049 165.854L253.443 165.854L253.443 164.854L221.049 164.854L221.049 165.854Z" fill="url(#paint1_linear_3881_4039)"/>
<path d="M77.3709 212.516C77.3709 213.989 78.5648 215.183 80.0376 215.183C81.5104 215.183 82.7043 213.989 82.7043 212.516C82.7043 211.043 81.5104 209.849 80.0376 209.849C78.5648 209.849 77.3709 211.043 77.3709 212.516ZM95.282 202.988L95.282 202.488L95.1386 202.488L95.017 202.564L95.282 202.988ZM80.3026 212.94L95.547 203.412L95.017 202.564L79.7726 212.092L80.3026 212.94ZM95.282 203.488L110.526 203.488L110.526 202.488L95.282 202.488L95.282 203.488Z" fill="url(#paint2_linear_3881_4039)"/>
<path d="M74.0362 111.521C74.0362 112.994 75.2301 114.188 76.7029 114.188C78.1756 114.188 79.3695 112.994 79.3695 111.521C79.3695 110.049 78.1756 108.855 76.7029 108.855C75.2301 108.855 74.0362 110.049 74.0362 111.521ZM90.0418 121.049L89.7512 121.456L89.8815 121.549L90.0418 121.549L90.0418 121.049ZM76.4123 111.928L89.7512 121.456L90.3324 120.642L76.9935 111.115L76.4123 111.928ZM90.0418 121.549L103.381 121.549L103.381 120.549L90.0418 120.549L90.0418 121.549Z" fill="url(#paint3_linear_3881_4039)"/>
<path d="M232.958 121.049L232.958 121.549L233.119 121.549L233.249 121.456L232.958 121.049ZM243.631 111.521C243.631 112.994 244.825 114.188 246.297 114.188C247.77 114.188 248.964 112.994 248.964 111.521C248.964 110.049 247.77 108.855 246.297 108.855C244.825 108.855 243.631 110.049 243.631 111.521ZM219.62 121.549L232.958 121.549L232.958 120.549L219.62 120.549L219.62 121.549ZM233.249 121.456L246.588 111.928L246.007 111.115L232.668 120.642L233.249 121.456Z" fill="url(#paint4_linear_3881_4039)"/>
<path d="M227.718 202.988L227.983 202.564L227.861 202.488L227.718 202.488L227.718 202.988ZM240.296 212.516C240.296 213.989 241.49 215.183 242.963 215.183C244.435 215.183 245.629 213.989 245.629 212.516C245.629 211.043 244.435 209.849 242.963 209.849C241.49 209.849 240.296 211.043 240.296 212.516ZM212.474 203.488L227.718 203.488L227.718 202.488L212.474 202.488L212.474 203.488ZM227.453 203.412L242.698 212.94L243.228 212.092L227.983 202.564L227.453 203.412Z" fill="url(#paint5_linear_3881_4039)"/>
<path d="M138.157 238.956L138.657 238.956L138.657 239.097L138.583 239.218L138.157 238.956ZM131.296 254.438C131.296 255.911 130.102 257.105 128.629 257.105C127.156 257.105 125.963 255.911 125.963 254.438C125.963 252.966 127.156 251.772 128.629 251.772C130.102 251.772 131.296 252.966 131.296 254.438ZM138.657 225.855L138.657 238.956L137.657 238.956L137.657 225.855L138.657 225.855ZM138.583 239.218L129.055 254.7L128.203 254.176L137.731 238.694L138.583 239.218Z" fill="url(#paint6_linear_3881_4039)"/>
<path d="M123.581 75.3159C123.581 76.7887 124.775 77.9826 126.247 77.9826C127.72 77.9826 128.914 76.7887 128.914 75.3159C128.914 73.8432 127.72 72.6493 126.247 72.6493C124.775 72.6493 123.581 73.8432 123.581 75.3159ZM135.775 85.7965L136.275 85.7965L136.275 85.6032L136.145 85.4601L135.775 85.7965ZM125.877 75.6523L135.405 86.1328L136.145 85.4601L126.617 74.9796L125.877 75.6523ZM135.275 85.7965L135.275 100.088L136.275 100.088L136.275 85.7965L135.275 85.7965Z" fill="url(#paint7_linear_3881_4039)"/>
<path d="M184.843 239.194L184.419 239.459L184.343 239.337L184.343 239.194L184.843 239.194ZM197.038 254.438C197.038 255.911 195.844 257.105 194.371 257.105C192.898 257.105 191.704 255.911 191.704 254.438C191.704 252.966 192.898 251.772 194.371 251.772C195.844 251.772 197.038 252.966 197.038 254.438ZM185.343 225.855L185.343 239.194L184.343 239.194L184.343 225.855L185.343 225.855ZM185.267 238.929L194.795 254.173L193.947 254.703L184.419 239.459L185.267 238.929Z" fill="url(#paint8_linear_3881_4039)"/>
<path d="M194.086 75.3159C194.086 76.7887 195.28 77.9826 196.753 77.9826C198.226 77.9826 199.42 76.7887 199.42 75.3159C199.42 73.8432 198.226 72.6493 196.753 72.6493C195.28 72.6493 194.086 73.8432 194.086 75.3159ZM187.225 85.7965L186.855 85.4601L186.725 85.6032L186.725 85.7965L187.225 85.7965ZM196.383 74.9796L186.855 85.4601L187.595 86.1328L197.123 75.6523L196.383 74.9796ZM186.725 85.7965L186.725 100.088L187.725 100.088L187.725 85.7965L186.725 85.7965Z" fill="url(#paint9_linear_3881_4039)"/>
<path d="M73.3681 115.88C78.4061 115.88 82.4903 111.796 82.4903 106.758C82.4903 101.72 78.4061 97.6357 73.3681 97.6357C68.33 97.6357 64.2458 101.72 64.2458 106.758C64.2458 111.796 68.33 115.88 73.3681 115.88Z" fill="url(#paint10_linear_3881_4039)" stroke="#0062CC" stroke-width="3"/>
<path d="M249.632 115.88C254.67 115.88 258.754 111.796 258.754 106.758C258.754 101.72 254.67 97.6357 249.632 97.6357C244.594 97.6357 240.51 101.72 240.51 106.758C240.51 111.796 244.594 115.88 249.632 115.88Z" fill="url(#paint11_linear_3881_4039)" stroke="#0062CC" stroke-width="3"/>
<path d="M78.6083 222.591C83.6464 222.591 87.7305 218.507 87.7305 213.469C87.7305 208.431 83.6464 204.347 78.6083 204.347C73.5702 204.347 69.4861 208.431 69.4861 213.469C69.4861 218.507 73.5702 222.591 78.6083 222.591Z" fill="url(#paint12_linear_3881_4039)" stroke="#0062CC" stroke-width="3"/>
<circle cx="244.392" cy="213.469" r="9.12222" fill="url(#paint13_linear_3881_4039)" stroke="#0062CC" stroke-width="3"/>
<circle cx="196.753" cy="71.505" r="9.12222" fill="url(#paint14_linear_3881_4039)" stroke="#0062CC" stroke-width="3"/>
<path d="M126.247 80.6273C131.285 80.6273 135.369 76.5431 135.369 71.505C135.369 66.467 131.285 62.3828 126.247 62.3828C121.209 62.3828 117.125 66.467 117.125 71.505C117.125 76.5431 121.209 80.6273 126.247 80.6273Z" fill="url(#paint15_linear_3881_4039)" stroke="#0062CC" stroke-width="3"/>
<circle cx="194.847" cy="254.439" r="9.12222" fill="url(#paint16_linear_3881_4039)" stroke="#0062CC" stroke-width="3"/>
<circle cx="128.629" cy="254.439" r="9.12222" fill="url(#paint17_linear_3881_4039)" stroke="#0062CC" stroke-width="3"/>
<circle cx="63.3639" cy="164.877" r="9.12222" fill="url(#paint18_linear_3881_4039)" stroke="#0062CC" stroke-width="3"/>
<circle cx="259.636" cy="164.877" r="9.12222" fill="url(#paint19_linear_3881_4039)" stroke="#0062CC" stroke-width="3"/>
<g filter="url(#filter0_d_3881_4039)">
<path opacity="0.3" d="M61.1566 164.028L61.3868 162.098H60.6048L60.2038 163.829C60.1641 163.996 60.1998 164.162 60.3031 164.294C60.3586 164.365 60.4777 164.48 60.6762 164.48C60.9184 164.48 61.1248 164.286 61.1566 164.028Z" fill="white"/>
<path opacity="0.3" d="M62.4548 164.48C62.7486 164.48 62.9669 164.246 62.9669 163.96V162.098H62.1888L61.9705 163.893C61.9506 164.047 61.9983 164.202 62.1015 164.317C62.1928 164.421 62.3198 164.48 62.4548 164.48Z" fill="white"/>
<path opacity="0.3" d="M64.2452 164.48C64.408 164.48 64.531 164.421 64.6263 164.317C64.7256 164.202 64.7732 164.047 64.7573 163.893L64.539 162.098H63.7609V163.96C63.7609 164.246 63.9792 164.48 64.2452 164.48Z" fill="white"/>
<path opacity="0.3" d="M66.1071 162.094L65.3409 162.098L65.5712 164.028C65.603 164.286 65.8094 164.48 66.0516 164.48C66.2461 164.48 66.3691 164.365 66.4208 164.294C66.524 164.163 66.5597 163.992 66.52 163.829L66.1071 162.094Z" fill="white"/>
<path d="M67.2941 163.642L66.8773 161.908C66.7899 161.55 66.4803 161.304 66.119 161.304H60.6048C60.2475 161.304 59.9339 161.554 59.8505 161.908L59.4337 163.642C59.3384 164.047 59.4257 164.46 59.6798 164.786C59.7116 164.829 59.7553 164.861 59.791 164.901V167.656C59.791 168.093 60.1483 168.45 60.585 168.45H66.1428C66.5795 168.45 66.9368 168.093 66.9368 167.656V164.901C66.9725 164.865 67.0162 164.829 67.048 164.79C67.302 164.464 67.3934 164.047 67.2941 163.642ZM63.7609 162.098H64.539L64.7534 163.893C64.7732 164.047 64.7256 164.202 64.6224 164.317C64.535 164.421 64.408 164.48 64.2452 164.48C63.9792 164.48 63.7609 164.246 63.7609 163.96V162.098ZM61.9705 163.893L62.1888 162.098H62.9669V163.96C62.9669 164.246 62.7486 164.48 62.4548 164.48C62.3198 164.48 62.1967 164.421 62.1015 164.317C62.0022 164.202 61.9546 164.047 61.9705 163.893ZM60.3031 164.294C60.1999 164.163 60.1642 163.992 60.2038 163.829L60.6048 162.098H61.3869L61.1566 164.028C61.1249 164.286 60.9184 164.48 60.6763 164.48C60.4778 164.48 60.3587 164.365 60.3031 164.294ZM66.1428 167.656H60.585V165.262C60.6167 165.266 60.6445 165.274 60.6763 165.274C61.0217 165.274 61.3353 165.131 61.5655 164.897C61.8037 165.135 62.1213 165.274 62.4826 165.274C62.828 165.274 63.1376 165.131 63.3679 164.905C63.6021 165.131 63.9197 165.274 64.277 165.274C64.6104 165.274 64.928 165.135 65.1662 164.897C65.3965 165.131 65.7101 165.274 66.0555 165.274C66.0873 165.274 66.115 165.266 66.1468 165.262V167.656H66.1428ZM66.4247 164.294C66.3691 164.365 66.25 164.48 66.0515 164.48C65.8094 164.48 65.599 164.286 65.5712 164.028L65.3409 162.098L66.1071 162.094L66.5239 163.829C66.5636 163.996 66.5279 164.167 66.4247 164.294Z" fill="white"/>
</g>
<g clip-path="url(#clip0_3881_4039)" filter="url(#filter1_d_3881_4039)">
<path opacity="0.3" d="M257.369 162.495L259.438 161.408L261.506 162.495H257.369Z" fill="white"/>
<path d="M257.453 164.083H256.659V166.862H257.453V164.083ZM259.835 164.083H259.041V166.862H259.835V164.083ZM263.209 167.656H255.666V168.45H263.209V167.656ZM262.217 164.083H261.423V166.862H262.217V164.083ZM259.438 160.51L255.666 162.495V163.289H263.209V162.495L259.438 160.51ZM257.369 162.495L259.438 161.407L261.506 162.495H257.369Z" fill="white"/>
</g>
<g filter="url(#filter2_d_3881_4039)">
<path opacity="0.3" d="M246.853 108.743H252.411V106.758H246.853V108.743ZM251.418 107.155C251.748 107.155 252.014 107.421 252.014 107.75C252.014 108.08 251.748 108.346 251.418 108.346C251.089 108.346 250.823 108.08 250.823 107.75C250.823 107.421 251.089 107.155 251.418 107.155ZM247.846 107.155C248.175 107.155 248.441 107.421 248.441 107.75C248.441 108.08 248.175 108.346 247.846 108.346C247.516 108.346 247.25 108.08 247.25 107.75C247.25 107.421 247.516 107.155 247.846 107.155Z" fill="white"/>
<path d="M252.379 104.38C252.3 104.146 252.077 103.979 251.815 103.979H247.448C247.186 103.979 246.968 104.146 246.885 104.38L246.059 106.758V109.934C246.059 110.152 246.238 110.331 246.456 110.331H246.853C247.071 110.331 247.25 110.152 247.25 109.934V109.537H252.014V109.934C252.014 110.152 252.192 110.331 252.411 110.331H252.808C253.026 110.331 253.205 110.152 253.205 109.934V106.758L252.379 104.38ZM247.587 104.773H251.672L252.101 106.008H247.159L247.587 104.773ZM252.411 108.743H246.853V106.758H252.411V108.743Z" fill="white"/>
<path d="M247.845 108.346C248.174 108.346 248.441 108.079 248.441 107.75C248.441 107.421 248.174 107.155 247.845 107.155C247.517 107.155 247.25 107.421 247.25 107.75C247.25 108.079 247.517 108.346 247.845 108.346Z" fill="white"/>
<path d="M251.418 108.346C251.747 108.346 252.014 108.079 252.014 107.75C252.014 107.421 251.747 107.155 251.418 107.155C251.089 107.155 250.823 107.421 250.823 107.75C250.823 108.079 251.089 108.346 251.418 108.346Z" fill="white"/>
</g>
<g clip-path="url(#clip1_3881_4039)" filter="url(#filter3_d_3881_4039)">
<path d="M196.753 67.9321L192.783 71.505H193.974V74.681H196.356V72.299H197.15V74.681H199.532V71.505H200.723L196.753 67.9321ZM198.738 73.887H197.944V71.505H195.562V73.887H194.768V70.7865L196.753 69L198.738 70.7865V73.887Z" fill="white"/>
<path opacity="0.3" d="M194.768 70.7865V73.887H195.562V71.505H197.944V73.887H198.738V70.7865L196.753 69L194.768 70.7865Z" fill="white"/>
</g>
<g filter="url(#filter4_d_3881_4039)">
<path opacity="0.3" d="M128.431 69.9171C128.613 69.9171 128.792 69.8972 128.963 69.8694C128.407 68.9484 127.398 68.3291 126.247 68.3291C126.065 68.3291 125.886 68.349 125.715 68.3767C126.271 69.2978 127.279 69.9171 128.431 69.9171ZM124.691 68.738C124.012 69.1231 123.488 69.7503 123.238 70.5006C123.917 70.1156 124.441 69.4883 124.691 68.738Z" fill="white"/>
<path d="M126.247 67.5352C124.056 67.5352 122.277 69.3137 122.277 71.5051C122.277 73.6965 124.056 75.475 126.247 75.475C128.439 75.475 130.217 73.6965 130.217 71.5051C130.217 69.3137 128.439 67.5352 126.247 67.5352ZM126.247 68.3291C127.399 68.3291 128.407 68.9484 128.963 69.8695C128.792 69.8973 128.613 69.9171 128.431 69.9171C127.279 69.9171 126.271 69.2978 125.715 68.3768C125.886 68.349 126.065 68.3291 126.247 68.3291ZM124.691 68.738C124.441 69.4884 123.917 70.1156 123.238 70.5007C123.488 69.7504 124.012 69.1231 124.691 68.738ZM126.247 74.681C124.497 74.681 123.071 73.2558 123.071 71.5051C123.071 71.4852 123.075 71.4654 123.075 71.4455C124.107 71.0565 124.933 70.2585 125.354 69.2422C126.081 70.1394 127.188 70.7111 128.431 70.7111C128.728 70.7111 129.014 70.6754 129.292 70.6158C129.376 70.8977 129.423 71.1954 129.423 71.5051C129.423 73.2558 127.998 74.681 126.247 74.681Z" fill="white"/>
<path d="M125.056 72.3982C125.33 72.3982 125.553 72.1761 125.553 71.902C125.553 71.6279 125.33 71.4058 125.056 71.4058C124.782 71.4058 124.56 71.6279 124.56 71.902C124.56 72.1761 124.782 72.3982 125.056 72.3982Z" fill="white"/>
<path d="M127.438 72.3982C127.712 72.3982 127.934 72.1761 127.934 71.902C127.934 71.6279 127.712 71.4058 127.438 71.4058C127.164 71.4058 126.942 71.6279 126.942 71.902C126.942 72.1761 127.164 72.3982 127.438 72.3982Z" fill="white"/>
</g>
<g filter="url(#filter5_d_3881_4039)">
<path opacity="0.3" d="M195.244 251.262H192.465V257.614H197.229V253.247H195.244V251.262ZM196.435 256.82H193.259V256.026H196.435V256.82ZM196.435 254.438V255.232H193.259V254.438H196.435Z" fill="white"/>
<path d="M193.259 256.026H196.435V256.82H193.259V256.026ZM193.259 254.438H196.435V255.232H193.259V254.438ZM195.641 250.468H192.465C192.029 250.468 191.671 250.826 191.671 251.262V257.614C191.671 258.051 192.025 258.408 192.461 258.408H197.229C197.666 258.408 198.023 258.051 198.023 257.614V252.85L195.641 250.468ZM197.229 257.614H192.465V251.262H195.244V253.247H197.229V257.614Z" fill="white"/>
</g>
<g clip-path="url(#clip2_3881_4039)" filter="url(#filter6_d_3881_4039)">
<path opacity="0.3" d="M127.438 256.939C127.833 256.939 128.153 256.619 128.153 256.225C128.153 255.83 127.833 255.51 127.438 255.51C127.044 255.51 126.724 255.83 126.724 256.225C126.724 256.619 127.044 256.939 127.438 256.939Z" fill="white"/>
<path d="M127.438 257.654C128.228 257.654 128.867 257.014 128.867 256.225V252.652H130.297V251.223H128.153V254.992C127.942 254.871 127.699 254.796 127.438 254.796C126.649 254.796 126.009 255.435 126.009 256.225C126.009 257.014 126.649 257.654 127.438 257.654ZM127.438 255.51C127.831 255.51 128.153 255.832 128.153 256.225C128.153 256.618 127.831 256.939 127.438 256.939C127.045 256.939 126.724 256.618 126.724 256.225C126.724 255.832 127.045 255.51 127.438 255.51Z" fill="white"/>
</g>
<g filter="url(#filter7_d_3881_4039)">
<path opacity="0.3" d="M75.4325 215.851H81.7843V211.087H75.4325V215.851ZM77.4174 214.263H79.0054V213.866H77.8144C77.5961 213.866 77.4174 213.687 77.4174 213.469V212.278C77.4174 212.06 77.5961 211.881 77.8144 211.881H78.2114V211.484H79.0054V211.881H79.7994V212.675H78.2114V213.072H79.4024C79.6207 213.072 79.7994 213.251 79.7994 213.469V214.66C79.7994 214.878 79.6207 215.057 79.4024 215.057H79.0054V215.454H78.2114V215.057H77.4174V214.263Z" fill="white"/>
<path d="M81.7843 210.293H75.4324C74.9917 210.293 74.6424 210.646 74.6424 211.087L74.6384 215.851C74.6384 216.291 74.9917 216.645 75.4324 216.645H81.7843C82.2249 216.645 82.5782 216.291 82.5782 215.851V211.087C82.5782 210.646 82.2249 210.293 81.7843 210.293ZM81.7843 215.851H75.4324V211.087H81.7843V215.851ZM78.2113 215.454H79.0053V215.057H79.4023C79.6207 215.057 79.7993 214.878 79.7993 214.66V213.469C79.7993 213.251 79.6207 213.072 79.4023 213.072H78.2113V212.675H79.7993V211.881H79.0053V211.484H78.2113V211.881H77.8144C77.596 211.881 77.4174 212.06 77.4174 212.278V213.469C77.4174 213.687 77.596 213.866 77.8144 213.866H79.0053V214.263H77.4174V215.057H78.2113V215.454Z" fill="white"/>
</g>
<g clip-path="url(#clip3_3881_4039)" filter="url(#filter8_d_3881_4039)">
<path opacity="0.3" d="M243.201 212.675C243.53 212.675 243.796 212.408 243.796 212.079C243.796 211.75 243.53 211.484 243.201 211.484C242.872 211.484 242.605 211.75 242.605 212.079C242.605 212.408 242.872 212.675 243.201 212.675Z" fill="white"/>
<path opacity="0.3" d="M241.351 215.454H245.051C244.717 215.224 243.911 214.958 243.201 214.958C242.49 214.958 241.684 215.224 241.351 215.454Z" fill="white"/>
<path d="M243.201 213.469C243.967 213.469 244.59 212.846 244.59 212.079C244.59 211.313 243.967 210.69 243.201 210.69C242.434 210.69 241.811 211.313 241.811 212.079C241.811 212.846 242.434 213.469 243.201 213.469ZM243.201 211.484C243.53 211.484 243.796 211.75 243.796 212.079C243.796 212.409 243.53 212.675 243.201 212.675C242.871 212.675 242.605 212.409 242.605 212.079C242.605 211.75 242.871 211.484 243.201 211.484ZM243.201 214.164C242.272 214.164 240.422 214.628 240.422 215.553V216.248H245.98V215.553C245.98 214.628 244.13 214.164 243.201 214.164ZM241.351 215.454C241.684 215.224 242.49 214.958 243.201 214.958C243.911 214.958 244.717 215.224 245.051 215.454H241.351ZM245.995 214.187C246.456 214.521 246.774 214.966 246.774 215.553V216.248H248.362V215.553C248.362 214.751 246.972 214.295 245.995 214.187ZM245.583 213.469C246.349 213.469 246.972 212.846 246.972 212.079C246.972 211.313 246.349 210.69 245.583 210.69C245.368 210.69 245.17 210.742 244.987 210.829C245.237 211.182 245.384 211.615 245.384 212.079C245.384 212.544 245.237 212.977 244.987 213.33C245.17 213.417 245.368 213.469 245.583 213.469Z" fill="white"/>
</g>
<g filter="url(#filter9_d_3881_4039)">
<path opacity="0.3" d="M70.5892 109.573H76.1471V103.943H70.5892V109.573ZM70.9862 104.773H75.7501V105.567H70.9862V104.773ZM70.9862 106.361H75.7501V107.155H70.9862V106.361ZM70.9862 107.949H75.7501V108.743H70.9862V107.949Z" fill="white"/>
<path d="M76.3455 103.384L75.75 102.788L75.1545 103.384L74.5591 102.788L73.9636 103.384L73.3681 102.788L72.7726 103.384L72.1771 102.788L71.5816 103.384L70.9861 102.788L70.3907 103.384L69.7952 102.788V110.728L70.3907 110.132L70.9861 110.728L71.5816 110.132L72.1771 110.728L72.7726 110.132L73.3681 110.728L73.9636 110.132L74.5591 110.728L75.1545 110.132L75.75 110.728L76.3455 110.132L76.941 110.728V102.788L76.3455 103.384ZM76.147 109.573H70.5891V103.943H76.147V109.573ZM70.9861 107.949H75.75V108.743H70.9861V107.949ZM70.9861 106.361H75.75V107.155H70.9861V106.361ZM70.9861 104.773H75.75V105.567H70.9861V104.773Z" fill="white"/>
</g>
<path d="M161.5 239.67L128.096 220.415C111.963 211.119 101.951 193.807 101.951 175.216V111.283L161.5 89.6079L221.049 111.283V175.216C221.049 193.807 211.037 211.119 194.904 220.415L161.5 239.67ZM104.466 113.037V175.168C104.466 192.859 114.003 209.364 129.33 218.185L161.453 236.682L193.576 218.185C208.902 209.364 218.439 192.859 218.439 175.168V113.037L161.405 92.2639L104.466 113.037Z" fill="url(#paint20_linear_3881_4039)"/>
<path d="M161.392 101.896L114.085 119.927L114.038 173.64C114.038 189.155 121.915 203.485 134.726 211.219L161.297 227.304L187.916 211.219C200.727 203.485 208.651 189.155 208.651 173.64L208.699 119.927L161.392 101.896Z" fill="url(#paint21_linear_3881_4039)"/>
<g filter="url(#filter10_d_3881_4039)">
<path d="M148.2 200.774V201.723H158.794V199.341H152.538L158.639 189.405V188.437H148.665V190.819H154.32L148.2 200.774Z" fill="#FFD686"/>
<path d="M166.045 194.518V188.437H163.121V201.723H166.045V198.256L167.769 196.339L170.926 201.723H174.315L171.603 197.21C171.436 196.926 170.803 195.867 169.705 194.034L174.179 188.437H170.829L166.045 194.518Z" fill="#FFD686"/>
</g>
<path opacity="0.5" d="M114.192 119.927V124.387L161.499 106.309L208.806 124.435V119.975L161.499 101.896L114.192 119.927Z" fill="#FFD686" fill-opacity="0.12"/>
<path d="M179.375 146.007C178.45 145.505 177.176 144.849 175.633 144.194V139.371C175.633 131.618 169.345 125.33 161.592 125.33C153.838 125.33 147.55 131.618 147.55 139.371V144.194C146.007 144.849 144.734 145.467 143.808 146.007C142.689 146.624 142.033 147.781 142.033 149.054V169.886C142.033 171.159 142.728 172.316 143.808 172.933C146.74 174.592 153.105 177.485 161.592 177.485C170.078 177.485 176.444 174.592 179.375 172.933C180.494 172.316 181.15 171.159 181.15 169.886V149.054C181.188 147.82 180.494 146.624 179.375 146.007ZM165.218 168.767H158.004L159.045 159.277C157.657 158.428 156.692 156.885 156.692 155.111C156.692 152.41 158.891 150.211 161.592 150.211C164.292 150.211 166.491 152.41 166.491 155.111C166.491 156.885 165.565 158.428 164.138 159.277L165.218 168.767ZM171.274 142.766C168.497 142.033 165.256 141.493 161.63 141.493C158.004 141.493 154.725 142.033 151.986 142.766V139.41C151.986 134.086 156.307 129.766 161.63 129.766C166.954 129.766 171.274 134.086 171.274 139.41V142.766Z" fill="#FFD686"/>
<path d="M179.375 169.885C176.444 171.544 170.078 174.437 161.592 174.437C153.105 174.437 146.74 171.544 143.808 169.885C142.689 169.268 142.033 168.111 142.033 166.838V169.924C142.033 171.197 142.728 172.354 143.808 172.972C146.74 174.63 153.105 177.524 161.592 177.524C170.078 177.524 176.444 174.63 179.375 172.972C180.494 172.354 181.15 171.197 181.15 169.924V166.838C181.188 168.111 180.494 169.268 179.375 169.885Z" fill="url(#paint22_linear_3881_4039)"/>
<defs>
<filter id="filter0_d_3881_4039" x="28.6" y="133.113" width="69.5278" height="69.5278" filterUnits="userSpaceOnUse" color-interpolation-filters="sRGB">
<feFlood flood-opacity="0" result="BackgroundImageFix"/>
<feColorMatrix in="SourceAlpha" type="matrix" values="0 0 0 0 0 0 0 0 0 0 0 0 0 0 0 0 0 0 127 0" result="hardAlpha"/>
<feOffset dy="3"/>
<feGaussianBlur stdDeviation="15"/>
<feColorMatrix type="matrix" values="0 0 0 0 0 0 0 0 0 0 0 0 0 0 0 0 0 0 0.4 0"/>
<feBlend mode="normal" in2="BackgroundImageFix" result="effect1_dropShadow_3881_4039"/>
<feBlend mode="normal" in="SourceGraphic" in2="effect1_dropShadow_3881_4039" result="shape"/>
</filter>
<filter id="filter1_d_3881_4039" x="224.872" y="133.113" width="69.5278" height="69.5278" filterUnits="userSpaceOnUse" color-interpolation-filters="sRGB">
<feFlood flood-opacity="0" result="BackgroundImageFix"/>
<feColorMatrix in="SourceAlpha" type="matrix" values="0 0 0 0 0 0 0 0 0 0 0 0 0 0 0 0 0 0 127 0" result="hardAlpha"/>
<feOffset dy="3"/>
<feGaussianBlur stdDeviation="15"/>
<feColorMatrix type="matrix" values="0 0 0 0 0 0 0 0 0 0 0 0 0 0 0 0 0 0 0.4 0"/>
<feBlend mode="normal" in2="BackgroundImageFix" result="effect1_dropShadow_3881_4039"/>
<feBlend mode="normal" in="SourceGraphic" in2="effect1_dropShadow_3881_4039" result="shape"/>
</filter>
<filter id="filter2_d_3881_4039" x="214.868" y="74.9941" width="69.5278" height="69.5278" filterUnits="userSpaceOnUse" color-interpolation-filters="sRGB">
<feFlood flood-opacity="0" result="BackgroundImageFix"/>
<feColorMatrix in="SourceAlpha" type="matrix" values="0 0 0 0 0 0 0 0 0 0 0 0 0 0 0 0 0 0 127 0" result="hardAlpha"/>
<feOffset dy="3"/>
<feGaussianBlur stdDeviation="15"/>
<feColorMatrix type="matrix" values="0 0 0 0 0 0 0 0 0 0 0 0 0 0 0 0 0 0 0.4 0"/>
<feBlend mode="normal" in2="BackgroundImageFix" result="effect1_dropShadow_3881_4039"/>
<feBlend mode="normal" in="SourceGraphic" in2="effect1_dropShadow_3881_4039" result="shape"/>
</filter>
<filter id="filter3_d_3881_4039" x="161.989" y="39.7412" width="69.5277" height="69.5278" filterUnits="userSpaceOnUse" color-interpolation-filters="sRGB">
<feFlood flood-opacity="0" result="BackgroundImageFix"/>
<feColorMatrix in="SourceAlpha" type="matrix" values="0 0 0 0 0 0 0 0 0 0 0 0 0 0 0 0 0 0 127 0" result="hardAlpha"/>
<feOffset dy="3"/>
<feGaussianBlur stdDeviation="15"/>
<feColorMatrix type="matrix" values="0 0 0 0 0 0 0 0 0 0 0 0 0 0 0 0 0 0 0.4 0"/>
<feBlend mode="normal" in2="BackgroundImageFix" result="effect1_dropShadow_3881_4039"/>
<feBlend mode="normal" in="SourceGraphic" in2="effect1_dropShadow_3881_4039" result="shape"/>
</filter>
<filter id="filter4_d_3881_4039" x="91.4834" y="39.7412" width="69.5278" height="69.5278" filterUnits="userSpaceOnUse" color-interpolation-filters="sRGB">
<feFlood flood-opacity="0" result="BackgroundImageFix"/>
<feColorMatrix in="SourceAlpha" type="matrix" values="0 0 0 0 0 0 0 0 0 0 0 0 0 0 0 0 0 0 127 0" result="hardAlpha"/>
<feOffset dy="3"/>
<feGaussianBlur stdDeviation="15"/>
<feColorMatrix type="matrix" values="0 0 0 0 0 0 0 0 0 0 0 0 0 0 0 0 0 0 0.4 0"/>
<feBlend mode="normal" in2="BackgroundImageFix" result="effect1_dropShadow_3881_4039"/>
<feBlend mode="normal" in="SourceGraphic" in2="effect1_dropShadow_3881_4039" result="shape"/>
</filter>
<filter id="filter5_d_3881_4039" x="160.083" y="222.674" width="69.5278" height="69.5278" filterUnits="userSpaceOnUse" color-interpolation-filters="sRGB">
<feFlood flood-opacity="0" result="BackgroundImageFix"/>
<feColorMatrix in="SourceAlpha" type="matrix" values="0 0 0 0 0 0 0 0 0 0 0 0 0 0 0 0 0 0 127 0" result="hardAlpha"/>
<feOffset dy="3"/>
<feGaussianBlur stdDeviation="15"/>
<feColorMatrix type="matrix" values="0 0 0 0 0 0 0 0 0 0 0 0 0 0 0 0 0 0 0.4 0"/>
<feBlend mode="normal" in2="BackgroundImageFix" result="effect1_dropShadow_3881_4039"/>
<feBlend mode="normal" in="SourceGraphic" in2="effect1_dropShadow_3881_4039" result="shape"/>
</filter>
<filter id="filter6_d_3881_4039" x="93.8654" y="223.151" width="68.575" height="68.5752" filterUnits="userSpaceOnUse" color-interpolation-filters="sRGB">
<feFlood flood-opacity="0" result="BackgroundImageFix"/>
<feColorMatrix in="SourceAlpha" type="matrix" values="0 0 0 0 0 0 0 0 0 0 0 0 0 0 0 0 0 0 127 0" result="hardAlpha"/>
<feOffset dy="3"/>
<feGaussianBlur stdDeviation="15"/>
<feColorMatrix type="matrix" values="0 0 0 0 0 0 0 0 0 0 0 0 0 0 0 0 0 0 0.4 0"/>
<feBlend mode="normal" in2="BackgroundImageFix" result="effect1_dropShadow_3881_4039"/>
<feBlend mode="normal" in="SourceGraphic" in2="effect1_dropShadow_3881_4039" result="shape"/>
</filter>
<filter id="filter7_d_3881_4039" x="43.8445" y="181.705" width="69.5278" height="69.5278" filterUnits="userSpaceOnUse" color-interpolation-filters="sRGB">
<feFlood flood-opacity="0" result="BackgroundImageFix"/>
<feColorMatrix in="SourceAlpha" type="matrix" values="0 0 0 0 0 0 0 0 0 0 0 0 0 0 0 0 0 0 127 0" result="hardAlpha"/>
<feOffset dy="3"/>
<feGaussianBlur stdDeviation="15"/>
<feColorMatrix type="matrix" values="0 0 0 0 0 0 0 0 0 0 0 0 0 0 0 0 0 0 0.4 0"/>
<feBlend mode="normal" in2="BackgroundImageFix" result="effect1_dropShadow_3881_4039"/>
<feBlend mode="normal" in="SourceGraphic" in2="effect1_dropShadow_3881_4039" result="shape"/>
</filter>
<filter id="filter8_d_3881_4039" x="209.628" y="181.705" width="69.5277" height="69.5278" filterUnits="userSpaceOnUse" color-interpolation-filters="sRGB">
<feFlood flood-opacity="0" result="BackgroundImageFix"/>
<feColorMatrix in="SourceAlpha" type="matrix" values="0 0 0 0 0 0 0 0 0 0 0 0 0 0 0 0 0 0 127 0" result="hardAlpha"/>
<feOffset dy="3"/>
<feGaussianBlur stdDeviation="15"/>
<feColorMatrix type="matrix" values="0 0 0 0 0 0 0 0 0 0 0 0 0 0 0 0 0 0 0.4 0"/>
<feBlend mode="normal" in2="BackgroundImageFix" result="effect1_dropShadow_3881_4039"/>
<feBlend mode="normal" in="SourceGraphic" in2="effect1_dropShadow_3881_4039" result="shape"/>
</filter>
<filter id="filter9_d_3881_4039" x="38.6042" y="74.9941" width="69.5278" height="69.5278" filterUnits="userSpaceOnUse" color-interpolation-filters="sRGB">
<feFlood flood-opacity="0" result="BackgroundImageFix"/>
<feColorMatrix in="SourceAlpha" type="matrix" values="0 0 0 0 0 0 0 0 0 0 0 0 0 0 0 0 0 0 127 0" result="hardAlpha"/>
<feOffset dy="3"/>
<feGaussianBlur stdDeviation="15"/>
<feColorMatrix type="matrix" values="0 0 0 0 0 0 0 0 0 0 0 0 0 0 0 0 0 0 0.4 0"/>
<feBlend mode="normal" in2="BackgroundImageFix" result="effect1_dropShadow_3881_4039"/>
<feBlend mode="normal" in="SourceGraphic" in2="effect1_dropShadow_3881_4039" result="shape"/>
</filter>
<filter id="filter10_d_3881_4039" x="148.2" y="188.437" width="27.1146" height="14.2856" filterUnits="userSpaceOnUse" color-interpolation-filters="sRGB">
<feFlood flood-opacity="0" result="BackgroundImageFix"/>
<feColorMatrix in="SourceAlpha" type="matrix" values="0 0 0 0 0 0 0 0 0 0 0 0 0 0 0 0 0 0 127 0" result="hardAlpha"/>
<feOffset dx="1" dy="1"/>
<feComposite in2="hardAlpha" operator="out"/>
<feColorMatrix type="matrix" values="0 0 0 0 1 0 0 0 0 0.564706 0 0 0 0 0.168627 0 0 0 1 0"/>
<feBlend mode="normal" in2="BackgroundImageFix" result="effect1_dropShadow_3881_4039"/>
<feBlend mode="normal" in="SourceGraphic" in2="effect1_dropShadow_3881_4039" result="shape"/>
</filter>
<linearGradient id="paint0_linear_3881_4039" x1="69.557" y1="166.354" x2="101.951" y2="166.354" gradientUnits="userSpaceOnUse">
<stop stop-color="#4DA3FF"/>
<stop offset="1" stop-color="#007BFF"/>
</linearGradient>
<linearGradient id="paint1_linear_3881_4039" x1="221.049" y1="166.354" x2="253.443" y2="166.354" gradientUnits="userSpaceOnUse">
<stop stop-color="#4DA3FF"/>
<stop offset="1" stop-color="#007BFF"/>
</linearGradient>
<linearGradient id="paint2_linear_3881_4039" x1="80.0376" y1="212.516" x2="110.526" y2="212.516" gradientUnits="userSpaceOnUse">
<stop stop-color="#4DA3FF"/>
<stop offset="1" stop-color="#007BFF"/>
</linearGradient>
<linearGradient id="paint3_linear_3881_4039" x1="76.7029" y1="121.049" x2="103.381" y2="121.049" gradientUnits="userSpaceOnUse">
<stop stop-color="#4DA3FF"/>
<stop offset="1" stop-color="#007BFF"/>
</linearGradient>
<linearGradient id="paint4_linear_3881_4039" x1="219.62" y1="121.049" x2="246.297" y2="121.049" gradientUnits="userSpaceOnUse">
<stop stop-color="#4DA3FF"/>
<stop offset="1" stop-color="#007BFF"/>
</linearGradient>
<linearGradient id="paint5_linear_3881_4039" x1="212.474" y1="212.516" x2="242.963" y2="212.516" gradientUnits="userSpaceOnUse">
<stop stop-color="#4DA3FF"/>
<stop offset="1" stop-color="#007BFF"/>
</linearGradient>
<linearGradient id="paint6_linear_3881_4039" x1="138.157" y1="254.438" x2="128.629" y2="254.438" gradientUnits="userSpaceOnUse">
<stop stop-color="#4DA3FF"/>
<stop offset="1" stop-color="#007BFF"/>
</linearGradient>
<linearGradient id="paint7_linear_3881_4039" x1="126.247" y1="100.088" x2="135.775" y2="100.088" gradientUnits="userSpaceOnUse">
<stop stop-color="#4DA3FF"/>
<stop offset="1" stop-color="#007BFF"/>
</linearGradient>
<linearGradient id="paint8_linear_3881_4039" x1="194.371" y1="254.438" x2="184.843" y2="254.438" gradientUnits="userSpaceOnUse">
<stop stop-color="#4DA3FF"/>
<stop offset="1" stop-color="#007BFF"/>
</linearGradient>
<linearGradient id="paint9_linear_3881_4039" x1="187.225" y1="100.088" x2="196.753" y2="100.088" gradientUnits="userSpaceOnUse">
<stop stop-color="#4DA3FF"/>
<stop offset="1" stop-color="#007BFF"/>
</linearGradient>
<linearGradient id="paint10_linear_3881_4039" x1="65.7458" y1="114.38" x2="80.9903" y2="114.38" gradientUnits="userSpaceOnUse">
<stop stop-color="#4DA3FF"/>
<stop offset="1" stop-color="#007BFF"/>
</linearGradient>
<linearGradient id="paint11_linear_3881_4039" x1="242.01" y1="114.38" x2="257.254" y2="114.38" gradientUnits="userSpaceOnUse">
<stop stop-color="#4DA3FF"/>
<stop offset="1" stop-color="#007BFF"/>
</linearGradient>
<linearGradient id="paint12_linear_3881_4039" x1="70.9861" y1="221.091" x2="86.2305" y2="221.091" gradientUnits="userSpaceOnUse">
<stop stop-color="#4DA3FF"/>
<stop offset="1" stop-color="#007BFF"/>
</linearGradient>
<linearGradient id="paint13_linear_3881_4039" x1="236.77" y1="221.091" x2="252.014" y2="221.091" gradientUnits="userSpaceOnUse">
<stop stop-color="#4DA3FF"/>
<stop offset="1" stop-color="#007BFF"/>
</linearGradient>
<linearGradient id="paint14_linear_3881_4039" x1="189.131" y1="79.1273" x2="204.375" y2="79.1273" gradientUnits="userSpaceOnUse">
<stop stop-color="#4DA3FF"/>
<stop offset="1" stop-color="#007BFF"/>
</linearGradient>
<linearGradient id="paint15_linear_3881_4039" x1="118.625" y1="79.1273" x2="133.869" y2="79.1273" gradientUnits="userSpaceOnUse">
<stop stop-color="#4DA3FF"/>
<stop offset="1" stop-color="#007BFF"/>
</linearGradient>
<linearGradient id="paint16_linear_3881_4039" x1="187.225" y1="262.061" x2="202.47" y2="262.061" gradientUnits="userSpaceOnUse">
<stop stop-color="#4DA3FF"/>
<stop offset="1" stop-color="#007BFF"/>
</linearGradient>
<linearGradient id="paint17_linear_3881_4039" x1="121.007" y1="262.061" x2="136.251" y2="262.061" gradientUnits="userSpaceOnUse">
<stop stop-color="#4DA3FF"/>
<stop offset="1" stop-color="#007BFF"/>
</linearGradient>
<linearGradient id="paint18_linear_3881_4039" x1="55.7417" y1="172.499" x2="70.9861" y2="172.499" gradientUnits="userSpaceOnUse">
<stop stop-color="#4DA3FF"/>
<stop offset="1" stop-color="#007BFF"/>
</linearGradient>
<linearGradient id="paint19_linear_3881_4039" x1="252.014" y1="172.499" x2="267.258" y2="172.499" gradientUnits="userSpaceOnUse">
<stop stop-color="#4DA3FF"/>
<stop offset="1" stop-color="#007BFF"/>
</linearGradient>
<linearGradient id="paint20_linear_3881_4039" x1="96.2269" y1="130.975" x2="226.305" y2="191.923" gradientUnits="userSpaceOnUse">
<stop offset="0.5051" stop-color="#FFD686"/>
<stop offset="1" stop-color="#FF6F00"/>
</linearGradient>
<linearGradient id="paint21_linear_3881_4039" x1="140.22" y1="208.837" x2="178.005" y2="105.268" gradientUnits="userSpaceOnUse">
<stop stop-color="#FF6F00" stop-opacity="0.03"/>
<stop offset="1" stop-color="#FF6F00" stop-opacity="0.2"/>
</linearGradient>
<linearGradient id="paint22_linear_3881_4039" x1="142.032" y1="172.173" x2="181.177" y2="172.173" gradientUnits="userSpaceOnUse">
<stop stop-color="#FFD686"/>
<stop offset="1" stop-color="#FF6F00" stop-opacity="0.708"/>
</linearGradient>
<clipPath id="clip0_3881_4039">
<rect width="9.52777" height="9.52779" fill="white" transform="translate(254.872 160.113)"/>
</clipPath>
<clipPath id="clip1_3881_4039">
<rect width="9.52777" height="9.52778" fill="white" transform="translate(191.989 66.7412)"/>
</clipPath>
<clipPath id="clip2_3881_4039">
<rect width="8.575" height="8.57501" fill="white" transform="translate(123.865 250.151)"/>
</clipPath>
<clipPath id="clip3_3881_4039">
<rect width="9.52777" height="9.52777" fill="white" transform="translate(239.628 208.705)"/>
</clipPath>
</defs>
</svg>
