<svg width="32" height="33" viewBox="0 0 32 33" fill="none" xmlns="http://www.w3.org/2000/svg">
<path d="M16 1.14014C7.5168 1.14014 0.639999 8.01694 0.639999 16.5001C0.639999 24.9833 7.5168 31.8601 16 31.8601C24.4832 31.8601 31.36 24.9833 31.36 16.5001C31.36 8.01694 24.4832 1.14014 16 1.14014ZM12.24 22.8665H9.1296V12.8569H12.24V22.8665ZM10.6656 11.6281C9.6832 11.6281 9.048 10.9321 9.048 10.0713C9.048 9.19294 9.7024 8.51774 10.7056 8.51774C11.7088 8.51774 12.3232 9.19294 12.3424 10.0713C12.3424 10.9321 11.7088 11.6281 10.6656 11.6281ZM23.6 22.8665H20.4896V17.3193C20.4896 16.0281 20.0384 15.1513 18.9136 15.1513C18.0544 15.1513 17.544 15.7449 17.3184 16.3161C17.2352 16.5193 17.2144 16.8073 17.2144 17.0937V22.8649H14.1024V16.0489C14.1024 14.7993 14.0624 13.7545 14.0208 12.8553H16.7232L16.8656 14.2457H16.928C17.3376 13.5929 18.3408 12.6297 20.0192 12.6297C22.0656 12.6297 23.6 14.0009 23.6 16.9481V22.8665Z" fill="white"/>
</svg>
