<svg width="32" height="33" viewBox="0 0 32 33" fill="none" xmlns="http://www.w3.org/2000/svg">
<g clip-path="url(#clip0_5497_1876)">
<path d="M16 0.5C7.16429 0.5 0 7.66429 0 16.5C0 25.3357 7.16429 32.5 16 32.5C24.8357 32.5 32 25.3357 32 16.5C32 7.66429 24.8357 0.5 16 0.5ZM25.1429 9.56071L23.6857 10.9571C23.5571 11.0536 23.4964 11.2107 23.5214 11.3643V21.6393C23.4964 21.7964 23.5571 21.9536 23.6857 22.0464L25.1143 23.4429V23.7536H17.9429V23.4571L19.4179 22.025C19.5643 21.8786 19.5643 21.8357 19.5643 21.6179V13.3036L15.4571 23.7179H14.9036L10.125 13.3036V20.2857C10.0821 20.5786 10.1857 20.875 10.3929 21.0857L12.3143 23.4107V23.7214H6.85714V23.4107L8.77857 21.0857C8.87981 20.9811 8.95515 20.8543 8.99856 20.7154C9.04197 20.5765 9.05225 20.4293 9.02857 20.2857V12.2143C9.05357 11.9893 8.96786 11.7714 8.79643 11.6179L7.08929 9.56071V9.25H12.3929L16.4857 18.2321L20.0893 9.25714H25.1429V9.56071Z" fill="white"/>
</g>
<defs>
<clipPath id="clip0_5497_1876">
<rect width="32" height="32" fill="white" transform="translate(0 0.5)"/>
</clipPath>
</defs>
</svg>
