<svg width="32" height="33" viewBox="0 0 32 33" fill="none" xmlns="http://www.w3.org/2000/svg">
<g clip-path="url(#clip0_5497_1892)">
<path fill-rule="evenodd" clip-rule="evenodd" d="M0 16.5C0 7.66429 7.16429 0.5 16 0.5C24.8357 0.5 32 7.66429 32 16.5C32 25.3357 24.8357 32.5 16 32.5C7.16429 32.5 0 25.3357 0 16.5ZM23.8666 9.87199L20.9007 24.1384C20.8308 24.4752 20.4358 24.6279 20.1571 24.4254L16.1084 21.4859C15.8626 21.3074 15.5274 21.3169 15.2921 21.5087L13.0473 23.3386C12.7868 23.5516 12.3942 23.4329 12.2945 23.112L10.7358 18.0992L6.7087 16.5962C6.29963 16.443 6.29614 15.8655 6.70404 15.7084L23.2311 9.33265C23.5815 9.19716 23.943 9.50408 23.8666 9.87199ZM19.9137 12.4518L12.0434 17.2991C11.7417 17.4852 11.5997 17.8495 11.697 18.1906L12.548 21.1806C12.6085 21.3924 12.9159 21.3708 12.9453 21.1519L13.1665 19.5122C13.2083 19.2035 13.3554 18.919 13.5838 18.7065L20.079 12.6689C20.2006 12.5562 20.0551 12.365 19.9137 12.4518Z" fill="white"/>
</g>
<defs>
<clipPath id="clip0_5497_1892">
<rect width="32" height="32" fill="white" transform="translate(0 0.5)"/>
</clipPath>
</defs>
</svg>
