<svg width="32" height="33" viewBox="0 0 32 33" fill="none" xmlns="http://www.w3.org/2000/svg">
<g clip-path="url(#clip0_5497_1884)">
<path d="M16 0.5C7.16429 0.5 0 7.66429 0 16.5C0 25.3357 7.16429 32.5 16 32.5C24.8357 32.5 32 25.3357 32 16.5C32 7.66429 24.8357 0.5 16 0.5ZM23.6893 12.5607C23.7 12.7286 23.7 12.9036 23.7 13.075C23.7 18.3179 19.7071 24.3571 12.4107 24.3571C10.1607 24.3571 8.075 23.7036 6.31786 22.5786C6.63929 22.6143 6.94643 22.6286 7.275 22.6286C9.13214 22.6286 10.8393 22 12.2 20.9357C10.4571 20.9 8.99286 19.7571 8.49286 18.1857C9.10357 18.275 9.65357 18.275 10.2821 18.1143C9.38474 17.932 8.57812 17.4446 7.99934 16.7349C7.42056 16.0253 7.10531 15.1372 7.10714 14.2214V14.1714C7.63214 14.4679 8.25 14.65 8.89643 14.675C8.35301 14.3128 7.90735 13.8222 7.59897 13.2465C7.29059 12.6709 7.12901 12.028 7.12857 11.375C7.12857 10.6357 7.32143 9.96071 7.66786 9.375C8.66394 10.6012 9.9069 11.6041 11.3159 12.3184C12.725 13.0328 14.2686 13.4427 15.8464 13.5214C15.2857 10.825 17.3 8.64286 19.7214 8.64286C20.8643 8.64286 21.8929 9.12143 22.6179 9.89286C23.5143 9.725 24.3714 9.38929 25.1357 8.93929C24.8393 9.85714 24.2179 10.6321 23.3929 11.1214C24.1929 11.0357 24.9643 10.8143 25.6786 10.5036C25.1393 11.2964 24.4643 12 23.6893 12.5607Z" fill="white"/>
</g>
<defs>
<clipPath id="clip0_5497_1884">
<rect width="32" height="32" fill="white" transform="translate(0 0.5)"/>
</clipPath>
</defs>
</svg>
