<svg width="32" height="33" viewBox="0 0 32 33" fill="none" xmlns="http://www.w3.org/2000/svg">
<g clip-path="url(#clip0_5497_1888)">
<path fill-rule="evenodd" clip-rule="evenodd" d="M0 16.5C0 7.66429 7.16429 0.5 16 0.5C24.8357 0.5 32 7.66429 32 16.5C32 25.3357 24.8357 32.5 16 32.5C7.16429 32.5 0 25.3357 0 16.5ZM25.0675 11.8864C24.9586 11.484 24.7462 11.1172 24.4514 10.8225C24.1567 10.5277 23.7899 10.3153 23.3875 10.2064C21.9144 9.80469 15.9857 9.80469 15.9857 9.80469C15.9857 9.80469 10.057 9.81686 8.584 10.2186C8.18162 10.3275 7.81479 10.5399 7.52003 10.8346C7.22527 11.1294 7.01288 11.4962 6.904 11.8986C6.45843 14.516 6.28556 18.5042 6.91617 21.0169C7.02505 21.4192 7.23745 21.7861 7.53221 22.0808C7.82696 22.3756 8.19379 22.588 8.59617 22.6969C10.0692 23.0986 15.9979 23.0986 15.9979 23.0986C15.9979 23.0986 21.9266 23.0986 23.3997 22.6969C23.802 22.588 24.1689 22.3756 24.4636 22.0808C24.7584 21.7861 24.9708 21.4192 25.0796 21.0169C25.5496 18.3958 25.6944 14.4101 25.0675 11.8864ZM14.0988 19.3004L19.0171 16.4517L14.0988 13.603V19.3004Z" fill="white"/>
</g>
<defs>
<clipPath id="clip0_5497_1888">
<rect width="32" height="32" fill="white" transform="translate(0 0.5)"/>
</clipPath>
</defs>
</svg>
