<?xml version="1.0" encoding="utf-8"?>
<!-- Generator: Adobe Illustrator 22.1.0, SVG Export Plug-In . SVG Version: 6.00 Build 0)  -->
<svg version="1.1" id="Layer_1" xmlns="http://www.w3.org/2000/svg" xmlns:xlink="http://www.w3.org/1999/xlink" x="0px" y="0px"
	 viewBox="0 0 244.5 1031" style="enable-background:new 0 0 244.5 1031;" xml:space="preserve">
<style type="text/css">
	.st0{opacity:0.5;fill:#DADADA;enable-background:new    ;}
	.st1{fill:none;}
	.st2{opacity:0.3;fill:#878787;enable-background:new    ;}
	.st3{opacity:0.5;fill:#B2B2B2;enable-background:new    ;}
</style>
<title>Element / Image / Graphics / Vertical / Greyscale</title>
<desc>Created with Sketch.</desc>
<g id="Element-_x2F_-Image-_x2F_-Graphics-_x2F_-Vertical-_x2F_-Greyscale">
	<path id="Mask" class="st0" d="M148.3,418.1c0,9.5-6.5,17.3-14.5,17.3s-14.5-7.7-14.5-17.3V133.2c0-9.5,6.5-17.3,14.5-17.3
		s14.5,7.7,14.5,17.3V418.1z"/>
	<path id="Mask_1_" class="st0" d="M195.5,665.6c0,9.5-6.5,17.3-14.5,17.3s-14.5-7.7-14.5-17.3V380.7c0-9.5,6.5-17.3,14.5-17.3
		s14.5,7.7,14.5,17.3V665.6z"/>
	<polygon id="Mask_2_" class="st1" points="167,711 196.1,711 196.1,1030.5 167,1030.5 	"/>
	<path id="Mask_3_" class="st0" d="M196.1,1013.3c0,9.5-6.5,17.3-14.5,17.3s-14.5-7.7-14.5-17.3v-285c0-9.5,6.5-17.3,14.5-17.3
		s14.5,7.7,14.5,17.3V1013.3z"/>
	<polygon id="Mask_4_" class="st1" points="75,0 104.1,0 104.1,319.5 75,319.5 	"/>
	<path id="Mask_5_" class="st0" d="M104.1,302.2c0,9.5-6.5,17.3-14.5,17.3s-14.5-7.7-14.5-17.3V17.3C75,7.7,81.5,0,89.5,0
		S104,7.7,104,17.3v72.9L104.1,302.2L104.1,302.2z"/>
	<path id="Mask_6_" class="st0" d="M104.1,649.6c0,9.5-6.5,17.3-14.5,17.3s-14.5-7.7-14.5-17.3V364.7c0-9.5,6.5-17.3,14.5-17.3
		s14.5,7.7,14.5,17.3V649.6z"/>
	<path id="Mask_7_" class="st0" d="M60,707c0,9.5-6.5,17.3-14.5,17.3S31,716.6,31,707V422c0-9.5,6.5-17.3,14.5-17.3S60,412.4,60,422
		V707z"/>
	<path id="Mask_8_" class="st0" d="M148.3,871.4c0,9.5-6.5,17.3-14.5,17.3s-14.5-7.7-14.5-17.3v-285c0-9.5,6.5-17.3,14.5-17.3
		s14.5,7.7,14.5,17.3V871.4z"/>
	<path id="Mask_9_" class="st2" d="M104.1,914.4c0,9.5-6.5,17.3-14.5,17.3s-14.5-7.7-14.5-17.3V796.7c0-9.5,6.5-17.3,14.5-17.3
		s14.5,7.7,14.5,17.3V914.4z"/>
	<path id="Mask_10_" class="st1" d="M167,200.3V318c0,9.5,6.5,17.3,14.5,17.3S196,327.6,196,318V200.3c0-9.5-6.5-17.3-14.5-17.3
		S167,190.7,167,200.3"/>
	<path id="Mask_11_" class="st2" d="M167,200.3V318c0,9.5,6.5,17.3,14.5,17.3S196,327.6,196,318V200.3c0-9.5-6.5-17.3-14.5-17.3
		S167,190.7,167,200.3"/>
	<path id="Mask_12_" class="st1" d="M31,136.3V254c0,9.5,6.5,17.3,14.5,17.3S60,263.6,60,254V136.3c0-9.5-6.5-17.3-14.5-17.3
		S31,126.7,31,136.3"/>
	<path id="Mask_13_" class="st3" d="M31,136.3V254c0,9.5,6.5,17.3,14.5,17.3S60,263.6,60,254V136.3c0-9.5-6.5-17.3-14.5-17.3
		S31,126.7,31,136.3"/>
	<path id="Mask_14_" class="st1" d="M119.2,481v42.3c0,9.5,6.5,17.3,14.5,17.3s14.5-7.7,14.5-17.3V495v-14c0-9.5-6.5-17.3-14.5-17.3
		S119.2,471.5,119.2,481"/>
	<path id="Mask_15_" class="st3" d="M119.2,481v42.3c0,9.5,6.5,17.3,14.5,17.3s14.5-7.7,14.5-17.3V495v-14c0-9.5-6.5-17.3-14.5-17.3
		S119.2,471.5,119.2,481"/>
	<path id="Mask_16_" class="st2" d="M104.1,743.7c0,9.5-6.5,17.3-14.5,17.3s-14.5-7.7-14.5-17.3v-42.3c0-9.5,6.5-17.3,14.5-17.3
		s14.5,7.7,14.5,17.3v14V743.7z"/>
	<line id="Mask_35_" class="st1" x1="14.5" y1="226.3" x2="14.5" y2="545.8"/>
	<path id="Mask_34_" class="st0" d="M0,226.3c8,0,14.5,7.7,14.5,17.3v284.9c0,9.5-6.5,17.3-14.5,17.3V226.3z"/>
	<line id="Mask_33_" class="st1" x1="14.5" y1="658.3" x2="14.5" y2="810.6"/>
	<path id="Mask_32_" class="st3" d="M0,658.3c8,0,14.5,7.7,14.5,17.3v117.7c0,9.5-6.5,17.3-14.5,17.3V658.3z"/>
	<path id="Mask_31_" class="st1" d="M0,640c8,0,14.5-7.7,14.5-17.3v-28.3v-14c0-9.5-6.5-17.3-14.5-17.3"/>
	<path id="Mask_30_" class="st2" d="M0,640c8,0,14.5-7.7,14.5-17.3v-28.3v-14c0-9.5-6.5-17.3-14.5-17.3V640z"/>
	<path id="Mask_23_" class="st1" d="M31,316.9v42.3c0,9.5,6.5,17.3,14.5,17.3S60,368.8,60,359.2v-28.3v-14c0-9.5-6.5-17.3-14.5-17.3
		S31,307.3,31,316.9"/>
	<path id="Mask_24_" class="st2" d="M31,316.9v42.3c0,9.5,6.5,17.3,14.5,17.3S60,368.8,60,359.2v-28.3v-14c0-9.5-6.5-17.3-14.5-17.3
		S31,307.3,31,316.9"/>
	<path id="Mask_25_" class="st1" d="M215.1,438.9v284.9c0,9.5,6.5,17.3,14.5,17.3s14.5-7.7,14.5-17.3V438.9
		c0-9.5-6.5-17.3-14.5-17.3S215.1,429.3,215.1,438.9"/>
	<path id="Mask_26_" class="st3" d="M215.1,438.9v284.9c0,9.5,6.5,17.3,14.5,17.3s14.5-7.7,14.5-17.3V438.9
		c0-9.5-6.5-17.3-14.5-17.3S215.1,429.3,215.1,438.9"/>
	<path id="Mask_27_" class="st1" d="M215.1,152.9v117.7c0,9.5,6.5,17.3,14.5,17.3s14.5-7.7,14.5-17.3V152.9
		c0-9.5-6.5-17.3-14.5-17.3C221.6,135.6,215.1,143.3,215.1,152.9"/>
	<path id="Mask_28_" class="st2" d="M215.1,152.9v117.7c0,9.5,6.5,17.3,14.5,17.3s14.5-7.7,14.5-17.3V152.9
		c0-9.5-6.5-17.3-14.5-17.3C221.6,135.6,215.1,143.3,215.1,152.9"/>
	<path id="Mask_29_" class="st0" d="M244.2,376.1c0,9.5-6.5,17.3-14.5,17.3s-14.5-7.7-14.5-17.3v-42.3c0-9.5,6.5-17.3,14.5-17.3
		s14.5,7.7,14.5,17.3v14V376.1z"/>
</g>
</svg>
