<?xml version="1.0" encoding="utf-8"?>
<!-- Generator: Adobe Illustrator 22.1.0, SVG Export Plug-In . SVG Version: 6.00 Build 0)  -->
<svg version="1.1" id="Layer_1" xmlns="http://www.w3.org/2000/svg" xmlns:xlink="http://www.w3.org/1999/xlink" x="0px" y="0px"
	 viewBox="0 0 244.2 1031" style="enable-background:new 0 0 244.2 1031;" xml:space="preserve">
<style type="text/css">
	.st0{opacity:0.5;fill:#DADADA;enable-background:new    ;}
	.st1{fill:none;}
	.st2{opacity:0.3;fill:#878787;enable-background:new    ;}
	.st3{opacity:0.5;fill:#B2B2B2;enable-background:new    ;}
</style>
<title>Element / Image / Graphics / Vertical / Greyscale</title>
<desc>Created with Sketch.</desc>
<g id="Element-_x2F_-Image-_x2F_-Graphics-_x2F_-Vertical-_x2F_-Greyscale">
	<path id="Mask" class="st0" d="M162.8,418.1c0,9.5-6.5,17.3-14.5,17.3c-8,0-14.5-7.7-14.5-17.3V133.2c0-9.5,6.5-17.3,14.5-17.3
		c8,0,14.5,7.7,14.5,17.3V418.1z"/>
	<path id="Mask_1_" class="st0" d="M210,665.6c0,9.5-6.5,17.3-14.5,17.3c-8,0-14.5-7.7-14.5-17.3V380.7c0-9.5,6.5-17.3,14.5-17.3
		c8,0,14.5,7.7,14.5,17.3V665.6z"/>
	<polygon id="Mask_2_" class="st1" points="181.5,711 210.6,711 210.6,1030.5 181.5,1030.5 	"/>
	<path id="Mask_3_" class="st0" d="M210.6,1013.3c0,9.5-6.5,17.3-14.5,17.3c-8,0-14.5-7.7-14.5-17.3V728.3c0-9.5,6.5-17.3,14.5-17.3
		c8,0,14.5,7.7,14.5,17.3V1013.3z"/>
	<polygon id="Mask_4_" class="st1" points="89.5,0 118.6,0 118.6,319.5 89.5,319.5 	"/>
	<path id="Mask_5_" class="st0" d="M118.6,302.2c0,9.5-6.5,17.3-14.5,17.3c-8,0-14.5-7.7-14.5-17.3V17.3C89.5,7.7,96,0,104.1,0
		c8,0,14.5,7.7,14.5,17.3v72.9V302.2z"/>
	<path id="Mask_6_" class="st0" d="M118.6,649.6c0,9.5-6.5,17.3-14.5,17.3c-8,0-14.5-7.7-14.5-17.3V364.7c0-9.5,6.5-17.3,14.5-17.3
		c8,0,14.5,7.7,14.5,17.3V649.6z"/>
	<path id="Mask_7_" class="st0" d="M74.6,707c0,9.5-6.5,17.3-14.5,17.3c-8,0-14.5-7.7-14.5-17.3V422c0-9.5,6.5-17.3,14.5-17.3
		c8,0,14.5,7.7,14.5,17.3V707z"/>
	<path id="Mask_8_" class="st0" d="M162.8,871.4c0,9.5-6.5,17.3-14.5,17.3c-8,0-14.5-7.7-14.5-17.3V586.4c0-9.5,6.5-17.3,14.5-17.3
		c8,0,14.5,7.7,14.5,17.3V871.4z"/>
	<path id="Mask_9_" class="st2" d="M118.6,914.4c0,9.5-6.5,17.3-14.5,17.3c-8,0-14.5-7.7-14.5-17.3V796.7c0-9.5,6.5-17.3,14.5-17.3
		c8,0,14.5,7.7,14.5,17.3V914.4z"/>
	<path id="Mask_10_" class="st1" d="M181.5,200.3V318c0,9.5,6.5,17.3,14.5,17.3c8,0,14.5-7.7,14.5-17.3V200.3
		c0-9.5-6.5-17.3-14.5-17.3C188,183,181.5,190.7,181.5,200.3"/>
	<path id="Mask_11_" class="st2" d="M181.5,200.3V318c0,9.5,6.5,17.3,14.5,17.3c8,0,14.5-7.7,14.5-17.3V200.3
		c0-9.5-6.5-17.3-14.5-17.3C188,183,181.5,190.7,181.5,200.3"/>
	<path id="Mask_12_" class="st1" d="M45.5,136.3V254c0,9.5,6.5,17.3,14.5,17.3c8,0,14.5-7.7,14.5-17.3V136.3
		c0-9.5-6.5-17.3-14.5-17.3C52,119,45.5,126.7,45.5,136.3"/>
	<path id="Mask_13_" class="st3" d="M45.5,136.3V254c0,9.5,6.5,17.3,14.5,17.3c8,0,14.5-7.7,14.5-17.3V136.3
		c0-9.5-6.5-17.3-14.5-17.3C52,119,45.5,126.7,45.5,136.3"/>
	<path id="Mask_14_" class="st1" d="M133.7,481v42.3c0,9.5,6.5,17.3,14.5,17.3c8,0,14.5-7.7,14.5-17.3V495v-14
		c0-9.5-6.5-17.3-14.5-17.3C140.2,463.7,133.7,471.5,133.7,481"/>
	<path id="Mask_15_" class="st3" d="M133.7,481v42.3c0,9.5,6.5,17.3,14.5,17.3c8,0,14.5-7.7,14.5-17.3V495v-14
		c0-9.5-6.5-17.3-14.5-17.3C140.2,463.7,133.7,471.5,133.7,481"/>
	<path id="Mask_16_" class="st2" d="M118.6,743.7c0,9.5-6.5,17.3-14.5,17.3c-8,0-14.5-7.7-14.5-17.3v-42.3c0-9.5,6.5-17.3,14.5-17.3
		c8,0,14.5,7.7,14.5,17.3v14V743.7z"/>
	<polygon id="Mask_17_" class="st1" points="0,226.3 29.1,226.3 29.1,545.8 0,545.8 	"/>
	<path id="Mask_18_" class="st0" d="M29.1,528.5c0,9.5-6.5,17.3-14.5,17.3c-8,0-14.5-7.7-14.5-17.3V243.6c0-9.5,6.5-17.3,14.5-17.3
		c8,0,14.5,7.7,14.5,17.3V528.5z"/>
	<polygon id="Mask_19_" class="st1" points="0,658.3 29.1,658.3 29.1,810.6 0,810.6 	"/>
	<path id="Mask_20_" class="st3" d="M29.1,793.3c0,9.5-6.5,17.3-14.5,17.3c-8,0-14.5-7.7-14.5-17.3V675.6c0-9.5,6.5-17.3,14.5-17.3
		c8,0,14.5,7.7,14.5,17.3V793.3z"/>
	<path id="Mask_21_" class="st1" d="M0,580.4v42.3c0,9.5,6.5,17.3,14.5,17.3c8,0,14.5-7.7,14.5-17.3v-28.3v-14
		c0-9.5-6.5-17.3-14.5-17.3C6.5,563.1,0,570.8,0,580.4"/>
	<path id="Mask_22_" class="st2" d="M0,580.4v42.3c0,9.5,6.5,17.3,14.5,17.3c8,0,14.5-7.7,14.5-17.3v-28.3v-14
		c0-9.5-6.5-17.3-14.5-17.3C6.5,563.1,0,570.8,0,580.4"/>
	<path id="Mask_23_" class="st1" d="M45.5,316.9v42.3c0,9.5,6.5,17.3,14.5,17.3c8,0,14.5-7.7,14.5-17.3v-28.3v-14
		c0-9.5-6.5-17.3-14.5-17.3C52,299.6,45.5,307.3,45.5,316.9"/>
	<path id="Mask_24_" class="st2" d="M45.5,316.9v42.3c0,9.5,6.5,17.3,14.5,17.3c8,0,14.5-7.7,14.5-17.3v-28.3v-14
		c0-9.5-6.5-17.3-14.5-17.3C52,299.6,45.5,307.3,45.5,316.9"/>
	<g>
		<path id="Mask_35_" class="st3" d="M244.2,421.6c-8,0-14.5,7.7-14.5,17.3v284.9c0,9.5,6.5,17.3,14.5,17.3V421.6
			c-8,0-14.5,7.7-14.5,17.3v284.9c0,9.5,6.5,17.3,14.5,17.3"/>
	</g>
	<path id="Mask_34_" class="st1" d="M244.2,135.6c-8,0-14.5,7.7-14.5,17.3"/>
	<path id="Mask_33_" class="st1" d="M229.6,152.9v117.7c0,9.5,6.5,17.3,14.5,17.3"/>
	<path id="Mask_31_" class="st2" d="M229.6,152.9v117.7c0,9.5,6.5,17.3,14.5,17.3V135.6C236.1,135.6,229.6,143.3,229.6,152.9"/>
	<path id="Mask_30_" class="st0" d="M244.2,393.4c-8,0-14.5-7.7-14.5-17.3v-42.3c0-9.5,6.5-17.3,14.5-17.3V393.4z"/>
</g>
</svg>
