<?xml version="1.0" encoding="UTF-8"?>
<svg width="259px" height="1031px" viewBox="0 0 259 1031" version="1.1" xmlns="http://www.w3.org/2000/svg" xmlns:xlink="http://www.w3.org/1999/xlink">
    <!-- Generator: Sketch 51.2 (57519) - http://www.bohemiancoding.com/sketch -->
    <title>Element / Image / Graphics / Vertical / Greyscale</title>
    <desc>Created with Sketch.</desc>
    <defs></defs>
    <g id="Element-/-Image-/-Graphics-/-Vertical-/-Greyscale" stroke="none" stroke-width="1" fill="none" fill-rule="evenodd">
        <path d="M162.8078,418.1131 C162.8078,427.6511 156.2918,435.3931 148.2588,435.3931 C140.2218,435.3931 133.7118,427.6511 133.7118,418.1131 L133.7118,133.1721 C133.7118,123.6281 140.2218,115.8961 148.2588,115.8961 C156.2918,115.8961 162.8078,123.6281 162.8078,133.1721 L162.8078,418.1131 Z" id="Mask" fill="#DADADA" opacity="0.5"></path>
        <path d="M210.0226,665.6064 C210.0226,675.1444 203.5066,682.8864 195.4736,682.8864 C187.4366,682.8864 180.9266,675.1444 180.9266,665.6064 L180.9266,380.6654 C180.9266,371.1214 187.4366,363.3894 195.4736,363.3894 C203.5066,363.3894 210.0226,371.1214 210.0226,380.6654 L210.0226,665.6064 Z" id="Mask" fill="#DADADA" opacity="0.5"></path>
        <polygon id="Mask" opacity="0.5" points="181.5292 711.0432 210.6252 711.0432 210.6252 1030.54 181.5292 1030.54"></polygon>
        <path d="M210.6252,1013.2602 C210.6252,1022.7982 204.1092,1030.5402 196.0772,1030.5402 C188.0392,1030.5402 181.5292,1022.7982 181.5292,1013.2602 L181.5292,728.3192 C181.5292,718.7752 188.0392,711.0432 196.0772,711.0432 C204.1092,711.0432 210.6252,718.7752 210.6252,728.3192 L210.6252,1013.2602 Z" id="Mask" fill="#DADADA" opacity="0.5"></path>
        <polygon id="Mask" opacity="0.5" points="89.5096 0 118.6046 0 118.6046 319.4966 89.5096 319.4966"></polygon>
        <path d="M118.6046,302.2166 C118.6046,311.7546 112.0886,319.4966 104.0566,319.4966 C96.0186,319.4966 89.5096,311.7546 89.5096,302.2166 L89.5096,17.2756 C89.5096,7.7316 96.0186,-0.0004 104.0566,-0.0004 C112.0886,-0.0004 118.6046,7.7316 118.6046,17.2756 L118.6046,90.1376 L118.6046,302.2166 Z" id="Mask" fill="#DADADA" opacity="0.5"></path>
        <path d="M118.6046,649.6445 C118.6046,659.1825 112.0886,666.9245 104.0566,666.9245 C96.0186,666.9245 89.5096,659.1825 89.5096,649.6445 L89.5096,364.7035 C89.5096,355.1595 96.0186,347.4275 104.0566,347.4275 C112.0886,347.4275 118.6046,355.1595 118.6046,364.7035 L118.6046,649.6445 Z" id="Mask" fill="#DADADA" opacity="0.5"></path>
        <path d="M74.5978,706.9702 C74.5978,716.5082 68.0818,724.2502 60.0488,724.2502 C52.0118,724.2502 45.5018,716.5082 45.5018,706.9702 L45.5018,422.0292 C45.5018,412.4852 52.0118,404.7532 60.0488,404.7532 C68.0818,404.7532 74.5978,412.4852 74.5978,422.0292 L74.5978,706.9702 Z" id="Mask" fill="#DADADA" opacity="0.5"></path>
        <path d="M162.8078,871.3776 C162.8078,880.9156 156.2918,888.6576 148.2588,888.6576 C140.2218,888.6576 133.7118,880.9156 133.7118,871.3776 L133.7118,586.4366 C133.7118,576.8926 140.2218,569.1606 148.2588,569.1606 C156.2918,569.1606 162.8078,576.8926 162.8078,586.4366 L162.8078,871.3776 Z" id="Mask" fill="#DADADA" opacity="0.5"></path>
        <path d="M118.6046,914.4257 C118.6046,923.9637 112.0886,931.7057 104.0566,931.7057 C96.0186,931.7057 89.5096,923.9637 89.5096,914.4257 L89.5096,796.7177 C89.5096,787.1737 96.0186,779.4417 104.0566,779.4417 C112.0886,779.4417 118.6046,787.1737 118.6046,796.7177 L118.6046,914.4257 Z" id="Mask" fill="#878787" opacity="0.3"></path>
        <path d="M181.529,200.265 L181.529,317.973 C181.529,327.511 188.039,335.253 196.078,335.253 C204.109,335.253 210.625,327.511 210.625,317.973 L210.625,200.265 C210.625,190.72 204.109,182.989 196.078,182.989 C188.039,182.989 181.529,190.72 181.529,200.265" id="Mask" opacity="0.5"></path>
        <path d="M181.529,200.265 L181.529,317.973 C181.529,327.511 188.039,335.253 196.078,335.253 C204.109,335.253 210.625,327.511 210.625,317.973 L210.625,200.265 C210.625,190.72 204.109,182.989 196.078,182.989 C188.039,182.989 181.529,190.72 181.529,200.265" id="Mask" fill="#878787" opacity="0.3"></path>
        <path d="M45.502,136.283 L45.502,253.99 C45.502,263.529 52.012,271.27 60.049,271.27 C68.082,271.27 74.597,263.529 74.597,253.99 L74.597,136.283 C74.597,126.738 68.082,119.006 60.049,119.006 C52.012,119.006 45.502,126.738 45.502,136.283" id="Mask" opacity="0.5"></path>
        <path d="M45.502,136.283 L45.502,253.99 C45.502,263.529 52.012,271.27 60.049,271.27 C68.082,271.27 74.597,263.529 74.597,253.99 L74.597,136.283 C74.597,126.738 68.082,119.006 60.049,119.006 C52.012,119.006 45.502,126.738 45.502,136.283" id="Mask" fill="#B2B2B2" opacity="0.5"></path>
        <path d="M133.712,481.012 L133.712,523.267 C133.712,532.805 140.222,540.546 148.259,540.546 C156.292,540.546 162.808,532.805 162.808,523.267 L162.808,495 L162.808,481.012 C162.808,471.467 156.292,463.735 148.259,463.735 C140.222,463.735 133.712,471.467 133.712,481.012" id="Mask" opacity="0.5"></path>
        <path d="M133.712,481.012 L133.712,523.267 C133.712,532.805 140.222,540.546 148.259,540.546 C156.292,540.546 162.808,532.805 162.808,523.267 L162.808,495 L162.808,481.012 C162.808,471.467 156.292,463.735 148.259,463.735 C140.222,463.735 133.712,471.467 133.712,481.012" id="Mask" fill="#B2B2B2" opacity="0.5"></path>
        <path d="M118.6046,743.7414 C118.6046,753.2794 112.0886,761.0214 104.0566,761.0214 C96.0186,761.0214 89.5096,753.2794 89.5096,743.7414 L89.5096,701.4864 C89.5096,691.9424 96.0186,684.2104 104.0566,684.2104 C112.0886,684.2104 118.6046,691.9424 118.6046,701.4864 L118.6046,715.4754 L118.6046,743.7414 Z" id="Mask" fill="#878787" opacity="0.3"></path>
        <polygon id="Mask" opacity="0.5" points="0 226.3232 29.0959 226.3232 29.0959 545.8202 0 545.8202"></polygon>
        <path d="M29.0959,528.5402 C29.0959,538.0782 22.5799,545.8202 14.5469,545.8202 C6.5099,545.8202 -0.0001,538.0782 -0.0001,528.5402 L-0.0001,243.5992 C-0.0001,234.0552 6.5099,226.3232 14.5469,226.3232 C22.5799,226.3232 29.0959,234.0552 29.0959,243.5992 L29.0959,528.5402 Z" id="Mask" fill="#DADADA" opacity="0.5"></path>
        <polygon id="Mask" opacity="0.5" points="0 658.3375 29.0959 658.3375 29.0959 810.6015 0 810.6015"></polygon>
        <path d="M29.0959,793.3215 C29.0959,802.8595 22.5799,810.6015 14.5469,810.6015 C6.5099,810.6015 -0.0001,802.8595 -0.0001,793.3215 L-0.0001,675.6135 C-0.0001,666.0695 6.5099,658.3375 14.5469,658.3375 C22.5799,658.3375 29.0959,666.0695 29.0959,675.6135 L29.0959,793.3215 Z" id="Mask" fill="#B2B2B2" opacity="0.5"></path>
        <path d="M0,580.382 L0,622.638 C0,632.176 6.51,639.917 14.547,639.917 C22.58,639.917 29.096,632.176 29.096,622.638 L29.096,594.371 L29.096,580.382 C29.096,570.838 22.58,563.106 14.547,563.106 C6.51,563.106 0,570.838 0,580.382" id="Mask" opacity="0.5"></path>
        <path d="M0,580.382 L0,622.638 C0,632.176 6.51,639.917 14.547,639.917 C22.58,639.917 29.096,632.176 29.096,622.638 L29.096,594.371 L29.096,580.382 C29.096,570.838 22.58,563.106 14.547,563.106 C6.51,563.106 0,570.838 0,580.382" id="Mask" fill="#878787" opacity="0.3"></path>
        <path d="M45.502,316.869 L45.502,359.124 C45.502,368.662 52.012,376.404 60.049,376.404 C68.082,376.404 74.597,368.662 74.597,359.124 L74.597,330.858 L74.597,316.869 C74.597,307.324 68.082,299.592 60.049,299.592 C52.012,299.592 45.502,307.324 45.502,316.869" id="Mask" opacity="0.5"></path>
        <path d="M45.502,316.869 L45.502,359.124 C45.502,368.662 52.012,376.404 60.049,376.404 C68.082,376.404 74.597,368.662 74.597,359.124 L74.597,330.858 L74.597,316.869 C74.597,307.324 68.082,299.592 60.049,299.592 C52.012,299.592 45.502,307.324 45.502,316.869" id="Mask" fill="#878787" opacity="0.3"></path>
        <path d="M229.625,438.86 L229.625,723.801 C229.625,733.339 236.135,741.081 244.173,741.081 C252.205,741.081 258.721,733.339 258.721,723.801 L258.721,438.86 C258.721,429.316 252.205,421.584 244.173,421.584 C236.135,421.584 229.625,429.316 229.625,438.86" id="Mask" opacity="0.5"></path>
        <path d="M229.625,438.86 L229.625,723.801 C229.625,733.339 236.135,741.081 244.173,741.081 C252.205,741.081 258.721,733.339 258.721,723.801 L258.721,438.86 C258.721,429.316 252.205,421.584 244.173,421.584 C236.135,421.584 229.625,429.316 229.625,438.86" id="Mask" fill="#B2B2B2" opacity="0.5"></path>
        <path d="M229.625,152.863 L229.625,270.571 C229.625,280.109 236.135,287.85 244.173,287.85 C252.205,287.85 258.721,280.109 258.721,270.571 L258.721,152.863 C258.721,143.318 252.205,135.587 244.173,135.587 C236.135,135.587 229.625,143.318 229.625,152.863" id="Mask" opacity="0.5"></path>
        <path d="M229.625,152.863 L229.625,270.571 C229.625,280.109 236.135,287.85 244.173,287.85 C252.205,287.85 258.721,280.109 258.721,270.571 L258.721,152.863 C258.721,143.318 252.205,135.587 244.173,135.587 C236.135,135.587 229.625,143.318 229.625,152.863" id="Mask" fill="#878787" opacity="0.3"></path>
        <path d="M258.7209,376.0924 C258.7209,385.6304 252.2049,393.3724 244.1729,393.3724 C236.1349,393.3724 229.6249,385.6304 229.6249,376.0924 L229.6249,333.8374 C229.6249,324.2934 236.1349,316.5614 244.1729,316.5614 C252.2049,316.5614 258.7209,324.2934 258.7209,333.8374 L258.7209,347.8264 L258.7209,376.0924 Z" id="Mask" fill="#DADADA" opacity="0.5"></path>
    </g>
</svg>