<svg width="24px" height="29px" viewBox="0 0 24 29" version="1.1" xmlns="http://www.w3.org/2000/svg" xmlns:xlink="http://www.w3.org/1999/xlink">
    <title>Video icon</title>
    <g transform="translate(-21.000000, -16.000000)" stroke="none" stroke-width="1" fill="#ffffff">
        <path d="M42.1937298,28.7153959 L23.0496381,18.6269366 L23.0496381,32.6930527 C23.0496381,33.1763018 22.6578873,33.5680527 22.1746381,33.5680527 C21.6913889,33.5680527 21.2996381,33.1763018 21.2996381,32.6930527 L21.2996381,17.1767727 C21.2996381,16.5181276 21.9998772,16.0956173 22.5825658,16.4026797 L44.3032007,27.848913 C44.8883803,28.157288 44.9329722,28.9784432 44.3846273,29.3483731 C44.0358067,29.5836979 44.0358067,29.5836979 42.5417617,30.5915875 C41.1102258,31.5572971 39.5799078,32.5896103 38.0133154,33.6463481 C37.6126905,33.9165878 37.0688474,33.8108897 36.7986077,33.4102649 C36.5283681,33.00964 36.6340661,32.4657969 37.034691,32.1955572 C38.6012652,31.1388317 40.1315663,30.1065299 41.563086,29.1408312 C41.8119008,28.9729796 42.019278,28.8330819 42.1937298,28.7153959 Z M23.0496032,37.3903367 L23.049603,41.6290803 C23.481391,41.3378227 24.1057077,40.9166965 25.0788498,40.2602738 C27.6240131,38.5434503 30.1691762,36.8265933 32.5458606,35.2233373 L33.9060963,34.3057481 C34.3067136,34.0354973 34.8505597,34.1411803 35.1208105,34.5417977 C35.3910612,34.9424151 35.2853782,35.4862611 34.8847609,35.7565119 L33.5233161,36.6749168 C31.1478194,38.2773715 28.6026458,39.9942357 26.0574723,41.711066 C23.3426211,43.5423401 23.3426211,43.5423401 22.6639062,44.0001517 C22.0827483,44.3921584 21.2996032,43.9757591 21.2996032,43.27475 L21.2996032,37.3903367 C21.2996032,36.9070875 21.691354,36.5153367 22.1746032,36.5153367 C22.6578523,36.5153367 23.0496032,36.9070875 23.0496032,37.3903367 Z"></path>
    </g>
</svg>