<svg width="240" height="70" viewBox="0 0 240 70" fill="none" xmlns="http://www.w3.org/2000/svg">
<path d="M41.8483 23.2862V48.4234H36.7202V23.2862H41.8483Z" fill="#000A1E"/>
<path d="M62.7813 31.4745V48.4765C62.7813 53.7557 58.6715 57 53.6375 57C48.6036 57 45.1645 53.9927 44.8169 49.7432L49.9326 49.7718C50.1412 51.5819 51.7319 52.3623 53.8216 52.3623C55.8008 52.3623 57.641 51.3041 57.641 48.546V46.3722C56.3324 47.2221 54.6599 47.7247 52.791 47.7247C48.1088 47.7247 44.3589 43.9369 44.3589 39.5771C44.3589 34.5064 48.121 31.1109 52.791 31.1109C54.6721 31.1109 56.3324 31.6135 57.641 32.4634V31.544L62.7853 31.4745H62.7813ZM57.6532 41.4853V37.3503C56.6064 35.8343 55.1588 35.3318 53.7234 35.3318C51.2003 35.3318 49.446 37.0152 49.446 39.5771C49.446 41.4567 51.2003 43.5202 53.7234 43.5202C55.1588 43.5079 56.6064 42.989 57.6532 41.4853Z" fill="#000A1E"/>
<path d="M83.2402 39.7448C83.2402 44.979 79.3676 48.7136 74.166 48.7136C68.9644 48.7136 65.051 44.9831 65.051 39.7448C65.051 34.5065 68.9235 30.7473 74.166 30.7473C79.4085 30.7473 83.2402 34.5473 83.2402 39.7448ZM78.2922 39.7448C78.2922 37.2809 76.6769 35.2869 74.166 35.2869C71.6552 35.2869 70.0113 37.2768 70.0113 39.7448C70.0113 42.2127 71.6266 44.174 74.166 44.174C76.6605 44.1618 78.2922 42.2781 78.2922 39.7448Z" fill="#000A1E"/>
<path d="M115.088 31.5033V48.3949L110.058 48.4235V47.4633C108.749 48.3132 107.077 48.8403 105.208 48.8403C100.526 48.8403 96.7759 44.8728 96.7759 39.9818C96.7759 35.0908 100.538 31.0988 105.208 31.0988C107.089 31.0988 108.749 31.6299 110.058 32.4758V31.5155L115.088 31.5033ZM110.058 37.3953C108.999 35.8917 107.523 35.4749 106.042 35.4749C103.462 35.4749 101.679 37.5343 101.679 40.0022C101.679 42.4702 103.462 44.501 106.042 44.501C107.519 44.4887 108.999 44.0842 110.058 42.5805V37.3953Z" fill="#000A1E"/>
<path d="M135.772 39.2458V48.4231H130.824V39.8465C130.824 37.0884 129.445 35.6256 126.992 35.6256C125.708 35.6256 124.301 36.3652 123.091 37.783V48.4231H118.032V31.5314H123.091V32.8144C124.469 31.7153 126.072 31.1146 127.981 31.1146C132.496 31.1146 135.772 34.2895 135.772 39.2458Z" fill="#000A1E"/>
<path d="M34.377 48.4074H29.1508L25.7526 35.7775L18.4327 48.4074H12.5932L23.8838 28.8557L22.0722 22.0607L6.83953 48.4238H1L20.3016 15H25.4173L27.6623 23.2987H32.9416L29.3348 29.5667L34.377 48.4074Z" fill="#000A1E"/>
<path d="M156.202 48.4239H151.074V47.4637C149.765 48.3136 148.093 48.8407 146.224 48.8407C141.541 48.8407 137.792 44.8732 137.792 39.9577C137.792 35.0422 141.554 31.0992 146.224 31.0992C148.105 31.0992 149.765 31.6303 151.074 32.4761V23.2703L156.202 23.2826V48.4239ZM151.074 42.5891V37.3671C150.002 35.8512 148.51 35.4303 147.033 35.4303C144.441 35.4303 142.642 37.506 142.642 39.9577C142.642 42.4093 144.441 44.5259 147.033 44.5259C148.51 44.5259 150.002 44.1091 151.074 42.5891Z" fill="#000A1E"/>
<path d="M95.8558 35.7905C94.7394 35.9294 92.1223 36.0561 90.5888 38.1726V48.4368H85.5303V31.5574H90.5888V32.824C91.7461 31.8352 93.4881 31.2509 95.8558 31.4879" fill="#000A1E"/>
</svg>
