<svg width="200" height="100" viewBox="0 0 200 100" fill="none" xmlns="http://www.w3.org/2000/svg">
<path d="M57.6833 35.4698V64.1979H51.8228V35.4698H57.6833Z" fill="white"/>
<path d="M81.6066 44.8279V64.2586C81.6066 70.2918 76.9097 73.9996 71.1567 73.9996C65.4037 73.9996 61.4733 70.5627 61.076 65.7062L66.9225 65.7389C67.1609 67.8076 68.9789 68.6995 71.367 68.6995C73.629 68.6995 75.732 67.49 75.732 64.338V61.8537C74.2365 62.825 72.3251 63.3993 70.1893 63.3993C64.8382 63.3993 60.5526 59.0705 60.5526 54.0879C60.5526 48.2928 64.8522 44.4123 70.1893 44.4123C72.3391 44.4123 74.2365 44.9867 75.732 45.958V44.9073L81.6112 44.8279H81.6066ZM75.746 56.2687V51.5429C74.5496 49.8105 72.8952 49.2361 71.2548 49.2361C68.3713 49.2361 66.3664 51.16 66.3664 54.0879C66.3664 56.236 68.3713 58.5942 71.2548 58.5942C72.8952 58.5802 74.5496 57.9871 75.746 56.2687Z" fill="white"/>
<path d="M104.988 54.2795C104.988 60.2614 100.562 64.5295 94.6176 64.5295C88.673 64.5295 84.2005 60.2661 84.2005 54.2795C84.2005 48.2929 88.6263 43.9968 94.6176 43.9968C100.609 43.9968 104.988 48.3396 104.988 54.2795ZM99.3332 54.2795C99.3332 51.4637 97.4872 49.1849 94.6176 49.1849C91.7481 49.1849 89.8694 51.459 89.8694 54.2795C89.8694 57.1 91.7154 59.3415 94.6176 59.3415C97.4685 59.3275 99.3332 57.1747 99.3332 54.2795Z" fill="white"/>
<path d="M141.385 44.8607V64.1653L135.637 64.198V63.1006C134.141 64.0719 132.23 64.6743 130.094 64.6743C124.743 64.6743 120.457 60.1401 120.457 54.5504C120.457 48.9608 124.757 44.3984 130.094 44.3984C132.244 44.3984 134.141 45.0055 135.637 45.9721V44.8748L141.385 44.8607ZM135.637 51.5945C134.426 49.876 132.739 49.3997 131.047 49.3997C128.098 49.3997 126.061 51.7532 126.061 54.5737C126.061 57.3943 128.098 59.7151 131.047 59.7151C132.734 59.7011 134.426 59.2388 135.637 57.5203V51.5945Z" fill="white"/>
<path d="M165.023 53.7093V64.1975H159.369V54.3957C159.369 51.2437 157.794 49.5719 154.99 49.5719C153.522 49.5719 151.914 50.4171 150.531 52.0375V64.1975H144.75V44.8929H150.531V46.3591C152.106 45.103 153.938 44.4165 156.12 44.4165C161.28 44.4165 165.023 48.0449 165.023 53.7093Z" fill="white"/>
<path d="M49.1448 64.1796H43.1721L39.2885 49.7455L30.923 64.1796H24.2493L37.1527 41.835L35.0823 34.0693L17.6737 64.1983H11L33.0588 26H38.9052L41.471 35.4842H47.5044L43.3824 42.6475L49.1448 64.1796Z" fill="white"/>
<path d="M188.372 64.1985H182.511V63.1011C181.016 64.0724 179.104 64.6748 176.969 64.6748C171.618 64.6748 167.332 60.1405 167.332 54.5228C167.332 48.9052 171.632 44.3989 176.969 44.3989C179.118 44.3989 181.016 45.0059 182.511 45.9726V35.4517L188.372 35.4657V64.1985ZM182.511 57.5301V51.5622C181.287 49.8298 179.581 49.3488 177.894 49.3488C174.931 49.3488 172.875 51.721 172.875 54.5228C172.875 57.3246 174.931 59.7436 177.894 59.7436C179.581 59.7436 181.287 59.2672 182.511 57.5301Z" fill="white"/>
<path d="M119.406 49.7604C118.13 49.9191 115.139 50.0639 113.386 52.4828V64.2131H107.605V44.9225H113.386V46.3702C114.709 45.2401 116.7 44.5723 119.406 44.8432" fill="white"/>
</svg>
