<svg width="240" height="70" viewBox="0 0 240 70" fill="none" xmlns="http://www.w3.org/2000/svg">
<path d="M8.08005 30.2411C9.91289 30.2411 11.3987 28.7553 11.3987 26.9225C11.3987 25.0896 9.91289 23.6038 8.08005 23.6038C6.24722 23.6038 4.76141 25.0896 4.76141 26.9225C4.76141 28.7553 6.24722 30.2411 8.08005 30.2411Z" fill="#000A1E"/>
<path d="M8.07991 48.9378C11.9901 48.9378 15.1599 45.768 15.1599 41.8578C15.1599 37.9477 11.9901 34.7779 8.07991 34.7779C4.16977 34.7779 1 37.9477 1 41.8578C1 45.768 4.16977 48.9378 8.07991 48.9378Z" fill="#000A1E"/>
<path d="M23.4473 44.2615V31.3411C23.4473 24.8433 18.1997 24.0545 16.912 23.8453C15.6511 23.6655 13.4297 23.5743 12.0212 23.6065C12.0212 23.6065 16.4639 24.7333 16.4639 28.3417V42.7591C16.4639 48.9967 25.7304 49.0262 27.1389 48.9967L27.6862 48.1864C26.334 48.216 23.4473 48.1999 23.4473 44.2588V44.2615Z" fill="#000A1E"/>
<path d="M40.4319 23.6011C32.4184 23.6011 27.3747 29.2752 27.3747 36.1781C27.3747 43.081 32.2386 48.9081 40.4051 48.9349C48.4186 48.9349 53.4623 43.2929 53.4623 36.3847C53.4623 29.4764 48.5984 23.5984 40.4319 23.5984V23.6011ZM42.3233 48.0093C39.2327 48.0093 37.3091 44.0468 35.6887 37.9219C34.8168 34.6516 34.3366 32.1271 34.3366 30.3564C34.3366 25.7339 36.4372 24.473 38.4493 24.473C41.5399 24.473 43.5225 28.465 45.1429 34.5309C46.0444 37.8012 46.4629 40.3848 46.4629 42.1581C46.4629 46.7511 44.3622 48.0415 42.3206 48.012L42.3233 48.0093Z" fill="#000A1E"/>
<path d="M71.4316 24.5268C69.1002 24.5268 66.9164 26.4208 65.4006 30.7321V24.1485L55.265 28.4893V28.6637L58.5568 30.936V47.5399H55.265V48.4145H68.7595V47.5399H65.4328V32.8596C65.4328 31.7811 66.6267 30.4424 66.8601 30.209L72.2204 32.3928C73.6181 32.1004 74.9005 30.5872 74.9005 28.2264C74.9005 26.013 73.5 24.5295 71.4343 24.5295L71.4316 24.5268Z" fill="#000A1E"/>
<path d="M87.0164 22.7856C84.6957 25.8655 77.2321 26.1204 77.2321 26.1204C77.2321 26.1204 79.3301 27.2498 79.3301 29.5436C79.3301 30.0882 79.3972 47.5533 79.3972 47.5533H76.5614V48.4145H89.997V47.5533H87.0164V22.7856Z" fill="#000A1E"/>
<path d="M102.63 31.8938C98.614 30.4263 97.3397 29.6403 97.3397 27.486C97.3397 25.7716 98.5631 24.8648 100.572 24.8648C103.757 24.8648 110.145 32.4518 110.145 32.4518L109.656 24.1432C107.8 24.1432 103.266 23.7112 100.428 23.7112C95.8722 23.7112 92.1994 26.7965 92.1994 31.4002C92.1994 36.0039 94.7454 38.3057 100.132 40.2642C103.465 41.4393 105.179 42.2736 105.179 44.6238C105.179 46.7781 103.711 47.8458 101.458 47.8458C97.7824 47.8458 92.1029 39.7276 92.1029 39.7276L92.5911 48.0524C93.683 48.0524 98.5175 48.9377 101.603 48.9377C106.941 48.9377 110.81 45.7532 110.81 40.7578C110.81 36.2024 108.264 33.9515 102.63 31.8911V31.8938Z" fill="#000A1E"/>
<path d="M131.742 44.3044L131.288 43.6578L130.988 43.9154C130.988 43.9154 129.008 45.5653 126.813 45.6055C125.338 45.6324 124.721 45.179 124.468 44.3071C124.361 44.079 124.302 43.7598 124.302 43.3064V26.3564H130.086L131.087 23.5662H124.302V15C124.302 15 120.694 23.1128 113.767 24.2047V26.3537H115.972V42.9415C115.972 44.9804 116.844 46.4318 118.116 47.4862H118.107C118.126 47.505 118.153 47.5211 118.172 47.5345C119.835 48.8115 124.884 49.9276 129.357 46.5982C130.18 45.9865 130.982 45.2434 131.739 44.3044H131.742Z" fill="#000A1E"/>
</svg>
