<svg width="240" height="70" viewBox="0 0 240 70" fill="none" xmlns="http://www.w3.org/2000/svg">
<path d="M82.1646 57.0619L85.1638 46.6177H83.2981C83.1909 46.6177 82.5959 46.6177 82.3572 47.3862L80.7757 53.2662L79.0725 47.3862C78.8355 46.6177 78.2375 46.6177 78.1471 46.6177H76.2833L79.401 57.0323L75.7154 68.7742H78.4747L80.8662 60.744L83.028 68.7742H85.6277L82.1646 57.0619ZM80.3586 32.1214C80.3858 32.007 80.3436 31.6546 80.1771 31.4262C80.0001 31.1972 79.9545 31.1829 79.833 31.142L79.5953 31.0432C78.9679 30.6852 78.4902 30.4304 78.0001 30.0317C77.4915 29.6347 77.298 29.236 76.9844 29.036C76.6697 28.8367 76.7758 28.7683 76.2978 28.7099C75.803 28.6539 75.6714 28.5987 75.4167 28.4838C75.1476 28.369 74.4479 28.3821 74.3434 28.3821C74.2516 28.3821 73.7741 28.1686 72.6535 28.1278C71.5341 28.0876 70.2654 28.286 69.4761 28.7687C68.6999 29.2364 68.8325 29.3798 67.7711 30.3028C66.6986 31.2401 66.3554 31.5801 65.6978 32.008C65.0435 32.4508 64.2192 32.8324 63.9067 32.8324C63.5787 32.8324 62.9962 32.7752 62.9962 32.7752C62.9962 32.7752 62.7271 31.7395 62.2929 31.044C61.8755 30.3443 61.7131 29.7467 61.4739 29.5639C61.3502 29.478 61.2516 29.3605 61.1883 29.2236C61.4987 28.9266 61.7171 28.5463 61.8176 28.1281C61.964 27.4306 62.1003 26.082 62.1316 25.6263C62.1739 25.1756 62.1608 24.9173 62.2632 24.3628C62.3699 23.8081 62.7872 22.7296 62.9499 22.2881C63.1158 21.8614 63.3414 21.417 63.354 21.336C63.3848 21.2647 63.0268 20.2702 62.8182 19.7007C62.5924 19.1336 62.3519 18.1099 62.2809 17.4558C62.2022 16.8162 62.2488 16.1753 62.0836 15.8343C61.9206 15.4789 61.9642 15.4369 61.8911 15.3517L61.6059 14.9124L60.7692 14.4285C60.7692 14.4285 61.1882 14.8399 61.2497 14.9975C61.2838 15.1086 61.2893 15.2264 61.2658 15.3402L61.2052 15.5225L61.5456 16.1325L61.6517 16.4883C61.6517 16.602 61.5946 16.7733 61.6517 16.9595C61.7029 17.1553 61.7431 17.3539 61.7723 17.5542V17.7238C61.7723 17.7238 61.443 16.988 61.2052 16.4473C60.9652 15.8916 60.3236 14.0866 60.1594 13.6757C59.9939 13.2783 59.8915 12.7955 59.7116 12.6683C59.5736 12.5914 59.4219 12.5424 59.265 12.5242H58.9046C58.9046 12.5242 57.6222 10.1229 56.9799 9.02808C56.3251 7.94616 55.5773 6.55521 54.9345 5.85838C54.2938 5.17711 54.1136 4.73823 53.2337 3.88442C52.3667 3.01685 52.1599 2.68837 51.6652 2.2919C51.1577 1.89371 51.0085 1.63613 50.6503 1.35117C50.294 1.06786 50.0827 0.897784 50.0103 1.06786C49.9189 1.26845 49.7252 2.82935 49.8899 3.39835C50.0548 3.98255 50.5906 4.76621 50.7569 5.00749C50.9187 5.26275 51.0088 5.27807 51.2174 5.49107C51.3872 5.63091 51.5793 5.74101 51.7857 5.81671L51.128 5.67385C51.128 5.67385 51.247 5.85838 51.3818 6.08739C51.5299 6.31416 52.2481 7.19676 52.6369 7.8639C53.0107 8.53268 53.9354 9.75214 54.1733 10.0795C54.4149 10.4074 54.2942 10.3068 54.5473 10.6062C54.8174 10.8895 55.2223 11.2018 55.3692 11.3454C55.5185 11.5007 55.8776 11.7832 55.8776 11.7832L54.8776 11.1849C54.8776 11.1849 54.7717 11.1747 54.8593 11.3562C54.9634 11.6313 55.0889 11.8978 55.2348 12.1531C55.3998 12.3971 55.6084 12.7638 55.6084 12.7638C55.3571 12.5293 55.1221 12.2777 54.905 12.011C54.5932 11.6146 53.0696 9.80907 51.9071 8.61586C50.7243 7.40888 48.905 5.68741 48.0086 5.02027C47.1136 4.35306 46.4867 3.8281 45.739 3.37045C44.9921 2.9158 44.323 2.27715 43.7402 1.96535C43.4067 1.78812 43.083 1.59292 42.7707 1.38057C42.7707 1.38057 42.8139 1.39763 42.7707 1.74952C42.7251 2.10852 42.7838 3.5733 43.0238 4.12578C43.2482 4.67975 44.3676 5.95815 44.6059 6.28536C44.859 6.61377 44.8437 6.65608 45.2319 6.86729C45.6068 7.07805 46.0071 7.15239 46.1591 7.25067L46.2935 7.35044C46.2935 7.35044 45.9353 7.3928 45.7259 7.30716C45.5614 7.24611 45.3907 7.20346 45.2168 7.18C45.2168 7.18 45.7099 7.52269 45.9184 7.76142C46.1117 8.00479 46.8159 8.7412 46.9175 8.84381L47.1444 9.05533C47.1444 9.05533 46.4727 8.61547 45.9349 8.17398C45.3957 7.74902 44.1875 6.88135 43.487 6.32663C42.7837 5.77146 42.293 5.61837 41.6801 5.2774C41.052 4.93426 40.6787 4.73758 40.6787 4.73758C40.6787 4.73758 40.5903 4.46518 40.5903 4.9763C40.5903 5.49034 40.873 6.8098 41.1416 7.32287C41.4112 7.83346 42.3077 8.81531 42.4854 8.94215C42.6651 9.05531 43.1427 9.55454 43.1427 9.55454C43.1427 9.55454 42.3344 9.11329 41.6956 8.75938C41.052 8.38819 40.7227 8.28768 40.3931 8.14527C40.0512 8.00482 39.6636 7.87467 39.5746 7.87467C39.5014 7.87467 39.4413 7.88963 39.5014 8.19103C39.5611 8.50284 40.3931 10.3061 40.7706 10.7163C41.1417 11.1451 42.6188 12.3528 42.9335 12.5653C43.2481 12.7634 43.7085 13.0925 43.7085 13.0925L44.0085 13.3906C44.0085 13.3906 43.0234 12.7795 42.4413 12.5361C41.8443 12.2825 41.159 11.9992 40.5905 11.7826C40.0365 11.5832 39.6044 11.6141 39.3662 11.5133C39.1263 11.4301 39.1702 11.6693 39.2767 11.912C39.382 12.169 40.0659 13.56 40.426 13.8586C40.6934 14.0854 41.3514 14.5691 41.6804 14.8096C41.5482 14.7742 41.414 14.7461 41.2787 14.7256C40.873 14.6495 40.4632 14.5972 40.0515 14.569C39.9762 14.569 39.6942 14.499 39.7843 14.856C39.8703 15.2225 40.3934 16.1056 40.6215 16.3901C40.8425 16.6722 41.4862 17.2286 41.9648 17.5697C42.4413 17.8953 44.4862 19.0184 44.741 19.1897C44.9924 19.3718 46.112 19.8865 46.112 19.8865C46.112 19.8865 46.2624 19.9412 45.7711 19.8989C45.2923 19.8429 44.4261 19.6164 43.6063 19.6164C42.7839 19.6164 42.4857 19.6568 42.1577 19.7111C41.8975 19.7698 41.6562 19.8933 41.4562 20.0701C41.3969 20.1274 41.427 20.4118 41.6054 20.5649C41.7861 20.7075 42.5749 21.2634 42.7835 21.4055C42.979 21.5346 43.7686 21.9608 43.9046 22.0172L44.2009 22.1316C44.2009 22.1316 43.8441 22.144 43.5889 22.144C43.3368 22.144 42.5019 22.1316 42.115 22.303C41.7409 22.484 41.456 22.6851 41.456 22.713C41.456 22.7386 41.6355 22.9844 41.994 23.2232C42.3522 23.4671 43.4405 23.993 43.859 24.1627C44.2758 24.3328 45.0685 24.5746 45.0685 24.5746C45.0685 24.5746 44.8006 24.7865 44.2306 24.7865C43.6657 24.7865 43.1578 25.0131 42.8307 25.2137C42.5019 25.4125 42.3815 25.469 42.3959 25.6251C42.4251 25.7672 42.979 26.0951 43.6207 26.3088C44.2459 26.5213 45.1585 26.7501 45.1585 26.7501C44.8769 26.8159 44.6016 26.9065 44.3359 27.0208C43.9483 27.204 43.3812 27.4886 43.2782 27.5738C43.1881 27.6726 43.0235 27.8713 43.3516 27.973C43.6656 28.0723 45.2483 28.5544 45.5294 28.5841C45.8138 28.6241 46.2483 28.6948 46.2483 28.6948C46.2483 28.6948 45.3378 28.7252 44.9509 28.9382C44.5453 29.1507 44.2169 29.2924 44.1438 29.4501C44.0846 29.5922 44.0084 29.7202 44.2459 29.8047C44.4858 29.9069 45.0684 30.1178 45.2484 30.1749C45.4792 30.2254 45.7125 30.2635 45.9474 30.289C45.9474 30.289 45.4101 30.4018 45.2484 30.5015C45.0685 30.6011 44.6663 30.8426 44.6352 30.9706C44.6053 31.1127 44.486 31.2271 44.8132 31.3968C45.1294 31.5796 45.8281 31.7388 45.9631 31.7816L46.3532 31.8075L45.7706 32.0519L45.3378 32.5896C45.3378 32.6753 46.0234 32.9865 46.3084 33.0023H47.2777C47.1081 33.0872 46.9524 33.1974 46.816 33.3292C46.5765 33.557 46.3234 33.8267 46.6792 33.9552C47.0542 34.099 47.5922 34.1385 47.9045 34.1677C48.2023 34.1831 48.518 34.1677 48.518 34.1677C48.518 34.1677 48.3986 34.2512 48.2319 34.3802C48.0528 34.4968 48.1897 34.5082 47.9045 34.5932C47.6053 34.6789 44.2171 34.8782 42.0847 34.7366C39.9314 34.5932 36.0376 34.3539 33.7657 34.3539C31.5131 34.3539 28.334 34.5676 25.9464 35.0068C23.188 35.5167 20.4573 36.1666 17.7647 36.9539C15.2415 37.705 11.7031 39.0439 10.659 39.4256C9.59997 39.8082 9.28544 39.9935 8.28675 40.58C7.28373 41.1479 7.01699 41.4592 7.01699 41.4592C7.01699 41.4592 8.65883 40.7782 9.30139 40.5211C9.92827 40.2646 10.4669 40.0948 10.4669 40.0948C10.4669 40.0948 9.56804 40.7483 9.30139 40.9764C9.03235 41.2042 8.8807 41.3595 9.03235 41.331C9.18295 41.3154 10.6135 40.7779 11.1662 40.521C11.5247 40.3337 11.9004 40.1815 12.288 40.0663C12.885 39.8813 13.3315 39.6379 13.8234 39.4415C14.201 39.2796 14.5702 39.0987 14.9296 38.8995C15.2969 38.8587 15.6609 38.7927 16.0192 38.7018C16.5565 38.5436 17.4383 38.2036 17.6765 38.103C17.9147 38.0049 18.0637 37.9613 18.0637 37.9613L17.7497 38.3179C17.7205 38.3893 17.5262 38.5437 17.8989 38.4606C18.2739 38.3756 19.1391 38.0334 19.4082 37.9061C19.6903 37.7781 20.0052 37.6199 20.1371 37.5651L20.6616 37.3948L19.9592 37.7907C19.9303 37.8061 20.0926 37.9215 20.6181 37.8489C21.1555 37.7616 22.4387 37.4226 22.4387 37.4226L22.4814 37.5501C22.5424 37.5939 23.4372 37.3946 23.8282 37.2792C24.0909 37.2045 24.3492 37.1153 24.6021 37.012L24.4836 37.2369C24.4676 37.2792 24.2294 37.3657 24.7367 37.3657C25.2302 37.3657 26.3327 37.068 26.7372 36.9401C27.1562 36.8252 27.2902 36.8252 27.2902 36.8252L27.2149 36.9401C27.2746 36.9663 28.2738 36.8687 28.7516 36.8252C29.2159 36.786 29.2006 36.8128 29.546 36.7114C29.9035 36.6248 30.6929 36.4551 30.783 36.4422L31.3345 36.2993L30.8711 36.6705C30.8126 36.7392 30.9027 36.8126 31.3198 36.7861C31.7217 36.7528 32.7825 36.5692 33.0213 36.5279C33.2617 36.4719 33.5728 36.3982 33.5728 36.3982L32.8695 36.8689C32.8279 36.9259 32.7226 36.9986 32.9897 36.9986C33.2618 36.9986 34.3493 36.8416 34.6485 36.7967C34.947 36.7532 35.1728 36.6708 35.5131 36.5694C35.723 36.502 35.9389 36.4547 36.1577 36.4282L35.7388 36.7395C35.6927 36.8417 35.663 36.8691 35.842 36.8691C36.021 36.8691 36.7841 36.7864 37.2305 36.7121C37.6633 36.6424 38.2763 36.4429 38.6347 36.3431C39.0079 36.2565 39.0655 36.2849 39.0655 36.2849L39.0815 36.4147C39.3993 36.4406 39.7184 36.4451 40.0368 36.4283C40.2289 36.3984 40.5907 36.3147 40.6791 36.2998L40.8731 36.229L40.8134 36.357C40.8134 36.4147 40.6791 36.5695 41.2314 36.5843C41.6952 36.5718 42.1561 36.5058 42.605 36.3876C42.7549 36.3394 42.9114 36.3148 43.0689 36.3146C43.0689 36.3146 45.0222 36.4558 45.8281 36.7396C46.649 37.0127 47.5476 37.6072 47.9043 37.7913C48.2801 37.9917 48.4573 38.1353 48.576 38.3185C48.697 38.5013 48.7103 39.013 48.7701 39.5122C48.8293 40.0228 48.9668 40.5804 49.0391 40.7204L49.1576 41.0458L49.1142 41.1602C48.9791 41.1602 48.3375 41.2904 48.1002 41.3018C47.8072 41.3456 47.5122 41.374 47.2163 41.3868C46.9781 41.3868 46.7853 41.4012 46.7089 41.503C46.6377 41.6012 46.5476 42.1409 46.6666 42.3249C46.7851 42.4962 46.755 42.6956 47.4726 42.8246C48.2022 42.9508 48.9191 43.3352 49.4411 43.5484C49.9645 43.775 50.1422 43.8459 50.262 43.9459C50.3971 44.0481 50.4872 44.1029 50.5307 44.3309C50.5599 44.5575 50.9356 45.1985 51.085 45.3539C51.2172 45.5109 51.5464 45.8514 51.5464 45.8514C51.5464 45.8514 51.6513 45.9086 51.6513 46.6186V56.3686H49.3225C48.7562 56.3686 48.4876 56.2112 48.4876 55.5845V46.6178H47.0538C46.3233 46.6178 46.0969 47.1293 46.0969 47.5122V68.7742H48.4872V58.6126H51.0847C51.2253 58.6129 51.3609 58.6651 51.4654 58.7593C51.5699 58.8535 51.6361 58.9832 51.6511 59.1233V68.7742H54.0404V47.5122C54.0459 47.3472 54.0033 47.1841 53.9179 47.0429C53.8325 46.9017 53.7079 46.7885 53.5594 46.717C53.4272 46.533 53.2791 46.32 53.1429 46.1203C52.7871 45.5781 52.4687 45.0122 52.1898 44.4266C51.9486 43.9149 51.861 43.6869 51.561 43.4318C51.2774 43.1765 50.9058 43.0915 50.5473 43.0068C50.1885 42.9377 49.3963 42.6654 49.0971 42.5809C48.7843 42.4957 48.5312 42.4261 48.5312 42.3684C48.5312 42.3106 48.5611 42.2547 48.9786 42.0393C49.3827 41.829 50.3208 41.672 51.3234 41.515C52.3362 41.3595 53.4407 41.275 54.1281 41.1869C54.8013 41.1029 55.2214 41.0728 55.6385 40.9031C56.0676 40.7198 57.1432 40.0379 57.1432 40.0379C57.1432 40.0379 58.608 40.0098 59.0857 39.8641C59.5627 39.7384 60.1902 39.5969 60.1902 39.5969L60.1285 39.7231C60.1013 39.7384 60.3235 39.682 60.7269 39.5379C61.1306 39.3975 61.4429 39.3254 61.4429 39.3254L61.3257 39.5539L61.8014 39.369L62.6542 38.8995L62.5493 39.1706C62.5493 39.1706 63.0419 39 63.3246 38.7885C63.5924 38.5892 64.1156 37.9479 64.1156 37.9479L64.1604 38.0461C64.1604 38.0461 64.5356 37.5503 64.6082 37.2683C64.644 37.1103 64.6993 36.9575 64.7728 36.8132L64.8041 36.9828C64.8041 36.9828 64.834 36.6138 64.937 36.4282C65.056 36.2289 66.1304 35.5474 66.5368 35.2465C66.9227 34.9505 66.9528 34.906 66.9528 34.906L66.9067 35.0768L67.3405 34.6659C67.426 34.5145 67.5256 34.3715 67.6379 34.2388L67.6539 34.3673C67.8145 34.2368 67.9548 34.0831 68.07 33.9111C68.2667 33.6415 68.6376 33.2581 68.9388 32.8463C69.2516 32.42 69.9976 31.442 70.3426 31.1281C70.6714 30.8003 71.0129 30.4308 71.7874 30.3884C72.5511 30.3594 72.848 30.5177 73.0126 30.6289C73.1759 30.7426 73.3582 30.8998 73.3582 30.8998C73.3582 30.8998 73.6088 31.2121 73.8359 31.341C74.0581 31.4667 74.2645 31.6648 74.6988 31.739C75.133 31.8076 75.4473 31.923 75.8964 31.923C76.3421 31.923 77.1635 31.979 77.7002 32.0363C78.2219 32.1092 78.4178 32.1368 79.0281 32.2628C79.6417 32.3765 79.7898 32.4341 79.9705 32.3925C80.15 32.3484 80.313 32.2338 80.3586 32.1214ZM7.07617 47.8244C6.98609 47.2292 6.80618 46.6181 5.82241 46.6181H4.52383L1 68.7742H3.62762L5.71725 53.5243L7.80909 68.7742H10.4354L7.07617 47.8244ZM21.2431 46.6181H16.8848V68.7742H19.289V59.2513H20.5405C21.1853 59.2513 21.7803 59.6083 21.7803 60.6713V68.7742H24.1689V60.2896C24.1689 60.2896 24.2436 58.6538 23.3026 58.2013C24.2744 57.9854 24.1689 56.2383 24.1689 56.2383V49.4012C24.1689 47.8515 22.8383 46.6181 21.2431 46.6181ZM20.5405 48.7328C21.1853 48.7328 21.7803 49.0607 21.7803 49.8865V55.8253C21.7803 56.8495 21.1852 57.1058 20.5405 57.1058H19.289V48.7328H20.5405ZM31.6028 49.2183V66.1864C31.6028 67.7373 32.9287 69 34.5872 69H36.0519C37.6478 68.9441 38.9177 67.7081 38.9177 66.1864V60.8285C38.3192 61.0839 37.3803 61.4677 37.1839 61.5682C36.8864 61.7253 36.5585 62.0669 36.5585 62.7914V65.7741C36.5585 66.4709 35.9909 67.01 35.2618 67.01C34.5597 67.01 33.9922 66.4709 33.9922 65.7741V49.6022C33.9922 48.9334 34.5593 48.3918 35.2618 48.3918C35.9909 48.3918 36.5585 48.9333 36.5585 49.6022V54.5609L38.2899 53.8093C38.5884 53.6785 38.9179 53.3249 38.9179 52.6006V49.2181C38.9179 47.6964 37.648 46.4318 36.0522 46.4033H34.5874C32.9288 46.4033 31.6028 47.6692 31.6028 49.2183ZM63.9688 46.6176L60.4435 68.7742H63.0704L65.1758 53.5243L67.266 68.7742H69.894L66.5369 47.8241C66.4298 47.229 66.2656 46.6179 65.2648 46.6179L63.9688 46.6176Z" fill="#13103E"/>
</svg>
