<svg width="240" height="70" viewBox="0 0 240 70" fill="none" xmlns="http://www.w3.org/2000/svg">
<path d="M53.5722 43.8658H47.2528C48.0706 43.118 48.295 40.428 48.5917 35.5703L48.6641 34.4501L48.9608 28.0983C48.9608 26.8282 48.8117 26.0062 48.4397 25.7065H55.5031C57.211 25.7065 60.5589 25.7793 60.5589 29.2942C60.5589 31.6859 58.3878 33.1058 56.3947 33.6296C59.22 33.8536 61.3159 35.2735 61.3159 38.1876C61.3883 41.3256 58.4167 43.8672 53.5838 43.8672M53.3609 35.0509H52.0973L51.8744 37.7424L51.7253 41.1059C51.7253 41.2558 52.2464 41.6297 53.4333 41.6297C55.9619 41.6297 57.5975 40.3596 57.5975 38.2661C57.6699 35.95 55.6638 35.0655 53.3595 35.0655M53.8805 27.8931C53.5086 27.8931 53.0628 27.8931 52.6169 27.9659C52.394 29.236 52.3202 30.4318 52.245 31.8503L52.1726 32.8978H52.6184C54.9227 32.8978 57.0041 32.0758 57.0041 29.9837C57.0764 28.7879 56.0372 27.8917 53.882 27.8917M76.1721 44.0331C74.6089 44.0331 74.4642 43.9603 73.273 39.6977L72.8272 38.1264C72.0832 38.5003 70.7458 38.6502 68.663 38.6502H66.4918L66.1198 39.4722C65.7479 40.2942 64.8563 42.0138 64.8563 43.0598C64.85 43.3357 64.8748 43.6114 64.9301 43.8818H60.6168C61.8066 42.6859 63.4421 39.7719 65.5988 35.1528L66.8624 32.4613L69.2419 26.8559C69.2419 26.482 69.1695 26.1837 69.019 25.8084H72.9589L74.8926 32.9807L75.6366 35.8205C76.9754 40.6797 77.8656 42.9929 78.9077 43.892L76.1576 44.0418M70.507 29.9925L67.5325 36.3443H72.2916L70.507 29.9925ZM93.2603 44.6397C91.9214 44.6397 91.6247 44.4157 91.1789 43.8178L86.0493 36.7909C85.6773 36.209 85.3053 35.8191 84.7104 35.8191H84.638L84.5657 37.239L84.3428 41.7228C84.3428 42.9187 84.4918 43.6665 84.8638 43.9632H79.9426C80.6866 43.3813 80.9095 41.2718 81.3553 35.6678L81.4277 34.5476L81.7244 28.1958C81.7244 26.9257 81.5753 26.1037 81.2033 25.804H87.8209C90.0499 25.804 92.9505 26.1779 92.9505 29.6884C92.9505 32.6024 91.0168 34.1722 88.6372 34.92C88.9528 35.2529 89.2505 35.6026 89.5288 35.9675L93.172 40.8266C95.4763 43.8905 95.6253 44.0273 96.4431 44.4142C95.3879 44.5604 94.324 44.6352 93.2588 44.6383M86.7165 27.9732C86.2707 27.9732 85.7496 27.9732 85.3038 28.0459C85.1548 28.7937 85.0809 30.138 84.9318 32.3057L84.8595 33.5757C85.0824 33.6485 85.4384 33.6485 85.6773 33.6485C87.9063 33.6485 89.4695 32.2286 89.4695 30.2107C89.3971 28.7908 88.4274 27.9703 86.7194 27.9703M102.867 44.2397C98.1829 44.2397 95.5066 40.3553 95.5066 36.0926C95.5066 30.1278 98.7778 25.4054 104.95 25.4054C106.883 25.4054 107.775 25.7793 109.41 25.7793L108.965 30.4129C108.073 28.769 106.585 27.7215 104.651 27.7215C100.787 27.7215 99.2236 31.907 99.2236 35.4932C99.2236 39.3776 101.453 41.5453 104.279 41.5453C105.843 41.5453 107.254 41.1714 109.558 39.5275C108.591 42.3673 106.436 44.2353 102.867 44.2353M134.688 44.0113C133.125 44.0113 133.052 43.9385 131.789 39.6759L131.343 38.1046C130.599 38.4785 129.262 38.6284 127.179 38.6284H124.95L124.578 39.4503C123.999 40.6462 123.314 42.0661 123.314 43.038C123.314 43.262 123.387 43.5617 123.387 43.86H110.599C111.343 43.038 111.566 40.348 111.938 35.5645L112.01 34.4443L112.307 28.0925C112.307 26.8966 112.158 26.0746 111.861 25.7007H116.843C116.099 26.2245 115.876 29.1385 115.579 33.9962L115.507 35.1164L115.135 40.4964C115.135 41.3184 115.432 41.5439 116.325 41.5439C119.373 41.5439 120.042 41.4711 121.454 40.572C122.346 39.0008 123.239 37.0601 124.204 35.0437L125.468 32.3522L127.848 26.7467C127.848 26.3728 127.775 26.0746 127.625 25.6993H131.55L133.484 32.8716L134.228 35.7114C135.567 40.5706 136.399 42.8838 137.574 43.7828C136.613 43.9102 135.645 43.985 134.675 44.0069M129.024 29.9576L126.125 36.3094H130.809L129.024 29.9576ZM145.976 34.0675L144.713 36.4592C144.416 37.8049 144.341 39.5973 144.341 41.5409C144.341 42.3629 144.49 43.4846 144.862 43.857H139.941C140.832 43.0351 141.13 38.0275 141.13 36.3836C140.462 34.1431 139.567 31.8998 138.231 29.2112C137.34 27.5673 136.373 26.0106 135.703 25.6993L138.887 25.5494C140.077 25.5494 140.45 25.6993 141.191 27.3432L143.72 33.471L146.904 28.315C147.127 27.867 147.425 27.2676 147.425 26.7438C147.425 26.3699 147.353 25.8477 147.202 25.6963H152.037C150.995 25.9204 146.832 32.5719 145.94 34.066M162.296 29.9561C161.552 28.6104 159.916 27.5644 158.132 27.5644C156.569 27.5644 155.233 28.1463 155.233 29.8048C155.233 31.2247 156.941 32.1209 158.727 33.3168C160.66 34.5126 162.667 36.0082 162.667 38.6225C162.667 41.9861 159.395 44.1509 155.531 44.1509C153.968 44.1509 152.346 43.8527 150.475 43.1791L150.772 38.6953C151.663 40.4891 153.3 41.8959 155.754 41.8959C157.612 41.8959 159.1 40.9997 159.1 39.3543C159.1 38.0086 157.986 37.1139 156.571 36.2905C153.597 34.4966 151.737 33.0898 151.737 30.4609C151.737 26.5765 154.921 25.305 158.355 25.305C160.288 25.305 161.539 25.6789 162.74 25.6789L162.296 29.9561Z" fill="#00AEEF"/>
<path d="M40.0999 22.42C39.7033 21.489 39.0433 20.4269 37.8535 19.6311C37.3252 19.2325 36.6637 18.8339 36.0037 18.5691C35.4754 18.4236 34.9471 18.3029 34.2856 18.3029H34.1409C33.3477 18.3029 31.8945 18.4484 31.1013 19.6311C30.7047 20.0298 30.573 20.827 30.7047 21.4904C30.8495 22.0214 31.233 22.5524 31.7613 22.6863C31.8725 22.7785 32.014 22.8257 32.1579 22.8187C32.1579 22.9642 32.0132 23.2173 32.0132 23.2173C31.6166 23.6159 30.9566 24.2793 28.9736 24.2793H28.8289C27.7723 24.1338 26.9791 23.8807 25.7893 22.6848C25.1279 21.8876 24.7327 20.4269 24.7327 18.169C24.7327 16.9732 24.588 16.045 24.3361 15.2594C24.1914 14.7283 23.6747 14.1973 23.2795 13.9311C22.8844 13.6649 22.6181 13.5325 21.958 13.2662L19.7116 13C18.9185 13 18.3902 13.1455 18.1253 13.531H17.3321C16.9355 13.531 16.4058 13.6765 16.0106 13.6765C15.2174 13.822 14.6891 14.2075 14.1608 14.6076C14.0161 14.7531 13.4994 15.2724 13.3676 15.8035C13.3676 16.2021 13.5124 16.6007 13.5124 16.7346L13.6571 16.88C13.922 16.6138 14.4503 16.4814 15.1103 16.4814C16.0367 16.4814 17.3567 16.88 17.6216 17.5434C18.2831 18.6055 18.0182 19.4027 18.0182 20.3324C17.6216 22.8565 16.6967 24.0524 14.7137 24.3186C14.3171 24.4641 13.9206 24.4641 13.6571 24.4641C12.2039 24.4641 11.1459 24.0655 10.6176 23.1358V22.8696C10.6176 22.8696 10.7623 22.8696 10.8824 22.7241C11.4107 22.4579 11.8088 22.0593 11.939 21.5282C12.0838 20.8634 11.939 20.2 11.5425 19.669C10.7493 18.8717 9.69267 18.3407 8.5029 18.3407C7.70971 18.3407 7.18141 18.4862 6.6531 18.6069C5.06674 19.0056 3.61354 20.3338 2.55693 22.4593C1.76375 24.0538 1.23544 25.9131 1.10373 28.0386C0.972014 30.1641 0.958987 31.891 1.10373 33.4841C1.24847 36.1406 1.7652 37.7351 2.42521 39.4489C3.08523 41.1627 3.87263 42.7703 4.79897 44.2353C5.06385 44.6339 5.19556 45.0325 5.46044 45.2973L5.60518 45.1518C5.74992 45.0064 5.87005 44.8856 6.00177 44.6208C6.53007 44.2222 7.45497 42.8939 7.71985 42.4968C7.98472 42.0996 8.38131 41.4347 8.64619 40.7699L8.79093 40.5036L9.05581 40.6491C9.32068 40.9154 9.4524 41.314 9.4524 41.7112C9.4524 42.1083 9.30766 42.5084 9.05581 43.3057C8.79093 44.2367 8.26263 45.2988 7.73432 46.3608C7.87906 46.5063 7.87906 46.7594 7.73432 46.7594C7.33773 47.4243 7.33773 47.6905 7.33773 47.9553H7.48247C7.62721 47.9553 8.14394 47.8098 8.53908 47.4243C8.93567 47.158 9.99228 46.2284 11.3138 44.3691C12.3704 43.0409 13.0318 41.5802 13.825 39.9857L13.9698 39.7195L14.2346 39.865C14.3794 40.0104 14.4995 40.0105 14.6312 40.1312C14.776 40.3974 14.776 40.7961 14.776 41.1932C14.6312 42.2553 13.9828 43.7174 13.5862 44.7794C12.793 46.6387 11.3398 48.6318 10.2818 50.0925C10.2524 50.186 10.201 50.2711 10.1319 50.3405C10.0629 50.4099 9.97827 50.4615 9.88517 50.4911C10.0299 50.6366 10.15 50.7573 10.4135 50.8897L10.8101 51.2883C12.201 52.4569 13.7063 53.4805 15.3028 54.3435C16.6243 55.1407 19.2687 56.4675 21.1171 57C22.9669 56.6014 25.6098 55.1407 26.9313 54.3435C28.5279 53.4805 30.0332 52.4569 31.4241 51.2883L31.8207 50.8897C32.0856 50.7442 32.2173 50.4911 32.349 50.4911C32.4937 50.2248 32.4937 50.0924 32.4937 49.9601L32.349 49.8146C31.2924 48.4863 29.8377 46.3608 29.0446 44.5015C28.648 43.4395 27.9879 41.9774 27.8548 40.9154C27.71 40.5167 27.8548 40.1181 27.9995 39.8533L28.2644 39.5871C28.4091 39.4416 28.661 39.4416 28.661 39.4416L28.8057 39.7078C29.5989 41.3023 30.3921 42.763 31.317 44.0913C32.6385 45.9505 33.6951 46.8802 34.0917 47.1464C34.4883 47.545 34.8849 47.6774 35.1483 47.6774H35.293C35.4378 47.5319 35.293 47.2788 34.8964 46.6154C34.7517 46.4699 34.7517 46.3492 34.7517 46.2168C34.2234 45.1547 33.6951 44.0927 33.4302 43.1616C33.1653 42.3644 33.0336 41.8334 33.0336 41.5671C33.0336 41.1685 33.1784 40.7699 33.4302 40.5051L33.6951 40.3596L33.8398 40.6258C34.1047 41.2907 34.633 42.0865 34.8964 42.4851C35.1599 42.8838 36.2179 44.0796 36.4828 44.4782C36.7477 44.7445 36.8794 44.8769 36.8794 45.0093L37.0241 45.1547C37.1689 45.0093 37.289 44.7561 37.5524 44.2237L37.6972 44.0782C38.4904 42.7499 39.2835 41.023 39.9436 39.2961C40.605 37.7016 41.0002 35.9747 41.2651 33.3313C41.4098 31.7368 41.5299 30.0099 41.2651 27.8859C41.4098 25.8927 40.8685 23.8996 40.2084 22.4404L40.0999 22.42Z" fill="#00AEEF"/>
</svg>
