<svg width="240" height="70" viewBox="0 0 240 70" fill="none" xmlns="http://www.w3.org/2000/svg">
<path d="M70.2014 14.576C70.2014 22.0738 64.1232 28.1519 56.6254 28.1519C49.1276 28.1519 43.0494 22.0738 43.0494 14.576C43.0494 7.07817 49.1276 1 56.6254 1C64.1232 1 70.2014 7.07817 70.2014 14.576Z" fill="black"/>
<path d="M59.5005 32.2474C58.5645 32.3985 57.6041 32.477 56.6254 32.477C46.7389 32.477 38.7244 24.4625 38.7244 14.576C38.7244 13.304 38.857 12.0629 39.1093 10.866C36.4358 10.0748 33.6049 9.65018 30.6749 9.65018C14.2859 9.65018 1 22.9361 1 39.3251C1 55.7141 14.2859 69 30.6749 69C47.0639 69 60.3498 55.7141 60.3498 39.3251C60.3498 36.8859 60.0555 34.5155 59.5005 32.2474Z" fill="black"/>
<path d="M16.2649 37.5294C16.2649 38.2974 15.8282 38.8394 14.9549 39.1556C15.2711 39.2535 15.5308 39.3627 15.7341 39.4831C16.3439 39.837 16.6489 40.3678 16.6489 41.0755C16.6489 41.7682 16.3816 42.3215 15.847 42.7356C15.3125 43.1422 14.5973 43.3455 13.7013 43.3455C13.3776 43.3455 12.9673 43.3266 12.4704 43.289C11.9735 43.2513 11.6083 43.2325 11.3749 43.2325C11.1716 43.2325 10.9796 43.2438 10.799 43.2664L10.2682 43.3342C10.2531 43.3342 10.2268 43.3379 10.1891 43.3455C10.1515 43.3455 10.1251 43.3455 10.1101 43.3455C9.78632 43.3379 9.62445 43.2024 9.62445 42.9389C9.62445 42.698 9.74115 42.5775 9.97454 42.5775C10.0348 42.5775 10.1364 42.5888 10.2795 42.6114C10.3773 42.6265 10.4564 42.634 10.5166 42.634C10.9006 42.634 11.0926 42.3554 11.0926 41.7983V37.2584C11.0926 36.6937 10.9006 36.4114 10.5166 36.4114C10.4489 36.4114 10.3698 36.4189 10.2795 36.434C10.1439 36.4565 10.0423 36.4678 9.97454 36.4678C9.74115 36.4678 9.62445 36.3474 9.62445 36.1065C9.62445 35.8429 9.79761 35.7112 10.1439 35.7112H10.2908L10.8441 35.7902C11.0022 35.8128 11.2168 35.8241 11.4878 35.8241C11.7739 35.8241 12.1805 35.8015 12.7075 35.7564C13.0614 35.7262 13.4416 35.7112 13.8481 35.7112C14.6085 35.7112 15.1996 35.8731 15.6212 36.1968C16.0503 36.513 16.2649 36.9572 16.2649 37.5294ZM11.9396 38.015C11.9396 38.4141 11.9735 38.6625 12.0412 38.7604C12.1165 38.8507 12.316 38.8959 12.6398 38.8959H13.2722C14.6048 38.8959 15.2711 38.463 15.2711 37.5972C15.2711 36.8066 14.7215 36.4114 13.6223 36.4114C12.8543 36.4114 12.38 36.4603 12.1993 36.5582C12.0262 36.6561 11.9396 36.9083 11.9396 37.3148V38.015ZM11.9396 40.3076V41.5611C11.9396 42.0505 12.0224 42.3516 12.188 42.4646C12.3537 42.5775 12.8054 42.634 13.5432 42.634C14.9511 42.634 15.6551 42.107 15.6551 41.0529C15.6551 40.0817 14.9775 39.5961 13.6223 39.5961H12.6849C12.2784 39.5961 12.045 39.6864 11.9847 39.8671C11.9546 39.9575 11.9396 40.1043 11.9396 40.3076Z" fill="white"/>
<path d="M23.4507 42.0128L23.0441 40.9061C22.9989 40.7856 22.95 40.7104 22.8973 40.6802C22.8521 40.6501 22.7542 40.6351 22.6037 40.6351H20.5935C20.4429 40.6351 20.3375 40.6614 20.2773 40.7141C20.2245 40.7668 20.153 40.9099 20.0627 41.1433L19.7352 42.0128C19.7051 42.0957 19.69 42.1747 19.69 42.25C19.69 42.4909 19.8368 42.6114 20.1304 42.6114C20.2057 42.6114 20.3111 42.6039 20.4467 42.5888C20.5897 42.5737 20.6951 42.5662 20.7629 42.5662C21.0715 42.5662 21.2259 42.698 21.2259 42.9615C21.2259 43.2099 21.0565 43.3342 20.7177 43.3342C20.6575 43.3342 20.5746 43.3266 20.4692 43.3116L19.9046 43.2325C19.7992 43.2175 19.626 43.2099 19.3851 43.2099C19.1216 43.2099 18.9371 43.2175 18.8317 43.2325L18.3574 43.3003C18.1466 43.3304 17.9922 43.3455 17.8944 43.3455C17.6007 43.3455 17.4539 43.2212 17.4539 42.9728C17.4539 42.7093 17.597 42.5775 17.8831 42.5775C17.9433 42.5775 17.9885 42.5813 18.0186 42.5888H18.1654C18.3687 42.5888 18.523 42.5098 18.6284 42.3516C18.6736 42.2914 18.7489 42.1145 18.8543 41.8209L20.9548 36.1403C21.0753 35.8241 21.3125 35.666 21.6663 35.666C22.0127 35.666 22.2423 35.8241 22.3552 36.1403L24.3767 41.7418C24.5047 42.0957 24.6214 42.3291 24.7268 42.442C24.8322 42.5549 24.9828 42.6114 25.1785 42.6114C25.2388 42.6114 25.2839 42.6076 25.314 42.6001C25.5249 42.585 25.6303 42.5775 25.6303 42.5775C25.9164 42.5775 26.0594 42.698 26.0594 42.9389C26.0594 43.1949 25.9164 43.3229 25.6303 43.3229C25.5474 43.3229 25.4383 43.3153 25.3028 43.3003C24.8284 43.2476 24.4746 43.2212 24.2412 43.2212C23.9626 43.2212 23.5109 43.2513 22.886 43.3116C22.7279 43.3266 22.6074 43.3342 22.5246 43.3342C22.2235 43.3342 22.0729 43.2062 22.0729 42.9502C22.0729 42.6942 22.2385 42.5662 22.5698 42.5662C22.6375 42.5662 22.7354 42.5737 22.8634 42.5888C22.9989 42.6039 23.1006 42.6114 23.1683 42.6114C23.4168 42.6114 23.541 42.5098 23.541 42.3065C23.541 42.2764 23.5109 42.1785 23.4507 42.0128ZM22.6375 39.709L21.6212 36.5921L20.5822 39.709C20.5671 39.7542 20.5596 39.7805 20.5596 39.7881C20.5596 39.8558 20.616 39.8897 20.729 39.8897H22.5246C22.615 39.8897 22.6601 39.8596 22.6601 39.7994C22.6601 39.7843 22.6526 39.7542 22.6375 39.709Z" fill="white"/>
<path d="M32.5152 39.1331C32.2968 39.2385 32.0183 39.3288 31.6795 39.4041C32.1237 39.4869 32.4286 39.6525 32.5942 39.901C32.7674 40.1495 32.854 40.5598 32.854 41.132V41.6515C32.8464 41.6816 32.8427 41.7268 32.8427 41.787C32.8427 42.3291 33.0158 42.6001 33.3622 42.6001C33.716 42.6001 33.8929 42.2764 33.8929 41.6289C33.8929 41.403 33.8929 41.2901 33.8929 41.2901L33.8817 41.0077C33.8817 41.0077 33.8817 40.955 33.8817 40.8496C33.8817 40.6313 33.8967 40.4807 33.9268 40.3979C33.9871 40.2699 34.1038 40.2059 34.2769 40.2059C34.548 40.2059 34.6835 40.364 34.6835 40.6802C34.6835 40.6878 34.6797 40.7706 34.6722 40.9287L34.6609 41.1659C34.6534 41.324 34.6496 41.4256 34.6496 41.4708V41.7531C34.6571 41.7983 34.6609 41.866 34.6609 41.9564C34.6609 42.3931 34.5367 42.7356 34.2882 42.9841C34.0473 43.225 33.7085 43.3455 33.2718 43.3455C32.3834 43.3455 31.9392 42.8975 31.9392 42.0016V41.6628L31.9505 41.2788V41.0303C31.9505 40.5259 31.8526 40.1946 31.6569 40.0365C31.4687 39.8709 31.0734 39.7881 30.4711 39.7881H29.4208C29.1799 39.7881 29.0594 39.9349 29.0594 40.2285V41.0981C29.0594 41.6552 29.067 41.9714 29.082 42.0467C29.1498 42.4232 29.338 42.6114 29.6467 42.6114C29.7521 42.6114 29.8311 42.6039 29.8838 42.5888C30.0118 42.5662 30.1097 42.5549 30.1775 42.5549C30.4184 42.5549 30.5388 42.6829 30.5388 42.9389C30.5388 43.2099 30.377 43.3455 30.0532 43.3455C30.0532 43.3455 29.9968 43.3379 29.8838 43.3229L29.274 43.2438C29.0406 43.2137 28.8336 43.1986 28.6529 43.1986C28.427 43.1986 28.1635 43.2175 27.8623 43.2551L27.3203 43.3229C27.1998 43.3379 27.1433 43.3455 27.1509 43.3455C26.8271 43.3455 26.6653 43.2099 26.6653 42.9389C26.6653 42.698 26.782 42.5775 27.0153 42.5775C27.053 42.5775 27.1546 42.585 27.3203 42.6001C27.4031 42.6227 27.4821 42.634 27.5574 42.634C27.9414 42.634 28.1334 42.3516 28.1334 41.787V37.2584C28.1334 36.6937 27.9414 36.4114 27.5574 36.4114C27.4972 36.4114 27.4068 36.4227 27.2864 36.4453C27.1659 36.4603 27.0756 36.4678 27.0153 36.4678C26.9175 36.4678 26.8347 36.434 26.7669 36.3662C26.6991 36.2909 26.6653 36.2043 26.6653 36.1065C26.6653 35.8429 26.8309 35.7112 27.1622 35.7112C27.1923 35.7112 27.245 35.715 27.3203 35.7225L27.8962 35.7789C28.0468 35.794 28.235 35.8015 28.4609 35.8015C28.6943 35.8015 28.954 35.794 29.2401 35.7789L30.0984 35.7338C30.3845 35.7187 30.648 35.7112 30.8889 35.7112C32.5453 35.7112 33.3735 36.3436 33.3735 37.6085C33.3735 38.3538 33.0874 38.862 32.5152 39.1331ZM29.3869 39.0314H30.4485C31.0809 39.0314 31.5552 38.9411 31.8715 38.7604C32.2554 38.542 32.4474 38.1769 32.4474 37.6649C32.4474 36.8066 31.8602 36.3775 30.6857 36.3775C30.0608 36.3775 29.6354 36.4264 29.4095 36.5243C29.1912 36.6147 29.0783 36.7991 29.0707 37.0777L29.0594 37.4391V38.7378C29.0594 38.8658 29.082 38.9486 29.1272 38.9862C29.1724 39.0164 29.2589 39.0314 29.3869 39.0314Z" fill="white"/>
<path d="M38.9587 41.7983C38.9587 42.3629 39.1507 42.6453 39.5346 42.6453C39.5949 42.6453 39.6852 42.6377 39.8057 42.6227C39.9261 42.6001 40.0165 42.5888 40.0767 42.5888C40.1746 42.5888 40.2574 42.6264 40.3252 42.7017C40.4004 42.7695 40.4381 42.8523 40.4381 42.9502C40.4381 43.2137 40.2687 43.3455 39.9299 43.3455C39.9148 43.3455 39.8922 43.3455 39.8621 43.3455C39.8245 43.3379 39.7981 43.3342 39.7831 43.3342L39.2297 43.2551C39.0189 43.225 38.7817 43.2099 38.5182 43.2099C38.2321 43.2099 37.9799 43.225 37.7616 43.2551L37.1969 43.3342C37.1743 43.3342 37.148 43.3379 37.1179 43.3455C37.0802 43.3455 37.0539 43.3455 37.0388 43.3455C36.7075 43.3455 36.5419 43.2137 36.5419 42.9502C36.5419 42.7093 36.6624 42.5888 36.9033 42.5888C36.9635 42.5888 37.0539 42.6001 37.1743 42.6227C37.2948 42.6377 37.3851 42.6453 37.4454 42.6453C37.8218 42.6453 38.01 42.3629 38.01 41.7983V41.0077L38.0213 40.0139V39.054L38.01 37.2132C38.01 36.6786 37.7352 36.4114 37.1856 36.4114H36.8355C36.2935 36.4114 36.0224 36.6749 36.0224 37.2019C36.0224 37.3901 36.0262 37.5181 36.0337 37.5859L36.0789 38.0037C36.0864 38.0715 36.0902 38.1656 36.0902 38.2861C36.0902 38.7604 35.9434 38.9975 35.6497 38.9975C35.3712 38.9975 35.2319 38.8244 35.2319 38.478C35.2319 38.3802 35.2394 38.2108 35.2545 37.9698C35.2771 37.6085 35.2884 37.3788 35.2884 37.281C35.2884 37.0927 35.2808 36.897 35.2658 36.6937C35.2357 36.2947 35.2206 36.1253 35.2206 36.1855C35.2206 35.8693 35.3636 35.7112 35.6497 35.7112C35.7551 35.7112 35.9998 35.7225 36.3838 35.7451C36.4214 35.7451 36.7301 35.7526 37.3099 35.7677L38.5973 35.7902C38.7479 35.7902 39.1507 35.7827 39.8057 35.7677C39.9487 35.7677 40.1934 35.7564 40.5397 35.7338C40.8484 35.7112 41.0893 35.6999 41.2625 35.6999C41.6389 35.6999 41.8272 35.8542 41.8272 36.1629V36.1855C41.8272 36.2608 41.8159 36.4001 41.7933 36.6034C41.7782 36.8066 41.7594 37.025 41.7368 37.2584V37.3826C41.7368 37.4955 41.7481 37.6725 41.7707 37.9134C41.8008 38.2296 41.8159 38.4253 41.8159 38.5006C41.8159 38.8093 41.6691 38.9637 41.3754 38.9637C41.0893 38.9637 40.9463 38.7754 40.9463 38.399C40.9463 38.2635 40.9576 38.064 40.9802 37.8004C41.0027 37.5294 41.014 37.3261 41.014 37.1906C41.014 36.6711 40.7167 36.4114 40.1219 36.4114H39.8057C39.5271 36.4114 39.3276 36.4716 39.2071 36.5921C39.0867 36.705 39.0189 36.897 39.0038 37.168L38.97 37.9586L38.9587 41.7983Z" fill="white"/>
<path d="M48.6627 39.1331C48.4443 39.2385 48.1658 39.3288 47.827 39.4041C48.2712 39.4869 48.5761 39.6525 48.7417 39.901C48.9149 40.1495 49.0015 40.5598 49.0015 41.132V41.6515C48.9939 41.6816 48.9902 41.7268 48.9902 41.787C48.9902 42.3291 49.1633 42.6001 49.5097 42.6001C49.8635 42.6001 50.0404 42.2764 50.0404 41.6289C50.0404 41.403 50.0404 41.2901 50.0404 41.2901L50.0291 41.0077C50.0291 41.0077 50.0291 40.955 50.0291 40.8496C50.0291 40.6313 50.0442 40.4807 50.0743 40.3979C50.1345 40.2699 50.2512 40.2059 50.4244 40.2059C50.6954 40.2059 50.831 40.364 50.831 40.6802C50.831 40.6878 50.8272 40.7706 50.8197 40.9287L50.8084 41.1659C50.8008 41.324 50.7971 41.4256 50.7971 41.4708V41.7531C50.8046 41.7983 50.8084 41.866 50.8084 41.9564C50.8084 42.3931 50.6842 42.7356 50.4357 42.9841C50.1948 43.225 49.856 43.3455 49.4193 43.3455C48.5309 43.3455 48.0867 42.8975 48.0867 42.0016V41.6628L48.098 41.2788V41.0303C48.098 40.5259 48.0001 40.1946 47.8044 40.0365C47.6161 39.8709 47.2209 39.7881 46.6186 39.7881H45.5683C45.3274 39.7881 45.2069 39.9349 45.2069 40.2285V41.0981C45.2069 41.6552 45.2144 41.9714 45.2295 42.0467C45.2973 42.4232 45.4855 42.6114 45.7942 42.6114C45.8996 42.6114 45.9786 42.6039 46.0313 42.5888C46.1593 42.5662 46.2572 42.5549 46.325 42.5549C46.5659 42.5549 46.6863 42.6829 46.6863 42.9389C46.6863 43.2099 46.5245 43.3455 46.2007 43.3455C46.2007 43.3455 46.1443 43.3379 46.0313 43.3229L45.4215 43.2438C45.1881 43.2137 44.9811 43.1986 44.8004 43.1986C44.5745 43.1986 44.311 43.2175 44.0098 43.2551L43.4678 43.3229C43.3473 43.3379 43.2908 43.3455 43.2984 43.3455C42.9746 43.3455 42.8127 43.2099 42.8127 42.9389C42.8127 42.698 42.9294 42.5775 43.1628 42.5775C43.2005 42.5775 43.3021 42.585 43.4678 42.6001C43.5506 42.6227 43.6296 42.634 43.7049 42.634C44.0889 42.634 44.2809 42.3516 44.2809 41.787V37.2584C44.2809 36.6937 44.0889 36.4114 43.7049 36.4114C43.6447 36.4114 43.5543 36.4227 43.4339 36.4453C43.3134 36.4603 43.2231 36.4678 43.1628 36.4678C43.065 36.4678 42.9821 36.434 42.9144 36.3662C42.8466 36.2909 42.8127 36.2043 42.8127 36.1065C42.8127 35.8429 42.9784 35.7112 43.3096 35.7112C43.3398 35.7112 43.3925 35.715 43.4678 35.7225L44.0437 35.7789C44.1943 35.794 44.3825 35.8015 44.6084 35.8015C44.8418 35.8015 45.1015 35.794 45.3876 35.7789L46.2459 35.7338C46.532 35.7187 46.7955 35.7112 47.0364 35.7112C48.6928 35.7112 49.5209 36.3436 49.5209 37.6085C49.5209 38.3538 49.2348 38.862 48.6627 39.1331ZM45.5344 39.0314H46.596C47.2284 39.0314 47.7027 38.9411 48.0189 38.7604C48.4029 38.542 48.5949 38.1769 48.5949 37.6649C48.5949 36.8066 48.0076 36.3775 46.8331 36.3775C46.2083 36.3775 45.7829 36.4264 45.557 36.5243C45.3387 36.6147 45.2257 36.7991 45.2182 37.0777L45.2069 37.4391V38.7378C45.2069 38.8658 45.2295 38.9486 45.2747 38.9862C45.3198 39.0164 45.4064 39.0314 45.5344 39.0314Z" fill="white"/>
</svg>
