<svg width="200" height="100" viewBox="0 0 200 100" fill="none" xmlns="http://www.w3.org/2000/svg">
<path d="M71.7111 49.6397C71.6581 48.3375 71.8642 47.0378 72.3172 45.8154C72.7703 44.5931 73.4615 43.4724 74.3509 42.518C75.2402 41.5636 76.3102 40.7943 77.499 40.2546C78.6879 39.7149 79.9721 39.4155 81.2775 39.3735H81.6831C86.7285 39.3735 89.7062 42.3349 90.5867 45.7998L87.4507 46.8461C87.1689 45.555 86.4314 44.4079 85.3726 43.6142C84.3138 42.8205 83.0044 42.433 81.6831 42.5225C78.4184 42.5225 75.1439 44.9015 75.1439 49.6989C75.1439 54.4964 78.3393 56.7865 81.7227 56.7865C83.0505 56.8227 84.3521 56.4135 85.4193 55.6243C86.4864 54.835 87.2574 53.7115 87.6089 52.4333L90.6856 53.4204C90.1546 55.3702 88.9733 57.0811 87.3367 58.2709C85.7 59.4607 83.7059 60.0583 81.6831 59.9651C79.0845 60.0127 76.5733 59.0287 74.7015 57.2295C72.8298 55.4303 71.7506 52.9631 71.7012 50.3702C71.6913 50.1333 71.7012 49.8865 71.7111 49.6397Z" fill="white"/>
<path d="M96.7895 59.511H93.5447V39.3143H96.7895V47.2114C97.2606 46.6538 97.8531 46.2111 98.5217 45.9168C99.1904 45.6226 99.9176 45.4846 100.648 45.5135C104.001 45.5135 105.594 47.9122 105.594 50.9032V59.511H102.468V51.4758C102.562 50.7908 102.382 50.0965 101.967 49.5426C101.553 48.9886 100.937 48.6194 100.252 48.5144C100.058 48.4945 99.8624 48.4945 99.6684 48.5144C98.918 48.5144 98.1983 48.8118 97.6677 49.3413C97.1371 49.8707 96.839 50.5888 96.839 51.3376C96.8341 51.4198 96.8341 51.5022 96.839 51.5843L96.7895 59.511Z" fill="white"/>
<path d="M112.875 51.7324L116.358 51.1895C117.149 51.0908 117.347 50.6861 117.347 50.2024C117.347 49.0573 116.575 48.1393 114.775 48.1393C114.095 48.0844 113.421 48.2992 112.898 48.7372C112.376 49.1752 112.048 49.8009 111.985 50.4788V50.6268L109.017 49.9655C109.264 47.6161 111.401 45.5234 114.745 45.5234C118.94 45.5234 120.532 47.8925 120.532 50.6564V57.3986C120.529 58.1291 120.585 58.8587 120.701 59.5801H117.733C117.626 59.0075 117.583 58.4248 117.604 57.8428C117.154 58.5345 116.529 59.0964 115.793 59.4722C115.057 59.8481 114.235 60.0248 113.41 59.9848C112.282 60.0778 111.163 59.7205 110.299 58.9913C109.434 58.2622 108.895 57.2208 108.8 56.0955C108.8 56.0264 108.8 55.9573 108.8 55.8981C108.75 53.4007 110.541 52.0582 112.875 51.7324ZM117.367 53.914V53.2921L113.815 53.8251C113.333 53.8404 112.876 54.041 112.538 54.385C112.201 54.729 112.01 55.1898 112.005 55.6711C112.009 55.9096 112.06 56.1449 112.156 56.3634C112.252 56.5819 112.39 56.7791 112.564 56.9436C112.737 57.1081 112.941 57.2365 113.164 57.3214C113.388 57.4063 113.626 57.4459 113.865 57.438H114.013C114.418 57.4803 114.827 57.4423 115.217 57.326C115.608 57.2098 115.971 57.0177 116.286 56.7608C116.602 56.5038 116.863 56.1872 117.055 55.8291C117.247 55.471 117.367 55.0784 117.406 54.6741C117.42 54.4196 117.404 54.1644 117.357 53.914H117.367Z" fill="white"/>
<path d="M126.053 39.0379C126.332 39.034 126.608 39.0851 126.867 39.1883C127.126 39.2914 127.362 39.4447 127.562 39.6391C127.761 39.8336 127.92 40.0654 128.03 40.3214C128.139 40.5774 128.197 40.8524 128.199 41.1306C128.199 41.5472 128.076 41.9544 127.845 42.3011C127.613 42.6478 127.284 42.9186 126.899 43.0793C126.514 43.24 126.09 43.2835 125.68 43.2044C125.27 43.1253 124.893 42.927 124.596 42.6345C124.299 42.342 124.095 41.9684 124.01 41.5606C123.925 41.1528 123.962 40.729 124.118 40.3425C124.274 39.956 124.541 39.6241 124.885 39.3885C125.229 39.1528 125.635 39.024 126.053 39.0182V39.0379ZM124.47 59.5702V45.9281H127.715V59.511L124.47 59.5702Z" fill="white"/>
<path d="M135.105 59.511H131.87V45.9281H135.026V47.7345C135.437 47.0409 136.028 46.4705 136.736 46.0831C137.445 45.6958 138.245 45.5059 139.052 45.5332C142.376 45.5332 143.998 47.932 143.998 50.923V59.511H140.763V51.4758C140.763 49.8075 140.002 48.4551 137.964 48.4551C137.587 48.4577 137.214 48.5343 136.867 48.6806C136.52 48.8268 136.205 49.0399 135.941 49.3075C135.676 49.5752 135.467 49.8922 135.325 50.2406C135.184 50.5889 135.112 50.9616 135.115 51.3376C135.115 51.4461 135.115 51.5547 135.115 51.6633L135.105 59.511Z" fill="white"/>
<path d="M147.916 59.511V39.3143H151.161V59.511H147.916Z" fill="white"/>
<path d="M156.948 39.0379C157.366 39.0359 157.775 39.1578 158.123 39.3881C158.471 39.6184 158.742 39.9467 158.903 40.3313C159.064 40.7159 159.106 41.1395 159.025 41.5482C158.944 41.957 158.743 42.3326 158.448 42.6272C158.153 42.9219 157.776 43.1223 157.367 43.2031C156.957 43.284 156.533 43.2415 156.147 43.0811C155.762 42.9208 155.433 42.6497 155.202 42.3025C154.971 41.9552 154.849 41.5473 154.851 41.1306C154.856 40.5772 155.079 40.0479 155.471 39.6565C155.863 39.2652 156.394 39.043 156.948 39.0379ZM155.355 59.5702V45.9281H158.571V59.511L155.355 59.5702Z" fill="white"/>
<path d="M166.01 59.511H162.765V45.9281H165.921V47.7345C166.333 47.0416 166.924 46.4718 167.633 46.0845C168.341 45.6973 169.14 45.5069 169.948 45.5332C173.272 45.5332 174.894 47.932 174.894 50.923V59.511H171.649V51.4758C171.743 50.7908 171.563 50.0965 171.148 49.5426C170.734 48.9886 170.118 48.6194 169.433 48.5144C169.236 48.4946 169.037 48.4946 168.84 48.5144C168.084 48.5222 167.362 48.8272 166.83 49.3632C166.298 49.8992 166 50.6229 166 51.3771C165.99 51.492 165.99 51.6076 166 51.7225L166.01 59.511Z" fill="white"/>
<path d="M185.964 51.6633L191.672 59.5604H187.715L183.758 53.9633L182.086 55.7204V59.511H178.871V39.3143H182.086V51.4165L187.31 45.9281H191.613L185.964 51.6633Z" fill="white"/>
<path d="M33.2969 33.8456L47.3251 41.8808V58.0303L33.3365 66.1149L19.3183 58.0994V41.9598L33.2969 33.8456ZM33.2969 22L28.1526 24.9614L14.1443 33.0756L9 36.037V64.042L14.1443 67.0034L28.1724 75.0386L33.3167 78L38.461 75.0386L52.4397 66.9441L57.584 63.9827V35.9383L52.4397 32.9769L38.4215 24.9614L33.2772 22H33.2969Z" fill="white"/>
</svg>
