<svg width="240" height="70" viewBox="0 0 240 70" fill="none" xmlns="http://www.w3.org/2000/svg">
<path d="M56.992 34.6783C56.9448 33.5156 57.1287 32.3551 57.5333 31.2638C57.9378 30.1724 58.5549 29.1718 59.349 28.3196C60.1431 27.4675 61.0984 26.7806 62.1599 26.2988C63.2213 25.8169 64.3679 25.5495 65.5335 25.5121H65.8956C70.4004 25.5121 73.0591 28.1562 73.8453 31.2498L71.0452 32.184C70.7937 31.0312 70.1351 30.0071 69.1898 29.2984C68.2445 28.5897 67.0753 28.2438 65.8956 28.3236C62.9808 28.3236 60.0571 30.4477 60.0571 34.7312C60.0571 39.0146 62.9101 41.0594 65.931 41.0594C67.1165 41.0917 68.2787 40.7263 69.2315 40.0217C70.1843 39.317 70.8727 38.3138 71.1866 37.1726L73.9336 38.0539C73.4594 39.7948 72.4047 41.3224 70.9435 42.3847C69.4822 43.447 67.7017 43.9806 65.8956 43.8974C63.5755 43.9399 61.3333 43.0613 59.6621 41.4549C57.9909 39.8485 57.0273 37.6456 56.9832 35.3305C56.9744 35.119 56.9832 34.8986 56.992 34.6783Z" fill="#375BD2"/>
<path d="M79.3835 43.492H76.4863V25.4592H79.3835V32.5101C79.8041 32.0124 80.3331 31.617 80.9301 31.3543C81.5271 31.0916 82.1764 30.9684 82.8284 30.9942C85.8228 30.9942 87.2449 33.1359 87.2449 35.8065V43.492H84.4536V36.3176C84.5373 35.7061 84.3767 35.0862 84.0066 34.5916C83.6365 34.097 83.0865 33.7673 82.4751 33.6735C82.3018 33.6558 82.1272 33.6558 81.9539 33.6735C81.2839 33.6735 80.6414 33.9391 80.1676 34.4118C79.6939 34.8846 79.4277 35.5257 79.4277 36.1943C79.4233 36.2676 79.4233 36.3412 79.4277 36.4146L79.3835 43.492Z" fill="#375BD2"/>
<path d="M93.7459 36.5468L96.8551 36.062C97.5617 35.9739 97.7384 35.6126 97.7384 35.1807C97.7384 34.1583 97.0494 33.3386 95.4418 33.3386C94.8347 33.2896 94.2327 33.4815 93.7664 33.8725C93.3001 34.2635 93.0071 34.8223 92.9509 35.4275V35.5597L90.301 34.9692C90.5219 32.8715 92.4298 31.003 95.4153 31.003C99.1605 31.003 100.583 33.1183 100.583 35.5861V41.6059C100.58 42.2581 100.63 42.9095 100.733 43.5537H98.0829C97.9874 43.0424 97.9489 42.5222 97.968 42.0025C97.5658 42.6201 97.0083 43.1218 96.3512 43.4574C95.6941 43.793 94.9602 43.9508 94.2229 43.915C93.2158 43.998 92.2169 43.679 91.4452 43.028C90.6735 42.377 90.1922 41.4471 90.1067 40.4424C90.1067 40.3808 90.1067 40.3191 90.1067 40.2662C90.0626 38.0363 91.6613 36.8377 93.7459 36.5468ZM97.756 38.4946V37.9394L94.585 38.4153C94.1545 38.4289 93.746 38.608 93.4448 38.9152C93.1436 39.2223 92.9729 39.6337 92.9686 40.0635C92.972 40.2764 93.0179 40.4865 93.1035 40.6816C93.1892 40.8767 93.3129 41.0528 93.4675 41.1996C93.622 41.3465 93.8044 41.4612 94.0038 41.5369C94.2033 41.6127 94.4159 41.6482 94.6292 41.6411H94.7617C95.1232 41.6789 95.4887 41.6449 95.837 41.5411C96.1854 41.4373 96.5097 41.2658 96.7913 41.0364C97.0729 40.807 97.3062 40.5243 97.4779 40.2045C97.6495 39.8848 97.7561 39.5343 97.7914 39.1733C97.804 38.9461 97.7891 38.7183 97.7472 38.4946H97.756Z" fill="#375BD2"/>
<path d="M105.511 25.2124C105.76 25.2089 106.008 25.2545 106.239 25.3467C106.47 25.4388 106.681 25.5756 106.859 25.7492C107.037 25.9228 107.179 26.1299 107.277 26.3584C107.374 26.5869 107.426 26.8325 107.428 27.0809C107.428 27.4528 107.318 27.8164 107.111 28.126C106.905 28.4356 106.611 28.6773 106.267 28.8208C105.923 28.9643 105.545 29.0032 105.179 28.9325C104.813 28.8618 104.476 28.6848 104.211 28.4237C103.945 28.1625 103.763 27.8289 103.687 27.4648C103.611 27.1007 103.645 26.7223 103.784 26.3773C103.923 26.0322 104.161 25.7358 104.469 25.5254C104.776 25.315 105.139 25.2 105.511 25.1948V25.2124ZM104.098 43.5449V31.3644H106.995V43.492L104.098 43.5449Z" fill="#375BD2"/>
<path d="M113.594 43.492H110.705V31.3644H113.523V32.9773C113.89 32.3579 114.418 31.8486 115.05 31.5028C115.683 31.157 116.397 30.9874 117.118 31.0118C120.086 31.0118 121.534 33.1535 121.534 35.8241V43.492H118.646V36.3176C118.646 34.8281 117.966 33.6207 116.146 33.6207C115.81 33.623 115.477 33.6914 115.167 33.822C114.857 33.9525 114.576 34.1428 114.34 34.3817C114.104 34.6207 113.917 34.9038 113.791 35.2148C113.664 35.5258 113.6 35.8586 113.602 36.1943C113.602 36.2912 113.602 36.3882 113.602 36.4851L113.594 43.492Z" fill="#375BD2"/>
<path d="M125.032 43.492V25.4592H127.929V43.492H125.032Z" fill="#375BD2"/>
<path d="M133.097 25.2124C133.47 25.2107 133.834 25.3195 134.145 25.5251C134.456 25.7307 134.698 26.0238 134.842 26.3672C134.985 26.7106 135.023 27.0888 134.951 27.4538C134.879 27.8188 134.699 28.1541 134.436 28.4172C134.172 28.6802 133.836 28.8592 133.47 28.9314C133.105 29.0035 132.726 28.9656 132.381 28.8224C132.037 28.6792 131.744 28.4373 131.537 28.1272C131.331 27.8171 131.222 27.453 131.224 27.0809C131.229 26.5868 131.427 26.1142 131.778 25.7648C132.128 25.4153 132.601 25.217 133.097 25.2124ZM131.675 43.5449V31.3644H134.545V43.492L131.675 43.5449Z" fill="#375BD2"/>
<path d="M141.188 43.492H138.29V31.3644H141.108V32.9773C141.476 32.3586 142.004 31.8498 142.636 31.5041C143.269 31.1583 143.982 30.9883 144.703 31.0118C147.671 31.0118 149.12 33.1535 149.12 35.8241V43.492H146.222V36.3176C146.306 35.7061 146.146 35.0862 145.775 34.5916C145.405 34.097 144.855 33.7673 144.244 33.6735C144.068 33.6559 143.89 33.6559 143.714 33.6735C143.039 33.6805 142.394 33.9529 141.92 34.4315C141.445 34.91 141.179 35.5562 141.179 36.2295C141.17 36.3321 141.17 36.4354 141.179 36.538L141.188 43.492Z" fill="#375BD2"/>
<path d="M159.004 36.4851L164.1 43.536H160.567L157.034 38.5387L155.541 40.1075V43.492H152.67V25.4592H155.541V36.2648L160.205 31.3644H164.047L159.004 36.4851Z" fill="#375BD2"/>
<path d="M22.6937 20.5764L35.2188 27.7507V42.1699L22.729 49.3883L10.2128 42.2316V27.8213L22.6937 20.5764ZM22.6937 10L18.1006 12.6441L5.59313 19.8889L1 22.5331V47.5375L5.59313 50.1816L18.1182 57.3559L22.7114 60L27.3045 57.3559L39.7855 50.1287L44.3786 47.4846V22.4449L39.7855 19.8008L27.2692 12.6441L22.676 10H22.6937Z" fill="#375BD2"/>
</svg>
