<svg width="240" height="70" viewBox="0 0 240 70" fill="none" xmlns="http://www.w3.org/2000/svg">
<path d="M42.6115 40.4698C42.7538 47.928 39.9121 47.6651 38.9376 47.4454C37.1006 47.0318 36.898 44.2613 36.898 39.7244V25.2906H27.6572V42.8524C27.6572 48.1606 30.4902 50.9871 35.7078 50.9871C37.6612 50.9871 42.2579 51.237 44.4268 46.2476H45.9921V50.763H51.8565V25.2906H42.6071V40.4698H42.6115ZM65.1075 19.0302L55.6684 19.0086V40.7929C55.6684 47.1869 58.786 50.7846 63.8182 51H69.0617V44.6362H65.1118V19.0345L65.1075 19.0302ZM12.552 24.9717C6.19604 25.7817 1 30.7711 1 37.8631C1 44.955 6.19604 49.9401 12.552 50.7544C18.4164 51.5041 21.9868 50.2934 23.923 49.38V39.5305H22.6207C17.1013 39.5305 12.6469 43.3264 12.6469 49.4963C11.7241 49.3369 11.0299 49.2163 10.0769 48.8112C10.1243 48.4278 10.133 43.2316 10.1286 37.8631C10.1286 32.4902 10.1286 27.2941 10.0769 26.9149C11.0299 26.5099 11.7198 26.3893 12.6469 26.2298C12.6469 32.3998 17.1013 36.1956 22.6207 36.1956H23.9186V26.3419C21.9825 25.4284 18.4121 24.222 12.5477 24.9717H12.552ZM91.23 40.7757L86.4867 43.2402C85.1845 43.9167 84.3652 45.2653 84.3609 46.7302V48.208L81.9289 48.2597V30.1981H92.1916V25.2389H81.7176V19H78.5525C75.8273 22.9768 72.4466 26.4625 68.5485 29.3019V30.1937H72.4725V40.6593C72.4725 48.2985 76.0472 50.9785 82.4075 50.9785C84.8913 50.9785 86.9783 50.6338 89.13 49.4748C91.3551 48.277 92.2002 46.9154 92.2002 46.9154L92.1485 40.7412L91.2257 40.7628L91.23 40.7757Z" fill="#000A1E"/>
</svg>
