<svg width="200" height="100" viewBox="0 0 200 100" fill="none" xmlns="http://www.w3.org/2000/svg">
<path d="M95.0143 56.8372C95.1922 66.16 91.6401 65.8314 90.422 65.5567C88.1258 65.0397 87.8725 61.5767 87.8725 55.9055V37.8632H76.3215V59.8155C76.3215 66.4508 79.8628 69.9839 86.3848 69.9839C88.8265 69.9839 94.5723 70.2962 97.2835 64.0595H99.2401V69.7038H106.571V37.8632H95.0089V56.8372H95.0143ZM123.134 30.0377L111.335 30.0108V57.2411C111.335 65.2336 115.233 69.7307 121.523 70H128.077V62.0453H123.14V30.0431L123.134 30.0377ZM57.44 37.4647C49.4951 38.4772 43 44.7139 43 53.5788C43 62.4438 49.4951 68.6751 57.44 69.693C64.7706 70.6302 69.2335 69.1168 71.6537 67.975V55.6631H70.0259C63.1266 55.6631 57.5586 60.408 57.5586 68.1204C56.4051 67.9211 55.5373 67.7703 54.3461 67.2641C54.4054 66.7847 54.4162 60.2895 54.4108 53.5788C54.4108 46.8628 54.4108 40.3676 54.3461 39.8936C55.5373 39.3874 56.3998 39.2366 57.5586 39.0373C57.5586 46.7497 63.1266 51.4945 70.0259 51.4945H71.6483V39.1773C69.2282 38.0355 64.7652 36.5275 57.4346 37.4647H57.44ZM155.788 57.2196L149.858 60.3003C148.231 61.1458 147.206 62.8316 147.201 64.6627V66.51L144.161 66.5747V43.9976H156.989V37.7986H143.897V30H139.941C136.534 34.9711 132.308 39.3281 127.436 42.8773V43.9922H132.341V57.0742C132.341 66.6231 136.809 69.9731 144.759 69.9731C147.864 69.9731 150.473 69.5422 153.163 68.0935C155.944 66.5962 157 64.8943 157 64.8943L156.936 57.1765L155.782 57.2035L155.788 57.2196Z" fill="white"/>
</svg>
