<svg width="240" height="70" viewBox="0 0 240 70" fill="none" xmlns="http://www.w3.org/2000/svg">
<path d="M21 55C32.0457 55 41 46.0457 41 35C41 23.9543 32.0457 15 21 15C9.9543 15 1 23.9543 1 35C1 46.0457 9.9543 55 21 55Z" fill="#7F6000"/>
<path d="M30.9922 39.1696C31.0093 38.2935 30.9956 37.4199 30.9989 36.545C30.9883 35.6715 30.9647 34.7985 30.9484 33.9255C30.9325 33.0528 30.8935 32.1814 30.8596 31.3101C30.8492 31.0524 30.7283 30.7975 30.5074 30.6266C30.1075 30.3172 29.5304 30.3881 29.2195 30.785L29.1567 30.8632C27.9964 32.3409 26.866 33.8389 25.7472 35.3453L24.0901 37.6189L23.2811 38.7596C22.7724 38.2579 22.266 37.7536 21.7518 37.2577L20.4628 36.0224L19.1653 34.7965C18.2966 33.9831 17.4176 33.1794 16.5343 32.3798C15.6499 31.5814 14.7501 30.7978 13.8458 30.0194L13.7676 29.9521L13.7395 29.9298C13.4639 29.72 13.0691 29.7714 12.8574 30.0453C12.5237 30.4766 12.1864 30.9041 11.8639 31.3449L10.8867 32.6595L9.92995 33.9923C9.61422 34.44 9.30353 34.8903 9.00098 35.3489C9.42495 34.9983 9.83994 34.6393 10.2521 34.2772L11.4775 33.183L12.6818 32.0693C12.8972 31.8734 13.1083 31.6733 13.3178 31.4723C13.9512 32.2068 14.5869 32.9378 15.2341 33.6578C16.031 34.5424 16.8324 35.4224 17.6436 36.292L18.8659 37.5919L20.0985 38.8826C20.9218 39.7409 21.756 40.5888 22.5933 41.4334C22.6437 41.483 22.7029 41.5345 22.7632 41.5756C23.3069 41.9497 24.0516 41.8166 24.4288 41.2779L26.0408 38.9728L27.6234 36.6471C28.2151 35.7616 28.8008 34.8725 29.3807 33.9789C29.3863 34.0095 29.3902 34.0396 29.3961 34.0707C29.5433 34.9312 29.6841 35.7931 29.8372 36.653C30.0043 37.5123 30.1555 38.3728 30.336 39.2308C30.5135 40.0887 30.6964 40.9456 30.91 41.8008C30.9594 40.9217 30.9787 40.0451 30.9922 39.1696Z" fill="#F8FBFB"/>
<path d="M62.4265 36.4153C63.0246 34.1986 65.173 32.5062 67.5656 32.5062C70.1587 32.5062 71.9454 34.3964 72.5421 36.4153H62.4265ZM67.5318 29.6309C62.8445 29.6309 59.3091 33.3957 59.3091 38.3878C59.3091 43.5001 62.7671 47.2107 67.5318 47.2107C70.8167 47.2107 73.5766 45.5458 75.1015 42.6402C75.2838 42.2912 75.1606 41.8591 74.8179 41.6614L73.5477 40.926C73.376 40.8261 73.1691 40.7986 72.9777 40.8556C72.7849 40.9098 72.6238 41.04 72.5295 41.2173C71.4746 43.199 69.7266 44.3361 67.7331 44.3361C66.1772 44.3361 64.7775 43.7788 63.7902 42.7669C62.9113 41.8647 62.4032 40.6734 62.3019 39.2906H74.9516C75.3555 39.2906 75.6835 38.9648 75.6877 38.5602C75.7081 35.9107 74.8158 33.5421 73.1748 31.8898C71.7083 30.412 69.7569 29.6309 67.5318 29.6309Z" fill="black"/>
<path d="M91.8921 29.6309C90.04 29.6309 88.4348 30.4 87.3934 31.7384C86.3822 30.3852 84.8509 29.6309 83.0368 29.6309C81.8215 29.6309 80.7019 30.0137 79.8272 30.6885C79.8216 30.2881 79.4951 29.9651 79.0925 29.9651H77.588C77.182 29.9651 76.852 30.2944 76.852 30.7012V46.1411C76.852 46.5478 77.182 46.8771 77.588 46.8771H79.0925C79.4993 46.8771 79.8272 46.5478 79.8272 46.1411V37.6523C79.8272 34.238 80.8743 32.5062 82.9361 32.5062C84.8833 32.5062 85.6426 33.6588 85.6426 36.6165V46.1411C85.6426 46.5478 85.9712 46.8771 86.3779 46.8771H87.8817C88.2885 46.8771 88.6185 46.5478 88.6185 46.1411V37.2512C88.6185 32.5062 91.0568 32.5062 91.859 32.5062C93.8069 32.5062 94.4318 33.4161 94.4318 36.2492V46.1411C94.4318 46.5478 94.7611 46.8771 95.1678 46.8771H96.6716C97.0791 46.8771 97.407 46.5478 97.407 46.1411V36.449C97.407 33.5223 96.8363 29.6309 91.8921 29.6309Z" fill="black"/>
<path d="M101.948 34.177C101.948 32.84 103.284 31.7704 104.587 31.7704C105.791 31.7704 106.793 32.4389 107.294 33.5078L108.598 32.84C107.929 31.4031 106.225 30.3665 104.655 30.3665C102.416 30.3665 100.444 31.9379 100.444 34.277C100.444 36.8842 102.85 37.7856 104.955 38.5548C106.492 39.0896 107.962 39.6912 107.962 41.5961C107.962 43.5341 106.426 45.0717 104.487 45.0717C102.449 45.0717 101.212 43.7685 100.644 41.9304L99.1744 42.3984C99.8085 44.9042 101.915 46.4756 104.487 46.4756C107.261 46.4756 109.467 44.5038 109.467 41.663C109.467 36.082 101.948 37.8862 101.948 34.177Z" fill="black"/>
<path d="M121.697 39.4239C121.697 42.3984 121.363 45.0718 117.653 45.0718C113.943 45.0718 113.61 42.3984 113.61 39.4239V30.7008H112.106V39.9587C112.106 41.5294 112.072 43.1 113.04 44.4033C114.111 45.8072 115.915 46.4757 117.653 46.4757C119.391 46.4757 121.196 45.8072 122.264 44.4033C123.234 43.1 123.2 41.5294 123.2 39.9587V30.7008H121.697V39.4239Z" fill="black"/>
<path d="M128.678 32.7064H128.611V30.7009H127.107V46.1415H128.611V38.2537C128.611 35.9815 128.411 31.7705 131.786 31.7705C132.187 31.7705 132.488 31.8712 132.856 32.071L133.657 30.7347C133.123 30.5004 132.622 30.3666 132.021 30.3666C130.383 30.3666 129.28 31.3033 128.678 32.7064Z" fill="black"/>
<path d="M141.711 45.0717C137.968 45.0717 135.628 41.8635 135.628 38.3211C135.628 34.9793 138.068 31.7704 141.611 31.7704C145.353 31.7704 147.793 34.5774 147.793 38.1536C147.793 41.8635 145.655 45.0717 141.711 45.0717ZM147.693 33.3748H147.626C146.189 31.4361 144.318 30.3672 141.81 30.3672C137.3 30.3672 134.124 33.9427 134.124 38.388C134.124 42.6988 137.132 46.4756 141.611 46.4756C143.95 46.4756 146.256 45.306 147.626 43.468H147.693V45.3729C147.693 47.4446 147.525 49.4501 146.323 51.2213C145.187 52.8589 143.315 53.5274 141.376 53.5274C138.268 53.5274 135.562 51.5218 135.394 48.3137H133.891C134.124 52.5577 137.466 54.9305 141.51 54.9305C143.95 54.9305 146.223 53.9278 147.66 51.9567C149.13 49.9174 149.196 47.7788 149.196 45.406V30.7008H147.693V33.3748Z" fill="black"/>
<path d="M159.353 31.7705C162.529 31.7705 164.868 34.3101 165.234 37.1509H153.338C153.606 34.244 156.212 31.7705 159.353 31.7705ZM159.521 45.0718C155.945 45.0718 153.238 42.4653 153.338 38.5548H166.74C166.773 34.1103 163.998 30.3666 159.32 30.3666C154.808 30.3666 151.833 34.0765 151.833 38.388C151.833 42.7658 154.741 46.4757 159.32 46.4757C162.36 46.4757 164.833 44.9712 166.237 42.2978L164.968 41.5624C163.866 43.6348 161.927 45.0718 159.521 45.0718Z" fill="black"/>
</svg>
