<svg width="240" height="70" viewBox="0 0 240 70" fill="none" xmlns="http://www.w3.org/2000/svg">
<path d="M77.8067 16.0043C79.9051 16.0356 81.5347 17.7458 81.5112 19.8777C81.4878 21.9862 79.7918 23.6183 77.6543 23.5949C75.5363 23.5754 73.8989 21.9003 73.9068 19.7684C73.9224 17.6091 75.6223 15.9692 77.8067 16.0004V16.0043Z" fill="#32B8BB"/>
<path d="M74.6764 25.7692C76.6264 28.3346 77.787 31.5363 77.787 35.0036C77.787 43.4415 70.9406 50.2784 62.4999 50.2784C59.0298 50.2784 55.8255 49.1227 53.2581 47.1704L57.3886 43.0432C58.8657 43.9803 60.6203 44.5231 62.496 44.5231C67.7558 44.5231 72.023 40.2631 72.023 35.0036C72.023 33.1255 71.476 31.3723 70.5381 29.9003L74.6725 25.7692H74.6764Z" fill="#32B8BB"/>
<path d="M71.5816 22.7165L67.4355 26.8593C65.9974 25.9885 64.3054 25.4848 62.5 25.4848C57.2402 25.4848 52.9729 29.7487 52.9729 35.0043C52.9729 36.8082 53.4731 38.495 54.3484 39.9319L50.2023 44.0747C48.3227 41.5406 47.2129 38.3974 47.2129 35.0043C47.2129 26.5703 54.0593 19.7295 62.5 19.7295C65.8997 19.7295 69.0416 20.8384 71.5777 22.7165H71.5816Z" fill="#32B8BB"/>
<path d="M47.3225 46.4055C49.4444 46.4173 51.0934 48.0884 51.0895 50.2164C51.0817 52.3444 49.4209 54 47.299 54C45.142 54 43.4734 52.3093 43.489 50.1422C43.5124 48.0299 45.1927 46.3899 47.3264 46.4055H47.3225Z" fill="#32B8BB"/>
<path d="M113.187 20.9126L107.306 50.2791H101.722L90.7643 31.9079L87.0676 50.2791H80.3502L86.2314 20.9126H91.8546L102.816 39.3306L106.466 20.9126H113.187Z" fill="black"/>
<path d="M45.5056 25.0158L40.5936 29.0415C39.0266 26.7495 36.6624 25.6015 33.501 25.6015C31.3439 25.6015 29.4409 26.1052 27.7918 27.1126C26.1388 28.12 24.8571 29.4905 23.9505 31.2241C23.04 32.9578 22.5867 34.8867 22.5867 37.0108C22.5867 39.2793 23.3096 41.0754 24.7477 42.403C26.1897 43.7306 28.2099 44.3944 30.8125 44.3944C33.9191 44.3944 36.5217 43.262 38.6201 40.9935L42.6491 45.105C39.7378 48.4903 35.5956 50.181 30.2185 50.181C27.2799 50.181 24.7125 49.65 22.5125 48.5879C20.3163 47.522 18.6282 46.0265 17.4558 44.0976C16.2796 42.1687 15.6934 39.9431 15.6934 37.4286C15.6934 34.1018 16.4555 31.0992 17.9834 28.4284C19.5074 25.7577 21.6567 23.6531 24.4273 22.1147C27.1978 20.5763 30.3748 19.8071 33.9582 19.8071C36.5882 19.8071 38.9132 20.2561 40.9296 21.1503C42.946 22.0522 44.47 23.3368 45.5056 25.0119V25.0158Z" fill="black"/>
<path d="M13.7197 20.9126L7.84246 50.2791H1L6.87723 20.9126H13.7197Z" fill="black"/>
</svg>
