<svg width="200" height="100" viewBox="0 0 200 100" fill="none" xmlns="http://www.w3.org/2000/svg">
<path d="M122.892 29.0048C125.211 29.0393 127.012 30.9296 126.986 33.2859C126.96 35.6163 125.086 37.4202 122.723 37.3943C120.382 37.3728 118.573 35.5214 118.581 33.1651C118.598 30.7785 120.477 28.966 122.892 29.0005V29.0048Z" fill="white"/>
<path d="M119.432 39.7976C121.587 42.6329 122.87 46.1718 122.87 50.004C122.87 59.3301 115.303 66.8867 105.974 66.8867C102.138 66.8867 98.5966 65.6093 95.759 63.4515L100.324 58.8899C101.957 59.9256 103.896 60.5255 105.969 60.5255C111.783 60.5255 116.499 55.8172 116.499 50.004C116.499 47.9282 115.895 45.9905 114.858 44.3635L119.428 39.7976H119.432Z" fill="white"/>
<path d="M116.011 36.4235L111.429 41.0023C109.839 40.04 107.969 39.4832 105.974 39.4832C100.16 39.4832 95.4437 44.1959 95.4437 50.0047C95.4437 51.9985 95.9966 53.8629 96.9641 55.451L92.3815 60.0299C90.3041 57.2291 89.0774 53.755 89.0774 50.0047C89.0774 40.683 96.6445 33.122 105.974 33.122C109.731 33.122 113.204 34.3477 116.007 36.4235H116.011Z" fill="white"/>
<path d="M89.1985 62.6061C91.5438 62.6191 93.3664 64.4662 93.3621 66.8182C93.3535 69.1702 91.5179 71 89.1726 71C86.7885 71 84.9443 69.1313 84.9615 66.7362C84.9874 64.4014 86.8446 62.5889 89.2028 62.6061H89.1985Z" fill="white"/>
<path d="M161.996 34.4297L155.496 66.8874H149.324L137.213 46.5825L133.127 66.8874H125.703L132.203 34.4297H138.418L150.533 54.7864L154.567 34.4297H161.996Z" fill="white"/>
<path d="M87.1904 38.9649L81.7613 43.4143C80.0294 40.881 77.4163 39.6122 73.9222 39.6122C71.5381 39.6122 69.4347 40.1689 67.612 41.2823C65.785 42.3958 64.3684 43.9106 63.3664 45.8267C62.36 47.7428 61.859 49.8747 61.859 52.2224C61.859 54.7298 62.658 56.715 64.2475 58.1823C65.8412 59.6496 68.0742 60.3833 70.9507 60.3833C74.3843 60.3833 77.2608 59.1317 79.5802 56.6243L84.0332 61.1687C80.8155 64.9103 76.2372 66.779 70.2942 66.779C67.0462 66.779 64.2086 66.1921 61.7769 65.0182C59.3496 63.8401 57.4838 62.1872 56.188 60.0553C54.888 57.9234 54.2401 55.4634 54.2401 52.6842C54.2401 49.0073 55.0824 45.6886 56.7711 42.7367C58.4556 39.7848 60.8311 37.4587 63.8933 35.7584C66.9555 34.058 70.4669 33.2078 74.4275 33.2078C77.3343 33.2078 79.9041 33.7041 82.1328 34.6924C84.3614 35.6893 86.0458 37.1091 87.1904 38.9605V38.9649Z" fill="white"/>
<path d="M52.0586 34.4297L45.5627 66.8874H38L44.4959 34.4297H52.0586Z" fill="white"/>
</svg>
