<svg width="240" height="70" viewBox="0 0 240 70" fill="none" xmlns="http://www.w3.org/2000/svg">
<path d="M28.7413 29.6305C28.6706 27.6789 28.7044 25.721 28.7228 23.7694C39.8981 23.8033 51.0703 23.7755 62.2456 23.7817C62.2456 25.7272 62.2456 27.6665 62.2456 29.6089C51.0765 29.6213 39.9073 29.5842 28.7413 29.6305ZM43.8883 5.00618H46.6776C46.6991 5.96039 46.6991 6.90843 46.6929 7.86265C47.6268 7.86265 48.5606 7.86265 49.4944 7.85648C49.5005 8.79217 49.5006 9.72785 49.4729 10.6605C48.5483 10.6605 47.6206 10.6666 46.696 10.6605C46.696 11.5807 46.696 12.501 46.7022 13.4243C45.7837 13.483 44.8621 13.4706 43.9437 13.4613C43.9375 12.5257 43.9375 11.59 43.9344 10.6512C43.0006 10.6635 42.0667 10.6574 41.1329 10.6605C41.1176 9.72785 41.1207 8.79217 41.1176 7.85956C42.0576 7.85956 42.9975 7.85339 43.9344 7.85956C43.9129 6.90535 43.9989 5.94804 43.8883 5V5.00618ZM67.0867 17.6766C67.0867 20.3756 64.9119 22.5619 62.2271 22.5619C59.5424 22.5619 57.3674 20.3756 57.3674 17.6766C57.3674 14.9776 59.5424 12.7912 62.2271 12.7912C64.9119 12.7912 67.0867 14.9776 67.0867 17.6766ZM55.9176 17.6766C55.9176 20.3756 53.7428 22.5619 51.058 22.5619C48.3733 22.5619 46.1983 20.3756 46.1983 17.6766C46.1983 14.9776 48.3733 12.7912 51.058 12.7912C53.7428 12.7912 55.9176 14.9776 55.9176 17.6766ZM44.7484 17.6766C44.7484 20.3756 42.5737 22.5619 39.8889 22.5619C37.2041 22.5619 35.0293 20.3756 35.0293 17.6766C35.0293 14.9776 37.2041 12.7912 39.8889 12.7912C42.5737 12.7912 44.7484 14.9776 44.7484 17.6766ZM33.5794 17.6766C33.5794 20.3756 31.4045 22.5619 28.7197 22.5619C26.035 22.5619 23.8601 20.3756 23.8601 17.6766C23.8601 14.9776 26.035 12.7912 28.7197 12.7912C31.4045 12.7912 33.5794 14.9776 33.5794 17.6766Z" fill="#00A1E4"/>
<path d="M53.5127 34.5777C58.1573 34.5622 62.805 34.6086 67.4495 34.5561C68.9148 38.5644 70.1988 42.6407 71.5842 46.6799C71.6979 46.4977 71.8606 46.3464 71.919 46.1333C73.2429 42.2794 74.5977 38.4347 75.9339 34.5808C80.6062 34.5746 85.2752 34.5746 89.9474 34.5808V56.9755C87.0876 57.0126 84.2278 56.9879 81.368 56.9879C81.3618 51.8308 81.3924 46.6737 81.3525 41.5166C80.9532 41.742 80.9133 42.2485 80.7413 42.6314C79.0825 47.421 77.3776 52.1952 75.7188 56.9879C73.031 56.9879 70.3402 57.025 67.6523 56.9694C65.9659 52.0717 64.2241 47.1987 62.5223 42.3072C62.4609 42.0323 62.3103 41.8347 62.0707 41.7081C62.0646 46.8034 62.0707 51.8987 62.0707 56.9972C59.217 56.9972 56.3634 56.9972 53.5097 56.9972C53.5158 49.5271 53.5097 42.0539 53.5097 34.5808L53.5127 34.5777ZM1 34.5777C3.81993 34.5777 6.64294 34.5777 9.46594 34.5777C9.47209 37.2921 9.4598 40.0065 9.46594 42.721C12.2644 40.0282 14.9982 37.2705 17.7967 34.5777C20.6412 34.5715 23.4857 34.5715 26.3271 34.5777C23.0495 37.9283 19.6828 41.1893 16.4297 44.5615C20.5275 48.5574 24.4871 52.7016 28.6217 56.6544C28.6586 49.2955 28.6279 41.9366 28.6371 34.5746C31.5216 34.5684 34.406 34.5684 37.2904 34.5746C37.2904 40.1579 37.2843 45.738 37.2904 51.3213C41.8981 51.3089 46.5028 51.3367 51.1074 51.3058C51.1719 53.1988 51.1167 55.0949 51.1382 56.9879C39.9414 56.9879 28.7416 56.9972 17.5448 56.9817C14.8969 54.2858 12.2122 51.627 9.55196 48.9434C9.5151 51.627 9.55808 54.3105 9.53044 56.9972C6.68594 56.9755 3.84143 56.9972 1 56.9848V34.5777Z" fill="#00A1E4"/>
</svg>
