<svg width="200" height="100" viewBox="0 0 200 100" fill="none" xmlns="http://www.w3.org/2000/svg">
<path d="M153.314 72.1092V75.2958H175V60.9328H171.839V72.1139H153.314V72.1092ZM153.314 24.7041V27.8907H171.839V39.0718H175V24.7088H153.314V24.7041ZM142.13 49.3439V41.9445H147.085C149.503 41.9445 150.367 42.7552 150.367 44.9717V46.2838C150.367 48.5613 149.53 49.3439 147.085 49.3439H142.13ZM150 50.656C152.259 50.0609 153.84 47.9381 153.84 45.4075C153.84 43.8142 153.221 42.3803 152.045 41.2228C150.558 39.7841 148.578 39.0672 146.002 39.0672H139.034V60.9281H142.13V52.2165H146.779C149.163 52.2165 150.126 53.2147 150.126 55.7124V60.9281H153.287V56.2138C153.287 52.7789 152.482 51.4667 150.005 51.0918V50.656H150ZM123.917 51.373H133.46V48.5004H123.917V41.9398H134.385V39.0672H120.756V60.9281H134.85V58.0555H123.917V51.373ZM113.537 52.5305V54.0301C113.537 57.1838 112.388 58.2148 109.511 58.2148H108.828C105.946 58.2148 104.551 57.2776 104.551 52.9382V47.0664C104.551 42.6942 106.006 41.7898 108.888 41.7898H109.506C112.323 41.7898 113.225 42.8536 113.253 45.7871H116.66C116.349 41.4758 113.499 38.7626 109.227 38.7626C107.154 38.7626 105.416 39.4186 104.114 40.6651C102.162 42.5068 101.078 45.6325 101.078 50.0046C101.078 54.3768 102.008 57.3432 103.928 59.2785C105.23 60.5579 107.024 61.2467 108.79 61.2467C110.65 61.2467 112.351 60.4969 113.221 58.8755H113.653V60.9374H116.502V49.6626H108.107V52.5352H113.527L113.537 52.5305ZM86.2124 41.9445H89.5872C92.7761 41.9445 94.5147 42.7552 94.5147 47.1273V52.8726C94.5147 57.2448 92.7808 58.0555 89.5872 58.0555H86.2124V41.9398V41.9445ZM89.8661 60.9328C95.7838 60.9328 97.9825 56.4059 97.9825 50.0046C97.9825 43.6034 95.6303 39.0765 89.8057 39.0765H83.1117V60.9374H89.8661V60.9328ZM68.1527 51.3777H77.6962V48.5051H68.1527V41.9445H78.6213V39.0718H64.9916V60.9328H79.0861V58.0601H68.1527V51.3777ZM49.8745 39.0718H46.7135V60.9328H60.9614V58.0601H49.8698V39.0718H49.8745ZM25 60.9328V75.2958H46.6856V72.1092H28.161V60.9281H25V60.9328ZM25 24.7088V39.0718H28.161V27.8907H46.6856V24.7041H25V24.7088Z" fill="white"/>
</svg>
