<svg width="240" height="70" viewBox="0 0 240 70" fill="none" xmlns="http://www.w3.org/2000/svg">
<g clip-path="url(#clip0_5508_14956)">
<path d="M55.5746 3H1V63.0202H55.5746V3Z" fill="#4F98D3"/>
<path d="M35.5719 50.085H15.1122V8.92773H9.76715V54.7474H35.5719V50.085Z" fill="white"/>
<path d="M42.5442 22.5798C42.5442 28.3514 38.5096 31.6517 31.6409 31.6517H25.5462L44.4031 54.7626H50.9122L35.4074 35.8692C43.1598 35.1896 47.8496 29.8873 47.8496 22.5828C47.8496 14.032 42.0871 8.92773 32.3448 8.92773H25.5584V13.5749H31.845C38.7137 13.5749 42.5442 16.8569 42.5442 22.5828" fill="white"/>
<path d="M73.0785 43.6458V44.755H66.542V31.6484H67.8188V43.6458H73.0785Z" fill="#143B62"/>
<path d="M75.6352 31.6484V44.755H74.4711V31.6484H75.6352Z" fill="#143B62"/>
<path d="M81.9036 36.1432C79.8954 36.1432 78.8075 37.8894 78.8075 40.0682C78.8075 42.247 79.8954 43.9932 81.9036 43.9932C83.9118 43.9932 85.021 42.2288 85.021 40.0682C85.021 37.9077 83.9331 36.1432 81.9036 36.1432ZM81.9036 44.9805C78.8806 44.9805 77.5307 42.6158 77.5307 40.0621C77.5307 37.5084 78.8806 35.1437 81.9036 35.1437C84.9265 35.1437 86.2978 37.4902 86.2978 40.0621C86.2978 42.6341 84.9448 44.9805 81.9036 44.9805Z" fill="#143B62"/>
<path d="M93.5748 35.3692H94.7938L91.0395 46.1629C90.8247 46.8784 90.467 47.5429 89.9881 48.1162C89.8013 48.3154 89.5743 48.4727 89.3221 48.5778C89.07 48.6828 88.7985 48.7332 88.5254 48.7257C88.1548 48.7329 87.7858 48.6762 87.4345 48.5581V47.5707C87.7257 47.6849 88.0359 47.7429 88.3487 47.7414C89.3238 47.7414 89.6834 46.9155 90.0399 45.6936L90.2837 44.8677L86.9317 35.3692H88.2085L90.8323 43.1978H90.8505L93.5748 35.3692Z" fill="#143B62"/>
<path d="M99.6238 36.1432C97.4084 36.1432 96.8446 38.2459 96.8446 40.0682C96.8446 41.8905 97.4084 43.9932 99.6238 43.9932C101.69 43.9932 102.403 41.7778 102.403 40.0682C102.403 38.3587 101.69 36.1432 99.6238 36.1432ZM103.567 31.6545V44.758H102.412V43.274H102.376C101.736 44.4594 100.8 44.9835 99.4471 44.9835C96.8751 44.9835 95.58 42.8504 95.58 40.0652C95.58 37.2098 96.7806 35.1437 99.4471 35.1437C100.057 35.1329 100.656 35.2971 101.176 35.6168C101.695 35.9366 102.111 36.3985 102.376 36.9477H102.412V31.6484L103.567 31.6545Z" fill="#143B62"/>
<path d="M106.346 31.6484H107.492L106.517 35.3784H105.371L106.346 31.6484Z" fill="#143B62"/>
<path d="M110.128 44.9805C109.237 45.0018 108.35 44.8496 107.516 44.5325V43.3654C108.3 43.7694 109.17 43.9785 110.052 43.9749C111.161 43.9749 112.139 43.3654 112.139 42.2836C112.139 40.0682 107.632 40.4065 107.632 37.6852C107.632 35.8233 109.135 35.1315 110.68 35.1315C111.453 35.1253 112.219 35.2778 112.931 35.5795V36.5943C112.264 36.281 111.535 36.1207 110.798 36.125C109.427 36.125 108.79 36.6887 108.79 37.5511C108.79 38.2276 109.147 38.5659 109.915 38.9437C111.322 39.5989 113.407 40.2937 113.407 42.2958C113.407 44.2979 111.554 44.9805 110.128 44.9805Z" fill="#143B62"/>
<path d="M69.1779 51.0233H67.8249V55.7162H69.2145C70.7382 55.7162 72.4843 55.1342 72.4843 53.2967C72.4843 51.1635 70.9606 51.0233 69.1779 51.0233ZM74.7728 63.0207H73.365L71.5061 58.6447C70.7747 56.9199 70.1561 56.8163 68.9159 56.8163H67.8249V63.0207H66.5481V49.9172H69.9276C72.2588 49.9172 73.7611 50.8954 73.7611 53.2997C73.7611 54.9879 72.4843 56.0423 70.9606 56.3196V56.3592C71.3649 56.4372 71.7299 56.6525 71.9937 56.9687C72.1098 57.1151 72.2119 57.2723 72.2984 57.438C72.3929 57.6269 72.4873 57.8128 72.5787 58.0474L74.7728 63.0207Z" fill="#143B62"/>
<path d="M81.8396 57.5202C81.8396 56.0179 81.1844 54.4028 79.4566 54.4028C77.7287 54.4028 76.7323 56.0179 76.6957 57.5202H81.8396ZM83.0981 58.5137H76.6987C76.6987 60.6468 77.7714 62.2527 79.7796 62.2527C80.729 62.2215 81.6591 61.9767 82.5009 61.5366V62.655C81.6094 63.0347 80.6538 63.2416 79.6851 63.2645C76.586 63.2645 75.4189 61.1618 75.4189 58.3461C75.4189 55.4724 76.9943 53.4246 79.3804 53.4246C82.0255 53.4246 83.0951 55.509 83.0951 57.9499L83.0981 58.5137Z" fill="#143B62"/>
<path d="M88.6991 54.4028C86.4837 54.4028 85.92 56.5055 85.92 58.3278C85.92 60.1501 86.6544 62.0272 88.626 62.0272C90.7286 62.0272 91.4783 60.0373 91.4783 58.3278C91.4783 56.0545 90.8018 54.4028 88.6991 54.4028ZM92.6424 53.6319V62.2497C92.6424 64.8613 91.46 67.0035 88.2298 67.0035C87.2597 66.9967 86.2991 66.8119 85.3958 66.4581V65.3123C86.2862 65.7444 87.2587 65.9813 88.2481 66.0071C91.2345 66.0071 91.4966 63.8282 91.4966 61.1801H91.46C90.8201 62.5331 89.8084 63.0085 88.6047 63.0085C85.6 63.0085 84.6431 60.4 84.6431 58.3156C84.6431 55.4603 85.7524 53.3972 88.5132 53.3972C89.7687 53.3972 90.7073 53.7019 91.4417 54.6923H91.4783V53.6197L92.6424 53.6319Z" fill="#143B62"/>
<path d="M96.1834 63.0207H95.0193V53.6319H96.1834V63.0207ZM96.1834 51.8126H95.0193V50.2737H96.1834V51.8126Z" fill="#143B62"/>
<path d="M100.648 63.2462C99.7571 63.2677 98.8709 63.1144 98.0392 62.7952V61.6311C98.823 62.0351 99.6927 62.2442 100.575 62.2406C101.681 62.2406 102.659 61.6311 102.659 60.5523C102.659 58.3369 98.1519 58.6752 98.1519 55.9509C98.1519 54.092 99.6543 53.3972 101.199 53.3972C101.974 53.3916 102.742 53.5462 103.454 53.8513V54.863C102.786 54.5516 102.058 54.3913 101.321 54.3937C99.9529 54.3937 99.313 54.9574 99.313 55.8229C99.313 56.4963 99.6695 56.8346 100.44 57.2094C101.845 57.8676 103.933 58.5624 103.933 60.5615C103.933 62.5605 102.074 63.2462 100.645 63.2462" fill="#143B62"/>
<path d="M109.561 62.9841C109.117 63.1522 108.647 63.2409 108.172 63.2462C107.695 63.268 107.225 63.1296 106.837 62.8531C106.2 62.4021 106.032 61.5762 106.032 60.2994V54.6283H104.545V53.6319H106.048V51.3616L107.209 50.9472V53.6319H109.342V54.6283H107.209V60.6925C107.209 61.6067 107.513 62.2527 108.467 62.2527C108.85 62.2517 109.228 62.1686 109.576 62.009L109.561 62.9841Z" fill="#143B62"/>
<path d="M116.53 57.5202C116.53 56.0179 115.872 54.4028 114.144 54.4028C112.416 54.4028 111.423 56.0179 111.402 57.5202H116.53ZM117.789 58.5137H111.39C111.39 60.6468 112.459 62.2527 114.467 62.2527C115.418 62.2215 116.349 61.9767 117.192 61.5366V62.655C116.299 63.0344 115.343 63.2412 114.373 63.2645C111.277 63.2645 110.107 61.1618 110.107 58.3461C110.107 55.4724 111.682 53.4246 114.068 53.4246C116.713 53.4246 117.786 55.509 117.786 57.9499L117.789 58.5137Z" fill="#143B62"/>
<path d="M124.015 54.7319C123.74 54.652 123.454 54.614 123.167 54.6192C121.339 54.6192 120.839 56.6853 120.839 58.3735V63.0207H119.675V55.7345C119.695 55.0327 119.67 54.3304 119.599 53.6319H120.766V55.4359H120.803C121.178 54.3449 121.967 53.4246 123.167 53.4246C123.454 53.4281 123.738 53.467 124.015 53.5404V54.7319Z" fill="#143B62"/>
</g>
<defs>
<clipPath id="clip0_5508_14956">
<rect width="123.015" height="64" fill="white" transform="translate(1 3)"/>
</clipPath>
</defs>
</svg>
