<svg width="240" height="70" viewBox="0 0 240 70" fill="none" xmlns="http://www.w3.org/2000/svg">
<path d="M45.6233 22.3958C44.7004 23.2887 44.2106 24.4794 44.2106 25.7817V48.3295C44.2106 48.6271 44.4555 48.9248 44.8134 48.9248H49.3906C49.692 48.9248 49.9933 48.6829 49.9933 48.3295V40.5903C49.9933 39.9392 50.5396 39.4555 51.1612 39.4555H71.7493C72.4274 39.4555 72.9171 39.995 72.9171 40.5903V48.3295C72.9171 48.6271 73.162 48.9248 73.5199 48.9248H78.0971C78.3985 48.9248 78.6999 48.6829 78.6999 48.3295V25.7631C78.6999 24.5166 78.2101 23.2701 77.2871 22.3772C76.3642 21.4842 75.1398 21.0005 73.8024 21.0005H49.0327C47.7518 20.9819 46.5275 21.5028 45.6233 22.3958ZM73.5387 34.5999L75.8556 36.8695L71.2219 34.5441C70.3742 34.1348 69.4512 33.8929 68.5283 33.8929H54.2315C53.252 33.8929 52.3291 34.1348 51.4814 34.5441L47.0172 36.8695L49.2211 34.5441C49.6543 34.1348 49.8992 33.5394 49.8992 32.9441V27.7165C49.8992 27.0653 50.4454 26.5816 51.067 26.5816H71.6551C72.3332 26.5816 72.8229 27.1211 72.8229 27.7165V32.9441C72.8606 33.5208 73.1055 34.1162 73.5387 34.5999Z" fill="#000A1E"/>
<path d="M29.7253 21.5036V40.0144C29.7253 40.126 29.7253 40.312 29.7819 40.4237L31.6843 45.056L29.7253 43.0282L8.76055 21.2059C8.64754 21.0943 8.45917 21.0199 8.32732 21.0199H1.48974C1.24487 21.0199 1 21.2617 1 21.5036V48.5163C1 48.7582 1.24487 49 1.48974 49H6.25533C6.5002 49 6.74507 48.7582 6.74507 48.5163V30.0055C6.74507 29.8939 6.74507 29.7079 6.68856 29.5962L4.7861 24.9639L6.74507 26.9917L27.7099 48.7582C27.8229 48.8698 27.9547 48.9442 28.1431 48.9442H34.9807C35.2255 48.9442 35.4704 48.7023 35.4704 48.4605V21.5036C35.4704 21.2617 35.2255 21.0199 34.9807 21.0199H30.2151C29.8949 21.0385 29.7253 21.2617 29.7253 21.5036Z" fill="#000A1E"/>
<path d="M108.913 36.8504C108.913 36.8504 108.857 36.7946 108.857 36.7388L104.882 32.5715L108.424 34.0598C108.537 33.818 108.668 33.5203 108.913 33.3529L120.837 21.0372H113.698C113.34 21.0372 113.02 21.1488 112.775 21.3907L105.259 29.1298C104.223 30.2089 102.509 30.2089 101.473 29.1298L93.9572 21.3907C93.7124 21.1488 93.411 21.0372 93.0343 21.0372H85.9518L96.9522 32.5157L97.2536 32.8692L97.7998 33.4645L101.774 37.6318L98.2331 36.1435C98.1201 36.3853 97.9317 36.683 97.7433 36.8504L86.0648 48.8685L85.9518 48.9801H93.2226C93.5805 48.9801 93.9007 48.8685 94.1456 48.6266L101.416 41.0735C102.452 39.9945 104.167 39.9945 105.203 41.0735L112.473 48.6266C112.718 48.8685 113.02 48.9801 113.396 48.9801H120.667L120.554 48.8685L108.913 36.8504Z" fill="#000A1E"/>
</svg>
