<svg width="240" height="70" viewBox="0 0 240 70" fill="none" xmlns="http://www.w3.org/2000/svg">
<g filter="url(#filter0_d_5508_14976)">
<path fill-rule="evenodd" clip-rule="evenodd" d="M14.0289 43.3767L27.0587 34.9098L14.0304 26.4414L14.0289 43.3767Z" fill="#8168A0"/>
<path fill-rule="evenodd" clip-rule="evenodd" d="M6.78608 23.3457L1 34.8884L14.0283 26.42L6.78608 23.3457Z" fill="#CAC8E9"/>
<path fill-rule="evenodd" clip-rule="evenodd" d="M21.2741 23.3457L14.0289 26.42L27.0572 34.8884L21.2741 23.3457Z" fill="#CAA3C7"/>
<path fill-rule="evenodd" clip-rule="evenodd" d="M6.78601 23.3457L14.0282 26.42L21.2733 23.3457H6.78601Z" fill="#E4D8EB"/>
<path fill-rule="evenodd" clip-rule="evenodd" d="M6.78589 46.4371H21.2732L14.0281 43.3613L6.78589 46.4371Z" fill="#793773"/>
<path fill-rule="evenodd" clip-rule="evenodd" d="M14.0288 43.338L21.2739 46.4138L27.0585 34.8711L14.0288 43.338Z" fill="#7D4476"/>
<path fill-rule="evenodd" clip-rule="evenodd" d="M6.78608 46.4138L14.0297 43.338L1 34.8711L6.78608 46.4138Z" fill="#88739F"/>
<path fill-rule="evenodd" clip-rule="evenodd" d="M1 34.9083L14.0283 43.3752V26.4414L1 34.9083Z" fill="#9B90C1"/>
</g>
<path fill-rule="evenodd" clip-rule="evenodd" d="M58.3974 23.0289C52.6084 23.0289 48.2548 27.0995 48.2548 32.9298V47.2904H52.2753V32.7928C52.2753 29.2395 54.9222 26.8505 58.3974 26.8505C61.8461 26.8505 64.4738 29.238 64.4738 32.7928V47.2904H68.4958V32.9298C68.4958 27.0995 64.1599 23.0289 58.3974 23.0289ZM87.6609 37.2421C87.6609 40.7954 85.0331 43.183 81.5845 43.183C78.1093 43.183 75.7733 40.7954 75.7733 37.2421V22.9243H71.7528V37.2407C71.7528 42.9766 75.8883 47.1401 81.5845 47.1401C87.2821 47.1401 91.727 42.9766 91.727 37.2407V22.9243H87.6609V37.2407V37.2421ZM181.489 38.6201V27.6463H187.399V23.5079H181.489V18.5H177.245V38.6201C177.245 41.3245 178.013 43.5809 179.469 45.1416C180.895 46.6744 182.92 47.482 185.324 47.482L188.166 47.4864V43.4202H186.04C183.019 43.4202 181.489 41.805 181.489 38.6201ZM195.98 29.4856C195.98 27.6655 198.195 26.2079 201.27 26.2079C204.118 26.2079 206.333 27.4827 206.875 29.9867H210.763C210.266 25.3885 206.65 22.6575 201.269 22.6575C195.03 22.6575 192.137 26.2536 192.137 29.6227C192.137 34.0381 195.573 35.4043 201.225 36.2237C206.921 36.9975 207.553 38.2266 207.553 39.864C207.553 41.9126 205.338 43.6885 201.721 43.6885C198.376 43.6885 195.708 42.0039 195.212 39.273H191.324C191.958 44.2352 196.07 47.286 201.721 47.286C207.282 47.286 211.261 44.3266 211.261 39.637C211.261 34.3108 207.011 33.3101 201.859 32.4906C197.291 31.7626 195.98 31.1701 195.98 29.4856ZM134.094 42.8779C129.761 42.8779 126.25 39.3408 126.25 34.9784C126.25 30.616 129.761 27.0804 134.094 27.0804C138.117 27.0804 141.43 30.1311 141.883 34.0602L141.892 35.8376C141.466 39.7962 138.137 42.8779 134.094 42.8779ZM134.095 22.9331C127.485 22.9331 122.13 28.3272 122.13 34.9784C122.13 41.6325 127.485 47.0266 134.094 47.0266C137.092 47.0266 139.827 45.9139 141.927 44.079L141.937 46.4518C141.937 50.8142 138.425 54.3513 134.094 54.3513C132.651 54.3498 131.237 53.9503 130.007 53.1967C128.777 52.4431 127.779 51.3647 127.123 50.0803L122.69 50.1053C124.225 54.9732 128.751 58.5 134.094 58.5C140.701 58.5 146.058 53.106 146.058 46.4533V34.0602H146.02C145.553 27.8364 140.396 22.9331 134.095 22.9331ZM106.998 42.8779C102.665 42.8779 99.1549 39.3408 99.1549 34.9784C99.1549 30.616 102.667 27.0804 106.998 27.0804C111.022 27.0804 114.335 30.1311 114.787 34.0602L114.795 35.8376C114.37 39.7962 111.042 42.8779 106.998 42.8779ZM106.998 22.9331C100.391 22.9331 95.0342 28.3272 95.0342 34.9784C95.0342 41.6325 100.391 47.0266 106.998 47.0266C109.996 47.0266 112.731 45.9139 114.832 44.079L114.842 46.4518C114.842 50.8142 111.33 54.3513 106.998 54.3513C105.556 54.3498 104.142 53.9503 102.912 53.1967C101.682 52.4431 100.684 51.3647 100.027 50.0803L95.5942 50.1053C97.1299 54.9732 101.656 58.5 106.998 58.5C113.605 58.5 118.963 53.106 118.963 46.4533V34.0602H118.924C118.457 27.8364 113.299 22.9331 106.998 22.9331ZM154.121 32.5776C155.153 29.4281 158.1 27.1526 161.574 27.1526C165.03 27.1526 167.979 29.4443 169.026 32.5688L154.121 32.5776ZM161.545 23.0039C154.938 23.0039 149.58 28.3979 149.58 35.0506C149.58 41.7033 154.938 47.0973 161.545 47.0973C166.656 47.0973 171.018 43.8697 172.731 39.3305L168.169 39.3275C167.463 40.4366 166.488 41.3498 165.335 41.9827C164.183 42.6156 162.889 42.9478 161.574 42.9486C157.536 42.9486 154.213 39.8787 153.778 35.9305L173.478 35.9201C173.498 35.6307 173.508 35.3407 173.507 35.0506C173.507 28.3979 168.152 23.0039 161.545 23.0039Z" fill="#8764A0"/>
<defs>
<filter id="filter0_d_5508_14976" x="1" y="23.3457" width="28.0587" height="25.0918" filterUnits="userSpaceOnUse" color-interpolation-filters="sRGB">
<feFlood flood-opacity="0" result="BackgroundImageFix"/>
<feColorMatrix in="SourceAlpha" type="matrix" values="0 0 0 0 0 0 0 0 0 0 0 0 0 0 0 0 0 0 127 0" result="hardAlpha"/>
<feOffset dx="1" dy="1"/>
<feGaussianBlur stdDeviation="0.5"/>
<feColorMatrix type="matrix" values="0 0 0 0 0 0 0 0 0 0 0 0 0 0 0 0 0 0 0.5 0"/>
<feBlend mode="normal" in2="BackgroundImageFix" result="effect1_dropShadow_5508_14976"/>
<feBlend mode="normal" in="SourceGraphic" in2="effect1_dropShadow_5508_14976" result="shape"/>
</filter>
</defs>
</svg>
