<svg width="240" height="70" viewBox="0 0 240 70" fill="none" xmlns="http://www.w3.org/2000/svg">
<path d="M63.3452 41.23C62.5833 40.4596 61.9789 39.5449 61.5666 38.5381C61.1542 37.5313 60.942 36.4522 60.942 35.3624C60.942 34.2726 61.1542 33.1935 61.5666 32.1867C61.9789 31.18 62.5833 30.2653 63.3452 29.4949C64.9583 27.9694 67.084 27.1207 69.2921 27.1207C71.5002 27.1207 73.6259 27.9694 75.239 29.4949C76.0009 30.2653 76.6053 31.18 77.0176 32.1867C77.43 33.1935 77.6422 34.2726 77.6422 35.3624C77.6422 36.4522 77.43 37.5313 77.0176 38.5381C76.6053 39.5449 76.0009 40.4596 75.239 41.23C73.6259 42.7555 71.5002 43.6041 69.2921 43.6041C67.084 43.6041 64.9583 42.7555 63.3452 41.23ZM65.1285 31.1381C64.1339 32.1167 63.5065 33.4148 63.3538 34.81C63.2011 36.2052 63.5326 37.6108 64.2915 38.7859C65.0505 39.961 66.1897 40.8325 67.5139 41.2512C68.8382 41.67 70.2651 41.6099 71.5504 41.0812C72.8356 40.5525 73.8992 39.5881 74.5589 38.3532C75.2186 37.1183 75.4335 35.6898 75.1667 34.3123C74.8999 32.9347 74.1679 31.6939 73.0963 30.8023C72.0247 29.9107 70.68 29.4239 69.2926 29.4251C68.5195 29.4062 67.7508 29.5485 67.0344 29.8432C66.318 30.1379 65.6692 30.5787 65.1285 31.1381Z" fill="#000A1E"/>
<path d="M83.5332 27.3711H90.2809C91.1102 27.3218 91.9408 27.4431 92.7225 27.7278C93.5041 28.0124 94.2206 28.4544 94.8287 29.027C95.881 30.1381 96.4676 31.618 96.4656 33.1568C96.4636 34.6956 95.8732 36.1739 94.818 37.2821C94.2131 37.8568 93.4991 38.3013 92.7194 38.5884C91.9397 38.8756 91.1104 38.9996 90.2819 38.9528H85.9265V43.3595H83.5332V27.3711ZM85.9236 36.665H89.7117C90.8584 36.7567 91.9994 36.4285 92.9268 35.7402C93.5992 35.0512 93.9763 34.1219 93.9763 33.1536C93.9763 32.1853 93.5992 31.256 92.9268 30.567C92.0025 29.8715 90.8601 29.5387 89.7117 29.6305H85.9236V36.665Z" fill="#000A1E"/>
<path d="M113.751 27.3712H116.143V36.6189C116.176 37.5412 116.027 38.4609 115.703 39.3237C115.379 40.1865 114.888 40.975 114.258 41.6427C112.801 42.91 110.944 43.6069 109.023 43.6069C107.101 43.6069 105.244 42.91 103.787 41.6427C103.157 40.975 102.666 40.1864 102.343 39.3236C102.019 38.4608 101.869 37.5411 101.903 36.6189V27.3712H104.295V36.4125C104.256 37.0653 104.346 37.7195 104.559 38.3369C104.772 38.9544 105.104 39.5229 105.536 40.0094C106.512 40.8427 107.747 41.2998 109.023 41.2998C110.3 41.2998 111.535 40.8427 112.511 40.0094C112.942 39.5228 113.274 38.9542 113.487 38.3368C113.7 37.7193 113.79 37.0653 113.751 36.4125V27.3712Z" fill="#000A1E"/>
<path d="M122.801 43.3546V27.3712H125.193V41.0481H134.018V43.3537L122.801 43.3546Z" fill="#000A1E"/>
<path d="M139.734 41.23C138.972 40.4596 138.368 39.5449 137.955 38.5381C137.543 37.5313 137.331 36.4522 137.331 35.3624C137.331 34.2726 137.543 33.1935 137.955 32.1867C138.368 31.18 138.972 30.2653 139.734 29.4949C141.347 27.9694 143.473 27.1207 145.681 27.1207C147.889 27.1207 150.014 27.9694 151.628 29.4949C152.389 30.2653 152.994 31.18 153.406 32.1867C153.819 33.1935 154.031 34.2726 154.031 35.3624C154.031 36.4522 153.819 37.5313 153.406 38.5381C152.994 39.5449 152.389 40.4596 151.628 41.23C150.014 42.7555 147.889 43.6041 145.681 43.6041C143.473 43.6041 141.347 42.7555 139.734 41.23ZM141.517 31.1381C140.523 32.1167 139.895 33.4148 139.742 34.81C139.59 36.2052 139.921 37.6108 140.68 38.7859C141.439 39.961 142.578 40.8325 143.903 41.2512C145.227 41.67 146.654 41.6099 147.939 41.0812C149.224 40.5525 150.288 39.5881 150.948 38.3532C151.607 37.1183 151.822 35.6898 151.555 34.3123C151.288 32.9347 150.557 31.6939 149.485 30.8023C148.413 29.9107 147.069 29.4239 145.681 29.4251C144.909 29.4067 144.141 29.5493 143.425 29.844C142.709 30.1387 142.061 30.5792 141.521 31.1381H141.517Z" fill="#000A1E"/>
<path d="M171.524 27.3712H173.917V36.6189C173.95 37.5412 173.8 38.4609 173.476 39.3237C173.152 40.1865 172.661 40.975 172.031 41.6427C170.575 42.91 168.717 43.6069 166.796 43.6069C164.875 43.6069 163.017 42.91 161.56 41.6427C160.931 40.9749 160.44 40.1864 160.116 39.3236C159.792 38.4608 159.643 37.5411 159.676 36.6189V27.3712H162.068V36.4125C162.03 37.0653 162.119 37.7194 162.332 38.3369C162.546 38.9543 162.878 39.5228 163.31 40.0094C164.285 40.8427 165.52 41.2998 166.797 41.2998C168.073 41.2998 169.309 40.8427 170.284 40.0094C170.716 39.5229 171.048 38.9544 171.261 38.3369C171.474 37.7195 171.564 37.0653 171.525 36.4125L171.524 27.3712Z" fill="#000A1E"/>
<path d="M179.58 39.2901L181.95 38.6021C181.997 39.0367 182.144 39.4541 182.379 39.8208C182.615 40.1876 182.931 40.4935 183.304 40.7141C184.232 41.2175 185.277 41.4579 186.328 41.4098C187.298 41.4645 188.265 41.2555 189.127 40.8045C189.428 40.6477 189.679 40.4101 189.854 40.1179C190.029 39.8257 190.121 39.4903 190.12 39.1485C190.128 38.9048 190.077 38.6628 189.97 38.4438C189.864 38.2248 189.706 38.0356 189.511 37.8926C189.31 37.7315 189.095 37.59 188.867 37.47C188.588 37.3311 188.297 37.2163 187.999 37.127C187.637 37.013 187.318 36.9177 187.039 36.841C186.76 36.7654 186.397 36.674 185.944 36.5678C185.779 36.5216 185.653 36.4922 185.561 36.4774C184.818 36.3094 184.086 36.0924 183.371 35.8278C182.741 35.5857 182.136 35.2794 181.567 34.9139C181.005 34.5678 180.542 34.0797 180.223 33.4977C179.907 32.8976 179.748 32.2258 179.76 31.546C179.743 30.9131 179.883 30.2859 180.166 29.7216C180.45 29.1572 180.869 28.6736 181.384 28.3147C182.68 27.4539 184.214 27.0342 185.762 27.1167C187.384 27.048 188.987 27.4866 190.354 28.3727C190.932 28.7642 191.401 29.2997 191.715 29.9276C192.029 30.5555 192.178 31.2546 192.148 31.9578V32.2309H189.76V32.1169C189.779 31.7043 189.688 31.2941 189.498 30.9288C189.307 30.5635 189.023 30.2564 188.676 30.0394C187.785 29.5243 186.766 29.2788 185.741 29.3318C184.841 29.2789 183.944 29.489 183.158 29.9372C182.878 30.0999 182.647 30.3346 182.486 30.6173C182.326 30.9001 182.242 31.2209 182.244 31.547C182.239 31.8484 182.317 32.1453 182.47 32.4039C182.61 32.6427 182.789 32.8552 183 33.0319C183.283 33.2422 183.595 33.4079 183.926 33.5233C184.34 33.6838 184.693 33.8057 184.987 33.8889C185.28 33.9721 185.705 34.0821 186.262 34.2191C187.104 34.4326 187.77 34.6118 188.26 34.7566C188.833 34.9337 189.394 35.1471 189.94 35.3954C190.467 35.6114 190.955 35.9121 191.386 36.2858C191.74 36.6303 192.03 37.036 192.243 37.4838C192.491 38.0044 192.615 38.5766 192.605 39.1544C192.628 39.8052 192.483 40.4508 192.185 41.0275C191.886 41.6042 191.443 42.092 190.901 42.4427C189.512 43.2874 187.905 43.6929 186.286 43.6073C184.684 43.6701 183.095 43.287 181.693 42.4997C181.118 42.1689 180.627 41.7063 180.26 41.1489C179.893 40.5915 179.66 39.9549 179.58 39.2901Z" fill="#000A1E"/>
<path d="M1.01929 34.9648C1.01929 30.7695 1.03192 26.5751 1.01055 22.3797C0.986492 21.8842 1.10487 21.3922 1.35138 20.9634C1.59789 20.5345 1.96196 20.1871 2.39953 19.9632C6.94856 17.3169 11.4953 14.6671 16.0398 12.0137C18.6459 10.4943 21.2587 8.98778 23.8551 7.45174C24.2985 7.15849 24.8165 7.00158 25.3462 7.00001C25.876 6.99844 26.3948 7.15227 26.84 7.44289C33.9863 11.6222 41.1388 15.792 48.2974 19.9523C48.634 20.124 48.9295 20.3678 49.1634 20.6669C49.3972 20.966 49.5638 21.313 49.6514 21.6839C49.6905 21.8733 49.7091 22.0664 49.7068 22.2599C49.7068 30.7462 49.7068 39.2329 49.7068 47.72C49.7191 48.1767 49.6047 48.6278 49.3766 49.0221C49.1484 49.4164 48.8156 49.7381 48.4159 49.9508C46.9793 50.7989 45.534 51.6343 44.0916 52.4745C38.3932 55.7949 32.6947 59.1147 26.9963 62.4337C26.6972 62.6207 26.379 62.7746 26.0473 62.8927C25.7013 62.9981 25.3368 63.0263 24.979 62.9754C24.6211 62.9245 24.2784 62.7957 23.9745 62.5978C22.05 61.471 20.1233 60.348 18.1942 59.229C17.0578 58.5666 15.9271 57.8914 14.7829 57.2428C14.3301 57.011 13.9533 56.6514 13.698 56.2076C13.4427 55.7637 13.3199 55.2546 13.3444 54.7417C13.3502 52.3133 13.3444 49.883 13.3444 47.4536C13.313 46.8223 13.5142 46.2015 13.9088 45.7114C14.3035 45.2213 14.8638 44.8967 15.4813 44.8002C16.1048 44.7038 16.7416 44.8408 17.2724 45.1854C19.0305 46.2147 20.7909 47.2411 22.5535 48.2644C23.316 48.7096 24.0882 49.1381 24.8351 49.6069C24.9826 49.7141 25.1596 49.7717 25.3412 49.7717C25.5228 49.7717 25.6998 49.7141 25.8473 49.6069C29.0144 47.7429 32.1874 45.8904 35.3662 44.0494C36.1433 43.5973 36.9135 43.1345 37.6974 42.6971C37.8347 42.6356 37.9498 42.5326 38.0268 42.4022C38.1039 42.2718 38.1391 42.1204 38.1277 41.9689C38.118 37.3205 38.118 32.6721 38.1277 28.0237C38.1409 27.8727 38.1082 27.7213 38.0341 27.5896C37.96 27.4579 37.848 27.3522 37.7129 27.2866C33.7292 24.9765 29.7504 22.6579 25.7764 20.3307C25.6453 20.2419 25.4906 20.1956 25.3329 20.1979C25.1752 20.2002 25.0219 20.2509 24.8934 20.3435C20.9337 22.6621 16.9681 24.9713 12.9967 27.2709C12.843 27.3516 12.7178 27.4784 12.6381 27.6339C12.5585 27.7894 12.5283 27.9661 12.5518 28.1396C12.5589 35.8319 12.5589 43.5253 12.5518 51.2196C12.5627 51.4945 12.5452 51.7699 12.4994 52.0411C12.4206 52.4315 12.2525 52.7978 12.0083 53.1104C11.7642 53.423 11.4509 53.6733 11.0938 53.8411C10.7366 54.0088 10.3455 54.0894 9.95191 54.0764C9.55834 54.0633 9.17329 53.957 8.82775 53.7659C8.22068 53.4376 7.63398 53.0779 7.03759 52.7261C5.47117 51.8135 3.90444 50.9011 2.33737 49.9891C1.89853 49.7488 1.53459 49.3894 1.2864 48.9513C1.08831 48.5799 0.989845 48.1625 1.00083 47.7406C1.01766 43.482 1.02383 39.2234 1.01929 34.9648ZM10.0448 51.5222V50.8294C10.0448 43.2164 10.0429 35.6036 10.039 27.9912C10.0116 27.398 10.1535 26.8094 10.4479 26.2957C10.7423 25.7819 11.1766 25.3648 11.699 25.0941C15.7138 22.7702 19.7205 20.4355 23.7191 18.09C24.2077 17.7751 24.775 17.6077 25.3543 17.6077C25.9336 17.6077 26.5009 17.7751 26.9895 18.09C30.992 20.4323 34.9987 22.7666 39.0096 25.0931C39.5391 25.3699 39.9785 25.7952 40.2753 26.3181C40.5721 26.8409 40.7137 27.4392 40.6832 28.0414C40.6735 32.6741 40.6735 37.3064 40.6832 41.9384C40.7128 42.5483 40.5676 43.1538 40.2652 43.6823C39.9628 44.2107 39.516 44.6395 38.9786 44.9172C34.9631 47.2375 30.9622 49.5823 26.9555 51.9144C26.7505 52.0402 26.5334 52.1449 26.3077 52.2269C25.8896 52.3707 25.4451 52.4188 25.0064 52.3679C24.5676 52.3169 24.1456 52.168 23.7706 51.9321C21.3203 50.4966 18.867 49.0657 16.4109 47.6394C16.2632 47.5539 16.1146 47.4733 15.898 47.3524V47.9116C15.898 50.0973 15.9067 52.2848 15.8902 54.4715C15.8762 54.6202 15.9089 54.7697 15.9837 54.8985C16.0585 55.0273 16.1716 55.1289 16.3069 55.1889C19.1833 56.8491 22.0526 58.522 24.9148 60.2078C25.0398 60.3006 25.1905 60.3514 25.3456 60.3529C25.5007 60.3545 25.6524 60.3069 25.7793 60.2166C32.7728 56.1251 39.7741 52.0451 46.7831 47.9765C46.9239 47.9096 47.0406 47.7998 47.1167 47.6625C47.1928 47.5253 47.2246 47.3674 47.2076 47.2109C47.1966 39.0639 47.1966 30.9169 47.2076 22.7699C47.2209 22.6133 47.1857 22.4564 47.1068 22.3209C47.028 22.1855 46.9094 22.0783 46.7676 22.0142C39.7896 17.9587 32.8146 13.8966 25.8424 9.82803C25.6782 9.72976 25.5131 9.6413 25.3451 9.54794C18.0569 13.796 10.7895 18.0314 3.54278 22.2539V47.7416C5.69232 48.9877 7.82243 50.2279 10.0448 51.5222Z" fill="#000A1E"/>
<path d="M17.3404 34.9766C17.3404 33.7629 17.3569 32.5482 17.3336 31.3345C17.3119 31.0188 17.3841 30.7038 17.5409 30.43C17.6978 30.1563 17.9321 29.9363 18.2136 29.7984C20.3136 28.5929 22.4062 27.3737 24.4913 26.1407C24.7459 25.9712 25.0438 25.8804 25.3485 25.8793C25.6533 25.8783 25.9518 25.967 26.2076 26.1347C28.3225 27.3796 30.4426 28.6159 32.5678 29.8437C32.8256 29.977 33.04 30.1826 33.1853 30.4361C33.3305 30.6895 33.4004 30.9799 33.3866 31.2726C33.3821 33.7504 33.3821 36.2276 33.3866 38.7041C33.3999 39.0044 33.327 39.3022 33.1765 39.5614C33.026 39.8206 32.8044 40.0301 32.5387 40.1645C30.4277 41.3838 28.3212 42.6119 26.2192 43.8489C25.9647 44.0185 25.6669 44.1094 25.3621 44.1107C25.0573 44.1119 24.7588 44.0233 24.5029 43.8557C22.4016 42.6181 20.2948 41.3903 18.1825 40.1724C17.9094 40.0352 17.6827 39.8191 17.5312 39.5514C17.3797 39.2837 17.3103 38.9765 17.3316 38.6688C17.3559 37.4374 17.3404 36.207 17.3404 34.9766ZM25.3664 27.2787C25.3167 27.2967 25.268 27.3177 25.2207 27.3416C23.1411 28.5513 21.0654 29.765 18.9819 30.966C18.8852 31.0191 18.8073 31.1014 18.759 31.2015C18.7108 31.3016 18.6947 31.4144 18.7129 31.5242C18.7187 33.8385 18.7206 36.1529 18.7129 38.4673C18.7032 38.593 18.7325 38.7186 18.7967 38.8266C18.861 38.9346 18.957 39.0196 19.0713 39.0697C20.4078 39.8343 21.7337 40.6156 23.0644 41.39L25.3509 42.7226C25.5082 42.6361 25.6471 42.5605 25.7851 42.4809C27.7277 41.3507 29.6606 40.2156 31.6081 39.0982C31.736 39.0392 31.8423 38.9411 31.912 38.8177C31.9817 38.6942 32.0114 38.5517 31.9967 38.4103C31.9818 36.1277 31.9818 33.8458 31.9967 31.5645C32.01 31.4234 31.9791 31.2817 31.9083 31.1594C31.8375 31.0372 31.7304 30.9406 31.6023 30.8834C29.6276 29.7493 27.6646 28.5985 25.6957 27.4526C25.585 27.3927 25.4762 27.3357 25.3664 27.2767V27.2787Z" fill="#000A1E"/>
</svg>
