<svg width="200" height="100" viewBox="0 0 200 100" fill="none" xmlns="http://www.w3.org/2000/svg">
<path d="M68.9315 55.785C68.2241 55.0696 67.6628 54.2202 67.2799 53.2854C66.897 52.3505 66.7 51.3485 66.7 50.3365C66.7 49.3246 66.897 48.3226 67.2799 47.3877C67.6628 46.4528 68.2241 45.6035 68.9315 44.8881C70.4294 43.4715 72.4032 42.6835 74.4536 42.6835C76.504 42.6835 78.4779 43.4715 79.9758 44.8881C80.6832 45.6035 81.2444 46.4528 81.6273 47.3877C82.0102 48.3226 82.2073 49.3246 82.2073 50.3365C82.2073 51.3485 82.0102 52.3505 81.6273 53.2854C81.2444 54.2202 80.6832 55.0696 79.9758 55.785C78.4779 57.2016 76.504 57.9896 74.4536 57.9896C72.4032 57.9896 70.4294 57.2016 68.9315 55.785ZM70.5875 46.4139C69.6639 47.3227 69.0813 48.528 68.9395 49.8236C68.7977 51.1191 69.1055 52.4243 69.8103 53.5154C70.515 54.6066 71.5728 55.4159 72.8025 55.8047C74.0321 56.1936 75.3572 56.1377 76.5506 55.6468C77.7441 55.1559 78.7316 54.2604 79.3442 53.1137C79.9569 51.967 80.1564 50.6405 79.9086 49.3614C79.6608 48.0822 78.9812 46.93 77.9861 46.1022C76.991 45.2743 75.7424 44.8222 74.4541 44.8233C73.7362 44.8057 73.0224 44.9379 72.3572 45.2115C71.692 45.4852 71.0896 45.8945 70.5875 46.4139Z" fill="white"/>
<path d="M87.6775 42.916H93.9433C94.7133 42.8703 95.4846 42.9829 96.2104 43.2472C96.9362 43.5115 97.6015 43.9219 98.1662 44.4537C99.1433 45.4853 99.688 46.8595 99.6862 48.2884C99.6843 49.7173 99.1361 51.0901 98.1563 52.1191C97.5946 52.6528 96.9316 53.0655 96.2075 53.3321C95.4835 53.5988 94.7135 53.7139 93.9442 53.6705H89.8999V57.7624H87.6775V42.916ZM89.8972 51.5461H93.4147C94.4795 51.6313 95.539 51.3265 96.4002 50.6873C97.0246 50.0475 97.3747 49.1846 97.3747 48.2855C97.3747 47.3864 97.0246 46.5235 96.4002 45.8837C95.5418 45.2378 94.4811 44.9288 93.4147 45.014H89.8972V51.5461Z" fill="white"/>
<path d="M115.737 42.9161H117.958V51.5032C117.989 52.3597 117.85 53.2137 117.549 54.0148C117.249 54.816 116.792 55.5482 116.208 56.1682C114.855 57.345 113.13 57.9922 111.346 57.9922C109.562 57.9922 107.837 57.345 106.485 56.1682C105.9 55.5482 105.444 54.816 105.143 54.0148C104.843 53.2136 104.704 52.3596 104.735 51.5032V42.9161H106.956V51.3116C106.92 51.9178 107.004 52.5252 107.202 53.0986C107.399 53.6719 107.708 54.1998 108.109 54.6516C109.015 55.4254 110.162 55.8498 111.347 55.8498C112.532 55.8498 113.679 55.4254 114.585 54.6516C114.986 54.1997 115.294 53.6718 115.492 53.0984C115.69 52.5251 115.773 51.9177 115.737 51.3116V42.9161Z" fill="white"/>
<path d="M124.14 57.7579V42.9161H126.362V55.6161H134.556V57.757L124.14 57.7579Z" fill="white"/>
<path d="M139.864 55.785C139.156 55.0696 138.595 54.2202 138.212 53.2854C137.829 52.3505 137.632 51.3485 137.632 50.3365C137.632 49.3246 137.829 48.3226 138.212 47.3877C138.595 46.4528 139.156 45.6035 139.864 44.8881C141.362 43.4715 143.336 42.6835 145.386 42.6835C147.436 42.6835 149.41 43.4715 150.908 44.8881C151.615 45.6035 152.177 46.4528 152.56 47.3877C152.943 48.3226 153.14 49.3246 153.14 50.3365C153.14 51.3485 152.943 52.3505 152.56 53.2854C152.177 54.2202 151.615 55.0696 150.908 55.785C149.41 57.2016 147.436 57.9896 145.386 57.9896C143.336 57.9896 141.362 57.2016 139.864 55.785ZM141.52 46.4139C140.596 47.3227 140.014 48.528 139.872 49.8236C139.73 51.1191 140.038 52.4243 140.743 53.5154C141.447 54.6066 142.505 55.4159 143.735 55.8047C144.964 56.1936 146.289 56.1377 147.483 55.6468C148.676 55.1559 149.664 54.2604 150.277 53.1137C150.889 51.967 151.089 50.6405 150.841 49.3614C150.593 48.0822 149.913 46.93 148.918 46.1022C147.923 45.2743 146.675 44.8222 145.386 44.8233C144.669 44.8063 143.956 44.9387 143.291 45.2123C142.627 45.4859 142.025 45.8949 141.523 46.4139H141.52Z" fill="white"/>
<path d="M169.383 42.9161H171.605V51.5032C171.636 52.3597 171.497 53.2137 171.196 54.0149C170.895 54.8161 170.439 55.5483 169.854 56.1682C168.502 57.345 166.777 57.9922 164.993 57.9922C163.209 57.9922 161.484 57.345 160.131 56.1682C159.547 55.5481 159.091 54.816 158.79 54.0148C158.49 53.2136 158.351 52.3596 158.382 51.5032V42.9161H160.603V51.3116C160.567 51.9178 160.65 52.5252 160.848 53.0985C161.046 53.6719 161.355 54.1998 161.756 54.6516C162.661 55.4254 163.808 55.8498 164.994 55.8498C166.179 55.8498 167.326 55.4254 168.232 54.6516C168.633 54.1998 168.941 53.6719 169.139 53.0986C169.337 52.5252 169.42 51.9178 169.384 51.3116L169.383 42.9161Z" fill="white"/>
<path d="M176.864 53.9836L179.065 53.3448C179.109 53.7483 179.245 54.1359 179.463 54.4765C179.682 54.817 179.976 55.1011 180.322 55.3059C181.183 55.7734 182.154 55.9966 183.13 55.952C184.031 56.0028 184.928 55.8087 185.729 55.3899C186.008 55.2443 186.242 55.0237 186.404 54.7524C186.567 54.481 186.652 54.1695 186.651 53.8522C186.658 53.6258 186.611 53.4011 186.512 53.1978C186.413 52.9945 186.267 52.8187 186.086 52.686C185.899 52.5364 185.699 52.405 185.488 52.2936C185.228 52.1646 184.958 52.058 184.681 51.9751C184.346 51.8692 184.049 51.7807 183.79 51.7095C183.531 51.6393 183.194 51.5544 182.774 51.4558C182.62 51.4129 182.503 51.3856 182.417 51.3719C181.727 51.2159 181.048 51.0144 180.384 50.7687C179.799 50.5438 179.237 50.2595 178.709 49.92C178.187 49.5987 177.757 49.1455 177.461 48.605C177.168 48.0477 177.02 47.424 177.031 46.7927C177.015 46.205 177.145 45.6227 177.408 45.0986C177.672 44.5746 178.06 44.1255 178.539 43.7922C179.742 42.9929 181.167 42.6032 182.604 42.6798C184.11 42.616 185.599 43.0233 186.869 43.8461C187.405 44.2096 187.84 44.7069 188.132 45.2899C188.424 45.8729 188.562 46.5222 188.534 47.1751V47.4287H186.316V47.3229C186.334 46.9397 186.25 46.5588 186.073 46.2196C185.896 45.8803 185.633 45.5952 185.31 45.3937C184.483 44.9154 183.537 44.6874 182.585 44.7367C181.749 44.6875 180.916 44.8826 180.186 45.2988C179.927 45.4499 179.711 45.6678 179.562 45.9304C179.413 46.1929 179.336 46.4908 179.337 46.7936C179.332 47.0735 179.405 47.3492 179.547 47.5893C179.677 47.8111 179.844 48.0084 180.04 48.1725C180.302 48.3678 180.592 48.5216 180.899 48.6287C181.284 48.7778 181.612 48.891 181.884 48.9682C182.157 49.0455 182.552 49.1477 183.069 49.2748C183.85 49.4732 184.469 49.6396 184.924 49.774C185.456 49.9385 185.977 50.1366 186.484 50.3672C186.973 50.5678 187.426 50.847 187.826 51.1939C188.155 51.5139 188.425 51.8906 188.623 52.3063C188.853 52.7898 188.968 53.3211 188.958 53.8577C188.98 54.4619 188.846 55.0614 188.568 55.5969C188.291 56.1325 187.88 56.5854 187.376 56.9111C186.086 57.6955 184.594 58.072 183.091 57.9925C181.603 58.0508 180.128 57.6951 178.826 56.964C178.292 56.6569 177.836 56.2273 177.495 55.7097C177.154 55.1921 176.938 54.6009 176.864 53.9836Z" fill="white"/>
<path d="M11.0575 49.9674C11.0575 46.0717 11.0692 42.1769 11.0493 38.2812C11.027 37.821 11.1369 37.3642 11.3658 36.966C11.5947 36.5677 11.9328 36.2451 12.3391 36.0372C16.5632 33.58 20.7852 31.1194 25.0051 28.6555C27.425 27.2447 29.8512 25.8458 32.2621 24.4195C32.6739 24.1472 33.1548 24.0015 33.6468 24C34.1387 23.9986 34.6205 24.1414 35.0338 24.4113C41.6697 28.292 48.3113 32.164 54.9586 36.0272C55.2711 36.1866 55.5455 36.413 55.7627 36.6907C55.9798 36.9684 56.1345 37.2907 56.2159 37.6351C56.2522 37.8109 56.2694 37.9903 56.2673 38.1699C56.2673 46.0501 56.2673 53.9306 56.2673 61.8114C56.2788 62.2355 56.1725 62.6544 55.9606 63.0205C55.7488 63.3867 55.4398 63.6854 55.0686 63.8829C53.7346 64.6704 52.3926 65.4461 51.0532 66.2264C45.7618 69.3096 40.4704 72.3922 35.179 75.4742C34.9012 75.6478 34.6058 75.7907 34.2978 75.9003C33.9765 75.9982 33.638 76.0244 33.3057 75.9771C32.9735 75.9299 32.6552 75.8103 32.3731 75.6266C30.586 74.5802 28.7969 73.5374 27.0056 72.4983C25.9503 71.8833 24.9005 71.2563 23.838 70.6541C23.4175 70.4388 23.0676 70.1049 22.8306 69.6927C22.5935 69.2806 22.4795 68.8079 22.5022 68.3316C22.5076 66.0767 22.5022 63.8199 22.5022 61.5641C22.4731 60.9778 22.6598 60.4014 23.0263 59.9463C23.3928 59.4912 23.9131 59.1898 24.4865 59.1002C25.0654 59.0107 25.6568 59.1379 26.1497 59.4579C27.7822 60.4137 29.4168 61.3667 31.0535 62.317C31.7615 62.7304 32.4786 63.1282 33.1722 63.5635C33.3091 63.6631 33.4735 63.7166 33.6421 63.7166C33.8107 63.7166 33.9751 63.6631 34.112 63.5635C37.0529 61.8327 39.9993 60.1125 42.951 58.403C43.6726 57.9832 44.3878 57.5534 45.1157 57.1473C45.2432 57.0902 45.3501 56.9945 45.4216 56.8734C45.4932 56.7524 45.5259 56.6118 45.5153 56.4711C45.5062 52.1548 45.5062 47.8384 45.5153 43.522C45.5275 43.3818 45.4972 43.2412 45.4284 43.1189C45.3596 42.9966 45.2555 42.8985 45.1301 42.8376C41.431 40.6925 37.7363 38.5394 34.0462 36.3785C33.9245 36.2961 33.7808 36.253 33.6344 36.2552C33.4879 36.2573 33.3456 36.3044 33.2263 36.3904C29.5494 38.5434 25.867 40.6876 22.1793 42.823C22.0366 42.8979 21.9203 43.0156 21.8464 43.1601C21.7724 43.3045 21.7444 43.4685 21.7662 43.6297C21.7728 50.7725 21.7728 57.9163 21.7662 65.061C21.7764 65.3163 21.7601 65.572 21.7175 65.8239C21.6444 66.1864 21.4883 66.5265 21.2616 66.8168C21.0349 67.1071 20.744 67.3395 20.4123 67.4953C20.0807 67.6511 19.7175 67.7259 19.352 67.7138C18.9866 67.7016 18.629 67.6029 18.3082 67.4254C17.7445 67.1207 17.1997 66.7866 16.6459 66.4599C15.1914 65.6125 13.7365 64.7653 12.2814 63.9185C11.8739 63.6953 11.536 63.3616 11.3055 62.9548C11.1216 62.6099 11.0301 62.2223 11.0403 61.8306C11.056 57.8762 11.0617 53.9218 11.0575 49.9674ZM19.4383 65.3421V64.6987C19.4383 57.6295 19.4365 50.5605 19.4329 43.4919C19.4075 42.941 19.5393 42.3945 19.8126 41.9174C20.0859 41.4404 20.4892 41.053 20.9743 40.8016C24.7023 38.6438 28.4229 36.4759 32.1358 34.2979C32.5895 34.0054 33.1163 33.85 33.6543 33.85C34.1922 33.85 34.719 34.0054 35.1727 34.2979C38.8893 36.4728 42.6098 38.6404 46.3342 40.8008C46.8258 41.0578 47.2339 41.4527 47.5095 41.9382C47.7851 42.4237 47.9166 42.9793 47.8883 43.5384C47.8792 47.8402 47.8792 52.1417 47.8883 56.4428C47.9157 57.0092 47.7809 57.5714 47.5001 58.0621C47.2193 58.5528 46.8044 58.951 46.3053 59.2088C42.5767 61.3633 38.8616 63.5407 35.1411 65.7062C34.9507 65.8231 34.7492 65.9203 34.5395 65.9964C34.1513 66.1299 33.7386 66.1746 33.3312 66.1273C32.9238 66.08 32.5319 65.9417 32.1837 65.7226C29.9084 64.3897 27.6304 63.061 25.3496 61.7366C25.2126 61.6572 25.0745 61.5824 24.8734 61.4701V61.9894C24.8734 64.0189 24.8815 66.0502 24.8662 68.0807C24.8532 68.2188 24.8835 68.3575 24.953 68.4772C25.0225 68.5968 25.1275 68.6911 25.2531 68.7468C27.9241 70.2884 30.5884 71.8419 33.2461 73.4072C33.3623 73.4934 33.5022 73.5405 33.6462 73.542C33.7902 73.5435 33.931 73.4992 34.0489 73.4154C40.5428 69.6162 47.044 65.8276 53.5524 62.0496C53.6832 61.9875 53.7915 61.8855 53.8622 61.7581C53.9328 61.6306 53.9624 61.484 53.9466 61.3387C53.9364 53.7736 53.9364 46.2085 53.9466 38.6435C53.959 38.498 53.9263 38.3524 53.8531 38.2266C53.7798 38.1008 53.6697 38.0013 53.538 37.9417C47.0585 34.1759 40.5816 30.404 34.1075 26.626C33.9551 26.5348 33.8017 26.4526 33.6457 26.3659C26.8781 30.3106 20.1298 34.2434 13.4007 38.1644V61.8315C15.3967 62.9886 17.3747 64.1402 19.4383 65.3421Z" fill="white"/>
<path d="M26.2128 49.9782C26.2128 48.8512 26.2281 47.7233 26.2064 46.5963C26.1863 46.3032 26.2533 46.0107 26.399 45.7565C26.5446 45.5022 26.7622 45.298 27.0236 45.17C28.9736 44.0506 30.9167 42.9184 32.8529 41.7735C33.0893 41.6161 33.3659 41.5318 33.6489 41.5308C33.9319 41.5298 34.2091 41.6122 34.4466 41.768C36.4104 42.9239 38.3791 44.0719 40.3525 45.212C40.5919 45.3357 40.791 45.5267 40.9259 45.7621C41.0607 45.9974 41.1256 46.2671 41.1128 46.5388C41.1086 48.8397 41.1086 51.1399 41.1128 53.4396C41.1252 53.7184 41.0574 53.9949 40.9177 54.2356C40.7779 54.4763 40.5722 54.6708 40.3255 54.7956C38.3652 55.9278 36.4092 57.0682 34.4574 58.2168C34.2211 58.3743 33.9445 58.4588 33.6615 58.4599C33.3785 58.461 33.1013 58.3788 32.8637 58.2232C30.9125 57.074 28.9561 55.9339 26.9947 54.8029C26.7411 54.6756 26.5306 54.4749 26.3899 54.2263C26.2493 53.9777 26.1848 53.6924 26.2046 53.4067C26.2272 52.2633 26.2128 51.1208 26.2128 49.9782ZM33.6655 42.8302C33.6193 42.847 33.5741 42.8665 33.5302 42.8886C31.5991 44.0119 29.6717 45.139 27.737 46.2541C27.6472 46.3034 27.5749 46.3799 27.5301 46.4728C27.4853 46.5657 27.4703 46.6705 27.4872 46.7724C27.4926 48.9215 27.4944 51.0706 27.4872 53.2196C27.4782 53.3363 27.5054 53.453 27.5651 53.5532C27.6248 53.6535 27.7139 53.7325 27.82 53.779C29.0611 54.489 30.2922 55.2145 31.5279 55.9336L33.6511 57.171C33.7972 57.0907 33.9262 57.0204 34.0543 56.9465C35.8581 55.8971 37.653 54.8431 39.4614 53.8055C39.5801 53.7507 39.6788 53.6596 39.7436 53.545C39.8083 53.4303 39.8358 53.298 39.8222 53.1667C39.8083 51.0471 39.8083 48.9282 39.8222 46.8099C39.8345 46.6789 39.8058 46.5473 39.7401 46.4338C39.6744 46.3202 39.5749 46.2305 39.456 46.1774C37.6223 45.1244 35.7995 44.0558 33.9713 42.9917C33.8684 42.9361 33.7674 42.8831 33.6655 42.8284V42.8302Z" fill="white"/>
</svg>
