<svg width="240" height="70" viewBox="0 0 240 70" fill="none" xmlns="http://www.w3.org/2000/svg">
<path fill-rule="evenodd" clip-rule="evenodd" d="M35.0418 67C32.6068 67 31.3552 65.3877 31.3552 65.3877C29.3539 65.2993 13.7136 65.3435 13.7136 65.3435L12.1909 52.2937C12.1909 52.2937 2.55763 45.3994 1.77452 44.6043C-2.84954 23.3052 13.8643 3 35.0424 3C56.2206 3 72.9344 23.3052 68.3104 44.6043C67.5273 45.3994 57.894 52.2937 57.894 52.2937L56.3713 65.3435C56.3713 65.3435 40.7309 65.2993 38.7297 65.3877C38.7297 65.3877 37.4781 67 35.0418 67Z" fill="#ED1C24"/>
<path fill-rule="evenodd" clip-rule="evenodd" d="M35.0648 47.1545L33.587 9.48494C31.8047 9.11563 27.258 9.5588 24.821 11.4053L31.9138 47.3022L22.2385 12.8826C19.9191 12.8537 15.2388 16.8356 14.8912 18.016L29.0039 48.5578L13.1453 20.6381C11.5812 21.229 8.16214 27.618 8.70774 28.3604L26.3851 50.3305L8.19851 31.5696C8.19851 31.5696 5.83426 35.2258 7.37606 41.4187L17.6487 48.9509L18.9347 59.2414L31.5294 59.2414C31.5294 59.2414 33.5899 61.2244 35.0519 61.2244C36.5139 61.2244 38.5744 59.2414 38.5744 59.2414L51.169 59.2414L52.4551 48.9509L62.7277 41.4187C64.2695 35.2258 61.9053 31.5696 61.9053 31.5696L43.7187 50.3305L61.396 28.3604C61.9416 27.618 58.5226 21.229 56.9585 20.6381L41.0998 48.5578L55.2126 18.016C54.865 16.8356 50.1846 12.8537 47.8652 12.8826L38.19 47.3022L45.2828 11.4053C42.8458 9.5588 38.2991 9.11563 36.5168 9.48494L35.0648 47.1545Z" fill="#FFD500"/>
</svg>
