<svg width="200" height="100" viewBox="0 0 200 100" fill="none" xmlns="http://www.w3.org/2000/svg">
<path d="M45.9571 43.6319V43.724C45.9571 51.2148 53.1902 53.3129 60.5889 54.8221C64.3988 55.5767 65.5583 56.1657 65.5583 57.27V57.362C65.5583 58.4663 64.4908 59.0184 62.3926 59.0184C57.9018 59.0184 52.8037 57.3436 49.3251 54.7485L45 62.9571C48.9755 66.1227 55.2699 68 61.8589 68C71.3006 68 77.1533 63.5092 77.1533 56.2945V56.2025C77.1533 49.2086 71.227 46.6871 62.319 45.0491C58.7485 44.3681 57.5337 43.7608 57.5337 42.6381V42.5461C57.5337 42.0675 57.7914 40.9448 60.2392 40.9448C63.1656 40.9448 67.5276 41.6442 71.8343 44.9571L76.2515 36.6933C72.1472 33.4909 67.1963 32.0001 60.6442 32.0001C51.7178 31.9817 45.9571 36.5645 45.9571 43.6319Z" fill="white"/>
<path d="M80.7234 32.9754C79.84 32.9754 79.1222 33.6932 79.1222 34.5766V67.0244H88.3062C89.1713 67.006 89.8707 66.2882 89.8707 65.4232V32.9754H80.7234Z" fill="white"/>
<path d="M93.4256 32.9754C92.5422 32.9754 91.8244 33.6932 91.8244 34.5766V42.7668H102.757L102.794 42.8036V67.0244H111.923C112.788 67.006 113.487 66.2882 113.487 65.4232V42.7852H124.493L128.192 32.9938H93.4256V32.9754Z" fill="white"/>
<path d="M131.722 32.9754C130.821 32.9754 130.066 33.5276 129.753 34.319L117.403 67.0244H129.127L136.434 47.6809L138.753 53.8465H136.195L132.827 62.7545H142.121L143.741 67.0244H155.428L143.078 34.319C142.765 33.5276 142.011 32.9754 141.109 32.9754H131.722Z" fill="white"/>
</svg>
