<svg width="240" height="70" viewBox="0 0 240 70" fill="none" xmlns="http://www.w3.org/2000/svg">
<path d="M1.85071 29.3395V29.4213C1.85071 36.0798 8.28016 37.9448 14.8568 39.2863C18.2433 39.9571 19.274 40.4806 19.274 41.4622V41.544C19.274 42.5256 18.3251 43.0164 16.4601 43.0164C12.4683 43.0164 7.9366 41.5276 4.84458 39.2209L1 46.5174C4.53374 49.3313 10.1288 51 15.9857 51C24.3783 51 29.5807 47.0082 29.5807 40.5951V40.5133C29.5807 34.2966 24.3129 32.0552 16.3947 30.5992C13.2208 29.9939 12.1411 29.454 12.1411 28.4561V28.3743C12.1411 27.9489 12.3701 26.951 14.546 26.951C17.1472 26.951 21.0245 27.5726 24.8527 30.5174L28.7791 23.1718C25.1309 20.3252 20.73 19 14.9059 19C6.97136 18.9837 1.85071 23.0573 1.85071 29.3395Z" fill="#0171BE"/>
<path d="M32.7542 19.867C31.9689 19.867 31.3308 20.5051 31.3308 21.2903V50.1328H39.4944C40.2634 50.1165 40.885 49.4784 40.885 48.7095V19.867H32.7542Z" fill="#0171BE"/>
<path d="M44.045 19.867C43.2597 19.867 42.6217 20.5051 42.6217 21.2903V28.5705H52.3395L52.3722 28.6032V50.1328H60.4867C61.2556 50.1165 61.8773 49.4784 61.8773 48.7095V28.5869H71.6605L74.9489 19.8834H44.045V19.867Z" fill="#0171BE"/>
<path d="M78.0866 19.867C77.285 19.867 76.6142 20.3578 76.3361 21.0613L65.3586 50.1328H75.7798L82.2747 32.9386L84.3361 38.4192H82.0621L79.0682 46.3373H87.3299L88.7696 50.1328H99.1581L88.1807 21.0613C87.9025 20.3578 87.2318 19.867 86.4301 19.867H78.0866Z" fill="#0171BE"/>
</svg>
