<svg width="240" height="70" viewBox="0 0 240 70" fill="none" xmlns="http://www.w3.org/2000/svg">
<path fill-rule="evenodd" clip-rule="evenodd" d="M15.3478 43.4783H2.72374C2.24655 43.4783 1.81526 43.675 1.50363 43.9935C1.19199 44.3106 1 44.7481 1 45.2322V48.2461C1 48.7288 1.1906 49.1662 1.49945 49.4819C1.81248 49.8018 2.24516 50 2.72374 50H15.3478V43.4783ZM37.0222 43.9978C36.7106 43.6793 36.2765 43.4783 35.798 43.4783H23.1739V50H35.798C36.2765 50 36.7092 49.8018 37.0222 49.4805C37.3311 49.1648 37.5217 48.7274 37.5217 48.2461V45.2322C37.5217 44.7509 37.3311 44.3149 37.0222 43.9978ZM37.0222 32.2599C36.7106 31.9386 36.2765 31.7391 35.798 31.7391H23.1739V38.2609H35.798C36.2765 38.2609 36.7092 38.0599 37.0222 37.7401C37.3311 37.4232 37.5217 36.9874 37.5217 36.5063V33.4923C37.5217 33.0126 37.3311 32.5768 37.0222 32.2599ZM15.3478 31.7391L2.72374 31.7405C2.24655 31.7405 1.81526 31.9372 1.50363 32.2556C1.19199 32.5726 1 33.0098 1 33.4923V36.5063C1 36.9874 1.1906 37.4246 1.49945 37.7416C1.81248 38.0614 2.24516 38.2609 2.72374 38.2609H15.3478V31.7391ZM35.7666 26.5217H2.75505C2.26777 26.5217 1.82724 26.3236 1.50852 26.0036C1.19406 25.6865 1 25.2505 1 24.7678V21.7539C1 21.2698 1.19548 20.8324 1.51136 20.5153C1.83007 20.1968 2.26919 20 2.75505 20H35.7666C36.2539 20 36.6959 20.1982 37.0132 20.5195C37.3276 20.8366 37.5217 21.2726 37.5217 21.7539V24.7678C37.5217 25.2491 37.3276 25.6851 37.0132 26.0022C36.6945 26.3236 36.2539 26.5217 35.7666 26.5217Z" fill="#EB0028"/>
<path fill-rule="evenodd" clip-rule="evenodd" d="M112.181 20H110.204C107.676 20 107.516 20.2799 107.321 20.7199L103.408 30.24C102.103 33.3994 100.758 36.7997 100.245 38.5598C99.7701 36.7997 98.9019 34.4395 97.0831 30.0798L93.1716 20.7199C92.9336 20.1601 91.9457 20 89.8104 20H87.5981C85.4243 20 84.9882 20.2005 84.9882 20.6405V49.3595C84.9882 49.8803 85.4243 50 87.6765 50H88.9024C91.1147 50 91.7462 49.8803 91.7462 49.3595V32.3203H91.9058C91.9058 32.3203 92.1026 33.1195 92.4204 33.8394L96.9262 44.5194C97.123 44.9998 97.361 45.2017 99.455 45.2017H100.799C102.932 45.2017 103.091 45.0401 103.289 44.5194L107.398 34.2404C107.794 33.2796 108.07 32.3203 108.07 32.3203H108.229V49.3595C108.229 49.8803 108.662 50 110.995 50H112.181C114.355 50 114.988 49.8803 114.988 49.3595V20.6405C114.988 20.2005 114.355 20 112.181 20ZM78.4664 20.6405C78.4664 20.2005 77.8555 20 75.7587 20H74.5369C72.3245 20 71.9447 20.2005 71.9447 20.6405V49.3595C71.9447 49.8803 72.3245 50 74.5369 50H75.7587C77.8569 50 78.4664 49.8803 78.4664 49.3595V20.6405ZM67.3021 20C67.9075 20 68.0316 20.0808 68.0316 22.2V24.1606C68.0316 26.2005 67.8694 26.44 67.3021 26.44H60.4103V49.3595C60.4103 49.8803 59.7612 50 57.4513 50H56.2349C53.884 50 53.479 49.8803 53.479 49.3595V26.44H46.5873C46.0186 26.44 45.8577 26.2799 45.8577 24.1606V22.2C45.8577 20 45.9791 20 46.5873 20H67.3021Z" fill="#004691"/>
</svg>
