<svg width="240" height="70" viewBox="0 0 240 70" fill="none" xmlns="http://www.w3.org/2000/svg">
<g clip-path="url(#clip0_5508_15024)">
<path d="M154.956 36.4227L157.533 29.6893L160.111 36.4227H154.956ZM160.2 25.8671H154.867L147.4 44.156H152.022L153.711 39.6893H161.333L163.044 44.156H167.667L160.2 25.8671ZM122.533 40.956C119.511 40.956 117.089 38.2449 117.089 34.8893C117.089 31.5338 119.533 28.8227 122.533 28.8227C125.533 28.8227 127.978 31.5338 127.978 34.8893C128 38.2449 125.556 40.956 122.533 40.956ZM122.533 25.2227C117.2 25.2227 112.867 29.556 112.867 34.8893C112.867 40.2227 117.2 44.556 122.533 44.556C127.867 44.556 132.2 40.2449 132.2 34.9115C132.2 29.556 127.867 25.2227 122.533 25.2227ZM84.4222 40.956C81.4222 40.956 78.9778 38.2449 78.9778 34.8893C78.9778 31.5338 81.4222 28.8227 84.4222 28.8227C87.4444 28.8227 89.8889 31.5338 89.8889 34.8893C89.8889 38.2449 87.4444 40.956 84.4222 40.956ZM84.4222 25.2227C79.0889 25.2227 74.7778 29.556 74.7778 34.8893C74.7778 40.2227 79.0889 44.556 84.4222 44.556C89.7555 44.556 94.0889 40.2449 94.0889 34.9115C94.0889 29.556 89.7555 25.2227 84.4222 25.2227ZM108.311 25.8671L103.578 33.2671L98.8444 25.8671H94.2222L101.556 37.3338V44.156H105.622V37.3338L112.956 25.8671C112.933 25.8671 108.311 25.8671 108.311 25.8671ZM148.378 25.8671H132.756V29.3782H138.556V44.156H142.622V29.356H148.378V25.8671ZM64.0889 29.356V44.1338H68.1556V29.356H73.9111V25.8671H58.2667V29.356H64.0889Z" fill="black"/>
<path d="M46.8444 12H1V57.8444H46.8444V12Z" fill="#EB0A1E"/>
<path d="M31.5556 24.9561C29.4222 24.2672 26.7778 23.8672 23.9111 23.8672C21.0445 23.8672 18.4 24.2672 16.2667 24.9561C10.6 26.7783 6.71112 30.5561 6.71112 34.9116C6.71112 41.045 14.4 46.0227 23.8889 46.0227C33.3778 46.0227 41.0667 41.045 41.0667 34.9116C41.1111 30.5561 37.2222 26.7783 31.5556 24.9561ZM23.9111 41.2672C22.4889 41.2672 21.3333 38.4894 21.2667 34.9783C22.1111 35.045 23 35.0894 23.9111 35.0894C24.8222 35.0894 25.6889 35.045 26.5556 34.9783C26.4889 38.4672 25.3333 41.2672 23.9111 41.2672ZM21.4445 32.2227C21.8222 29.7561 22.7778 28.0227 23.9111 28.0227C25.0222 28.0227 25.9778 29.7561 26.3778 32.2227C25.6 32.2894 24.7556 32.3339 23.9111 32.3339C23.0667 32.3339 22.2445 32.3116 21.4445 32.2227ZM27.8889 32.045C27.3111 28.1783 25.7556 25.4227 23.9111 25.4227C22.0667 25.4227 20.5111 28.1783 19.9333 32.045C16.4445 31.4894 14 30.2672 14 28.8227C14 26.8672 18.4222 25.2894 23.8889 25.2894C29.3556 25.2894 33.7778 26.8672 33.7778 28.8227C33.8222 30.2672 31.3778 31.5116 27.8889 32.045ZM9.24445 34.5116C9.24445 32.6227 9.97779 30.8672 11.2222 29.3561C11.2 29.4672 11.2 29.5783 11.2 29.6672C11.2 32.045 14.7556 34.045 19.7111 34.7783C19.7111 34.9561 19.7111 35.1339 19.7111 35.3116C19.7111 39.7116 20.9333 43.445 22.6222 44.7339C15.1111 44.2894 9.24445 39.8894 9.24445 34.5116ZM25.2222 44.7339C26.9111 43.445 28.1333 39.7116 28.1333 35.3116C28.1333 35.1339 28.1333 34.9561 28.1333 34.7783C33.0889 34.045 36.6445 32.0227 36.6445 29.6672C36.6445 29.5561 36.6445 29.445 36.6222 29.3561C37.8889 30.8672 38.6 32.645 38.6 34.5116C38.6 39.8894 32.7111 44.2894 25.2222 44.7339Z" fill="white"/>
</g>
<defs>
<clipPath id="clip0_5508_15024">
<rect width="166.667" height="46" fill="white" transform="translate(1 12)"/>
</clipPath>
</defs>
</svg>
