<svg width="240" height="70" viewBox="0 0 240 70" fill="none" xmlns="http://www.w3.org/2000/svg">
<g clip-path="url(#clip0_5508_15044)">
<path d="M61.9835 17.3362H65.1954V27.514C65.1954 29.3077 64.6531 30.6842 63.5269 31.6018C60.9824 33.4789 57.562 33.4789 55.0176 31.6018C53.8913 30.6842 53.3491 29.3077 53.3491 27.514V17.3362H56.5609V27.514C56.5609 28.5568 56.8112 29.2659 57.3117 29.7248C58.4797 30.6425 60.1482 30.6425 61.3161 29.7248C61.8167 29.2659 62.0252 28.5151 62.0252 27.514L61.9835 17.3362ZM72.2448 23.5513C71.4522 23.5096 70.6597 23.9268 70.2843 24.6359V32.7698H67.1976V21.2989H70.0757L70.1592 22.592C70.9517 21.5909 72.2031 21.0069 73.4544 21.0486C74.4138 21.0069 75.3732 21.3406 76.0823 22.008C76.7497 22.6754 77.0834 23.8016 77.0834 25.4284V32.7281H73.9967V25.4701C73.9967 24.7193 73.8298 24.2187 73.5379 23.9685C73.2042 23.6765 72.7453 23.5096 72.2448 23.5513ZM79.169 18.3373C79.169 17.9202 79.3359 17.5031 79.6279 17.2111C80.337 16.6271 81.4215 16.6271 82.1306 17.2111C82.4226 17.5031 82.6312 17.9202 82.5895 18.3373C82.5895 18.7544 82.4226 19.1715 82.1306 19.4635C81.4215 20.0475 80.337 20.0475 79.6279 19.4635C79.3359 19.1715 79.169 18.7544 79.169 18.3373ZM82.4643 21.2989V32.7698H79.3776V21.2989H82.4643ZM90.4314 32.7281C89.8474 32.9366 89.2217 33.0201 88.596 33.0201C87.7201 33.0618 86.8858 32.7698 86.1767 32.2275C85.5927 31.727 85.3008 30.851 85.3008 29.5996V23.5513H83.5906V21.2989H85.3008V18.4624H88.3875V21.2989H90.348V23.5513H88.3875V29.3077C88.3458 29.6414 88.4292 30.0168 88.6795 30.267C88.9297 30.4339 89.2634 30.5173 89.5554 30.5173C89.7223 30.5173 89.8891 30.5173 90.056 30.4756C90.2228 30.4756 90.348 30.4339 90.4314 30.4339V32.7281ZM101.527 30.9344C101.068 31.5184 100.526 32.019 99.8584 32.3527C98.9824 32.8115 98.023 33.0201 97.0637 33.0201C95.27 33.0201 93.8518 32.4778 92.8507 31.3933C91.8496 30.3088 91.3073 28.9322 91.3491 27.4723V27.0552C91.2656 25.5118 91.8079 23.9685 92.809 22.8005C93.8101 21.6743 95.2283 21.0486 96.73 21.132C98.3985 21.132 99.6498 21.6326 100.484 22.6754C101.318 23.7182 101.777 25.0947 101.777 26.7632V28.0563H94.4775C94.5609 28.7237 94.8529 29.3911 95.3534 29.8499C95.854 30.3088 96.5631 30.559 97.2722 30.5173C98.3567 30.559 99.3996 30.1002 100.025 29.2242L101.527 30.9344ZM96.6882 23.5513C96.1043 23.5096 95.562 23.7599 95.1866 24.2187C94.8112 24.7193 94.5609 25.3033 94.4775 25.929H98.7322V25.6787C98.7322 25.1364 98.5653 24.5942 98.2316 24.1353C97.8562 23.7182 97.2722 23.5096 96.6882 23.5513ZM110.328 32.8115L110.161 31.6018C109.828 32.019 109.411 32.3944 108.91 32.6447C108.409 32.8949 107.825 33.0201 107.241 33.0201C105.907 33.0618 104.655 32.4361 103.946 31.3516C103.112 30.1002 102.695 28.6403 102.778 27.1803V26.9718C102.778 25.2198 103.154 23.8016 103.946 22.7171C104.697 21.6326 105.948 21.0486 107.283 21.0903C108.368 21.0486 109.369 21.5074 110.036 22.3417V16.502H113.123V32.8115H110.328ZM105.823 27.1803C105.782 27.9729 105.948 28.8071 106.324 29.5162C106.658 30.1419 107.325 30.559 108.034 30.4756C108.868 30.5173 109.661 30.0585 110.036 29.3077V24.761C109.703 24.0102 108.91 23.5096 108.034 23.5513C107.325 23.5096 106.658 23.885 106.324 24.5524C105.948 25.3033 105.782 26.1375 105.823 26.9718V27.1803ZM66.0296 35.8148V51.2901H62.8595L56.6443 41.0706V51.2901H53.4325V35.8148H56.6443L62.8595 46.0343V35.8148H66.0296ZM74.9978 51.2901C74.8309 50.9564 74.7475 50.6227 74.7058 50.2473C74.3721 50.6227 73.9967 50.9147 73.5379 51.1232C72.9956 51.3735 72.4116 51.4987 71.7859 51.4987C70.7848 51.5404 69.7837 51.165 69.0329 50.5393C68.2821 49.9136 67.9067 49.0376 67.9067 48.0782C67.865 46.9937 68.3655 45.9092 69.2415 45.2835C70.1174 44.6161 71.4522 44.2824 73.2042 44.2824H74.5807V43.615C74.6224 43.1562 74.4555 42.6973 74.1635 42.3219C73.8298 41.9882 73.371 41.8214 72.8705 41.8631C71.7859 41.8631 71.2437 42.3219 71.2437 43.2396H68.157C68.157 42.2385 68.6575 41.2791 69.4918 40.6534C70.5346 39.9026 71.7859 39.5272 73.0373 39.5689C74.2053 39.5272 75.3732 39.8609 76.3326 40.57C77.2086 41.2374 77.6257 42.2385 77.6257 43.615V48.4537C77.6257 48.9959 77.6674 49.4965 77.7508 50.0387C77.8342 50.4141 77.9177 50.7478 78.0845 51.0815V51.2901H74.9978ZM72.4533 49.1628C72.9122 49.1628 73.371 49.0376 73.7881 48.8291C74.1218 48.6622 74.3721 48.3702 74.5807 48.0782V46.076H73.3293C72.7036 46.0343 72.0362 46.2012 71.5357 46.5766C71.1603 46.9103 70.9517 47.3691 70.9517 47.828C70.9517 48.2034 71.0768 48.5371 71.3271 48.7874C71.6608 49.0376 72.0779 49.1628 72.4533 49.1628ZM85.5093 51.2067C85.2173 51.2901 84.9671 51.3735 84.6751 51.4152C84.3414 51.4569 84.0077 51.4987 83.674 51.4987C82.798 51.5404 81.9638 51.2484 81.2547 50.7061C80.6707 50.2056 80.3787 49.3296 80.3787 48.0782V42.0299H78.6685V39.7775H80.3787V36.941H83.4654V39.7775H85.4259V42.0299H83.4654V47.7863C83.4237 48.12 83.5071 48.4954 83.7574 48.7456C84.0077 48.9125 84.3414 48.9959 84.6334 48.9959C84.8002 48.9959 84.9671 48.9959 85.1339 48.9542C85.3008 48.9542 85.4259 48.9125 85.5093 48.9125V51.2067ZM86.8024 36.8159C86.8024 36.3988 86.9693 35.9816 87.2612 35.6897C87.9704 35.1057 89.0549 35.1057 89.764 35.6897C90.3897 36.3153 90.3897 37.3164 89.764 37.9838C89.0549 38.5678 87.9704 38.5678 87.2612 37.9838C86.9275 37.6501 86.7607 37.233 86.8024 36.8159ZM90.056 39.7775V51.2901H86.9693V39.7775H90.056ZM91.8079 45.6589V45.4504C91.7662 43.9487 92.2667 42.4471 93.2261 41.2791C94.1855 40.1529 95.5203 39.6106 97.2305 39.6106C98.9824 39.6106 100.317 40.1529 101.277 41.2791C102.236 42.4471 102.737 43.9487 102.695 45.4504V45.6589C102.737 47.1606 102.236 48.6622 101.277 49.8302C100.317 50.9564 98.9824 51.4987 97.2722 51.4987C95.5203 51.4987 94.1855 50.9564 93.2261 49.8302C92.2667 48.6622 91.7662 47.1606 91.8079 45.6589ZM94.8946 45.4086V45.6172C94.8529 46.4515 95.0615 47.2857 95.4369 47.9948C96.1043 48.9959 97.4808 49.2879 98.4819 48.6205C98.7322 48.4537 98.9407 48.2451 99.1076 47.9948C99.483 47.244 99.6498 46.4515 99.6498 45.6172V45.4086C99.6915 44.5744 99.483 43.7819 99.1076 43.031C98.7322 42.3636 98.023 41.9465 97.2722 42.0299C96.5214 41.9882 95.8123 42.3636 95.4369 43.031C95.0615 43.7819 94.8529 44.6161 94.8946 45.4086ZM109.285 42.0717C108.493 42.0299 107.7 42.4471 107.325 43.1979V51.2901H104.238V39.7775H107.116L107.241 41.1123C108.034 40.1112 109.244 39.5272 110.537 39.5689C111.538 39.5272 112.497 39.8609 113.206 40.5283C113.874 41.1957 114.207 42.3219 114.207 43.9487V51.2901H111.121V43.9487C111.121 43.1979 110.954 42.6973 110.662 42.4471C110.245 42.1551 109.744 42.0299 109.285 42.0717ZM122.467 48.0782C122.467 47.7445 122.3 47.4108 122.008 47.244C121.424 46.9103 120.756 46.7017 120.131 46.6183C119.088 46.4097 118.087 46.0343 117.211 45.4504C116.46 44.9498 116.001 44.0739 116.043 43.1562C116.043 42.1968 116.502 41.2791 117.252 40.6534C118.087 39.9443 119.171 39.5689 120.631 39.5689C122.091 39.5689 123.301 39.9026 124.177 40.6117C125.011 41.2374 125.47 42.2385 125.47 43.2813H122.383C122.383 42.8642 122.258 42.4888 121.966 42.1968C121.591 41.9048 121.132 41.738 120.631 41.7797C120.214 41.738 119.797 41.8631 119.422 42.1134C119.171 42.3219 119.004 42.6556 119.004 42.9893C119.004 43.323 119.171 43.6567 119.463 43.8236C119.964 44.1156 120.548 44.2824 121.132 44.3658C122.216 44.5744 123.259 44.9498 124.218 45.4921C125.053 45.9926 125.47 46.8269 125.47 47.9531C125.47 48.9542 124.969 49.8719 124.177 50.4559C123.301 51.1232 122.133 51.4569 120.631 51.4569C119.046 51.4569 117.795 51.0398 116.96 50.2056C116.168 49.5382 115.709 48.5788 115.667 47.5777H118.587C118.587 48.0782 118.838 48.5788 119.255 48.8708C119.672 49.1211 120.172 49.2879 120.715 49.2462C121.841 49.3296 122.467 48.9125 122.467 48.0782Z" fill="black"/>
<path d="M37.0395 49.663C35.8298 50.247 34.495 50.4139 33.1603 50.1219C32.2426 49.9133 31.4083 49.6213 30.5741 49.2459L28.7387 48.4951C27.1537 47.9945 25.4435 47.9528 23.8167 48.37H23.6498C22.023 47.9111 20.3128 47.9528 18.7278 48.4951C18.1021 48.7037 17.5181 48.9956 16.8924 49.2459C16.0582 49.6213 15.1822 49.955 14.3062 50.1636C13.0132 50.4556 11.6366 50.2887 10.427 49.7048L10.2601 49.6213C10.2184 49.6213 10.2184 49.6213 10.2184 49.663C11.011 50.4973 12.0538 51.0813 13.1383 51.3733C13.8891 51.5818 14.6817 51.6235 15.4325 51.5401C16.6004 51.3733 17.7267 50.9561 18.686 50.2887L20.438 49.1208C21.1054 48.7037 21.8979 48.5368 22.6487 48.7037C23.0658 48.7454 22.7321 48.9539 22.6904 48.9956C21.6476 49.4962 20.6465 50.1219 19.7289 50.831C19.1032 51.2898 17.9769 52.3744 17.9769 52.3744L18.8112 53.0835L19.7289 52.0824C20.8551 50.9144 22.1482 49.9133 23.5664 49.1208C23.6915 49.0374 23.8167 49.0374 23.9418 49.1208C25.36 49.9133 26.6531 50.9144 27.7794 52.0824L28.697 53.0835L29.5313 52.3744L27.7794 50.831C26.8617 50.1219 25.8606 49.4962 24.8178 48.9956C24.7343 48.9539 24.4424 48.7454 24.8595 48.7037C25.6103 48.5368 26.4028 48.7037 27.0702 49.1208L28.8222 50.2887C29.7815 50.9561 30.9078 51.3733 32.0757 51.5401C32.8266 51.6235 33.6191 51.5818 34.3699 51.3733C35.4544 51.0396 36.4972 50.4556 37.2898 49.663C37.2898 49.663 37.2481 49.6213 37.2064 49.6213L37.0395 49.663ZM41.1273 46.0341C40.5851 46.4512 40.0011 46.7432 39.3754 46.9517C38.4994 47.202 37.5401 47.3689 36.6224 47.3689C35.4127 47.4106 34.2448 47.494 33.0351 47.6609C32.9517 47.6609 32.91 47.6608 32.9517 47.6191C33.9945 47.202 34.8287 46.3678 35.2876 45.3667L36.4555 42.9891C36.4555 42.9473 36.4555 42.9473 36.4555 42.9056C36.3721 42.9473 35.2042 43.9484 34.6619 44.449L32.7014 46.3678C31.8255 47.1186 30.7826 47.6608 29.6564 47.9528H29.6147L29.573 47.9945L31.8255 48.5368C32.7848 48.8288 33.7859 48.9956 34.787 49.0791C37.3315 49.3293 39.7925 48.1614 41.2108 46.0758C41.2108 46.0341 41.169 46.0341 41.1273 46.0341ZM44.798 40.4446C44.214 41.1537 43.5049 41.7794 42.7124 42.2799C42.045 42.7388 41.3359 43.1142 40.5851 43.4479C39.6257 43.8233 38.7497 44.3656 37.9572 44.9913L37.7903 45.1164C37.7486 45.1164 37.7486 45.1164 37.7486 45.0747C37.7486 45.033 39 43.7816 39.3754 41.1537C39.4171 40.1943 39.584 39.2767 39.7925 38.359C39.7925 38.3173 39.7925 38.3173 39.7925 38.2756C38.9166 39.3601 38.2492 40.5697 37.7903 41.8628L37.0395 43.9902C36.7475 44.9495 36.2053 45.8255 35.4961 46.5346L35.4127 46.618V46.6598C35.4961 46.6598 35.5796 46.618 35.663 46.618L38.0823 46.1175C39.4171 45.9089 40.6685 45.3667 41.753 44.5741C42.8792 43.7816 43.7552 42.6971 44.3809 41.4874C44.5477 41.1537 44.6729 40.82 44.798 40.4863C44.8814 40.4029 44.8397 40.4029 44.798 40.4446ZM46.3831 34.1877C46.0077 35.314 45.3403 36.3568 44.4643 37.191C43.4632 38.1504 42.5455 39.2349 41.7113 40.3195C41.7113 40.3612 41.6279 40.3195 41.6696 40.2778C42.0033 39.1515 42.0867 37.9419 41.9199 36.7322C41.753 35.7311 41.3359 34.6466 41.2108 33.4369L41.169 33.3952C41.169 33.4369 41.1273 33.4786 41.1273 33.5203C40.877 34.3129 40.7102 35.1054 40.6268 35.9397C40.5851 36.9408 40.7519 38.2338 40.6685 39.2349C40.5851 40.4029 40.5016 41.6126 39.9594 42.6554C39.9594 42.6971 39.9594 42.6971 39.9594 42.7388L42.4621 41.1954C43.5049 40.528 44.3809 39.6938 45.09 38.6927C46.0077 37.3996 46.4665 35.8979 46.4665 34.3129C46.4665 34.2712 46.4665 34.1877 46.4665 34.146C46.4248 34.146 46.3831 34.1877 46.3831 34.1877Z" fill="#009EDB"/>
<path d="M43.7135 34.8551C43.7552 34.8551 43.7552 34.8551 43.7135 34.8551C43.7135 34.5214 43.7135 34.1877 43.6718 33.854C43.5883 32.6861 42.8792 31.7267 42.2535 30.7256C41.8364 30.0999 41.461 29.4325 41.1273 28.7234C41.1273 28.7234 41.0856 28.6817 41.0439 28.6817C41.0439 28.7651 41.0439 29.1405 41.0856 29.3491C41.2942 31.0176 41.7113 32.6861 42.337 34.2712C42.7124 35.2723 42.8375 36.3151 42.7541 37.3579C42.7541 37.4413 42.7541 37.4413 42.7958 37.483C43.1712 36.9408 43.922 36.1899 44.3809 35.606C44.8397 35.022 47.3425 32.1855 46.1328 28.2646C46.0911 28.0977 46.0077 27.9309 45.9242 27.764L45.8825 27.8057C45.8825 30.6422 44.506 31.8518 43.9638 33.7706C43.8386 34.2295 43.7552 34.5632 43.7135 34.8551ZM43.7552 29.0154L43.5049 28.348L43.3381 27.9726C42.9209 27.2218 42.337 26.5544 41.6279 26.0538C41.0439 25.5533 40.5433 25.011 40.1262 24.3853C40.1262 24.3853 40.0845 24.3853 40.0428 24.3853H40.0011C40.0428 24.5105 40.4182 25.7618 40.6685 26.3458C41.0856 27.1383 41.5861 27.9309 42.1701 28.5983L42.2953 28.7651C43.0044 29.7245 43.5466 30.7673 43.922 31.8936C43.922 31.9353 43.9638 31.9353 43.9638 31.9353L44.6729 29.7662C44.9231 29.0154 45.1317 28.2229 45.2985 27.4303C45.5488 25.5533 44.9649 23.1757 43.8803 21.8409C43.8803 21.8409 43.8386 21.8826 43.8386 21.9243L43.8803 22.0911L43.9638 22.3414C44.1723 23.3425 44.214 24.427 44.0055 25.4281C43.8386 26.2207 43.7969 27.0549 43.7969 27.8892C43.7969 28.0143 43.8803 29.0571 43.8803 29.0988C43.8803 29.1405 43.8386 29.0988 43.7969 29.0988M40.4182 18.5456C40.7519 18.8793 41.0439 19.2547 41.2107 19.7135C41.5027 20.4226 41.5862 21.4655 41.7947 22.258L42.1701 23.6345C42.1701 23.6762 42.1284 23.7179 42.0867 23.6762C41.461 22.9254 40.7102 22.2997 39.8342 21.7992C39.2503 21.4655 38.7914 21.0066 38.3743 20.5061L38.1657 20.2141C38.1657 20.2141 38.124 20.1724 38.0823 20.2141C38.0823 20.2558 38.0823 20.2975 38.0823 20.3392C38.2909 21.2569 38.708 22.1329 39.3754 22.842C39.9177 23.3425 40.5016 23.8014 41.0439 24.2602C41.753 24.8442 42.4204 25.5533 43.0461 26.2624C43.0461 26.2624 43.0878 26.3041 43.0878 26.2624V25.595L43.1295 23.5928V22.9254C43.1295 22.258 43.0044 21.5489 42.7541 20.9232C42.337 19.8804 41.5444 19.0461 40.5851 18.5456C40.5433 18.5039 40.4599 18.5039 40.3765 18.4622C40.3765 18.4622 40.3765 18.5039 40.4182 18.5456ZM36.1218 16.5851C36.7058 17.1274 37.2063 17.7531 37.6652 18.4205C38.0823 19.0878 38.5411 19.6718 39.1251 20.2141C39.5005 20.5895 40.6268 21.4655 40.9188 21.7157C40.877 21.382 40.3348 19.0044 38.8748 17.8365C38.0406 17.1691 37.0395 16.6685 35.9967 16.4183C35.9967 16.46 35.9967 16.46 35.9967 16.5017L36.1218 16.5851ZM12.7629 49.0791C13.7223 48.9956 14.7234 48.8288 15.641 48.5368L17.8935 47.9945H17.9352C17.9352 47.9945 17.9352 47.9528 17.8935 47.9528H17.8518C16.7256 47.6608 15.6827 47.1186 14.7651 46.3678L12.8046 44.4907L11.011 42.9473V43.0308C11.1778 43.281 11.8035 44.6576 12.1789 45.4084C12.6377 46.4512 13.472 47.2437 14.5148 47.6609C14.5565 47.7026 14.5148 47.7026 14.4314 47.7026C13.2634 47.5357 12.0538 47.4523 10.8441 47.4106C9.92643 47.4106 8.96705 47.2437 8.09109 46.9934C7.4654 46.7849 6.88143 46.4929 6.33917 46.0758C6.29746 46.0758 6.29746 46.0758 6.25574 46.0758C7.08999 47.2437 8.25794 48.1614 9.59274 48.6619C10.6355 48.9956 11.6784 49.1208 12.7629 49.0791ZM11.8035 46.618C11.8869 46.618 11.9286 46.6597 12.0538 46.6597V46.618L11.9703 46.5346C11.2612 45.8255 10.7607 44.9495 10.427 43.9902L9.67616 41.8628C9.21732 40.5697 8.54993 39.3601 7.67396 38.2756C7.67396 38.3173 7.67396 38.3173 7.67396 38.359C7.92424 39.2767 8.04938 40.1943 8.1328 41.1537C8.50821 43.7399 9.75958 44.9913 9.75958 45.033C9.75958 45.0747 9.75959 45.1164 9.71787 45.0747L9.55102 44.9495C8.75849 44.3239 7.88253 43.7816 6.92314 43.4062C6.17232 43.0725 5.46321 42.6971 4.79581 42.2382C4.00327 41.7377 3.29416 41.112 2.71019 40.4029H2.66848C2.79361 40.7366 2.91875 41.0703 3.0856 41.404C3.71129 42.6136 4.62896 43.6982 5.75519 44.4907C6.83972 45.325 8.09109 45.8672 9.42589 46.0341C10.2184 46.2426 11.011 46.4512 11.8035 46.618ZM5.0878 41.1954L7.59054 42.7388C7.59054 42.7388 7.63225 42.6971 7.63225 42.6554C7.08999 41.5708 7.00657 40.4029 6.92314 39.2349C6.83972 38.1921 7.00657 36.9408 6.96485 35.9397C6.88143 35.1054 6.71458 34.2712 6.46431 33.4786C6.46431 33.4369 6.42259 33.3952 6.42259 33.3535L6.38088 33.3952C6.29746 34.6049 5.83862 35.6894 5.67177 36.6905C5.50492 37.8584 5.58835 39.0681 5.92204 40.236C5.96376 40.2778 5.88033 40.3195 5.88033 40.2778C5.04608 39.1515 4.12841 38.1087 3.12731 37.1493C2.25135 36.3151 1.58395 35.314 1.20854 34.1877C1.20854 34.1877 1.16683 34.146 1.12512 34.146C1.08341 34.146 1.12512 34.2295 1.12512 34.3129C1.12512 35.8562 1.58395 37.3996 2.50163 38.6927C3.16903 39.6521 4.04499 40.528 5.0878 41.1954ZM4.62896 37.5247C4.67067 37.483 4.67067 37.483 4.67067 37.3996C4.58725 36.3568 4.71238 35.2723 5.12951 34.3129C5.71348 32.7278 6.13061 31.101 6.38088 29.3908C6.38088 29.1823 6.42259 28.8068 6.42259 28.7234C6.38088 28.7234 6.38088 28.7234 6.38088 28.7651C6.04718 29.4742 5.67177 30.1416 5.25465 30.7673C4.58725 31.685 3.91985 32.6861 3.83642 33.854C3.79471 34.1877 3.79471 34.5214 3.83642 34.8551C3.83642 34.8551 3.83642 34.8969 3.79471 34.8969C3.79471 34.8969 3.79471 34.8968 3.79471 34.8551L3.50272 33.854C2.91875 31.9353 1.58395 30.7256 1.58395 27.8892L1.54224 27.8475C1.45882 28.0143 1.4171 28.1812 1.33368 28.348C0.12402 32.269 2.58505 35.1054 3.0856 35.6894C3.58615 36.2734 4.25355 36.9825 4.62896 37.5247ZM2.87704 29.7245L3.58615 31.8936C3.58615 31.8936 3.62786 31.8936 3.62786 31.8518C4.00327 30.7256 4.58725 29.6828 5.25465 28.7234L5.37978 28.5566C5.96376 27.8475 6.46431 27.0966 6.88143 26.3041C7.1317 25.7201 7.50712 24.4687 7.54883 24.3436H7.50712C7.4654 24.3436 7.4654 24.3436 7.42369 24.3436C7.00657 24.9693 6.50602 25.5116 5.92204 26.0121C5.21293 26.5127 4.58725 27.1801 4.17012 27.9726C4.12841 28.0977 4.04499 28.2229 4.00327 28.348L3.753 29.0571C3.753 29.0571 3.71129 29.1405 3.71129 29.0571C3.71129 28.9737 3.79471 28.0143 3.79471 27.8475C3.79471 27.0132 3.71129 26.179 3.54444 25.3864C3.33587 24.3436 3.37759 23.3008 3.58615 22.2997C3.58615 22.2163 3.62786 22.1329 3.66957 22.0494C3.66957 22.0077 3.71129 21.9243 3.71129 21.8826C3.71129 21.8409 3.71129 21.8409 3.66957 21.7992C2.58505 23.134 1.95937 25.5533 2.20964 27.3886C2.4182 28.1812 2.62676 28.9737 2.87704 29.7245ZM4.37869 23.6345L4.4204 25.6367V26.2624H4.46211C5.04608 25.5116 5.71348 24.8442 6.42259 24.2185L8.09109 22.8003C8.75849 22.0911 9.17561 21.2152 9.38417 20.2975C9.38417 20.2558 9.38417 20.2141 9.38417 20.1724H9.34246L9.1339 20.4644C8.75849 20.9649 8.25794 21.4237 7.71568 21.7574C6.71458 22.3831 6.04718 22.842 5.46321 23.6345C5.4215 23.6762 5.37978 23.6762 5.4215 23.5928L5.79691 22.2163C6.00547 21.4237 6.08889 20.3809 6.38088 19.6718C6.54773 19.2547 6.83972 18.8376 7.17342 18.5039C7.17342 18.4622 7.17342 18.4622 7.17342 18.4205C7.08999 18.4205 7.04828 18.4622 6.96485 18.5039C5.92204 19.0461 5.17122 19.9221 4.7541 20.9232C4.50382 21.5489 4.33697 22.2163 4.37869 22.9254V23.6345ZM6.58944 21.674L8.42479 20.1724C8.96705 19.6301 9.4676 19.0461 9.88472 18.3787C10.3018 17.7113 10.8441 17.0857 11.4281 16.5434L11.5532 16.4183C11.5532 16.3765 11.5532 16.3765 11.5532 16.3348C10.5104 16.5851 9.50931 17.0439 8.67506 17.7531C7.1317 18.9627 6.63115 21.3403 6.58944 21.674ZM23.3578 34.6049C23.483 34.438 23.191 34.3129 23.1076 34.6049C23.0241 34.8969 23.2327 34.8134 23.3578 34.6049ZM26.528 27.2635C26.4028 27.2218 25.944 27.764 26.0274 27.8475C26.236 27.7223 26.4028 27.5138 26.528 27.2635ZM26.6114 27.1801C26.6948 27.2218 26.9868 27.0549 26.9451 27.0132C26.9034 26.9715 26.528 26.8046 26.528 26.8881C26.528 27.0549 26.5697 27.1383 26.6114 27.1801ZM32.2426 32.3524C32.4094 32.3107 32.3677 32.0604 32.2426 32.0604C32.1174 32.0604 31.9506 32.269 31.9923 32.269C32.034 32.269 32.1591 32.3941 32.2426 32.3524ZM30.1987 26.8046C30.0735 26.8046 30.0318 26.9298 30.1569 27.0132C30.2821 27.0549 30.3655 27.0132 30.4489 26.9715C30.5324 26.9298 30.6158 26.8464 30.6158 26.7212C30.6158 26.5961 30.4489 26.4292 30.5324 26.3458C30.6158 26.2624 30.7409 26.3875 30.8243 26.3458C30.9078 26.3041 30.9495 26.2207 30.9495 26.1372C30.9495 26.0538 30.9078 25.8035 30.7409 25.8035C30.5741 25.8035 30.4072 26.1372 30.4072 26.1372C30.3655 26.2207 30.3655 26.3458 30.4072 26.4292C30.4489 26.5961 30.4072 26.8046 30.1987 26.8046Z" fill="#009EDB"/>
<path d="M32.9517 26.8464C32.9517 26.9298 33.1602 27.472 33.202 27.5972C33.2437 27.7223 33.2854 28.1812 33.3688 28.1394C33.4522 28.0977 33.4522 27.8475 33.4105 27.7223C33.3688 27.4303 33.2854 27.0966 33.202 26.8464C33.1602 26.6795 32.8683 26.0538 32.7848 26.0955C32.7014 26.1372 32.91 26.5127 32.9517 26.6795C32.9934 26.8464 32.91 26.7629 32.9517 26.8464ZM31.4918 19.7552C31.6169 19.797 31.6169 19.5467 31.4083 19.3798C31.1998 19.213 30.8661 19.2964 30.9495 19.3798C31.1163 19.505 31.2832 19.6718 31.4918 19.7552ZM25.2349 17.9616C24.9429 17.7948 25.1932 17.5445 24.9846 17.3776C24.7343 17.2942 24.4841 17.3359 24.3172 17.5028C24.1087 17.7531 24.5675 17.6696 24.6926 17.7531C24.8178 17.8365 25.2349 18.1285 25.2766 18.0868C25.3183 18.045 25.2766 17.9616 25.2349 17.9616ZM26.9034 17.1274C26.528 16.9605 25.1515 16.9605 25.1932 17.3359C25.2349 17.7113 25.9857 17.3359 26.1943 17.3359C26.4028 17.3359 27.2371 17.2942 26.9034 17.1274ZM23.1076 33.2284C23.0241 33.1866 22.899 33.2701 22.8573 33.1866C22.8156 33.1032 22.7321 33.1449 22.7321 33.1866C22.7321 33.2284 22.6904 33.3118 22.7739 33.3952C22.8573 33.4786 23.0241 33.4786 23.1076 33.3952C23.1493 33.3535 23.1493 33.2701 23.1076 33.2284ZM22.315 30.4336C22.4402 30.4336 22.4402 30.3502 22.4819 30.3502C22.5236 30.3502 22.4819 30.4336 22.607 30.4336C22.7321 30.4336 22.8573 30.1416 22.4819 30.1416C22.1899 30.1416 22.2316 30.4336 22.315 30.4336ZM22.8156 30.7673C22.607 30.7256 22.6487 30.8507 22.4819 30.8507C22.2316 30.8925 22.4402 30.6839 22.3567 30.6005C22.315 30.5588 22.1899 30.7673 22.1482 30.8925C22.1482 30.9759 22.1482 31.1427 22.2316 31.1844L23.0241 31.2679C23.191 31.2679 23.0241 30.809 22.8156 30.7673ZM20.2294 33.4786C20.3128 33.4786 20.3545 33.2284 20.3128 33.1032C20.2711 32.9781 20.0208 33.0615 20.0208 33.1449C20.0208 33.2284 20.1877 33.4786 20.2294 33.4786ZM16.8924 33.4786C16.8924 33.3952 16.8924 33.0615 16.809 32.9781C16.7256 32.8947 16.7256 33.0198 16.6838 33.0198C16.6421 33.0198 16.6421 32.8529 16.6004 32.8529C16.5587 32.8529 16.6004 33.1032 16.6838 33.2701C16.7673 33.4369 16.8924 33.6872 16.8924 33.4786ZM16.809 32.7278C16.8924 32.4775 16.9341 32.2273 16.9341 31.977C16.9341 31.7684 16.809 31.6016 16.7673 31.6016C16.7256 31.6016 16.7673 31.7267 16.809 31.9353C16.809 32.1438 16.7256 32.3524 16.6838 32.561C16.6838 32.6027 16.7673 32.8112 16.809 32.7278Z" fill="#009EDB"/>
<path d="M12.5543 42.0714C18.7695 48.2865 28.7804 48.2865 34.9956 42.0714C41.2107 35.8562 41.2107 25.8453 34.9956 19.6301C28.7804 13.415 18.7695 13.415 12.5543 19.6301C6.33917 25.8453 6.33917 35.898 12.5543 42.0714ZM8.59164 31.1845H11.011C11.0527 32.4358 11.2612 33.6455 11.6366 34.8134C11.5115 34.7717 11.3864 34.73 11.2612 34.6466C11.0944 34.5632 10.9692 34.6883 10.9275 34.6883C10.7607 34.6883 10.5521 34.5632 10.5521 34.6883C10.5521 34.8134 10.719 34.73 10.719 34.8134C10.719 34.8969 10.3018 34.8969 10.2601 34.73C10.2184 34.5632 10.135 34.3963 10.0933 34.6049C10.0516 34.8134 9.88472 34.7717 9.8013 34.8134C9.75959 34.8551 9.71787 34.9386 9.71787 35.022C9.71787 35.1054 9.50931 35.0637 9.50931 35.1888C9.50931 35.314 9.63445 35.3557 9.67616 35.4808C9.71787 35.606 9.84301 35.6894 9.75959 35.7311C9.67616 35.7728 9.71787 35.6894 9.63445 35.7311C9.55102 35.7728 10.0099 37.0242 10.0933 36.9825C10.1767 36.9408 9.96815 36.5654 9.96815 36.3985C9.96815 36.2317 10.0099 36.1899 10.135 36.1065C10.2601 36.0231 10.5938 36.6071 10.719 36.5236C10.8441 36.4402 10.6773 36.3568 10.8024 36.3151C10.9275 36.2734 11.3029 36.8573 11.4281 36.6905C11.5115 36.5653 11.5949 36.7739 11.5949 36.8156C11.7201 37.0242 11.9286 37.0242 12.0538 37.2745C12.1789 37.5247 12.4709 37.9836 12.6795 37.9836C12.888 37.9836 12.7629 37.775 12.8463 37.775C12.9297 37.775 13.0132 38.067 13.1383 38.2338C13.2217 38.359 13.3469 38.4424 13.5137 38.4841C13.8057 38.8595 14.1394 39.2349 14.4731 39.6104L12.7629 41.3206C10.135 38.651 8.63335 35.022 8.59164 31.1845ZM22.3984 27.7223L22.2316 27.8057C21.9813 27.9309 21.7728 28.056 21.6059 28.2229L19.8957 26.5127C20.8968 25.6367 22.1482 25.0944 23.4413 25.0527V27.472C23.1493 27.5138 22.8573 27.5555 22.5653 27.6806C22.6487 27.5138 22.8156 27.3469 22.8156 27.3469C22.8156 27.3469 22.5236 27.5138 22.3984 27.7223ZM21.1054 31.685C21.1054 31.7267 21.1054 31.7684 21.1054 31.7684C21.1054 31.685 21.0636 31.6433 21.0219 31.5599C20.9802 31.5181 20.9385 31.4764 20.8968 31.4764C20.8551 31.4764 20.8134 31.4764 20.7717 31.4764H20.6882L20.6048 31.5181H20.0208C19.9374 31.5181 19.8957 31.5181 19.8957 31.4764C19.854 31.3096 20.1043 31.4347 20.2711 30.9342C20.3128 30.8925 20.3128 30.809 20.3545 30.7673L20.3962 30.6839L20.4797 30.6005C20.5631 30.5171 20.6465 30.5171 20.7299 30.5171H20.8134L20.8968 30.6005L21.0219 30.8507C21.0636 30.8925 21.1054 30.8925 21.1054 30.9342C21.1888 30.9759 21.2305 31.0176 21.2722 31.0593L21.3139 31.101V31.1427C21.3556 31.1845 21.3556 31.1845 21.3973 31.1845H21.4391C21.4808 31.1845 21.4808 31.1845 21.5225 31.1845H21.5642C21.6476 31.1427 21.6476 31.1845 21.6893 31.1845V31.2262C21.6893 31.2679 21.6893 31.2679 21.6476 31.3096C21.6476 31.3513 21.6059 31.3513 21.6059 31.393C21.5642 31.4347 21.5225 31.4764 21.4808 31.4764C21.3973 31.4764 21.3139 31.4347 21.2722 31.4347C21.2305 31.4347 21.1888 31.4347 21.1888 31.4764V31.685M16.6004 35.6894C16.4753 35.4808 16.4336 35.1888 16.4336 34.9386C16.4336 34.6883 16.3501 34.438 16.225 34.2295C16.1833 34.0626 16.1416 33.8958 16.1416 33.7289C16.1416 33.4369 15.8913 33.5203 15.8913 33.4369C15.8913 33.3535 16.0999 33.4369 16.0999 33.3535C16.0999 33.2701 15.8496 32.9364 15.641 32.8529C15.4325 32.7695 15.5159 32.6444 15.5159 32.5192C15.5159 32.3941 15.5159 32.269 15.4325 32.1855C15.3908 32.0187 15.4325 31.7267 15.641 31.7267C15.7245 31.7267 15.8496 31.8101 15.9747 31.7267C16.0999 31.6433 16.0164 31.393 16.0164 31.1845H17.1844C17.1844 31.3513 17.2261 31.5599 17.2261 31.7267C17.1427 31.7684 17.101 31.8518 17.1427 31.8936C17.1844 31.9353 17.2261 31.977 17.2678 31.9353C17.4764 33.1449 18.0186 34.2712 18.8529 35.1888L17.1427 36.899C17.0175 36.7739 16.8924 36.6071 16.7673 36.4402C16.7673 36.3985 16.7673 36.3568 16.7673 36.3151C16.7673 36.0231 16.5587 35.8562 16.4753 35.606M14.9736 32.7695C14.8485 32.269 14.8068 31.7267 14.7651 31.1845H15.7662C15.6827 31.3096 15.4742 31.4347 15.4325 31.5599C15.3908 31.685 15.1405 32.1021 15.3073 32.269C15.6827 32.6861 15.2239 32.8529 14.9736 32.7695ZM15.1822 38.943L14.9736 39.1515C14.8902 39.0681 14.7651 38.943 14.6817 38.8595C14.8485 38.7761 15.0153 38.8178 15.1822 38.943ZM17.7684 28.2229C17.7267 28.2229 17.7267 28.2646 17.6849 28.2646C17.5598 28.3897 17.2261 28.348 17.2678 28.4731C17.3095 28.5983 18.1855 28.1812 18.1855 28.2646C18.1855 28.348 17.8101 28.4731 17.5598 28.5983C17.3095 28.7234 17.2261 28.932 16.809 28.932C16.6004 28.932 16.517 29.0988 16.4336 29.224C16.3084 29.3908 16.225 29.5577 16.1416 29.7245C16.1416 29.9748 16.0999 30.2251 15.9747 30.4753H14.7651C14.8485 28.348 15.6827 26.3041 17.1427 24.719L18.8529 26.4292C18.4358 27.0132 18.0604 27.5972 17.7684 28.2229ZM19.3534 26.9715L20.8551 28.4731C20.8134 28.4731 20.7717 28.4731 20.6882 28.4731C20.5214 28.4731 20.5214 28.348 20.3962 28.348C20.146 28.3897 20.1043 28.4731 20.0626 28.4314C19.8957 28.2646 19.6871 28.1394 19.4369 28.0143C19.1449 27.9309 18.8529 27.9309 18.6026 28.056C18.5609 28.056 18.5609 28.0977 18.5192 28.0977C18.8112 27.7223 19.1032 27.3469 19.3534 26.9715ZM17.2678 30.0165C17.2678 30.1834 17.2261 30.3502 17.2261 30.5171H16.3501C16.3084 30.3919 16.3501 30.2668 16.4336 30.1416C16.517 29.9748 16.7256 29.8914 16.9341 29.9331C17.0175 29.9331 17.1427 29.9748 17.2678 30.0165ZM18.0186 31.977L18.1021 32.1021C18.1855 32.1855 18.2689 32.269 18.3523 32.2273C18.4358 32.1855 18.6443 32.2273 18.686 32.2273C18.8112 32.269 18.8946 32.3524 18.978 32.4358C19.0615 32.561 19.2283 32.4775 19.3534 32.561C19.4786 32.6444 19.6037 32.7278 19.4369 32.8112C19.27 32.8947 19.6037 33.0615 19.6454 33.0615C19.6871 33.0615 19.7289 32.9781 19.7289 32.8529C19.7289 32.8112 19.8123 32.6444 19.9374 32.6861C20.0626 32.7278 20.438 33.1866 20.5631 33.0198C20.6882 32.8529 20.6048 32.6444 20.6465 32.561C20.6465 32.5192 20.6882 32.4775 20.7299 32.4775C20.8551 32.6861 20.9385 32.8529 21.1054 33.0198L19.3952 34.73C18.686 33.9792 18.1855 33.0198 18.0186 31.977ZM19.3534 26.0121L17.6849 24.3019C19.27 22.842 21.3139 22.0077 23.4413 21.9243V24.3436C21.9396 24.3853 20.5214 24.9693 19.3534 26.0121ZM17.1844 23.8014L15.4742 22.0911C17.6432 20.0472 20.4797 18.8793 23.4413 18.7959V21.2152C21.1054 21.2986 18.8529 22.2163 17.1844 23.8014ZM16.6838 24.2602C15.0988 25.9704 14.1811 28.1812 14.0977 30.5171H11.6784C11.7618 27.5555 12.9297 24.719 14.9736 22.55L16.6838 24.2602ZM14.0977 31.1845C14.0977 31.6433 14.1394 32.0604 14.2228 32.5192C14.1811 32.5192 14.1811 32.3941 14.056 32.4358C13.9308 32.4775 13.472 33.2701 13.2634 33.6038C13.0966 33.8958 13.3469 34.5214 13.0966 34.73C12.8463 34.8134 12.596 34.8551 12.3458 34.8551H12.304C11.8869 33.6872 11.6784 32.4775 11.6366 31.2679L14.0977 31.1845ZM23.3995 46.0341C19.6037 45.9506 15.9747 44.449 13.2634 41.8211L14.9736 40.1109C17.2678 42.2799 20.2711 43.5313 23.3995 43.6147V46.0341ZM23.3995 42.9473C20.438 42.8639 17.6015 41.696 15.4325 39.6521L15.7245 39.3601C15.7662 39.4018 15.8496 39.4435 15.933 39.4852C16.0999 39.5686 16.3084 39.6104 16.517 39.5686C16.6838 39.5269 17.0175 39.2349 17.2261 39.2349C17.4347 39.2349 17.7684 39.3184 17.9769 39.1932C18.1855 39.0681 17.8518 38.651 17.7267 38.4424C17.6849 38.4007 17.6849 38.359 17.6432 38.3173C19.27 39.6938 21.3556 40.4863 23.483 40.528L23.3995 42.9473ZM23.3995 39.8189C21.2722 39.7355 19.2283 38.9012 17.6432 37.4413L19.3534 35.7311C20.146 36.4402 21.1054 36.9825 22.1899 37.2327C21.8145 37.3996 21.6476 37.6499 21.6893 37.8584C21.731 38.067 21.4391 38.1921 21.4391 38.4424C21.4391 38.6927 21.7728 38.8595 21.8145 39.1098C21.8562 39.2349 22.1482 39.4435 22.3984 39.6104C22.7321 39.6938 23.0658 39.7355 23.3578 39.6938L23.3995 39.8189ZM23.3161 36.4819C23.191 36.3985 23.1076 36.5654 22.9407 36.6488C21.7728 36.4819 20.7299 35.9814 19.854 35.2306L21.5642 33.5203C22.1065 33.9375 22.7321 34.2295 23.3995 34.2712C23.3995 34.3546 23.483 34.438 23.483 34.6049C23.483 34.7717 23.3578 34.8551 23.3995 34.9386C23.4413 35.022 23.8167 34.9386 23.8584 34.8134C23.9001 34.6883 23.7332 34.6049 23.6915 34.4797C23.6498 34.3963 23.6498 34.3546 23.6081 34.2712H23.7332C23.8584 34.2712 23.9835 34.2712 24.1087 34.2295C24.1504 34.2295 24.1921 34.1877 24.1921 34.146C24.1921 34.1043 24.2338 34.0626 24.2338 34.0209C24.2338 33.9792 24.2755 33.9792 24.2755 33.9375L24.3172 33.9792C24.3589 34.0626 24.4424 34.3129 24.5258 34.2712C24.6092 34.2295 24.6509 33.854 24.6092 33.7706C24.5258 33.6455 24.5258 33.5203 24.6092 33.3952C24.6092 33.3535 24.6509 33.1032 24.7343 33.1449C24.8178 33.1866 24.7343 33.3952 24.7343 33.4786C24.7343 33.6038 24.8178 33.7706 24.9429 33.6872C25.0263 33.6455 25.1098 33.5203 25.1932 33.5621C25.2766 33.6038 24.9846 33.6872 24.9429 33.7706C24.9012 33.854 25.068 33.8958 25.0263 33.9375C24.9846 33.9792 24.9429 33.9375 24.9012 33.9792C24.8595 34.0209 24.9846 34.2712 24.9012 34.3129C24.8178 34.3546 24.5258 34.438 24.4424 34.4797C24.3589 34.5214 24.2755 34.438 24.3172 34.3963C24.3589 34.3546 24.3172 34.1877 24.2338 34.1877C24.1504 34.1877 24.1504 34.2295 24.1504 34.3129C24.1504 34.3963 24.2338 34.5214 24.2338 34.5632C24.2338 34.6049 24.1087 34.6466 24.0252 34.6883C23.9418 34.8134 23.8167 34.9386 23.6915 35.022C23.5664 35.1054 23.3161 35.1054 23.3161 35.1888C23.3161 35.2723 23.4413 35.2723 23.483 35.314C23.5664 35.4391 23.6081 35.606 23.4413 35.6894C23.2744 35.7728 23.0658 35.5643 22.9824 35.606C22.899 35.6477 22.8573 35.8562 22.8156 36.1065C22.7739 36.3568 23.2744 36.4402 23.5247 36.3151C23.6915 36.2317 23.6498 35.9814 23.8167 35.898C23.9835 35.8145 23.9418 35.6477 24.1087 35.6894C24.2755 35.7311 24.2338 35.5643 24.4006 35.5643C24.5675 35.5643 24.5675 35.6894 24.7761 35.7311C25.1098 35.8145 25.1098 36.0648 25.1515 35.9397C25.1932 35.8145 25.2349 35.7311 24.9846 35.6477C24.7343 35.5643 24.6092 35.2723 24.8178 35.3557C25.068 35.4808 25.2766 35.4808 25.3183 35.606C25.36 35.7311 25.6103 35.6894 25.652 35.8145C25.6937 36.0231 25.8606 35.8145 25.7354 35.6894C25.6103 35.5643 25.652 35.5225 25.7354 35.4391C25.8189 35.3557 25.8606 35.4808 25.9857 35.314C26.1109 35.1471 25.944 35.1888 25.9023 35.1054C25.8606 35.022 25.9023 34.5632 26.0691 34.6466C26.236 34.73 26.4028 34.6049 26.3194 34.5632C26.236 34.5214 26.3611 34.2712 26.4028 34.2712C26.4446 34.2712 26.4028 34.438 26.4445 34.4797C26.4863 34.5214 26.9034 34.3546 26.9451 34.5632C26.9868 34.7717 26.6531 34.8969 26.5697 34.8969C26.4028 34.8969 26.2777 35.0637 26.1526 35.2306C26.0274 35.3974 25.9023 35.4391 25.9857 35.606C26.0691 35.7728 26.236 35.7311 26.4028 35.6477C26.5697 35.5643 26.6948 35.4391 26.7782 35.3974C26.9451 35.314 27.0702 35.8145 26.9868 35.898C26.9034 35.9814 26.7365 36.0231 26.6531 36.1065C26.4028 36.2317 26.1526 36.3568 25.8606 36.3568C25.6937 36.3985 25.6937 36.4402 25.652 36.6071C25.6103 36.7739 24.8595 36.6488 24.6926 36.6488C24.5258 36.6488 24.8178 36.2734 24.5675 36.3151C24.3172 36.3568 24.0669 36.3985 23.8167 36.4402C23.775 36.4402 23.5247 36.6488 23.3161 36.4819ZM25.5269 40.3612C25.7354 40.4446 25.944 40.6115 26.0691 40.7783C26.1943 40.9869 26.236 41.0703 26.1526 41.2789C25.944 41.6543 26.0274 41.9045 26.4445 42.0297C26.6948 42.1131 26.7782 42.3634 26.9451 42.5302C26.0274 42.7805 25.068 42.9056 24.1087 42.9473V40.528C24.5675 40.4863 25.068 40.4446 25.5269 40.3612ZM24.1087 39.8606V39.5686C24.6509 39.4852 24.5258 39.8189 24.9012 39.6938C25.0263 39.6521 25.1515 39.6938 25.2349 39.7772C24.8595 39.7772 24.4841 39.8189 24.1087 39.8606ZM24.1087 46.0758V43.6147C25.36 43.573 26.6114 43.3645 27.8211 42.9473C27.8628 42.9891 27.9045 42.9891 27.9462 42.9891C28.113 42.9891 28.2799 42.9056 28.405 42.8222C28.8222 42.6554 29.1976 42.4468 29.5313 42.1965C30.6158 41.6543 31.6586 40.9034 32.5346 40.0692L34.2448 41.7794C31.5335 44.449 27.9045 45.9506 24.1087 46.0758ZM30.8661 24.2602L31.45 23.6762C31.6169 23.8431 31.7837 23.9682 32.034 24.0099C32.2426 24.0516 32.326 24.1351 32.3677 24.3436C32.4094 24.5522 32.618 24.6356 32.8265 24.6773C33.0351 24.719 33.1602 24.9693 33.3271 24.9693C33.4939 24.9693 34.0362 25.7201 34.2448 25.9704C34.3699 26.0955 34.5368 26.3041 34.6619 26.1372C34.787 25.9704 34.787 26.0121 34.8705 25.9704C35.4961 27.3886 35.8716 28.9737 35.9133 30.5171H33.4939C33.4939 29.9748 33.4105 29.4325 33.2854 28.8903C33.3688 28.7234 33.4105 28.5566 33.4105 28.348C33.4105 28.1812 33.2437 28.0977 33.1185 28.2229C33.0351 27.8892 32.91 27.5972 32.7848 27.3052C32.7431 27.1383 32.7014 26.9298 32.6597 26.7629C32.6597 26.7212 32.5763 26.6795 32.4928 26.5961C32.4094 26.4292 32.3677 26.3041 32.2843 26.179C32.4094 26.0955 32.4511 25.887 32.2843 25.9287C32.034 25.9704 32.2009 25.8035 32.1174 25.7201C32.034 25.6367 32.034 25.7201 31.9923 25.7618C31.6586 25.2613 31.3249 24.8025 30.9078 24.3436C30.9078 24.3436 30.9078 24.3436 30.9078 24.3019C30.8244 24.3019 30.8244 24.2602 30.8661 24.2602ZM32.326 38.4007C32.2426 38.2338 32.2009 38.0253 32.1174 37.8584C32.0757 37.6916 31.742 37.6916 31.742 37.775C31.742 37.9419 31.742 38.1087 31.7003 38.2756V38.3173L30.8244 37.4413C32.4094 35.7311 33.3271 33.5203 33.4105 31.1845H35.8298C35.7464 34.146 34.5785 36.9825 32.5346 39.1098L32.4094 38.9847C32.4511 38.8178 32.4094 38.6093 32.326 38.4007ZM30.3238 40.0692C30.4489 39.8606 30.6992 39.4852 30.8244 39.2767C30.9495 39.0681 30.4907 38.7761 30.2404 38.6927C29.9901 38.6093 29.9901 38.4841 29.9901 38.2756C30.1152 38.1921 30.2404 38.067 30.3655 37.9419L32.0757 39.6521C31.4918 40.1943 30.9078 40.6532 30.2404 41.0703C30.1987 40.9869 30.4907 40.6949 30.5741 40.5697C30.6575 40.4446 30.2404 40.2778 30.3238 40.0692ZM31.3666 30.0999C31.1581 29.8079 31.45 29.7662 31.742 29.6411C31.9089 29.5577 32.1174 29.6828 32.1174 29.5994C32.1174 29.516 32.2009 29.3491 32.2843 29.3074C32.3677 29.2657 32.4928 29.1823 32.5346 29.0988C32.5346 29.1823 32.5763 29.2657 32.5763 29.3491C32.4928 29.516 32.4511 29.6411 32.4511 29.8079C32.4511 29.9331 32.4511 30.0999 32.5763 29.8079C32.5763 29.7662 32.618 29.7662 32.618 29.7245C32.7014 30.0165 32.7014 30.2668 32.7014 30.5171H30.9078C30.9078 30.5171 30.9078 30.5171 30.9078 30.4753C31.0329 30.2668 31.4918 30.3085 31.3666 30.0999ZM31.7003 26.6795C31.7003 26.6795 31.7003 26.7212 31.6586 26.7212C31.6169 26.7629 31.4083 26.4292 31.4083 26.6795C31.4083 26.9298 31.4918 27.0132 31.6586 27.0549C31.8254 27.0966 31.742 27.1801 31.8672 27.2218C31.9089 27.2218 31.9923 27.2635 32.034 27.3052C32.2426 27.764 32.3677 28.2229 32.4928 28.7234C32.4094 28.7651 32.3677 28.8068 32.326 28.8486C32.2426 28.932 32.2843 29.0988 32.2009 29.224C32.0757 29.4325 32.034 29.5577 31.7003 29.4742C31.4917 29.3908 31.6586 29.1405 31.7003 28.932C31.742 28.7234 31.8255 28.7651 31.8255 28.64C31.8255 28.5149 31.4083 28.056 31.1998 28.2229C30.9912 28.3897 31.0329 28.5566 30.8661 28.7234C30.7826 28.8068 30.6992 28.8068 30.5741 28.7234C30.4489 28.64 30.4072 28.5566 30.4489 28.4731C30.4907 28.3897 30.157 28.0143 30.0318 27.8475C29.865 27.6389 29.6147 27.5138 29.3644 27.5138C29.1559 27.1383 28.8639 26.7629 28.5719 26.4292L30.2821 24.719C30.8661 25.3447 31.3249 25.9704 31.7003 26.6795ZM28.8222 27.8475L28.7387 27.9726C28.697 28.056 28.4885 27.8892 28.4467 27.9309C28.405 27.9726 28.7387 28.3897 28.405 28.2646C28.0713 28.1394 28.2799 28.1394 28.2799 28.0143C28.2799 27.8892 27.9879 27.8057 28.1548 27.7223C28.3216 27.6389 28.1548 27.5138 28.3216 27.472C28.4885 27.4303 28.4467 27.2635 28.2382 27.2218C28.0296 27.1801 28.0713 27.6806 27.9462 27.5972C27.8211 27.5555 27.6959 27.5555 27.5708 27.5555L28.1548 26.9715C28.2382 27.0132 28.2799 27.0132 28.3633 27.0132C28.4467 27.3469 28.6553 27.5972 28.8222 27.8475ZM28.1548 36.3151C28.405 36.3568 28.697 36.3985 28.9473 36.4819C29.1141 36.5654 29.2393 36.7322 29.3644 36.5236C29.6147 36.1482 29.7815 35.7311 29.865 35.2723C29.9484 34.6466 29.8233 34.438 29.7398 34.438C29.6564 34.438 29.4896 34.6049 29.3227 34.6049C29.2393 34.6049 29.2393 34.7717 29.2393 34.8969C29.2393 35.022 29.0724 35.1471 29.0307 35.0637C28.989 34.9803 28.9056 35.022 28.9473 35.1054C28.989 35.1888 28.6136 35.1471 28.4467 35.0637C28.1965 34.9386 28.7387 34.9386 28.989 34.73C29.1976 34.5632 29.4061 34.3546 29.6147 34.146C29.7398 33.9375 29.7398 33.6872 29.9484 33.5203C30.157 33.3535 30.4907 33.3952 30.5324 33.1449C30.5741 32.8947 30.6158 32.9364 30.7409 32.9781C30.8661 33.0198 32.034 32.9364 32.034 32.561C32.034 32.3941 31.7837 32.1855 31.5335 32.1438C31.3666 32.1438 31.3249 31.8101 31.2415 31.6433C31.1581 31.4764 31.0746 31.3096 30.9495 31.1427H32.7014C32.618 33.2701 31.7837 35.314 30.3238 36.899L30.2821 36.8573V36.6905C30.3238 36.3568 30.0735 35.8145 29.9901 35.898C29.9067 35.9814 29.9901 35.9814 29.7398 36.3568C29.6564 36.4819 29.5313 36.6905 29.3644 36.6905C29.1976 36.6905 29.1976 36.6071 28.9473 36.6488C28.7387 36.6905 28.4885 36.6905 28.2799 36.6488C27.9045 36.5236 27.5291 36.3568 27.1537 36.1065C27.1954 36.0648 27.3205 36.1482 27.3205 36.0231C27.3205 35.898 27.9879 36.2734 28.1548 36.3151ZM34.7036 41.3623L32.9934 39.6521C35.1624 37.3579 36.4138 34.3546 36.4972 31.2262H38.9583C38.8748 35.022 37.3732 38.6093 34.7036 41.3623ZM38.9583 30.5171H36.4972C36.4555 28.7234 36.0384 26.9715 35.2459 25.3447L35.2876 25.303C35.4544 25.1361 34.495 23.8848 34.3282 23.7596C34.1613 23.6345 33.9945 23.4259 33.7859 23.2174C33.4522 22.8837 33.1185 22.5083 32.8683 22.1329L34.6619 20.3392C37.3732 23.0922 38.8748 26.7212 38.9583 30.5171ZM24.1087 15.6674C27.9045 15.7509 31.5335 17.2525 34.2865 19.8804L32.618 21.5489C32.5346 21.5072 32.4511 21.4655 32.4928 21.382C32.5763 21.2569 32.3677 21.2569 32.326 20.9232C32.2426 20.5895 31.9923 20.2975 31.7003 20.1307C31.4917 20.0055 31.3666 19.8387 31.1581 19.7552C30.9495 19.6718 30.5324 19.4216 30.3238 19.505C30.1987 19.5467 30.0318 19.5884 29.9067 19.5884C28.113 18.629 26.1526 18.1285 24.1504 18.0868L24.1087 15.6674ZM24.1087 18.7959C25.9023 18.8376 27.6125 19.2964 29.2393 20.0889C29.281 20.3392 29.4061 20.6312 29.573 20.8398C29.6564 21.0483 29.7815 21.2152 29.9067 21.4237C30.0318 21.5489 29.9484 21.7992 29.9901 22.0077C29.9901 22.0911 30.0735 22.1746 30.1152 22.258C30.1152 22.3831 30.1152 22.4666 30.1152 22.5917C30.1152 22.6334 30.2821 22.6334 30.4072 22.55C30.5324 22.4666 30.6158 22.2997 30.7826 22.3414C30.9495 22.3831 31.1581 22.7168 31.2832 22.9254L30.4907 23.7179C30.4072 23.5511 30.3238 23.3425 30.3655 23.3425C30.4072 23.3425 30.4907 23.3842 30.5324 23.3842C30.6992 23.3842 30.4072 23.2591 30.4072 23.2174C30.2821 23.0922 30.2821 22.9254 30.1152 22.8003C29.9484 22.6751 29.6981 22.7585 29.6147 22.5917C29.4478 22.2997 29.2393 22.0494 28.9473 21.8409C28.9056 21.8409 29.281 22.2997 29.1559 22.3831C29.0307 22.4666 28.5719 22.0911 28.5302 22.1746C28.4885 22.258 29.0307 22.4666 29.1976 22.6334C29.281 22.7168 29.4478 22.9671 29.6147 23.1757C28.0296 21.966 26.1109 21.2986 24.1087 21.2152V18.7959ZM24.1087 21.8826C26.236 21.966 28.2799 22.8003 29.865 24.2602L28.1548 25.9704C27.0285 24.9693 25.6103 24.3853 24.1087 24.3019V21.8826ZM24.1087 25.011C25.4435 25.0944 26.6948 25.595 27.6542 26.4709L27.5708 26.5544L27.4874 26.5127C27.2788 26.4292 26.8617 26.8464 26.9451 26.8881C27.0285 26.9298 27.1954 26.7212 27.2788 26.7629H27.3205L26.6114 27.5138C26.4028 27.5972 26.1943 27.764 26.1943 27.8892C26.1943 27.8892 26.1943 27.8892 26.1943 27.9309L25.944 28.1812L25.8189 28.056C25.6103 27.8892 25.4017 27.764 25.1515 27.6806C25.2766 27.5972 25.3183 27.472 25.36 27.3052C25.36 27.0549 25.2766 27.1383 25.1515 27.2635C25.0263 27.3886 24.9012 27.4303 24.8178 27.5555C24.6092 27.472 24.3589 27.4303 24.1504 27.4303V25.011H24.1087ZM23.8167 28.0977C23.8584 28.1812 23.8167 28.2646 23.775 28.3063C23.6915 28.3897 23.4413 28.0977 23.3995 28.348C23.3161 28.5983 23.5664 28.4731 23.5664 28.5149C23.6915 28.6817 23.8584 28.7651 24.0669 28.8068C24.2338 28.8068 24.4841 28.8068 24.4841 28.9737C24.4841 29.0571 24.6926 29.0571 24.7343 29.1405C24.7343 29.2657 24.8595 29.4742 24.9429 29.4325C25.0263 29.3908 25.1515 29.4742 25.1932 29.5577C25.2349 29.6411 25.1932 29.6828 25.1515 29.7662C25.0263 29.8914 25.2766 29.8497 25.3183 30.0999C25.36 30.3502 25.1098 30.1834 25.068 30.3502C24.9846 30.4753 24.9012 30.5588 24.8178 30.6839C24.7761 30.7256 24.8595 30.809 24.9012 30.7673C24.9429 30.7256 25.0263 30.6005 25.1515 30.6005C25.2766 30.6005 25.4017 31.0593 25.5269 31.101C25.652 31.1427 25.6103 31.3096 25.652 31.3513C25.6937 31.393 25.4435 31.3513 25.4852 31.4347C25.5269 31.5181 25.7772 31.5599 25.7772 31.685C25.7354 31.8101 25.652 31.9353 25.4852 31.9353C25.36 31.9353 25.1515 31.6433 25.1515 31.7267C25.1515 31.8101 25.2349 32.0604 25.36 32.0604C25.4852 32.0604 25.7772 31.9353 25.652 32.1021C25.5269 32.269 25.5686 32.5192 25.4852 32.5192C25.4017 32.5192 25.36 32.5192 25.4435 32.6444C25.4852 32.7695 25.4435 32.8947 25.36 33.0198C25.2766 33.1032 25.068 33.0198 25.068 32.9781C25.068 32.9364 25.3183 32.9364 25.3183 32.8112C25.3183 32.6861 25.1932 32.6444 24.9429 32.7278C24.8178 32.7695 24.7761 32.6861 24.6926 32.6861C24.6092 32.6861 24.3589 32.9781 24.3589 33.0198C24.3589 33.0615 24.3589 33.1449 24.3589 33.2284C24.3589 33.3952 24.3172 33.5203 24.2338 33.6455C24.0669 33.6872 23.9418 33.6872 23.775 33.6872C23.1076 33.6872 22.4402 33.3952 21.9396 32.9781C22.023 32.9364 22.1482 32.8947 22.2733 32.8947C22.3984 32.9364 22.4402 32.8529 22.5236 32.8112C22.607 32.7695 22.8156 32.8947 22.9407 32.8112C23.0658 32.7278 23.3578 32.1855 23.3161 32.0604C23.2744 31.9353 23.6081 31.7267 23.5664 31.685C23.5247 31.6433 23.483 31.7267 23.483 31.685C23.483 31.6433 23.5664 31.6433 23.483 31.4764C23.3995 31.3096 23.2744 31.393 23.191 31.393C23.0658 31.3096 22.8573 31.2679 22.8156 31.3096C22.7739 31.3513 22.6487 31.2262 22.607 31.2679C22.5653 31.2679 22.4819 31.3096 22.4819 31.393C22.4402 31.4764 22.5236 31.5599 22.5236 31.6433C22.4819 31.8101 22.2316 31.9353 22.2316 32.0604C22.2316 32.1855 22.1065 32.1021 22.0647 32.1438C22.023 32.1855 22.0647 32.269 21.9813 32.269C21.8979 32.269 21.7728 32.4775 21.6893 32.6444C21.5642 32.4775 21.4391 32.269 21.3139 32.1021C21.3973 32.0604 21.4808 32.0187 21.5225 32.0604C21.6476 32.1438 22.1482 31.2679 22.0647 31.0176C21.9813 30.7673 21.8562 30.9342 21.731 30.9759C21.6059 31.0176 21.6059 30.8925 21.6476 30.8507C21.6893 30.809 22.2316 30.809 21.9396 30.6422C21.8145 30.5588 21.4808 30.5588 21.5225 30.4336C21.5642 30.3085 21.731 30.4336 21.7728 30.4336C21.9813 30.5171 22.1065 30.0999 22.2316 30.0999C22.4402 30.0999 22.3567 29.6828 22.1482 29.8079C21.9396 29.9331 21.8562 29.8914 21.7728 30.0165C21.6893 30.1416 21.4808 30.3085 21.4808 30.1416C21.4808 30.0582 21.9396 29.8079 22.023 29.6828C22.1065 29.5994 22.1899 29.4742 22.2316 29.3491C22.2733 29.224 22.8573 29.1405 22.9824 29.0571C23.0658 28.9737 23.1493 28.8486 23.1493 28.7234C23.1493 28.5983 22.9824 28.64 22.9407 28.5566C22.899 28.4731 23.1493 28.5566 23.1493 28.4314C23.1493 28.3063 22.9407 28.4314 22.8573 28.348C22.8573 28.3063 22.8573 28.3063 22.899 28.2646C23.2744 28.1394 23.5247 28.0977 23.8167 28.0977H23.9001ZM23.4413 15.6674V18.0868C20.3128 18.1702 17.3095 19.4216 15.0153 21.5906L13.3051 19.8804C16.0164 17.2525 19.6454 15.7509 23.4413 15.6674ZM12.7629 20.3809L14.4731 22.0911C12.304 24.3853 11.0527 27.3886 10.9692 30.5171H8.54993C8.67506 26.7212 10.1767 23.0922 12.7629 20.3809Z" fill="#009EDB"/>
</g>
<defs>
<clipPath id="clip0_5508_15044">
<rect width="124.428" height="38" fill="white" transform="translate(1 15)"/>
</clipPath>
</defs>
</svg>
