<svg width="240" height="70" viewBox="0 0 240 70" fill="none" xmlns="http://www.w3.org/2000/svg">
<path d="M112.383 35.4171L108.51 32.9223C106.572 31.6319 105.681 30.9426 105.681 29.5321C105.681 28.2417 106.659 27.3979 108.089 27.3979C109.276 27.3979 110.062 27.6383 111.092 28.6023L113.813 33.2657H114.477V27.0176C114.477 26.7772 114.268 26.5883 114.04 26.5883C112.557 26.6055 111.298 26.5883 109.241 26.5883C108.525 26.5883 107.811 26.6742 107.112 26.8802C103.236 27.9989 101.318 29.9614 101.318 32.4219C101.318 34.8823 102.818 36.0697 104.39 37.1196L108.176 39.6144C110.184 40.9048 111.057 41.5254 111.057 43.0733C111.057 44.2435 110.027 45.3278 108.142 45.3278C106.642 45.3278 105.699 44.6556 104.477 43.5885L102.122 38.9938H101.44V44.7758C102.331 45.2051 103.517 45.6025 104.843 45.8773C107.234 46.3752 109.729 46.1177 111.878 44.9647C114.234 43.7087 115.281 41.9522 115.316 40.0241C115.281 37.9929 114.495 36.7197 112.383 35.4122V35.4171Z" fill="#000A1E"/>
<path d="M99.398 26.7771H96.9901C96.8333 26.7771 96.6766 26.863 96.607 27.0175L93.3259 33.2656L93.0647 27.1892C93.0473 26.966 92.8558 26.7771 92.6294 26.7771H88.3358C88.0921 26.7771 87.9005 26.966 87.9005 27.2064V45.1412C87.9005 45.3816 88.0921 45.5705 88.3358 45.5705H92.9254C93.1692 45.5705 93.3607 45.3816 93.3607 45.1412V34.161L93.8832 33.3858C94.3707 32.645 95.2089 32.2157 96.0995 32.2157H99.398C99.6443 32.2157 99.8358 32.0268 99.8358 31.7864V27.2089C99.8358 26.9685 99.6443 26.7796 99.398 26.7796V26.7771Z" fill="#000A1E"/>
<path d="M128.858 42.2834C127.724 42.8158 126.885 43.1445 125.699 43.1445C124.442 43.1445 123.534 42.4036 123.534 40.7698V28.2564H128.544V27.6358H123.534V22.7639C123.534 22.4376 123.186 22.2316 122.888 22.3861L118.298 24.8122C118.159 24.8809 118.072 25.0355 118.072 25.19V41.1108C118.072 43.2794 118.719 44.9156 120.236 45.6712C121.301 46.2035 122.592 46.152 123.656 45.6025L129.154 42.8476L128.858 42.2785V42.2834Z" fill="#000A1E"/>
<path d="M17.4726 26.7771H12.8657C12.6219 26.7771 12.4304 26.9832 12.4304 27.2064V42.4722C11.1393 43.3848 10.1791 44.0741 8.57211 44.0741C6.59947 44.0741 6.70395 41.6308 6.70395 40.5465V27.2089C6.70395 26.9685 6.51241 26.7796 6.26863 26.7796H1.43532C1.19154 26.7796 1 26.9856 1 27.2089V40.4091C1 45.3326 3.42538 46.0881 5.55473 46.0881C7.68408 46.0881 9.76112 45.0725 12.5173 43.5075C12.7089 43.4216 15.903 44.8836 17.2811 45.5386C17.5771 45.676 17.9104 45.4699 17.9104 45.1437V27.2089C17.9104 26.9685 17.7189 26.7796 17.4751 26.7796L17.4726 26.7771Z" fill="#000A1E"/>
<path d="M34.1591 26.8458C31.4004 26.8458 29.0273 28.6022 27.684 30.2532L27.4402 27.1721C27.4228 26.9488 27.2313 26.7771 27.0049 26.7771H22.694C22.4502 26.7771 22.2586 26.966 22.2586 27.2064V51.5611C22.2586 51.8702 22.5721 52.0762 22.8532 51.9732L27.4427 50.2683C27.6168 50.1996 27.7213 50.045 27.7213 49.8561V45.0357C28.8556 45.8796 30.2338 46.0857 31.281 46.0857C34.2661 46.0857 40.286 43.4191 40.286 35.2429C40.3034 29.7528 37.3009 26.8434 34.1591 26.8434V26.8458ZM30.0572 44.9695C29.0273 45.021 28.2064 44.5402 27.7362 43.8852V31.492C27.7362 31.492 29.2189 29.9613 30.6517 29.9613C32.903 29.9613 34.281 32.1127 34.281 37.3795C34.281 42.0086 32.781 44.9695 30.0572 44.9695Z" fill="#000A1E"/>
<path d="M55.52 26.8458C52.7613 26.8458 50.3882 28.6022 49.045 30.2532L48.8012 27.1721C48.7838 26.9488 48.5922 26.7771 48.3659 26.7771H44.0723C43.8285 26.7771 43.6369 26.966 43.6369 27.2064V51.5611C43.6369 51.8702 43.9504 52.0762 44.2315 51.9732L48.8211 50.2683C48.9952 50.1996 49.0996 50.045 49.0996 49.8561V45.0357C50.2339 45.8796 51.6121 46.0857 52.6593 46.0857C55.6444 46.0857 61.6643 43.4191 61.6643 35.2429C61.6643 29.7528 58.6618 26.8434 55.52 26.8434V26.8458ZM51.4181 44.9695C50.3882 45.021 49.5673 44.5402 49.0972 43.8852V31.492C49.0972 31.492 50.5797 29.9613 52.0125 29.9613C54.2812 29.9613 55.642 32.1127 55.642 37.3795C55.6245 42.0086 54.142 44.9695 51.4181 44.9695Z" fill="#000A1E"/>
<path d="M82.59 26.7771H77.9831C77.7393 26.7771 77.5477 26.966 77.5477 27.2064V45.1584C77.5477 45.3988 77.7393 45.5877 77.9831 45.5877H82.59C82.8338 45.5877 83.0253 45.3988 83.0253 45.1584V27.2064C83.0253 26.966 82.8338 26.7771 82.59 26.7771Z" fill="#000A1E"/>
<path d="M70.6345 22.266L70.6518 22.1458C70.7041 21.9054 70.9305 21.7165 71.1742 21.7165H77.0722C77.612 21.7165 78.1717 21.8023 78.6941 21.9741L82.2712 23.127C82.3234 23.1442 82.3757 23.1442 82.4454 23.1442C82.7414 23.1442 82.9852 22.9038 82.9852 22.6119V18.5323C82.9852 18.2404 82.7414 18 82.4454 18H73.3881C72.5498 18 71.729 18.3091 71.1021 18.8439L67.4379 21.9937C65.5872 23.5073 64.8384 25.1092 64.8384 27.2777V27.5181C64.8384 27.5696 64.7862 27.6212 64.7339 27.6212H62.6221C62.5698 27.6212 62.5175 27.6727 62.5175 27.7242V28.1535C62.5175 28.205 62.5698 28.2565 62.6221 28.2565H64.7339C64.7862 28.2565 64.8384 28.308 64.8384 28.3596V45.0555C64.8384 45.3475 65.0821 45.5879 65.3782 45.5879H69.7588C70.0549 45.5879 70.2986 45.3475 70.2986 45.0555V28.3596C70.2986 28.308 70.3508 28.2565 70.4031 28.2565H75.306C75.3583 28.2565 75.4105 28.205 75.4105 28.1535V27.7414C75.4279 27.6898 75.3931 27.6383 75.3234 27.6383H70.418C70.3658 27.6383 70.3136 27.5868 70.3136 27.5353V26.4339C70.3136 24.3683 70.3483 23.4042 70.6269 22.2684L70.6345 22.266Z" fill="#000A1E"/>
</svg>
