<svg width="200" height="100" viewBox="0 0 200 100" fill="none" xmlns="http://www.w3.org/2000/svg">
<path d="M158.437 50.5153L153.652 47.4334C151.259 45.8395 150.158 44.9879 150.158 43.2455C150.158 41.6515 151.366 40.6091 153.133 40.6091C154.599 40.6091 155.57 40.9061 156.842 42.097L160.204 47.8577H161.024V40.1394C161.024 39.8424 160.766 39.6091 160.483 39.6091C158.652 39.6303 157.097 39.6091 154.556 39.6091C153.671 39.6091 152.789 39.7151 151.925 39.9697C147.138 41.3515 144.769 43.7758 144.769 46.8152C144.769 49.8547 146.622 51.3213 148.564 52.6183L153.241 55.7002C155.72 57.2941 156.799 58.0608 156.799 59.9729C156.799 61.4184 155.527 62.7578 153.198 62.7578C151.345 62.7578 150.18 61.9275 148.671 60.6093L145.761 54.9335H144.919V62.076C146.019 62.6063 147.485 63.0972 149.123 63.4366C152.076 64.0518 155.158 63.7336 157.813 62.3093C160.723 60.7578 162.017 58.5881 162.06 56.2062C162.017 53.6971 161.046 52.1244 158.437 50.5092V50.5153Z" fill="white"/>
<path d="M142.397 39.8423H139.422C139.229 39.8423 139.035 39.9484 138.949 40.1393L134.896 47.8576L134.573 40.3514C134.552 40.0757 134.315 39.8423 134.035 39.8423H128.732C128.43 39.8423 128.194 40.0757 128.194 40.3726V62.5274C128.194 62.8244 128.43 63.0577 128.732 63.0577H134.401C134.702 63.0577 134.939 62.8244 134.939 62.5274V48.9636L135.584 48.006C136.186 47.0909 137.222 46.5606 138.322 46.5606H142.397C142.701 46.5606 142.937 46.3272 142.937 46.0303V40.3757C142.937 40.0787 142.701 39.8454 142.397 39.8454V39.8423Z" fill="white"/>
<path d="M178.788 58.9972C177.387 59.6548 176.352 60.0608 174.886 60.0608C173.334 60.0608 172.212 59.1457 172.212 57.1274V41.6697H178.401V40.903H172.212V34.8848C172.212 34.4818 171.782 34.2272 171.413 34.4181L165.744 37.4151C165.572 37.5 165.464 37.6909 165.464 37.8818V57.5487C165.464 60.2275 166.263 62.2487 168.138 63.1821C169.453 63.8396 171.048 63.776 172.363 63.0972L179.154 59.6942L178.788 58.9911V58.9972Z" fill="white"/>
<path d="M41.1948 39.8423H35.5038C35.2027 39.8423 34.9661 40.0969 34.9661 40.3726V59.2304C33.3712 60.3577 32.185 61.2092 30.2 61.2092C27.7632 61.2092 27.8922 58.191 27.8922 56.8516V40.3757C27.8922 40.0787 27.6556 39.8454 27.3545 39.8454H21.3839C21.0828 39.8454 20.8462 40.0999 20.8462 40.3757V56.6819C20.8462 62.7638 23.8423 63.6971 26.4726 63.6971C29.103 63.6971 31.6688 62.4426 35.0735 60.5092C35.3101 60.4031 39.2558 62.2092 40.9581 63.0183C41.3238 63.188 41.7355 62.9335 41.7355 62.5304V40.3757C41.7355 40.0787 41.4989 39.8454 41.1978 39.8454L41.1948 39.8423Z" fill="white"/>
<path d="M61.8074 39.9272C58.3996 39.9272 55.4682 42.0969 53.8088 44.1363L53.5077 40.3302C53.4862 40.0544 53.2495 39.8423 52.9699 39.8423H47.6446C47.3435 39.8423 47.1069 40.0757 47.1069 40.3726V70.4578C47.1069 70.8396 47.4941 71.0942 47.8413 70.9669L53.5107 68.8608C53.7258 68.776 53.8549 68.585 53.8549 68.3517V62.3971C55.2561 63.4395 56.9585 63.6941 58.2522 63.6941C61.9396 63.6941 69.376 60.4001 69.376 50.3C69.3975 43.5181 65.6884 39.9241 61.8074 39.9241V39.9272ZM56.7403 62.3153C55.4682 62.3789 54.4541 61.785 53.8733 60.9759V45.6666C53.8733 45.6666 55.7048 43.7757 57.4748 43.7757C60.2557 43.7757 61.958 46.4333 61.958 52.9394C61.958 58.6577 60.1051 62.3153 56.7403 62.3153Z" fill="white"/>
<path d="M88.1944 39.9272C84.7866 39.9272 81.8552 42.0969 80.1958 44.1363L79.8947 40.3302C79.8732 40.0544 79.6366 39.8423 79.3569 39.8423H74.0531C73.752 39.8423 73.5154 40.0757 73.5154 40.3726V70.4578C73.5154 70.8396 73.9026 71.0942 74.2498 70.9669L79.9193 68.8608C80.1344 68.776 80.2634 68.585 80.2634 68.3517V62.3971C81.6646 63.4395 83.367 63.6941 84.6606 63.6941C88.3481 63.6941 95.7845 60.4001 95.7845 50.3C95.7845 43.5181 92.0755 39.9241 88.1944 39.9241V39.9272ZM83.1274 62.3153C81.8552 62.3789 80.8411 61.785 80.2604 60.9759V45.6666C80.2604 45.6666 82.0917 43.7757 83.8617 43.7757C86.6641 43.7757 88.3451 46.4333 88.3451 52.9394C88.3236 58.6577 86.4921 62.3153 83.1274 62.3153Z" fill="white"/>
<path d="M121.634 39.8423H115.943C115.642 39.8423 115.405 40.0757 115.405 40.3726V62.5486C115.405 62.8456 115.642 63.0789 115.943 63.0789H121.634C121.935 63.0789 122.172 62.8456 122.172 62.5486V40.3726C122.172 40.0757 121.935 39.8423 121.634 39.8423Z" fill="white"/>
<path d="M106.865 34.2697L106.887 34.1213C106.951 33.8243 107.231 33.5909 107.532 33.5909H114.818C115.485 33.5909 116.176 33.697 116.821 33.9091L121.24 35.3334C121.305 35.3546 121.369 35.3546 121.455 35.3546C121.821 35.3546 122.122 35.0576 122.122 34.697V29.6576C122.122 29.297 121.821 29 121.455 29H110.267C109.231 29 108.217 29.3818 107.443 30.0424L102.917 33.9334C100.63 35.8031 99.7054 37.7819 99.7054 40.4607V40.7577C99.7054 40.8213 99.6409 40.885 99.5763 40.885H96.9676C96.903 40.885 96.8384 40.9486 96.8384 41.0122V41.5425C96.8384 41.6062 96.903 41.6698 96.9676 41.6698H99.5763C99.6409 41.6698 99.7054 41.7335 99.7054 41.7971V62.4216C99.7054 62.7822 100.006 63.0791 100.372 63.0791H105.784C106.149 63.0791 106.45 62.7822 106.45 62.4216V41.7971C106.45 41.7335 106.515 41.6698 106.579 41.6698H112.636C112.701 41.6698 112.765 41.6062 112.765 41.5425V41.0334C112.787 40.9698 112.743 40.9062 112.657 40.9062H106.598C106.533 40.9062 106.469 40.8425 106.469 40.7789V39.4183C106.469 36.8667 106.512 35.6758 106.856 34.2728L106.865 34.2697Z" fill="white"/>
</svg>
