<svg width="240" height="70" viewBox="0 0 240 70" fill="none" xmlns="http://www.w3.org/2000/svg">
<g clip-path="url(#clip0_5508_15059)">
<path fill-rule="evenodd" clip-rule="evenodd" d="M45.0205 21H28.2736C29.6767 20.9993 30.9734 21.7476 31.6748 22.9627C32.3763 24.1778 32.3758 25.6749 31.6736 26.8896L24.9756 38.4892L29.9491 47.1007C30.65 48.3158 31.9462 49.0645 33.3491 49.0645C34.7519 49.0645 36.0481 48.3158 36.7491 47.1007L48.4196 26.8896C49.1217 25.675 49.1222 24.1781 48.421 22.9631C47.7198 21.7481 46.4234 20.9997 45.0205 21Z" fill="#FF0050"/>
<path fill-rule="evenodd" clip-rule="evenodd" d="M21.6767 21H4.93077C3.52792 20.9997 2.23154 21.7481 1.53031 22.9631C0.829075 24.1781 0.829613 25.675 1.53172 26.8896L13.2032 47.1007C13.9041 48.3158 15.2003 49.0645 16.6032 49.0645C18.006 49.0645 19.3022 48.3158 20.0032 47.1007L24.9775 38.4864L18.2777 26.8896C17.5756 25.675 17.575 24.1781 18.2762 22.9631C18.9775 21.7481 20.2739 20.9997 21.6767 21Z" fill="#003FFF"/>
<path fill-rule="evenodd" clip-rule="evenodd" d="M28.2746 21H21.6758C20.2728 20.9993 18.9761 21.7476 18.2746 22.9627C17.5732 24.1778 17.5736 25.6749 18.2758 26.8896L24.9747 38.4911L31.6746 26.8896C32.3768 25.6749 32.3773 24.1778 31.6758 22.9627C30.9743 21.7476 29.6777 20.9993 28.2746 21Z" fill="#1B0260"/>
<path fill-rule="evenodd" clip-rule="evenodd" d="M61.0667 24.5142H65.5811L69.816 40.2373L74.4863 24.5142H78.7514L83.4216 40.1749L87.5933 24.5142H91.984L85.5703 47.2432H81.3051L76.6056 31.3633L71.9334 47.2432H67.5115L61.0667 24.5142Z" fill="#1B0260"/>
<path fill-rule="evenodd" clip-rule="evenodd" d="M97.8688 46.5575L91.6733 31.6749H96.1565L99.9863 41.2648L103.567 31.6749H107.988L98.9587 54.436H94.6936L97.8688 46.5575Z" fill="#1B0260"/>
<path fill-rule="evenodd" clip-rule="evenodd" d="M109.282 43.4437L117.471 35.4423H109.406V31.6749H123.195V35.5047L115.007 43.4748H123.355V47.2432H109.282V43.4437Z" fill="#1B0260"/>
<path fill-rule="evenodd" clip-rule="evenodd" d="M132.894 47.5539C131.746 47.5689 130.608 47.3521 129.546 46.9164C127.601 46.1223 126.061 44.5716 125.281 42.6201C124.873 41.6169 124.667 40.543 124.674 39.46C124.667 38.3739 124.884 37.298 125.312 36.2999C126.129 34.3622 127.671 32.8205 129.609 32.0036C130.607 31.5754 131.683 31.3581 132.769 31.3652C133.884 31.3525 134.991 31.5645 136.022 31.9885C136.978 32.3838 137.842 32.9722 138.56 33.7168C139.269 34.4598 139.829 35.3319 140.21 36.2857C140.609 37.2859 140.81 38.354 140.801 39.4307V40.9872H128.784C129.006 41.819 129.506 42.5498 130.201 43.0574C131.003 43.5985 131.958 43.8665 132.925 43.8214C133.741 43.8372 134.543 43.6093 135.229 43.1669C135.894 42.73 136.423 42.1147 136.754 41.3914L140.148 43.4153C139.485 44.6397 138.513 45.6699 137.331 46.4045C135.992 47.2047 134.452 47.6037 132.894 47.5539ZM132.799 35.0995C131.963 35.0771 131.141 35.3168 130.448 35.7852C129.803 36.2313 129.292 36.8448 128.969 37.5598H136.502C136.257 36.8107 135.77 36.1645 135.117 35.7228C134.423 35.2911 133.617 35.0743 132.801 35.0995H132.799Z" fill="#1B0260"/>
<path fill-rule="evenodd" clip-rule="evenodd" d="M142.908 24.5142H150.723C151.845 24.502 152.957 24.7189 153.992 25.1517C154.957 25.556 155.834 26.1429 156.576 26.88C157.312 27.62 157.894 28.4982 158.29 29.464C159.119 31.4998 159.119 33.7796 158.29 35.8154C157.894 36.7812 157.312 37.6593 156.576 38.3994C155.831 39.1395 154.947 39.7266 153.976 40.1277C152.936 40.5601 151.818 40.7773 150.692 40.7662H147.236V47.2432H142.908V24.5142ZM147.236 28.5299V36.7466H150.412C150.995 36.7548 151.574 36.6436 152.112 36.4198C152.602 36.2136 153.047 35.9118 153.419 35.532C153.783 35.1565 154.069 34.7121 154.26 34.2249C154.654 33.203 154.654 32.0707 154.26 31.0488C154.069 30.5615 153.783 30.1172 153.419 29.7417C153.047 29.3617 152.602 29.0599 152.112 28.8539C151.574 28.6301 150.995 28.5189 150.412 28.5271L147.236 28.5299Z" fill="#1B0260"/>
<path fill-rule="evenodd" clip-rule="evenodd" d="M166.571 47.5539C165.692 47.5445 164.822 47.3759 164.003 47.0562C162.109 46.3411 160.583 44.8936 159.769 43.0404C159.279 41.9115 159.041 40.69 159.069 39.46C159.041 38.2315 159.274 37.0111 159.754 35.8796C160.168 34.9227 160.772 34.0595 161.528 33.3419C162.232 32.6815 163.064 32.1729 163.972 31.8478C164.825 31.5348 165.726 31.3712 166.635 31.3642C167.558 31.3461 168.475 31.5211 169.327 31.878C170.057 32.1863 170.718 32.6356 171.274 33.2002V31.6749H175.539V47.2422H171.276V45.4988C170.726 46.1237 170.053 46.6273 169.298 46.9778C168.445 47.3737 167.512 47.5706 166.571 47.5539ZM167.412 43.6316C167.964 43.6382 168.512 43.5268 169.018 43.3048C169.496 43.094 169.925 42.7866 170.278 42.4019C170.635 42.0116 170.915 41.5576 171.104 41.0637C171.498 40.0093 171.498 38.8483 171.104 37.794C170.917 37.3039 170.637 36.8548 170.278 36.4718C169.534 35.6865 168.497 35.2467 167.415 35.2582C166.845 35.2522 166.279 35.3577 165.749 35.5689C164.746 35.9683 163.952 36.7624 163.553 37.7647C163.138 38.8362 163.138 40.0242 163.553 41.0958C163.752 41.5906 164.048 42.0403 164.425 42.418C165.218 43.2069 166.295 43.6445 167.414 43.6325L167.412 43.6316Z" fill="#1B0260"/>
<path fill-rule="evenodd" clip-rule="evenodd" d="M182.814 46.5575L176.618 31.6749H181.102L184.931 41.2648L188.512 31.6749H192.933L183.904 54.436H179.639L182.814 46.5575Z" fill="#1B0260"/>
</g>
<defs>
<clipPath id="clip0_5508_15059">
<rect width="192.667" height="34" fill="white" transform="translate(1 21)"/>
</clipPath>
</defs>
</svg>
