<svg xmlns="http://www.w3.org/2000/svg" xmlns:xlink="http://www.w3.org/1999/xlink" viewBox="0 0 900 2450"><defs><style>.cls-1,.cls-10,.cls-5,.cls-6,.cls-9{fill:none;}.cls-13,.cls-2{fill:#f8f8f8;}.cls-3{isolation:isolate;}.cls-4{clip-path:url(#clip-path);}.cls-5{stroke:#393375;}.cls-10,.cls-5,.cls-6,.cls-9{stroke-linecap:round;stroke-miterlimit:10;}.cls-10,.cls-5{stroke-width:2px;}.cls-10,.cls-6,.cls-9{stroke:#2d266c;}.cls-6{stroke-width:4px;}.cls-7{fill:#393375;}.cls-8{fill:#64f0ff;}.cls-11{fill:#211a64;}.cls-12{clip-path:url(#clip-path-2);}.cls-13{opacity:0.5;mix-blend-mode:multiply;}.cls-14{fill:#007bff;}.cls-15{fill:#ff6f00;}.cls-16{fill:#080052;}.cls-17{clip-path:url(#clip-path-3);}.cls-18{fill:#1a88ff;}.cls-19{fill:#3395ff;}.cls-20{clip-path:url(#clip-path-4);}</style><clipPath id="clip-path"><rect class="cls-1" x="-928.56" width="900.22" height="2450"/></clipPath><clipPath id="clip-path-2"><rect class="cls-2" x="-0.22" width="900.22" height="2450"/></clipPath><clipPath id="clip-path-3"><rect class="cls-1" x="919.78" width="900.22" height="2450"/></clipPath><clipPath id="clip-path-4"><circle class="cls-1" cx="1048.75" cy="469.95" r="201.01"/></clipPath></defs><g class="cls-3"><g id="graphic"><g class="cls-4"><line class="cls-5" x1="109.83" y1="145.19" x2="-20.54" y2="431.29"/><line class="cls-6" x1="145.7" y1="-17.6" x2="-23.53" y2="353.77"/><circle class="cls-7" cx="68.24" cy="305.81" r="11.34"/><circle class="cls-8" cx="149.85" cy="122.44" r="5.67"/><line class="cls-9" x1="177.34" y1="2366.63" x2="350.64" y2="2474.28"/><line class="cls-10" x1="151.69" y1="106.44" x2="230.15" y2="-84.08"/><circle class="cls-11" cx="538.98" cy="2358.88" r="11.34"/><circle class="cls-7" cx="498.97" cy="2323.36" r="5.67"/><line class="cls-5" x1="259.41" y1="2483.89" x2="199.72" y2="2312.4"/></g><rect class="cls-2" x="-0.22" width="900.22" height="2450"/><g class="cls-12"><circle class="cls-2" cx="899.64" cy="1254" r="469"/><circle class="cls-13" cx="278.14" cy="72.5" r="509.5"/><circle class="cls-2" cx="924.64" cy="565" r="773"/><circle class="cls-2" cx="139.14" cy="-0.5" r="59.5"/><circle class="cls-2" cx="880.64" cy="620" r="664"/><circle class="cls-13" cx="812.14" cy="755.5" r="618.5"/><circle class="cls-13" cx="275.64" cy="1242" r="469"/><circle class="cls-2" cx="511.64" cy="771" r="230"/><circle class="cls-2" cx="712.64" cy="638" r="91"/><circle class="cls-2" cx="500.64" cy="2095" r="609"/><circle class="cls-2" cx="413.14" cy="1475.5" r="129.5"/><circle class="cls-13" cx="-0.36" cy="2109" r="140"/><circle class="cls-13" cx="783.14" cy="2143.5" r="375.5"/><circle class="cls-2" cx="450.14" cy="2318.5" r="59.5"/><circle class="cls-13" cx="386.14" cy="1491.5" r="59.5"/><circle class="cls-2" cx="449.64" cy="1080" r="174"/><circle class="cls-2" cx="-33.36" cy="1182" r="93"/><circle class="cls-13" cx="248.64" cy="1789" r="62"/><circle class="cls-13" cx="195.14" cy="1785.5" r="39.5"/><circle class="cls-2" cx="829.64" cy="2108" r="296"/><circle class="cls-13" cx="777.14" cy="2023.5" r="230.5"/><circle class="cls-2" cx="859.64" cy="1776" r="91"/><circle class="cls-2" cx="779.14" cy="142.5" r="39.5"/><circle class="cls-13" cx="418.14" cy="608.5" r="123.5"/><circle class="cls-14" cx="253.64" cy="1086" r="8.5"/><circle class="cls-14" cx="656.64" cy="392" r="5.67"/><circle class="cls-14" cx="145.64" cy="1214" r="5.67"/><circle class="cls-14" cx="226.64" cy="1302" r="2.83"/><circle class="cls-14" cx="662.64" cy="647" r="2.83"/><circle class="cls-14" cx="259.64" cy="1630" r="8.5"/><circle class="cls-14" cx="700.99" cy="2247.37" r="8.5"/><circle class="cls-14" cx="58.64" cy="97" r="5.67"/><circle class="cls-14" cx="3.64" cy="540" r="8.5"/><circle class="cls-14" cx="899.64" cy="1561" r="5.67"/><circle class="cls-15" cx="776.91" cy="168.6" r="8.5"/><circle class="cls-15" cx="202.8" cy="415" r="5.67"/><circle class="cls-15" cx="172.8" cy="1016" r="5.67"/><circle class="cls-15" cx="696.8" cy="1025" r="2.83"/><circle class="cls-15" cx="291.98" cy="1999.02" r="2.83"/><circle class="cls-15" cx="319.98" cy="621.02" r="2.83"/><circle class="cls-15" cx="589.98" cy="261.02" r="2.83"/><circle class="cls-15" cx="203.8" cy="2378" r="8.5"/><circle class="cls-15" cx="841.8" cy="97" r="5.67"/><circle class="cls-15" cx="598.02" cy="612.52" r="8.5"/><circle class="cls-15" cx="682.8" cy="1659" r="5.67"/><circle class="cls-16" cx="54.8" cy="2129.06" r="8.5"/><circle class="cls-16" cx="775.98" cy="2449.83" r="5.67"/><circle class="cls-16" cx="723.79" cy="1700.81" r="8.5"/><circle class="cls-16" cx="106.82" cy="2206.83" r="5.67"/><circle class="cls-16" cx="174.82" cy="1261.83" r="5.67"/><circle class="cls-16" cx="899.71" cy="936.64" r="8.5"/><circle class="cls-16" cx="663.79" cy="316.46" r="8.5"/><circle class="cls-16" cx="211.97" cy="738.42" r="2.83"/><circle class="cls-16" cx="226.97" cy="1462.42" r="2.83"/><circle class="cls-16" cx="618.97" cy="1296.42" r="2.83"/><circle class="cls-16" cx="628.97" cy="1825.42" r="2.83"/><circle class="cls-8" cx="635.17" cy="1230.27" r="5.67"/><circle class="cls-8" cx="744.17" cy="531.27" r="2.83"/><circle class="cls-8" cx="292.17" cy="1561.27" r="2.83"/><circle class="cls-8" cx="616.01" cy="995.27" r="2.83"/><circle class="cls-8" cx="2.04" cy="1413.92" r="8.5"/><circle class="cls-8" cx="629.01" cy="44.27" r="5.67"/><circle class="cls-8" cx="163.97" cy="464.42" r="8.5"/><circle class="cls-8" cx="823.01" cy="2048.06" r="8.5"/></g><g class="cls-17"><circle class="cls-18" cx="1121.93" cy="1135.28" r="361.08"/><circle class="cls-19" cx="1048.75" cy="469.95" r="201.01"/><g class="cls-20"><circle class="cls-18" cx="941.07" cy="321.52" r="56.59"/></g></g></g></g></svg>