<svg xmlns="http://www.w3.org/2000/svg" fill="none" viewBox="0 0 290 332">
  <g filter="url(#a)">
    <circle cx="165.61" cy="131.319" r="48.7089" fill="#fff"/>
  </g>
  <g filter="url(#b)">
    <circle cx="165.61" cy="131.319" r="28.446" fill="#fff"/>
  </g>
  <g filter="url(#c)">
    <path fill="#007BFF" d="M152.088 138.349c0-.424-.17-.83-.474-1.13-.303-.3-.714-.468-1.143-.468-.429 0-.84.168-1.143.468-.303.3-.474.706-.474 1.13v12.024c0 .21.042.418.124.612.081.194.2.37.35.519.15.148.328.266.525.346.196.08.406.122.618.122.213 0 .423-.042.619-.122.196-.08.374-.198.524-.346.15-.149.27-.325.351-.519.081-.194.123-.402.123-.612v-12.024Zm31.058 0c0-.424-.171-.83-.474-1.13-.303-.3-.714-.468-1.143-.468-.429 0-.84.168-1.143.468-.304.3-.474.706-.474 1.13v12.024c0 .424.17.831.474 1.131.303.299.714.468 1.143.468.429 0 .84-.169 1.143-.468.303-.3.474-.707.474-1.131v-12.024Zm-5.191-6.815c0-.424-.17-.831-.473-1.131a1.6322 1.6322 0 0 0-1.144-.468c-.428 0-.84.169-1.143.468-.303.3-.473.707-.473 1.131v18.839c0 .424.17.831.473 1.131.303.299.715.468 1.143.468.429 0 .84-.169 1.144-.468.303-.3.473-.707.473-1.131v-18.839Zm-20.677 0c0-.424-.17-.831-.473-1.131a1.6298 1.6298 0 0 0-1.143-.468c-.429 0-.84.169-1.144.468-.303.3-.473.707-.473 1.131v18.839c0 .424.17.831.473 1.131.304.299.715.468 1.144.468.428 0 .84-.169 1.143-.468.303-.3.473-.707.473-1.131v-18.839Zm15.487-11.612c0-.424-.171-.83-.474-1.13-.303-.3-.714-.468-1.143-.468-.429 0-.84.168-1.143.468-.303.3-.474.706-.474 1.13v24.317c0 .424.171.831.474 1.131.303.299.714.468 1.143.468.429 0 .84-.169 1.143-.468.303-.3.474-.707.474-1.131v-24.317Zm-10.296 0c0-.21-.042-.418-.123-.612-.081-.194-.201-.37-.351-.518-.15-.149-.328-.266-.524-.347a1.6444 1.6444 0 0 0-1.238 0c-.196.081-.374.198-.524.347-.15.148-.269.324-.351.518-.081.194-.123.402-.123.612v24.317c0 .21.042.418.123.612.082.194.201.37.351.519.15.148.328.266.524.346.197.081.407.122.619.122.212 0 .423-.041.619-.122.196-.08.374-.198.524-.346.15-.149.27-.325.351-.519.081-.194.123-.402.123-.612v-24.317Zm5.19 19.185c0 .424-.17.83-.473 1.13-.303.3-.715.468-1.143.468-.429 0-.84-.168-1.144-.468-.303-.3-.473-.706-.473-1.13v-26.842c0-.424.17-.83.473-1.13.304-.3.715-.468 1.144-.468.428 0 .84.168 1.143.468.303.3.473.706.473 1.13v26.842Z"/>
  </g>
  <circle cx="165.61" cy="131.319" r="38.8568" stroke="#FF9C50"/>
  <circle cx="165.61" cy="131.319" r="62.2371" stroke="#FFDBBF"/>
  <circle cx="165.61" cy="131.319" r="84.838" stroke="#FFF3EA"/>
  <defs>
    <filter id="a" width="237.418" height="237.418" x="46.9014" y="12.6104" color-interpolation-filters="sRGB" filterUnits="userSpaceOnUse">
      <feFlood flood-opacity="0" result="BackgroundImageFix"/>
      <feBlend in="SourceGraphic" in2="BackgroundImageFix" result="shape"/>
      <feGaussianBlur result="effect1_foregroundBlur_6610_14616" stdDeviation="35"/>
    </filter>
    <filter id="b" width="162.892" height="162.892" x="84.1643" y="49.8733" color-interpolation-filters="sRGB" filterUnits="userSpaceOnUse">
      <feFlood flood-opacity="0" result="BackgroundImageFix"/>
      <feBlend in="SourceGraphic" in2="BackgroundImageFix" result="shape"/>
      <feGaussianBlur result="effect1_foregroundBlur_6610_14616" stdDeviation="26.5"/>
    </filter>
    <filter id="c" width="88.2911" height="95.3052" x="121.854" y="84.6666" color-interpolation-filters="sRGB" filterUnits="userSpaceOnUse">
      <feFlood flood-opacity="0" result="BackgroundImageFix"/>
      <feColorMatrix in="SourceAlpha" result="hardAlpha" values="0 0 0 0 0 0 0 0 0 0 0 0 0 0 0 0 0 0 127 0"/>
      <feOffset dy="1"/>
      <feGaussianBlur stdDeviation="13.5"/>
      <feComposite in2="hardAlpha" operator="out"/>
      <feColorMatrix values="0 0 0 0 1 0 0 0 0 1 0 0 0 0 1 0 0 0 0.6 0"/>
      <feBlend in2="BackgroundImageFix" result="effect1_dropShadow_6610_14616"/>
      <feBlend in="SourceGraphic" in2="effect1_dropShadow_6610_14616" result="shape"/>
    </filter>
  </defs>
</svg>