<svg width="203" height="46" viewBox="0 0 203 46" fill="none" xmlns="http://www.w3.org/2000/svg">
<path d="M60.7992 23.8286C59.8268 23.8257 58.8561 23.9121 57.8994 24.0866C56.7863 24.3446 56.3898 24.6837 56.3898 25.9306C56.3898 27.2682 57.1351 27.5931 58.5014 27.5931C59.2621 27.6269 60.0216 27.5033 60.7323 27.23C60.7795 26.7538 60.8018 26.2754 60.7992 25.7968V23.8286ZM54.1445 25.9688C54.1445 24.1057 54.9519 22.9353 57.0109 22.6248C58.2661 22.4621 59.5291 22.3664 60.7944 22.3381C60.7944 20.8572 60.1447 20.1167 58.5205 20.1167C57.2789 20.1303 56.0393 20.2196 54.8086 20.3842L54.6223 18.717C55.9802 18.4738 57.356 18.3444 58.7355 18.33C61.0906 18.33 63.035 18.9702 63.035 21.6741V26.3797C63.035 27.0819 63.0063 27.6934 62.9442 28.3431C61.7499 29.0167 60.1639 29.2986 58.167 29.2986C55.2767 29.2986 54.1445 28.1855 54.1445 25.9688Z" fill="#2B2B2B"/>
<path d="M69.0782 27.5358C71.9445 27.5358 71.9827 25.9688 71.9827 23.8143C71.9827 21.8508 71.8442 20.0785 69.2931 20.0785C68.6255 20.0604 67.9616 20.1824 67.344 20.4368C67.297 20.913 67.2747 21.3914 67.2772 21.87V27.23C67.8588 27.4216 68.4659 27.5247 69.0782 27.5358ZM67.2772 33.0869H65.008V21.225C65.008 20.5228 65.0366 19.9113 65.094 19.2616C66.3955 18.6074 67.8367 18.2795 69.2931 18.3061C72.7996 18.3061 74.2806 19.6055 74.2806 23.7904C74.2806 27.9753 72.8474 29.2747 69.6132 29.2747C68.8257 29.2668 68.0417 29.1674 67.2772 28.9785V33.0869Z" fill="#2B2B2B"/>
<path d="M79.8747 27.5358C82.7411 27.5358 82.7793 25.9688 82.7793 23.8143C82.7793 21.8508 82.6407 20.0785 80.0897 20.0785C79.4221 20.0604 78.7581 20.1824 78.1406 20.4368C78.0936 20.913 78.0712 21.3914 78.0737 21.87V27.23C78.6554 27.4213 79.2625 27.5243 79.8747 27.5358ZM78.0737 33.0869H75.8045V21.225C75.8045 20.5228 75.8332 19.9113 75.8905 19.2616C77.1921 18.6074 78.6332 18.2795 80.0897 18.3061C83.601 18.3061 85.0771 19.6055 85.0771 23.7904C85.0771 27.9753 83.644 29.2747 80.4098 29.2747C79.6222 29.2668 78.8383 29.1674 78.0737 28.9785V33.0869Z" fill="#2B2B2B"/>
<path d="M86.5533 14.3315H88.8559V26.2746C88.8213 27.1383 89.0976 27.9858 89.6346 28.6632L87.6521 29.6186C86.8839 28.7209 86.4965 27.5588 86.5724 26.3797L86.5533 14.3315Z" fill="#2B2B2B"/>
<path d="M90.9245 29.1409H93.2175V18.4733H90.9245V29.1409ZM92.0662 16.959C90.9914 16.959 90.6856 16.615 90.6856 15.5736C90.6856 14.5321 91.0105 14.1882 92.0662 14.1882C93.122 14.1882 93.4516 14.5273 93.4516 15.5736C93.4516 16.6198 93.1554 16.9733 92.0662 16.9733V16.959Z" fill="#2B2B2B"/>
<path d="M99.1509 23.2936C99.9391 23.2601 101.176 23.155 101.912 23.0547C101.921 22.8956 101.921 22.7361 101.912 22.577C101.912 20.9479 101.31 20.0642 99.5235 20.0642C97.2734 20.0642 96.9677 21.4973 96.9677 23.4082L99.1509 23.2936ZM97.0632 24.9513C97.1874 27.0055 98.2575 27.488 99.9296 27.488C101.208 27.4764 102.485 27.3839 103.751 27.2109L103.942 28.9068C102.42 29.1704 100.878 29.3015 99.3324 29.2986C95.7495 29.2986 94.8084 26.9768 94.8084 23.8095C94.8084 19.9352 96.0075 18.33 99.5856 18.33C103.407 18.33 104.253 20.3556 104.253 23.542C104.253 23.8 104.253 24.0627 104.22 24.3302C102.478 24.5973 100.724 24.7759 98.9646 24.8653L97.0632 24.9513Z" fill="#2B2B2B"/>
<path d="M110.568 20.0928C107.702 20.0928 107.664 21.655 107.664 23.8095C107.664 25.7777 107.802 27.5453 110.353 27.5453C111.021 27.5634 111.685 27.4414 112.303 27.187C112.348 26.7107 112.369 26.2323 112.365 25.7538V20.389C111.784 20.2026 111.179 20.1028 110.568 20.0928ZM112.365 14.3601H114.653V26.3988C114.653 27.101 114.624 27.7125 114.562 28.3622C113.263 29.0189 111.823 29.347 110.368 29.3177C106.857 29.3177 105.38 28.0135 105.38 23.8286C105.38 19.6438 106.79 18.3491 110.048 18.3491C110.834 18.3554 111.616 18.4532 112.379 18.6405L112.365 14.3601Z" fill="#2B2B2B"/>
<path d="M118.031 26.007C118.031 26.523 118.031 27.2443 118.059 27.7794C118.959 28.1418 119.922 28.3252 120.892 28.3192C123.591 28.3192 124.513 27.0437 124.513 23.8095C124.513 20.4654 123.811 19.3094 120.797 19.3094C119.856 19.3316 118.924 19.4925 118.031 19.7871V26.007ZM116.913 14.3315H118.031V18.7552C119.074 18.4722 120.15 18.3245 121.231 18.3157C124.394 18.3157 125.641 19.7489 125.641 23.7952C125.641 27.9466 124.236 29.2842 120.892 29.2842C119.534 29.3143 118.187 29.0315 116.956 28.4578C116.927 27.8893 116.913 27.2778 116.913 26.6854V14.3315Z" fill="#2B2B2B"/>
<path d="M127.552 14.3315H128.669V26.2746C128.613 27.3087 128.936 28.3279 129.577 29.1409L128.646 29.6186C127.875 28.7255 127.482 27.567 127.552 26.3892V14.3315Z" fill="#2B2B2B"/>
<path d="M139.017 23.8095C139.017 20.389 138.162 19.3189 135.487 19.3189C132.883 19.3189 131.951 20.2409 131.951 23.8095C131.951 27.3781 132.883 28.3097 135.487 28.3097C138.09 28.3097 139.017 27.23 139.017 23.8095ZM130.824 23.8095C130.824 19.8157 132.061 18.33 135.487 18.33C138.912 18.33 140.144 19.8683 140.144 23.8095C140.144 27.7507 138.912 29.2986 135.487 29.2986C132.061 29.2986 130.824 27.8128 130.824 23.8095Z" fill="#2B2B2B"/>
<path d="M148.877 29.0119C148.028 29.1947 147.162 29.2907 146.293 29.2986C142.681 29.2986 141.964 26.8287 141.964 23.6949C141.964 20.1979 142.753 18.33 146.589 18.33C147.354 18.327 148.116 18.4184 148.858 18.6023L148.762 19.4909C148.183 19.3909 147.597 19.335 147.009 19.3237C143.455 19.3237 143.101 20.6613 143.101 23.6949C143.101 26.5278 143.407 28.2906 146.976 28.2906C147.577 28.2643 148.174 28.1876 148.762 28.0613L148.877 29.0119Z" fill="#2B2B2B"/>
<path d="M151.638 23.4608L156.535 18.4733H157.949L152.708 23.7856L158.288 29.1552H156.745L151.638 24.2012V29.1552H150.52V14.3458H151.638V23.4608Z" fill="#2B2B2B"/>
<path d="M165.717 29.0119C164.866 29.1946 163.998 29.2906 163.128 29.2986C159.521 29.2986 158.804 26.8287 158.804 23.6949C158.804 20.1979 159.592 18.33 163.429 18.33C164.193 18.327 164.955 18.4184 165.698 18.6023L165.602 19.4909C165.023 19.3909 164.437 19.335 163.849 19.3237C160.295 19.3237 159.936 20.6613 159.936 23.6949C159.936 26.5278 160.247 28.2906 163.816 28.2906C164.416 28.264 165.014 28.1873 165.602 28.0613L165.717 29.0119Z" fill="#2B2B2B"/>
<path d="M174.76 29.1409V22.3955C174.76 20.2457 174.34 19.3237 171.416 19.3237C170.42 19.3317 169.43 19.4928 168.483 19.8014V29.1409H167.37V14.3315H168.483V18.7743C169.557 18.4739 170.664 18.3133 171.779 18.2966C175.381 18.2679 175.888 19.768 175.888 22.0515V29.1409H174.76Z" fill="#2B2B2B"/>
<path d="M181.893 28.3288C182.97 28.3365 184.04 28.1554 185.055 27.7937C185.055 27.2539 185.084 26.5278 185.084 26.0166V23.4656C183.571 23.4636 182.059 23.5657 180.56 23.7713C179.308 24.0149 178.716 24.5595 178.716 26.1265C178.716 27.894 179.623 28.3288 181.893 28.3288ZM178.3 18.6931C179.592 18.4635 180.901 18.3421 182.213 18.33C184.453 18.33 186.192 18.8842 186.192 21.5164V26.6997C186.192 27.2921 186.192 27.9084 186.149 28.4721C184.781 29.0604 183.3 29.3425 181.811 29.2986C178.945 29.2986 177.593 28.5246 177.593 26.1599C177.593 24.3207 178.362 23.1455 180.201 22.8684C181.822 22.6735 183.452 22.5635 185.084 22.5388V21.8795C185.084 20.0212 184.515 19.3189 181.916 19.3189C180.738 19.3386 179.563 19.444 178.4 19.6342L178.3 18.6931Z" fill="#2B2B2B"/>
<path d="M188.547 29.1409H189.656V18.4733H188.543L188.547 29.1409ZM188.433 15.1293C188.433 14.4461 188.581 14.1738 189.101 14.1738C189.622 14.1738 189.78 14.4318 189.78 15.1293C189.78 15.8268 189.646 16.0465 189.101 16.0465C188.557 16.0465 188.433 15.822 188.433 15.1436V15.1293Z" fill="#2B2B2B"/>
<path d="M193.119 29.1409H192.006V20.9718C192.006 20.3795 192.006 19.768 192.044 19.2043C193.584 18.6144 195.22 18.3178 196.869 18.33C200.462 18.33 200.82 20.0355 200.82 22.1805V29.1409H199.688V22.4528C199.688 20.3078 199.296 19.3237 196.415 19.3237C195.296 19.3433 194.187 19.5384 193.129 19.9017C193.129 20.4463 193.1 21.1677 193.1 21.6789L193.119 29.1409Z" fill="#2B2B2B"/>
<path d="M45.2534 23.0022C45.2487 27.4004 43.9398 31.6985 41.4923 35.3529C39.0449 39.0073 35.5687 41.8539 31.5034 43.5327C27.4382 45.2114 22.9664 45.647 18.6535 44.7843C14.3407 43.9216 10.3805 41.7994 7.27384 38.686C4.16714 35.5727 2.05343 31.6079 1.2 27.2933C0.346579 22.9786 0.791767 18.5077 2.47927 14.4461C4.16678 10.3844 7.02081 6.91438 10.6805 4.47476C14.3401 2.03515 18.641 0.735525 23.0393 0.740247C28.936 0.750374 34.5876 3.10059 38.7527 7.27469C42.9179 11.4488 45.2559 17.1054 45.2534 23.0022Z" fill="#007BFF"/>
<path d="M15.206 26.6136C15.206 26.3729 15.1103 26.142 14.9401 25.9718C14.7699 25.8015 14.539 25.7059 14.2983 25.7059C14.0576 25.7059 13.8267 25.8015 13.6565 25.9718C13.4863 26.142 13.3906 26.3729 13.3906 26.6136V33.4403C13.3906 33.5595 13.4141 33.6775 13.4597 33.7876C13.5053 33.8977 13.5722 33.9978 13.6565 34.0821C13.7408 34.1664 13.8408 34.2332 13.9509 34.2788C14.0611 34.3245 14.1791 34.3479 14.2983 34.3479C14.4175 34.3479 14.5355 34.3245 14.6457 34.2788C14.7558 34.2332 14.8558 34.1664 14.9401 34.0821C15.0244 33.9978 15.0913 33.8977 15.1369 33.7876C15.1825 33.6775 15.206 33.5595 15.206 33.4403V26.6136ZM32.6429 26.6136C32.6429 26.3729 32.5473 26.142 32.377 25.9718C32.2068 25.8015 31.9759 25.7059 31.7352 25.7059C31.4945 25.7059 31.2636 25.8015 31.0934 25.9718C30.9232 26.142 30.8275 26.3729 30.8275 26.6136V33.4403C30.8275 33.681 30.9232 33.9119 31.0934 34.0821C31.2636 34.2523 31.4945 34.3479 31.7352 34.3479C31.9759 34.3479 32.2068 34.2523 32.377 34.0821C32.5473 33.9119 32.6429 33.681 32.6429 33.4403V26.6136ZM29.7288 22.744C29.7288 22.5033 29.6331 22.2724 29.4629 22.1022C29.2927 21.932 29.0618 21.8364 28.8211 21.8364C28.5804 21.8364 28.3495 21.932 28.1793 22.1022C28.009 22.2724 27.9134 22.5033 27.9134 22.744V33.4403C27.9134 33.681 28.009 33.9119 28.1793 34.0821C28.3495 34.2523 28.5804 34.3479 28.8211 34.3479C29.0618 34.3479 29.2927 34.2523 29.4629 34.0821C29.6331 33.9119 29.7288 33.681 29.7288 33.4403V22.744ZM18.1201 22.744C18.1201 22.5033 18.0245 22.2724 17.8542 22.1022C17.684 21.932 17.4531 21.8364 17.2124 21.8364C16.9717 21.8364 16.7408 21.932 16.5706 22.1022C16.4004 22.2724 16.3047 22.5033 16.3047 22.744V33.4403C16.3047 33.681 16.4004 33.9119 16.5706 34.0821C16.7408 34.2523 16.9717 34.3479 17.2124 34.3479C17.4531 34.3479 17.684 34.2523 17.8542 34.0821C18.0245 33.9119 18.1201 33.681 18.1201 33.4403V22.744ZM26.8147 16.1514C26.8147 15.9107 26.719 15.6798 26.5488 15.5096C26.3786 15.3394 26.1477 15.2438 25.907 15.2438C25.6662 15.2438 25.4354 15.3394 25.2652 15.5096C25.0949 15.6798 24.9993 15.9107 24.9993 16.1514V29.9577C24.9993 30.1984 25.0949 30.4293 25.2652 30.5995C25.4354 30.7697 25.6662 30.8653 25.907 30.8653C26.1477 30.8653 26.3786 30.7697 26.5488 30.5995C26.719 30.4293 26.8147 30.1984 26.8147 29.9577V16.1514ZM21.0342 16.1514C21.0342 16.0322 21.0107 15.9142 20.9651 15.8041C20.9195 15.694 20.8526 15.5939 20.7683 15.5096C20.6841 15.4253 20.584 15.3585 20.4739 15.3129C20.3638 15.2672 20.2457 15.2438 20.1265 15.2438C20.0073 15.2438 19.8893 15.2672 19.7792 15.3129C19.669 15.3585 19.569 15.4253 19.4847 15.5096C19.4004 15.5939 19.3336 15.694 19.2879 15.8041C19.2423 15.9142 19.2189 16.0322 19.2189 16.1514V29.9577C19.2189 30.0768 19.2423 30.1949 19.2879 30.305C19.3336 30.4151 19.4004 30.5152 19.4847 30.5995C19.569 30.6838 19.669 30.7506 19.7792 30.7962C19.8893 30.8418 20.0073 30.8653 20.1265 30.8653C20.2457 30.8653 20.3638 30.8418 20.4739 30.7962C20.584 30.7506 20.6841 30.6838 20.7683 30.5995C20.8526 30.5152 20.9195 30.4151 20.9651 30.305C21.0107 30.1949 21.0342 30.0768 21.0342 29.9577V16.1514ZM23.9483 27.0435C23.9483 27.2843 23.8527 27.5151 23.6825 27.6854C23.5122 27.8556 23.2814 27.9512 23.0406 27.9512C22.7999 27.9512 22.569 27.8556 22.3988 27.6854C22.2286 27.5151 22.133 27.2843 22.133 27.0435V11.8042C22.133 11.5634 22.2286 11.3326 22.3988 11.1623C22.569 10.9921 22.7999 10.8965 23.0406 10.8965C23.2814 10.8965 23.5122 10.9921 23.6825 11.1623C23.8527 11.3326 23.9483 11.5634 23.9483 11.8042V27.0435Z" fill="white"/>
</svg>
