<?xml version="1.0" encoding="utf-8"?>
<!-- Generator: Adobe Illustrator 25.4.1, SVG Export Plug-In . SVG Version: 6.00 Build 0)  -->
<svg version="1.1" xmlns="http://www.w3.org/2000/svg" xmlns:xlink="http://www.w3.org/1999/xlink" x="0px" y="0px"
	 viewBox="0 0 265.4 125" style="enable-background:new 0 0 265.4 125;" xml:space="preserve">
<style type="text/css">
	.st0{clip-path:url(#Fill-1_00000159430699507462277080000008274791940325074310_);fill:#FF6F00;}
	
		.st1{opacity:0.2;clip-path:url(#Fill-1_00000159430699507462277080000008274791940325074310_);fill:url(#SVGID_1_);enable-background:new    ;}
	.st2{fill:#FFFFFF;}
	.st3{clip-path:url(#SVGID_00000165232060503914089290000008514711487852531135_);fill:#FF6F00;}
	.st4{fill:#0065A4;}
</style>
<g id="background">
</g>
<g id="artwork">
</g>
<g id="text">
</g>
<g id="graphic">
	<g>
		<polygon class="st2" points="227.4,0 0,0 36,125 344.2,125 344.2,0 		"/>
		<g>
			<defs>
				<polygon id="SVGID_00000109718247296052427930000000062369688516911783_" points="227.4,0 0,0 36,125 344.2,125 344.2,0 				"/>
			</defs>
			<clipPath id="SVGID_00000098220948858379545070000009272387208269543047_">
				<use xlink:href="#SVGID_00000109718247296052427930000000062369688516911783_"  style="overflow:visible;"/>
			</clipPath>
			
				<rect x="0" y="71.4" style="clip-path:url(#SVGID_00000098220948858379545070000009272387208269543047_);fill:#FF6F00;" width="344.2" height="53.6"/>
		</g>
		<path class="st2" d="M62.5,94.3h-1.7c-0.1-0.2-0.1-0.8-0.1-1.1c-0.4,0.9-1.2,1.3-2.1,1.3c-2.1,0-2.7-1.5-2.7-3.9V84
			c0-2.3,0.9-4,3.3-4c2.9,0,3.3,2.2,3.3,3.7v0.5h-2.2v-0.6c0-0.7-0.1-1.6-1.1-1.6c-0.8,0-1.1,0.5-1.1,1.7v7.2c0,1.1,0.3,1.7,1.1,1.7
			c0.9,0,1.2-0.8,1.2-2.2v-2h-1.2v-1.9h3.4V94.3z M64.4,80.2h2.2v12.1h3.5l-0.2,1.9h-5.5V80.2z M77.7,84v6.5c0,2.7-1.1,4-3.5,4
			c-2.3,0-3.3-1.3-3.3-3.9V84c0-2.7,1.4-3.9,3.4-3.9C76.4,80,77.7,81.3,77.7,84z M73.1,83.8v7.1c0,1.2,0.4,1.7,1.2,1.7
			c0.8,0,1.2-0.5,1.2-1.7v-7c0-1.1-0.3-1.7-1.2-1.7C73.5,82,73.1,82.6,73.1,83.8z M79.4,80.2h2.9c2.4,0,3.4,1.1,3.4,3.2V84
			c0,2-0.7,2.6-1.3,2.8c0.6,0.2,1.6,0.8,1.6,2.8v1.1c0,2.4-1,3.6-3.4,3.6h-3.1V80.2z M82,86c1.2,0,1.6-0.4,1.6-1.8v-0.5
			c0-1.2-0.4-1.6-1.4-1.6h-0.7V86H82z M81.5,92.5h0.7c1.2,0,1.6-0.6,1.6-1.9v-0.9c0-1.4-0.3-2-1.7-2h-0.6V92.5z M89.5,90.5L89,94.3
			h-2.2l2.3-14h3.1l2.3,14h-2.3l-0.6-3.8H89.5z M91.4,88.5c-0.3-2.4-0.6-4.6-0.8-6.2h-0.1c-0.1,1.2-0.5,4.2-0.8,6.2H91.4z
			 M95.6,80.2h2.2v12.1h3.5l-0.2,1.9h-5.5V80.2z M106.5,82.3h-2.3v-2h6.7v2h-2.3v12h-2.2V82.3z M118.6,84v6.5c0,2.7-1.1,4-3.5,4
			c-2.3,0-3.3-1.3-3.3-3.9V84c0-2.7,1.4-3.9,3.4-3.9C117.3,80,118.6,81.3,118.6,84z M114,83.8v7.1c0,1.2,0.4,1.7,1.2,1.7
			c0.8,0,1.2-0.5,1.2-1.7v-7c0-1.1-0.3-1.7-1.2-1.7C114.4,82,114,82.6,114,83.8z M120.3,80.2h3.1c2.2,0,3.4,1.1,3.4,3.6v0.8
			c0,2.3-0.8,3.9-3.5,3.9h-0.8v5.8h-2.2V80.2z M122.5,86.7h0.6c1.3,0,1.6-0.8,1.6-2.2v-0.7c0-1-0.2-1.9-1.4-1.9h-0.8V86.7z
			 M130.5,94.3v-0.2c0-2.8,0.9-4.1,2.5-6.4c1.2-1.8,1.5-2.4,1.5-3.9c0-1.2-0.1-1.9-0.9-1.9c-0.7,0-1,0.5-1,1.5v0.7h-2.1v-0.8
			c0-1.6,0.5-3.3,3.1-3.3c2.4,0,3.1,1.6,3.1,3.6c0,2.3-0.6,3-1.8,4.9c-1,1.4-1.8,2.6-1.9,3.8h4.1l-0.3,1.9H130.5z M144.8,83.7v6.8
			c0,2.1-0.6,3.9-3.4,3.9c-2.5,0-3.2-1.8-3.2-3.8v-6.8c0-2.1,1-3.7,3.3-3.7C143.9,80.1,144.8,81.8,144.8,83.7z M140.4,83.6v7.3
			c0,0.9,0.3,1.6,1.1,1.6c0.8,0,1.1-0.6,1.1-1.6v-7.3c0-1-0.3-1.5-1.1-1.5C140.7,82,140.4,82.6,140.4,83.6z M149.4,80.2h2.9
			c2.4,0,3.4,1.1,3.4,3.2V84c0,2-0.7,2.6-1.3,2.8c0.6,0.2,1.6,0.8,1.6,2.8v1.1c0,2.4-1,3.6-3.4,3.6h-3.1V80.2z M152,86
			c1.2,0,1.6-0.4,1.6-1.8v-0.5c0-1.2-0.4-1.6-1.4-1.6h-0.7V86H152z M151.5,92.5h0.7c1.2,0,1.6-0.6,1.6-1.9v-0.9c0-1.4-0.3-2-1.7-2
			h-0.6V92.5z M157.4,80.2h2.2v12.1h3.5l-0.2,1.9h-5.5V80.2z M170.7,84v6.5c0,2.7-1.1,4-3.5,4c-2.3,0-3.3-1.3-3.3-3.9V84
			c0-2.7,1.4-3.9,3.4-3.9C169.4,80,170.7,81.3,170.7,84z M166.1,83.8v7.1c0,1.2,0.4,1.7,1.2,1.7c0.8,0,1.2-0.5,1.2-1.7v-7
			c0-1.1-0.3-1.7-1.2-1.7C166.5,82,166.1,82.6,166.1,83.8z M178.6,90.1v0.5c0,1.6-0.3,3.9-3.2,3.9c-2.6,0-3.1-1.6-3.1-3.8v-7.1
			c0-2.2,1-3.6,3.2-3.6c2.6,0,3.1,1.7,3.1,3.7v0.6h-2.2v-0.9c0-0.9-0.2-1.5-1-1.5c-0.7,0-1,0.5-1,1.5v7.4c0,0.9,0.2,1.6,1,1.6
			c0.8,0,1-0.6,1-1.7v-0.8H178.6z M180,80.2h2.1v6.3h0c0.5-1.4,1.7-4.4,2.5-6.3h2.4l-2.6,5.4l2.7,8.6h-2.4L183,88l-0.9,1.9v4.4H180
			V80.2z M194.1,90.1v0.5c0,1.6-0.3,3.9-3.2,3.9c-2.6,0-3.1-1.6-3.1-3.8v-7.1c0-2.2,1-3.6,3.2-3.6c2.6,0,3.1,1.7,3.1,3.7v0.6h-2.2
			v-0.9c0-0.9-0.2-1.5-1-1.5c-0.7,0-1,0.5-1,1.5v7.4c0,0.9,0.2,1.6,1,1.6c0.8,0,1-0.6,1-1.7v-0.8H194.1z M195.5,80.2h2.2v5.5h2.3
			v-5.5h2.2v14H200v-6.5h-2.3v6.5h-2.2V80.2z M206.1,90.5l-0.5,3.8h-2.2l2.3-14h3.1l2.3,14h-2.3l-0.6-3.8H206.1z M208,88.5
			c-0.3-2.4-0.6-4.6-0.8-6.2h-0.1c-0.1,1.2-0.5,4.2-0.8,6.2H208z M214.4,80.2v14h-2.2v-14H214.4z M216.4,94.3v-14h2.5
			c0.6,2,2.2,8.9,2.4,9.6h0c-0.1-1.7-0.1-3.7-0.1-6v-3.6h2v14h-2.4c-0.4-1.7-2.3-9.4-2.4-10h0c0.1,1.7,0.1,3.6,0.1,6.1v3.8H216.4z"
			/>
		<path class="st2" d="M58.2,112.1v0.5c0,1.6-0.3,3.9-3.2,3.9c-2.6,0-3.1-1.6-3.1-3.8v-7.1c0-2.2,1-3.6,3.2-3.6
			c2.6,0,3.1,1.7,3.1,3.7v0.6H56v-0.9c0-0.9-0.2-1.5-1-1.5c-0.7,0-1,0.5-1,1.5v7.4c0,0.9,0.2,1.6,1,1.6c0.8,0,1-0.6,1-1.7v-0.8H58.2
			z M66.3,106v6.5c0,2.7-1.1,4-3.5,4c-2.3,0-3.3-1.3-3.3-3.9V106c0-2.7,1.4-3.9,3.4-3.9C65.1,102,66.3,103.3,66.3,106z M61.7,105.8
			v7.1c0,1.2,0.4,1.7,1.2,1.7c0.8,0,1.2-0.5,1.2-1.7v-7c0-1.1-0.3-1.7-1.2-1.7C62.1,104,61.7,104.6,61.7,105.8z M68.1,116.3v-14h2.5
			c0.6,2,2.2,8.9,2.4,9.6h0c-0.1-1.7-0.1-3.7-0.1-6v-3.6h2v14h-2.4c-0.4-1.7-2.3-9.4-2.4-10h0c0.1,1.7,0.1,3.6,0.1,6.1v3.8H68.1z
			 M78.4,112.1v0.9c0,1,0.3,1.6,1.1,1.6c0.8,0,1.1-0.8,1.1-1.7c0-1.5-0.3-2-1.8-3.2c-1.5-1.2-2.3-2-2.3-4c0-1.8,0.6-3.7,3.1-3.7
			c2.6,0,3,1.8,3,3.4v0.7h-2.1v-0.7c0-1-0.2-1.6-0.9-1.6c-0.7,0-0.9,0.6-0.9,1.5c0,1,0.2,1.5,1.4,2.4c2.1,1.6,2.7,2.5,2.7,4.8
			c0,2-0.7,3.9-3.3,3.9c-2.6,0-3.2-1.7-3.2-3.5v-0.8H78.4z M86.4,102.2v10.7c0,1,0.3,1.6,1.2,1.6c0.9,0,1.1-0.7,1.1-1.6v-10.7h2.2
			v10.6c0,2.2-1,3.6-3.3,3.6c-2.2,0-3.3-1.2-3.3-3.6v-10.6H86.4z M92.8,102.2H95v12.1h3.5l-0.2,1.9h-5.5V102.2z M99.8,104.3h-2.3v-2
			h6.7v2h-2.3v12h-2.2V104.3z M107.4,102.2v14h-2.2v-14H107.4z M109.5,116.3v-14h2.5c0.6,2,2.2,8.9,2.4,9.6h0
			c-0.1-1.7-0.1-3.7-0.1-6v-3.6h2v14h-2.4c-0.4-1.7-2.3-9.4-2.4-10h0c0.1,1.7,0.1,3.6,0.1,6.1v3.8H109.5z M124.6,116.3H123
			c-0.1-0.2-0.1-0.8-0.1-1.1c-0.4,0.9-1.2,1.3-2.1,1.3c-2.1,0-2.7-1.5-2.7-3.9V106c0-2.3,0.9-4,3.3-4c2.9,0,3.3,2.2,3.3,3.7v0.5
			h-2.2v-0.6c0-0.7-0.1-1.6-1.1-1.6c-0.8,0-1.1,0.5-1.1,1.7v7.2c0,1.1,0.3,1.7,1.1,1.7c0.9,0,1.2-0.8,1.2-2.2v-2h-1.2v-1.9h3.4
			V116.3z M129.4,102.2h5.5v2h-3.3v3.7h3.1v2h-3.1v6.3h-2.2V102.2z M138.4,102.2v14h-2.2v-14H138.4z M142.6,110v6.3h-2.2v-14h3
			c2.1,0,3.4,0.9,3.4,3.4v0.5c0,2.2-0.9,2.7-1.4,2.9c0.8,0.4,1.3,1,1.3,2.9l0,0c0,1.2,0,3.5,0.1,4.3h-2.1c-0.2-0.8-0.1-3.2-0.1-4.2
			l0,0c0-1.7-0.2-2.1-1.5-2.1H142.6z M142.6,108.2h0.5c1.1,0,1.6-0.4,1.6-2v-0.5c0-1.1-0.2-1.7-1.5-1.7h-0.6V108.2z M155.6,111.1
			c0-2.4,0-5.4,0.1-7h0c-0.3,2.4-1.1,8.1-1.7,12.2h-2c-0.5-3.6-1.2-9.6-1.6-12.2h0c0,1.6,0.1,4.8,0.1,7.2v5h-2v-14h3.2
			c0.5,3.6,1.1,7.6,1.3,9.5h0c0.2-2,1-6.2,1.6-9.5h3.1v14h-2.1V111.1z M162,116.3v-0.2c0-2.8,0.9-4.1,2.5-6.4
			c1.2-1.8,1.5-2.4,1.5-3.9c0-1.2-0.1-1.9-0.9-1.9c-0.7,0-1,0.5-1,1.5v0.7h-2.1v-0.8c0-1.6,0.5-3.3,3.1-3.3c2.4,0,3.1,1.6,3.1,3.6
			c0,2.3-0.6,3-1.8,4.9c-1,1.4-1.8,2.6-1.9,3.8h4.1l-0.3,1.9H162z M176.3,105.7v6.8c0,2.1-0.6,3.9-3.4,3.9c-2.5,0-3.2-1.8-3.2-3.8
			v-6.8c0-2.1,1-3.7,3.3-3.7C175.4,102.1,176.3,103.8,176.3,105.7z M171.9,105.6v7.3c0,0.9,0.3,1.6,1.1,1.6c0.8,0,1.1-0.6,1.1-1.6
			v-7.3c0-1-0.3-1.5-1.1-1.5C172.1,104,171.9,104.6,171.9,105.6z M178.6,116.3v-11.5c-0.3,0.1-1,0.1-1.4,0v-1.6
			c0.9-0.1,1.5-0.5,1.9-1h1.6v14.1H178.6z M188.5,102.2v1.7c-1.8,3.5-2.9,7.6-3.4,12.3h-2.3c0.4-4.5,1.9-9.2,3.4-12h-3.9v-2H188.5z
			 M193,107.9v2h-3.8v-2H193z M193.7,116.3v-0.2c0-2.8,0.9-4.1,2.5-6.4c1.2-1.8,1.5-2.4,1.5-3.9c0-1.2-0.1-1.9-0.9-1.9
			c-0.7,0-1,0.5-1,1.5v0.7h-2.1v-0.8c0-1.6,0.5-3.3,3.1-3.3c2.4,0,3.1,1.6,3.1,3.6c0,2.3-0.6,3-1.8,4.9c-1,1.4-1.8,2.6-1.9,3.8h4.1
			l-0.3,1.9H193.7z M208,105.7v6.8c0,2.1-0.6,3.9-3.4,3.9c-2.5,0-3.2-1.8-3.2-3.8v-6.8c0-2.1,1-3.7,3.3-3.7
			C207.1,102.1,208,103.8,208,105.7z M203.6,105.6v7.3c0,0.9,0.3,1.6,1.1,1.6c0.8,0,1.1-0.6,1.1-1.6v-7.3c0-1-0.3-1.5-1.1-1.5
			C203.9,104,203.6,104.6,203.6,105.6z M209.2,116.3v-0.2c0-2.8,0.9-4.1,2.5-6.4c1.2-1.8,1.5-2.4,1.5-3.9c0-1.2-0.1-1.9-0.9-1.9
			c-0.7,0-1,0.5-1,1.5v0.7h-2.1v-0.8c0-1.6,0.5-3.3,3.1-3.3c2.4,0,3.1,1.6,3.1,3.6c0,2.3-0.6,3-1.8,4.9c-1,1.4-1.8,2.6-1.9,3.8h4.1
			l-0.3,1.9H209.2z M223.5,105.7v6.8c0,2.1-0.6,3.9-3.4,3.9c-2.5,0-3.2-1.8-3.2-3.8v-6.8c0-2.1,1-3.7,3.3-3.7
			C222.6,102.1,223.5,103.8,223.5,105.7z M219.1,105.6v7.3c0,0.9,0.3,1.6,1.1,1.6c0.8,0,1.1-0.6,1.1-1.6v-7.3c0-1-0.3-1.5-1.1-1.5
			C219.4,104,219.1,104.6,219.1,105.6z"/>
		<path class="st4" d="M223,53.1v-1.2h0.8c0.4,0,0.8,0.1,0.8,0.6c0,0.6-0.4,0.7-0.9,0.7H223z M223,53.6h0.7l1,1.7h0.7l-1.1-1.7
			c0.6-0.1,1-0.3,1-1.1s-0.4-1.1-1.3-1.1h-1.4v3.9h0.6V53.6z M223.7,56.7c1.8,0,3.3-1.4,3.3-3.3s-1.5-3.3-3.3-3.3
			c-1.8,0-3.3,1.4-3.3,3.3S221.9,56.7,223.7,56.7z M221,53.3c0-1.5,1.2-2.8,2.6-2.8s2.6,1.2,2.6,2.8s-1.2,2.8-2.6,2.8
			S221,54.9,221,53.3z"/>
		<path class="st4" d="M224.8,28.8l-0.6,5.7h-2.3c-3.9,0-5.7,3.1-5.7,5.8v13.1h-6.7V28.8h6.4l0.2,3.1c1.3-2.1,3.6-3.1,6.5-3.1H224.8
			z"/>
		<path class="st4" d="M178.1,53.6h-6.7V40.5c0-2.6-0.2-6.1-4.2-6.1c-3.6,0-5.2,2.6-5.2,5.7v13.4h-6.7V28.9h6.4v3.2
			c1.3-2.1,3.9-3.9,7.5-3.9c6.9,0,9,4.7,9,9.7L178.1,53.6z"/>
		<path class="st4" d="M152.4,47.7l-0.3,5.7c-1.8,0.3-3.1,0.6-4.8,0.6c-6.4,0-8.3-2.9-8.3-8.5V22.2h6.7V29h6.7l-0.3,5.7h-6.4V45
			c0,2.3,0.6,3.6,3.1,3.6C149.7,48.5,150.9,48.3,152.4,47.7"/>
		<path class="st4" d="M136.8,28.9l-0.6,5.7h-1.9c-3.6,0-5.6,3.1-5.6,5.8v13.1H122V28.9h6.4l0.2,3.1c1.3-2.1,3.6-3.1,6.5-3.1H136.8z
			"/>
		<path class="st4" d="M91.7,50.8c-4.6,2.4-9.3,3.9-15.2,3.9c-11.1-0.3-19.2-7.2-19.3-18.7c0-11.6,8-18.9,19.2-19.2
			c5.6,0,10.6,1.3,14.6,4.7l-4.8,4.7c-2.5-1.9-5.9-3.2-10.1-3c-7.2,0.2-11.3,5.2-11.3,12.2c-0.2,7.4,4.4,12.6,11.8,12.7
			c3.4,0.2,5.9-0.4,8-1.3v-7.6h-7.7l0.6-6.3h14.2L91.7,50.8z"/>
		<path class="st4" d="M199.6,38.4c-0.2-3.1-2.5-5.2-5.7-5c-3.3,0.2-5.6,2.3-5.9,5H199.6z M206.3,43.4h-18.4
			c0.6,3.2,3.1,5.1,6.2,5.1c3.1,0.2,4.8-0.8,6.9-3.1l4.4,3.4c-3.1,3.9-6.9,5.2-11.1,5.2c-7.5,0-13.1-5.1-13.1-12.9
			s5.5-12.9,12.9-12.9c7.9,0,12.3,4.7,12.3,13.2L206.3,43.4z"/>
		<path class="st4" d="M111.2,42.8h-1c-3.1,0-8.8,0.2-8.6,3.4c0,4.7,9.6,3.2,9.6-2.3V42.8z M117.8,37.5v16.1h-5.9l-0.2-2.4
			c-1.8,2.3-4.8,3.1-7.8,3.1c-4.4,0-8.8-2.3-8.8-7.4c-0.2-8.2,9.3-8.7,15.2-8.7h1.1v-0.3c0-2.6-1.8-4.2-5.2-4.2
			c-2.5,0-4.8,1-6.7,2.6l-3.9-4c3.4-2.9,7-3.9,11.1-3.9C114.3,28.3,117.7,32,117.8,37.5z"/>
	</g>
</g>
<g id="Layer_6">
</g>
<g id="Layer_7">
</g>
</svg>
