<svg width="166" height="70" viewBox="0 0 166 70" fill="none" xmlns="http://www.w3.org/2000/svg">
<path d="M57.6586 34.6783C57.6114 33.5156 57.7953 32.3552 58.1999 31.2638C58.6044 30.1724 59.2215 29.1718 60.0156 28.3196C60.8097 27.4675 61.765 26.7806 62.8265 26.2988C63.888 25.8169 65.0345 25.5495 66.2001 25.5121H66.5623C71.0671 25.5121 73.7258 28.1562 74.5119 31.2498L71.7119 32.184C71.4603 31.0312 70.8018 30.0071 69.8564 29.2984C68.9111 28.5897 67.742 28.2438 66.5623 28.3236C63.6474 28.3236 60.7237 30.4477 60.7237 34.7312C60.7237 39.0146 63.5767 41.0594 66.5976 41.0594C67.7831 41.0917 68.9453 40.7263 69.8981 40.0217C70.8509 39.317 71.5393 38.3138 71.8532 37.1726L74.6002 38.0539C74.1261 39.7948 73.0713 41.3224 71.6101 42.3847C70.1488 43.447 68.3683 43.9806 66.5623 43.8974C64.2421 43.9399 62 43.0613 60.3287 41.4549C58.6575 39.8485 57.6939 37.6456 57.6498 35.3305C57.641 35.119 57.6498 34.8986 57.6586 34.6783Z" fill="#375BD2"/>
<path d="M80.0502 43.492H77.153V25.4592H80.0502V32.5101C80.4707 32.0124 80.9997 31.617 81.5967 31.3543C82.1937 31.0916 82.843 30.9684 83.495 30.9942C86.4894 30.9942 87.9115 33.1359 87.9115 35.8065V43.492H85.1203V36.3176C85.2039 35.7061 85.0434 35.0862 84.6733 34.5916C84.3032 34.097 83.7531 33.7673 83.1417 33.6735C82.9684 33.6558 82.7938 33.6558 82.6206 33.6735C81.9506 33.6735 81.308 33.9391 80.8342 34.4118C80.3605 34.8846 80.0943 35.5257 80.0943 36.1943C80.0899 36.2676 80.0899 36.3412 80.0943 36.4146L80.0502 43.492Z" fill="#375BD2"/>
<path d="M94.4125 36.5468L97.5217 36.062C98.2283 35.9739 98.405 35.6126 98.405 35.1807C98.405 34.1583 97.716 33.3386 96.1084 33.3386C95.5013 33.2896 94.8993 33.4815 94.433 33.8725C93.9667 34.2635 93.6737 34.8223 93.6176 35.4275V35.5597L90.9677 34.9692C91.1885 32.8715 93.0964 31.003 96.0819 31.003C99.8271 31.003 101.249 33.1183 101.249 35.5861V41.6059C101.246 42.2581 101.296 42.9095 101.399 43.5537H98.7495C98.654 43.0424 98.6155 42.5222 98.6347 42.0025C98.2325 42.6201 97.675 43.1218 97.0178 43.4574C96.3607 43.793 95.6268 43.9508 94.8895 43.915C93.8824 43.998 92.8835 43.679 92.1118 43.028C91.3402 42.377 90.8588 41.4471 90.7733 40.4424C90.7733 40.3808 90.7733 40.3191 90.7733 40.2662C90.7292 38.0363 92.3279 36.8377 94.4125 36.5468ZM98.4227 38.4946V37.9394L95.2516 38.4153C94.8212 38.4289 94.4126 38.608 94.1114 38.9152C93.8102 39.2223 93.6396 39.6337 93.6352 40.0635C93.6386 40.2764 93.6845 40.4865 93.7701 40.6816C93.8558 40.8767 93.9795 41.0528 94.1341 41.1996C94.2887 41.3465 94.471 41.4612 94.6704 41.5369C94.8699 41.6127 95.0825 41.6482 95.2958 41.6411H95.4283C95.7899 41.6789 96.1553 41.6449 96.5037 41.5411C96.852 41.4373 97.1763 41.2658 97.4579 41.0364C97.7395 40.807 97.9729 40.5243 98.1445 40.2045C98.3162 39.8848 98.4227 39.5343 98.458 39.1733C98.4706 38.9461 98.4558 38.7183 98.4138 38.4946H98.4227Z" fill="#375BD2"/>
<path d="M106.178 25.2124C106.427 25.2089 106.674 25.2545 106.905 25.3467C107.137 25.4388 107.347 25.5756 107.526 25.7492C107.704 25.9228 107.846 26.1299 107.943 26.3584C108.041 26.5869 108.092 26.8325 108.095 27.0809C108.095 27.4528 107.984 27.8164 107.778 28.126C107.571 28.4356 107.278 28.6773 106.934 28.8208C106.59 28.9643 106.211 29.0032 105.845 28.9325C105.479 28.8618 105.143 28.6848 104.877 28.4237C104.612 28.1625 104.43 27.8289 104.354 27.4648C104.278 27.1007 104.312 26.7223 104.451 26.3773C104.59 26.0322 104.828 25.7358 105.135 25.5254C105.442 25.315 105.805 25.2 106.178 25.1948V25.2124ZM104.765 43.5449V31.3644H107.662V43.492L104.765 43.5449Z" fill="#375BD2"/>
<path d="M114.26 43.492H111.372V31.3644H114.189V32.9773C114.557 32.3579 115.084 31.8486 115.717 31.5028C116.35 31.157 117.064 30.9874 117.785 31.0118C120.752 31.0118 122.201 33.1535 122.201 35.8241V43.492H119.313V36.3176C119.313 34.8281 118.632 33.6207 116.813 33.6207C116.476 33.623 116.144 33.6914 115.834 33.822C115.524 33.9525 115.243 34.1428 115.007 34.3817C114.771 34.6207 114.584 34.9038 114.457 35.2148C114.331 35.5258 114.267 35.8586 114.269 36.1943C114.269 36.2912 114.269 36.3882 114.269 36.4851L114.26 43.492Z" fill="#375BD2"/>
<path d="M125.699 43.492V25.4592H128.596V43.492H125.699Z" fill="#375BD2"/>
<path d="M133.763 25.2124C134.136 25.2107 134.501 25.3195 134.812 25.5251C135.123 25.7307 135.365 26.0238 135.509 26.3672C135.652 26.7106 135.69 27.0888 135.618 27.4538C135.545 27.8188 135.366 28.1541 135.102 28.4172C134.839 28.6802 134.503 28.8592 134.137 28.9314C133.771 29.0035 133.392 28.9656 133.048 28.8224C132.704 28.6792 132.41 28.4373 132.204 28.1272C131.998 27.8171 131.889 27.453 131.891 27.0809C131.895 26.5868 132.094 26.1142 132.444 25.7648C132.794 25.4153 133.268 25.217 133.763 25.2124ZM132.341 43.5449V31.3644H135.212V43.492L132.341 43.5449Z" fill="#375BD2"/>
<path d="M141.854 43.492H138.957V31.3644H141.775V32.9773C142.143 32.3586 142.671 31.8498 143.303 31.5041C143.935 31.1583 144.649 30.9883 145.37 31.0118C148.338 31.0118 149.786 33.1535 149.786 35.8241V43.492H146.889V36.3176C146.973 35.7061 146.812 35.0862 146.442 34.5916C146.072 34.097 145.522 33.7673 144.91 33.6735C144.734 33.6559 144.557 33.6559 144.38 33.6735C143.706 33.6805 143.061 33.9529 142.586 34.4315C142.112 34.91 141.845 35.5562 141.845 36.2295C141.836 36.3321 141.836 36.4354 141.845 36.538L141.854 43.492Z" fill="#375BD2"/>
<path d="M159.67 36.4851L164.767 43.536H161.234L157.701 38.5387L156.208 40.1075V43.492H153.337V25.4592H156.208V36.2648L160.872 31.3644H164.714L159.67 36.4851Z" fill="#375BD2"/>
<path d="M23.3603 20.5764L35.8854 27.7507V42.1699L23.3957 49.3883L10.8794 42.2316V27.8213L23.3603 20.5764ZM23.3603 10L18.7672 12.6441L6.25976 19.8889L1.66663 22.5331V47.5375L6.25976 50.1816L18.7849 57.3559L23.378 60L27.9711 57.3559L40.4521 50.1287L45.0452 47.4846V22.4449L40.4521 19.8008L27.9358 12.6441L23.3427 10H23.3603Z" fill="#375BD2"/>
</svg>
