<svg width="213" height="70" viewBox="0 0 213 70" fill="none" xmlns="http://www.w3.org/2000/svg">
<g filter="url(#filter0_d_6721_2990)">
<path fill-rule="evenodd" clip-rule="evenodd" d="M14.6953 43.3769L27.725 34.91L14.6968 26.4417L14.6953 43.3769Z" fill="#8168A0"/>
<path fill-rule="evenodd" clip-rule="evenodd" d="M7.45258 23.3459L1.6665 34.8886L14.6948 26.4203L7.45258 23.3459Z" fill="#CAC8E9"/>
<path fill-rule="evenodd" clip-rule="evenodd" d="M21.9404 23.3462L14.6953 26.4205L27.7236 34.8889L21.9404 23.3462Z" fill="#CAA3C7"/>
<path fill-rule="evenodd" clip-rule="evenodd" d="M7.45264 23.3462L14.6948 26.4205L21.9399 23.3462H7.45264Z" fill="#E4D8EB"/>
<path fill-rule="evenodd" clip-rule="evenodd" d="M7.45215 46.4374H21.9395L14.6943 43.3616L7.45215 46.4374Z" fill="#793773"/>
<path fill-rule="evenodd" clip-rule="evenodd" d="M14.6953 43.3382L21.9404 46.414L27.725 34.8713L14.6953 43.3382Z" fill="#7D4476"/>
<path fill-rule="evenodd" clip-rule="evenodd" d="M7.45258 46.414L14.6962 43.3382L1.6665 34.8713L7.45258 46.414Z" fill="#88739F"/>
<path fill-rule="evenodd" clip-rule="evenodd" d="M1.6665 34.9085L14.6948 43.3754V26.4417L1.6665 34.9085Z" fill="#9B90C1"/>
</g>
<path fill-rule="evenodd" clip-rule="evenodd" d="M59.064 23.0289C53.2749 23.0289 48.9214 27.0995 48.9214 32.9298V47.2904H52.9419V32.7928C52.9419 29.2395 55.5888 26.8505 59.064 26.8505C62.5126 26.8505 65.1404 29.238 65.1404 32.7928V47.2904H69.1623V32.9298C69.1623 27.0995 64.8265 23.0289 59.064 23.0289ZM88.3274 37.2421C88.3274 40.7954 85.6997 43.183 82.251 43.183C78.7758 43.183 76.4399 40.7954 76.4399 37.2421V22.9243H72.4194V37.2407C72.4194 42.9766 76.5548 47.1401 82.251 47.1401C87.9487 47.1401 92.3936 42.9766 92.3936 37.2407V22.9243H88.3274V37.2407V37.2421ZM182.156 38.6201V27.6463H188.066V23.5079H182.156V18.5H177.911V38.6201C177.911 41.3245 178.679 43.5809 180.135 45.1416C181.562 46.6744 183.587 47.482 185.991 47.482L188.832 47.4864V43.4202H186.707C183.686 43.4202 182.156 41.805 182.156 38.6201ZM196.646 29.4856C196.646 27.6655 198.861 26.2079 201.937 26.2079C204.784 26.2079 206.999 27.4827 207.542 29.9867H211.43C210.933 25.3885 207.316 22.6575 201.936 22.6575C195.697 22.6575 192.804 26.2536 192.804 29.6227C192.804 34.0381 196.239 35.4043 201.891 36.2237C207.588 36.9975 208.22 38.2266 208.22 39.864C208.22 41.9126 206.005 43.6885 202.388 43.6885C199.043 43.6885 196.375 42.0039 195.878 39.273H191.99C192.624 44.2352 196.736 47.286 202.388 47.286C207.949 47.286 211.928 44.3266 211.928 39.637C211.928 34.3108 207.677 33.3101 202.525 32.4906C197.958 31.7626 196.646 31.1701 196.646 29.4856ZM134.76 42.8779C130.428 42.8779 126.917 39.3408 126.917 34.9784C126.917 30.616 130.428 27.0804 134.76 27.0804C138.784 27.0804 142.097 30.1311 142.549 34.0602L142.558 35.8376C142.132 39.7962 138.803 42.8779 134.76 42.8779ZM134.762 22.9331C128.152 22.9331 122.796 28.3272 122.796 34.9784C122.796 41.6325 128.152 47.0266 134.76 47.0266C137.758 47.0266 140.494 45.9139 142.594 44.079L142.604 46.4518C142.604 50.8142 139.092 54.3513 134.76 54.3513C133.318 54.3498 131.904 53.9503 130.674 53.1967C129.444 52.4431 128.446 51.3647 127.789 50.0803L123.356 50.1053C124.892 54.9732 129.418 58.5 134.76 58.5C141.367 58.5 146.725 53.1059 146.725 46.4533V34.0602H146.686C146.219 27.8364 141.062 22.9331 134.762 22.9331ZM107.665 42.8779C103.332 42.8779 99.8215 39.3408 99.8215 34.9784C99.8215 30.616 103.334 27.0804 107.665 27.0804C111.688 27.0804 115.001 30.1311 115.454 34.0602L115.461 35.8376C115.037 39.7962 111.709 42.8779 107.665 42.8779ZM107.665 22.9331C101.058 22.9331 95.7008 28.3272 95.7008 34.9784C95.7008 41.6325 101.058 47.0266 107.665 47.0266C110.663 47.0266 113.398 45.9139 115.498 44.079L115.508 46.4518C115.508 50.8142 111.996 54.3513 107.665 54.3513C106.222 54.3498 104.808 53.9503 103.578 53.1967C102.348 52.4431 101.35 51.3647 100.694 50.0803L96.2608 50.1053C97.7965 54.9732 102.322 58.5 107.665 58.5C114.272 58.5 119.629 53.1059 119.629 46.4533V34.0602H119.591C119.124 27.8364 113.965 22.9331 107.665 22.9331ZM154.788 32.5776C155.819 29.4281 158.767 27.1526 162.241 27.1526C165.697 27.1526 168.646 29.4443 169.692 32.5688L154.788 32.5776ZM162.211 23.0039C155.604 23.0039 150.247 28.3979 150.247 35.0506C150.247 41.7033 155.604 47.0973 162.211 47.0973C167.322 47.0973 171.685 43.8697 173.397 39.3305L168.836 39.3275C168.129 40.4366 167.155 41.3498 166.002 41.9827C164.849 42.6156 163.556 42.9478 162.241 42.9486C158.202 42.9486 154.879 39.8787 154.444 35.9305L174.144 35.9201C174.164 35.6307 174.174 35.3407 174.174 35.0506C174.174 28.3979 168.818 23.0039 162.211 23.0039Z" fill="#8764A0"/>
<defs>
<filter id="filter0_d_6721_2990" x="1.6665" y="23.3459" width="28.0586" height="25.0913" filterUnits="userSpaceOnUse" color-interpolation-filters="sRGB">
<feFlood flood-opacity="0" result="BackgroundImageFix"/>
<feColorMatrix in="SourceAlpha" type="matrix" values="0 0 0 0 0 0 0 0 0 0 0 0 0 0 0 0 0 0 127 0" result="hardAlpha"/>
<feOffset dx="1" dy="1"/>
<feGaussianBlur stdDeviation="0.5"/>
<feColorMatrix type="matrix" values="0 0 0 0 0 0 0 0 0 0 0 0 0 0 0 0 0 0 0.5 0"/>
<feBlend mode="normal" in2="BackgroundImageFix" result="effect1_dropShadow_6721_2990"/>
<feBlend mode="normal" in="SourceGraphic" in2="effect1_dropShadow_6721_2990" result="shape"/>
</filter>
</defs>
</svg>
