<?xml version="1.0" encoding="UTF-8"?>
<svg width="392px" height="383px" viewBox="0 0 392 383" version="1.1" xmlns="http://www.w3.org/2000/svg" xmlns:xlink="http://www.w3.org/1999/xlink">
    <title>Problems icon</title>
    <defs>
        <polygon id="path-1" points="0.819728571 0.237723364 30.5877 0.237723364 30.5877 93.3824112 0.819728571 93.3824112"></polygon>
        <polygon id="path-3" points="0 382 390.587817 382 390.587817 0.239963048 0 0.239963048"></polygon>
    </defs>
    <g id="Desktop" stroke="none" stroke-width="1" fill="none" fill-rule="evenodd">
        <g id="6-About" transform="translate(-209.000000, -718.000000)">
            <g id="Group-122" transform="translate(210.000000, 718.000000)">
                <g id="Group-13" transform="translate(86.000000, 74.000000)">
                    <path d="M16.2847125,61.2306391 C15.9201109,61.2306391 15.5510953,61.1405922 15.2103297,60.9507875 C14.1465406,60.3566547 13.7651656,59.0112484 14.3601813,57.9474594 C34.3135094,22.2209203 72.0466812,0.02613125 112.833502,0.02613125 C143.814923,0.02613125 173.775814,13.0273109 195.033939,35.6979359 C195.867314,36.5869281 195.823173,37.9835375 194.933298,38.8169125 C194.043423,39.6520531 192.646814,39.6061469 191.814322,38.7171547 C171.386923,16.9337562 142.600173,4.44019375 112.833502,4.44019375 C73.6445719,4.44019375 37.3883453,25.7671781 18.2136578,60.0997562 C17.8102125,60.8236625 17.0580563,61.2306391 16.2847125,61.2306391" id="Fill-1" fill="#64f0ff"></path>
                    <path d="M16.2847125,61.2306391 C15.9201109,61.2306391 15.5510953,61.1405922 15.2103297,60.9507875 C14.1465406,60.3566547 13.7651656,59.0112484 14.3601813,57.9474594 C34.3135094,22.2209203 72.0466812,0.02613125 112.833502,0.02613125 C143.814923,0.02613125 173.775814,13.0273109 195.033939,35.6979359 C195.867314,36.5869281 195.823173,37.9835375 194.933298,38.8169125 C194.043423,39.6520531 192.646814,39.6061469 191.814322,38.7171547 C171.386923,16.9337562 142.600173,4.44019375 112.833502,4.44019375 C73.6445719,4.44019375 37.3883453,25.7671781 18.2136578,60.0997562 C17.8102125,60.8236625 17.0580563,61.2306391 16.2847125,61.2306391 Z" id="Stroke-3" stroke="#64f0ff" stroke-width="2"></path>
                    <path d="M112.833678,225.437295 C50.6872094,225.437295 0.127654687,174.878623 0.127654687,112.732155 C0.127654687,106.712256 0.6087875,100.668522 1.55781094,94.7695688 C1.75114687,93.5671781 2.88202969,92.7382172 4.08706875,92.9421469 C5.291225,93.1354828 6.10959219,94.2681313 5.91625625,95.4714047 C5.00431094,101.138178 4.54171719,106.945319 4.54171719,112.732155 C4.54171719,172.444709 53.1211234,221.023233 112.833678,221.023233 C172.546233,221.023233 221.125639,172.444709 221.125639,112.732155 C221.125639,94.8322484 216.645366,77.0833031 208.171248,61.4045531 C207.591241,60.3328187 207.991155,58.9935922 209.062889,58.4144672 C210.135506,57.8353422 211.474733,58.2334906 212.053858,59.3061078 C220.875803,75.6275453 225.539702,94.1012797 225.539702,112.732155 C225.539702,174.878623 174.980147,225.437295 112.833678,225.437295" id="Fill-5" fill="#64f0ff"></path>
                    <path d="M112.833678,225.437295 C50.6872094,225.437295 0.127654687,174.878623 0.127654687,112.732155 C0.127654687,106.712256 0.6087875,100.668522 1.55781094,94.7695688 C1.75114687,93.5671781 2.88202969,92.7382172 4.08706875,92.9421469 C5.291225,93.1354828 6.10959219,94.2681313 5.91625625,95.4714047 C5.00431094,101.138178 4.54171719,106.945319 4.54171719,112.732155 C4.54171719,172.444709 53.1211234,221.023233 112.833678,221.023233 C172.546233,221.023233 221.125639,172.444709 221.125639,112.732155 C221.125639,94.8322484 216.645366,77.0833031 208.171248,61.4045531 C207.591241,60.3328187 207.991155,58.9935922 209.062889,58.4144672 C210.135506,57.8353422 211.474733,58.2334906 212.053858,59.3061078 C220.875803,75.6275453 225.539702,94.1012797 225.539702,112.732155 C225.539702,174.878623 174.980147,225.437295 112.833678,225.437295 Z" id="Stroke-7" stroke="#64f0ff" stroke-width="2"></path>
                    <path d="M178.201441,118.863023 C178.201441,120.00803 177.263012,120.943812 176.121535,120.943812 L166.550965,120.943812 L166.068949,122.997234 C164.690879,128.952687 162.350543,134.607984 159.111504,139.810398 L157.99298,141.604273 L164.753559,148.364851 C165.57634,149.169976 165.57634,150.485366 164.753559,151.303734 L152.636957,163.423866 C151.81859,164.228991 150.503199,164.242234 149.698074,163.423866 L142.937496,156.659757 L141.143621,157.77828 C135.941207,161.01732 130.28591,163.356773 124.33134,164.734843 L122.277035,165.217741 L122.277035,174.787429 C122.277035,175.932437 121.341254,176.868218 120.196246,176.868218 L103.044082,176.868218 C101.902605,176.868218 100.963293,175.932437 100.963293,174.787429 L100.963293,165.217741 L98.9098711,164.734843 C92.954418,163.356773 87.3000039,161.01732 82.1099492,157.77828 L80.3160742,156.659757 L73.5554961,163.423866 C72.7371289,164.242234 71.4217383,164.228991 70.6033711,163.423866 L58.4867695,151.303734 C57.6807617,150.485366 57.6807617,149.169976 58.4867695,148.364851 L65.2473477,141.604273 L64.1288242,139.810398 C60.8897852,134.607984 58.550332,128.952687 57.1722617,122.997234 L56.6928945,120.943812 L47.1223242,120.943812 C45.9781992,120.943812 45.0556602,120.00803 45.0556602,118.863023 L45.0556602,101.713507 C45.0556602,100.568499 45.9781992,99.6336008 47.1223242,99.6336008 L56.6928945,99.6336008 L57.1722617,97.5766477 C58.5635742,91.6211945 60.8897852,85.9658977 64.1288242,80.780257 L65.2473477,78.986382 L58.4867695,72.2222727 C57.6807617,71.4030227 57.6807617,70.0920461 58.4867695,69.2727961 L70.6033711,57.1535461 C71.4217383,56.3475383 72.7371289,56.3342961 73.5554961,57.1535461 L80.3160742,63.9141242 L82.1099492,62.7956008 C87.3000039,59.560093 92.954418,57.2162258 98.9098711,55.8381555 L100.963293,55.3596711 L100.963293,45.7891008 C100.963293,44.644093 101.902605,43.7224367 103.044082,43.7224367 L120.196246,43.7224367 C121.341254,43.7224367 122.277035,44.644093 122.277035,45.7891008 L122.277035,55.3596711 L124.33134,55.8381555 C130.28591,57.2303508 135.941207,59.560093 141.143621,62.7956008 L142.937496,63.9141242 L149.698074,57.1535461 C150.503199,56.3342961 151.831832,56.3475383 152.636957,57.1535461 L164.753559,69.2727961 C165.57634,70.0920461 165.57634,71.4030227 164.753559,72.2222727 L157.99298,78.986382 L159.111504,80.780257 C162.350543,85.9658977 164.690879,91.6211945 166.068949,97.5766477 L166.550965,99.6336008 L176.121535,99.6336008 C177.263012,99.6336008 178.201441,100.568499 178.201441,101.713507 L178.201441,118.863023 Z M176.121535,94.3146555 L170.748738,94.3146555 C169.370668,89.2181789 167.356973,84.3415227 164.730605,79.7782648 L168.524934,75.9804055 C169.916246,74.589093 170.685176,72.7184133 170.685176,70.7541555 C170.685176,68.7634133 169.916246,66.9059758 168.524934,65.5146633 L156.39509,53.3821711 C153.599223,50.5863039 148.722566,50.5863039 145.926699,53.3821711 L142.132371,57.1800305 C137.554988,54.5536633 132.692457,52.5364367 127.592449,51.1716086 L127.592449,45.7891008 C127.592449,41.7052102 124.277488,38.3893664 120.196246,38.3893664 L103.044082,38.3893664 C98.9628398,38.3893664 95.6478789,41.7052102 95.6478789,45.7891008 L95.6478789,51.1716086 C90.5514023,52.5364367 85.6888711,54.5536633 81.1114883,57.1800305 L77.3136289,53.3821711 C74.5177617,50.5863039 69.6411055,50.5863039 66.8452383,53.3821711 L54.7153945,65.5146633 C53.324082,66.9059758 52.5551523,68.7766555 52.5551523,70.7541555 C52.5551523,72.7316555 53.324082,74.589093 54.7153945,75.9804055 L58.5132539,79.7782648 C55.8842383,84.3415227 53.870543,89.2181789 52.5057148,94.3146555 L47.1223242,94.3146555 C43.0384336,94.3146555 39.7234727,97.6296164 39.7234727,101.713507 L39.7234727,118.863023 C39.7234727,122.946913 43.0384336,126.262757 47.1223242,126.262757 L52.5057148,126.262757 C53.870543,131.358351 55.8842383,136.221765 58.5132539,140.799148 L54.7153945,144.593476 C53.324082,145.99803 52.5551523,147.858999 52.5551523,149.836499 C52.5551523,151.809585 53.324082,153.670554 54.7153945,155.075109 L66.8452383,167.195241 C69.6411055,169.987577 74.5177617,169.987577 77.3136289,167.195241 L81.1114883,163.396499 C85.6888711,166.023749 90.5619961,168.037445 95.6478789,169.415515 L95.6478789,174.787429 C95.6478789,178.868671 98.9628398,182.183632 103.044082,182.183632 L120.196246,182.183632 C124.277488,182.183632 127.592449,178.868671 127.592449,174.787429 L127.592449,169.415515 C132.692457,168.037445 137.554988,166.023749 142.132371,163.396499 L145.926699,167.195241 C148.722566,169.987577 153.599223,169.987577 156.408332,167.195241 L168.524934,155.075109 C169.916246,153.670554 170.698418,151.809585 170.698418,149.836499 C170.698418,147.858999 169.916246,145.99803 168.524934,144.593476 L164.730605,140.799148 C167.356973,136.221765 169.370668,131.358351 170.748738,126.262757 L176.121535,126.262757 C180.201895,126.262757 183.516855,122.946913 183.516855,118.863023 L183.516855,101.713507 C183.516855,97.6296164 180.201895,94.3146555 176.121535,94.3146555 Z" id="Fill-9" fill="#007bff"></path>
                    <path d="M178.201441,118.863023 C178.201441,120.00803 177.263012,120.943812 176.121535,120.943812 L166.550965,120.943812 L166.068949,122.997234 C164.690879,128.952687 162.350543,134.607984 159.111504,139.810398 L157.99298,141.604273 L164.753559,148.364851 C165.57634,149.169976 165.57634,150.485366 164.753559,151.303734 L152.636957,163.423866 C151.81859,164.228991 150.503199,164.242234 149.698074,163.423866 L142.937496,156.659757 L141.143621,157.77828 C135.941207,161.01732 130.28591,163.356773 124.33134,164.734843 L122.277035,165.217741 L122.277035,174.787429 C122.277035,175.932437 121.341254,176.868218 120.196246,176.868218 L103.044082,176.868218 C101.902605,176.868218 100.963293,175.932437 100.963293,174.787429 L100.963293,165.217741 L98.9098711,164.734843 C92.954418,163.356773 87.3000039,161.01732 82.1099492,157.77828 L80.3160742,156.659757 L73.5554961,163.423866 C72.7371289,164.242234 71.4217383,164.228991 70.6033711,163.423866 L58.4867695,151.303734 C57.6807617,150.485366 57.6807617,149.169976 58.4867695,148.364851 L65.2473477,141.604273 L64.1288242,139.810398 C60.8897852,134.607984 58.550332,128.952687 57.1722617,122.997234 L56.6928945,120.943812 L47.1223242,120.943812 C45.9781992,120.943812 45.0556602,120.00803 45.0556602,118.863023 L45.0556602,101.713507 C45.0556602,100.568499 45.9781992,99.6336008 47.1223242,99.6336008 L56.6928945,99.6336008 L57.1722617,97.5766477 C58.5635742,91.6211945 60.8897852,85.9658977 64.1288242,80.780257 L65.2473477,78.986382 L58.4867695,72.2222727 C57.6807617,71.4030227 57.6807617,70.0920461 58.4867695,69.2727961 L70.6033711,57.1535461 C71.4217383,56.3475383 72.7371289,56.3342961 73.5554961,57.1535461 L80.3160742,63.9141242 L82.1099492,62.7956008 C87.3000039,59.560093 92.954418,57.2162258 98.9098711,55.8381555 L100.963293,55.3596711 L100.963293,45.7891008 C100.963293,44.644093 101.902605,43.7224367 103.044082,43.7224367 L120.196246,43.7224367 C121.341254,43.7224367 122.277035,44.644093 122.277035,45.7891008 L122.277035,55.3596711 L124.33134,55.8381555 C130.28591,57.2303508 135.941207,59.560093 141.143621,62.7956008 L142.937496,63.9141242 L149.698074,57.1535461 C150.503199,56.3342961 151.831832,56.3475383 152.636957,57.1535461 L164.753559,69.2727961 C165.57634,70.0920461 165.57634,71.4030227 164.753559,72.2222727 L157.99298,78.986382 L159.111504,80.780257 C162.350543,85.9658977 164.690879,91.6211945 166.068949,97.5766477 L166.550965,99.6336008 L176.121535,99.6336008 C177.263012,99.6336008 178.201441,100.568499 178.201441,101.713507 L178.201441,118.863023 Z M176.121535,94.3146555 L170.748738,94.3146555 C169.370668,89.2181789 167.356973,84.3415227 164.730605,79.7782648 L168.524934,75.9804055 C169.916246,74.589093 170.685176,72.7184133 170.685176,70.7541555 C170.685176,68.7634133 169.916246,66.9059758 168.524934,65.5146633 L156.39509,53.3821711 C153.599223,50.5863039 148.722566,50.5863039 145.926699,53.3821711 L142.132371,57.1800305 C137.554988,54.5536633 132.692457,52.5364367 127.592449,51.1716086 L127.592449,45.7891008 C127.592449,41.7052102 124.277488,38.3893664 120.196246,38.3893664 L103.044082,38.3893664 C98.9628398,38.3893664 95.6478789,41.7052102 95.6478789,45.7891008 L95.6478789,51.1716086 C90.5514023,52.5364367 85.6888711,54.5536633 81.1114883,57.1800305 L77.3136289,53.3821711 C74.5177617,50.5863039 69.6411055,50.5863039 66.8452383,53.3821711 L54.7153945,65.5146633 C53.324082,66.9059758 52.5551523,68.7766555 52.5551523,70.7541555 C52.5551523,72.7316555 53.324082,74.589093 54.7153945,75.9804055 L58.5132539,79.7782648 C55.8842383,84.3415227 53.870543,89.2181789 52.5057148,94.3146555 L47.1223242,94.3146555 C43.0384336,94.3146555 39.7234727,97.6296164 39.7234727,101.713507 L39.7234727,118.863023 C39.7234727,122.946913 43.0384336,126.262757 47.1223242,126.262757 L52.5057148,126.262757 C53.870543,131.358351 55.8842383,136.221765 58.5132539,140.799148 L54.7153945,144.593476 C53.324082,145.99803 52.5551523,147.858999 52.5551523,149.836499 C52.5551523,151.809585 53.324082,153.670554 54.7153945,155.075109 L66.8452383,167.195241 C69.6411055,169.987577 74.5177617,169.987577 77.3136289,167.195241 L81.1114883,163.396499 C85.6888711,166.023749 90.5619961,168.037445 95.6478789,169.415515 L95.6478789,174.787429 C95.6478789,178.868671 98.9628398,182.183632 103.044082,182.183632 L120.196246,182.183632 C124.277488,182.183632 127.592449,178.868671 127.592449,174.787429 L127.592449,169.415515 C132.692457,168.037445 137.554988,166.023749 142.132371,163.396499 L145.926699,167.195241 C148.722566,169.987577 153.599223,169.987577 156.408332,167.195241 L168.524934,155.075109 C169.916246,153.670554 170.698418,151.809585 170.698418,149.836499 C170.698418,147.858999 169.916246,145.99803 168.524934,144.593476 L164.730605,140.799148 C167.356973,136.221765 169.370668,131.358351 170.748738,126.262757 L176.121535,126.262757 C180.201895,126.262757 183.516855,122.946913 183.516855,118.863023 L183.516855,101.713507 C183.516855,97.6296164 180.201895,94.3146555 176.121535,94.3146555 Z" id="Stroke-11" stroke="#007bff"></path>
                </g>
                <g id="Group-16" transform="translate(183.000000, 160.000000)">
                    <mask id="mask-2" fill="white">
                        <use xlink:href="#path-1"></use>
                    </mask>
                    <g id="Clip-15"></g>
                    <path d="M21.1309286,54.9597794 L21.1761,33.2572 L23.1299857,33.2580785 L30.5877,23.2589383 L23.1981857,0.271106542 L8.30844286,0.237723364 L0.819728571,23.1965645 L8.24555714,33.2290879 L10.1755286,33.2317234 L10.1365571,54.9685645 C6.93824286,56.4295178 4.76381429,59.0992935 4.75761429,62.1925084 L4.68764286,93.3820598 C4.68144286,98.0425271 9.53692857,101.827125 15.5367571,101.843817 C21.5321571,101.856994 26.4071286,98.0864523 26.4204143,93.4277421 L26.4850714,62.2390692 C26.4957,59.1361907 24.3398714,56.4295178 21.1309286,54.9597794" id="Fill-14" fill="#007bff" mask="url(#mask-2)"></path>
                </g>
                <g id="Group-121">
                    <path d="M181.200609,40.0747995 C187.157402,39.3478527 193.222756,38.9737926 199.37549,38.9737926 C276.74318,38.9737926 340.284652,98.1387995 347.185846,173.67158" id="Stroke-17" stroke="#007bff" stroke-width="3"></path>
                    <path d="M345.878777,211.315607 C334.411797,281.853274 273.184551,335.702041 199.375578,335.702041 C180.411637,335.702041 162.279122,332.147588 145.607341,325.668586" id="Stroke-19" stroke="#007bff" stroke-width="3"></path>
                    <path d="M112.217177,307.443216 C75.0862984,280.475604 50.9440343,236.724694 50.9440343,187.338182 C50.9440343,128.633692 85.0545919,77.8920938 134.544777,53.8357982" id="Stroke-21" stroke="#007bff" stroke-width="3"></path>
                    <path d="M44.4003007,82.9251423 C48.6192172,76.6711053 53.2626731,70.6040984 58.3341991,64.7620568 C122.098973,-8.69133811 230.693707,-20.2554397 308.158486,35.4459829" id="Stroke-23" stroke="#007bff" stroke-width="0.5"></path>
                    <path d="M342.853778,67.7132494 C400.432279,136.737032 401.141022,239.248012 340.308306,309.323397 C324.678015,327.327684 306.355737,341.614307 286.457986,352.102104" id="Stroke-25" stroke="#007bff" stroke-width="0.5"></path>
                    <path d="M241.619024,368.782535 C185.389164,381.809353 123.915667,368.670494 76.984193,327.965879 C21.1991727,279.581565 1.09400564,205.376521 19.0244007,138.56181" id="Stroke-27" stroke="#007bff" stroke-width="0.5"></path>
                    <path d="M65.3832318,209.059248 C65.3832318,226.375406 51.3390061,240.413244 34.0158526,240.413244 C16.6918165,240.413244 2.64759074,226.375406 2.64759074,209.059248 C2.64759074,191.743091 16.6918165,177.706135 34.0158526,177.706135 C51.3390061,177.706135 65.3832318,191.743091 65.3832318,209.059248" id="Fill-29" fill="#007bff"></path>
                    <path d="M65.3832318,209.059248 C65.3832318,226.375406 51.3390061,240.413244 34.0158526,240.413244 C16.6918165,240.413244 2.64759074,226.375406 2.64759074,209.059248 C2.64759074,191.743091 16.6918165,177.706135 34.0158526,177.706135 C51.3390061,177.706135 65.3832318,191.743091 65.3832318,209.059248 Z" id="Stroke-31" stroke="#ffffff" stroke-width="6"></path>
                    <path d="M32.3164589,194.764685 C30.7277456,194.764685 29.4347095,196.057133 29.4347095,197.646006 L29.4347095,203.501281 C29.4347095,205.090154 30.7277456,206.382602 32.3164589,206.382602 L35.5080074,206.382602 C37.0976034,206.382602 38.3906395,205.090154 38.3906395,203.501281 L38.3906395,197.646006 C38.3906395,196.057133 37.0976034,194.764685 35.5080074,194.764685 L32.3164589,194.764685 Z M35.5080074,208.718713 L32.3164589,208.718713 C29.4391226,208.718713 27.096653,206.378191 27.096653,203.501281 L27.096653,197.646006 C27.096653,194.769096 29.4391226,192.428574 32.3164589,192.428574 L35.5080074,192.428574 C38.3862264,192.428574 40.7278133,194.769096 40.7278133,197.646006 L40.7278133,203.501281 C40.7278133,206.378191 38.3862264,208.718713 35.5080074,208.718713 Z" id="Fill-33" fill="#ffffff"></path>
                    <path d="M26.969909,219.371484 C26.3247149,219.371484 25.8013221,219.894639 25.8013221,220.539539 L25.8013221,225.835489 L28.1384959,225.835489 L28.1384959,220.539539 C28.1384959,219.894639 27.6151032,219.371484 26.969909,219.371484" id="Fill-35" fill="#ffffff"></path>
                    <path d="M39.4739655,219.371484 C38.8287713,219.371484 38.3053786,219.894639 38.3053786,220.539539 L38.3053786,225.835489 L40.6425524,225.835489 L40.6425524,220.539539 C40.6425524,219.894639 40.1191596,219.371484 39.4739655,219.371484" id="Fill-37" fill="#ffffff"></path>
                    <path d="M46.3012844,221.446459 C46.3012844,215.146546 41.1732709,210.021747 34.8704921,210.021747 L32.3038375,210.021747 C26.0010587,210.021747 20.8730451,215.146546 20.8730451,221.446459 L20.8730451,225.000029 C20.8730451,225.279692 20.8906975,225.55759 20.9109977,225.835489 L23.2499368,225.835489 C23.2243409,225.558473 23.210219,225.279692 23.210219,225.000029 L23.210219,221.446459 C23.210219,216.434583 27.2887991,212.357858 32.3038375,212.357858 L34.8704921,212.357858 C39.8846479,212.357858 43.9641106,216.434583 43.9641106,221.446459 L43.9641106,225.000029 C43.9641106,225.279692 43.9499887,225.558473 43.9243928,225.835489 L46.2633318,225.835489 C46.2836321,225.55759 46.3012844,225.279692 46.3012844,225.000029 L46.3012844,221.446459 Z" id="Fill-39" fill="#ffffff"></path>
                    <path d="M104.46964,72.3372139 C104.46964,89.6533709 90.4254138,103.690327 73.1013777,103.690327 C55.7782242,103.690327 41.7339984,89.6533709 41.7339984,72.3372139 C41.7339984,55.0210568 55.7782242,40.9841007 73.1013777,40.9841007 C90.4254138,40.9841007 104.46964,55.0210568 104.46964,72.3372139" id="Fill-41" fill="#007bff"></path>
                    <path d="M104.46964,72.3372139 C104.46964,89.6533709 90.4254138,103.690327 73.1013777,103.690327 C55.7782242,103.690327 41.7339984,89.6533709 41.7339984,72.3372139 C41.7339984,55.0210568 55.7782242,40.9841007 73.1013777,40.9841007 C90.4254138,40.9841007 104.46964,55.0210568 104.46964,72.3372139 Z" id="Stroke-43" stroke="#ffffff" stroke-width="6"></path>
                    <path d="M191.014533,347.999794 C191.014533,365.315952 176.970307,379.35379 159.646271,379.35379 C142.323117,379.35379 128.278892,365.315952 128.278892,347.999794 C128.278892,330.683637 142.323117,316.646681 159.646271,316.646681 C176.970307,316.646681 191.014533,330.683637 191.014533,347.999794" id="Fill-45" fill="#007bff"></path>
                    <path d="M191.014533,347.999794 C191.014533,365.315952 176.970307,379.35379 159.646271,379.35379 C142.323117,379.35379 128.278892,365.315952 128.278892,347.999794 C128.278892,330.683637 142.323117,316.646681 159.646271,316.646681 C176.970307,316.646681 191.014533,330.683637 191.014533,347.999794 Z" id="Stroke-47" stroke="#ffffff" stroke-width="6"></path>
                    <path d="M332.07277,327.074046 C332.07277,344.390203 318.029426,358.427159 300.70539,358.427159 C283.381354,358.427159 269.337128,344.390203 269.337128,327.074046 C269.337128,309.757889 283.381354,295.720933 300.70539,295.720933 C318.029426,295.720933 332.07277,309.757889 332.07277,327.074046" id="Fill-49" fill="#007bff"></path>
                    <path d="M332.07277,327.074046 C332.07277,344.390203 318.029426,358.427159 300.70539,358.427159 C283.381354,358.427159 269.337128,344.390203 269.337128,327.074046 C269.337128,309.757889 283.381354,295.720933 300.70539,295.720933 C318.029426,295.720933 332.07277,309.757889 332.07277,327.074046 Z" id="Stroke-51" stroke="#ffffff" stroke-width="6"></path>
                    <path d="M291.134452,317.401771 C290.957045,317.401771 290.780522,317.337369 290.640185,317.206801 C290.347156,316.934196 290.331269,316.475443 290.604881,316.182547 C290.694908,316.087267 292.843201,313.814676 296.363084,312.560164 C299.630537,311.395637 304.721481,310.929826 310.422314,315.325032 C310.739174,315.568524 310.798309,316.023748 310.552942,316.340464 C310.309339,316.658062 309.853908,316.716288 309.537048,316.471914 C305.376384,313.264173 301.108041,312.406658 296.850289,313.924953 C293.658741,315.062131 291.684323,317.150339 291.664905,317.171512 C291.521921,317.324136 291.328628,317.401771 291.134452,317.401771" id="Fill-53" fill="#ffffff"></path>
                    <path d="M290.516001,322.928155 C290.406556,322.928155 290.296229,322.903453 290.19208,322.851402 C289.834619,322.672312 289.688987,322.237379 289.868159,321.880081 C289.902581,321.811268 290.722534,320.18446 292.176206,318.529421 C294.156802,316.273592 296.371292,315.059661 298.581369,315.019079 C298.586665,315.019079 298.590195,315.019079 298.595491,315.019079 C298.989139,315.019079 299.312177,315.33403 299.320121,315.730146 C299.327181,316.12979 299.008556,316.459739 298.607847,316.467679 C294.21682,316.548843 291.194735,322.46852 291.164726,322.528511 C291.037628,322.781707 290.781669,322.928155 290.516001,322.928155" id="Fill-55" fill="#ffffff"></path>
                    <path d="M312.192758,329.658501 C312.153041,329.658501 312.11244,329.654972 312.070957,329.647915 C311.677309,329.581748 311.410758,329.20857 311.476955,328.813337 C311.489312,328.740113 312.26072,323.802344 309.470763,320.172021 C307.755835,317.941776 305.038253,316.633448 301.391273,316.281443 C300.993212,316.243508 300.701065,315.889739 300.739901,315.490977 C300.777853,315.093097 301.131783,314.800201 301.530727,314.839018 C305.598716,315.231605 308.659637,316.732256 310.628758,319.299508 C313.80795,323.447693 312.944749,328.827453 312.906797,329.054182 C312.846779,329.407952 312.54051,329.658501 312.192758,329.658501" id="Fill-57" fill="#ffffff"></path>
                    <path d="M309.378529,327.855073 C309.357347,327.855073 309.336164,327.854191 309.314098,327.852426 C308.915155,327.817138 308.62036,327.465133 308.655665,327.067253 C308.668021,326.920805 308.6945,326.765535 308.724509,326.586445 C308.922216,325.415743 309.290267,323.237549 306.090775,320.636773 C304.335247,319.208463 301.874507,318.649138 299.509972,319.138768 C297.333435,319.590463 295.577906,320.825567 294.693523,322.527364 C292.615839,326.528218 290.218647,327.702449 290.117146,327.750971 C289.755272,327.922121 289.322789,327.769498 289.151561,327.407789 C288.980333,327.047844 289.132143,326.617322 289.490486,326.444408 C289.529322,326.424999 291.582292,325.371632 293.406665,321.859526 C294.493168,319.768671 296.61057,318.26008 299.21606,317.720163 C302.04397,317.133489 304.883353,317.787212 307.006051,319.511946 C310.860446,322.646463 310.366179,325.576306 310.154351,326.82729 C310.129638,326.976385 310.107572,327.106071 310.099629,327.194292 C310.066972,327.570999 309.750112,327.855073 309.378529,327.855073" id="Fill-59" fill="#ffffff"></path>
                    <path d="M311.035204,336.816811 C310.972538,336.816811 310.908107,336.807988 310.844559,336.791226 C310.803076,336.779758 306.706843,335.590529 308.220534,329.339139 C308.314091,328.950081 308.705091,328.711882 309.095209,328.805397 C309.484444,328.899794 309.723633,329.290617 309.629193,329.679674 C308.443836,334.576861 311.196723,335.384972 311.224967,335.392912 C311.610672,335.497896 311.83927,335.895776 311.734238,336.282187 C311.645976,336.604196 311.35383,336.816811 311.035204,336.816811" id="Fill-61" fill="#ffffff"></path>
                    <path d="M309.409951,338.904489 C309.341989,338.904489 309.272262,338.894785 309.203418,338.874494 C307.389637,338.336341 306.117784,337.390605 305.42228,336.064632 C304.399325,334.110521 305.05158,332.0726 305.078942,331.986143 C306.221933,328.646951 306.221933,326.085875 305.083355,324.366434 C303.76384,322.374388 301.272208,322.17236 301.247495,322.170595 C301.216603,322.168831 301.184829,322.16442 301.15482,322.158244 C300.852964,322.101782 298.133616,321.690669 297.104483,324.940757 C295.657872,329.511524 290.040005,331.892628 289.801698,331.991436 C289.432763,332.144942 289.007341,331.969381 288.853765,331.600614 C288.70019,331.230965 288.874948,330.806618 289.244765,330.653113 C289.325966,330.619588 294.483989,328.416692 295.722303,324.50406 C296.866176,320.887852 299.906797,320.451154 301.394892,320.729053 C301.824727,320.76787 304.654402,321.111935 306.281068,323.549501 C307.691492,325.665057 307.749745,328.65842 306.454061,332.44666 C306.452296,332.451953 305.971269,334.002009 306.714434,335.404734 C307.221939,336.364586 308.198115,337.065067 309.615601,337.485002 C309.99954,337.598808 310.218429,338.002863 310.104571,338.385745 C310.011014,338.700697 309.722398,338.904489 309.409951,338.904489" id="Fill-63" fill="#ffffff"></path>
                    <path d="M305.792009,341.360317 C305.700217,341.360317 305.605777,341.342673 305.515749,341.305619 C305.458379,341.2818 304.115034,340.714534 303.085018,339.287107 C302.143264,337.982308 301.282711,335.687661 302.533381,332.16585 C303.503379,329.432742 303.571341,327.375412 302.731088,326.215296 C302.154738,325.421301 301.134431,325.036654 299.700176,325.071943 C299.302998,325.083412 298.967603,324.764931 298.957011,324.365287 C298.948185,323.96476 299.264163,323.633047 299.664871,323.623342 C301.583684,323.580114 303.044418,324.179139 303.904971,325.365721 C305.05414,326.951065 305.052375,329.401864 303.898792,332.650188 C301.934966,338.182571 305.899688,339.895836 306.069151,339.966414 C306.438968,340.119037 306.615492,340.542502 306.461916,340.912151 C306.346293,341.191813 306.076212,341.360317 305.792009,341.360317" id="Fill-65" fill="#ffffff"></path>
                    <path d="M292.427753,338.824825 C292.427753,338.824825 292.427753,338.824825 292.42687,338.825707 C292.427753,338.824825 292.427753,338.824825 292.427753,338.824825 M291.816981,339.204178 C291.640457,339.204178 291.47982,339.139776 291.323597,338.992446 C291.050868,338.734839 291.01468,338.31755 291.236218,337.998188 C291.375671,337.799689 291.595443,337.691176 291.819628,337.686765 C292.234459,337.440626 293.533674,336.567231 297.470152,333.476825 C300.871764,330.807236 301.059762,329.397453 300.982091,328.915763 C300.881473,328.28586 300.196561,328.030017 300.167434,328.01943 C300.150665,328.014137 300.128599,328.005315 300.112712,327.998257 C300.096825,327.992081 299.536362,327.765352 298.957364,328.048543 C298.397784,328.32203 297.950297,329.018982 297.662563,330.064409 C296.708452,333.531522 290.554836,336.166705 290.294464,336.276982 C289.925529,336.432252 289.500107,336.26022 289.343884,335.891453 C289.188543,335.523569 289.360653,335.09834 289.729588,334.942188 C291.330658,334.263763 295.627245,331.997347 296.265378,329.679763 C296.676678,328.184405 297.379242,327.19191 298.353653,326.731393 C299.44457,326.215296 300.447224,326.569065 300.666996,326.659933 C301.23452,326.861961 302.210696,327.498922 302.410168,328.661684 C302.690841,330.312312 301.368678,332.260248 298.36601,334.616649 C296.050019,336.434017 294.347448,337.721171 293.305075,338.443707 C292.668707,338.883933 292.207098,339.204178 291.816981,339.204178" id="Fill-67" fill="#ffffff"></path>
                    <path d="M301.584037,342.64209 C301.211572,342.64209 300.894712,342.356252 300.862938,341.978663 C300.681118,339.816349 300.280409,338.469203 299.672285,337.972515 C299.41103,337.759018 299.0774,337.689323 298.58843,337.746667 C298.063272,337.808423 296.481619,339.483753 295.20447,341.33288 C294.977637,341.661947 294.525737,341.744875 294.19652,341.517263 C293.866421,341.290533 293.784337,340.838838 294.01117,340.509771 C294.660777,339.569328 296.897333,336.485979 298.41985,336.306889 C299.304233,336.20367 300.014741,336.380995 300.589326,336.850335 C301.552263,337.63639 302.082716,339.181152 302.306902,341.856917 C302.340441,342.255679 302.044764,342.605919 301.64582,342.639443 C301.624637,342.641208 301.604337,342.64209 301.584037,342.64209" id="Fill-69" fill="#ffffff"></path>
                    <path d="M387.940226,111.897769 C387.940226,129.213926 373.896883,143.250882 356.572847,143.250882 C339.248811,143.250882 325.204585,129.213926 325.204585,111.897769 C325.204585,94.581612 339.248811,80.5446559 356.572847,80.5446559 C373.896883,80.5446559 387.940226,94.581612 387.940226,111.897769" id="Fill-71" fill="#007bff"></path>
                    <path d="M387.940226,111.897769 C387.940226,129.213926 373.896883,143.250882 356.572847,143.250882 C339.248811,143.250882 325.204585,129.213926 325.204585,111.897769 C325.204585,94.581612 339.248811,80.5446559 356.572847,80.5446559 C373.896883,80.5446559 387.940226,94.581612 387.940226,111.897769 Z" id="Stroke-73" stroke="#ffffff" stroke-width="6"></path>
                    <path d="M366.468148,117.971304 C366.468148,113.15881 363.097428,111.184408 360.594322,110.129277 L357.110627,108.588043 C355.240358,107.770228 354.618112,107.355586 354.618112,106.507776 C354.618112,105.011535 356.544868,104.895083 357.137105,104.895083 C358.629613,104.895083 359.904114,105.429706 361.039162,106.537771 C361.41957,106.910949 361.973855,107.166792 362.475182,107.080334 C363.010931,107.058279 363.507846,106.813023 363.855597,106.406321 L365.246604,104.77069 C365.883855,104.020806 365.857376,102.91627 365.182173,102.200792 C363.577572,100.485762 361.407214,99.3768148 359.055918,98.9718771 L359.055918,96.8280896 C359.055918,96.1187871 358.481333,95.5444637 357.771708,95.5444637 L355.996762,95.5444637 C355.288019,95.5444637 354.712552,96.1187871 354.712552,96.8280896 L354.712552,99.0830365 C350.874927,99.9723113 348.186471,102.912741 348.186471,106.647166 C348.186471,110.031351 350.131762,112.58978 353.958796,114.248348 L357.253611,115.706653 C359.644624,116.765314 360.002085,117.085558 360.002085,118.144219 C360.002085,119.975702 357.852909,120.175965 356.92969,120.175965 C355.112378,120.175965 353.298597,119.339623 351.949074,117.880436 C351.579256,117.477263 351.077929,117.36081 350.50864,117.259355 C349.962299,117.266413 349.445967,117.503729 349.084094,117.911314 L347.519211,119.681923 C346.863426,120.428279 346.87843,121.551341 347.557164,122.278288 C349.479507,124.33209 351.972904,125.618362 354.712552,126.077997 L354.712552,128.569378 C354.712552,129.277799 355.288019,129.852122 355.996762,129.852122 L357.771708,129.852122 C358.481333,129.852122 359.055918,129.277799 359.055918,128.569378 L359.055918,126.095642 C363.454006,125.308704 366.468148,122.13978 366.468148,117.971304" id="Fill-75" fill="#ffffff"></path>
                    <path d="M321.86105,42.7405067 C321.86105,60.0566637 307.817707,74.0936199 290.493671,74.0936199 C273.169635,74.0936199 259.125409,60.0566637 259.125409,42.7405067 C259.125409,25.4243497 273.169635,11.3873935 290.493671,11.3873935 C307.817707,11.3873935 321.86105,25.4243497 321.86105,42.7405067" id="Fill-77" fill="#007bff"></path>
                    <path d="M321.86105,42.7405067 C321.86105,60.0566637 307.817707,74.0936199 290.493671,74.0936199 C273.169635,74.0936199 259.125409,60.0566637 259.125409,42.7405067 C259.125409,25.4243497 273.169635,11.3873935 290.493671,11.3873935 C307.817707,11.3873935 321.86105,25.4243497 321.86105,42.7405067 Z" id="Stroke-79" stroke="#ffffff" stroke-width="6"></path>
                    <path d="M298.375101,27.6410965 C298.603699,27.7354938 298.721087,28.0645607 298.731679,28.6327085 C298.751096,29.2837848 298.72197,29.8139972 298.640769,30.2268748 C298.44218,31.3658171 298.137677,32.3980111 297.751972,33.3287501 L295.602796,38.5126577 L297.199453,40.878764 L297.990279,38.9722928 C298.105902,39.0199326 298.279778,39.0913921 298.529559,39.1954938 C298.77934,39.2987132 298.92409,39.3587039 298.954981,39.3719372 C299.37599,39.5457339 299.623123,39.7592305 299.697263,40.0168379 L298.999995,41.6992259 C298.586929,41.7680388 298.360979,41.8606716 298.308022,41.9885931 C298.281543,42.0529949 298.258595,42.1085746 298.258595,42.1085746 C298.19946,42.2506115 298.814645,43.2995677 300.095324,45.2563252 C302.437794,48.8125423 303.914415,51.0904268 304.554313,52.0793921 C304.696415,52.3158263 304.719363,52.5504961 304.624923,52.7789903 L304.27011,53.6338587 C303.699938,52.9713136 302.865864,52.050279 301.777595,50.8628148 C301.022956,50.1226346 299.975288,49.1777801 298.642534,48.0326624 C297.386568,46.9228333 296.710482,46.3538032 296.614277,46.3132212 L292.991128,44.81257 L290.390934,51.0851335 C290.373281,51.1283621 290.133209,51.5412397 289.661008,52.3202374 C289.192338,53.1071751 288.9505,53.5288748 288.925787,53.5879834 C288.864004,53.7361958 289.231173,54.5531289 290.053774,56.0229025 C290.58511,57.0021635 291.119094,57.9699557 291.653961,58.9227501 L291.251487,59.8940711 L286.993735,56.2619834 C286.700706,56.378436 286.407677,56.6739788 286.128769,57.1380249 C286.143774,56.8565977 286.1729,56.4604822 286.23027,55.9452674 L280.557681,55.4653413 C280.58416,55.4018217 280.617699,55.3206577 280.666243,55.2050873 C280.703313,55.1151012 280.75627,54.9862975 280.818053,54.838085 C280.883367,54.6801681 280.916024,54.6007686 280.923968,54.582242 C280.939855,54.5443067 281.643302,54.3255169 283.021952,53.9161681 C284.704223,53.4503575 285.849862,53.1142328 286.466812,52.9060296 C286.519769,52.8830919 286.571844,52.8081035 286.630096,52.6687132 C286.638923,52.64754 286.648631,52.6237201 286.666284,52.5822559 C286.680406,52.546085 286.692762,52.5187363 286.699823,52.5010919 C286.718358,52.4560988 286.86046,51.9400018 287.128776,50.936921 C287.404153,49.9444268 287.547137,49.4159788 287.572733,49.3542236 L289.973455,43.5633506 L286.397968,42.0821081 C286.343245,42.0591704 285.478279,41.9824176 283.818074,41.8553783 C281.951336,41.7221635 280.517963,41.6524684 279.516191,41.6436462 C278.713891,41.687757 277.457042,41.7459834 275.727993,41.8130319 L276.036909,41.0675584 C276.149002,40.7976 276.366126,40.6290965 276.692695,40.5399926 C279.21257,40.0230134 282.969877,39.2413691 287.981385,38.2038818 C288.027281,38.2029995 288.059938,38.1685931 288.084652,38.1086023 C288.091713,38.0936046 288.105835,38.0591982 288.120839,38.0212628 C288.118191,37.9833275 288.120839,37.9471566 288.129665,37.9259834 L288.183505,37.7954152 C288.243523,37.6489672 288.162322,37.3948887 287.943433,37.018182 L288.604514,35.4231335 C288.757207,35.2590411 289.081128,35.2819788 289.572747,35.4857709 L289.661008,35.5219418 C289.814584,35.5854614 290.104965,35.7160296 290.537449,35.9162928 L289.731618,37.8606993 L292.557762,37.3287224 L294.661925,32.251563 C295.014972,31.4011058 295.535717,30.4641912 296.219747,29.4575815 C296.413923,29.1567455 296.723722,28.7923898 297.166796,28.37863 C297.744911,27.80166 298.150033,27.5475815 298.375101,27.6410965" id="Fill-81" fill="#ffffff"></path>
                    <path d="M292.55838,37.328546 L292.567206,37.3320748 L292.55838,37.328546 Z M287.881385,37.7220148 C287.863732,37.7193681 287.840784,37.7246614 287.816953,37.735248 L287.881385,37.7220148 Z M287.630721,37.9187492 C287.630721,37.9187492 287.630721,37.9196314 287.630721,37.9205136 L287.630721,37.9213958 C287.630721,37.9196314 287.630721,37.9187492 287.630721,37.9187492 Z M281.301464,54.9578901 L281.270572,55.0319963 L286.271488,55.4545783 C286.402999,55.4651649 286.526565,55.5295667 286.610414,55.6319039 C286.662488,55.6954236 286.696911,55.7695298 286.712798,55.8480471 C286.745455,55.831285 286.779877,55.8171695 286.812534,55.8039363 C286.982879,55.7351233 287.17529,55.7695298 287.313861,55.8868647 L291.056163,59.0804905 L291.108238,58.9552157 C290.610441,58.0668231 290.114409,57.1678439 289.620143,56.2582781 C288.280328,53.860412 288.373003,53.6372111 288.470974,53.3998947 C288.485978,53.3637238 288.531874,53.2543289 289.237969,52.0677469 C289.671335,51.3522688 289.904346,50.9552711 289.946712,50.8741072 L292.535432,44.6244813 C292.639581,44.3730494 292.927315,44.2539501 293.179744,44.3580517 L296.802893,45.858703 C296.905276,45.9010494 297.033256,45.9539824 298.967956,47.662837 C300.306005,48.8123658 301.368678,49.772218 302.122434,50.5115159 C302.931795,51.393733 303.595525,52.1242088 304.118917,52.7135298 L304.170109,52.5909016 C304.193057,52.5353219 304.21071,52.4647446 304.131274,52.332412 C303.501084,51.3575621 302.025346,49.081442 299.684642,45.5278716 C297.617549,42.3686522 297.679333,42.2177931 297.802899,41.9196037 L297.852326,41.8005044 C297.980306,41.4926106 298.300696,41.3496915 298.6458,41.2676453 L299.150658,40.0501857 C299.080931,39.9840194 298.957364,39.9055021 298.766719,39.8261025 L298.256565,39.6152527 L297.654619,41.067382 C297.585775,41.234121 297.429552,41.3505737 297.248615,41.368218 C297.067678,41.3876268 296.89292,41.3020517 296.791419,41.1538393 L295.194762,38.787733 C295.101204,38.6501072 295.084434,38.4771926 295.147983,38.3236868 L297.296276,33.1397792 C297.681981,32.2099224 297.970597,31.2015483 298.155064,30.1420055 C298.230087,29.76177 298.25833,29.2624351 298.239795,28.6475298 C298.2345,28.3969801 298.208021,28.2487677 298.183308,28.164957 C298.06945,28.2311233 297.859387,28.3837469 297.514283,28.7278115 C297.018251,29.1918577 296.762292,29.5244536 296.634312,29.7247169 C295.967053,30.7057423 295.459547,31.6161903 295.117091,32.4401811 L293.012929,37.5173404 C292.94938,37.6708462 292.813457,37.7820055 292.64929,37.8128831 L289.822263,38.34486 C289.643091,38.3766199 289.463037,38.3113358 289.349179,38.1701811 C289.234439,38.0307908 289.207078,37.8393497 289.276805,37.6717284 L289.900816,36.1657838 C289.707522,36.0775621 289.564538,36.0149247 289.472746,35.9769894 C289.212373,35.8693589 289.05968,35.8296591 288.975832,35.8146614 L288.489509,36.9888924 C288.656324,37.3170771 288.769299,37.6708462 288.638671,37.9849155 L288.613958,38.0449062 C288.610428,38.1022503 288.598071,38.1569478 288.576888,38.2098808 C288.438317,38.5433589 288.231784,38.6924536 287.989064,38.6959824 L283.723369,39.5887861 C280.827498,40.1886938 278.518567,40.6677376 276.792166,41.0223889 C276.594459,41.0770864 276.528263,41.1670725 276.492075,41.2561764 L276.477953,41.2905829 C277.812473,41.2358855 278.812479,41.1891279 279.489448,41.1511926 C280.547707,41.1600148 282.004911,41.2323566 283.853114,41.3638069 C286.428595,41.5623058 286.488613,41.5870079 286.586583,41.6275898 L290.162071,43.1088323 C290.413617,43.2129339 290.532771,43.5005367 290.428622,43.7519686 L288.027899,49.5428416 C288.009364,49.597539 287.936107,49.8683797 287.804597,50.3403658 L287.602477,51.0690771 C287.198238,52.5856083 287.172642,52.6455991 287.15499,52.6888277 L287.085263,52.8573312 C287.01024,53.0381857 286.893735,53.25874 286.660723,53.3593127 C285.993464,53.5851603 284.825759,53.9283427 283.15408,54.3906245 C282.773671,54.5044305 281.707468,54.8202642 281.301464,54.9578901 Z M280.369419,55.9195067 C280.274978,55.8806891 280.192895,55.810994 280.138172,55.7210079 C280.056089,55.5869109 280.04285,55.4219363 280.10375,55.2763704 L280.469154,54.3941533 C280.579482,54.1277238 280.579482,54.1277238 282.883116,53.4448878 C284.426816,53.0161303 285.529206,52.6958855 286.17087,52.4859178 L286.210588,52.3941672 C286.267075,52.2433081 286.403881,51.7404443 286.651897,50.8097053 L286.855782,50.0783473 C287.011123,49.5172573 287.097619,49.2137746 287.11792,49.1652527 L289.329762,43.8296037 L286.209705,42.5371557 C286.221179,42.5495067 285.845184,42.5053958 283.779856,42.3457145 C281.954601,42.2151464 280.517698,42.1445691 279.511513,42.1348647 C278.73834,42.1780933 277.480608,42.2372018 275.747145,42.3051326 C275.581213,42.3113081 275.420577,42.2327908 275.324371,42.0942827 C275.228166,41.9566568 275.208748,41.7802134 275.273179,41.6249432 L275.582096,40.8794697 C275.751558,40.470121 276.081658,40.1966337 276.563567,40.0651834 C278.319096,39.7034744 280.628908,39.2244305 283.523014,38.6254051 L287.663378,37.7670079 C287.666908,37.7573035 287.670439,37.7475991 287.674852,37.7378947 L287.7181,37.6329109 C287.700448,37.6364397 287.668674,37.527927 287.517746,37.2641441 C287.440958,37.1326938 287.430367,36.971248 287.488619,36.8300933 L288.149701,35.2350448 C288.172649,35.1812296 288.204423,35.1318254 288.244141,35.0885968 C288.703985,34.5927908 289.500107,34.9218577 289.761362,35.0303704 C290.00673,35.1318254 290.30329,35.264158 290.745482,35.4697145 C290.984671,35.5808739 291.093233,35.8614189 290.992615,36.1049109 L290.534536,37.2085644 L292.205333,36.8944952 L294.207994,32.0634744 C294.575163,31.1768462 295.114443,30.2064074 295.813477,29.1803889 C296.037662,28.8319132 296.382766,28.4375621 296.830254,28.0193912 C297.39513,27.4556545 298.006784,26.9554374 298.563716,27.1856961 C299.200084,27.449479 299.218619,28.3325783 299.223915,28.6228277 C299.245098,29.3162503 299.212441,29.8746938 299.123297,30.3219778 C298.929121,31.4415113 298.619321,32.5204628 298.206256,33.5164859 L296.158581,38.4569016 L297.095922,39.8437469 L297.535466,38.7833219 C297.639615,38.5318901 297.927349,38.4127908 298.178895,38.5168924 L299.143597,38.9165367 C299.709355,39.1503242 300.054459,39.4758624 300.170965,39.8834467 C300.201856,39.9893127 300.194795,40.1031187 300.15243,40.2063381 L299.455161,41.8878439 C299.389847,42.0448785 299.249511,42.1569201 299.080048,42.185151 C298.961777,42.2045598 298.877046,42.2239686 298.815263,42.2398485 C298.963543,42.5389201 299.375726,43.2561626 300.508125,44.9870725 C302.850595,48.5424074 304.327215,50.8220564 304.967996,51.8119039 C305.199242,52.1974328 305.23543,52.5926661 305.080972,52.9676083 L304.726159,53.8224767 C304.659963,53.9812758 304.517861,54.0933173 304.348398,54.1206661 C304.179818,54.148897 304.009473,54.0844952 303.89738,53.9556915 C303.329856,53.2957931 302.497547,52.3774051 301.414574,51.1952342 C300.694358,50.4903427 299.647572,49.5454882 298.320996,48.4047815 C296.689035,46.964121 296.415423,46.7682688 296.376588,46.7435667 L293.257414,45.4555298 L290.8461,51.2737515 C290.809913,51.3602088 290.553071,51.7986707 290.082635,52.5750217 C289.749005,53.1361118 289.531881,53.5057607 289.432145,53.6848508 C289.491281,53.8639409 289.70664,54.3932711 290.482461,55.782763 C291.015563,56.7655529 291.55043,57.7315806 292.083531,58.6826106 C292.157671,58.814061 292.16738,58.9719778 292.109127,59.1113681 L291.706653,60.0826891 C291.646635,60.228255 291.520421,60.3358855 291.366845,60.3720564 C291.212387,60.4108739 291.05175,60.3711741 290.931714,60.268837 L286.950222,56.8723012 C286.84166,56.9737561 286.705737,57.1343196 286.551279,57.3910448 C286.434773,57.5860148 286.200879,57.6751187 285.984637,57.6098346 C285.766631,57.5330818 285.624529,57.3372296 285.636886,57.1122642 C285.647477,56.9234697 285.663364,56.6843889 285.68896,56.3932573 L280.515933,55.9556776 C280.465624,55.9512665 280.416197,55.9389155 280.369419,55.9195067 Z" id="Fill-83" fill="#ffffff"></path>
                    <path d="M112.087432,304.088145 C112.087432,321.404302 98.0432059,335.44214 80.7191698,335.44214 C63.3960163,335.44214 49.3517905,321.404302 49.3517905,304.088145 C49.3517905,286.771988 63.3960163,272.735031 80.7191698,272.735031 C98.0432059,272.735031 112.087432,286.771988 112.087432,304.088145" id="Fill-85" fill="#007bff"></path>
                    <path d="M112.087432,304.088145 C112.087432,321.404302 98.0432059,335.44214 80.7191698,335.44214 C63.3960163,335.44214 49.3517905,321.404302 49.3517905,304.088145 C49.3517905,286.771988 63.3960163,272.735031 80.7191698,272.735031 C98.0432059,272.735031 112.087432,286.771988 112.087432,304.088145 Z" id="Stroke-87" stroke="#ffffff" stroke-width="6"></path>
                    <path d="M87.0117102,290.352201 L87.1546944,290.461596 C88.2500239,291.500848 88.8758005,292.904455 88.9146357,294.413046 C88.9543535,295.927813 88.4062474,297.360533 87.368288,298.457129 C87.0832023,298.756201 86.6189449,298.839129 86.2438321,298.651217 L86.1591007,298.602695 L86.0152339,298.486242 C85.8290014,298.315092 85.7239698,298.07954 85.7169088,297.822815 C85.7080826,297.567855 85.8016402,297.32348 85.9799291,297.134686 C87.3965318,295.641975 87.3338659,293.269693 85.8387102,291.848441 C85.6542429,291.674644 85.5465634,291.439975 85.5386199,291.185014 C85.5333242,290.925642 85.6251165,290.686561 85.8025228,290.498649 C86.1158524,290.1687 86.6260059,290.106062 87.0117102,290.352201" id="Fill-89" fill="#ffffff"></path>
                    <path d="M90.8558668,300.302992 C90.5646027,300.615297 90.1153499,300.691168 89.7331761,300.500609 L89.6466795,300.448558 L89.5010474,300.337399 C89.3183454,300.164484 89.2124312,299.926285 89.2027223,299.668678 C89.1974266,299.415482 89.2909842,299.172872 89.46486,298.991135 C90.6202077,297.769265 91.2318623,296.175981 91.1850835,294.50065 C91.14007,292.830613 90.4463318,291.271736 89.2300835,290.112503 C88.8479097,289.749911 88.8302573,289.147357 89.1912483,288.764475 C89.5081084,288.430997 90.0173792,288.368359 90.4030835,288.614498 L90.5451851,288.725657 C92.1321332,290.228955 93.0412302,292.261583 93.1012483,294.449482 C93.1586185,296.63738 92.3633792,298.716766 90.8558668,300.302992" id="Fill-91" fill="#ffffff"></path>
                    <path d="M75.1657341,298.814868 L75.0227499,298.705473 C73.9274203,297.665339 73.3016438,296.262614 73.2628086,294.753141 C73.2230907,293.239256 73.7711968,291.806536 74.8091562,290.70994 C75.094242,290.410868 75.5584993,290.32794 75.9336122,290.51497 L76.0183436,290.563492 L76.1622104,290.680827 C76.3475603,290.851977 76.4534745,291.087529 76.4605354,291.344254 C76.4693616,291.599215 76.3758041,291.843589 76.1975151,292.032383 C74.7809124,293.525095 74.8435783,295.896494 76.3387341,297.318628 C76.5232014,297.492425 76.6308808,297.727095 76.6388244,297.982055 C76.6441201,298.241427 76.5523278,298.480508 76.3749214,298.66842 C76.0615919,298.99837 75.5514384,299.061007 75.1657341,298.814868" id="Fill-93" fill="#ffffff"></path>
                    <path d="M71.3214892,288.863901 C71.6127533,288.551596 72.0620061,288.475725 72.4432973,288.666284 L72.5306765,288.718335 L72.6763086,288.829494 C72.8590106,289.002409 72.9649248,289.240607 72.9746336,289.498215 C72.9799293,289.751411 72.8863718,289.994021 72.7124959,290.175758 C71.5571483,291.397628 70.9454937,292.990912 70.9922725,294.666242 C71.037286,296.337162 71.7310242,297.895157 72.9472725,299.05439 C73.3294463,299.416982 73.3470986,300.019536 72.9861077,300.402418 C72.6692476,300.735896 72.1599767,300.798533 71.7742725,300.552395 L71.6321709,300.441236 C70.0452228,298.937938 69.1361257,296.905309 69.0761077,294.717411 C69.0187375,292.529513 69.8139767,290.450127 71.3214892,288.863901" id="Fill-95" fill="#ffffff"></path>
                    <path d="M83.7350772,295.168224 C83.7350772,296.862963 82.3608402,298.236575 80.66533,298.236575 C78.9698199,298.236575 77.5947002,296.862963 77.5947002,295.168224 C77.5947002,293.473485 78.9698199,292.099873 80.66533,292.099873 C82.3608402,292.099873 83.7350772,293.473485 83.7350772,295.168224" id="Fill-97" fill="#ffffff"></path>
                    <path d="M73.2604255,319.368497 C73.1465677,319.368497 73.0300621,319.351735 72.9170869,319.314682 C72.3998725,319.149708 72.1359695,318.650373 72.3248499,318.201324 L79.7344323,300.647851 C79.8756512,300.312608 80.2392901,300.086761 80.6488251,300.078821 C81.0618905,300.069999 81.4317077,300.28526 81.5896964,300.614327 L89.9525068,318.166918 C90.1634526,318.610673 89.9224977,319.11883 89.4149921,319.302331 C88.9048386,319.485832 88.3240756,319.276747 88.1122472,318.833874 L80.7256129,303.328909 L74.1951185,318.799467 C74.0477212,319.151472 73.6655474,319.368497 73.2604255,319.368497" id="Fill-99" fill="#ffffff"></path>
                    <path d="M87.9115397,317.234855 C87.6573456,317.234855 87.4049167,317.151045 87.2107406,316.983424 L77.1947858,308.333285 C76.8046684,307.996278 76.8020205,307.447539 77.1894901,307.106121 C77.576077,306.766467 78.2062666,306.762939 78.5981492,307.100828 L88.6132214,315.750966 C89.0042214,316.087973 89.0059867,316.637594 88.6193998,316.97813 C88.4243411,317.14928 88.1683817,317.234855 87.9115397,317.234855" id="Fill-101" fill="#ffffff"></path>
                    <path d="M74.4227458,316.837505 C74.1756126,316.837505 73.9284795,316.758105 73.7360686,316.597542 C73.3371251,316.26671 73.3221205,315.717971 73.7016465,315.37126 L82.9161837,306.94344 C83.2965923,306.594964 83.9276646,306.584378 84.3239603,306.913445 C84.7229038,307.244276 84.7379084,307.793897 84.3583824,308.140609 L75.1438451,316.567546 C74.9479038,316.747519 74.6857661,316.837505 74.4227458,316.837505" id="Fill-103" fill="#ffffff"></path>
                    <path d="M80.4626808,61.5223792 C78.7036221,62.0967025 76.5350284,62.3781298 74.0001481,62.4240051 C71.4176063,62.3781298 69.2507779,62.0967025 67.4122835,61.5223792 C65.6108591,60.9427626 64.7150014,60.2458111 64.7538366,59.4253492 C64.7150014,58.6437048 65.6108591,57.9432245 67.4122835,57.3706656 C69.2507779,56.7936956 71.4176063,56.5060928 74.0001481,56.5060928 C76.5350284,56.5060928 78.7036221,56.7936956 80.4626808,57.3706656 C82.303823,57.9432245 83.2040939,58.6437048 83.2040939,59.4253492 C83.2040939,60.2458111 82.303823,60.9427626 80.4626808,61.5223792 M85.2067553,67.6396725 C85.4521233,67.4305871 85.5783377,67.1897418 85.6180555,66.8597926 C85.5783377,66.5730721 85.4521233,66.2837048 85.2067553,66.0790305 C85.0417056,65.9140559 84.8793038,65.8328919 84.7151368,65.7914277 L84.7151368,61.4368042 C85.2879562,60.9065917 85.5783377,60.2855109 85.6180555,59.631788 C85.5783377,58.3569843 84.4706515,57.2480374 82.2199743,56.3428827 C79.9719449,55.4394924 77.2737801,54.9895617 74.0787011,55.0301436 C70.8889178,54.9895617 68.1916357,55.4394924 65.9391932,56.3428827 C63.6876334,57.2480374 62.5437598,58.3569843 62.5437598,59.631788 C62.5437598,60.0817187 62.7096921,60.5334139 63.0353783,60.985109 C63.0803919,61.066273 63.1545318,61.1077372 63.2013106,61.19243 L63.2013106,65.7914277 C62.9515296,65.7914277 62.7476447,65.8717095 62.5437598,66.0790305 C62.2992745,66.2837048 62.217191,66.5730721 62.217191,66.8597926 C62.217191,67.1897418 62.2992745,67.4305871 62.5437598,67.6396725 C62.7476447,67.8037649 62.9515296,67.9246286 63.2013106,67.9696217 L63.2013106,72.85534 C62.9515296,72.85534 62.7476447,72.9382684 62.5437598,73.1014785 C62.2992745,73.3520282 62.217191,73.6334554 62.217191,73.9237048 C62.217191,74.253654 62.2992745,74.501557 62.5437598,74.7053492 C62.7476447,74.8703238 62.9515296,74.9479589 63.2013106,74.9920697 L63.2013106,80.3700651 C62.7096921,80.8649889 62.4607937,81.4428411 62.4607937,82.0127533 C62.4607937,82.5906055 62.7096921,83.1243469 63.2013106,83.6192707 C63.7697169,84.2368226 64.6311526,84.7696818 65.8562271,85.2222591 C68.1051391,86.1679958 70.8059517,86.6152799 74.0398659,86.6152799 C77.1899314,86.6152799 79.8872135,86.1679958 82.1361255,85.2222591 C83.2429291,84.8137926 84.1078953,84.319751 84.6763016,83.7851275 L84.7151368,83.7401344 C85.249121,83.2099219 85.5377372,82.6311875 85.5377372,82.0127533 C85.5377372,81.3996125 85.249121,80.8244069 84.7151368,80.2483192 L84.7151368,74.9920697 C84.8793038,74.9109058 85.0417056,74.8262129 85.2067553,74.7053492 C85.4521233,74.501557 85.5783377,74.253654 85.6180555,73.9237048 C85.5783377,73.6334554 85.4521233,73.3520282 85.2067553,73.1014785 C85.0417056,72.9797326 84.8793038,72.8968042 84.7151368,72.85534 L84.7151368,67.9246286 C84.8793038,67.8866933 85.0417056,67.7649473 85.2067553,67.6396725" id="Fill-105" fill="#ffffff"></path>
                    <path d="M72.6777208,72.0834 C71.6176959,72.7530028 70.8206914,73.9669335 70.4941226,75.4093584 C70.4314567,75.6907857 70.1763799,75.8945778 69.886881,75.8945778 C69.8436327,75.8945778 69.7977366,75.8901667 69.7518404,75.8786979 C69.4137975,75.8010628 69.2037343,75.4675848 69.2805221,75.1323423 C69.6768178,73.375848 70.6732941,71.8804901 72.013109,71.0300328 C72.1101971,70.9682776 72.2267027,70.9338711 72.3449736,70.9338711 C72.5585673,70.9338711 72.7562738,71.0423838 72.8718968,71.2214739 C73.0563641,71.51437 72.9672196,71.8998988 72.6777208,72.0834 M75.6344928,69.5055617 C73.3264454,67.0141806 73.4676643,65.6141021 73.4676643,65.6141021 L73.4350074,65.6141021 C73.4350074,65.6141021 73.5762264,67.0141806 71.2699442,69.5055617 C69.1701948,71.774624 68.0377953,73.8001945 68.0069036,75.2717326 C67.9433551,78.5500513 70.3264251,81.1261252 73.3855808,81.1261252 L73.5144431,81.1261252 C76.5762467,81.1261252 78.9610819,78.5500513 78.8957682,75.2717326 C78.8675244,73.8001945 77.732477,71.774624 75.6344928,69.5055617" id="Fill-107" fill="#007bff"></path>
                    <polygon id="Fill-109" fill="#ffffff" points="169.748987 354.429304 167.726026 354.429304 167.726026 340.954321 157.073703 340.954321 157.073703 338.931397 169.748987 338.931397"></polygon>
                    <path d="M157.590564,346.229538 L147.125356,346.229538 C146.732591,346.229538 146.412201,345.908411 146.412201,345.516706 L146.412201,336.428106 C146.412201,336.035519 146.732591,335.715274 147.125356,335.715274 L157.590564,335.715274 C157.982447,335.715274 158.30372,336.035519 158.30372,336.428106 L158.30372,345.516706 C158.30372,345.908411 157.982447,346.229538 157.590564,346.229538" id="Fill-111" fill="#ffffff"></path>
                    <path d="M148.045928,336.725501 C147.707885,336.725501 147.423681,337.011339 147.423681,337.349229 L147.423681,344.59576 C147.423681,344.939824 147.701706,345.217723 148.045928,345.217723 L156.66911,345.217723 C157.012449,345.217723 157.291356,344.939824 157.291356,344.59576 L157.291356,337.349229 C157.291356,337.011339 157.006271,336.725501 156.66911,336.725501 L148.045928,336.725501 Z" id="Fill-113" fill="#ffffff"></path>
                    <path d="M157.841404,355.887168 C157.841404,359.159311 155.18737,361.812138 151.913738,361.812138 C148.640106,361.812138 145.986072,359.159311 145.986072,355.887168 C145.986072,352.615025 148.640106,349.962198 151.913738,349.962198 C155.18737,349.962198 157.841404,352.615025 157.841404,355.887168" id="Fill-115" fill="#ffffff"></path>
                    <mask id="mask-4" fill="white">
                        <use xlink:href="#path-3"></use>
                    </mask>
                    <g id="Clip-118"></g>
                    <polygon id="Fill-117" fill="#ffffff" mask="url(#mask-4)" points="150.903052 350.390162 152.926014 350.390162 152.926014 346.542813 150.903052 346.542813"></polygon>
                    <polygon id="Fill-119" fill="#ffffff" mask="url(#mask-4)" points="168.808557 350.27168 175.492627 360.25926 162.124487 360.25926"></polygon>
                    <polygon id="Fill-120" fill="#ffffff" mask="url(#mask-4)" points="164.018851 359.248327 173.598793 359.248327 168.808822 352.0909"></polygon>
                </g>
            </g>
        </g>
    </g>
</svg>