<svg width="84" height="50" viewBox="0 0 84 50" fill="none" xmlns="http://www.w3.org/2000/svg">
<path fill-rule="evenodd" clip-rule="evenodd" d="M11.8198 31.056H2.80265C2.4618 31.056 2.15374 31.1965 1.93114 31.424C1.70855 31.6505 1.57141 31.963 1.57141 32.3088V34.4615C1.57141 34.8063 1.70755 35.1188 1.92816 35.3443C2.15175 35.5728 2.46081 35.7143 2.80265 35.7143H11.8198V31.056ZM27.3016 31.427C27.079 31.1995 26.7689 31.056 26.4271 31.056H17.4099V35.7143H26.4271C26.7689 35.7143 27.078 35.5728 27.3016 35.3432C27.5222 35.1178 27.6583 34.8053 27.6583 34.4615V32.3088C27.6583 31.965 27.5222 31.6535 27.3016 31.427ZM27.3016 23.0428C27.079 22.8134 26.7689 22.6709 26.4271 22.6709H17.4099V27.3292H26.4271C26.7689 27.3292 27.078 27.1857 27.3016 26.9573C27.5222 26.7309 27.6583 26.4196 27.6583 26.076V23.9231C27.6583 23.5805 27.5222 23.2692 27.3016 23.0428ZM11.8198 22.6709L2.80265 22.6719C2.4618 22.6719 2.15374 22.8124 1.93114 23.0398C1.70855 23.2662 1.57141 23.5785 1.57141 23.9231V26.076C1.57141 26.4196 1.70755 26.7319 1.92816 26.9583C2.15175 27.1867 2.46081 27.3292 2.80265 27.3292H11.8198V22.6709ZM26.4047 18.9442H2.82502C2.47696 18.9442 2.1623 18.8026 1.93464 18.5741C1.71003 18.3476 1.57141 18.0361 1.57141 17.6913V15.5386C1.57141 15.1928 1.71104 14.8803 1.93667 14.6538C2.16432 14.4263 2.47797 14.2858 2.82502 14.2858H26.4047C26.7528 14.2858 27.0685 14.4273 27.2951 14.6569C27.5197 14.8834 27.6583 15.1948 27.6583 15.5386V17.6913C27.6583 18.0351 27.5197 18.3466 27.2951 18.5731C27.0675 18.8026 26.7528 18.9442 26.4047 18.9442Z" fill="#EB0028"/>
<path fill-rule="evenodd" clip-rule="evenodd" d="M80.9868 14.2858H79.5746C77.7683 14.2858 77.6543 14.4857 77.5147 14.8L74.7198 21.6C73.7882 23.8568 72.8271 26.2856 72.4605 27.5427C72.1215 26.2856 71.5014 24.5997 70.2022 21.4856L67.4083 14.8C67.2383 14.4001 66.5327 14.2858 65.0075 14.2858H63.4272C61.8745 14.2858 61.563 14.429 61.563 14.7433V35.2568C61.563 35.6288 61.8745 35.7143 63.4832 35.7143H64.3589C65.9391 35.7143 66.3902 35.6288 66.3902 35.2568V23.086H66.5042C66.5042 23.086 66.6447 23.6569 66.8717 24.1711L70.0902 31.7996C70.2307 32.1427 70.4007 32.287 71.8964 32.287H72.8566C74.3798 32.287 74.4938 32.1716 74.6353 31.7996L77.5698 24.4575C77.8528 23.7712 78.0503 23.086 78.0503 23.086H78.1633V35.2568C78.1633 35.6288 78.4729 35.7143 80.1396 35.7143H80.9868C82.5395 35.7143 82.9915 35.6288 82.9915 35.2568V14.7433C82.9915 14.429 82.5395 14.2858 80.9868 14.2858ZM56.9046 14.7433C56.9046 14.429 56.4683 14.2858 54.9705 14.2858H54.0978C52.5175 14.2858 52.2462 14.429 52.2462 14.7433V35.2568C52.2462 35.6288 52.5175 35.7143 54.0978 35.7143H54.9705C56.4692 35.7143 56.9046 35.6288 56.9046 35.2568V14.7433ZM48.9301 14.2858C49.3625 14.2858 49.4512 14.3435 49.4512 15.8572V17.2576C49.4512 18.7147 49.3353 18.8858 48.9301 18.8858H44.0074V35.2568C44.0074 35.6288 43.5437 35.7143 41.8938 35.7143H41.0249C39.3457 35.7143 39.0565 35.6288 39.0565 35.2568V18.8858H34.1338C33.7276 18.8858 33.6127 18.7714 33.6127 17.2576V15.8572C33.6127 14.2858 33.6994 14.2858 34.1338 14.2858H48.9301Z" fill="#004691"/>
</svg>
