<?xml version="1.0" encoding="utf-8"?>
<svg version="1.1" id="Layer_1" xmlns="http://www.w3.org/2000/svg" xmlns:xlink="http://www.w3.org/1999/xlink" x="0px" y="0px"
	 viewBox="0 0 133 133" style="enable-background:new 0 0 133 133;" xml:space="preserve">
<style type="text/css">
	.st0{opacity:0.3;fill:#161656;enable-background:new    ;}
	.st1{opacity:0.15;}
	.st2{fill:#161656;}
	.st3{fill:#007bff;}
	.st4{fill:none;stroke:#161656;stroke-width:6;stroke-linecap:round;stroke-linejoin:round;}
	.st5{fill:none;stroke:#ffffff;stroke-width:6;stroke-linecap:round;stroke-linejoin:round;}
	.st6{fill:none;stroke:#ff6f00;stroke-width:6;stroke-linecap:round;stroke-linejoin:round;}
	.st7{fill:none;stroke:#64f0ff;stroke-width:6;stroke-linecap:round;stroke-linejoin:round;}
	.st8{fill:none;stroke:#161656;stroke-width:3;}
	.st9{fill:#ff6f00;}
</style>
<title>Anonymity icon</title>
<g id="Desktop">
	<g id="_x33_.1-Mantle" transform="translate(-258.000000, -2002.000000)">
		<g id="Anonymity" transform="translate(258.000000, 2003.000000)">
			<path id="Fill-1" class="st0" d="M96.6,112.9h-67c-5.8,0-10.5-4.7-10.5-10.5v-67c0-5.8,4.7-10.5,10.5-10.5h67
				c5.8,0,10.5,4.7,10.5,10.5v67C107,108.2,102.3,112.9,96.6,112.9"/>
			<g id="Group-5" transform="translate(0.000000, 26.092437)" class="st1">
				<path id="Fill-3" class="st2" d="M84.7,96.5H17.9c-5.7,0-10.4-4.7-10.4-10.5V19.2c0-5.8,4.7-10.5,10.4-10.5h66.8
					c5.7,0,10.4,4.7,10.4,10.5v66.9C95.2,91.8,90.5,96.5,84.7,96.5"/>
			</g>
			<path id="Fill-6" class="st3" d="M112.1,100.3H44c-5.7,0-10.4-4.7-10.4-10.4V21.8c0-5.7,4.7-10.4,10.4-10.4h68.1
				c5.7,0,10.4,4.7,10.4,10.4v68.1C122.5,95.6,117.8,100.3,112.1,100.3"/>
			<path id="Stroke-8" class="st4" d="M71.3,11.4h42.6c4.8,0,8.7,3.9,8.7,8.7v9.7"/>
			<path id="Stroke-10" class="st5" d="M122.5,38.5v53.2c0,4.8-3.9,8.7-8.7,8.7h-8.7"/>
			<path id="Stroke-12" class="st6" d="M95.4,100.3H42.4c-4.8,0-8.8-3.9-8.8-8.6V71.3"/>
			<path id="Stroke-14" class="st7" d="M33.6,61.7V20.1c0-4.8,3.9-8.7,8.7-8.7h17.4"/>
			<path id="Stroke-16" class="st8" d="M82.6,57.8h-6.1c-5.5,0-10-4.3-10-9.6V37.4c0-5.3,4.5-9.6,10-9.6h6.1c5.5,0,10,4.3,10,9.6
				v10.8C92.5,53.5,88.1,57.8,82.6,57.8z"/>
			<path id="Stroke-18" class="st8" d="M81.1,62.6h-4.2c-10.6,0-19.1,8.5-19.1,18.9v5.8c0,0.5,0,0.9,0.1,1.3c0,0,0,0,0,0h6.6
				c0,0,0,0,0,0v-8c0-1,0.7-2,1.8-2.1c1.2-0.1,2.1,0.8,2.1,1.9v8.1c0,0,0,0,0,0h21.4c0,0,0,0,0,0v-8c0-1,0.7-2,1.8-2.1
				c1.2-0.1,2.1,0.8,2.1,1.9v8.1c0,0,0,0,0,0h6.4c0,0,0,0,0,0c0-0.4,0.1-0.9,0.1-1.3v-5.8C100.3,71.1,91.7,62.6,81.1,62.6z"/>
			<path id="Fill-20" class="st9" d="M77.8,53h3.6v-3.1h-3.6V53z M77.8,47.8c0-1.2,0.2-2,0.5-2.5c0.3-0.5,1-1.2,2-2
				c0.6-0.5,1-1,1.4-1.6c0.3-0.6,0.5-1.2,0.5-1.9c0-0.8-0.2-1.4-0.6-1.8c-0.4-0.4-1-0.6-1.7-0.6c-0.6,0-1.1,0.2-1.5,0.5
				c-0.4,0.4-0.6,0.9-0.6,1.6h-3.5l0-0.1c0-1.6,0.5-2.8,1.6-3.7c1.1-0.8,2.4-1.3,4.1-1.3c1.8,0,3.3,0.5,4.3,1.4
				c1,0.9,1.6,2.2,1.6,3.8c0,1.1-0.3,2-0.9,2.9c-0.6,0.9-1.4,1.6-2.3,2.2c-0.5,0.4-0.8,0.8-1,1.2c-0.2,0.4-0.2,0.9-0.2,1.6H77.8z"/>
		</g>
	</g>
</g>
</svg>
