<svg width="94" height="70" viewBox="0 0 94 70" fill="none" xmlns="http://www.w3.org/2000/svg">
<path d="M42.9448 40.4698C43.0871 47.928 40.2454 47.6651 39.2709 47.4454C37.4339 47.0318 37.2313 44.2613 37.2313 39.7244V25.2906H27.9905V42.8524C27.9905 48.1606 30.8235 50.9871 36.0411 50.9871C37.9945 50.9871 42.5912 51.237 44.7601 46.2476H46.3254V50.763H52.1898V25.2906H42.9404V40.4698H42.9448ZM65.4408 19.0302L56.0017 19.0086V40.7929C56.0017 47.1869 59.1193 50.7846 64.1515 51H69.395V44.6362H65.4451V19.0345L65.4408 19.0302ZM12.8853 24.9717C6.52936 25.7817 1.33331 30.7711 1.33331 37.8631C1.33331 44.955 6.52936 49.9401 12.8853 50.7544C18.7498 51.5041 22.3202 50.2934 24.2563 49.38V39.5305H22.954C17.4346 39.5305 12.9802 43.3264 12.9802 49.4963C12.0574 49.3369 11.3632 49.2163 10.4102 48.8112C10.4576 48.4278 10.4663 43.2316 10.462 37.8631C10.462 32.4902 10.462 27.2941 10.4102 26.9149C11.3632 26.5099 12.0531 26.3893 12.9802 26.2298C12.9802 32.3998 17.4346 36.1956 22.954 36.1956H24.252V26.3419C22.3158 25.4284 18.7454 24.222 12.881 24.9717H12.8853ZM91.5633 40.7757L86.82 43.2402C85.5178 43.9167 84.6985 45.2653 84.6942 46.7302V48.208L82.2622 48.2597V30.1981H92.5249V25.2389H82.0509V19H78.8858C76.1606 22.9768 72.78 26.4625 68.8818 29.3019V30.1937H72.8058V40.6593C72.8058 48.2985 76.3805 50.9785 82.7408 50.9785C85.2246 50.9785 87.3116 50.6338 89.4633 49.4748C91.6884 48.277 92.5335 46.9154 92.5335 46.9154L92.4818 40.7412L91.559 40.7628L91.5633 40.7757Z" fill="#000A1E"/>
</svg>
