<svg width="126" height="70" viewBox="0 0 126 70" fill="none" xmlns="http://www.w3.org/2000/svg">
<g clip-path="url(#clip0_6665_376)">
<path d="M55.9079 3H1.33331V63.0202H55.9079V3Z" fill="#4F98D3"/>
<path d="M35.9053 50.0843H15.4455V8.92706H10.1005V54.7467H35.9053V50.0843Z" fill="white"/>
<path d="M42.8776 22.5791C42.8776 28.3507 38.8429 31.651 31.9742 31.651H25.8796L44.7364 54.7619H51.2455L35.7407 35.8685C43.4931 35.1889 48.183 29.8866 48.183 22.5821C48.183 14.0313 42.4205 8.92706 32.6781 8.92706H25.8917V13.5742H32.1784C39.0471 13.5742 42.8776 16.8562 42.8776 22.5821" fill="white"/>
<path d="M73.4118 43.6453V44.7545H66.8753V31.6479H68.1521V43.6453H73.4118Z" fill="#143B62"/>
<path d="M75.9685 31.6479V44.7545H74.8044V31.6479H75.9685Z" fill="#143B62"/>
<path d="M82.2369 36.1428C80.2287 36.1428 79.1408 37.8889 79.1408 40.0677C79.1408 42.2466 80.2287 43.9927 82.2369 43.9927C84.2451 43.9927 85.3543 42.2283 85.3543 40.0677C85.3543 37.9072 84.2664 36.1428 82.2369 36.1428ZM82.2369 44.98C79.2139 44.98 77.8639 42.6153 77.8639 40.0616C77.8639 37.508 79.2139 35.1432 82.2369 35.1432C85.2598 35.1432 86.6311 37.4897 86.6311 40.0616C86.6311 42.6336 85.2781 44.98 82.2369 44.98Z" fill="#143B62"/>
<path d="M93.9081 35.3687H95.1271L91.3728 46.1624C91.158 46.8779 90.8003 47.5424 90.3214 48.1157C90.1346 48.3149 89.9076 48.4722 89.6554 48.5773C89.4033 48.6824 89.1318 48.7328 88.8587 48.7252C88.4881 48.7324 88.1191 48.6757 87.7678 48.5576V47.5702C88.059 47.6845 88.3692 47.7424 88.682 47.7409C89.6571 47.7409 90.0167 46.9151 90.3732 45.6931L90.617 44.8673L87.265 35.3687H88.5418L91.1655 43.1973H91.1838L93.9081 35.3687Z" fill="#143B62"/>
<path d="M99.9571 36.1428C97.7417 36.1428 97.1779 38.2454 97.1779 40.0677C97.1779 41.89 97.7417 43.9927 99.9571 43.9927C102.023 43.9927 102.736 41.7773 102.736 40.0677C102.736 38.3582 102.023 36.1428 99.9571 36.1428ZM103.9 31.654V44.7576H102.745V43.2735H102.709C102.069 44.4589 101.133 44.9831 99.7803 44.9831C97.2084 44.9831 95.9133 42.8499 95.9133 40.0647C95.9133 37.2093 97.1139 35.1432 99.7803 35.1432C100.39 35.1324 100.99 35.2966 101.509 35.6163C102.028 35.9361 102.444 36.398 102.709 36.9473H102.745V31.6479L103.9 31.654Z" fill="#143B62"/>
<path d="M106.679 31.6479H107.825L106.85 35.3779H105.704L106.679 31.6479Z" fill="#143B62"/>
<path d="M110.461 44.98C109.57 45.0013 108.683 44.8492 107.85 44.532V43.3649C108.634 43.7689 109.503 43.978 110.385 43.9744C111.494 43.9744 112.472 43.3649 112.472 42.2831C112.472 40.0677 107.965 40.406 107.965 37.6847C107.965 35.8228 109.468 35.131 111.013 35.131C111.786 35.1248 112.553 35.2773 113.265 35.579V36.5938C112.598 36.2805 111.869 36.1202 111.132 36.1245C109.76 36.1245 109.123 36.6882 109.123 37.5506C109.123 38.2271 109.48 38.5654 110.248 38.9433C111.656 39.5984 113.74 40.2932 113.74 42.2953C113.74 44.2974 111.887 44.98 110.461 44.98Z" fill="#143B62"/>
<path d="M69.5112 51.0229H68.1582V55.7157H69.5478C71.0715 55.7157 72.8176 55.1337 72.8176 53.2962C72.8176 51.163 71.2939 51.0229 69.5112 51.0229ZM75.1061 63.0202H73.6982L71.8394 58.6442C71.108 56.9194 70.4894 56.8158 69.2491 56.8158H68.1582V63.0202H66.8814V49.9167H70.2609C72.5921 49.9167 74.0944 50.8949 74.0944 53.2992C74.0944 54.9874 72.8176 56.0418 71.2939 56.3191V56.3587C71.6982 56.4367 72.0632 56.652 72.3269 56.9682C72.4431 57.1146 72.5452 57.2718 72.6317 57.4375C72.7261 57.6264 72.8206 57.8123 72.912 58.047L75.1061 63.0202Z" fill="#143B62"/>
<path d="M82.1729 57.5198C82.1729 56.0174 81.5177 54.4023 79.7899 54.4023C78.062 54.4023 77.0655 56.0174 77.029 57.5198H82.1729ZM83.4314 58.5132H77.032C77.032 60.6463 78.1047 62.2523 80.1129 62.2523C81.0622 62.221 81.9924 61.9762 82.8341 61.5361V62.6545C81.9427 63.0343 80.9871 63.2411 80.0184 63.264C76.9193 63.264 75.7522 61.1613 75.7522 58.3456C75.7522 55.472 77.3276 53.4242 79.7137 53.4242C82.3588 53.4242 83.4284 55.5085 83.4284 57.9494L83.4314 58.5132Z" fill="#143B62"/>
<path d="M89.0324 54.4023C86.817 54.4023 86.2533 56.505 86.2533 58.3273C86.2533 60.1496 86.9877 62.0268 88.9593 62.0268C91.0619 62.0268 91.8116 60.0368 91.8116 58.3273C91.8116 56.054 91.1351 54.4023 89.0324 54.4023ZM92.9757 53.6314V62.2492C92.9757 64.8608 91.7933 67.003 88.5631 67.003C87.593 66.9963 86.6324 66.8114 85.7291 66.4576V65.3118C86.6195 65.7439 87.592 65.9808 88.5814 66.0066C91.5678 66.0066 91.8299 63.8277 91.8299 61.1796H91.7933C91.1534 62.5326 90.1416 63.008 88.9379 63.008C85.9333 63.008 84.9764 60.3995 84.9764 58.3151C84.9764 55.4598 86.0856 53.3967 88.8465 53.3967C90.102 53.3967 91.0406 53.7015 91.775 54.6918H91.8116V53.6192L92.9757 53.6314Z" fill="#143B62"/>
<path d="M96.5167 63.0202H95.3526V53.6314H96.5167V63.0202ZM96.5167 51.8121H95.3526V50.2732H96.5167V51.8121Z" fill="#143B62"/>
<path d="M100.981 63.2457C100.09 63.2672 99.2042 63.1139 98.3725 62.7947V61.6306C99.1563 62.0346 100.026 62.2437 100.908 62.2401C102.014 62.2401 102.992 61.6306 102.992 60.5519C102.992 58.3364 98.4852 58.6747 98.4852 55.9504C98.4852 54.0915 99.9876 53.3967 101.533 53.3967C102.307 53.3911 103.075 53.5457 103.788 53.8508V54.8625C103.12 54.5511 102.391 54.3908 101.654 54.3932C100.286 54.3932 99.6463 54.957 99.6463 55.8224C99.6463 56.4959 100.003 56.8341 100.774 57.2089C102.179 57.8672 104.266 58.5619 104.266 60.561C104.266 62.56 102.407 63.2457 100.978 63.2457" fill="#143B62"/>
<path d="M109.894 62.9836C109.45 63.1517 108.98 63.2404 108.505 63.2457C108.029 63.2675 107.559 63.1291 107.17 62.8526C106.533 62.4016 106.366 61.5758 106.366 60.2989V54.6278H104.879V53.6314H106.381V51.3611L107.542 50.9467V53.6314H109.675V54.6278H107.542V60.692C107.542 61.6062 107.847 62.2523 108.8 62.2523C109.183 62.2512 109.562 62.1681 109.91 62.0085L109.894 62.9836Z" fill="#143B62"/>
<path d="M116.864 57.5198C116.864 56.0174 116.205 54.4023 114.478 54.4023C112.75 54.4023 111.756 56.0174 111.735 57.5198H116.864ZM118.122 58.5132H111.723C111.723 60.6463 112.792 62.2523 114.801 62.2523C115.751 62.221 116.682 61.9763 117.525 61.5361V62.6545C116.632 63.0339 115.676 63.2407 114.706 63.264C111.61 63.264 110.44 61.1613 110.44 58.3456C110.44 55.472 112.015 53.4242 114.401 53.4242C117.047 53.4242 118.119 55.5085 118.119 57.9494L118.122 58.5132Z" fill="#143B62"/>
<path d="M124.348 54.7315C124.073 54.6515 123.787 54.6135 123.501 54.6187C121.672 54.6187 121.173 56.6848 121.173 58.373V63.0202H120.009V55.734C120.028 55.0322 120.003 54.3299 119.932 53.6314H121.099V55.4354H121.136C121.511 54.3444 122.3 53.4242 123.501 53.4242C123.787 53.4277 124.071 53.4666 124.348 53.5399V54.7315Z" fill="#143B62"/>
</g>
<defs>
<clipPath id="clip0_6665_376">
<rect width="123.015" height="64" fill="white" transform="translate(1.33331 3)"/>
</clipPath>
</defs>
</svg>
