<svg width="116" height="58" viewBox="0 0 116 58" fill="none" xmlns="http://www.w3.org/2000/svg">
<path d="M29.9185 47.2965L31.9106 52.3401L33.8377 47.2965H35.8298L32.7442 54.8944H31.0337L27.8399 47.2965H29.9185Z" fill="white"/>
<path d="M36.4577 48.9417C36.8041 48.2923 37.2697 47.816 37.8326 47.5346C38.3956 47.2532 38.9911 47.1125 39.5973 47.1125C40.4526 47.1125 41.1672 47.3398 41.7518 47.8052C42.3364 48.2598 42.7262 48.7901 42.921 49.4179C43.1267 50.0673 43.235 50.6192 43.235 51.0738C43.235 51.8423 43.0618 52.5566 42.7153 53.2276C42.4555 53.7363 42.1091 54.1476 41.6868 54.4398C41.2646 54.732 40.864 54.916 40.4959 54.9918C40.1278 55.0567 39.8247 55.1 39.5973 55.1C38.9911 55.1 38.4497 54.981 37.995 54.7537C37.5403 54.5264 37.1614 54.2125 36.8583 53.8337C36.5551 53.4549 36.3278 53.0328 36.1762 52.5566C36.0246 52.0804 35.9489 51.5933 35.9489 51.0955C35.9489 50.2946 36.1221 49.591 36.4577 48.9417ZM37.9842 51.9721C38.06 52.2535 38.1683 52.5025 38.309 52.7081C38.4497 52.9137 38.6338 53.0869 38.8503 53.206C39.0669 53.325 39.3159 53.39 39.5973 53.39H39.6948C39.9979 53.39 40.2469 53.3142 40.4526 53.1519C40.68 52.9679 40.8532 52.7514 40.9939 52.5025C41.1239 52.2535 41.2213 51.9938 41.2754 51.7232C41.3079 51.5284 41.3296 51.366 41.3296 51.2253C41.3296 51.1712 41.3296 51.1171 41.3187 51.0738C41.3187 50.5002 41.1997 50.024 40.9615 49.6343C40.7233 49.2447 40.4743 49.0066 40.2036 48.8984C39.9546 48.801 39.7706 48.7577 39.6298 48.7685H39.5865C39.1426 48.7685 38.7745 48.9308 38.4822 49.2447C38.244 49.5045 38.0817 49.7967 37.995 50.1214C37.9084 50.4461 37.8651 50.7599 37.8651 51.0738C37.8651 51.3877 37.9084 51.6907 37.9842 51.9721Z" fill="white"/>
<path d="M44.6966 48.9417C44.9348 48.4438 45.2704 48.065 45.7034 47.7836C46.1365 47.5022 46.5371 47.3182 46.916 47.2316C47.2624 47.145 47.5439 47.1125 47.7604 47.1125H47.8254C48.1935 47.1125 48.6266 47.1883 49.1246 47.3398V44.3851H51.0625V54.9052H49.2761L49.2004 54.3208C49.0163 54.5264 48.7781 54.6996 48.4858 54.8511C48.1935 55.0026 47.8471 55.0784 47.4465 55.0784C46.9268 55.0784 46.4613 54.9701 46.0607 54.7429C45.6601 54.5156 45.3245 54.2233 45.0538 53.8554C44.7832 53.4874 44.5775 53.0545 44.4367 52.5782C44.296 52.0912 44.2202 51.5933 44.2202 51.063C44.2094 50.2513 44.3718 49.5478 44.6966 48.9417ZM46.2231 51.9288C46.2881 52.2211 46.3963 52.47 46.5371 52.6865C46.6778 52.9029 46.8619 53.0761 47.0784 53.206C47.2949 53.3358 47.5547 53.4008 47.8471 53.4008C48.0852 53.4008 48.3342 53.3358 48.5833 53.206C48.8323 53.0761 49.0163 52.9246 49.1246 52.7406V48.9849C48.7132 48.8334 48.3559 48.7577 48.0636 48.7577C47.5223 48.7577 47.0784 48.9308 46.7428 49.288C46.418 49.6343 46.2231 49.9807 46.169 50.3162C46.1257 50.5543 46.104 50.7491 46.104 50.8898C46.104 50.9331 46.104 50.9764 46.1148 51.0089C46.1148 51.3336 46.1473 51.6366 46.2231 51.9288Z" fill="white"/>
<path d="M52.405 51.5933C52.5782 51.2903 52.8055 51.0413 53.087 50.8357C53.3685 50.6301 53.6717 50.4677 53.9856 50.3595C54.2996 50.2513 54.6027 50.1755 54.8626 50.143C55.0141 50.1214 55.5338 50.0564 56.4432 49.9482V49.84C56.4432 49.4179 56.3349 49.1148 56.1184 48.9417C55.9019 48.7685 55.6096 48.6711 55.2198 48.6711C54.8409 48.6711 54.4728 48.7577 54.1264 48.92C53.7799 49.0824 53.5201 49.2447 53.336 49.3962L52.6865 48.0217C52.903 47.8052 53.3144 47.5888 53.9207 47.3939C54.5486 47.1883 55.0899 47.0909 55.5446 47.0909C56.0318 47.0909 56.454 47.1667 56.8113 47.3182C57.1686 47.4697 57.4717 47.6754 57.7099 47.9459C57.9481 48.2165 58.1213 48.5196 58.2296 48.8767C58.3378 49.2339 58.392 49.6019 58.392 50.0023V54.8944H56.584L56.5082 54.3208C56.3025 54.548 56.0318 54.732 55.707 54.8727C55.3822 55.0026 55.025 55.0784 54.6352 55.0784C54.3104 55.0784 53.9964 55.0243 53.7041 54.916C53.401 54.8078 53.1412 54.6455 52.903 54.4398C52.6756 54.2342 52.4808 53.9852 52.34 53.6822C52.1993 53.3791 52.1235 53.0436 52.1235 52.6648C52.1451 52.2535 52.2317 51.8964 52.405 51.5933ZM54.3321 53.2276C54.5161 53.3791 54.7759 53.4549 55.1224 53.4549C55.3714 53.4549 55.6204 53.4008 55.8586 53.2926C56.0968 53.1843 56.3025 53.0545 56.4649 52.8921V51.3444C55.8261 51.4202 55.3931 51.4743 55.1873 51.5067C54.7651 51.5933 54.4728 51.734 54.3104 51.9397C54.148 52.1453 54.0614 52.3726 54.0614 52.6107C54.0506 52.8705 54.1372 53.0653 54.3321 53.2276Z" fill="white"/>
<path d="M59.4421 47.2965H60.449V46.8853C60.449 46.1493 60.6005 45.5648 60.9037 45.1319C61.196 44.6882 61.5424 44.4284 61.943 44.331C62.3219 44.2336 62.6576 44.1795 62.9499 44.1687C63.4262 44.1687 63.816 44.2119 64.13 44.2985C64.4439 44.3851 64.628 44.4501 64.6821 44.4825L64.4547 46.106C64.3898 46.0735 64.2707 46.0302 64.0866 45.9761C63.9026 45.922 63.6536 45.8895 63.3505 45.8895C63.0798 45.8895 62.8524 45.9653 62.6684 46.1276C62.4843 46.29 62.3869 46.5497 62.3869 46.9286V47.2857H64.0325V48.8659H62.4086V54.8944H60.449V48.8659H59.4421V47.2965Z" fill="white"/>
<path d="M64.9095 48.9417C65.2559 48.2923 65.7214 47.816 66.2844 47.5346C66.8474 47.2532 67.4428 47.1125 68.0491 47.1125C68.9044 47.1125 69.6189 47.3398 70.2036 47.8052C70.7882 48.2598 71.1779 48.7901 71.3728 49.4179C71.5785 50.0673 71.6868 50.6192 71.6868 51.0738C71.6868 51.8423 71.5136 52.5566 71.1671 53.2276C70.9073 53.7363 70.5608 54.1476 70.1386 54.4398C69.7164 54.732 69.3158 54.916 68.9477 54.9918C68.5796 55.0567 68.2765 55.1 68.0491 55.1C67.4428 55.1 66.9015 54.981 66.4468 54.7537C65.9921 54.5264 65.6132 54.2125 65.31 53.8337C65.0069 53.4549 64.7795 53.0328 64.628 52.5566C64.4764 52.0804 64.4006 51.5933 64.4006 51.0955C64.4114 50.2946 64.5738 49.591 64.9095 48.9417ZM66.4468 51.9721C66.5226 52.2535 66.6309 52.5025 66.7716 52.7081C66.9123 52.9137 67.0964 53.0869 67.3129 53.206C67.5294 53.325 67.7784 53.39 68.0599 53.39H68.1574C68.4605 53.39 68.7095 53.3142 68.9152 53.1519C69.1426 52.9679 69.3158 52.7514 69.4565 52.5025C69.5973 52.2535 69.6839 51.9938 69.738 51.7232C69.7705 51.5284 69.7922 51.366 69.7922 51.2253C69.7922 51.1712 69.7922 51.1171 69.7813 51.0738C69.7813 50.5002 69.6622 50.024 69.4241 49.6343C69.1859 49.2447 68.9369 49.0066 68.6662 48.8984C68.4172 48.801 68.2332 48.7577 68.0924 48.7685H68.0491C67.6052 48.7685 67.2371 48.9308 66.9448 49.2447C66.7066 49.5045 66.5442 49.7967 66.4576 50.1214C66.371 50.4461 66.3277 50.7599 66.3277 51.0738C66.3277 51.3877 66.371 51.6907 66.4468 51.9721Z" fill="white"/>
<path d="M74.5991 47.2965L74.6965 47.9026C74.9996 47.6537 75.3461 47.4589 75.725 47.3182C76.1148 47.1775 76.4937 47.1125 76.8834 47.1125C77.4897 47.1125 78.0202 47.2532 78.4424 47.5238C78.8755 47.7944 79.1786 48.2057 79.3519 48.736C79.5251 49.2664 79.6117 49.8292 79.6117 50.4136V54.916H77.6521V50.576C77.6521 49.9915 77.533 49.5478 77.2948 49.2339C77.0567 48.92 76.7211 48.7577 76.2772 48.7577C75.974 48.7577 75.6925 48.8334 75.4327 48.9958C75.1729 49.1581 74.9455 49.3313 74.7615 49.5153V54.9052H72.8019V47.2965H74.5991Z" fill="white"/>
<path d="M81.0408 49.3962C81.2248 48.8984 81.4738 48.4871 81.7986 48.1516C82.1234 47.8161 82.4915 47.5563 82.9246 47.3723C83.3468 47.1883 83.8015 47.1017 84.2887 47.1017C85.144 47.1017 85.8369 47.3398 86.3782 47.8052C86.9195 48.2814 87.2768 48.8334 87.4283 49.4828C87.5907 50.1106 87.6665 50.695 87.6665 51.2362V51.5825H82.7405C82.7838 52.2211 82.9787 52.6865 83.336 52.9679C83.6932 53.2493 84.1588 53.39 84.7218 53.39C85.2198 53.39 85.6636 53.3142 86.0426 53.1519C86.4215 53.0003 86.6813 52.8488 86.8221 52.7081L87.3417 54.2991C87.1144 54.4723 86.887 54.5913 86.6813 54.6563C86.5514 54.7212 86.2374 54.797 85.7503 54.8944C85.2631 55.0026 84.8408 55.0567 84.4511 55.0567C83.9531 55.0567 83.4875 54.981 83.0328 54.8186C82.5781 54.6563 82.1884 54.4182 81.8528 54.0826C81.5171 53.7471 81.2465 53.3358 81.0516 52.8488C80.8567 52.3509 80.7593 51.7665 80.7593 51.0738C80.7701 50.4569 80.8567 49.8833 81.0408 49.3962ZM85.6745 50.1863C85.642 49.7534 85.5229 49.4287 85.2956 49.1906C85.079 48.9633 84.8733 48.8118 84.6676 48.7577C84.4727 48.7035 84.3428 48.6711 84.267 48.6711C83.9314 48.6711 83.6066 48.801 83.3035 49.0499C83.0004 49.2988 82.8271 49.6776 82.773 50.1863H85.6745Z" fill="white"/>
<path d="M66.0246 4.69667C62.6684 5.17288 60.0701 8.30077 60.0051 12.1105C64.6496 12.9655 68.1574 16.0826 68.1574 21.6457C68.1574 27.014 63.6969 31.3541 58.1213 31.3541C52.5782 31.3649 48.0852 26.4945 48.0852 20.1846C48.0852 11.4828 55.8153 4.26374 65.5915 4.49103C63.3071 3.47365 60.7846 2.90002 58.1213 2.90002C48.0528 2.90002 39.8788 11.0607 39.8788 21.137C39.8788 31.2134 48.0528 39.374 58.1213 39.374C68.1898 39.374 76.3638 31.2134 76.3638 21.137C76.3638 13.8963 72.1415 7.64056 66.0246 4.69667Z" fill="white"/>
</svg>
