<svg width="195" height="70" viewBox="0 0 195 70" fill="none" xmlns="http://www.w3.org/2000/svg">
<path d="M64.0118 41.23C63.2499 40.4596 62.6455 39.5449 62.2332 38.5381C61.8209 37.5313 61.6086 36.4522 61.6086 35.3624C61.6086 34.2726 61.8209 33.1935 62.2332 32.1867C62.6455 31.18 63.2499 30.2653 64.0118 29.4949C65.6249 27.9694 67.7506 27.1207 69.9587 27.1207C72.1668 27.1207 74.2925 27.9694 75.9056 29.4949C76.6675 30.2653 77.2719 31.18 77.6842 32.1867C78.0966 33.1935 78.3088 34.2726 78.3088 35.3624C78.3088 36.4522 78.0966 37.5313 77.6842 38.5381C77.2719 39.5449 76.6675 40.4596 75.9056 41.23C74.2925 42.7555 72.1668 43.6041 69.9587 43.6041C67.7506 43.6041 65.6249 42.7555 64.0118 41.23ZM65.7952 31.1381C64.8005 32.1167 64.1731 33.4148 64.0204 34.81C63.8677 36.2052 64.1992 37.6108 64.9582 38.7859C65.7171 39.961 66.8563 40.8325 68.1805 41.2512C69.5048 41.67 70.9318 41.6099 72.217 41.0812C73.5023 40.5525 74.5658 39.5881 75.2255 38.3532C75.8853 37.1183 76.1001 35.6898 75.8333 34.3123C75.5665 32.9347 74.8345 31.6939 73.7629 30.8023C72.6913 29.9107 71.3466 29.4239 69.9592 29.4251C69.1861 29.4062 68.4174 29.5485 67.701 29.8432C66.9846 30.1379 66.3359 30.5787 65.7952 31.1381Z" fill="#000A1E"/>
<path d="M84.1998 27.3711H90.9476C91.7769 27.3218 92.6074 27.4431 93.3891 27.7278C94.1707 28.0124 94.8872 28.4544 95.4953 29.027C96.5476 30.1381 97.1342 31.618 97.1322 33.1568C97.1302 34.6956 96.5398 36.1739 95.4846 37.2821C94.8797 37.8568 94.1657 38.3013 93.386 38.5884C92.6063 38.8756 91.7771 38.9996 90.9486 38.9528H86.5932V43.3595H84.1998V27.3711ZM86.5902 36.665H90.3784C91.525 36.7567 92.666 36.4285 93.5934 35.7402C94.2659 35.0512 94.6429 34.1219 94.6429 33.1536C94.6429 32.1853 94.2659 31.256 93.5934 30.567C92.6691 29.8715 91.5268 29.5387 90.3784 29.6305H86.5902V36.665Z" fill="#000A1E"/>
<path d="M114.418 27.3712H116.81V36.6189C116.843 37.5412 116.693 38.4609 116.369 39.3237C116.046 40.1865 115.554 40.975 114.925 41.6427C113.468 42.91 111.61 43.6069 109.689 43.6069C107.768 43.6069 105.91 42.91 104.454 41.6427C103.824 40.975 103.333 40.1864 103.009 39.3236C102.686 38.4608 102.536 37.5411 102.569 36.6189V27.3712H104.962V36.4125C104.923 37.0653 105.013 37.7195 105.226 38.3369C105.439 38.9544 105.771 39.5229 106.203 40.0094C107.178 40.8427 108.414 41.2998 109.69 41.2998C110.967 41.2998 112.202 40.8427 113.177 40.0094C113.609 39.5228 113.941 38.9542 114.154 38.3368C114.367 37.7193 114.456 37.0653 114.418 36.4125V27.3712Z" fill="#000A1E"/>
<path d="M123.467 43.3546V27.3712H125.86V41.0481H134.684V43.3537L123.467 43.3546Z" fill="#000A1E"/>
<path d="M140.4 41.23C139.639 40.4596 139.034 39.5449 138.622 38.5381C138.209 37.5313 137.997 36.4522 137.997 35.3624C137.997 34.2726 138.209 33.1935 138.622 32.1867C139.034 31.18 139.639 30.2653 140.4 29.4949C142.014 27.9694 144.139 27.1207 146.347 27.1207C148.555 27.1207 150.681 27.9694 152.294 29.4949C153.056 30.2653 153.661 31.18 154.073 32.1867C154.485 33.1935 154.697 34.2726 154.697 35.3624C154.697 36.4522 154.485 37.5313 154.073 38.5381C153.661 39.5449 153.056 40.4596 152.294 41.23C150.681 42.7555 148.555 43.6041 146.347 43.6041C144.139 43.6041 142.014 42.7555 140.4 41.23ZM142.184 31.1381C141.189 32.1167 140.562 33.4148 140.409 34.81C140.256 36.2052 140.588 37.6108 141.347 38.7859C142.106 39.961 143.245 40.8325 144.569 41.2512C145.893 41.67 147.32 41.6099 148.606 41.0812C149.891 40.5525 150.954 39.5881 151.614 38.3532C152.274 37.1183 152.489 35.6898 152.222 34.3123C151.955 32.9347 151.223 31.6939 150.152 30.8023C149.08 29.9107 147.735 29.4239 146.348 29.4251C145.575 29.4067 144.807 29.5493 144.092 29.844C143.376 30.1387 142.728 30.5792 142.188 31.1381H142.184Z" fill="#000A1E"/>
<path d="M172.191 27.3712H174.583V36.6189C174.616 37.5412 174.467 38.4609 174.143 39.3237C173.819 40.1865 173.328 40.975 172.698 41.6427C171.241 42.91 169.384 43.6069 167.462 43.6069C165.541 43.6069 163.684 42.91 162.227 41.6427C161.597 40.9749 161.106 40.1864 160.783 39.3236C160.459 38.4608 160.309 37.5411 160.343 36.6189V27.3712H162.735V36.4125C162.696 37.0653 162.786 37.7194 162.999 38.3369C163.212 38.9543 163.544 39.5228 163.976 40.0094C164.952 40.8427 166.187 41.2998 167.463 41.2998C168.74 41.2998 169.975 40.8427 170.951 40.0094C171.383 39.5229 171.715 38.9544 171.928 38.3369C172.141 37.7195 172.231 37.0653 172.192 36.4125L172.191 27.3712Z" fill="#000A1E"/>
<path d="M180.247 39.2901L182.617 38.6021C182.664 39.0367 182.811 39.4541 183.046 39.8208C183.281 40.1876 183.598 40.4935 183.971 40.7141C184.899 41.2175 185.943 41.4579 186.995 41.4098C187.965 41.4645 188.931 41.2555 189.794 40.8045C190.094 40.6477 190.346 40.4101 190.521 40.1179C190.696 39.8257 190.788 39.4903 190.787 39.1485C190.795 38.9048 190.743 38.6628 190.637 38.4438C190.531 38.2248 190.373 38.0356 190.178 37.8926C189.977 37.7315 189.761 37.59 189.534 37.47C189.254 37.3311 188.964 37.2163 188.665 37.127C188.304 37.013 187.984 36.9177 187.706 36.841C187.427 36.7654 187.064 36.674 186.611 36.5678C186.446 36.5216 186.32 36.4922 186.227 36.4774C185.484 36.3094 184.753 36.0924 184.038 35.8278C183.407 35.5857 182.803 35.2794 182.233 34.9139C181.672 34.5678 181.209 34.0797 180.89 33.4977C180.574 32.8976 180.415 32.2258 180.427 31.546C180.41 30.9131 180.549 30.2859 180.833 29.7216C181.117 29.1572 181.535 28.6736 182.051 28.3147C183.347 27.4539 184.88 27.0342 186.428 27.1167C188.05 27.048 189.654 27.4866 191.021 28.3727C191.599 28.7642 192.068 29.2997 192.382 29.9276C192.696 30.5555 192.845 31.2546 192.815 31.9578V32.2309H190.426V32.1169C190.445 31.7043 190.355 31.2941 190.164 30.9288C189.974 30.5635 189.69 30.2564 189.342 30.0394C188.451 29.5243 187.433 29.2788 186.408 29.3318C185.507 29.2789 184.61 29.489 183.824 29.9372C183.545 30.0999 183.313 30.3346 183.153 30.6173C182.992 30.9001 182.909 31.2209 182.91 31.547C182.905 31.8484 182.983 32.1453 183.137 32.4039C183.276 32.6427 183.456 32.8552 183.667 33.0319C183.949 33.2422 184.261 33.4079 184.593 33.5233C185.006 33.6838 185.36 33.8057 185.653 33.8889C185.947 33.9721 186.372 34.0821 186.929 34.2191C187.771 34.4326 188.437 34.6118 188.927 34.7566C189.5 34.9337 190.061 35.1471 190.607 35.3954C191.133 35.6114 191.621 35.9121 192.052 36.2858C192.407 36.6303 192.697 37.036 192.91 37.4838C193.158 38.0044 193.282 38.5766 193.272 39.1544C193.295 39.8052 193.15 40.4508 192.851 41.0275C192.552 41.6042 192.11 42.092 191.568 42.4427C190.179 43.2874 188.572 43.6929 186.953 43.6073C185.351 43.6701 183.762 43.287 182.36 42.4997C181.784 42.1689 181.293 41.7063 180.926 41.1489C180.56 40.5915 180.327 39.9549 180.247 39.2901Z" fill="#000A1E"/>
<path d="M1.68592 34.9648C1.68592 30.7695 1.69855 26.5751 1.67718 22.3797C1.65312 21.8842 1.7715 21.3922 2.018 20.9634C2.26451 20.5345 2.62858 20.1871 3.06616 19.9632C7.61518 17.3169 12.1619 14.6671 16.7064 12.0137C19.3125 10.4943 21.9254 8.98778 24.5217 7.45174C24.9652 7.15849 25.4831 7.00158 26.0128 7.00001C26.5426 6.99844 27.0615 7.15227 27.5066 7.44289C34.6529 11.6222 41.8054 15.792 48.964 19.9523C49.3006 20.124 49.5961 20.3678 49.83 20.6669C50.0639 20.966 50.2304 21.313 50.3181 21.6839C50.3572 21.8733 50.3757 22.0664 50.3734 22.2599C50.3734 30.7462 50.3734 39.2329 50.3734 47.72C50.3858 48.1767 50.2714 48.6278 50.0432 49.0221C49.815 49.4164 49.4822 49.7381 49.0825 49.9508C47.646 50.7989 46.2006 51.6343 44.7582 52.4745C39.0598 55.7949 33.3614 59.1147 27.6629 62.4337C27.3638 62.6207 27.0457 62.7746 26.714 62.8927C26.3679 62.9981 26.0035 63.0263 25.6456 62.9754C25.2878 62.9245 24.9451 62.7957 24.6412 62.5979C22.7167 61.471 20.7899 60.348 18.8608 59.229C17.7244 58.5666 16.5938 57.8914 15.4495 57.2428C14.9967 57.011 14.6199 56.6514 14.3646 56.2076C14.1094 55.7637 13.9865 55.2546 14.011 54.7417C14.0169 52.3133 14.011 49.883 14.011 47.4536C13.9797 46.8223 14.1808 46.2015 14.5755 45.7114C14.9702 45.2213 15.5304 44.8967 16.1479 44.8002C16.7714 44.7038 17.4082 44.8408 17.9391 45.1854C19.6971 46.2147 21.4575 47.2411 23.2201 48.2644C23.9826 48.7096 24.7548 49.1381 25.5018 49.6069C25.6492 49.7141 25.8263 49.7717 26.0078 49.7717C26.1894 49.7717 26.3664 49.7141 26.5139 49.6069C29.681 47.7429 32.854 45.8904 36.0328 44.0494C36.8099 43.5973 37.5801 43.1345 38.364 42.6971C38.5013 42.6356 38.6164 42.5326 38.6935 42.4022C38.7705 42.2718 38.8058 42.1204 38.7943 41.9689C38.7846 37.3205 38.7846 32.6721 38.7943 28.0237C38.8075 27.8727 38.7748 27.7213 38.7007 27.5896C38.6266 27.4579 38.5146 27.3522 38.3796 27.2866C34.3958 24.9765 30.417 22.6579 26.443 20.3307C26.3119 20.2419 26.1572 20.1956 25.9995 20.1979C25.8418 20.2002 25.6886 20.2509 25.5601 20.3435C21.6003 22.6621 17.6347 24.9713 13.6633 27.2709C13.5096 27.3516 13.3844 27.4784 13.3047 27.6339C13.2251 27.7894 13.1949 27.9661 13.2184 28.1396C13.2255 35.8319 13.2255 43.5253 13.2184 51.2196C13.2294 51.4945 13.2118 51.7699 13.166 52.0411C13.0873 52.4315 12.9191 52.7978 12.675 53.1104C12.4308 53.423 12.1176 53.6733 11.7604 53.8411C11.4032 54.0088 11.0121 54.0894 10.6185 54.0764C10.225 54.0633 9.83992 53.957 9.49438 53.7659C8.8873 53.4376 8.30061 53.0779 7.70422 52.7261C6.1378 51.8135 4.57107 50.9011 3.004 49.9891C2.56516 49.7488 2.20122 49.3894 1.95303 48.9513C1.75494 48.5799 1.65647 48.1625 1.66745 47.7406C1.68429 43.482 1.69045 39.2234 1.68592 34.9648ZM10.7114 51.5222V50.8294C10.7114 43.2164 10.7095 35.6036 10.7056 27.9912C10.6782 27.398 10.8202 26.8094 11.1145 26.2957C11.4089 25.7819 11.8432 25.3648 12.3656 25.0941C16.3804 22.7702 20.3871 20.4355 24.3857 18.09C24.8743 17.7751 25.4416 17.6077 26.0209 17.6077C26.6003 17.6077 27.1676 17.7751 27.6562 18.09C31.6587 20.4323 35.6654 22.7666 39.6763 25.0931C40.2057 25.3699 40.6451 25.7952 40.9419 26.3181C41.2387 26.8409 41.3803 27.4392 41.3498 28.0414C41.3401 32.6741 41.3401 37.3064 41.3498 41.9384C41.3794 42.5483 41.2342 43.1538 40.9318 43.6823C40.6294 44.2107 40.1827 44.6395 39.6452 44.9172C35.6297 47.2374 31.6289 49.5823 27.6222 51.9144C27.4171 52.0402 27.2001 52.1449 26.9743 52.2269C26.5562 52.3707 26.1117 52.4188 25.673 52.3679C25.2343 52.3169 24.8122 52.168 24.4372 51.932C21.9869 50.4966 19.5336 49.0657 17.0775 47.6394C16.9299 47.5539 16.7812 47.4733 16.5646 47.3524V47.9116C16.5646 50.0973 16.5734 52.2848 16.5569 54.4715C16.5428 54.6202 16.5755 54.7697 16.6504 54.8985C16.7252 55.0273 16.8383 55.1289 16.9735 55.1889C19.85 56.8491 22.7192 58.522 25.5814 60.2078C25.7065 60.3006 25.8572 60.3514 26.0123 60.3529C26.1673 60.3545 26.319 60.3069 26.4459 60.2166C33.4394 56.1251 40.4407 52.0451 47.4497 47.9765C47.5906 47.9096 47.7072 47.7998 47.7833 47.6625C47.8594 47.5253 47.8912 47.3674 47.8742 47.2109C47.8632 39.0639 47.8632 30.9169 47.8742 22.7699C47.8875 22.6133 47.8523 22.4564 47.7735 22.3209C47.6946 22.1855 47.5761 22.0783 47.4342 22.0142C40.4562 17.9587 33.4812 13.8966 26.509 9.82803C26.3449 9.72976 26.1798 9.6413 26.0117 9.54794C18.7236 13.796 11.4561 18.0314 4.20941 22.2539V47.7416C6.35894 48.9877 8.48905 50.2279 10.7114 51.5222Z" fill="#000A1E"/>
<path d="M18.007 34.9766C18.007 33.7629 18.0235 32.5482 18.0002 31.3345C17.9785 31.0188 18.0507 30.7038 18.2075 30.43C18.3644 30.1563 18.5987 29.9363 18.8802 29.7984C20.9802 28.5929 23.0728 27.3737 25.1579 26.1407C25.4125 25.9712 25.7104 25.8804 26.0152 25.8793C26.32 25.8783 26.6184 25.967 26.8742 26.1347C28.9891 27.3796 31.1092 28.6159 33.2344 29.8437C33.4923 29.977 33.7067 30.1826 33.8519 30.4361C33.9971 30.6895 34.067 30.9799 34.0532 31.2726C34.0487 33.7504 34.0487 36.2276 34.0532 38.7041C34.0666 39.0044 33.9936 39.3022 33.8431 39.5614C33.6926 39.8206 33.471 40.0301 33.2053 40.1645C31.0943 41.3838 28.9878 42.6119 26.8859 43.8489C26.6313 44.0185 26.3335 44.1094 26.0287 44.1107C25.7239 44.1119 25.4254 44.0233 25.1695 43.8557C23.0682 42.6181 20.9614 41.3903 18.8491 40.1724C18.576 40.0352 18.3493 39.8191 18.1978 39.5514C18.0463 39.2837 17.9769 38.9765 17.9983 38.6688C18.0226 37.4374 18.007 36.207 18.007 34.9766ZM26.033 27.2787C25.9833 27.2967 25.9346 27.3177 25.8873 27.3416C23.8077 28.5513 21.732 29.765 19.6485 30.966C19.5518 31.0191 19.4739 31.1014 19.4257 31.2015C19.3774 31.3016 19.3613 31.4144 19.3795 31.5242C19.3853 33.8385 19.3873 36.1529 19.3795 38.4673C19.3698 38.593 19.3991 38.7186 19.4634 38.8266C19.5276 38.9346 19.6236 39.0196 19.7379 39.0697C21.0744 39.8343 22.4003 40.6156 23.731 41.39L26.0175 42.7226C26.1748 42.6361 26.3138 42.5605 26.4517 42.4809C28.3943 41.3507 30.3273 40.2156 32.2748 39.0982C32.4026 39.0392 32.5089 38.9411 32.5786 38.8177C32.6484 38.6942 32.678 38.5517 32.6633 38.4103C32.6484 36.1277 32.6484 33.8458 32.6633 31.5645C32.6766 31.4234 32.6457 31.2817 32.5749 31.1594C32.5041 31.0372 32.397 30.9406 32.2689 30.8834C30.2942 29.7493 28.3312 28.5985 26.3623 27.4526C26.2516 27.3927 26.1428 27.3357 26.033 27.2767V27.2787Z" fill="#000A1E"/>
</svg>
