<svg width="157" height="70" viewBox="0 0 157 70" fill="none" xmlns="http://www.w3.org/2000/svg">
<path d="M12.7801 15.1567L11.3784 15.3436L11.5653 20.6697L9.66537 21.5107C5.36712 23.5041 1.90982 28.1138 1.1623 32.9104C-0.0212756 40.6659 5.39826 48.2035 13.185 49.5428L15.2095 49.8854L15.4275 51.9099C15.739 55.1803 15.7078 55.1492 17.5455 54.9C20.411 54.5263 20.3487 54.5886 20.1307 52.6263C20.0061 51.6296 19.8504 50.5083 19.7569 50.0723C19.6323 49.387 19.7569 49.2313 20.7848 48.8576C23.9617 47.7674 27.2633 44.7462 28.8206 41.5069C30.596 37.8316 30.7829 38.2676 26.2666 36.212C24.0552 35.2153 22.1864 34.312 22.0618 34.2186C21.9372 34.1251 23.37 32.7858 25.2388 31.2596C27.1387 29.7646 28.6649 28.363 28.6649 28.1449C28.6649 27.4909 27.3879 25.7155 25.8306 24.1893C23.9929 22.3828 21.1274 20.95 18.293 20.4205L16.2373 20.0468L16.0505 18.614C15.5833 14.783 15.5833 14.783 12.7801 15.1567ZM16.9849 31.5088C21.0339 33.3776 21.6569 33.8448 21.3766 34.6858C21.1274 35.3398 14.8669 40.4168 14.0571 40.6348C13.1538 40.884 12.8735 40.1053 12.3128 35.6202C11.7522 30.9793 11.8456 29.8269 12.7489 29.8269C13.0604 29.8269 14.9603 30.5744 16.9849 31.5088Z" fill="#571194"/>
<path d="M145.777 19.0812C145.559 19.3304 145.092 20.7632 144.718 22.2582C143.97 25.2171 144.251 24.9368 141.323 25.5909C140.482 25.7778 140.451 25.8401 140.544 27.5843L140.638 29.3597L143.565 29.5465L143.659 36.4611C143.752 43.002 143.783 43.438 144.469 44.6216C144.874 45.3068 145.683 46.2412 146.306 46.6461C147.334 47.3314 147.77 47.4248 150.418 47.4248C152.816 47.4248 153.688 47.3002 154.903 46.7396C155.713 46.3658 156.367 45.8986 156.367 45.7429C156.367 45.556 155.868 44.6216 155.245 43.656C154.404 42.3479 154 41.9741 153.626 42.1298C152.318 42.6282 151.477 42.6282 150.978 42.1298C150.511 41.6938 150.449 40.7905 150.449 35.5579V29.5154H156.055V25.1549H150.449V18.614H148.3C146.805 18.614 146.057 18.7386 145.777 19.0812Z" fill="#571194"/>
<path d="M70.5573 24.9991C69.841 25.2483 68.7508 26.027 68.0033 26.8679L66.6951 28.3007L66.5082 27.4286C66.0099 25.186 65.9788 25.1549 63.0821 25.1549H60.4346V47.2691H67.2869V33.253L68.3459 32.0694C69.4049 30.9482 69.4672 30.917 71.6163 30.9793C72.9556 31.0104 73.89 30.8859 74.0769 30.6678C74.2638 30.4498 74.4818 29.1416 74.6064 27.7712L74.8244 25.2483L73.7966 24.8745C72.5507 24.4385 72.1147 24.4696 70.5573 24.9991Z" fill="#571194"/>
<path d="M87.034 25.1237C86.3487 25.4352 85.2586 26.2761 84.6357 27.0237L83.5144 28.3318L83.3275 27.4597C82.8291 25.1549 82.798 25.1549 79.9014 25.1549H77.2539V47.2691H84.1062V33.253L85.1652 32.0694C86.2241 30.9482 86.2864 30.917 88.4356 30.917C89.6191 30.917 90.7404 30.7613 90.8962 30.6055C91.083 30.4187 91.3011 29.1416 91.4257 27.7712L91.6437 25.2483L90.6158 24.8745C89.2454 24.4073 88.529 24.4385 87.034 25.1237Z" fill="#571194"/>
<path d="M99.4304 25.404C96.4091 26.4942 93.824 29.2039 92.9519 32.2252C92.2043 34.8415 92.4535 39.1086 93.5125 41.3823C94.5403 43.6249 96.4403 45.556 98.714 46.615C100.302 47.3625 100.801 47.4248 104.196 47.4248C108.463 47.4248 110.394 46.833 112.574 44.9953L113.82 43.9364L112.605 42.5036C111.142 40.7594 110.394 40.6659 108.058 41.8495C106.189 42.7839 103.417 42.9397 101.922 42.161C100.645 41.5069 99.6484 40.043 99.4615 38.548L99.2747 37.3021H106.314C111.204 37.3021 113.415 37.2087 113.571 36.9595C113.696 36.7726 113.789 35.6825 113.758 34.53C113.727 30.5744 111.671 27.1482 108.463 25.6843C106.376 24.7499 101.704 24.5942 99.4304 25.404ZM105.442 29.64C106.594 30.1383 107.778 31.758 107.778 32.8481C107.778 33.5645 107.715 33.5645 103.573 33.5645C99.6796 33.5645 99.3681 33.5333 99.3681 32.9727C99.3681 32.0694 100.707 30.3252 101.86 29.7646C103.199 29.0793 104.04 29.0793 105.442 29.64Z" fill="#571194"/>
<path d="M126.995 25.2794C126.372 25.5286 125.376 26.0581 124.784 26.5253C123.507 27.4909 123.351 27.522 123.351 26.7745C123.351 25.5909 122.354 25.1549 119.832 25.1549H117.433V47.2691H123.974V31.4154L125.313 30.6055C126.185 30.1072 127.151 29.8269 127.961 29.8269C131.044 29.8269 131.138 30.1695 131.138 39.6381V47.2691H138.021L137.928 38.766C137.803 29.7334 137.803 29.6088 136.121 27.3663C134.502 25.1549 130.141 24.1582 126.995 25.2794Z" fill="#571194"/>
<path d="M34.8943 31.9137C34.8943 41.2577 35.3615 43.656 37.604 45.774C40.2204 48.2658 45.7333 48.2035 48.5677 45.6183C48.9726 45.2445 49.3464 45.0576 49.4398 45.2445C50.125 47.051 50.1873 47.1133 53.0528 47.2068L55.7626 47.3002V25.1549H48.9103V41.0086L47.9136 41.6938C47.2595 42.161 46.3563 42.4413 45.2038 42.5348C43.6465 42.6593 43.3662 42.5659 42.681 41.8184L41.9023 40.9774L41.7154 25.1549H34.8943V31.9137Z" fill="#571194"/>
</svg>
