<?xml version="1.0" encoding="utf-8"?>
<svg version="1.1" id="Layer_1" xmlns="http://www.w3.org/2000/svg" xmlns:xlink="http://www.w3.org/1999/xlink" x="0px" y="0px"
	 viewBox="0 0 141.7 183" style="enable-background:new 0 0 141.7 183;" xml:space="preserve">
<style type="text/css">
	.st0{fill:#161656;fill-opacity:0.2;}
	.st1{fill:#007bff;}
	.st2{fill:#ff6f00;}
	.st3{fill:#161656;}
	.st4{fill:#64f0ff;}
</style>
<title>Cog icon</title>
<g id="Desktop">
	<g id="_x35_-Project-" transform="translate(-758.000000, -3017.000000)">
		<g id="Speed-Copy" transform="translate(758.000000, 3017.000000)">
			<path id="Fill-1" class="st0" d="M63.7,126.7c-15.2,0-27.5-12.3-27.5-27.5s12.3-27.5,27.5-27.5S91.2,84,91.2,99.2
				S78.9,126.7,63.7,126.7"/>
			<path id="Fill-3" class="st1" d="M72.7,124.2c-6.9,0-13.5-2.1-19.1-6.2c-0.7-0.5-0.8-1.4-0.3-2.1s1.4-0.8,2.1-0.3
				c5.4,4,11.9,5.9,18.6,5.6c7.9-0.3,15.2-3.7,20.6-9.5s8.2-13.4,7.8-21.3C101.7,74,87.9,61.3,71.5,62c-9.7,0.4-18.5,5.5-23.8,13.6
				c-0.4,0.7-1.4,0.9-2.1,0.5s-0.9-1.4-0.5-2.1c5.8-9,15.5-14.6,26.2-15c18-0.7,33.3,13.3,34,31.3c0.4,8.7-2.7,17.1-8.6,23.5
				S82.7,124,74,124.3C73.6,124.2,73.2,124.2,72.7,124.2"/>
			<path id="Fill-5" class="st2" d="M48.9,114.1c-0.7,0-1.4-0.3-1.9-0.9c-4.8-5.7-7.6-12.8-7.9-20.3c-0.1-2.9,0.1-5.8,0.8-8.7
				c0.3-1.3,1.6-2.2,3-1.9c1.3,0.3,2.2,1.6,1.9,3c-0.5,2.4-0.8,4.9-0.7,7.4c0.3,6.4,2.6,12.4,6.7,17.3c0.9,1.1,0.8,2.6-0.3,3.5
				C50,113.9,49.4,114.1,48.9,114.1"/>
			<path id="Fill-7" class="st2" d="M88.2,80.8C88.6,80,70,89.3,70,89.3c-3.7,1.4-5.5,5.5-4.1,9.1c1.4,3.7,5.5,5.5,9.1,4.1
				c1.9-0.7,3.3-2.2,4.1-4C81.2,94.4,87.9,81.5,88.2,80.8"/>
			<path id="Fill-9" class="st3" d="M65.5,146c-1.5,0-2.9-1.2-3.1-2.7l-1-7.1c-3-0.6-6-1.5-8.9-2.7l-4,4.9c-1,1.2-2.8,1.5-4.1,0.7
				l-8.9-5.5c-1.3-0.8-1.8-2.5-1.2-4l2.9-6.6c-2.4-2.4-4.4-5.1-6.2-8l-7.8,1.3c-1.5,0.2-3.1-0.7-3.5-2.2l-3.1-10
				c-0.5-1.5,0.3-3.1,1.7-3.8l6.5-3c-0.3-2-0.4-4-0.4-6c0-1.4,0.1-2.8,0.2-4.2l-6.3-3c-1.4-0.7-2.1-2.3-1.7-3.8l3.2-10
				c0.5-1.5,2-2.4,3.5-2.1l6.7,1.2c1.6-2.9,3.5-5.6,5.7-8.1l-3.4-5.5c-0.8-1.3-0.5-3.1,0.7-4.1l8.1-6.6c1.2-1,3-0.9,4.1,0.2l5.2,4.9
				c2.9-1.4,5.9-2.4,8.9-3.2l1-7.7c0.2-1.5,1.6-2.7,3.1-2.7h10.5c1.5,0,2.9,1.2,3.1,2.7l1,7.1c0.8,0.1,1.6,0.3,2.4,0.5l-0.9,3.9
				c-1.2-0.3-2.4-0.5-3.5-0.7l-1.6-0.2l-1.3-9.4h-9l-1.3,9.8l-1.4,0.3c-3.6,0.8-7.2,2-10.5,3.7L49.7,55L43,48.7l-7,5.6l4.6,7.5
				l-1,1.1c-2.7,2.9-5,6.1-6.7,9.6l-0.7,1.3l-8.9-1.5l-2.7,8.5l8.2,3.9l-0.2,1.4c-0.2,1.8-0.3,3.5-0.3,5.2c0,2.3,0.2,4.6,0.6,6.9
				l0.3,1.5l-8.6,3.9l2.7,8.6l9.8-1.6l0.7,1.2c2,3.5,4.4,6.6,7.2,9.4l1,1l-3.8,8.4l7.6,4.7l5.5-6.7l1.4,0.6c3.4,1.6,7,2.7,10.7,3.3
				l1.5,0.2l1.3,9.3l9-0.1l1.2-9.4l1.4-0.3c4-0.8,7.9-2.1,11.6-4.1l1.4-0.7l6,6.5l7.4-5.1l-1.9-3.8l3.6-1.8l2.3,4.4
				c0.7,1.4,0.3,3.1-1,4l-8.6,6c-1.3,0.9-3.1,0.7-4.1-0.4l-4.4-4.8c-3.2,1.5-6.5,2.7-9.9,3.5l-0.9,7.3c-0.2,1.5-1.6,2.7-3.1,2.7
				L65.5,146L65.5,146z"/>
			<g id="Group-13" transform="translate(72.000000, 6.529000)">
				<g id="Clip-12">
				</g>
				<path id="Fill-11" class="st4" d="M36.3,108.9l-2.5-1.6c0.7-1.2,1.4-2.4,2.1-3.6l0.5-1l10.1,1.7l3-9.4L40,90.6l0.1-1.1
					c0.2-1.6,0.3-3.1,0.3-4.7c0-2.5-0.2-5.1-0.7-7.6l-0.2-1l8.4-5.3l-4.1-9l-8.7,2.6l-0.6-1c-2-3.4-4.5-6.5-7.3-9.2l-0.8-0.8
					l4.2-7.7L22.7,40L19,43.8l-2.1-2.1l3.9-4c0.9-0.9,2.4-1.1,3.5-0.3l8.4,6.2c1,0.8,1.4,2.3,0.7,3.4l-3.3,6
					c2.4,2.4,4.6,5.1,6.4,8.1l6.7-2c1.2-0.4,2.6,0.3,3.2,1.4l4.3,9.5c0.5,1.2,0.1,2.6-1,3.3l-7,4.4c0.4,2.4,0.6,4.8,0.6,7.2
					c0,1.3-0.1,2.6-0.2,4l7.8,3.6c1.2,0.5,1.8,1.9,1.4,3.2l-3.1,10c-0.4,1.2-1.7,2-3,1.8l-8.2-1.4C37.5,107,36.9,108,36.3,108.9"/>
			</g>
		</g>
	</g>
</g>
</svg>
