<svg width="144" height="50" viewBox="0 0 144 50" fill="none" xmlns="http://www.w3.org/2000/svg">
<path d="M25.7363 8.90204C22.451 9.36834 19.9076 12.4311 19.844 16.1615C24.3904 16.9987 27.824 20.0508 27.824 25.4981C27.824 30.7545 23.4578 35.0042 18 35.0042C12.5739 35.0148 8.17589 30.2458 8.17589 24.0674C8.17589 15.5468 15.7427 8.47813 25.3124 8.70069C23.0763 7.7045 20.607 7.14282 18 7.14282C8.14409 7.14282 0.142822 15.1335 0.142822 25C0.142822 34.8664 8.14409 42.8571 18 42.8571C27.8558 42.8571 35.8571 34.8664 35.8571 25C35.8571 17.9101 31.724 11.7846 25.7363 8.90204Z" fill="#E60000"/>
<path d="M45.2521 19.3325L48.6328 27.8817L51.9032 19.3325H55.2839L50.0475 32.2113H47.1446L41.7245 19.3325H45.2521Z" fill="#E60000"/>
<path d="M56.3496 22.1211C56.9375 21.0204 57.7276 20.2131 58.683 19.7361C59.6384 19.2591 60.6489 19.0207 61.6778 19.0207C63.1293 19.0207 64.3419 19.4059 65.3341 20.1948C66.3262 20.9653 66.9877 21.8643 67.3184 22.9283C67.6675 24.0291 67.8512 24.9647 67.8512 25.7353C67.8512 27.0378 67.5573 28.2486 66.9693 29.3861C66.5284 30.2483 65.9404 30.9455 65.2238 31.4408C64.5073 31.9362 63.8275 32.248 63.2028 32.3765C62.5781 32.4865 62.0637 32.5599 61.6778 32.5599C60.6489 32.5599 59.7302 32.3581 58.9586 31.9728C58.1869 31.5876 57.5438 31.0555 57.0294 30.4134C56.5149 29.7713 56.1291 29.0558 55.8719 28.2486C55.6146 27.4414 55.486 26.6159 55.486 25.7719C55.486 24.4143 55.78 23.2219 56.3496 22.1211ZM58.9402 27.258C59.0688 27.7349 59.2525 28.1569 59.4914 28.5055C59.7302 28.8541 60.0426 29.1476 60.4101 29.3494C60.7775 29.5512 61.2001 29.6613 61.6778 29.6613H61.8432C62.3576 29.6613 62.7802 29.5328 63.1293 29.2577C63.5151 28.9458 63.8091 28.5789 64.048 28.1569C64.2684 27.7349 64.4338 27.2947 64.5257 26.836C64.5808 26.5058 64.6175 26.2306 64.6175 25.9921C64.6175 25.9004 64.6175 25.8086 64.5992 25.7353C64.5992 24.7629 64.397 23.9557 63.9928 23.2952C63.5886 22.6348 63.166 22.2312 62.7067 22.0477C62.2841 21.8826 61.9718 21.8092 61.7329 21.8276H61.6594C60.9061 21.8276 60.2814 22.1028 59.7854 22.6348C59.3812 23.0751 59.1056 23.5704 58.9586 24.1208C58.8116 24.6712 58.7381 25.2032 58.7381 25.7353C58.7381 26.2673 58.8116 26.781 58.9402 27.258Z" fill="#E60000"/>
<path d="M70.3316 22.1211C70.7358 21.2772 71.3054 20.6351 72.0403 20.1581C72.7753 19.6811 73.4551 19.3692 74.0981 19.2225C74.6861 19.0757 75.1638 19.0207 75.5312 19.0207H75.6415C76.2662 19.0207 77.0011 19.1491 77.8463 19.4059V14.3975H81.1351V32.2297H78.1035L77.9749 31.239C77.6625 31.5876 77.2583 31.8811 76.7623 32.138C76.2662 32.3948 75.6782 32.5232 74.9984 32.5232C74.1165 32.5232 73.3265 32.3398 72.6466 31.9545C71.9668 31.5692 71.3973 31.0739 70.9379 30.4501C70.4786 29.8264 70.1295 29.0925 69.8907 28.2853C69.6518 27.4598 69.5232 26.6159 69.5232 25.7169C69.5048 24.341 69.7804 23.1485 70.3316 22.1211ZM72.9222 27.1846C73.0325 27.6799 73.2162 28.1019 73.4551 28.4688C73.6939 28.8357 74.0063 29.1292 74.3737 29.3494C74.7412 29.5695 75.1822 29.6796 75.6782 29.6796C76.0824 29.6796 76.505 29.5695 76.9276 29.3494C77.3502 29.1292 77.6626 28.8724 77.8463 28.5605V22.1945C77.1481 21.9376 76.5418 21.8092 76.0457 21.8092C75.127 21.8092 74.3737 22.1028 73.8042 22.7082C73.253 23.2952 72.9222 23.8823 72.8304 24.451C72.7569 24.8546 72.7201 25.1849 72.7201 25.4234C72.7201 25.4967 72.7201 25.5701 72.7385 25.6252C72.7385 26.1756 72.7936 26.6892 72.9222 27.1846Z" fill="#E60000"/>
<path d="M83.4134 26.6159C83.7073 26.1022 84.0932 25.6802 84.5709 25.3316C85.0486 24.9831 85.563 24.7079 86.0959 24.5244C86.6287 24.341 87.1431 24.2125 87.5841 24.1575C87.8413 24.1208 88.7233 24.0107 90.2666 23.8273V23.6438C90.2666 22.9283 90.0829 22.4146 89.7154 22.1211C89.3479 21.8276 88.8519 21.6625 88.1904 21.6625C87.5474 21.6625 86.9227 21.8092 86.3347 22.0844C85.7468 22.3596 85.3058 22.6348 84.9935 22.8916L83.8911 20.5617C84.2585 20.1948 84.9567 19.8279 85.9856 19.4976C87.0513 19.1491 87.9699 18.984 88.7416 18.984C89.5684 18.984 90.285 19.1124 90.8913 19.3692C91.4976 19.6261 92.012 19.9746 92.4163 20.4333C92.8205 20.8919 93.1145 21.4056 93.2982 22.011C93.4819 22.6164 93.5738 23.2402 93.5738 23.919V32.2113H90.5054L90.3768 31.239C90.0277 31.6243 89.5684 31.9362 89.0172 32.1747C88.466 32.3948 87.8597 32.5232 87.1983 32.5232C86.6471 32.5232 86.1142 32.4315 85.6182 32.248C85.1037 32.0646 84.6628 31.7894 84.2585 31.4408C83.8727 31.0922 83.542 30.6703 83.3031 30.1566C83.0643 29.6429 82.9357 29.0742 82.9357 28.4321C82.9724 27.735 83.1194 27.1295 83.4134 26.6159ZM86.6838 29.3861C86.9962 29.6429 87.4371 29.7713 88.0251 29.7713C88.4476 29.7713 88.8702 29.6796 89.2744 29.4962C89.6786 29.3127 90.0277 29.0925 90.3033 28.8174V26.1939C89.2193 26.3223 88.4844 26.414 88.1353 26.4691C87.4187 26.6159 86.9227 26.8543 86.6471 27.2029C86.3715 27.5515 86.2245 27.9368 86.2245 28.3404C86.2061 28.7807 86.3531 29.1109 86.6838 29.3861Z" fill="#E60000"/>
<path d="M95.356 19.3325H97.0647V18.6354C97.0647 17.3879 97.3219 16.3972 97.8364 15.6634C98.3325 14.9112 98.9204 14.4709 99.6002 14.3058C100.243 14.1407 100.813 14.0489 101.309 14.0306C102.117 14.0306 102.779 14.104 103.312 14.2507C103.844 14.3975 104.157 14.5076 104.249 14.5626L103.863 17.3145C103.753 17.2595 103.55 17.1861 103.238 17.0943C102.926 17.0026 102.503 16.9476 101.989 16.9476C101.529 16.9476 101.144 17.076 100.831 17.3512C100.519 17.6264 100.354 18.0667 100.354 18.7088V19.3142H103.146V21.9927H100.39V32.2113H97.0647V21.9927H95.356V19.3325Z" fill="#E60000"/>
<path d="M104.634 22.1211C105.222 21.0204 106.012 20.2131 106.968 19.7361C107.923 19.2591 108.934 19.0207 109.963 19.0207C111.414 19.0207 112.627 19.4059 113.619 20.1948C114.611 20.9653 115.273 21.8643 115.603 22.9283C115.952 24.0291 116.136 24.9647 116.136 25.7353C116.136 27.0378 115.842 28.2486 115.254 29.3861C114.813 30.2483 114.225 30.9455 113.509 31.4408C112.792 31.9362 112.112 32.248 111.488 32.3765C110.863 32.4865 110.349 32.5599 109.963 32.5599C108.934 32.5599 108.015 32.3581 107.243 31.9728C106.472 31.5876 105.829 31.0555 105.314 30.4134C104.8 29.7713 104.414 29.0558 104.157 28.2486C103.9 27.4414 103.771 26.6159 103.771 25.7719C103.789 24.4143 104.065 23.2219 104.634 22.1211ZM107.243 27.258C107.372 27.7349 107.556 28.1569 107.795 28.5055C108.034 28.8541 108.346 29.1476 108.713 29.3494C109.081 29.5512 109.503 29.6613 109.981 29.6613H110.146C110.661 29.6613 111.083 29.5328 111.433 29.2577C111.818 28.9458 112.112 28.5789 112.351 28.1569C112.59 27.7349 112.737 27.2947 112.829 26.836C112.884 26.5058 112.921 26.2306 112.921 25.9921C112.921 25.9004 112.921 25.8086 112.902 25.7353C112.902 24.7629 112.7 23.9557 112.296 23.2952C111.892 22.6348 111.469 22.2312 111.01 22.0477C110.587 21.8826 110.275 21.8092 110.036 21.8276H109.963C109.209 21.8276 108.585 22.1028 108.089 22.6348C107.684 23.0751 107.409 23.5704 107.262 24.1208C107.115 24.6712 107.041 25.2032 107.041 25.7353C107.041 26.2673 107.115 26.781 107.243 27.258Z" fill="#E60000"/>
<path d="M121.079 19.3325L121.244 20.3599C121.758 19.938 122.346 19.6077 122.989 19.3692C123.651 19.1307 124.294 19.0207 124.955 19.0207C125.984 19.0207 126.884 19.2592 127.601 19.7178C128.336 20.1764 128.85 20.8736 129.144 21.7725C129.438 22.6715 129.585 23.6255 129.585 24.6162V32.248H126.26V24.8913C126.26 23.9007 126.058 23.1485 125.653 22.6165C125.249 22.0844 124.68 21.8092 123.926 21.8092C123.412 21.8092 122.934 21.9376 122.493 22.2128C122.052 22.488 121.666 22.7816 121.354 23.0934V32.2297H118.029V19.3325H121.079Z" fill="#E60000"/>
<path d="M132.011 22.8916C132.323 22.0477 132.746 21.3506 133.297 20.7819C133.848 20.2131 134.473 19.7728 135.208 19.461C135.924 19.1491 136.696 19.0023 137.523 19.0023C138.974 19.0023 140.15 19.4059 141.069 20.1948C141.987 21.002 142.594 21.9377 142.851 23.0384C143.126 24.1025 143.255 25.0931 143.255 26.0104V26.5975H134.895C134.969 27.6799 135.299 28.4688 135.906 28.9458C136.512 29.4228 137.302 29.6613 138.258 29.6613C139.103 29.6613 139.856 29.5328 140.499 29.2577C141.142 29.0008 141.583 28.744 141.822 28.5055L142.704 31.2023C142.318 31.4958 141.932 31.6977 141.583 31.8077C141.363 31.9178 140.83 32.0462 140.003 32.2113C139.176 32.3948 138.46 32.4865 137.798 32.4865C136.953 32.4865 136.163 32.3581 135.391 32.0829C134.62 31.8077 133.958 31.4041 133.389 30.8354C132.819 30.2667 132.36 29.5695 132.029 28.744C131.698 27.9001 131.533 26.9094 131.533 25.7353C131.551 24.6895 131.698 23.7172 132.011 22.8916ZM139.874 24.2309C139.819 23.4971 139.617 22.9467 139.231 22.5431C138.864 22.1578 138.515 21.901 138.166 21.8092C137.835 21.7175 137.614 21.6625 137.486 21.6625C136.916 21.6625 136.365 21.8826 135.851 22.3046C135.336 22.7265 135.042 23.3686 134.95 24.2309H139.874Z" fill="#E60000"/>
</svg>
