<?xml version="1.0" encoding="utf-8"?>
<svg version="1.1" id="Layer_1" xmlns="http://www.w3.org/2000/svg" xmlns:xlink="http://www.w3.org/1999/xlink" x="0px" y="0px"
	 viewBox="0 0 133 133" style="enable-background:new 0 0 133 133;" xml:space="preserve">
<style type="text/css">
	.st0{opacity:0.3;}
	.st1{filter:url(#Adobe_OpacityMaskFilter);}
	.st2{fill:#ffffff;}
	.st3{mask:url(#mask-2_1_);fill:#161656;}
	.st4{opacity:0.3;fill:#161656;enable-background:new    ;}
	.st5{fill:none;stroke:#ffffff;stroke-width:6;}
	.st6{fill:none;stroke:#ffffff;stroke-width:4;stroke-linecap:round;stroke-linejoin:round;}
	.st7{fill:none;stroke:#ff6f00;stroke-width:4;stroke-linecap:round;stroke-linejoin:round;}
	.st8{fill:none;stroke:#ffffff;stroke-width:4;}
	.st9{fill:none;stroke:#161656;stroke-width:6;}
	.st10{fill:none;stroke:#64f0ff;stroke-width:6;}
	.st11{fill:none;stroke:#ff6f00;stroke-width:6;}
</style>
<title>AD / LDAP icon</title>
<g id="Desktop">
	<g id="_x33_.1-Mantle" transform="translate(-1066.000000, -1985.000000)">
		<g id="Group-26" transform="translate(1066.000000, 1988.000000)">
			<g id="Group-3" transform="translate(0.000000, 102.213740)" class="st0">
				<g id="Clip-2">
				</g>
				<defs>
					<filter id="Adobe_OpacityMaskFilter" filterUnits="userSpaceOnUse" x="6.5" y="0.3" width="27.5" height="27.5">
						<feColorMatrix  type="matrix" values="1 0 0 0 0  0 1 0 0 0  0 0 1 0 0  0 0 0 1 0"/>
					</filter>
				</defs>
				<mask maskUnits="userSpaceOnUse" x="6.5" y="0.3" width="27.5" height="27.5" id="mask-2_1_">
					<g class="st1">
						<polygon id="path-1_1_" class="st2" points="6.5,0.3 34,0.3 34,27.8 6.5,27.8 						"/>
					</g>
				</mask>
				<path id="Fill-1" class="st3" d="M34,14.1c0,7.6-6.1,13.7-13.7,13.7S6.5,21.6,6.5,14.1S12.7,0.3,20.2,0.3S34,6.5,34,14.1"/>
			</g>
			<path id="Fill-4" class="st4" d="M77,116.1c0,7.7-6.2,13.9-13.9,13.9c-7.7,0-13.9-6.2-13.9-13.9s6.2-13.9,13.9-13.9
				C70.7,102.2,77,108.4,77,116.1"/>
			<path id="Fill-6" class="st4" d="M117.6,116.1c0,7.7-6.2,13.9-13.9,13.9c-7.7,0-13.9-6.2-13.9-13.9s6.2-13.9,13.9-13.9
				C111.4,102.2,117.6,108.4,117.6,116.1"/>
			<path id="Fill-8" class="st4" d="M80.9,30.3c0,12.3-10,22.3-22.3,22.3c-12.3,0-22.3-10-22.3-22.3c0-12.3,10-22.3,22.3-22.3
				C70.9,7.9,80.9,17.9,80.9,30.3"/>
			<path id="Stroke-10" class="st5" d="M89.9,23.8C89.9,37,79.2,47.6,66,47.6S42.2,37,42.2,23.8S52.9,0,66,0S89.9,10.7,89.9,23.8z"
				/>
			<path id="Stroke-12" class="st6" d="M24.4,95.3V74c0-5.2,4.2-9.5,9.4-9.5h47.2"/>
			<path id="Stroke-14" class="st7" d="M88.9,64.5h11.6c5.1,0,9.3,4.1,9.3,9.2v5.7"/>
			<path id="Stroke-16" class="st6" d="M109.7,88.3v7.9"/>
			<path id="Stroke-18" class="st8" d="M66,47.6v49.6"/>
			<path id="Stroke-20" class="st9" d="M39.2,111.1c0,7.7-6.2,13.9-13.9,13.9c-7.7,0-13.9-6.2-13.9-13.9s6.2-13.9,13.9-13.9
				C33,97.3,39.2,103.5,39.2,111.1z"/>
			<path id="Stroke-22" class="st10" d="M80.9,111.1c0,7.7-6.2,13.9-13.9,13.9c-7.7,0-13.9-6.2-13.9-13.9S59.4,97.3,67,97.3
				C74.7,97.3,80.9,103.5,80.9,111.1z"/>
			<path id="Stroke-24" class="st11" d="M122.6,111.1c0,7.7-6.2,13.9-13.9,13.9s-13.9-6.2-13.9-13.9s6.2-13.9,13.9-13.9
				S122.6,103.5,122.6,111.1z"/>
		</g>
	</g>
</g>
</svg>
