<svg width="170" height="70" viewBox="0 0 170 70" fill="none" xmlns="http://www.w3.org/2000/svg">
<g clip-path="url(#clip0_6721_3880)">
<path d="M155.289 36.4222L157.867 29.6888L160.445 36.4222H155.289ZM160.533 25.8666H155.2L147.733 44.1555H152.356L154.045 39.6888H161.667L163.378 44.1555H168L160.533 25.8666ZM122.867 40.9555C119.845 40.9555 117.422 38.2444 117.422 34.8888C117.422 31.5333 119.867 28.8222 122.867 28.8222C125.867 28.8222 128.311 31.5333 128.311 34.8888C128.333 38.2444 125.889 40.9555 122.867 40.9555ZM122.867 25.2222C117.533 25.2222 113.2 29.5555 113.2 34.8888C113.2 40.2222 117.533 44.5555 122.867 44.5555C128.2 44.5555 132.533 40.2444 132.533 34.9111C132.533 29.5555 128.2 25.2222 122.867 25.2222ZM84.7556 40.9555C81.7556 40.9555 79.3112 38.2444 79.3112 34.8888C79.3112 31.5333 81.7556 28.8222 84.7556 28.8222C87.7779 28.8222 90.2223 31.5333 90.2223 34.8888C90.2223 38.2444 87.7779 40.9555 84.7556 40.9555ZM84.7556 25.2222C79.4223 25.2222 75.1112 29.5555 75.1112 34.8888C75.1112 40.2222 79.4223 44.5555 84.7556 44.5555C90.089 44.5555 94.4223 40.2444 94.4223 34.9111C94.4223 29.5555 90.089 25.2222 84.7556 25.2222ZM108.645 25.8666L103.911 33.2666L99.1779 25.8666H94.5556L101.889 37.3333V44.1555H105.956V37.3333L113.289 25.8666C113.267 25.8666 108.645 25.8666 108.645 25.8666ZM148.711 25.8666H133.089V29.3777H138.889V44.1555H142.956V29.3555H148.711V25.8666ZM64.4223 29.3555V44.1333H68.489V29.3555H74.2445V25.8666H58.6001V29.3555H64.4223Z" fill="black"/>
<path d="M47.1779 12H1.3335V57.8444H47.1779V12Z" fill="#EB0A1E"/>
<path d="M31.8889 24.9556C29.7555 24.2667 27.1111 23.8667 24.2444 23.8667C21.3778 23.8667 18.7333 24.2667 16.6 24.9556C10.9333 26.7778 7.04443 30.5556 7.04443 34.9111C7.04443 41.0445 14.7333 46.0223 24.2222 46.0223C33.7111 46.0223 41.4 41.0445 41.4 34.9111C41.4444 30.5556 37.5555 26.7778 31.8889 24.9556ZM24.2444 41.2667C22.8222 41.2667 21.6667 38.4889 21.6 34.9778C22.4444 35.0445 23.3333 35.0889 24.2444 35.0889C25.1555 35.0889 26.0222 35.0445 26.8889 34.9778C26.8222 38.4667 25.6667 41.2667 24.2444 41.2667ZM21.7778 32.2223C22.1555 29.7556 23.1111 28.0223 24.2444 28.0223C25.3555 28.0223 26.3111 29.7556 26.7111 32.2223C25.9333 32.2889 25.0889 32.3334 24.2444 32.3334C23.4 32.3334 22.5778 32.3111 21.7778 32.2223ZM28.2222 32.0445C27.6444 28.1778 26.0889 25.4223 24.2444 25.4223C22.4 25.4223 20.8444 28.1778 20.2667 32.0445C16.7778 31.4889 14.3333 30.2667 14.3333 28.8223C14.3333 26.8667 18.7555 25.2889 24.2222 25.2889C29.6889 25.2889 34.1111 26.8667 34.1111 28.8223C34.1555 30.2667 31.7111 31.5111 28.2222 32.0445ZM9.57777 34.5111C9.57777 32.6223 10.3111 30.8667 11.5555 29.3556C11.5333 29.4667 11.5333 29.5778 11.5333 29.6667C11.5333 32.0445 15.0889 34.0445 20.0444 34.7778C20.0444 34.9556 20.0444 35.1334 20.0444 35.3111C20.0444 39.7111 21.2667 43.4445 22.9555 44.7334C15.4444 44.2889 9.57777 39.8889 9.57777 34.5111ZM25.5555 44.7334C27.2444 43.4445 28.4667 39.7111 28.4667 35.3111C28.4667 35.1334 28.4667 34.9556 28.4667 34.7778C33.4222 34.0445 36.9778 32.0223 36.9778 29.6667C36.9778 29.5556 36.9778 29.4445 36.9555 29.3556C38.2222 30.8667 38.9333 32.6445 38.9333 34.5111C38.9333 39.8889 33.0444 44.2889 25.5555 44.7334Z" fill="white"/>
</g>
<defs>
<clipPath id="clip0_6721_3880">
<rect width="166.667" height="46" fill="white" transform="translate(1.3335 12)"/>
</clipPath>
</defs>
</svg>
