<svg width="131" height="70" viewBox="0 0 131 70" fill="none" xmlns="http://www.w3.org/2000/svg">
<path d="M113.049 35.4171L109.176 32.9223C107.238 31.6319 106.348 30.9426 106.348 29.5321C106.348 28.2417 107.326 27.3979 108.756 27.3979C109.942 27.3979 110.728 27.6383 111.758 28.6023L114.48 33.2657H115.144V27.0176C115.144 26.7772 114.935 26.5883 114.706 26.5883C113.224 26.6055 111.965 26.5883 109.908 26.5883C109.191 26.5883 108.477 26.6742 107.778 26.8802C103.903 27.9989 101.985 29.9614 101.985 32.4219C101.985 34.8823 103.485 36.0697 105.057 37.1196L108.843 39.6144C110.85 40.9048 111.724 41.5254 111.724 43.0733C111.724 44.2435 110.694 45.3278 108.808 45.3278C107.308 45.3278 106.365 44.6556 105.144 43.5885L102.788 38.9938H102.107V44.7758C102.997 45.2051 104.184 45.6025 105.51 45.8773C107.9 46.3752 110.395 46.1177 112.544 44.9647C114.9 43.7087 115.947 41.9522 115.982 40.0241C115.947 37.9929 115.161 36.7197 113.049 35.4122V35.4171Z" fill="#000A1E"/>
<path d="M100.065 26.7771H97.6566C97.4998 26.7771 97.3431 26.863 97.2735 27.0175L93.9924 33.2656L93.7312 27.1892C93.7138 26.966 93.5223 26.7771 93.2959 26.7771H89.0023C88.7586 26.7771 88.567 26.966 88.567 27.2064V45.1412C88.567 45.3816 88.7586 45.5705 89.0023 45.5705H93.5919C93.8357 45.5705 94.0272 45.3816 94.0272 45.1412V34.161L94.5497 33.3858C95.0372 32.645 95.8754 32.2157 96.766 32.2157H100.065C100.311 32.2157 100.502 32.0268 100.502 31.7864V27.2089C100.502 26.9685 100.311 26.7796 100.065 26.7796V26.7771Z" fill="#000A1E"/>
<path d="M129.524 42.2834C128.39 42.8158 127.552 43.1445 126.365 43.1445C125.109 43.1445 124.201 42.4036 124.201 40.7698V28.2564H129.211V27.6358H124.201V22.7639C124.201 22.4376 123.853 22.2316 123.554 22.3861L118.965 24.8122C118.825 24.8809 118.738 25.0355 118.738 25.19V41.1108C118.738 43.2794 119.385 44.9156 120.903 45.6712C121.967 46.2035 123.258 46.152 124.323 45.6025L129.82 42.8476L129.524 42.2785V42.2834Z" fill="#000A1E"/>
<path d="M18.1392 26.7771H13.5322C13.2884 26.7771 13.0969 26.9832 13.0969 27.2064V42.4722C11.8058 43.3848 10.8456 44.0741 9.23861 44.0741C7.26598 44.0741 7.37045 41.6308 7.37045 40.5465V27.2089C7.37045 26.9685 7.17891 26.7796 6.93513 26.7796H2.10183C1.85805 26.7796 1.6665 26.9856 1.6665 27.2089V40.4091C1.6665 45.3326 4.09189 46.0881 6.22123 46.0881C8.35058 46.0881 10.4276 45.0725 13.1838 43.5075C13.3754 43.4216 16.5695 44.8836 17.9476 45.5386C18.2436 45.676 18.5769 45.4699 18.5769 45.1437V27.2089C18.5769 26.9685 18.3854 26.7796 18.1416 26.7796L18.1392 26.7771Z" fill="#000A1E"/>
<path d="M34.8256 26.8458C32.0669 26.8458 29.6938 28.6022 28.3505 30.2532L28.1067 27.1721C28.0893 26.9488 27.8978 26.7771 27.6714 26.7771H23.3605C23.1167 26.7771 22.9252 26.966 22.9252 27.2064V51.5611C22.9252 51.8702 23.2386 52.0762 23.5197 51.9732L28.1092 50.2683C28.2833 50.1996 28.3878 50.045 28.3878 49.8561V45.0357C29.5221 45.8796 30.9003 46.0857 31.9475 46.0857C34.9326 46.0857 40.9525 43.4191 40.9525 35.2429C40.9699 29.7528 37.9674 26.8434 34.8256 26.8434V26.8458ZM30.7237 44.9695C29.6938 45.021 28.8729 44.5402 28.4028 43.8852V31.492C28.4028 31.492 29.8854 29.9613 31.3182 29.9613C33.5695 29.9613 34.9475 32.1127 34.9475 37.3795C34.9475 42.0086 33.4475 44.9695 30.7237 44.9695Z" fill="#000A1E"/>
<path d="M56.1865 26.8458C53.4278 26.8458 51.0547 28.6022 49.7115 30.2532L49.4677 27.1721C49.4503 26.9488 49.2587 26.7771 49.0324 26.7771H44.7388C44.495 26.7771 44.3035 26.966 44.3035 27.2064V51.5611C44.3035 51.8702 44.6169 52.0762 44.898 51.9732L49.4876 50.2683C49.6617 50.1996 49.7661 50.045 49.7661 49.8561V45.0357C50.9004 45.8796 52.2786 46.0857 53.3258 46.0857C56.3109 46.0857 62.3308 43.4191 62.3308 35.2429C62.3308 29.7528 59.3283 26.8434 56.1865 26.8434V26.8458ZM52.0846 44.9695C51.0547 45.021 50.2338 44.5402 49.7637 43.8852V31.492C49.7637 31.492 51.2462 29.9613 52.679 29.9613C54.9477 29.9613 56.3085 32.1127 56.3085 37.3795C56.291 42.0086 54.8085 44.9695 52.0846 44.9695Z" fill="#000A1E"/>
<path d="M83.2565 26.7771H78.6496C78.4058 26.7771 78.2142 26.966 78.2142 27.2064V45.1584C78.2142 45.3988 78.4058 45.5877 78.6496 45.5877H83.2565C83.5003 45.5877 83.6918 45.3988 83.6918 45.1584V27.2064C83.6918 26.966 83.5003 26.7771 83.2565 26.7771Z" fill="#000A1E"/>
<path d="M71.301 22.266L71.3183 22.1458C71.3706 21.9054 71.597 21.7165 71.8408 21.7165H77.7387C78.2785 21.7165 78.8382 21.8023 79.3606 21.9741L82.9377 23.127C82.9899 23.1442 83.0422 23.1442 83.1119 23.1442C83.4079 23.1442 83.6517 22.9038 83.6517 22.6119V18.5323C83.6517 18.2404 83.4079 18 83.1119 18H74.0546C73.2163 18 72.3955 18.3091 71.7686 18.8439L68.1044 21.9937C66.2537 23.5073 65.5049 25.1092 65.5049 27.2777V27.5181C65.5049 27.5696 65.4527 27.6212 65.4004 27.6212H63.2886C63.2363 27.6212 63.184 27.6727 63.184 27.7242V28.1535C63.184 28.205 63.2363 28.2565 63.2886 28.2565H65.4004C65.4527 28.2565 65.5049 28.308 65.5049 28.3596V45.0555C65.5049 45.3475 65.7486 45.5879 66.0447 45.5879H70.4253C70.7214 45.5879 70.9651 45.3475 70.9651 45.0555V28.3596C70.9651 28.308 71.0173 28.2565 71.0696 28.2565H75.9725C76.0248 28.2565 76.077 28.205 76.077 28.1535V27.7414C76.0944 27.6898 76.0596 27.6383 75.9899 27.6383H71.0845C71.0323 27.6383 70.9801 27.5868 70.9801 27.5353V26.4339C70.9801 24.3683 71.0148 23.4042 71.2934 22.2684L71.301 22.266Z" fill="#000A1E"/>
</svg>
