<svg width="158" height="70" viewBox="0 0 158 70" fill="none" xmlns="http://www.w3.org/2000/svg">
<path d="M42.5149 23.2862V48.4234H37.3869V23.2862H42.5149Z" fill="#000A1E"/>
<path d="M63.4479 31.4745V48.4765C63.4479 53.7557 59.3381 57 54.3042 57C49.2702 57 45.8311 53.9927 45.4835 49.7432L50.5992 49.7718C50.8078 51.5819 52.3985 52.3624 54.4882 52.3624C56.4674 52.3624 58.3076 51.3041 58.3076 48.546V46.3722C56.999 47.2221 55.3265 47.7247 53.4577 47.7247C48.7754 47.7247 45.0255 43.9369 45.0255 39.5771C45.0255 34.5064 48.7877 31.1109 53.4577 31.1109C55.3387 31.1109 56.999 31.6135 58.3076 32.4634V31.544L63.4519 31.4745H63.4479ZM58.3199 41.4853V37.3503C57.273 35.8343 55.8254 35.3318 54.39 35.3318C51.8669 35.3318 50.1126 37.0152 50.1126 39.5771C50.1126 41.4567 51.8669 43.5202 54.39 43.5202C55.8254 43.5079 57.273 42.989 58.3199 41.4853Z" fill="#000A1E"/>
<path d="M83.9069 39.7448C83.9069 44.979 80.0343 48.7136 74.8327 48.7136C69.6311 48.7136 65.7176 44.9831 65.7176 39.7448C65.7176 34.5065 69.5902 30.7473 74.8327 30.7473C80.0752 30.7473 83.9069 34.5473 83.9069 39.7448ZM78.9588 39.7448C78.9588 37.2809 77.3435 35.2869 74.8327 35.2869C72.3218 35.2869 70.6779 37.2768 70.6779 39.7448C70.6779 42.2127 72.2932 44.174 74.8327 44.174C77.3271 44.1618 78.9588 42.2781 78.9588 39.7448Z" fill="#000A1E"/>
<path d="M115.754 31.5033V48.3949L110.725 48.4235V47.4633C109.416 48.3132 107.744 48.8403 105.875 48.8403C101.192 48.8403 97.4425 44.8728 97.4425 39.9818C97.4425 35.0908 101.205 31.0988 105.875 31.0988C107.756 31.0988 109.416 31.6299 110.725 32.4758V31.5155L115.754 31.5033ZM110.725 37.3953C109.665 35.8917 108.189 35.4749 106.709 35.4749C104.129 35.4749 102.346 37.5343 102.346 40.0022C102.346 42.4702 104.129 44.501 106.709 44.501C108.185 44.4887 109.665 44.0842 110.725 42.5805V37.3953Z" fill="#000A1E"/>
<path d="M136.438 39.2458V48.423H131.49V39.8465C131.49 37.0884 130.112 35.6256 127.658 35.6256C126.374 35.6256 124.968 36.3652 123.757 37.783V48.423H118.699V31.5314H123.757V32.8144C125.135 31.7153 126.738 31.1146 128.648 31.1146C133.163 31.1146 136.438 34.2895 136.438 39.2458Z" fill="#000A1E"/>
<path d="M35.0436 48.4074H29.8174L26.4192 35.7775L19.0994 48.4074H13.2598L24.5504 28.8557L22.7388 22.0607L7.50615 48.4238H1.66663L20.9682 15H26.0839L28.329 23.2987H33.6082L30.0015 29.5667L35.0436 48.4074Z" fill="#000A1E"/>
<path d="M156.868 48.4239H151.74V47.4637C150.432 48.3136 148.759 48.8407 146.89 48.8407C142.208 48.8407 138.458 44.8732 138.458 39.9577C138.458 35.0422 142.22 31.0992 146.89 31.0992C148.771 31.0992 150.432 31.6303 151.74 32.4761V23.2703L156.868 23.2826V48.4239ZM151.74 42.5891V37.3671C150.669 35.8512 149.176 35.4303 147.7 35.4303C145.107 35.4303 143.308 37.506 143.308 39.9577C143.308 42.4093 145.107 44.5259 147.7 44.5259C149.176 44.5259 150.669 44.1091 151.74 42.5891Z" fill="#000A1E"/>
<path d="M96.5224 35.7905C95.406 35.9294 92.7889 36.0561 91.2554 38.1726V48.4368H86.1969V31.5574H91.2554V32.824C92.4127 31.8352 94.1547 31.2509 96.5224 31.4879" fill="#000A1E"/>
</svg>
