<svg width="144" height="70" viewBox="0 0 144 70" fill="none" xmlns="http://www.w3.org/2000/svg">
<path d="M122.741 55.9767V59H143.316V45.3727H140.317V55.9811H122.741V55.9767ZM122.741 11V14.0233H140.317V24.6317H143.316V11.0045H122.741V11ZM112.13 34.3775V27.3572H116.831C119.125 27.3572 119.945 28.1263 119.945 30.2293V31.4742C119.945 33.635 119.151 34.3775 116.831 34.3775H112.13ZM119.596 35.6225C121.74 35.0578 123.239 33.0437 123.239 30.6428C123.239 29.1312 122.653 27.7707 121.537 26.6725C120.126 25.3075 118.247 24.6273 115.804 24.6273H109.192V45.3683H112.13V37.103H116.54C118.803 37.103 119.716 38.05 119.716 40.4198V45.3683H122.715V40.8955C122.715 37.6365 121.952 36.3916 119.601 36.0359V35.6225H119.596ZM94.8495 36.3027H103.904V33.5772H94.8495V27.3527H104.782V24.6273H91.8504V45.3683H105.223V42.6428H94.8495V36.3027ZM85.0011 37.4009V38.8236C85.0011 41.8159 83.9117 42.794 81.1816 42.794H80.5333C77.7988 42.794 76.4757 41.9048 76.4757 37.7877V32.2167C76.4757 28.0685 77.8562 27.2104 80.5907 27.2104H81.1772C83.8499 27.2104 84.7056 28.2197 84.732 31.003H87.9649C87.6694 26.9126 84.9658 24.3383 80.9126 24.3383C78.9455 24.3383 77.2961 24.9607 76.0611 26.1434C74.2087 27.8907 73.1811 30.8562 73.1811 35.0044C73.1811 39.1526 74.0632 41.967 75.8847 43.8033C77.1196 45.017 78.822 45.6706 80.498 45.6706C82.2622 45.6706 83.8764 44.9592 84.7011 43.4209H85.1113V45.3772H87.8149V34.6799H79.8497V37.4053H84.9922L85.0011 37.4009ZM59.0766 27.3572H62.2785C65.3041 27.3572 66.9536 28.1263 66.9536 32.2745V37.7255C66.9536 41.8737 65.3085 42.6428 62.2785 42.6428H59.0766V27.3527V27.3572ZM62.5432 45.3727C68.1576 45.3727 70.2437 41.0778 70.2437 35.0044C70.2437 28.9311 68.0121 24.6362 62.4858 24.6362H56.1348V45.3772H62.5432V45.3727ZM41.9421 36.3071H50.9967V33.5817H41.9421V27.3572H51.8743V24.6317H38.9429V45.3727H52.3154V42.6473H41.9421V36.3071ZM24.6002 24.6317H21.6012V45.3727H35.1191V42.6473H24.5958V24.6317H24.6002ZM1 45.3727V59H21.5747V55.9767H3.99911V45.3683H1V45.3727ZM1 11.0045V24.6317H3.99911V14.0233H21.5747V11H1V11.0045Z" fill="#000A1E"/>
</svg>
