<svg width="229" height="50" viewBox="0 0 229 50" fill="none" xmlns="http://www.w3.org/2000/svg">
<path d="M207.471 32.8574C214.129 27.1509 223.481 21.6029 228.617 19.6056C227.824 19.0984 226.588 18.3692 225.193 17.5767C218.567 19.7641 210.832 24.6147 203.92 30.0992C205.093 30.9869 206.33 31.9063 207.471 32.8574Z" fill="#E31837"/>
<path d="M204.428 17.3555C203.445 16.8799 202.367 16.4361 201.543 16.0557C199.038 17.2921 195.773 19.1625 191.651 22.1109C192.539 22.5864 193.49 23.1571 194.505 23.7277C197.675 21.3817 200.877 19.1625 204.428 17.3555Z" fill="#012169"/>
<path d="M210.356 14.6276C209.151 13.9619 204.966 12.4084 202.081 11.7427C201.225 12.0597 200.021 12.5352 199.197 12.884C200.243 13.1693 204.142 14.2155 207.471 15.8957C208.327 15.4836 209.532 14.9764 210.356 14.6276Z" fill="#E31837"/>
<path d="M196.185 14.2157C192.476 15.9276 188.576 18.2736 186.452 19.6369C187.213 19.9856 187.974 20.2709 189.02 20.7782C193.712 17.6079 197.39 15.674 198.848 15.04C197.802 14.6595 196.819 14.4059 196.185 14.2157Z" fill="#012169"/>
<path d="M213.146 13.6458C214.002 13.3605 214.985 13.1069 215.841 12.8532C213.368 11.8071 210.261 10.6975 207.471 10C207.027 10.1268 205.696 10.4755 204.776 10.7609C205.727 11.0462 208.866 11.7754 213.146 13.6458ZM197.516 25.566C198.531 26.1684 199.609 26.9927 200.655 27.6901C207.598 22.3007 214.446 18.1476 221.959 15.8016C220.913 15.2627 219.994 14.7871 218.821 14.2165C214.319 15.3578 206.615 18.4329 197.516 25.566Z" fill="#E31837"/>
<path d="M0.357178 31.208H5.42961C7.99753 31.208 9.20224 29.8765 9.20224 28.006C9.20224 26.4843 8.40967 25.4698 6.76113 25.1528C8.21945 24.804 8.88521 23.9164 8.88521 22.6165C8.88521 20.968 7.68051 19.6365 5.11259 19.6365H0.38888V31.208H0.357178ZM4.76385 26.2941C5.71494 26.2941 6.38069 26.7696 6.38069 27.7207C6.38069 28.7352 5.74664 29.1473 4.76385 29.1473H3.11531V26.2624H4.76385V26.2941ZM4.44683 21.6655C5.39791 21.6655 6.06367 22.0776 6.06367 23.0287C6.06367 23.9798 5.42961 24.3919 4.44683 24.3919H3.11531V21.6655H4.44683ZM19.4422 19.6048H16.589L12.2457 31.208H15.1306L15.9232 28.7986H20.108L20.9005 31.208H23.8172L19.4422 19.6048ZM18.0156 22.3946L19.3788 26.6745H16.589L18.0156 22.3946ZM38.2736 19.6048H35.6423V27.3719L30.6967 19.6048H27.7483V31.208H30.3796V23.4725L35.3253 31.208H38.2736V19.6048ZM50.4158 31.208L46.6114 25.3113V31.208H43.7899V19.6048H46.6114V25.1845L50.2255 19.6048H53.3641L49.5598 25.1845L53.7128 31.208H50.4158ZM63.6992 25.4064C63.6992 27.7207 65.0941 29.1473 66.9012 29.1473C68.7082 29.1473 70.1031 27.7207 70.1031 25.4064C70.1031 23.0921 68.7082 21.6655 66.9012 21.6655C65.0941 21.6655 63.6992 23.0921 63.6992 25.4064ZM60.7191 25.4064C60.7508 22.0142 63.1286 19.3512 66.9012 19.3512C70.6738 19.3512 73.0515 22.0142 73.0832 25.4064C73.0515 28.7986 70.6738 31.4616 66.9012 31.4616C63.1286 31.4616 60.7508 28.7986 60.7191 25.4064ZM76.9509 31.208H79.7725V26.6428H83.45V24.4236H79.7725V21.824H84.2109L84.7181 19.6048H76.9509V31.208ZM97.8747 19.6048H95.0215L90.6782 31.208H93.5632L94.3557 28.7986H98.5405L99.3331 31.208H102.25L97.8747 19.6048ZM96.4481 22.3946L97.8113 26.6745H95.0215L96.4481 22.3946ZM118.989 19.6048H115.692L112.68 25.8819L109.668 19.6048H106.371V31.208H108.907V23.4408L112.648 31.208L116.389 23.4408V31.208H119.02L118.989 19.6048ZM124.473 31.208H132.399V28.9888H127.295V26.3892H131.321V24.2334H127.295V21.824H131.955L132.462 19.6048H124.473V31.208ZM143.146 31.208H146.221L143.336 26.2941C144.922 25.8502 145.682 24.7406 145.682 23.1238C145.682 21.0314 144.414 19.6365 141.561 19.6365H137.091V31.2397H139.849V26.6745H140.61L143.146 31.208ZM141.022 21.7606C142.195 21.7606 142.797 22.2678 142.797 23.2506C142.797 24.2334 142.195 24.7406 141.022 24.7406H139.817V21.7606H141.022ZM150.438 31.208H153.259V19.6365H150.438V31.208ZM167.145 28.1011C166.067 28.862 165.116 29.1156 164.133 29.1156C161.978 29.1156 160.456 27.6256 160.456 25.4064C160.456 23.1872 161.946 21.6972 164.038 21.6972C164.989 21.6972 165.94 21.9508 166.987 22.7116V20.0803C166.036 19.5414 164.926 19.3195 163.69 19.3195C159.854 19.3195 157.444 21.9825 157.412 25.3747C157.444 28.7986 159.79 31.4299 163.69 31.4299C164.989 31.4299 166.099 31.208 167.113 30.669V28.1011H167.145ZM177.48 19.6048H174.627L170.284 31.208H173.169L173.961 28.7986H178.146L178.939 31.208H181.855L177.48 19.6048ZM176.054 22.3946L177.417 26.6745H174.627L176.054 22.3946Z" fill="#012169"/>
</svg>
