<svg width="116" height="58" viewBox="0 0 116 58" fill="none" xmlns="http://www.w3.org/2000/svg">
<path fill-rule="evenodd" clip-rule="evenodd" d="M79.9967 14.576C75.3363 8.33815 67.4221 3.57885 57.9776 3.47998C48.5354 3.47998 40.6437 8.14041 35.7384 14.3783C31.7925 19.9016 29.105 25.7193 30.5611 36.4468C33.6441 38.6894 36.208 40.6376 39.5359 43.006L40.792 53.1875H54.1801C55.0924 53.8526 56.2024 54.4705 57.9776 54.52C59.7775 54.4705 60.9123 53.8549 61.7505 53.1875H75.2374L76.4957 43.006L85.0009 36.7434C86.7019 27.9416 84.3605 20.4948 79.9967 14.5783V14.576ZM80.5629 33.7818L71.341 40.6353L70.3051 48.3271H60.0989C59.8022 48.918 59.1371 49.6349 57.9776 49.7068C56.7687 49.6326 56.5238 49.1899 55.7822 48.3271L45.5491 48.2529L44.5626 40.5859L35.2665 33.6829C34.9451 32.5975 34.6508 30.7976 34.8216 29.2943C34.9699 27.7416 35.2665 26.9529 35.7339 26.0159C40.4932 30.6516 46.4097 36.6176 51.2184 41.2533C46.6074 35.6805 41.1336 28.9753 36.5473 23.3778C36.6956 22.1194 37.0394 20.8139 37.7315 19.7038C38.5449 18.3241 39.1629 17.8051 39.9763 17.0905C44.1671 23.9441 49.2231 33.0425 53.3891 39.9455C49.7893 32.3526 45.4997 22.6116 41.9246 14.9693C42.738 13.7356 43.2571 13.2188 44.1447 12.5289C44.9828 11.8391 46.1423 11.174 47.3243 10.9268C49.7893 19.605 53.1172 30.5033 55.6092 39.2062C53.7846 30.2561 51.6387 18.7668 49.7893 9.74257C50.8005 9.17631 51.6633 8.85498 52.8476 8.48421C54.0318 8.28647 55.4609 8.21232 56.4721 8.45949C57.0631 17.8523 57.2608 29.564 57.9754 39.0579C58.69 29.6157 58.7147 17.9287 59.4045 8.45949C60.4404 8.28647 61.7482 8.33591 63.0785 8.58309C64.238 8.92914 65.1008 9.24822 65.9884 9.89088C64.238 18.8904 62.0426 30.2808 60.2921 39.2309C62.8066 30.6022 65.9884 19.605 68.577 10.9515C69.7118 11.2234 70.8713 11.8885 71.8061 12.6031C72.5948 13.2435 73.1634 13.8592 73.9521 15.0681C70.3276 22.6116 66.1368 32.3526 62.4381 39.9702C66.6042 33.1166 71.7342 23.9441 75.9497 17.1152C76.7384 17.8545 77.2328 18.3713 78.0957 19.7533C78.8349 20.8633 79.1316 22.1442 79.3787 23.4025C74.743 29.0494 69.3186 35.7794 64.6852 41.3027C69.4445 36.667 75.3857 30.701 80.1697 26.09C80.5652 26.9529 80.8596 27.7663 81.0079 29.3932C81.1315 30.8965 80.909 32.647 80.5629 33.7818Z" fill="white"/>
</svg>
