<svg width="122" height="50" viewBox="0 0 122 50" fill="none" xmlns="http://www.w3.org/2000/svg">
<g clip-path="url(#clip0_6610_14636)">
<path d="M111.04 26.0159L112.881 21.2063L114.722 26.0159H111.04ZM114.786 18.4762H110.976L105.643 31.5397H108.944L110.151 28.3492H115.595L116.817 31.5397H120.119L114.786 18.4762ZM87.881 29.254C85.7222 29.254 83.9921 27.3175 83.9921 24.9206C83.9921 22.5238 85.7381 20.5873 87.881 20.5873C90.0238 20.5873 91.7698 22.5238 91.7698 24.9206C91.7857 27.3175 90.0397 29.254 87.881 29.254ZM87.881 18.0159C84.0714 18.0159 80.9762 21.1111 80.9762 24.9206C80.9762 28.7302 84.0714 31.8254 87.881 31.8254C91.6905 31.8254 94.7857 28.746 94.7857 24.9365C94.7857 21.1111 91.6905 18.0159 87.881 18.0159ZM60.6587 29.254C58.5159 29.254 56.7698 27.3175 56.7698 24.9206C56.7698 22.5238 58.5159 20.5873 60.6587 20.5873C62.8175 20.5873 64.5635 22.5238 64.5635 24.9206C64.5635 27.3175 62.8175 29.254 60.6587 29.254ZM60.6587 18.0159C56.8492 18.0159 53.7698 21.1111 53.7698 24.9206C53.7698 28.7302 56.8492 31.8254 60.6587 31.8254C64.4683 31.8254 67.5635 28.746 67.5635 24.9365C67.5635 21.1111 64.4683 18.0159 60.6587 18.0159ZM77.7222 18.4762L74.3413 23.7619L70.9603 18.4762H67.6587L72.8968 26.6667V31.5397H75.8016V26.6667L81.0397 18.4762C81.0238 18.4762 77.7222 18.4762 77.7222 18.4762ZM106.341 18.4762H95.1825V20.9841H99.3254V31.5397H102.23V20.9682H106.341V18.4762ZM46.1349 20.9682V31.5238H49.0397V20.9682H53.1508V18.4762H41.9762V20.9682H46.1349Z" fill="black"/>
<path d="M33.8174 8.57141H1.07141V41.3174H33.8174V8.57141Z" fill="#EB0A1E"/>
<path d="M22.8968 17.8254C21.373 17.3333 19.4841 17.0476 17.4365 17.0476C15.3889 17.0476 13.5 17.3333 11.9762 17.8254C7.92853 19.127 5.15076 21.8254 5.15076 24.9365C5.15076 29.3174 10.6428 32.873 17.4206 32.873C24.1984 32.873 29.6904 29.3174 29.6904 24.9365C29.7222 21.8254 26.9444 19.127 22.8968 17.8254ZM17.4365 29.4762C16.4206 29.4762 15.5952 27.4921 15.5476 24.9841C16.1508 25.0317 16.7857 25.0635 17.4365 25.0635C18.0873 25.0635 18.7063 25.0317 19.3254 24.9841C19.2777 27.4762 18.4523 29.4762 17.4365 29.4762ZM15.6746 23.0159C15.9444 21.254 16.6269 20.0159 17.4365 20.0159C18.2301 20.0159 18.9127 21.254 19.1984 23.0159C18.6428 23.0635 18.0396 23.0952 17.4365 23.0952C16.8333 23.0952 16.246 23.0794 15.6746 23.0159ZM20.2777 22.8889C19.865 20.127 18.7539 18.1587 17.4365 18.1587C16.119 18.1587 15.0079 20.127 14.5952 22.8889C12.1031 22.4921 10.3571 21.619 10.3571 20.5873C10.3571 19.1905 13.5158 18.0635 17.4206 18.0635C21.3254 18.0635 24.4841 19.1905 24.4841 20.5873C24.5158 21.619 22.7698 22.5079 20.2777 22.8889ZM6.96028 24.6508C6.96028 23.3016 7.48409 22.0476 8.37298 20.9682C8.35711 21.0476 8.35711 21.127 8.35711 21.1905C8.35711 22.8889 10.8968 24.3174 14.4365 24.8413C14.4365 24.9682 14.4365 25.0952 14.4365 25.2222C14.4365 28.3651 15.3095 31.0317 16.5158 31.9524C11.1508 31.6349 6.96028 28.4921 6.96028 24.6508ZM18.373 31.9524C19.5793 31.0317 20.4523 28.3651 20.4523 25.2222C20.4523 25.0952 20.4523 24.9682 20.4523 24.8413C23.992 24.3174 26.5317 22.873 26.5317 21.1905C26.5317 21.1111 26.5317 21.0317 26.5158 20.9682C27.4206 22.0476 27.9285 23.3174 27.9285 24.6508C27.9285 28.4921 23.7222 31.6349 18.373 31.9524Z" fill="white"/>
</g>
<defs>
<clipPath id="clip0_6610_14636">
<rect width="119.048" height="32.8571" fill="white" transform="translate(1.07141 8.57141)"/>
</clipPath>
</defs>
</svg>
