<svg width="104" height="50" viewBox="0 0 104 50" fill="none" xmlns="http://www.w3.org/2000/svg">
<path d="M87.9579 39.9834V42.1429H102.654V32.4091H100.512V39.9865H87.9579V39.9834ZM87.9579 7.85718V10.0167H100.512V17.5941H102.654V7.86036H87.9579V7.85718ZM80.3783 24.5554V19.5409H83.7365C85.3747 19.5409 85.9606 20.0903 85.9606 21.5924V22.4816C85.9606 24.0251 85.3936 24.5554 83.7365 24.5554H80.3783ZM85.7118 25.4446C87.2428 25.0413 88.3139 23.6027 88.3139 21.8878C88.3139 20.808 87.8949 19.8362 87.0979 19.0518C86.0898 18.0768 84.7478 17.5909 83.0025 17.5909H78.2802V32.406H80.3783V26.5022H83.5286C85.1447 26.5022 85.7968 27.1786 85.7968 28.8713V32.406H87.939V29.2111C87.939 26.8833 87.394 25.9941 85.7149 25.74V25.4446H85.7118ZM68.0354 25.9305H74.503V23.9838H68.0354V19.5377H75.1299V17.5909H65.8932V32.406H75.4449V30.4592H68.0354V25.9305ZM61.0008 26.715V27.7312C61.0008 29.8685 60.2226 30.5672 58.2726 30.5672H57.8095C55.8563 30.5672 54.9112 29.932 54.9112 26.9912V23.012C54.9112 20.049 55.8973 19.4361 57.8505 19.4361H58.2694C60.1785 19.4361 60.7897 20.157 60.8086 22.145H63.1178C62.9067 19.2233 60.9756 17.3845 58.0804 17.3845C56.6754 17.3845 55.4972 17.8291 54.6151 18.6739C53.292 19.922 52.5579 22.0402 52.5579 25.0032C52.5579 27.9662 53.188 29.9765 54.4891 31.2881C55.3712 32.1551 56.5872 32.6219 57.7843 32.6219C59.0444 32.6219 60.1974 32.1138 60.7865 31.015H61.0795V32.4123H63.0107V24.7714H57.3212V26.7181H60.9945L61.0008 26.715ZM42.4833 19.5409H44.7704C46.9315 19.5409 48.1097 20.0903 48.1097 23.0533V26.9468C48.1097 29.9098 46.9346 30.4592 44.7704 30.4592H42.4833V19.5377V19.5409ZM44.9594 32.4091C48.9697 32.4091 50.4598 29.3413 50.4598 25.0032C50.4598 20.6651 48.8658 17.5973 44.9184 17.5973H40.382V32.4123H44.9594V32.4091ZM30.2443 25.9337H36.7119V23.987H30.2443V19.5409H37.3388V17.5941H28.1021V32.4091H37.6538V30.4624H30.2443V25.9337ZM17.8573 17.5941H15.7151V32.4091H25.3708V30.4624H17.8541V17.5941H17.8573ZM1 32.4091V42.1429H15.6962V39.9834H3.14222V32.406H1V32.4091ZM1 7.86036V17.5941H3.14222V10.0167H15.6962V7.85718H1V7.86036Z" fill="#000A1E"/>
</svg>
