<svg width="118" height="50" viewBox="0 0 118 50" fill="none" xmlns="http://www.w3.org/2000/svg">
<path d="M40.8514 24.7702C40.8176 23.9397 40.949 23.1108 41.2379 22.3312C41.5269 21.5517 41.9677 20.837 42.5349 20.2283C43.1021 19.6196 43.7845 19.129 44.5427 18.7848C45.3009 18.4406 46.1199 18.2496 46.9524 18.2229H47.2111C50.4288 18.2229 52.3279 20.1115 52.8894 22.3212L50.8894 22.9886C50.7097 22.1651 50.2393 21.4336 49.5641 20.9274C48.8888 20.4212 48.0537 20.1741 47.2111 20.2311C45.129 20.2311 43.0407 21.7483 43.0407 24.808C43.0407 27.8676 45.0786 29.3281 47.2363 29.3281C48.0831 29.3512 48.9132 29.0902 49.5938 28.5869C50.2744 28.0835 50.7661 27.367 50.9903 26.5518L52.9525 27.1814C52.6138 28.4248 51.8604 29.516 50.8167 30.2748C49.7729 31.0336 48.5011 31.4147 47.2111 31.3553C45.5538 31.3856 43.9523 30.7581 42.7586 29.6106C41.5648 28.4632 40.8765 26.8897 40.845 25.236C40.8387 25.085 40.845 24.9276 40.8514 24.7702Z" fill="#375BD2"/>
<path d="M56.8453 31.0657H54.7759V18.1851H56.8453V23.2215C57.1457 22.8659 57.5236 22.5836 57.95 22.3959C58.3764 22.2082 58.8402 22.1203 59.3059 22.1387C61.4447 22.1387 62.4605 23.6685 62.4605 25.576V31.0657H60.4668V25.9411C60.5265 25.5043 60.4119 25.0615 60.1475 24.7082C59.8831 24.3549 59.4903 24.1195 59.0535 24.0525C58.9298 24.0398 58.805 24.0398 58.6813 24.0525C58.2027 24.0525 57.7438 24.2422 57.4053 24.5799C57.067 24.9175 56.8768 25.3755 56.8768 25.853C56.8737 25.9054 56.8737 25.958 56.8768 26.0104L56.8453 31.0657Z" fill="#375BD2"/>
<path d="M67.1041 26.1048L69.325 25.7586C69.8297 25.6956 69.9559 25.4375 69.9559 25.129C69.9559 24.3987 69.4638 23.8133 68.3155 23.8133C67.8818 23.7783 67.4518 23.9153 67.1187 24.1946C66.7857 24.4739 66.5764 24.873 66.5363 25.3053V25.3997L64.6435 24.9779C64.8012 23.4796 66.164 22.145 68.2966 22.145C70.9717 22.145 71.9875 23.6559 71.9875 25.4186V29.7184C71.9853 30.1843 72.0212 30.6496 72.0947 31.1097H70.202C70.1338 30.7445 70.1062 30.373 70.1199 30.0017C69.8326 30.4429 69.4344 30.8012 68.965 31.0409C68.4957 31.2806 67.9715 31.3934 67.4448 31.3678C66.7255 31.4271 66.0119 31.1992 65.4608 30.7342C64.9096 30.2692 64.5658 29.6051 64.5047 28.8874C64.5047 28.8434 64.5047 28.7993 64.5047 28.7615C64.4732 27.1688 65.6151 26.3126 67.1041 26.1048ZM69.9685 27.4961V27.0995L67.7035 27.4395C67.396 27.4492 67.1042 27.5771 66.889 27.7965C66.6739 28.0159 66.552 28.3098 66.5489 28.6167C66.5513 28.7688 66.5841 28.9189 66.6453 29.0583C66.7065 29.1976 66.7948 29.3234 66.9052 29.4283C67.0156 29.5332 67.1459 29.6151 67.2884 29.6692C67.4308 29.7234 67.5827 29.7486 67.735 29.7436H67.8297C68.0879 29.7706 68.349 29.7463 68.5978 29.6722C68.8466 29.598 69.0783 29.4755 69.2794 29.3117C69.4806 29.1478 69.6472 28.9459 69.7698 28.7175C69.8924 28.4891 69.9685 28.2387 69.9938 27.9809C70.0027 27.8186 69.9922 27.6559 69.9622 27.4961H69.9685Z" fill="#375BD2"/>
<path d="M75.508 18.0088C75.6859 18.0063 75.8624 18.0389 76.0276 18.1047C76.1928 18.1705 76.3433 18.2682 76.4705 18.3923C76.5978 18.5163 76.6992 18.6641 76.769 18.8274C76.8387 18.9906 76.8755 19.166 76.8771 19.3435C76.8771 19.6091 76.7984 19.8688 76.6508 20.09C76.5033 20.3111 76.2935 20.4837 76.0479 20.5862C75.8023 20.6887 75.5318 20.7165 75.2704 20.666C75.0091 20.6156 74.7685 20.4891 74.5789 20.3026C74.3894 20.1161 74.2593 19.8778 74.2051 19.6177C74.1509 19.3576 74.1749 19.0873 74.2742 18.8409C74.3735 18.5944 74.5436 18.3827 74.7631 18.2324C74.9827 18.0821 75.2418 18 75.508 17.9962V18.0088ZM74.4986 31.1034V22.4031H76.568V31.0657L74.4986 31.1034Z" fill="#375BD2"/>
<path d="M81.281 31.0657H79.2179V22.4031H81.2305V23.5552C81.4929 23.1128 81.8698 22.749 82.3216 22.502C82.7734 22.255 83.2835 22.1338 83.7984 22.1513C85.9183 22.1513 86.953 23.6811 86.953 25.5886V31.0657H84.8899V25.9411C84.8899 24.8772 84.4041 24.0147 83.1044 24.0147C82.8641 24.0164 82.6265 24.0652 82.4051 24.1585C82.1838 24.2518 81.983 24.3876 81.8143 24.5583C81.6455 24.729 81.5122 24.9312 81.4217 25.1534C81.3313 25.3755 81.2857 25.6133 81.2873 25.853C81.2873 25.9223 81.2873 25.9915 81.2873 26.0608L81.281 31.0657Z" fill="#375BD2"/>
<path d="M89.4515 31.0657V18.1851H91.5209V31.0657H89.4515Z" fill="#375BD2"/>
<path d="M95.2118 18.0088C95.4781 18.0076 95.7388 18.0853 95.9608 18.2322C96.1827 18.3791 96.356 18.5884 96.4585 18.8337C96.561 19.079 96.5881 19.3491 96.5365 19.6098C96.4848 19.8705 96.3567 20.11 96.1684 20.2979C95.98 20.4859 95.74 20.6137 95.4787 20.6652C95.2175 20.7168 94.9467 20.6897 94.7009 20.5874C94.4551 20.4851 94.2453 20.3123 94.0981 20.0908C93.9509 19.8693 93.873 19.6092 93.8742 19.3435C93.8775 18.9905 94.0195 18.653 94.2696 18.4034C94.5198 18.1538 94.8581 18.0121 95.2118 18.0088ZM94.196 31.1034V22.4031H96.2465V31.0657L94.196 31.1034Z" fill="#375BD2"/>
<path d="M100.991 31.0657H98.9216V22.4031H100.934V23.5552C101.197 23.1132 101.574 22.7498 102.026 22.5029C102.478 22.2559 102.987 22.1345 103.502 22.1513C105.622 22.1513 106.657 23.6811 106.657 25.5886V31.0657H104.587V25.9411C104.647 25.5043 104.532 25.0615 104.268 24.7082C104.004 24.3549 103.611 24.1195 103.174 24.0525C103.048 24.0399 102.921 24.0399 102.796 24.0525C102.314 24.0575 101.853 24.252 101.514 24.5939C101.175 24.9357 100.985 25.3972 100.985 25.8782C100.978 25.9515 100.978 26.0252 100.985 26.0985L100.991 31.0657Z" fill="#375BD2"/>
<path d="M113.717 26.0608L117.357 31.0971H114.834L112.31 27.5276L111.244 28.6482V31.0657H109.193V18.1851H111.244V25.9034L114.575 22.4031H117.319L113.717 26.0608Z" fill="#375BD2"/>
<path d="M16.3526 14.6974L25.2991 19.8219V30.1213L16.3778 35.2773L7.4376 30.1654V19.8723L16.3526 14.6974ZM16.3526 7.14282L13.0718 9.03147L4.13786 14.2064L0.857056 16.095V33.9553L4.13786 35.8439L13.0844 40.9685L16.3652 42.8571L19.646 40.9685L28.5609 35.8062L31.8418 33.9175V16.032L28.5609 14.1434L19.6207 9.03147L16.3399 7.14282H16.3526Z" fill="#375BD2"/>
</svg>
