<svg width="90" height="50" viewBox="0 0 90 50" fill="none" xmlns="http://www.w3.org/2000/svg">
<g clip-path="url(#clip0_6610_14631)">
<path d="M40.2675 2.14282H1.28564V45.0144H40.2675V2.14282Z" fill="#4F98D3"/>
<path d="M25.9798 35.7745H11.3657V6.37646H7.54785V39.1048H25.9798V35.7745Z" fill="white"/>
<path d="M30.96 16.1279C30.96 20.2505 28.0781 22.6078 23.1719 22.6078H18.8186L32.2878 39.1157H36.9372L25.8623 25.6203C31.3997 25.135 34.7496 21.3476 34.7496 16.1301C34.7496 10.0224 30.6335 6.37647 23.6748 6.37647H18.8273V9.69588H23.3178C28.224 9.69588 30.96 12.0401 30.96 16.1301" fill="white"/>
<path d="M52.7703 31.1751V31.9674H48.1013V22.6056H49.0133V31.1751H52.7703Z" fill="#143B62"/>
<path d="M54.5965 22.6056V31.9674H53.765V22.6056H54.5965Z" fill="#143B62"/>
<path d="M59.0739 25.8162C57.6395 25.8162 56.8624 27.0634 56.8624 28.6197C56.8624 30.176 57.6395 31.4233 59.0739 31.4233C60.5083 31.4233 61.3006 30.163 61.3006 28.6197C61.3006 27.0765 60.5235 25.8162 59.0739 25.8162ZM59.0739 32.1285C56.9146 32.1285 55.9504 30.4394 55.9504 28.6154C55.9504 26.7913 56.9146 25.1022 59.0739 25.1022C61.2331 25.1022 62.2126 26.7783 62.2126 28.6154C62.2126 30.4525 61.2462 32.1285 59.0739 32.1285Z" fill="#143B62"/>
<path d="M67.4105 25.2633H68.2812L65.5995 32.973C65.4461 33.4841 65.1906 33.9588 64.8486 34.3683C64.7151 34.5106 64.553 34.6229 64.3729 34.698C64.1928 34.773 63.9988 34.809 63.8038 34.8036C63.5391 34.8088 63.2755 34.7683 63.0245 34.6839V33.9787C63.2325 34.0602 63.4541 34.1016 63.6775 34.1005C64.3741 34.1005 64.6309 33.5107 64.8856 32.6378L65.0597 32.048L62.6654 25.2633H63.5774L65.4515 30.8551H65.4646L67.4105 25.2633Z" fill="#143B62"/>
<path d="M71.7312 25.8162C70.1487 25.8162 69.7461 27.3181 69.7461 28.6197C69.7461 29.9214 70.1487 31.4233 71.7312 31.4233C73.207 31.4233 73.7163 29.8408 73.7163 28.6197C73.7163 27.3986 73.207 25.8162 71.7312 25.8162ZM74.5478 22.6099V31.9696H73.7228V30.9096H73.6967C73.2396 31.7563 72.5714 32.1307 71.6049 32.1307C69.7678 32.1307 68.8428 30.607 68.8428 28.6175C68.8428 26.578 69.7004 25.1022 71.6049 25.1022C72.0403 25.0945 72.4688 25.2118 72.8395 25.4402C73.2103 25.6686 73.5078 25.9985 73.6967 26.3908H73.7228V22.6056L74.5478 22.6099Z" fill="#143B62"/>
<path d="M76.5329 22.6056H77.3513L76.6548 25.2698H75.8364L76.5329 22.6056Z" fill="#143B62"/>
<path d="M79.2341 32.1285C78.5975 32.1437 77.9639 32.035 77.3687 31.8085V30.9749C77.9286 31.2634 78.5498 31.4128 79.1797 31.4102C79.972 31.4102 80.6707 30.9749 80.6707 30.2021C80.6707 28.6197 77.4515 28.8613 77.4515 26.9176C77.4515 25.5876 78.5245 25.0935 79.6281 25.0935C80.1805 25.0891 80.728 25.198 81.2367 25.4135V26.1383C80.7601 25.9146 80.2395 25.8 79.713 25.8031C78.7335 25.8031 78.2786 26.2058 78.2786 26.8218C78.2786 27.305 78.5333 27.5466 79.0818 27.8165C80.0874 28.2845 81.5762 28.7808 81.5762 30.2109C81.5762 31.6409 80.2528 32.1285 79.2341 32.1285Z" fill="#143B62"/>
<path d="M49.9841 36.4448H49.0177V39.7969H50.0102C51.0986 39.7969 52.3458 39.3811 52.3458 38.0686C52.3458 36.5449 51.2575 36.4448 49.9841 36.4448ZM53.9805 45.0143H52.9749L51.6471 41.8886C51.1247 40.6567 50.6828 40.5826 49.7969 40.5826H49.0177V45.0143H48.1057V35.6547H50.5196C52.1847 35.6547 53.2578 36.3534 53.2578 38.0708C53.2578 39.2766 52.3458 40.0298 51.2575 40.2279V40.2561C51.5463 40.3118 51.807 40.4656 51.9954 40.6915C52.0784 40.7961 52.1512 40.9083 52.213 41.0267C52.2805 41.1616 52.348 41.2944 52.4133 41.462L53.9805 45.0143Z" fill="#143B62"/>
<path d="M59.0282 41.0855C59.0282 40.0124 58.5602 38.8587 57.326 38.8587C56.0919 38.8587 55.3801 40.0124 55.354 41.0855H59.0282ZM59.9271 41.7951H55.3561C55.3561 43.3187 56.1223 44.4658 57.5567 44.4658C58.2349 44.4435 58.8992 44.2686 59.5005 43.9543V44.7531C58.8637 45.0244 58.1812 45.1721 57.4893 45.1885C55.2756 45.1885 54.4419 43.6866 54.4419 41.6753C54.4419 39.6227 55.5673 38.16 57.2716 38.16C59.1609 38.16 59.9249 39.6489 59.9249 41.3924L59.9271 41.7951Z" fill="#143B62"/>
<path d="M63.9278 38.8587C62.3454 38.8587 61.9427 40.3606 61.9427 41.6623C61.9427 42.9639 62.4673 44.3047 63.8756 44.3047C65.3775 44.3047 65.913 42.8834 65.913 41.6623C65.913 40.0385 65.4297 38.8587 63.9278 38.8587ZM66.7444 38.308V44.4636C66.7444 46.329 65.8999 47.8592 63.5926 47.8592C62.8997 47.8544 62.2136 47.7223 61.5683 47.4696V46.6512C62.2044 46.9598 62.899 47.129 63.6057 47.1475C65.7388 47.1475 65.926 45.5912 65.926 43.6996H65.8999C65.4428 44.6661 64.7201 45.0056 63.8604 45.0056C61.7142 45.0056 61.0307 43.1424 61.0307 41.6536C61.0307 39.614 61.823 38.1404 63.7951 38.1404C64.6919 38.1404 65.3623 38.3581 65.8868 39.0655H65.913V38.2993L66.7444 38.308Z" fill="#143B62"/>
<path d="M69.2737 45.0143H68.4422V38.308H69.2737V45.0143ZM69.2737 37.0086H68.4422V35.9094H69.2737V37.0086Z" fill="#143B62"/>
<path d="M72.4625 45.1754C71.8264 45.1908 71.1934 45.0813 70.5993 44.8533V44.0218C71.1592 44.3104 71.7804 44.4597 72.4103 44.4571C73.2004 44.4571 73.8991 44.0218 73.8991 43.2512C73.8991 41.6688 70.6799 41.9104 70.6799 39.9645C70.6799 38.6367 71.753 38.1404 72.8565 38.1404C73.41 38.1364 73.9584 38.2469 74.4672 38.4648V39.1874C73.9902 38.965 73.4699 38.8505 72.9436 38.8522C71.9663 38.8522 71.5092 39.2549 71.5092 39.8731C71.5092 40.3541 71.7638 40.5957 72.3145 40.8634C73.318 41.3336 74.809 41.8299 74.809 43.2578C74.809 44.6857 73.4812 45.1754 72.4604 45.1754" fill="#143B62"/>
<path d="M78.8293 44.9882C78.512 45.1083 78.176 45.1717 77.8367 45.1754C77.4965 45.191 77.1608 45.0921 76.8833 44.8946C76.4284 44.5725 76.3087 43.9826 76.3087 43.0706V39.0198H75.2465V38.308H76.3196V36.6864L77.1489 36.3904V38.308H78.6726V39.0198H77.1489V43.3514C77.1489 44.0044 77.3666 44.4658 78.0479 44.4658C78.3214 44.4651 78.5915 44.4057 78.8402 44.2917L78.8293 44.9882Z" fill="#143B62"/>
<path d="M83.8073 41.0855C83.8073 40.0124 83.3372 38.8587 82.103 38.8587C80.8688 38.8587 80.1592 40.0124 80.144 41.0855H83.8073ZM84.7063 41.7951H80.1353C80.1353 43.3187 80.8993 44.4658 82.3337 44.4658C83.0125 44.4435 83.6776 44.2687 84.2796 43.9543V44.7531C83.642 45.0241 82.9588 45.1719 82.2662 45.1885C80.0547 45.1885 79.2189 43.6866 79.2189 41.6753C79.2189 39.6227 80.3442 38.16 82.0486 38.16C83.9379 38.16 84.7041 39.6489 84.7041 41.3924L84.7063 41.7951Z" fill="#143B62"/>
<path d="M89.1532 39.0938C88.9567 39.0367 88.7527 39.0096 88.5481 39.0133C87.2421 39.0133 86.8851 40.4891 86.8851 41.6949V45.0143H86.0536V39.8099C86.0678 39.3087 86.0496 38.807 85.9992 38.308H86.8329V39.5966H86.859C87.1267 38.8174 87.6905 38.16 88.5481 38.16C88.7524 38.1625 88.9557 38.1903 89.1532 38.2427V39.0938Z" fill="#143B62"/>
</g>
<defs>
<clipPath id="clip0_6610_14631">
<rect width="87.8676" height="45.7143" fill="white" transform="translate(1.28564 2.14282)"/>
</clipPath>
</defs>
</svg>
