<svg width="116" height="58" viewBox="0 0 116 58" fill="none" xmlns="http://www.w3.org/2000/svg">
<path d="M45.903 23.9624C45.8526 22.5692 45.8767 21.1716 45.8898 19.7784C53.8672 19.8027 61.8425 19.7829 69.8199 19.7873C69.8199 21.176 69.8199 22.5604 69.8199 23.947C61.8469 23.9558 53.8738 23.9294 45.903 23.9624ZM56.7157 6.38441H58.7068C58.7221 7.06558 58.7221 7.74233 58.7177 8.4235C59.3843 8.4235 60.0509 8.4235 60.7175 8.41909C60.7219 9.08703 60.722 9.75497 60.7022 10.4207C60.0422 10.4207 59.38 10.4251 58.7199 10.4207C58.7199 11.0776 58.7199 11.7345 58.7243 12.3937C58.0687 12.4355 57.4108 12.4267 56.7552 12.4201C56.7508 11.7522 56.7508 11.0842 56.7486 10.4141C56.082 10.4229 55.4153 10.4185 54.7487 10.4207C54.7378 9.75497 54.74 9.08703 54.7378 8.42129C55.4088 8.42129 56.0798 8.41689 56.7486 8.42129C56.7332 7.74013 56.7946 7.05676 56.7157 6.38V6.38441ZM73.2757 15.4291C73.2757 17.3558 71.7233 18.9165 69.8067 18.9165C67.8902 18.9165 66.3377 17.3558 66.3377 15.4291C66.3377 13.5025 67.8902 11.9417 69.8067 11.9417C71.7233 11.9417 73.2757 13.5025 73.2757 15.4291ZM65.3027 15.4291C65.3027 17.3558 63.7503 18.9165 61.8337 18.9165C59.9172 18.9165 58.3647 17.3558 58.3647 15.4291C58.3647 13.5025 59.9172 11.9417 61.8337 11.9417C63.7503 11.9417 65.3027 13.5025 65.3027 15.4291ZM57.3297 15.4291C57.3297 17.3558 55.7772 18.9165 53.8607 18.9165C51.9442 18.9165 50.3917 17.3558 50.3917 15.4291C50.3917 13.5025 51.9442 11.9417 53.8607 11.9417C55.7772 11.9417 57.3297 13.5025 57.3297 15.4291ZM49.3567 15.4291C49.3567 17.3558 47.8041 18.9165 45.8876 18.9165C43.9711 18.9165 42.4186 17.3558 42.4186 15.4291C42.4186 13.5025 43.9711 11.9417 45.8876 11.9417C47.8041 11.9417 49.3567 13.5025 49.3567 15.4291Z" fill="white"/>
<path d="M63.586 27.4939C66.9015 27.4829 70.2192 27.516 73.5348 27.4785C74.5807 30.3398 75.4973 33.2497 76.4863 36.133C76.5674 36.003 76.6836 35.895 76.7252 35.7428C77.6703 32.9917 78.6374 30.2472 79.5913 27.4961C82.9266 27.4917 86.2595 27.4917 89.5948 27.4961V43.4826C87.5533 43.509 85.5119 43.4914 83.4704 43.4914C83.466 39.81 83.4878 36.1286 83.4593 32.4472C83.1743 32.6082 83.1458 32.9697 83.023 33.243C81.8389 36.6621 80.6219 40.0701 79.4378 43.4914C77.5191 43.4914 75.5982 43.5178 73.6795 43.4781C72.4757 39.9819 71.2323 36.5034 70.0175 33.0116C69.9736 32.8154 69.8661 32.6743 69.6951 32.5839C69.6907 36.2212 69.6951 39.8585 69.6951 43.498C67.658 43.498 65.621 43.498 63.5838 43.498C63.5882 38.1655 63.5838 32.8308 63.5838 27.4961L63.586 27.4939ZM26.1 27.4939C28.113 27.4939 30.1282 27.4939 32.1434 27.4939C32.1478 29.4316 32.139 31.3693 32.1434 33.307C34.141 31.3847 36.0926 29.4162 38.0902 27.4939C40.1208 27.4895 42.1513 27.4895 44.1797 27.4939C41.8399 29.8857 39.4366 32.2136 37.1145 34.6208C40.0397 37.4733 42.8662 40.4316 45.8177 43.2533C45.844 38.0002 45.8221 32.747 45.8287 27.4917C47.8877 27.4873 49.9467 27.4873 52.0058 27.4917C52.0058 31.4773 52.0014 35.4607 52.0058 39.4463C55.295 39.4374 58.582 39.4573 61.869 39.4352C61.915 40.7865 61.8756 42.1401 61.8909 43.4914C53.8982 43.4914 45.9032 43.498 37.9105 43.487C36.0203 41.5625 34.1038 39.6645 32.2048 37.7489C32.1785 39.6645 32.2092 41.5801 32.1894 43.498C30.1589 43.4826 28.1283 43.498 26.1 43.4892V27.4939Z" fill="white"/>
</svg>
