<svg width="66" height="50" viewBox="0 0 66 50" fill="none" xmlns="http://www.w3.org/2000/svg">
<path d="M20.8152 21.1647C20.7647 19.7706 20.7888 18.3722 20.802 16.9781C28.7843 17.0024 36.7645 16.9825 44.7468 16.9869C44.7468 18.3766 44.7468 19.7618 44.7468 21.1492C36.7689 21.158 28.7909 21.1316 20.8152 21.1647ZM31.6345 3.57582H33.6268C33.6422 4.25741 33.6422 4.93458 33.6378 5.61616C34.3048 5.61616 34.9718 5.61616 35.6388 5.61175C35.6432 6.2801 35.6433 6.94845 35.6235 7.61459C34.9631 7.61459 34.3004 7.619 33.64 7.61459C33.64 8.27191 33.64 8.92923 33.6444 9.58876C32.9883 9.63067 32.3301 9.62185 31.6741 9.61523C31.6697 8.94688 31.6697 8.27853 31.6675 7.60798C31.0004 7.6168 30.3334 7.61239 29.6664 7.61459C29.6554 6.94845 29.6576 6.2801 29.6554 5.61396C30.3269 5.61396 30.9982 5.60955 31.6675 5.61396C31.6521 4.93237 31.7135 4.24858 31.6345 3.57141V3.57582ZM48.2048 12.6261C48.2048 14.554 46.6513 16.1156 44.7337 16.1156C42.816 16.1156 41.2624 14.554 41.2624 12.6261C41.2624 10.6983 42.816 9.13658 44.7337 9.13658C46.6513 9.13658 48.2048 10.6983 48.2048 12.6261ZM40.2269 12.6261C40.2269 14.554 38.6734 16.1156 36.7557 16.1156C34.8381 16.1156 33.2845 14.554 33.2845 12.6261C33.2845 10.6983 34.8381 9.13658 36.7557 9.13658C38.6734 9.13658 40.2269 10.6983 40.2269 12.6261ZM32.2489 12.6261C32.2489 14.554 30.6955 16.1156 28.7778 16.1156C26.8601 16.1156 25.3066 14.554 25.3066 12.6261C25.3066 10.6983 26.8601 9.13658 28.7778 9.13658C30.6955 9.13658 32.2489 10.6983 32.2489 12.6261ZM24.271 12.6261C24.271 14.554 22.7175 16.1156 20.7998 16.1156C18.8821 16.1156 17.3286 14.554 17.3286 12.6261C17.3286 10.6983 18.8821 9.13658 20.7998 9.13658C22.7175 9.13658 24.271 10.6983 24.271 12.6261Z" fill="#00A1E4"/>
<path d="M38.509 24.6983C41.8266 24.6873 45.1464 24.7204 48.464 24.6829C49.5106 27.546 50.4277 30.4576 51.4173 33.3428C51.4985 33.2126 51.6147 33.1045 51.6564 32.9523C52.6021 30.1995 53.5698 27.4533 54.5242 24.7005C57.8615 24.6961 61.1966 24.6961 64.5339 24.7005V40.6968C62.4911 40.7233 60.4484 40.7056 58.4057 40.7056C58.4013 37.022 58.4232 33.3383 58.3946 29.6547C58.1094 29.8157 58.0809 30.1775 57.9581 30.451C56.7732 33.8721 55.5554 37.2823 54.3706 40.7056C52.4507 40.7056 50.5287 40.7321 48.6088 40.6924C47.4042 37.194 46.1601 33.7133 44.9445 30.2194C44.9006 30.0231 44.7931 29.8819 44.6219 29.7915C44.6175 33.431 44.6219 37.0705 44.6219 40.7122C42.5836 40.7122 40.5453 40.7122 38.5069 40.7122C38.5113 35.3765 38.5069 30.0385 38.5069 24.7005L38.509 24.6983ZM1 24.6983C3.01423 24.6983 5.03067 24.6983 7.0471 24.6983C7.05149 26.6372 7.04271 28.5761 7.0471 30.515C9.04598 28.5915 10.9987 26.6218 12.9976 24.6983C15.0294 24.6939 17.0612 24.6939 19.0908 24.6983C16.7496 27.0916 14.3448 29.4209 12.0212 31.8296C14.9482 34.6839 17.7765 37.644 20.7298 40.4674C20.7561 35.211 20.7342 29.9547 20.7408 24.6961C22.8011 24.6917 24.8614 24.6917 26.9217 24.6961C26.9217 28.6842 26.9173 32.67 26.9217 36.658C30.2129 36.6492 33.502 36.6691 36.791 36.647C36.8371 37.9991 36.7976 39.3535 36.813 40.7056C28.8153 40.7056 20.8154 40.7122 12.8177 40.7012C10.9264 38.7756 9.00868 36.8764 7.10854 34.9596C7.08221 36.8764 7.11292 38.7932 7.09317 40.7122C5.06138 40.6968 3.02959 40.7122 1 40.7034V24.6983Z" fill="#00A1E4"/>
</svg>
