<svg width="134" height="70" viewBox="0 0 134 70" fill="none" xmlns="http://www.w3.org/2000/svg">
<path d="M8.41336 30.2411C10.2462 30.2411 11.732 28.7553 11.732 26.9225C11.732 25.0896 10.2462 23.6038 8.41336 23.6038C6.58053 23.6038 5.09473 25.0896 5.09473 26.9225C5.09473 28.7553 6.58053 30.2411 8.41336 30.2411Z" fill="#000A1E"/>
<path d="M8.41323 48.9378C12.3234 48.9378 15.4932 45.768 15.4932 41.8578C15.4932 37.9477 12.3234 34.7779 8.41323 34.7779C4.50308 34.7779 1.33331 37.9477 1.33331 41.8578C1.33331 45.768 4.50308 48.9378 8.41323 48.9378Z" fill="#000A1E"/>
<path d="M23.7806 44.2615V31.3411C23.7806 24.8433 18.533 24.0545 17.2453 23.8453C15.9844 23.6655 13.763 23.5743 12.3545 23.6065C12.3545 23.6065 16.7972 24.7333 16.7972 28.3417V42.7591C16.7972 48.9967 26.0637 49.0262 27.4722 48.9967L28.0195 48.1864C26.6673 48.216 23.7806 48.1999 23.7806 44.2588V44.2615Z" fill="#000A1E"/>
<path d="M40.7652 23.6011C32.7517 23.6011 27.708 29.2752 27.708 36.1781C27.708 43.081 32.5719 48.9081 40.7384 48.9349C48.7519 48.9349 53.7956 43.2929 53.7956 36.3847C53.7956 29.4764 48.9317 23.5984 40.7652 23.5984V23.6011ZM42.6566 48.0093C39.566 48.0093 37.6424 44.0468 36.022 37.9219C35.1501 34.6516 34.6699 32.1271 34.6699 30.3564C34.6699 25.7339 36.7705 24.473 38.7826 24.473C41.8732 24.473 43.8558 28.465 45.4762 34.5309C46.3777 37.8012 46.7962 40.3848 46.7962 42.1581C46.7962 46.7511 44.6955 48.0415 42.6539 48.012L42.6566 48.0093Z" fill="#000A1E"/>
<path d="M71.7649 24.5268C69.4335 24.5268 67.2497 26.4208 65.7339 30.7321V24.1485L55.5983 28.4893V28.6637L58.8901 30.936V47.5399H55.5983V48.4145H69.0928V47.5399H65.7661V32.8596C65.7661 31.7811 66.96 30.4424 67.1934 30.209L72.5537 32.3928C73.9514 32.1004 75.2338 30.5872 75.2338 28.2264C75.2338 26.013 73.8334 24.5295 71.7676 24.5295L71.7649 24.5268Z" fill="#000A1E"/>
<path d="M87.3497 22.7856C85.0291 25.8655 77.5654 26.1203 77.5654 26.1203C77.5654 26.1203 79.6634 27.2498 79.6634 29.5436C79.6634 30.0882 79.7305 47.5533 79.7305 47.5533H76.8947V48.4145H90.3303V47.5533H87.3497V22.7856Z" fill="#000A1E"/>
<path d="M102.964 31.8938C98.9473 30.4263 97.673 29.6403 97.673 27.486C97.673 25.7716 98.8964 24.8648 100.906 24.8648C104.09 24.8648 110.478 32.4518 110.478 32.4518L109.99 24.1432C108.133 24.1432 103.599 23.7112 100.761 23.7112C96.2055 23.7112 92.5327 26.7965 92.5327 31.4002C92.5327 36.0039 95.0787 38.3057 100.466 40.2642C103.798 41.4393 105.512 42.2736 105.512 44.6238C105.512 46.7781 104.045 47.8458 101.791 47.8458C98.1157 47.8458 92.4362 39.7276 92.4362 39.7276L92.9244 48.0524C94.0163 48.0524 98.8508 48.9377 101.936 48.9377C107.275 48.9377 111.143 45.7532 111.143 40.7578C111.143 36.2024 108.597 33.9515 102.964 31.8911V31.8938Z" fill="#000A1E"/>
<path d="M132.075 44.3044L131.621 43.6578L131.321 43.9154C131.321 43.9154 129.341 45.5653 127.147 45.6055C125.671 45.6324 125.054 45.179 124.802 44.3071C124.694 44.079 124.635 43.7598 124.635 43.3064V26.3563H130.42L131.42 23.5662H124.635V15C124.635 15 121.027 23.1128 114.1 24.2047V26.3537H116.305V42.9415C116.305 44.9804 117.177 46.4318 118.449 47.4862H118.441C118.46 47.505 118.486 47.5211 118.505 47.5345C120.169 48.8115 125.218 49.9276 129.69 46.5982C130.513 45.9865 131.316 45.2434 132.072 44.3044H132.075Z" fill="#000A1E"/>
</svg>
