<svg width="115" height="70" viewBox="0 0 115 70" fill="none" xmlns="http://www.w3.org/2000/svg">
<path d="M78.4733 16.0043C80.5718 16.0356 82.2013 17.7458 82.1778 19.8777C82.1544 21.9862 80.4584 23.6183 78.3209 23.5949C76.2029 23.5754 74.5656 21.9003 74.5734 19.7684C74.589 17.6091 76.2889 15.9692 78.4733 16.0004V16.0043Z" fill="#32B8BB"/>
<path d="M75.3431 25.7692C77.293 28.3346 78.4536 31.5363 78.4536 35.0036C78.4536 43.4415 71.6072 50.2784 63.1665 50.2784C59.6964 50.2784 56.4921 49.1227 53.9248 47.1704L58.0552 43.0432C59.5323 43.9803 61.2869 44.5231 63.1626 44.5231C68.4224 44.5231 72.6897 40.2631 72.6897 35.0036C72.6897 33.1255 72.1426 31.3723 71.2048 29.9003L75.3391 25.7692H75.3431Z" fill="#32B8BB"/>
<path d="M72.2482 22.7165L68.1021 26.8593C66.664 25.9885 64.972 25.4848 63.1666 25.4848C57.9068 25.4848 53.6395 29.7487 53.6395 35.0043C53.6395 36.8082 54.1397 38.495 55.0151 39.9319L50.869 44.0747C48.9893 41.5406 47.8795 38.3974 47.8795 35.0043C47.8795 26.5703 54.7259 19.7295 63.1666 19.7295C66.5663 19.7295 69.7082 20.8384 72.2443 22.7165H72.2482Z" fill="#32B8BB"/>
<path d="M47.9891 46.4055C50.111 46.4173 51.7601 48.0884 51.7562 50.2164C51.7483 52.3444 50.0876 54 47.9657 54C45.8086 54 44.14 52.3093 44.1556 50.1422C44.1791 48.0299 45.8594 46.3899 47.993 46.4055H47.9891Z" fill="#32B8BB"/>
<path d="M113.854 20.9126L107.972 50.2791H102.388L91.431 31.9079L87.7342 50.2791H81.0168L86.898 20.9126H92.5212L103.482 39.3306L107.132 20.9126H113.854Z" fill="black"/>
<path d="M46.1722 25.0158L41.2602 29.0415C39.6932 26.7495 37.329 25.6015 34.1676 25.6015C32.0106 25.6015 30.1075 26.1052 28.4584 27.1126C26.8055 28.12 25.5237 29.4905 24.6171 31.2241C23.7066 32.9578 23.2533 34.8866 23.2533 37.0107C23.2533 39.2793 23.9763 41.0754 25.4143 42.403C26.8563 43.7306 28.8766 44.3944 31.4791 44.3944C34.5858 44.3944 37.1883 43.262 39.2868 40.9934L43.3157 45.105C40.4044 48.4903 36.2622 50.181 30.8852 50.181C27.9465 50.181 25.3791 49.65 23.1791 48.5879C20.9829 47.5219 19.2948 46.0265 18.1225 44.0976C16.9462 42.1687 16.3601 39.9431 16.3601 37.4285C16.3601 34.1018 17.1221 31.0992 18.65 28.4284C20.174 25.7577 22.3233 23.6531 25.0939 22.1147C27.8645 20.5763 31.0415 19.8071 34.6249 19.8071C37.2548 19.8071 39.5799 20.2561 41.5963 21.1503C43.6127 22.0522 45.1367 23.3368 46.1722 25.0119V25.0158Z" fill="black"/>
<path d="M14.3863 20.9126L8.50908 50.2791H1.66663L7.54386 20.9126H14.3863Z" fill="black"/>
</svg>
