<svg width="73" height="50" viewBox="0 0 73 50" fill="none" xmlns="http://www.w3.org/2000/svg">
<path d="M2.25048 20.9568V21.0152C2.25048 25.7713 6.84293 27.1034 11.5406 28.0616C13.9595 28.5407 14.6957 28.9147 14.6957 29.6158V29.6743C14.6957 30.3754 14.0179 30.726 12.6858 30.726C9.83446 30.726 6.59754 29.6626 4.38895 28.0149L1.64282 33.2267C4.16692 35.2366 8.16341 36.4286 12.3469 36.4286C18.3416 36.4286 22.0576 33.5773 22.0576 28.9965V28.9381C22.0576 24.4975 18.2949 22.8966 12.639 21.8566C10.372 21.4242 9.60075 21.0386 9.60075 20.3257V20.2673C9.60075 19.9635 9.76434 19.2507 11.3185 19.2507C13.1766 19.2507 15.946 19.6947 18.6805 21.7981L21.485 16.5513C18.8791 14.518 15.7357 13.5714 11.5756 13.5714C5.90808 13.5598 2.25048 16.4695 2.25048 20.9568Z" fill="#0171BE"/>
<path d="M24.3244 14.1907C23.7635 14.1907 23.3077 14.6465 23.3077 15.2074V35.8092H29.1389C29.6881 35.7975 30.1321 35.3417 30.1321 34.7925V14.1907H24.3244Z" fill="#0171BE"/>
<path d="M32.3893 14.1907C31.8283 14.1907 31.3726 14.6465 31.3726 15.2074V20.4075H38.3139L38.3372 20.4309V35.8092H44.1333C44.6825 35.7975 45.1266 35.3417 45.1266 34.7925V20.4192H52.1146L54.4634 14.2024H32.3893V14.1907Z" fill="#0171BE"/>
<path d="M56.7047 14.1907C56.1321 14.1907 55.653 14.5413 55.4543 15.0438L47.6132 35.8092H55.057L59.6962 23.5275L61.1686 27.4422H59.5443L57.4058 33.0981H63.3071L64.3354 35.8092H71.7558L63.9147 15.0438C63.7161 14.5413 63.2369 14.1907 62.6644 14.1907H56.7047Z" fill="#0171BE"/>
</svg>
