<svg width="116" height="58" viewBox="0 0 116 58" fill="none" xmlns="http://www.w3.org/2000/svg">
<path d="M26.6552 25.3066V25.36C26.6552 29.7046 30.8504 30.9215 35.1416 31.7969C37.3513 32.2345 38.0238 32.5761 38.0238 33.2166V33.27C38.0238 33.9105 37.4047 34.2307 36.1878 34.2307C33.5831 34.2307 30.6262 33.2593 28.6086 31.7542L26.1001 36.5152C28.4058 38.3512 32.0566 39.4401 35.8782 39.4401C41.3544 39.4401 44.749 36.8354 44.749 32.6509V32.5975C44.749 28.5411 41.3117 27.0786 36.1451 26.1285C34.0742 25.7336 33.3696 25.3813 33.3696 24.7301V24.6768C33.3696 24.3992 33.5191 23.7481 34.9388 23.7481C36.6361 23.7481 39.1661 24.1537 41.664 26.0752L44.2259 21.2822C41.8454 19.4248 38.9739 18.5601 35.1737 18.5601C29.9964 18.5494 26.6552 21.2074 26.6552 25.3066Z" fill="white"/>
<path d="M46.8196 19.1258C46.3073 19.1258 45.8909 19.5421 45.8909 20.0545V38.8742H51.2177C51.7194 38.8636 52.125 38.4472 52.125 37.9455V19.1258H46.8196Z" fill="white"/>
<path d="M54.1869 19.1258C53.6745 19.1258 53.2582 19.5421 53.2582 20.0545V24.8048H59.5991L59.6204 24.8262V38.8742H64.9151C65.4168 38.8636 65.8225 38.4472 65.8225 37.9455V24.8155H72.206L74.3517 19.1365H54.1869V19.1258Z" fill="white"/>
<path d="M76.3991 19.1258C75.876 19.1258 75.4383 19.446 75.2569 19.9051L68.094 38.8742H74.8939L79.1318 27.655L80.4769 31.2311H78.993L77.0396 36.3977H82.4303L83.3697 38.8742H90.1482L82.9854 19.9051C82.804 19.446 82.3663 19.1258 81.8432 19.1258H76.3991Z" fill="white"/>
</svg>
