<svg xmlns="http://www.w3.org/2000/svg" fill="none" viewBox="0 0 20 20">
  <path fill="url(#a)" d="M18.965 9.6334c-.0917-.0092-.188.0779-.2613.2245l-1.8792-3.2633c.1146-.2246.078-.605-.1191-.9625-.0734-.1375-.165-.2613-.2613-.3575l.0825-1.022c.2246.1328.4217.174.5134.087.0595-.0596.0641-.165.0229-.298-.3346-.4032-.7013-.779-1.1-1.1182-.1284-.0413-.2292-.0367-.2888.0183-.0916.0917-.0504.2979.0871.5362l-1.2742.0138-1.4575-1.7875c.1605-.023.2705-.078.298-.165.0183-.0688-.0138-.1467-.0825-.2292-.5317-.2017-1.0771-.3575-1.6271-.4583-.0871.0275-.1421.0733-.1604.1375-.0596.197.3162.4812.8341.6325.0825.0229.1604.0412.2384.055l1.485 1.8196-1.5996.0183c-.1146-.2338-.3575-.4354-.6738-.527-.2933-.0872-.5912-.0597-.8112.055l-1.0358-.7518c.1237-.087.2016-.197.2062-.3208.0092-.3025-.4217-.5546-.9625-.5683-.3346-.0092-.6325.0779-.8112.2154l-.6738-.1512c.1283-.1146.188-.2292.1558-.3209-.0229-.0687-.0962-.1146-.2016-.1375a8.3333 8.3333 0 0 0-.793.2475c-.0687.0275-.1374.0504-.2062.078a6.9717 6.9717 0 0 0-.1742.0687c-.0091.0046-.0183.0046-.0275.0091C4.2846 2.3 2.5933 3.9225 1.617 6.0171c-.0458.0962-.087.1925-.1283.2888v.0045C.572 8.4646.5033 10.848 1.31 13.0617c.8066 2.2137 2.3879 3.9967 4.4779 5.0554h.0046c.0916.0458.1879.0917.2841.1375 1.485.6921 3.0938.9717 4.6842.8296.0229.0046.0504 0 .0733-.0046.77-.0733 1.5354-.2475 2.2825-.5179 1.5584-.5684 2.9013-1.5171 3.9371-2.7683a8.9507 8.9507 0 0 0 .9533-1.398c.0046-.11-.0229-.1879-.0825-.2291-.1695-.1146-.5545.1558-.8525.605-.0504.0733-.0916.1466-.1329.22l-.935.4812a.4032.4032 0 0 0-.1512-.0825l1.5583-2.7362a.0648.0648 0 0 0 .0275.0091c.3208.0963.7058-.2429.8617-.7608a1.4863 1.4863 0 0 0 .0641-.5179l.1971-.1833c.0504.2245.1421.3712.2613.3804.0825.0046.165-.0596.2337-.1696a8.9447 8.9447 0 0 0 .1238-1.563c-.0596-.1328-.1284-.2108-.2154-.2153Zm-2.9242-5.7888c.0137.0183.0321.032.0458.0504.0275.0275.055.055.0825.078l-.0825 1.0495c-.1237-.0458-.2429-.0458-.3391.0046l-.958-1.1733 1.2513-.0092Zm-1.7279.023 1.2283 1.5032c-.0367.22.0183.5134.1696.793a.687.687 0 0 0 .0458.0779l-2.2183 3.3458L10.1466 8.02c.0459-.1833.0367-.3758-.0321-.5637a.9697.9697 0 0 0-.2795-.4034l1.4941-2.6125c.5134.1467 1.0221-.055 1.1367-.4537.0092-.0321.0137-.0642.0183-.0963l1.8288-.0229Zm2.7683 8.1858c-1.2054 1.0266-2.7225 1.9387-4.3908 2.64-.11-.11-.275-.1742-.4629-.1925l.4995-2.2963a.8728.8728 0 0 0 .2796-.0596c.5088-.1833.77-.7471.5821-1.2512-.0504-.1421-.1329-.2613-.2337-.3621l.3116-.4675 3.4467 1.5904a1.3379 1.3379 0 0 0-.0321.3988Zm-6.1004-7.7688L9.505 6.865a.9885.9885 0 0 0-.463-.0412l-.7654-2.0992a18.736 18.736 0 0 1 2.4429-.6875 1.04 1.04 0 0 0 .2613.2475Zm2.0671 6.0363c-.22-.0917-.4675-.1009-.7059-.0138-.44.1604-.6966.6096-.6325 1.0542L7.5571 12.805a1.0143 1.0143 0 0 0-.1971-.2383l1.6316-3.818a.9789.9789 0 0 0 .5363-.0366.9685.9685 0 0 0 .4583-.3438l3.3413 1.54-.2796.4126Zm-6.3846 1.9845c-.142-.3437-.2796-.692-.408-1.0495-.22-.6096-.417-1.2146-.5866-1.8196.8388-.3896 1.7463-.77 2.695-1.1367.0733.1192.1696.22.2842.2933L7.039 12.356c-.1283-.0413-.2566-.0596-.3758-.0505Zm2.0258-5.3533c-.3437.2063-.527.605-.4583.9992-.935.362-1.8288.7379-2.663 1.1229-.2612-.9763-.4537-1.9296-.5728-2.8325.8983-.5271 1.8837-.9946 2.9287-1.3888l.7654 2.0992Zm-2.7866 4.4367c.1283.3575.2658.7058.4079 1.0496-.2475.1787-.3575.5041-.3025.8387-.7792.1879-1.5125.3346-2.1817.44a14.512 14.512 0 0 1-.5729-1.3658 16.25 16.25 0 0 1-.44-1.4163c.7288-.44 1.572-.8891 2.507-1.3337.1697.5912.3622 1.1916.5822 1.7875Zm.2291 2.2412a.2571.2571 0 0 0 .0184.0321c.22.3713.605.5638.9533.5133.3208.6371.66 1.2421 1.0083 1.8013-.9854.1421-1.9387.1879-2.8279.1329-.4766-.6233-.9029-1.3062-1.2787-2.0396.6508-.1054 1.3658-.2521 2.1266-.44Zm1.3109.3942c.2383-.1971.33-.5317.252-.8709l4.1342-1.4345a.958.958 0 0 0 .5271.4308l-.5225 2.3787c-.0596.0138-.1146.0276-.1742.0505-.4079.1466-.6829.4537-.715.7471-.8204.2566-1.6362.4537-2.4337.5866-.3713-.5821-.7288-1.2192-1.068-1.8883Zm3.6162 1.6592c.1742.2016.5133.2841.88.2016l.4813 1.3246a13.6036 13.6036 0 0 1-2.4796.6096c-.408-.4583-.8113-.9854-1.2054-1.5675a17.6727 17.6727 0 0 0 2.3237-.5683Zm-.4125-12.3796c-.0229.0412-.0458.087-.0596.1329a.6473.6473 0 0 0-.0183.2475c-.8067.1696-1.618.3987-2.4246.6829L7.502 2.6025c.3071-.1054.6142-.2016.9259-.2887.1742.1008.4125.165.6737.1696a1.642 1.642 0 0 0 .3759-.0321l1.1687.8525Zm-2.5025-1.343a.163.163 0 0 0 .0092.0459c-.2613.0733-.518.1558-.7792.2475L7.1904 1.75l.9533.2108Zm-3.167.6555a8.7731 8.7731 0 0 1 1.1962-.683c.165.0321.4033.0138.6646-.0595l.1833.5087c-.747.2842-1.4667.628-2.1404 1.0267.0229-.2796.055-.5408.0962-.793Zm-.1147 1.242a13.283 13.283 0 0 1 2.2917-1.1229L7.7954 4.5c-1.013.3804-1.9708.8296-2.8463 1.3338-.0779-.6967-.11-1.3613-.087-1.9754Zm.3575 5.3763c-.9258.4354-1.7645.88-2.4979 1.3154-.1833-.802-.2933-1.5996-.33-2.3833.6463-.6142 1.4071-1.1917 2.2505-1.7142.1283.8938.3208 1.8288.5774 2.7821Zm-2.53-4.3404A8.6633 8.6633 0 0 1 4.555 2.9234c-.0275.2337-.0459.472-.0596.7241-.6646.4217-1.2833.8938-1.8425 1.4117.0091-.055.0229-.11.0367-.165Zm-.165.8067c.5776-.5867 1.2375-1.123 1.9571-1.5996-.0046.6095.0321 1.2604.1146 1.9433-.8204.4996-1.5629 1.045-2.2137 1.627-.0092-.6737.0366-1.3337.142-1.9707Zm-.7058.7883c.0825-.1054.1696-.2063.2567-.3071-.0688.5958-.0917 1.21-.0688 1.8333-.3025.2934-.5775.5913-.825.8984a8.8995 8.8995 0 0 1 .6371-2.4246ZM1.278 11.517c-.1192-.6371-.165-1.2788-.1467-1.9158.2613-.3667.5638-.7288.903-1.0771.055.7379.1695 1.4896.3483 2.2367-.4125.2566-.7838.5087-1.1046.7562Zm.385 1.4117a9.7896 9.7896 0 0 1-.3025-1.0084c.3208-.252.6966-.5133 1.1183-.7837.1192.4492.2567.8937.4171 1.3383.1604.4446.3392.8754.5362 1.2925-.4995.0688-.9579.11-1.3566.1238-.1513-.3071-.2934-.6279-.4125-.9625Zm1.7325 2.8966a9.2153 9.2153 0 0 1-1.123-1.5583c.4034-.0183.8526-.0642 1.3338-.1329.3483.6875.738 1.3383 1.1734 1.9387-.4813-.055-.9442-.1375-1.3842-.2475Zm2.53 1.9388c-.7563-.3896-1.4438-.8754-2.0488-1.4483.3896.0733.793.1237 1.21.1558.385.4904.7975.9487 1.233 1.3612a5.4185 5.4185 0 0 1-.3942-.0687Zm-.3346-1.265c.8708.0275 1.792-.0321 2.7408-.1788.3759.573.7654 1.1 1.1642 1.563-.857.0962-1.705.11-2.5254.032-.4904-.4216-.9533-.8983-1.3796-1.4162Zm2.0213 1.925a2.583 2.583 0 0 1-.133-.1008c.7609.0366 1.5354-.0001 2.3192-.1055.1696.1834.3392.3575.5087.5134-.9029.0458-1.8104-.0596-2.695-.3071Zm3.222.2796a9.0575 9.0575 0 0 1-.5821-.5455 13.522 13.522 0 0 0 2.2963-.5912l.2567.7058a8.9763 8.9763 0 0 1-1.9709.4309Zm5.9263-3.1488c-.9534 1.155-2.1771 2.0396-3.5979 2.5896l-.2567-.7058a15.0095 15.0095 0 0 0 1.6317-.7379c.2245.1191.6233.0549.99-.1788.2979-.1879.5041-.4446.5637-.6692l.6738-.3437c-.0046.0137-.0046.0275-.0046.0458Zm-1.3475-.1604c-.1513.0367-.3163.1054-.4721.2063-.3438.22-.5638.5225-.5821.7654a14.2007 14.2007 0 0 1-1.5858.7196l-.4813-1.3246c.33-.1742.5409-.4584.5454-.7242 1.5584-.6554 2.993-1.4896 4.1709-2.4383l-1.595 2.7958Zm2.5941-4.6017c-.2658-.0825-.5729.1375-.7608.5088L13.882 9.7479l2.1175-3.1945c.165.1604.3484.2474.5088.2474l2.0396 3.5476a1.9094 1.9094 0 0 0-.0275.2337c-.0046.0504-.0046.1008-.0046.1467l-.2704.2566c-.0642-.0962-.1421-.165-.2384-.1925Z"/>
  <defs>
    <linearGradient id="a" x1="1.3102" x2="18.1182" y1="13.0588" y2="6.9412" gradientUnits="userSpaceOnUse">
      <stop stop-color="#8C78FF"/>
      <stop offset=".8" stop-color="#fff"/>
    </linearGradient>
  </defs>
</svg>