<svg width="116" height="58" viewBox="0 0 116 58" fill="none" xmlns="http://www.w3.org/2000/svg">
<path d="M41.5924 28.791C41.5617 28.0358 41.6812 27.2819 41.944 26.573C42.2068 25.864 42.6077 25.214 43.1235 24.6604C43.6393 24.1069 44.2599 23.6607 44.9494 23.3477C45.639 23.0347 46.3838 22.861 47.1409 22.8367H47.3762C50.3025 22.8367 52.0296 24.5543 52.5403 26.5639L50.7214 27.1708C50.558 26.4219 50.1302 25.7566 49.5161 25.2962C48.902 24.8359 48.1425 24.6112 47.3762 24.663C45.4827 24.663 43.5835 26.0429 43.5835 28.8254C43.5835 31.6079 45.4368 32.9362 47.3992 32.9362C48.1693 32.9572 48.9242 32.7198 49.5432 32.2621C50.1621 31.8043 50.6093 31.1527 50.8132 30.4113L52.5977 30.9839C52.2896 32.1147 51.6045 33.107 50.6553 33.7971C49.706 34.4872 48.5494 34.8338 47.3762 34.7798C45.869 34.8074 44.4125 34.2367 43.3269 33.1931C42.2413 32.1496 41.6153 30.7186 41.5867 29.2147C41.5809 29.0773 41.5867 28.9342 41.5924 28.791Z" fill="white"/>
<path d="M56.1379 34.5164H54.2559V22.8023H56.1379V27.3826C56.4112 27.0592 56.7548 26.8024 57.1426 26.6318C57.5304 26.4611 57.9522 26.3811 58.3757 26.3978C60.3209 26.3978 61.2447 27.7891 61.2447 29.5239V34.5164H59.4315V29.856C59.4858 29.4587 59.3815 29.056 59.1411 28.7347C58.9007 28.4134 58.5434 28.1992 58.1462 28.1383C58.0336 28.1268 57.9202 28.1268 57.8077 28.1383C57.3724 28.1383 56.955 28.3109 56.6473 28.6179C56.3395 28.925 56.1666 29.3415 56.1666 29.7758C56.1638 29.8235 56.1638 29.8713 56.1666 29.9189L56.1379 34.5164Z" fill="white"/>
<path d="M65.4677 30.0048L67.4875 29.6899C67.9465 29.6327 68.0612 29.3979 68.0612 29.1174C68.0612 28.4532 67.6137 27.9208 66.5694 27.9208C66.175 27.889 65.7839 28.0136 65.481 28.2676C65.1781 28.5216 64.9878 28.8846 64.9513 29.2777V29.3636L63.23 28.98C63.3734 27.6173 64.6128 26.4036 66.5522 26.4036C68.9851 26.4036 69.9089 27.7776 69.9089 29.3807V33.2912C69.9069 33.7149 69.9395 34.1381 70.0064 34.5565H68.285C68.223 34.2244 68.198 33.8864 68.2104 33.5488C67.9492 33.9501 67.587 34.2759 67.1601 34.4939C66.7333 34.7119 66.2565 34.8144 65.7776 34.7912C65.1234 34.8451 64.4745 34.6379 63.9732 34.215C63.4719 33.7921 63.1592 33.1881 63.1037 32.5354C63.1037 32.4953 63.1037 32.4553 63.1037 32.4209C63.075 30.9724 64.1136 30.1938 65.4677 30.0048ZM68.0727 31.2701V30.9094L66.0128 31.2186C65.7332 31.2274 65.4678 31.3438 65.2721 31.5433C65.0764 31.7428 64.9656 32.0101 64.9628 32.2892C64.965 32.4276 64.9948 32.5641 65.0504 32.6908C65.1061 32.8175 65.1864 32.9319 65.2869 33.0273C65.3873 33.1227 65.5057 33.1972 65.6353 33.2464C65.7648 33.2957 65.9029 33.3187 66.0415 33.3141H66.1276C66.3624 33.3386 66.5999 33.3165 66.8261 33.2491C67.0524 33.1817 67.2631 33.0703 67.446 32.9213C67.629 32.7722 67.7805 32.5886 67.892 32.3809C68.0035 32.1732 68.0727 31.9455 68.0957 31.711C68.1039 31.5634 68.0942 31.4154 68.067 31.2701H68.0727Z" fill="white"/>
<path d="M73.1106 22.642C73.2723 22.6397 73.4329 22.6694 73.5831 22.7292C73.7333 22.789 73.8702 22.8779 73.9859 22.9907C74.1016 23.1035 74.1939 23.238 74.2573 23.3864C74.3208 23.5349 74.3542 23.6944 74.3557 23.8558C74.3557 24.0974 74.2841 24.3336 74.1499 24.5347C74.0157 24.7358 73.825 24.8928 73.6016 24.986C73.3782 25.0792 73.1322 25.1045 72.8945 25.0586C72.6568 25.0127 72.438 24.8977 72.2656 24.728C72.0932 24.5584 71.9749 24.3417 71.9256 24.1052C71.8763 23.8686 71.8982 23.6228 71.9885 23.3987C72.0788 23.1745 72.2335 22.982 72.4332 22.8453C72.6328 22.7087 72.8685 22.6339 73.1106 22.6305V22.642ZM72.1925 34.5508V26.6383H74.0745V34.5164L72.1925 34.5508Z" fill="white"/>
<path d="M78.3607 34.5164H76.4845V26.6383H78.3148V27.686C78.5535 27.2837 78.8962 26.9529 79.3071 26.7282C79.718 26.5036 80.1819 26.3934 80.6502 26.4093C82.5781 26.4093 83.5191 27.8005 83.5191 29.5353V34.5164H81.6428V29.856C81.6428 28.8884 81.201 28.104 80.019 28.104C79.8005 28.1055 79.5844 28.1499 79.3831 28.2348C79.1818 28.3196 78.9992 28.4431 78.8457 28.5984C78.6923 28.7536 78.571 28.9375 78.4888 29.1395C78.4065 29.3416 78.365 29.5578 78.3665 29.7758C78.3665 29.8388 78.3665 29.9018 78.3665 29.9647L78.3607 34.5164Z" fill="white"/>
<path d="M85.7913 34.5164V22.8023H87.6733V34.5164H85.7913Z" fill="white"/>
<path d="M91.03 22.642C91.2722 22.6409 91.5093 22.7116 91.7111 22.8451C91.913 22.9787 92.0705 23.1691 92.1637 23.3922C92.257 23.6152 92.2816 23.8609 92.2347 24.098C92.1877 24.3351 92.0712 24.5529 91.8999 24.7238C91.7286 24.8947 91.5103 25.011 91.2727 25.0578C91.0351 25.1047 90.7889 25.0801 90.5654 24.9871C90.3418 24.8941 90.151 24.7369 90.0171 24.5354C89.8833 24.334 89.8124 24.0974 89.8135 23.8558C89.8165 23.5348 89.9457 23.2278 90.1731 23.0008C90.4006 22.7738 90.7083 22.645 91.03 22.642ZM90.1062 34.5508V26.6383H91.971V34.5164L90.1062 34.5508Z" fill="white"/>
<path d="M96.2859 34.5164H94.4039V26.6383H96.2342V27.686C96.4733 27.2841 96.8162 26.9536 97.227 26.729C97.6377 26.5045 98.1014 26.394 98.5696 26.4093C100.497 26.4093 101.438 27.8005 101.438 29.5353V34.5164H99.5565V29.856C99.6108 29.4587 99.5065 29.056 99.2661 28.7347C99.0257 28.4134 98.6684 28.1992 98.2712 28.1383C98.1567 28.1269 98.0414 28.1269 97.9269 28.1383C97.4886 28.1429 97.0698 28.3198 96.7614 28.6307C96.4531 28.9416 96.2801 29.3613 96.2801 29.7987C96.2743 29.8654 96.2743 29.9324 96.2801 29.9991L96.2859 34.5164Z" fill="white"/>
<path d="M107.859 29.9647L111.17 34.545H108.875L106.58 31.2987L105.61 32.3179V34.5164H103.745V22.8023H105.61V29.8216L108.64 26.6383H111.136L107.859 29.9647Z" fill="white"/>
<path d="M19.3122 19.6304L27.4485 24.2909V33.6576L19.3352 38.3467L11.2046 33.6977V24.3367L19.3122 19.6304ZM19.3122 12.76L16.3285 14.4776L8.2037 19.1839L5.22 20.9015V37.1443L8.2037 38.862L16.34 43.5224L19.3237 45.24L22.3074 43.5224L30.415 38.8276L33.3987 37.11V20.8442L30.415 19.1266L22.2845 14.4776L19.3008 12.76H19.3122Z" fill="white"/>
</svg>
