<svg width="92" height="70" viewBox="0 0 92 70" fill="none" xmlns="http://www.w3.org/2000/svg">
<path d="M29.0748 29.6305C29.0041 27.6789 29.0379 25.721 29.0563 23.7694C40.2316 23.8033 51.4038 23.7755 62.5791 23.7817C62.5791 25.7272 62.5791 27.6665 62.5791 29.6089C51.41 29.6213 40.2408 29.5842 29.0748 29.6305ZM44.2218 5.00618H47.0111C47.0326 5.96039 47.0326 6.90843 47.0264 7.86265C47.9603 7.86265 48.8941 7.86265 49.8279 7.85648C49.834 8.79217 49.8341 9.72785 49.8064 10.6605C48.8818 10.6605 47.9541 10.6666 47.0295 10.6605C47.0295 11.5807 47.0295 12.501 47.0357 13.4243C46.1172 13.483 45.1956 13.4706 44.2772 13.4613C44.271 12.5257 44.271 11.59 44.2679 10.6512C43.3341 10.6635 42.4002 10.6574 41.4664 10.6605C41.4511 9.72785 41.4542 8.79217 41.4511 7.85956C42.3911 7.85956 43.331 7.85339 44.2679 7.85956C44.2464 6.90535 44.3324 5.94804 44.2218 5V5.00618ZM67.4202 17.6766C67.4202 20.3756 65.2454 22.5619 62.5606 22.5619C59.8759 22.5619 57.7009 20.3756 57.7009 17.6766C57.7009 14.9776 59.8759 12.7912 62.5606 12.7912C65.2454 12.7912 67.4202 14.9776 67.4202 17.6766ZM56.2511 17.6766C56.2511 20.3756 54.0763 22.5619 51.3915 22.5619C48.7068 22.5619 46.5318 20.3756 46.5318 17.6766C46.5318 14.9776 48.7068 12.7912 51.3915 12.7912C54.0763 12.7912 56.2511 14.9776 56.2511 17.6766ZM45.0819 17.6766C45.0819 20.3756 42.9072 22.5619 40.2224 22.5619C37.5376 22.5619 35.3628 20.3756 35.3628 17.6766C35.3628 14.9776 37.5376 12.7912 40.2224 12.7912C42.9072 12.7912 45.0819 14.9776 45.0819 17.6766ZM33.9129 17.6766C33.9129 20.3756 31.738 22.5619 29.0532 22.5619C26.3685 22.5619 24.1936 20.3756 24.1936 17.6766C24.1936 14.9776 26.3685 12.7912 29.0532 12.7912C31.738 12.7912 33.9129 14.9776 33.9129 17.6766Z" fill="#00A1E4"/>
<path d="M53.8462 34.5777C58.4908 34.5622 63.1384 34.6086 67.783 34.5561C69.2483 38.5644 70.5323 42.6407 71.9177 46.6799C72.0313 46.4977 72.1941 46.3464 72.2525 46.1333C73.5764 42.2794 74.9312 38.4347 76.2674 34.5808C80.9397 34.5746 85.6087 34.5746 90.2809 34.5808V56.9756C87.4211 57.0126 84.5613 56.9879 81.7015 56.9879C81.6953 51.8308 81.7259 46.6737 81.686 41.5166C81.2867 41.742 81.2468 42.2485 81.0748 42.6314C79.416 47.421 77.7111 52.1952 76.0523 56.9879C73.3645 56.9879 70.6737 57.025 67.9858 56.9694C66.2994 52.0717 64.5576 47.1987 62.8558 42.3072C62.7944 42.0323 62.6438 41.8347 62.4042 41.7081C62.3981 46.8034 62.4042 51.8987 62.4042 56.9972C59.5505 56.9972 56.6969 56.9972 53.8432 56.9972C53.8493 49.5271 53.8432 42.0539 53.8432 34.5808L53.8462 34.5777ZM1.3335 34.5777C4.15342 34.5777 6.97644 34.5777 9.79944 34.5777C9.80558 37.2921 9.79329 40.0065 9.79944 42.721C12.5979 40.0282 15.3317 37.2705 18.1302 34.5777C20.9747 34.5715 23.8192 34.5715 26.6606 34.5777C23.383 37.9283 20.0163 41.1893 16.7632 44.5615C20.861 48.5574 24.8206 52.7016 28.9552 56.6544C28.9921 49.2955 28.9614 41.9366 28.9706 34.5746C31.855 34.5684 34.7395 34.5684 37.6239 34.5746C37.6239 40.1579 37.6177 45.738 37.6239 51.3213C42.2316 51.3089 46.8363 51.3367 51.4409 51.3058C51.5054 53.1988 51.4502 55.0949 51.4717 56.9879C40.2749 56.9879 29.0751 56.9972 17.8783 56.9817C15.2304 54.2858 12.5457 51.627 9.88546 48.9434C9.8486 51.627 9.89158 54.3105 9.86393 56.9972C7.01943 56.9756 4.17493 56.9972 1.3335 56.9848V34.5777Z" fill="#00A1E4"/>
</svg>
