<svg width="92" height="50" viewBox="0 0 92 50" fill="none" xmlns="http://www.w3.org/2000/svg">
<g clip-path="url(#clip0_6610_14639)">
<path d="M45.2025 12.3828H47.4967V19.6526C47.4967 20.9338 47.1094 21.917 46.3049 22.5725C44.4874 23.9133 42.0443 23.9133 40.2268 22.5725C39.4224 21.917 39.035 20.9338 39.035 19.6526V12.3828H41.3292V19.6526C41.3292 20.3975 41.508 20.904 41.8655 21.2317C42.6998 21.8872 43.8916 21.8872 44.7258 21.2317C45.0833 20.904 45.2323 20.3677 45.2323 19.6526L45.2025 12.3828ZM52.532 16.8221C51.9659 16.7924 51.3998 17.0903 51.1316 17.5968V23.4067H48.9268V15.2132H50.9827L51.0422 16.1369C51.6083 15.4218 52.5022 15.0047 53.396 15.0345C54.0813 15.0047 54.7666 15.243 55.2731 15.7197C55.7498 16.1965 55.9881 17.0009 55.9881 18.1629V23.377H53.7833V18.1927C53.7833 17.6564 53.6642 17.2989 53.4556 17.1201C53.2172 16.9115 52.8895 16.7924 52.532 16.8221ZM57.4779 13.0978C57.4779 12.7999 57.5971 12.5019 57.8056 12.2934C58.3121 11.8762 59.0868 11.8762 59.5933 12.2934C59.8019 12.5019 59.9508 12.7999 59.921 13.0978C59.921 13.3958 59.8019 13.6937 59.5933 13.9023C59.0868 14.3194 58.3121 14.3194 57.8056 13.9023C57.5971 13.6937 57.4779 13.3958 57.4779 13.0978ZM59.8316 15.2132V23.4067H57.6268V15.2132H59.8316ZM65.5224 23.377C65.1053 23.5259 64.6584 23.5855 64.2114 23.5855C63.5858 23.6153 62.9899 23.4067 62.4834 23.0194C62.0662 22.6619 61.8577 22.0362 61.8577 21.1424V16.8221H60.6361V15.2132H61.8577V13.1872H64.0625V15.2132H65.4628V16.8221H64.0625V20.9338C64.0327 21.1722 64.0923 21.4403 64.271 21.6191C64.4498 21.7383 64.6882 21.7978 64.8967 21.7978C65.0159 21.7978 65.1351 21.7978 65.2543 21.768C65.3734 21.768 65.4628 21.7383 65.5224 21.7383V23.377ZM73.4478 22.0958C73.12 22.5129 72.7327 22.8704 72.256 23.1088C71.6303 23.4365 70.945 23.5855 70.2597 23.5855C68.9786 23.5855 67.9656 23.1982 67.2505 22.4235C66.5354 21.6489 66.1481 20.6656 66.1779 19.6228V19.3249C66.1183 18.2225 66.5056 17.1201 67.2207 16.2858C67.9358 15.4814 68.9488 15.0345 70.0214 15.0941C71.2132 15.0941 72.107 15.4516 72.7029 16.1965C73.2988 16.9413 73.6265 17.9245 73.6265 19.1163V20.04H68.4125C68.4721 20.5167 68.6806 20.9934 69.0382 21.3211C69.3957 21.6489 69.9022 21.8276 70.4087 21.7978C71.1834 21.8276 71.9282 21.4999 72.3752 20.8742L73.4478 22.0958ZM69.9916 16.8221C69.5745 16.7924 69.1871 16.9711 68.919 17.2989C68.6508 17.6564 68.4721 18.0735 68.4125 18.5204H71.4515V18.3417C71.4515 17.9543 71.3324 17.567 71.094 17.2393C70.8258 16.9413 70.4087 16.7924 69.9916 16.8221ZM79.7344 23.4365L79.6152 22.5725C79.3769 22.8704 79.0789 23.1386 78.7214 23.3174C78.3639 23.4961 77.9467 23.5855 77.5296 23.5855C76.5762 23.6153 75.6824 23.1684 75.1759 22.3937C74.58 21.4999 74.282 20.4571 74.3416 19.4143V19.2653C74.3416 18.0139 74.6098 17.0009 75.1759 16.2263C75.7122 15.4516 76.606 15.0345 77.5594 15.0643C78.3341 15.0345 79.0491 15.3622 79.5259 15.9581V11.7869H81.7307V23.4365H79.7344ZM76.5166 19.4143C76.4868 19.9804 76.606 20.5763 76.8741 21.0828C77.1125 21.5297 77.5892 21.8276 78.0957 21.768C78.6916 21.7978 79.2577 21.4701 79.5259 20.9338V17.6862C79.2875 17.1499 78.7214 16.7924 78.0957 16.8221C77.5892 16.7924 77.1125 17.0605 76.8741 17.5372C76.606 18.0735 76.4868 18.6694 76.5166 19.2653V19.4143ZM48.0926 25.5818V36.6355H45.8282L41.3888 29.3359V36.6355H39.0946V25.5818H41.3888L45.8282 32.8814V25.5818H48.0926ZM54.4984 36.6355C54.3792 36.3972 54.3196 36.1588 54.2899 35.8907C54.0515 36.1588 53.7833 36.3674 53.4556 36.5164C53.0683 36.6951 52.6512 36.7845 52.2042 36.7845C51.4892 36.8143 50.7741 36.5462 50.2378 36.0992C49.7015 35.6523 49.4333 35.0266 49.4333 34.3414C49.4035 33.5667 49.7611 32.792 50.3868 32.3451C51.0125 31.8684 51.9659 31.6301 53.2173 31.6301H54.2005V31.1533C54.2303 30.8256 54.1111 30.4979 53.9025 30.2297C53.6642 29.9914 53.3364 29.8722 52.9789 29.902C52.2042 29.902 51.8169 30.2297 51.8169 30.8852H49.6121C49.6121 30.1701 49.9696 29.4848 50.5655 29.0379C51.3104 28.5016 52.2042 28.2335 53.0981 28.2633C53.9323 28.2335 54.7666 28.4718 55.4518 28.9783C56.0775 29.455 56.3755 30.1701 56.3755 31.1533V34.6095C56.3755 34.9968 56.4053 35.3544 56.4649 35.7417C56.5244 36.0099 56.584 36.2482 56.7032 36.4866V36.6355H54.4984ZM52.681 35.116C53.0087 35.116 53.3364 35.0266 53.6344 34.8777C53.8727 34.7585 54.0515 34.5499 54.2005 34.3414V32.9112H53.3066C52.8597 32.8814 52.383 33.0006 52.0255 33.2688C51.7573 33.5071 51.6083 33.8349 51.6083 34.1626C51.6083 34.4307 51.6977 34.6691 51.8765 34.8479C52.1149 35.0266 52.4128 35.116 52.681 35.116ZM62.0067 36.576C61.7981 36.6355 61.6193 36.6951 61.4108 36.7249C61.1724 36.7547 60.934 36.7845 60.6957 36.7845C60.07 36.8143 59.4741 36.6057 58.9676 36.2184C58.5505 35.8609 58.3419 35.2352 58.3419 34.3414V30.0211H57.1203V28.4122H58.3419V26.3862H60.5467V28.4122H61.9471V30.0211H60.5467V34.1328C60.5169 34.3712 60.5765 34.6393 60.7553 34.8181C60.934 34.9373 61.1724 34.9968 61.381 34.9968C61.5001 34.9968 61.6193 34.9968 61.7385 34.967C61.8577 34.967 61.9471 34.9373 62.0067 34.9373V36.576ZM62.9303 26.2968C62.9303 25.9989 63.0495 25.7009 63.258 25.4924C63.7645 25.0752 64.5392 25.0752 65.0457 25.4924C65.4926 25.9393 65.4926 26.6544 65.0457 27.1311C64.5392 27.5482 63.7645 27.5482 63.258 27.1311C63.0197 26.8927 62.9005 26.5948 62.9303 26.2968ZM65.2543 28.4122V36.6355H63.0495V28.4122H65.2543ZM66.5056 32.6133V32.4643C66.4758 31.3917 66.8334 30.3191 67.5186 29.4848C68.2039 28.6804 69.1573 28.2931 70.3789 28.2931C71.6303 28.2931 72.5837 28.6804 73.269 29.4848C73.9543 30.3191 74.3118 31.3917 74.282 32.4643V32.6133C74.3118 33.6859 73.9543 34.7585 73.269 35.5927C72.5837 36.3972 71.6303 36.7845 70.4087 36.7845C69.1573 36.7845 68.2039 36.3972 67.5186 35.5927C66.8334 34.7585 66.4758 33.6859 66.5056 32.6133ZM68.7104 32.4345V32.5835C68.6806 33.1794 68.8296 33.7753 69.0978 34.2818C69.5745 34.9968 70.5577 35.2054 71.2728 34.7287C71.4515 34.6095 71.6005 34.4605 71.7197 34.2818C71.9878 33.7455 72.107 33.1794 72.107 32.5835V32.4345C72.1368 31.8386 71.9878 31.2725 71.7197 30.7362C71.4515 30.2595 70.945 29.9616 70.4087 30.0211C69.8724 29.9914 69.3659 30.2595 69.0978 30.7362C68.8296 31.2725 68.6806 31.8684 68.7104 32.4345ZM78.9896 30.0509C78.4235 30.0211 77.8574 30.3191 77.5892 30.8554V36.6355H75.3844V28.4122H77.4402L77.5296 29.3657C78.0957 28.6506 78.9598 28.2335 79.8834 28.2633C80.5985 28.2335 81.2837 28.4718 81.7902 28.9485C82.267 29.4253 82.5053 30.2297 82.5053 31.3917V36.6355H80.3005V31.3917C80.3005 30.8554 80.1813 30.4979 79.9728 30.3191C79.6748 30.1105 79.3173 30.0211 78.9896 30.0509ZM88.4046 34.3414C88.4046 34.103 88.2855 33.8646 88.0769 33.7455C87.6598 33.5071 87.1831 33.3581 86.7361 33.2985C85.9913 33.1496 85.2762 32.8814 84.6505 32.4643C84.1142 32.1068 83.7865 31.4811 83.8163 30.8256C83.8163 30.1403 84.144 29.4848 84.6803 29.0379C85.2762 28.5314 86.0509 28.2633 87.0937 28.2633C88.1365 28.2633 89.0005 28.5016 89.6262 29.0081C90.2221 29.455 90.5499 30.1701 90.5499 30.915H88.3451C88.3451 30.617 88.2557 30.3489 88.0471 30.1403C87.779 29.9318 87.4512 29.8126 87.0937 29.8424C86.7957 29.8126 86.4978 29.902 86.2296 30.0807C86.0509 30.2297 85.9317 30.4681 85.9317 30.7064C85.9317 30.9448 86.0509 31.1831 86.2594 31.3023C86.617 31.5109 87.0341 31.6301 87.4512 31.6896C88.2259 31.8386 88.9707 32.1068 89.656 32.4941C90.2519 32.8516 90.5499 33.4475 90.5499 34.252C90.5499 34.967 90.1923 35.6225 89.6262 36.0396C89.0005 36.5164 88.1663 36.7547 87.0937 36.7547C85.9615 36.7547 85.0676 36.4568 84.4718 35.8609C83.9057 35.3842 83.5779 34.6989 83.5481 33.9838H85.6337C85.6337 34.3414 85.8125 34.6989 86.1105 34.9075C86.4084 35.0862 86.7659 35.2054 87.1533 35.1756C87.9577 35.2352 88.4046 34.9373 88.4046 34.3414Z" fill="black"/>
<path d="M27.3854 35.4735C26.5213 35.8907 25.5679 36.0098 24.6145 35.8013C23.959 35.6523 23.3631 35.4437 22.7672 35.1756L21.4563 34.6393C20.3241 34.2818 19.1025 34.252 17.9405 34.5499H17.8213C16.6593 34.2222 15.4378 34.252 14.3056 34.6393C13.8586 34.7883 13.4415 34.9968 12.9946 35.1756C12.3987 35.4437 11.773 35.6821 11.1473 35.8311C10.2237 36.0396 9.24049 35.9205 8.37644 35.5033L8.25727 35.4437C8.22747 35.4437 8.22747 35.4437 8.22747 35.4735C8.79357 36.0694 9.53843 36.4865 10.3131 36.6951C10.8494 36.8441 11.4155 36.8739 11.9518 36.8143C12.786 36.6951 13.5905 36.3972 14.2758 35.9205L15.5271 35.0862C16.0039 34.7883 16.57 34.6691 17.1063 34.7883C17.4042 34.8181 17.1658 34.967 17.1361 34.9968C16.3912 35.3544 15.6761 35.8013 15.0206 36.3078C14.5737 36.6355 13.7693 37.4102 13.7693 37.4102L14.3652 37.9167L15.0206 37.2016C15.8251 36.3674 16.7487 35.6523 17.7617 35.0862C17.8511 35.0266 17.9405 35.0266 18.0299 35.0862C19.0429 35.6523 19.9665 36.3674 20.771 37.2016L21.4265 37.9167L22.0224 37.4102L20.771 36.3078C20.1155 35.8013 19.4004 35.3544 18.6556 34.9968C18.596 34.967 18.3874 34.8181 18.6854 34.7883C19.2217 34.6691 19.7878 34.7883 20.2645 35.0862L21.5159 35.9205C22.2011 36.3972 23.0056 36.6951 23.8398 36.8143C24.3761 36.8739 24.9422 36.8441 25.4785 36.6951C26.2532 36.4568 26.9981 36.0396 27.5642 35.4735C27.5642 35.4735 27.5344 35.4437 27.5046 35.4437L27.3854 35.4735ZM30.3053 32.8814C29.9179 33.1794 29.5008 33.3879 29.0539 33.5369C28.4282 33.7157 27.7429 33.8348 27.0874 33.8348C26.2234 33.8646 25.3892 33.9242 24.5251 34.0434C24.4655 34.0434 24.4357 34.0434 24.4655 34.0136C25.2104 33.7157 25.8063 33.1198 26.134 32.4047L26.9683 30.7064C26.9683 30.6766 26.9683 30.6766 26.9683 30.6468C26.9087 30.6766 26.0744 31.3917 25.6871 31.7492L24.2868 33.1198C23.6611 33.6561 22.9162 34.0434 22.1117 34.252H22.082L22.0522 34.2818L23.6611 34.6691C24.3463 34.8776 25.0614 34.9968 25.7765 35.0564C27.594 35.2352 29.3518 34.4009 30.3648 32.9112C30.3648 32.8814 30.3351 32.8814 30.3053 32.8814ZM32.9272 28.8889C32.5101 29.3954 32.0036 29.8424 31.4375 30.1999C30.9607 30.5276 30.4542 30.7958 29.9179 31.0341C29.2327 31.3023 28.607 31.6896 28.0409 32.1365L27.9217 32.2259C27.8919 32.2259 27.8919 32.2259 27.8919 32.1961C27.8919 32.1663 28.7857 31.2725 29.0539 29.3954C29.0837 28.7102 29.2029 28.0547 29.3518 27.3992C29.3518 27.3694 29.3518 27.3694 29.3518 27.3396C28.7261 28.1143 28.2494 28.9783 27.9217 29.9019L27.3854 31.4215C27.1768 32.1067 26.7895 32.7324 26.283 33.2389L26.2234 33.2985V33.3283C26.283 33.3283 26.3426 33.2985 26.4022 33.2985L28.1303 32.941C29.0837 32.792 29.9775 32.4047 30.7522 31.8386C31.5566 31.2725 32.1823 30.4978 32.6292 29.6338C32.7484 29.3954 32.8378 29.1571 32.9272 28.9187C32.9868 28.8591 32.957 28.8591 32.9272 28.8889ZM34.0594 24.4197C33.7912 25.2242 33.3145 25.9691 32.6888 26.565C31.9738 27.2502 31.3183 28.0249 30.7224 28.7995C30.7224 28.8293 30.6628 28.7995 30.6926 28.7698C30.9309 27.9653 30.9905 27.1013 30.8714 26.2372C30.7522 25.5221 30.4542 24.7475 30.3648 23.8834L30.3351 23.8536C30.3351 23.8834 30.3053 23.9132 30.3053 23.943C30.1265 24.5091 30.0073 25.0752 29.9477 25.6711C29.9179 26.3862 30.0371 27.3098 29.9775 28.0249C29.9179 28.8591 29.8583 29.7232 29.471 30.468C29.471 30.4978 29.471 30.4978 29.471 30.5276L31.2587 29.4252C32.0036 28.9485 32.6292 28.3526 33.1357 27.6376C33.7912 26.7139 34.119 25.6413 34.119 24.5091C34.119 24.4793 34.119 24.4197 34.119 24.39C34.0892 24.39 34.0594 24.4197 34.0594 24.4197Z" fill="#009EDB"/>
<path d="M32.1525 24.8965C32.1823 24.8965 32.1823 24.8965 32.1525 24.8965C32.1525 24.6581 32.1525 24.4197 32.1227 24.1814C32.0631 23.3471 31.5566 22.6619 31.1097 21.9468C30.8118 21.4999 30.5436 21.0232 30.3053 20.5167C30.3053 20.5167 30.2755 20.4869 30.2457 20.4869C30.2457 20.5464 30.2457 20.8146 30.2755 20.9636C30.4244 22.1554 30.7224 23.3471 31.1693 24.4793C31.4374 25.1944 31.5268 25.9393 31.4672 26.6841C31.4672 26.7437 31.4672 26.7437 31.497 26.7735C31.7652 26.3862 32.3015 25.8499 32.6292 25.4328C32.957 25.0156 34.7446 22.9896 33.8806 20.1889C33.8508 20.0697 33.7912 19.9506 33.7316 19.8314L33.7018 19.8612C33.7018 21.8872 32.7186 22.7512 32.3313 24.1218C32.2419 24.4495 32.1823 24.6879 32.1525 24.8965ZM32.1823 20.7252L32.0035 20.2485L31.8844 19.9804C31.5864 19.4441 31.1693 18.9673 30.6628 18.6098C30.2457 18.2523 29.8881 17.8649 29.5902 17.418C29.5902 17.418 29.5604 17.418 29.5306 17.418H29.5008C29.5306 17.5074 29.7987 18.4012 29.9775 18.8184C30.2755 19.3845 30.633 19.9506 31.0501 20.4273L31.1395 20.5464C31.646 21.2317 32.0333 21.9766 32.3015 22.781C32.3015 22.8108 32.3313 22.8108 32.3313 22.8108L32.8378 21.2615C33.0166 20.7252 33.1655 20.1591 33.2847 19.593C33.4635 18.2523 33.0464 16.554 32.2717 15.6006C32.2717 15.6006 32.2419 15.6303 32.2419 15.6601L32.2717 15.7793L32.3313 15.9581C32.4803 16.6732 32.51 17.4478 32.3611 18.1629C32.2419 18.729 32.2121 19.3249 32.2121 19.9208C32.2121 20.0101 32.2717 20.755 32.2717 20.7848C32.2717 20.8146 32.2419 20.7848 32.2121 20.7848M29.7987 13.2468C30.0371 13.4851 30.2457 13.7533 30.3648 14.081C30.5734 14.5875 30.633 15.3324 30.782 15.8985L31.0501 16.8817C31.0501 16.9115 31.0203 16.9413 30.9905 16.9115C30.5436 16.3752 30.0073 15.9283 29.3816 15.5708C28.9645 15.3324 28.6368 15.0047 28.3388 14.6471L28.1898 14.4386C28.1898 14.4386 28.16 14.4088 28.1302 14.4386C28.1302 14.4684 28.1302 14.4982 28.1302 14.5279C28.2792 15.1834 28.5772 15.8091 29.0539 16.3156C29.4412 16.6732 29.8583 17.0009 30.2457 17.3286C30.7522 17.7458 31.2289 18.2523 31.6758 18.7588C31.6758 18.7588 31.7056 18.7886 31.7056 18.7588V18.2821L31.7354 16.8519V16.3752C31.7354 15.8985 31.646 15.392 31.4672 14.9451C31.1693 14.2002 30.6032 13.6043 29.9179 13.2468C29.8881 13.217 29.8285 13.217 29.7689 13.1872C29.7689 13.1872 29.7689 13.217 29.7987 13.2468ZM26.7299 11.8464C27.147 12.2338 27.5046 12.6807 27.8323 13.1574C28.1302 13.6341 28.458 14.0512 28.8751 14.4386C29.1433 14.7067 29.9477 15.3324 30.1563 15.5112C30.1265 15.2728 29.7392 13.5745 28.6963 12.7403C28.1005 12.2636 27.3854 11.906 26.6405 11.7273C26.6405 11.7571 26.6405 11.7571 26.6405 11.7868L26.7299 11.8464ZM10.0449 35.0564C10.7302 34.9968 11.4453 34.8776 12.1008 34.6691L13.7097 34.2817H13.7395C13.7395 34.2817 13.7395 34.252 13.7097 34.252H13.6799C12.8754 34.0434 12.1306 33.6561 11.4751 33.1198L10.0747 31.779L8.79357 30.6766V30.7362C8.91274 30.915 9.35966 31.8982 9.62781 32.4345C9.95555 33.1794 10.5514 33.7454 11.2963 34.0434C11.3261 34.0732 11.2963 34.0732 11.2367 34.0732C10.4025 33.954 9.53843 33.8944 8.67439 33.8646C8.01891 33.8646 7.33363 33.7454 6.70795 33.5667C6.26103 33.4177 5.8439 33.2091 5.45657 32.9112C5.42678 32.9112 5.42678 32.9112 5.39699 32.9112C5.99288 33.7454 6.82713 34.4009 7.78055 34.7585C8.52542 34.9968 9.27028 35.0862 10.0449 35.0564ZM9.35966 33.2985C9.41925 33.2985 9.44905 33.3283 9.53843 33.3283V33.2985L9.47884 33.2389C8.97233 32.7324 8.6148 32.1067 8.37644 31.4215L7.84014 29.9019C7.5124 28.9783 7.03569 28.1143 6.41 27.3396C6.41 27.3694 6.41 27.3694 6.41 27.3992C6.58877 28.0547 6.67815 28.7102 6.73774 29.3954C7.00589 31.2427 7.89973 32.1365 7.89973 32.1663C7.89973 32.1961 7.89973 32.2259 7.86994 32.1961L7.75076 32.1067C7.18466 31.6598 6.55897 31.2725 5.8737 31.0043C5.3374 30.766 4.83089 30.4978 4.35418 30.1701C3.78808 29.8126 3.28157 29.3656 2.86445 28.8591H2.83465C2.92404 29.0975 3.01342 29.3358 3.1326 29.5742C3.57952 30.4382 4.235 31.2129 5.03945 31.779C5.81411 32.3749 6.70795 32.7622 7.66137 32.8814C8.22747 33.0304 8.79357 33.1794 9.35966 33.2985ZM4.56274 29.4252L6.35041 30.5276C6.35041 30.5276 6.38021 30.4978 6.38021 30.468C5.99288 29.6934 5.93329 28.8591 5.8737 28.0249C5.81411 27.28 5.93329 26.3862 5.90349 25.6711C5.8439 25.0752 5.72473 24.4793 5.54596 23.9132C5.54596 23.8834 5.51616 23.8536 5.51616 23.8239L5.48637 23.8536C5.42678 24.7177 5.09904 25.4923 4.97986 26.2074C4.86068 27.0417 4.92027 27.9057 5.15863 28.74C5.18842 28.7698 5.12883 28.7995 5.12883 28.7698C4.53294 27.9653 3.87746 27.2204 3.16239 26.5352C2.53671 25.9393 2.05999 25.2242 1.79184 24.4197C1.79184 24.4197 1.76205 24.39 1.73225 24.39C1.70246 24.39 1.73225 24.4495 1.73225 24.5091C1.73225 25.6115 2.05999 26.7139 2.71547 27.6376C3.19219 28.3228 3.81787 28.9485 4.56274 29.4252ZM4.235 26.8033C4.26479 26.7735 4.26479 26.7735 4.26479 26.7139C4.2052 25.9691 4.29459 25.1944 4.59253 24.5091C5.00966 23.3769 5.3076 22.2149 5.48637 20.9934C5.48637 20.8444 5.51616 20.5762 5.51616 20.5167C5.48637 20.5167 5.48637 20.5167 5.48637 20.5464C5.24801 21.053 4.97986 21.5297 4.68192 21.9766C4.2052 22.6321 3.72849 23.3471 3.6689 24.1814C3.63911 24.4197 3.63911 24.6581 3.6689 24.8965C3.6689 24.8965 3.6689 24.9263 3.63911 24.9263C3.63911 24.9263 3.63911 24.9263 3.63911 24.8965L3.43054 24.1814C3.01342 22.8108 2.05999 21.9468 2.05999 19.9208L2.0302 19.891C1.97061 20.0101 1.94082 20.1293 1.88123 20.2485C1.01718 23.0492 2.77506 25.0752 3.1326 25.4923C3.49013 25.9095 3.96685 26.416 4.235 26.8033ZM2.98363 21.2317L3.49013 22.781C3.49013 22.781 3.51993 22.781 3.51993 22.7512C3.78808 21.9468 4.2052 21.2019 4.68192 20.5167L4.7713 20.3975C5.18842 19.891 5.54596 19.3547 5.8439 18.7886C6.02267 18.3714 6.29082 17.4776 6.32062 17.3882H6.29082C6.26103 17.3882 6.26103 17.3882 6.23123 17.3882C5.93329 17.8351 5.57575 18.2225 5.15863 18.58C4.65212 18.9375 4.2052 19.4143 3.90726 19.9804C3.87746 20.0697 3.81787 20.1591 3.78808 20.2485L3.60931 20.755C3.60931 20.755 3.57952 20.8146 3.57952 20.755C3.57952 20.6954 3.63911 20.0101 3.63911 19.891C3.63911 19.2951 3.57952 18.6992 3.46034 18.1331C3.31137 17.3882 3.34116 16.6434 3.49013 15.9283C3.49013 15.8687 3.51993 15.8091 3.54972 15.7495C3.54972 15.7197 3.57952 15.6601 3.57952 15.6303C3.57952 15.6006 3.57952 15.6006 3.54972 15.5708C2.77506 16.5242 2.32814 18.2523 2.50691 19.5632C2.65588 20.1293 2.80486 20.6954 2.98363 21.2317ZM4.05623 16.8817L4.08602 18.3119V18.7588H4.11582C4.53294 18.2225 5.00966 17.7458 5.51616 17.2988L6.70795 16.2858C7.18466 15.7793 7.48261 15.1536 7.63158 14.4982C7.63158 14.4684 7.63158 14.4386 7.63158 14.4088H7.60178L7.45281 14.6173C7.18466 14.9749 6.82713 15.3026 6.4398 15.541C5.72473 15.9879 5.24801 16.3156 4.83089 16.8817C4.80109 16.9115 4.7713 16.9115 4.80109 16.8519L5.06925 15.8687C5.21822 15.3026 5.27781 14.5577 5.48637 14.0512C5.60555 13.7533 5.81411 13.4553 6.05247 13.217C6.05247 13.1872 6.05247 13.1872 6.05247 13.1574C5.99288 13.1574 5.96308 13.1872 5.90349 13.217C5.15863 13.6043 4.62233 14.23 4.32438 14.9451C4.14561 15.392 4.02644 15.8687 4.05623 16.3752V16.8817ZM5.63534 15.4814L6.9463 14.4088C7.33363 14.0214 7.69117 13.6043 7.98911 13.1276C8.28706 12.6509 8.67439 12.204 9.09151 11.8166L9.1809 11.7273C9.1809 11.6975 9.1809 11.6975 9.1809 11.6677C8.43603 11.8464 7.72096 12.1742 7.12507 12.6807C6.02267 13.5447 5.66514 15.243 5.63534 15.4814ZM17.6128 24.7177C17.7021 24.5985 17.4936 24.5091 17.434 24.7177C17.3744 24.9263 17.5234 24.8667 17.6128 24.7177ZM19.8771 19.4738C19.7878 19.444 19.46 19.8314 19.5196 19.891C19.6686 19.8016 19.7878 19.6526 19.8771 19.4738ZM19.9367 19.4143C19.9963 19.4441 20.2049 19.3249 20.1751 19.2951C20.1453 19.2653 19.8771 19.1461 19.8771 19.2057C19.8771 19.3249 19.9069 19.3845 19.9367 19.4143ZM23.959 23.1088C24.0782 23.079 24.0484 22.9002 23.959 22.9002C23.8696 22.9002 23.7504 23.0492 23.7802 23.0492C23.81 23.0492 23.8994 23.1386 23.959 23.1088ZM22.4991 19.1461C22.4097 19.1461 22.3799 19.2355 22.4693 19.2951C22.5587 19.3249 22.6182 19.2951 22.6778 19.2653C22.7374 19.2355 22.797 19.1759 22.797 19.0865C22.797 18.9971 22.6778 18.878 22.7374 18.8184C22.797 18.7588 22.8864 18.8482 22.946 18.8184C23.0056 18.7886 23.0354 18.729 23.0354 18.6694C23.0354 18.6098 23.0056 18.431 22.8864 18.431C22.7672 18.431 22.648 18.6694 22.648 18.6694C22.6182 18.729 22.6182 18.8184 22.648 18.878C22.6778 18.9971 22.648 19.1461 22.4991 19.1461Z" fill="#009EDB"/>
<path d="M24.4655 19.1759C24.4655 19.2355 24.6145 19.6228 24.6443 19.7122C24.6741 19.8016 24.7039 20.1293 24.7635 20.0995C24.8231 20.0697 24.8231 19.891 24.7933 19.8016C24.7635 19.593 24.7039 19.3547 24.6443 19.1759C24.6145 19.0567 24.4059 18.6098 24.3463 18.6396C24.2867 18.6694 24.4357 18.9375 24.4655 19.0567C24.4953 19.1759 24.4357 19.1163 24.4655 19.1759ZM23.4227 14.1108C23.5121 14.1406 23.5121 13.9618 23.3631 13.8427C23.2141 13.7235 22.9758 13.7831 23.0354 13.8427C23.1546 13.9321 23.2737 14.0512 23.4227 14.1108ZM18.9535 12.8297C18.745 12.7105 18.9237 12.5317 18.7748 12.4125C18.596 12.3529 18.4172 12.3827 18.298 12.5019C18.1491 12.6807 18.4768 12.6211 18.5662 12.6807C18.6556 12.7403 18.9535 12.9488 18.9833 12.919C19.0131 12.8892 18.9833 12.8297 18.9535 12.8297ZM20.1453 12.2338C19.8771 12.1146 18.8939 12.1146 18.9237 12.3827C18.9535 12.6509 19.4898 12.3827 19.6388 12.3827C19.7878 12.3827 20.3837 12.3529 20.1453 12.2338ZM17.434 23.7345C17.3744 23.7047 17.285 23.7643 17.2552 23.7047C17.2254 23.6451 17.1658 23.6749 17.1658 23.7047C17.1658 23.7345 17.136 23.7941 17.1956 23.8536C17.2552 23.9132 17.3744 23.9132 17.434 23.8536C17.4638 23.8239 17.4638 23.7643 17.434 23.7345ZM16.8679 21.7382C16.9573 21.7382 16.9573 21.6786 16.9871 21.6786C17.0169 21.6786 16.9871 21.7382 17.0765 21.7382C17.1658 21.7382 17.2552 21.5297 16.9871 21.5297C16.7785 21.5297 16.8083 21.7382 16.8679 21.7382ZM17.2254 21.9766C17.0765 21.9468 17.1063 22.0362 16.9871 22.0362C16.8083 22.066 16.9573 21.917 16.8977 21.8574C16.8679 21.8276 16.7785 21.9766 16.7487 22.066C16.7487 22.1256 16.7487 22.2447 16.8083 22.2745L17.3744 22.3341C17.4936 22.3341 17.3744 22.0064 17.2254 21.9766ZM15.3782 23.9132C15.4378 23.9132 15.4676 23.7345 15.4378 23.6451C15.408 23.5557 15.2292 23.6153 15.2292 23.6749C15.2292 23.7345 15.3484 23.9132 15.3782 23.9132ZM12.9946 23.9132C12.9946 23.8536 12.9946 23.6153 12.935 23.5557C12.8754 23.4961 12.8754 23.5855 12.8456 23.5855C12.8158 23.5855 12.8158 23.4663 12.786 23.4663C12.7562 23.4663 12.786 23.6451 12.8456 23.7643C12.9052 23.8834 12.9946 24.0622 12.9946 23.9132ZM12.935 23.3769C12.9946 23.1982 13.0244 23.0194 13.0244 22.8406C13.0244 22.6917 12.935 22.5725 12.9052 22.5725C12.8754 22.5725 12.9052 22.6619 12.935 22.8108C12.935 22.9598 12.8754 23.1088 12.8456 23.2578C12.8456 23.2875 12.9052 23.4365 12.935 23.3769Z" fill="#009EDB"/>
<path d="M9.89597 30.0509C14.3354 34.4903 21.4861 34.4903 25.9255 30.0509C30.3648 25.6115 30.3648 18.4608 25.9255 14.0214C21.4861 9.58205 14.3354 9.58205 9.89597 14.0214C5.45658 18.4608 5.45658 25.6413 9.89597 30.0509ZM7.06548 22.2745H8.79357C8.82336 23.1684 8.97234 24.0324 9.24049 24.8667C9.1511 24.8369 9.06172 24.8071 8.97234 24.7475C8.85316 24.6879 8.76377 24.7773 8.73398 24.7773C8.6148 24.7773 8.46583 24.6879 8.46583 24.7773C8.46583 24.8667 8.58501 24.8071 8.58501 24.8667C8.58501 24.9263 8.28706 24.9263 8.25727 24.8071C8.22747 24.6879 8.16788 24.5687 8.13809 24.7177C8.10829 24.8667 7.98911 24.8369 7.92953 24.8667C7.89973 24.8965 7.86994 24.956 7.86994 25.0156C7.86994 25.0752 7.72096 25.0454 7.72096 25.1348C7.72096 25.2242 7.81035 25.254 7.84014 25.3434C7.86994 25.4328 7.95932 25.4924 7.89973 25.5221C7.84014 25.5519 7.86994 25.4924 7.81035 25.5221C7.75076 25.5519 8.0785 26.4458 8.13809 26.416C8.19768 26.3862 8.0487 26.118 8.0487 25.9989C8.0487 25.8797 8.0785 25.8499 8.16788 25.7903C8.25727 25.7307 8.49562 26.1478 8.58501 26.0882C8.67439 26.0287 8.55521 25.9691 8.6446 25.9393C8.73398 25.9095 9.00213 26.3266 9.09151 26.2074C9.1511 26.118 9.21069 26.267 9.21069 26.2968C9.30008 26.4458 9.44905 26.4458 9.53843 26.6245C9.62782 26.8033 9.83638 27.1311 9.98535 27.1311C10.1343 27.1311 10.0449 26.9821 10.1045 26.9821C10.1641 26.9821 10.2237 27.1906 10.3131 27.3098C10.3727 27.3992 10.4621 27.4588 10.5812 27.4886C10.7898 27.7567 11.0282 28.0249 11.2665 28.293L10.0449 29.5146C8.16788 27.6078 7.09528 25.0156 7.06548 22.2745ZM16.9275 19.8016L16.8083 19.8612C16.6295 19.9506 16.4806 20.0399 16.3614 20.1591L15.1398 18.9375C15.8549 18.3119 16.7487 17.9245 17.6724 17.8947V19.6228C17.4638 19.6526 17.2552 19.6824 17.0467 19.7718C17.1063 19.6526 17.2254 19.5334 17.2254 19.5334C17.2254 19.5334 17.0169 19.6526 16.9275 19.8016ZM16.0039 22.6321C16.0039 22.6619 16.0039 22.6917 16.0039 22.6917C16.0039 22.6321 15.9741 22.6023 15.9443 22.5427C15.9145 22.5129 15.8847 22.4831 15.8549 22.4831C15.8251 22.4831 15.7953 22.4831 15.7655 22.4831H15.7059L15.6463 22.5129H15.2292C15.1696 22.5129 15.1398 22.5129 15.1398 22.4831C15.11 22.3639 15.2888 22.4533 15.408 22.0958C15.4378 22.066 15.4378 22.0064 15.4676 21.9766L15.4973 21.917L15.5569 21.8574C15.6165 21.7978 15.6761 21.7978 15.7357 21.7978H15.7953L15.8549 21.8574L15.9443 22.0362C15.9741 22.066 16.0039 22.066 16.0039 22.0958C16.0634 22.1256 16.0932 22.1554 16.123 22.1852L16.1528 22.2149V22.2447C16.1826 22.2745 16.1826 22.2745 16.2124 22.2745H16.2422C16.272 22.2745 16.272 22.2745 16.3018 22.2745H16.3316C16.3912 22.2447 16.3912 22.2745 16.421 22.2745V22.3043C16.421 22.3341 16.421 22.3341 16.3912 22.3639C16.3912 22.3937 16.3614 22.3937 16.3614 22.4235C16.3316 22.4533 16.3018 22.4831 16.272 22.4831C16.2124 22.4831 16.1528 22.4533 16.123 22.4533C16.0932 22.4533 16.0634 22.4533 16.0634 22.4831V22.6321M12.786 25.4924C12.6967 25.3434 12.6669 25.1348 12.6669 24.956C12.6669 24.7773 12.6073 24.5985 12.5179 24.4495C12.4881 24.3304 12.4583 24.2112 12.4583 24.092C12.4583 23.8834 12.2795 23.943 12.2795 23.8834C12.2795 23.8239 12.4285 23.8834 12.4285 23.8239C12.4285 23.7643 12.2497 23.5259 12.1008 23.4663C11.9518 23.4067 12.0114 23.3173 12.0114 23.228C12.0114 23.1386 12.0114 23.0492 11.9518 22.9896C11.922 22.8704 11.9518 22.6619 12.1008 22.6619C12.1604 22.6619 12.2497 22.7215 12.3391 22.6619C12.4285 22.6023 12.3689 22.4235 12.3689 22.2745H13.2032C13.2032 22.3937 13.233 22.5427 13.233 22.6619C13.1734 22.6917 13.1436 22.7513 13.1734 22.781C13.2032 22.8108 13.233 22.8406 13.2628 22.8108C13.4117 23.6749 13.7991 24.4793 14.3949 25.1348L13.1734 26.3564C13.084 26.267 12.9946 26.1478 12.9052 26.0287C12.9052 25.9989 12.9052 25.9691 12.9052 25.9393C12.9052 25.7307 12.7562 25.6115 12.6967 25.4328M11.6241 23.4067C11.5347 23.0492 11.5049 22.6619 11.4751 22.2745H12.1902C12.1306 22.3639 11.9816 22.4533 11.9518 22.5427C11.922 22.6321 11.7432 22.93 11.8624 23.0492C12.1306 23.3471 11.8028 23.4663 11.6241 23.4067ZM11.773 27.8163L11.6241 27.9653C11.5645 27.9057 11.4751 27.8163 11.4155 27.7567C11.5347 27.6972 11.6538 27.7269 11.773 27.8163ZM13.6203 20.1591C13.5905 20.1591 13.5905 20.1889 13.5607 20.1889C13.4713 20.2783 13.233 20.2485 13.2628 20.3379C13.2926 20.4273 13.9182 20.1293 13.9182 20.1889C13.9182 20.2485 13.6501 20.3379 13.4713 20.4273C13.2925 20.5167 13.233 20.6656 12.935 20.6656C12.786 20.6656 12.7265 20.7848 12.6669 20.8742C12.5775 20.9934 12.5179 21.1125 12.4583 21.2317C12.4583 21.4105 12.4285 21.5893 12.3391 21.768H11.4751C11.5347 20.2485 12.1306 18.7886 13.1734 17.6564L14.3949 18.878C14.097 19.2951 13.8289 19.7122 13.6203 20.1591ZM14.7525 19.2653L15.8251 20.3379C15.7953 20.3379 15.7655 20.3379 15.7059 20.3379C15.5867 20.3379 15.5867 20.2485 15.4973 20.2485C15.3186 20.2783 15.2888 20.3379 15.259 20.3081C15.1398 20.1889 14.9908 20.0995 14.8121 20.0101C14.6035 19.9506 14.3949 19.9506 14.2162 20.0399C14.1864 20.0399 14.1864 20.0697 14.1566 20.0697C14.3652 19.8016 14.5737 19.5334 14.7525 19.2653ZM13.2628 21.4403C13.2628 21.5595 13.233 21.6786 13.233 21.7978H12.6073C12.5775 21.7084 12.6073 21.6191 12.6669 21.5297C12.7265 21.4105 12.8754 21.3509 13.0244 21.3807C13.084 21.3807 13.1734 21.4105 13.2628 21.4403ZM13.7991 22.8406L13.8586 22.93C13.9182 22.9896 13.9778 23.0492 14.0374 23.0194C14.097 22.9896 14.246 23.0194 14.2758 23.0194C14.3652 23.0492 14.4247 23.1088 14.4843 23.1684C14.5439 23.2578 14.6631 23.1982 14.7525 23.2578C14.8419 23.3173 14.9313 23.3769 14.8121 23.4365C14.6929 23.4961 14.9313 23.6153 14.961 23.6153C14.9908 23.6153 15.0206 23.5557 15.0206 23.4663C15.0206 23.4365 15.0802 23.3173 15.1696 23.3471C15.259 23.3769 15.5271 23.7047 15.6165 23.5855C15.7059 23.4663 15.6463 23.3173 15.6761 23.2578C15.6761 23.228 15.7059 23.1982 15.7357 23.1982C15.8251 23.3471 15.8847 23.4663 16.0039 23.5855L14.7823 24.8071C14.2758 24.2708 13.9182 23.5855 13.7991 22.8406ZM14.7525 18.58L13.5607 17.3584C14.6929 16.3156 16.1528 15.7197 17.6724 15.6601V17.3882C16.5997 17.418 15.5867 17.8351 14.7525 18.58ZM13.2032 17.0009L11.9816 15.7793C13.5309 14.3194 15.5569 13.4851 17.6724 13.4255V15.1536C16.0039 15.2132 14.3949 15.8687 13.2032 17.0009ZM12.8456 17.3286C11.7134 18.5502 11.058 20.1293 10.9984 21.7978H9.27028C9.32987 19.6824 10.1641 17.6564 11.6241 16.1071L12.8456 17.3286ZM10.9984 22.2745C10.9984 22.6023 11.0282 22.9002 11.0878 23.228C11.058 23.228 11.058 23.1386 10.9686 23.1684C10.8792 23.1982 10.5514 23.7643 10.4025 24.0026C10.2833 24.2112 10.4621 24.6581 10.2833 24.8071C10.1045 24.8667 9.92576 24.8965 9.74699 24.8965H9.7172C9.41925 24.0622 9.27028 23.1982 9.24049 22.3341L10.9984 22.2745ZM17.6426 32.8814C14.9313 32.8218 12.3391 31.7492 10.4025 29.8722L11.6241 28.6506C13.2628 30.1999 15.408 31.0937 17.6426 31.1533V32.8814ZM17.6426 30.6766C15.5271 30.617 13.5011 29.7828 11.9518 28.3228L12.1604 28.1143C12.1902 28.1441 12.2497 28.1739 12.3093 28.2037C12.4285 28.2632 12.5775 28.293 12.7265 28.2632C12.8456 28.2335 13.084 28.0249 13.233 28.0249C13.3819 28.0249 13.6203 28.0845 13.7693 27.9951C13.9182 27.9057 13.6799 27.6078 13.5905 27.4588C13.5607 27.429 13.5607 27.3992 13.5309 27.3694C14.6929 28.3526 16.1826 28.9187 17.7021 28.9485L17.6426 30.6766ZM17.6426 28.442C16.123 28.3824 14.6631 27.7865 13.5309 26.7437L14.7525 25.5221C15.3186 26.0287 16.0039 26.416 16.7785 26.5948C16.5104 26.7139 16.3912 26.8927 16.421 27.0417C16.4508 27.1906 16.2422 27.28 16.2422 27.4588C16.2422 27.6376 16.4806 27.7567 16.5104 27.9355C16.5402 28.0249 16.7487 28.1739 16.9275 28.293C17.1658 28.3526 17.4042 28.3824 17.6128 28.3526L17.6426 28.442ZM17.583 26.0584C17.4936 25.9989 17.434 26.118 17.3148 26.1776C16.4806 26.0584 15.7357 25.7009 15.11 25.1646L16.3316 23.943C16.7189 24.241 17.1658 24.4495 17.6426 24.4793C17.6426 24.5389 17.7021 24.5985 17.7021 24.7177C17.7021 24.8369 17.6128 24.8965 17.6426 24.956C17.6724 25.0156 17.9405 24.956 17.9703 24.8667C18.0001 24.7773 17.8809 24.7177 17.8511 24.6283C17.8213 24.5687 17.8213 24.5389 17.7915 24.4793H17.8809C17.9703 24.4793 18.0597 24.4793 18.1491 24.4495C18.1789 24.4495 18.2087 24.4197 18.2087 24.39C18.2087 24.3602 18.2384 24.3304 18.2384 24.3006C18.2384 24.2708 18.2682 24.2708 18.2682 24.241L18.298 24.2708C18.3278 24.3304 18.3874 24.5091 18.447 24.4793C18.5066 24.4495 18.5364 24.1814 18.5066 24.1218C18.447 24.0324 18.447 23.943 18.5066 23.8536C18.5066 23.8239 18.5364 23.6451 18.596 23.6749C18.6556 23.7047 18.596 23.8537 18.596 23.9132C18.596 24.0026 18.6556 24.1218 18.745 24.0622C18.8045 24.0324 18.8641 23.943 18.9237 23.9728C18.9833 24.0026 18.7748 24.0622 18.745 24.1218C18.7152 24.1814 18.8343 24.2112 18.8045 24.241C18.7748 24.2708 18.745 24.241 18.7152 24.2708C18.6854 24.3006 18.7748 24.4793 18.7152 24.5091C18.6556 24.5389 18.447 24.5985 18.3874 24.6283C18.3278 24.6581 18.2682 24.5985 18.298 24.5687C18.3278 24.5389 18.298 24.4197 18.2384 24.4197C18.1789 24.4197 18.1789 24.4495 18.1789 24.5091C18.1789 24.5687 18.2384 24.6581 18.2384 24.6879C18.2384 24.7177 18.1491 24.7475 18.0895 24.7773C18.0299 24.8667 17.9405 24.956 17.8511 25.0156C17.7617 25.0752 17.583 25.0752 17.583 25.1348C17.583 25.1944 17.6724 25.1944 17.7021 25.2242C17.7617 25.3136 17.7915 25.4328 17.6724 25.4924C17.5532 25.5519 17.4042 25.403 17.3446 25.4328C17.285 25.4626 17.2552 25.6115 17.2254 25.7903C17.1956 25.9691 17.5532 26.0287 17.7319 25.9393C17.8511 25.8797 17.8213 25.7009 17.9405 25.6413C18.0597 25.5817 18.0299 25.4626 18.1491 25.4924C18.2682 25.5221 18.2384 25.403 18.3576 25.403C18.4768 25.403 18.4768 25.4924 18.6258 25.5221C18.8641 25.5817 18.8641 25.7605 18.8939 25.6711C18.9237 25.5817 18.9535 25.5221 18.7748 25.4626C18.596 25.403 18.5066 25.1944 18.6556 25.254C18.8343 25.3434 18.9833 25.3434 19.0131 25.4328C19.0429 25.5221 19.2217 25.4924 19.2515 25.5817C19.2813 25.7307 19.4004 25.5817 19.3111 25.4924C19.2217 25.403 19.2515 25.3732 19.3111 25.3136C19.3706 25.254 19.4004 25.3434 19.4898 25.2242C19.5792 25.105 19.46 25.1348 19.4302 25.0752C19.4004 25.0156 19.4302 24.6879 19.5494 24.7475C19.6686 24.8071 19.7878 24.7177 19.7282 24.6879C19.6686 24.6581 19.758 24.4793 19.7878 24.4793C19.8176 24.4793 19.7878 24.5985 19.8176 24.6283C19.8474 24.6581 20.1453 24.5389 20.1751 24.6879C20.2049 24.8369 19.9665 24.9263 19.9069 24.9263C19.7878 24.9263 19.6984 25.0454 19.609 25.1646C19.5196 25.2838 19.4302 25.3136 19.4898 25.4328C19.5494 25.5519 19.6686 25.5221 19.7878 25.4626C19.9069 25.403 19.9963 25.3136 20.0559 25.2838C20.1751 25.2242 20.2645 25.5817 20.2049 25.6413C20.1453 25.7009 20.0261 25.7307 19.9665 25.7903C19.7878 25.8797 19.609 25.9691 19.4004 25.9691C19.2813 25.9989 19.2813 26.0287 19.2515 26.1478C19.2217 26.267 18.6854 26.1776 18.5662 26.1776C18.447 26.1776 18.6556 25.9095 18.4768 25.9393C18.298 25.9691 18.1193 25.9989 17.9405 26.0287C17.9107 26.0287 17.7319 26.1776 17.583 26.0584ZM19.1621 28.8293C19.3111 28.8889 19.46 29.0081 19.5494 29.1273C19.6388 29.2763 19.6686 29.3359 19.609 29.4848C19.46 29.753 19.5196 29.9317 19.8176 30.0211C19.9963 30.0807 20.0559 30.2595 20.1751 30.3787C19.5196 30.5574 18.8343 30.6468 18.1491 30.6766V28.9485C18.4768 28.9187 18.8343 28.8889 19.1621 28.8293ZM18.1491 28.4718V28.2632C18.5364 28.2037 18.447 28.442 18.7152 28.3526C18.8045 28.3228 18.8939 28.3526 18.9535 28.4122C18.6854 28.4122 18.4172 28.442 18.1491 28.4718ZM18.1491 32.9112V31.1533C19.0429 31.1235 19.9367 30.9746 20.8008 30.6766C20.8306 30.7064 20.8604 30.7064 20.8902 30.7064C21.0093 30.7064 21.1285 30.6468 21.2179 30.5872C21.5159 30.468 21.784 30.3191 22.0224 30.1403C22.797 29.753 23.5419 29.2167 24.1676 28.6208L25.3891 29.8424C23.4525 31.7492 20.8604 32.8218 18.1491 32.9112ZM22.9758 17.3286L23.3929 16.9115C23.5121 17.0307 23.6313 17.1201 23.81 17.1499C23.959 17.1797 24.0186 17.2393 24.0484 17.3882C24.0782 17.5372 24.2272 17.5968 24.3761 17.6266C24.5251 17.6564 24.6145 17.8351 24.7337 17.8351C24.8528 17.8351 25.2402 18.3714 25.3891 18.5502C25.4785 18.6396 25.5977 18.7886 25.6871 18.6694C25.7765 18.5502 25.7765 18.58 25.8361 18.5502C26.283 19.5632 26.5511 20.6954 26.5809 21.7978H24.8528C24.8528 21.4105 24.7933 21.0232 24.7039 20.6358C24.7635 20.5167 24.7933 20.3975 24.7933 20.2485C24.7933 20.1293 24.6741 20.0697 24.5847 20.1591C24.5251 19.9208 24.4357 19.7122 24.3463 19.5036C24.3165 19.3845 24.2867 19.2355 24.257 19.1163C24.257 19.0865 24.1974 19.0567 24.1378 18.9971C24.0782 18.878 24.0484 18.7886 23.9888 18.6992C24.0782 18.6396 24.108 18.4906 23.9888 18.5204C23.81 18.5502 23.9292 18.431 23.8696 18.3714C23.81 18.3119 23.81 18.3714 23.7802 18.4012C23.5419 18.0437 23.3035 17.716 23.0056 17.3882C23.0056 17.3882 23.0056 17.3882 23.0056 17.3584C22.946 17.3584 22.946 17.3286 22.9758 17.3286ZM24.0186 27.429C23.959 27.3098 23.9292 27.1608 23.8696 27.0417C23.8398 26.9225 23.6015 26.9225 23.6015 26.9821C23.6015 27.1013 23.6015 27.2204 23.5717 27.3396V27.3694L22.946 26.7437C24.0782 25.5221 24.7337 23.943 24.7933 22.2745H26.5213C26.4618 24.39 25.6275 26.416 24.1676 27.9355L24.0782 27.8461C24.108 27.7269 24.0782 27.578 24.0186 27.429ZM22.5885 28.6208C22.6778 28.4718 22.8566 28.2037 22.946 28.0547C23.0354 27.9057 22.7076 27.6971 22.5289 27.6376C22.3501 27.578 22.3501 27.4886 22.3501 27.3396C22.4395 27.28 22.5289 27.1906 22.6183 27.1013L23.8398 28.3228C23.4227 28.7102 23.0056 29.0379 22.5289 29.3359C22.4991 29.2763 22.7076 29.0677 22.7672 28.9783C22.8268 28.8889 22.5289 28.7698 22.5885 28.6208ZM23.3333 21.4999C23.1844 21.2913 23.3929 21.2615 23.6015 21.1721C23.7206 21.1125 23.8696 21.2019 23.8696 21.1423C23.8696 21.0828 23.9292 20.9636 23.9888 20.9338C24.0484 20.904 24.1378 20.8444 24.1676 20.7848C24.1676 20.8444 24.1974 20.904 24.1974 20.9636C24.1378 21.0828 24.108 21.1721 24.108 21.2913C24.108 21.3807 24.108 21.4999 24.1974 21.2913C24.1974 21.2615 24.2272 21.2615 24.2272 21.2317C24.2867 21.4403 24.2867 21.6191 24.2867 21.7978H23.0056C23.0056 21.7978 23.0056 21.7978 23.0056 21.768C23.095 21.6191 23.4227 21.6489 23.3333 21.4999ZM23.5717 19.0567C23.5717 19.0567 23.5717 19.0865 23.5419 19.0865C23.5121 19.1163 23.3631 18.878 23.3631 19.0567C23.3631 19.2355 23.4227 19.2951 23.5419 19.3249C23.6611 19.3547 23.6015 19.4143 23.6909 19.4441C23.7207 19.4441 23.7802 19.4738 23.81 19.5036C23.959 19.8314 24.0484 20.1591 24.1378 20.5167C24.0782 20.5465 24.0484 20.5762 24.0186 20.606C23.959 20.6656 23.9888 20.7848 23.9292 20.8742C23.8398 21.0232 23.81 21.1125 23.5717 21.053C23.4227 20.9934 23.5419 20.8146 23.5717 20.6656C23.6015 20.5167 23.6611 20.5465 23.6611 20.4571C23.6611 20.3677 23.3631 20.0399 23.2141 20.1591C23.0652 20.2783 23.095 20.3975 22.9758 20.5167C22.9162 20.5762 22.8566 20.5762 22.7672 20.5167C22.6778 20.4571 22.648 20.3975 22.6778 20.3379C22.7076 20.2783 22.4693 20.0101 22.3799 19.891C22.2607 19.742 22.0819 19.6526 21.9032 19.6526C21.7542 19.3845 21.5456 19.1163 21.3371 18.878L22.5587 17.6564C22.9758 18.1033 23.3035 18.5502 23.5717 19.0567ZM21.5159 19.891L21.4563 19.9804C21.4265 20.0399 21.2775 19.9208 21.2477 19.9506C21.2179 19.9804 21.4563 20.2783 21.2179 20.1889C20.9795 20.0995 21.1285 20.0995 21.1285 20.0101C21.1285 19.9208 20.92 19.8612 21.0391 19.8016C21.1583 19.742 21.0391 19.6526 21.1583 19.6228C21.2775 19.593 21.2477 19.4738 21.0987 19.4441C20.9498 19.4143 20.9795 19.7718 20.8902 19.7122C20.8008 19.6824 20.7114 19.6824 20.622 19.6824L21.0391 19.2653C21.0987 19.2951 21.1285 19.2951 21.1881 19.2951C21.2477 19.5334 21.3967 19.7122 21.5159 19.891ZM21.0391 25.9393C21.2179 25.9691 21.4265 25.9989 21.6052 26.0584C21.7244 26.118 21.8138 26.2372 21.9032 26.0882C22.0819 25.8201 22.2011 25.5221 22.2607 25.1944C22.3203 24.7475 22.2309 24.5985 22.1713 24.5985C22.1117 24.5985 21.9926 24.7177 21.8734 24.7177C21.8138 24.7177 21.8138 24.8369 21.8138 24.9263C21.8138 25.0156 21.6946 25.105 21.6648 25.0454C21.635 24.9858 21.5754 25.0156 21.6052 25.0752C21.635 25.1348 21.3669 25.105 21.2477 25.0454C21.0689 24.956 21.4563 24.956 21.635 24.8071C21.784 24.6879 21.933 24.5389 22.0819 24.39C22.1713 24.241 22.1713 24.0622 22.3203 23.943C22.4693 23.8239 22.7076 23.8537 22.7374 23.6749C22.7672 23.4961 22.797 23.5259 22.8864 23.5557C22.9758 23.5855 23.81 23.5259 23.81 23.2578C23.81 23.1386 23.6313 22.9896 23.4525 22.9598C23.3333 22.9598 23.3035 22.7215 23.2439 22.6023C23.1843 22.4831 23.1248 22.3639 23.0354 22.2447H24.2867C24.2272 23.7643 23.6313 25.2242 22.5885 26.3564L22.5587 26.3266V26.2074C22.5885 25.9691 22.4097 25.5817 22.3501 25.6413C22.2905 25.7009 22.3501 25.7009 22.1713 25.9691C22.1117 26.0584 22.0224 26.2074 21.9032 26.2074C21.784 26.2074 21.784 26.1478 21.6052 26.1776C21.4563 26.2074 21.2775 26.2074 21.1285 26.1776C20.8604 26.0882 20.5922 25.9691 20.3241 25.7903C20.3539 25.7605 20.4432 25.8201 20.4432 25.7307C20.4432 25.6413 20.92 25.9095 21.0391 25.9393ZM25.7169 29.5444L24.4953 28.3228C26.0446 26.6841 26.9385 24.5389 26.9981 22.3043H28.7559C28.6963 25.0156 27.6237 27.578 25.7169 29.5444ZM28.7559 21.7978H26.9981C26.9683 20.5167 26.6703 19.2653 26.1042 18.1033L26.134 18.0735C26.2532 17.9543 25.5679 17.0605 25.4487 16.9711C25.3296 16.8817 25.2104 16.7327 25.0614 16.5838C24.8231 16.3454 24.5847 16.0773 24.4059 15.8091L25.6871 14.5279C27.6237 16.4944 28.6963 19.0865 28.7559 21.7978ZM18.1491 11.191C20.8604 11.2505 23.4525 12.3231 25.4189 14.2002L24.2272 15.392C24.1676 15.3622 24.108 15.3324 24.1378 15.2728C24.1974 15.1834 24.0484 15.1834 24.0186 14.9451C23.959 14.7067 23.7802 14.4982 23.5717 14.379C23.4227 14.2896 23.3333 14.1704 23.1843 14.1108C23.0354 14.0512 22.7374 13.8725 22.5885 13.9321C22.4991 13.9618 22.3799 13.9916 22.2905 13.9916C21.0093 13.3064 19.609 12.9488 18.1789 12.919L18.1491 11.191ZM18.1491 13.4255C19.4302 13.4553 20.6518 13.7831 21.8138 14.3492C21.8436 14.5279 21.933 14.7365 22.0522 14.8855C22.1117 15.0345 22.2011 15.1536 22.2905 15.3026C22.3799 15.392 22.3203 15.5708 22.3501 15.7197C22.3501 15.7793 22.4097 15.8389 22.4395 15.8985C22.4395 15.9879 22.4395 16.0475 22.4395 16.1369C22.4395 16.1666 22.5587 16.1666 22.648 16.1071C22.7374 16.0475 22.797 15.9283 22.9162 15.9581C23.0354 15.9879 23.1843 16.2262 23.2737 16.3752L22.7076 16.9413C22.648 16.8221 22.5885 16.6732 22.6183 16.6732C22.648 16.6732 22.7076 16.703 22.7374 16.703C22.8566 16.703 22.648 16.6136 22.648 16.5838C22.5587 16.4944 22.5587 16.3752 22.4395 16.2858C22.3203 16.1964 22.1415 16.256 22.0819 16.1369C21.9628 15.9283 21.8138 15.7495 21.6052 15.6006C21.5754 15.6006 21.8436 15.9283 21.7542 15.9879C21.6648 16.0475 21.3371 15.7793 21.3073 15.8389C21.2775 15.8985 21.6648 16.0475 21.784 16.1666C21.8436 16.2262 21.9628 16.405 22.0819 16.554C20.9498 15.6899 19.5792 15.2132 18.1491 15.1536V13.4255ZM18.1491 15.6303C19.6686 15.6899 21.1285 16.2858 22.2607 17.3286L21.0391 18.5502C20.2347 17.8351 19.2217 17.418 18.1491 17.3584V15.6303ZM18.1491 17.8649C19.1025 17.9245 19.9963 18.2821 20.6816 18.9077L20.622 18.9673L20.5624 18.9375C20.4135 18.878 20.1155 19.1759 20.1751 19.2057C20.2347 19.2355 20.3539 19.0865 20.4135 19.1163H20.4432L19.9367 19.6526C19.7878 19.7122 19.6388 19.8314 19.6388 19.9208C19.6388 19.9208 19.6388 19.9208 19.6388 19.9506L19.46 20.1293L19.3706 20.0399C19.2217 19.9208 19.0727 19.8314 18.8939 19.7718C18.9833 19.7122 19.0131 19.6228 19.0429 19.5036C19.0429 19.3249 18.9833 19.3845 18.8939 19.4738C18.8045 19.5632 18.7152 19.593 18.6556 19.6824C18.5066 19.6228 18.3278 19.593 18.1789 19.593V17.8649H18.1491ZM17.9405 20.0697C17.9703 20.1293 17.9405 20.1889 17.9107 20.2187C17.8511 20.2783 17.6724 20.0697 17.6426 20.2485C17.583 20.4273 17.7617 20.3379 17.7617 20.3677C17.8511 20.4869 17.9703 20.5465 18.1193 20.5762C18.2384 20.5762 18.4172 20.5762 18.4172 20.6954C18.4172 20.755 18.5662 20.755 18.596 20.8146C18.596 20.904 18.6854 21.053 18.745 21.0232C18.8045 20.9934 18.8939 21.053 18.9237 21.1125C18.9535 21.1721 18.9237 21.2019 18.8939 21.2615C18.8045 21.3509 18.9833 21.3211 19.0131 21.4999C19.0429 21.6786 18.8641 21.5595 18.8343 21.6786C18.7748 21.768 18.7152 21.8276 18.6556 21.917C18.6258 21.9468 18.6854 22.0064 18.7152 21.9766C18.745 21.9468 18.8045 21.8574 18.8939 21.8574C18.9833 21.8574 19.0727 22.1852 19.1621 22.2149C19.2515 22.2447 19.2217 22.3639 19.2515 22.3937C19.2813 22.4235 19.1025 22.3937 19.1323 22.4533C19.1621 22.5129 19.3408 22.5427 19.3408 22.6321C19.3111 22.7215 19.2515 22.8108 19.1323 22.8108C19.0429 22.8108 18.8939 22.6023 18.8939 22.6619C18.8939 22.7215 18.9535 22.9002 19.0429 22.9002C19.1323 22.9002 19.3408 22.8108 19.2515 22.93C19.1621 23.0492 19.1919 23.228 19.1323 23.228C19.0727 23.228 19.0429 23.228 19.1025 23.3173C19.1323 23.4067 19.1025 23.4961 19.0429 23.5855C18.9833 23.6451 18.8343 23.5855 18.8343 23.5557C18.8343 23.5259 19.0131 23.5259 19.0131 23.4365C19.0131 23.3471 18.9237 23.3173 18.745 23.3769C18.6556 23.4067 18.6258 23.3471 18.5662 23.3471C18.5066 23.3471 18.3278 23.5557 18.3278 23.5855C18.3278 23.6153 18.3278 23.6749 18.3278 23.7345C18.3278 23.8537 18.298 23.943 18.2384 24.0324C18.1193 24.0622 18.0299 24.0622 17.9107 24.0622C17.434 24.0622 16.9573 23.8537 16.5997 23.5557C16.6593 23.5259 16.7487 23.4961 16.8381 23.4961C16.9275 23.5259 16.9573 23.4663 17.0169 23.4365C17.0765 23.4067 17.2254 23.4961 17.3148 23.4365C17.4042 23.3769 17.6128 22.9896 17.583 22.9002C17.5532 22.8108 17.7915 22.6619 17.7617 22.6321C17.7319 22.6023 17.7021 22.6619 17.7021 22.6321C17.7021 22.6023 17.7617 22.6023 17.7021 22.4831C17.6426 22.3639 17.5532 22.4235 17.4936 22.4235C17.4042 22.3639 17.2552 22.3341 17.2254 22.3639C17.1956 22.3937 17.1063 22.3043 17.0765 22.3341C17.0467 22.3341 16.9871 22.3639 16.9871 22.4235C16.9573 22.4831 17.0169 22.5427 17.0169 22.6023C16.9871 22.7215 16.8083 22.8108 16.8083 22.9002C16.8083 22.9896 16.7189 22.93 16.6891 22.9598C16.6593 22.9896 16.6891 23.0492 16.6295 23.0492C16.57 23.0492 16.4806 23.1982 16.421 23.3173C16.3316 23.1982 16.2422 23.0492 16.1528 22.93C16.2124 22.9002 16.272 22.8704 16.3018 22.9002C16.3912 22.9598 16.7487 22.3341 16.6891 22.1554C16.6295 21.9766 16.5402 22.0958 16.4508 22.1256C16.3614 22.1554 16.3614 22.066 16.3912 22.0362C16.421 22.0064 16.8083 22.0064 16.5997 21.8872C16.5104 21.8276 16.272 21.8276 16.3018 21.7382C16.3316 21.6489 16.4508 21.7382 16.4806 21.7382C16.6295 21.7978 16.7189 21.4999 16.8083 21.4999C16.9573 21.4999 16.8977 21.2019 16.7487 21.2913C16.5997 21.3807 16.5402 21.3509 16.4806 21.4403C16.421 21.5297 16.272 21.6489 16.272 21.5297C16.272 21.4701 16.5997 21.2913 16.6593 21.2019C16.7189 21.1423 16.7785 21.053 16.8083 20.9636C16.8381 20.8742 17.2552 20.8146 17.3446 20.755C17.4042 20.6954 17.4638 20.606 17.4638 20.5167C17.4638 20.4273 17.3446 20.4571 17.3148 20.3975C17.285 20.3379 17.4638 20.3975 17.4638 20.3081C17.4638 20.2187 17.3148 20.3081 17.2552 20.2485C17.2552 20.2187 17.2552 20.2187 17.285 20.1889C17.5532 20.0995 17.7319 20.0697 17.9405 20.0697H18.0001H17.9405ZM17.6724 11.191V12.919C15.4378 12.9786 13.2925 13.8725 11.6538 15.4218L10.4323 14.2002C12.3689 12.3231 14.961 11.2505 17.6724 11.191ZM10.0449 14.5577L11.2665 15.7793C9.7172 17.418 8.82336 19.5632 8.76377 21.7978H7.03569C7.12507 19.0865 8.19768 16.4944 10.0449 14.5577Z" fill="#009EDB"/>
</g>
<defs>
<clipPath id="clip0_6610_14639">
<rect width="88.8772" height="27.1429" fill="white" transform="translate(1.64282 10.7142)"/>
</clipPath>
</defs>
</svg>
