<svg width="128" height="70" viewBox="0 0 128 70" fill="none" xmlns="http://www.w3.org/2000/svg">
<g clip-path="url(#clip0_6721_4518)">
<path d="M62.3171 17.336H65.5289V27.5138C65.5289 29.3074 64.9867 30.6839 63.8604 31.6016C61.316 33.4787 57.8956 33.4787 55.3511 31.6016C54.2249 30.6839 53.6826 29.3074 53.6826 27.5138V17.336H56.8945V27.5138C56.8945 28.5566 57.1447 29.2657 57.6453 29.7245C58.8132 30.6422 60.4817 30.6422 61.6497 29.7245C62.1502 29.2657 62.3588 28.5149 62.3588 27.5138L62.3171 17.336ZM72.5783 23.5511C71.7858 23.5094 70.9933 23.9265 70.6179 24.6356V32.7695H67.5311V21.2986H70.4093L70.4927 22.5917C71.2853 21.5906 72.5366 21.0066 73.788 21.0484C74.7474 21.0066 75.7068 21.3403 76.4159 22.0077C77.0833 22.6751 77.417 23.8014 77.417 25.4282V32.7278H74.3303V25.4699C74.3303 24.7191 74.1634 24.2185 73.8714 23.9682C73.5377 23.6762 73.0789 23.5094 72.5783 23.5511ZM79.5026 18.3371C79.5026 17.9199 79.6694 17.5028 79.9614 17.2108C80.6705 16.6268 81.7551 16.6268 82.4642 17.2108C82.7562 17.5028 82.9647 17.9199 82.923 18.3371C82.923 18.7542 82.7562 19.1713 82.4642 19.4633C81.7551 20.0473 80.6705 20.0473 79.9614 19.4633C79.6694 19.1713 79.5026 18.7542 79.5026 18.3371ZM82.7979 21.2986V32.7695H79.7112V21.2986H82.7979ZM90.7649 32.7278C90.181 32.9364 89.5553 33.0198 88.9296 33.0198C88.0536 33.0615 87.2194 32.7695 86.5103 32.2273C85.9263 31.7267 85.6343 30.8508 85.6343 29.5994V23.5511H83.9241V21.2986H85.6343V18.4622H88.721V21.2986H90.6815V23.5511H88.721V29.3074C88.6793 29.6411 88.7627 30.0165 89.013 30.2668C89.2633 30.4337 89.597 30.5171 89.889 30.5171C90.0558 30.5171 90.2227 30.5171 90.3895 30.4754C90.5564 30.4754 90.6815 30.4337 90.7649 30.4337V32.7278ZM101.86 30.9342C101.402 31.5182 100.859 32.0187 100.192 32.3524C99.316 32.8113 98.3566 33.0198 97.3972 33.0198C95.6036 33.0198 94.1854 32.4776 93.1843 31.393C92.1832 30.3085 91.6409 28.932 91.6826 27.4721V27.0549C91.5992 25.5116 92.1415 23.9682 93.1426 22.8003C94.1437 21.674 95.5619 21.0484 97.0635 21.1318C98.732 21.1318 99.9834 21.6323 100.818 22.6751C101.652 23.718 102.111 25.0945 102.111 26.763V28.056H94.8111C94.8945 28.7234 95.1865 29.3908 95.687 29.8497C96.1876 30.3085 96.8967 30.5588 97.6058 30.5171C98.6903 30.5588 99.7331 30.1 100.359 29.224L101.86 30.9342ZM97.0218 23.5511C96.4378 23.5094 95.8956 23.7597 95.5202 24.2185C95.1447 24.7191 94.8945 25.303 94.8111 25.9287H99.0657V25.6784C99.0657 25.1362 98.8989 24.5939 98.5652 24.1351C98.1898 23.718 97.6058 23.5094 97.0218 23.5511ZM110.662 32.8113L110.495 31.6016C110.161 32.0187 109.744 32.3941 109.244 32.6444C108.743 32.8947 108.159 33.0198 107.575 33.0198C106.24 33.0615 104.989 32.4358 104.28 31.3513C103.446 30.1 103.028 28.64 103.112 27.1801V26.9715C103.112 25.2196 103.487 23.8014 104.28 22.7169C105.031 21.6323 106.282 21.0484 107.617 21.0901C108.701 21.0484 109.702 21.5072 110.37 22.3414V16.5017H113.456V32.8113H110.662ZM106.157 27.1801C106.115 27.9726 106.282 28.8069 106.657 29.516C106.991 30.1417 107.658 30.5588 108.368 30.4754C109.202 30.5171 109.994 30.0582 110.37 29.3074V24.7608C110.036 24.0099 109.244 23.5094 108.368 23.5511C107.658 23.5094 106.991 23.8848 106.657 24.5522C106.282 25.303 106.115 26.1373 106.157 26.9715V27.1801ZM66.3632 35.8146V51.2899H63.193L56.9779 41.0703V51.2899H53.766V35.8146H56.9779L63.193 46.0341V35.8146H66.3632ZM75.3314 51.2899C75.1645 50.9562 75.0811 50.6225 75.0394 50.247C74.7057 50.6225 74.3303 50.9144 73.8714 51.123C73.3292 51.3733 72.7452 51.4984 72.1195 51.4984C71.1184 51.5401 70.1173 51.1647 69.3665 50.539C68.6157 49.9133 68.2402 49.0374 68.2402 48.078C68.1985 46.9935 68.6991 45.909 69.575 45.2833C70.451 44.6159 71.7858 44.2822 73.5377 44.2822H74.9142V43.6148C74.9559 43.1559 74.7891 42.6971 74.4971 42.3217C74.1634 41.988 73.7046 41.8211 73.204 41.8629C72.1195 41.8629 71.5772 42.3217 71.5772 43.2394H68.4905C68.4905 42.2383 68.9911 41.2789 69.8253 40.6532C70.8681 39.9024 72.1195 39.527 73.3709 39.5687C74.5388 39.527 75.7068 39.8607 76.6662 40.5698C77.5421 41.2372 77.9592 42.2383 77.9592 43.6148V48.4534C77.9592 48.9957 78.0009 49.4962 78.0844 50.0385C78.1678 50.4139 78.2512 50.7476 78.4181 51.0813V51.2899H75.3314ZM72.7869 49.1625C73.2457 49.1625 73.7046 49.0374 74.1217 48.8288C74.4554 48.662 74.7057 48.37 74.9142 48.078V46.0758H73.6629C73.0372 46.0341 72.3698 46.2009 71.8692 46.5764C71.4938 46.91 71.2852 47.3689 71.2852 47.8277C71.2852 48.2031 71.4104 48.5368 71.6607 48.7871C71.9944 49.0374 72.4115 49.1625 72.7869 49.1625ZM85.8429 51.2064C85.5509 51.2899 85.3006 51.3733 85.0086 51.415C84.6749 51.4567 84.3412 51.4984 84.0075 51.4984C83.1316 51.5401 82.2973 51.2481 81.5882 50.7059C81.0042 50.2053 80.7123 49.3294 80.7123 48.078V42.0297H79.002V39.7772H80.7123V36.9408H83.799V39.7772H85.7595V42.0297H83.799V47.786C83.7573 48.1197 83.8407 48.4951 84.091 48.7454C84.3412 48.9122 84.6749 48.9957 84.9669 48.9957C85.1338 48.9957 85.3006 48.9957 85.4675 48.954C85.6343 48.954 85.7595 48.9122 85.8429 48.9122V51.2064ZM87.136 36.8156C87.136 36.3985 87.3028 35.9814 87.5948 35.6894C88.3039 35.1054 89.3884 35.1054 90.0975 35.6894C90.7232 36.3151 90.7232 37.3162 90.0975 37.9836C89.3884 38.5676 88.3039 38.5676 87.5948 37.9836C87.2611 37.6499 87.0942 37.2328 87.136 36.8156ZM90.3895 39.7772V51.2899H87.3028V39.7772H90.3895ZM92.1415 45.6587V45.4501C92.0997 43.9485 92.6003 42.4468 93.5597 41.2789C94.5191 40.1526 95.8539 39.6104 97.5641 39.6104C99.316 39.6104 100.651 40.1526 101.61 41.2789C102.57 42.4468 103.07 43.9485 103.028 45.4501V45.6587C103.07 47.1603 102.57 48.662 101.61 49.8299C100.651 50.9562 99.316 51.4984 97.6058 51.4984C95.8539 51.4984 94.5191 50.9562 93.5597 49.8299C92.6003 48.662 92.0997 47.1603 92.1415 45.6587ZM95.2282 45.4084V45.617C95.1865 46.4512 95.395 47.2855 95.7704 47.9946C96.4378 48.9957 97.8143 49.2877 98.8154 48.6203C99.0657 48.4534 99.2743 48.2448 99.4411 47.9946C99.8165 47.2437 99.9834 46.4512 99.9834 45.617V45.4084C100.025 44.5742 99.8165 43.7816 99.4411 43.0308C99.0657 42.3634 98.3566 41.9463 97.6058 42.0297C96.855 41.988 96.1458 42.3634 95.7704 43.0308C95.395 43.7816 95.1865 44.6159 95.2282 45.4084ZM109.619 42.0714C108.826 42.0297 108.034 42.4468 107.658 43.1976V51.2899H104.572V39.7772H107.45L107.575 41.112C108.368 40.1109 109.577 39.527 110.87 39.5687C111.871 39.527 112.831 39.8607 113.54 40.5281C114.207 41.1955 114.541 42.3217 114.541 43.9485V51.2899H111.454V43.9485C111.454 43.1976 111.287 42.6971 110.995 42.4468C110.578 42.1548 110.078 42.0297 109.619 42.0714ZM122.8 48.078C122.8 47.7443 122.633 47.4106 122.341 47.2438C121.757 46.9101 121.09 46.7015 120.464 46.6181C119.421 46.4095 118.42 46.0341 117.544 45.4501C116.793 44.9496 116.335 44.0736 116.376 43.1559C116.376 42.1966 116.835 41.2789 117.586 40.6532C118.42 39.9441 119.505 39.5687 120.965 39.5687C122.425 39.5687 123.634 39.9024 124.51 40.6115C125.345 41.2372 125.803 42.2383 125.803 43.2811H122.717C122.717 42.864 122.592 42.4885 122.3 42.1965C121.924 41.9046 121.465 41.7377 120.965 41.7794C120.548 41.7377 120.13 41.8629 119.755 42.1131C119.505 42.3217 119.338 42.6554 119.338 42.9891C119.338 43.3228 119.505 43.6565 119.797 43.8233C120.297 44.1153 120.881 44.2822 121.465 44.3656C122.55 44.5742 123.593 44.9496 124.552 45.4918C125.386 45.9924 125.803 46.8266 125.803 47.9529C125.803 48.954 125.303 49.8716 124.51 50.4556C123.634 51.123 122.466 51.4567 120.965 51.4567C119.38 51.4567 118.128 51.0396 117.294 50.2053C116.501 49.5379 116.043 48.5785 116.001 47.5774H118.921C118.921 48.078 119.171 48.5785 119.588 48.8705C120.005 49.1208 120.506 49.2877 121.048 49.2459C122.174 49.3294 122.8 48.9122 122.8 48.078Z" fill="black"/>
<path d="M37.3729 49.663C36.1633 50.247 34.8285 50.4139 33.4937 50.1219C32.576 49.9133 31.7418 49.6213 30.9075 49.2459L29.0722 48.4951C27.4871 47.9945 25.7769 47.9528 24.1501 48.37H23.9833C22.3565 47.9111 20.6463 47.9528 19.0612 48.4951C18.4355 48.7037 17.8515 48.9956 17.2258 49.2459C16.3916 49.6213 15.5156 49.955 14.6397 50.1636C13.3466 50.4556 11.9701 50.2887 10.7604 49.7048L10.5936 49.6213C10.5519 49.6213 10.5519 49.6213 10.5519 49.663C11.3444 50.4973 12.3872 51.0813 13.4717 51.3733C14.2226 51.5818 15.0151 51.6235 15.7659 51.5401C16.9339 51.3732 18.0601 50.9561 19.0195 50.2887L20.7714 49.1208C21.4388 48.7037 22.2313 48.5368 22.9822 48.7037C23.3993 48.7454 23.0656 48.9539 23.0239 48.9956C21.9811 49.4962 20.98 50.1219 20.0623 50.831C19.4366 51.2898 18.3104 52.3744 18.3104 52.3744L19.1446 53.0835L20.0623 52.0824C21.1885 50.9144 22.4816 49.9133 23.8998 49.1208C24.025 49.0374 24.1501 49.0374 24.2752 49.1208C25.6935 49.9133 26.9865 50.9144 28.1128 52.0824L29.0305 53.0835L29.8647 52.3744L28.1128 50.831C27.1951 50.1219 26.194 49.4962 25.1512 48.9956C25.0678 48.9539 24.7758 48.7454 25.1929 48.7037C25.9437 48.5368 26.7363 48.7037 27.4037 49.1208L29.1556 50.2887C30.115 50.9561 31.2412 51.3732 32.4092 51.5401C33.16 51.6235 33.9525 51.5818 34.7034 51.3733C35.7879 51.0396 36.8307 50.4556 37.6232 49.663C37.6232 49.663 37.5815 49.6213 37.5398 49.6213L37.3729 49.663ZM41.4608 46.0341C40.9185 46.4512 40.3345 46.7432 39.7088 46.9517C38.8329 47.202 37.8735 47.3689 36.9558 47.3689C35.7462 47.4106 34.5782 47.494 33.3686 47.6609C33.2851 47.6609 33.2434 47.6608 33.2851 47.6191C34.3279 47.202 35.1622 46.3678 35.621 45.3667L36.789 42.9891C36.789 42.9473 36.789 42.9473 36.789 42.9056C36.7055 42.9473 35.5376 43.9484 34.9953 44.449L33.0349 46.3678C32.1589 47.1186 31.1161 47.6608 29.9898 47.9528H29.9481L29.9064 47.9945L32.1589 48.5368C33.1183 48.8288 34.1194 48.9956 35.1205 49.0791C37.6649 49.3293 40.126 48.1614 41.5442 46.0758C41.5442 46.0341 41.5025 46.0341 41.4608 46.0341ZM45.1315 40.4446C44.5475 41.1537 43.8384 41.7794 43.0458 42.2799C42.3784 42.7388 41.6693 43.1142 40.9185 43.4479C39.9591 43.8233 39.0832 44.3656 38.2906 44.9913L38.1238 45.1164C38.0821 45.1164 38.0821 45.1164 38.0821 45.0747C38.0821 45.033 39.3334 43.7816 39.7088 41.1537C39.7506 40.1943 39.9174 39.2767 40.126 38.359C40.126 38.3173 40.126 38.3173 40.126 38.2756C39.25 39.3601 38.5826 40.5697 38.1238 41.8628L37.3729 43.9902C37.081 44.9495 36.5387 45.8255 35.8296 46.5346L35.7462 46.618V46.6598C35.8296 46.6598 35.913 46.618 35.9964 46.618L38.4158 46.1175C39.7506 45.9089 41.0019 45.3667 42.0864 44.5741C43.2127 43.7816 44.0886 42.6971 44.7143 41.4874C44.8812 41.1537 45.0063 40.82 45.1315 40.4863C45.2149 40.4029 45.1732 40.4029 45.1315 40.4446ZM46.7165 34.1877C46.3411 35.314 45.6737 36.3568 44.7978 37.191C43.7967 38.1504 42.879 39.2349 42.0447 40.3195C42.0447 40.3612 41.9613 40.3195 42.003 40.2778C42.3367 39.1515 42.4201 37.9419 42.2533 36.7322C42.0864 35.7311 41.6693 34.6466 41.5442 33.4369L41.5025 33.3952C41.5025 33.4369 41.4608 33.4786 41.4608 33.5203C41.2105 34.3129 41.0436 35.1054 40.9602 35.9397C40.9185 36.9408 41.0853 38.2338 41.0019 39.2349C40.9185 40.4029 40.8351 41.6126 40.2928 42.6554C40.2928 42.6971 40.2928 42.6971 40.2928 42.7388L42.7956 41.1954C43.8384 40.528 44.7143 39.6938 45.4234 38.6927C46.3411 37.3996 46.7999 35.8979 46.7999 34.3129C46.7999 34.2712 46.7999 34.1877 46.7999 34.146C46.7582 34.146 46.7165 34.1877 46.7165 34.1877Z" fill="#009EDB"/>
<path d="M44.0469 34.8551C44.0886 34.8551 44.0886 34.8551 44.0469 34.8551C44.0469 34.5214 44.0469 34.1877 44.0052 33.854C43.9218 32.6861 43.2127 31.7267 42.587 30.7256C42.1699 30.0999 41.7944 29.4325 41.4607 28.7234C41.4607 28.7234 41.419 28.6817 41.3773 28.6817C41.3773 28.7651 41.3773 29.1405 41.419 29.3491C41.6276 31.0176 42.0447 32.6861 42.6704 34.2712C43.0458 35.2723 43.171 36.3151 43.0875 37.3579C43.0875 37.4413 43.0875 37.4413 43.1292 37.483C43.5047 36.9408 44.2555 36.1899 44.7143 35.606C45.1731 35.022 47.6759 32.1855 46.4662 28.2646C46.4245 28.0977 46.3411 27.9309 46.2577 27.764L46.216 27.8057C46.216 30.6422 44.8395 31.8518 44.2972 33.7706C44.1721 34.2295 44.0886 34.5632 44.0469 34.8551ZM44.0886 29.0154L43.8384 28.348L43.6715 27.9726C43.2544 27.2218 42.6704 26.5544 41.9613 26.0538C41.3773 25.5533 40.8768 25.011 40.4597 24.3853C40.4597 24.3853 40.4179 24.3853 40.3762 24.3853H40.3345C40.3762 24.5105 40.7516 25.7618 41.0019 26.3458C41.419 27.1383 41.9196 27.9309 42.5036 28.5983L42.6287 28.7651C43.3378 29.7245 43.8801 30.7673 44.2555 31.8936C44.2555 31.9353 44.2972 31.9353 44.2972 31.9353L45.0063 29.7662C45.2566 29.0154 45.4651 28.2229 45.632 27.4303C45.8823 25.5533 45.2983 23.1757 44.2138 21.8409C44.2138 21.8409 44.1721 21.8826 44.1721 21.9243L44.2138 22.0911L44.2972 22.3414C44.5058 23.3425 44.5475 24.427 44.3389 25.4281C44.1721 26.2207 44.1303 27.0549 44.1303 27.8892C44.1303 28.0143 44.2138 29.0571 44.2138 29.0988C44.2138 29.1405 44.1721 29.0988 44.1303 29.0988M40.7516 18.5456C41.0853 18.8793 41.3773 19.2547 41.5442 19.7135C41.8362 20.4226 41.9196 21.4655 42.1281 22.258L42.5036 23.6345C42.5036 23.6762 42.4618 23.7179 42.4201 23.6762C41.7944 22.9254 41.0436 22.2997 40.1677 21.7992C39.5837 21.4655 39.1249 21.0066 38.7077 20.5061L38.4992 20.2141C38.4992 20.2141 38.4575 20.1724 38.4157 20.2141C38.4157 20.2558 38.4157 20.2975 38.4157 20.3392C38.6243 21.2569 39.0414 22.1329 39.7088 22.842C40.2511 23.3425 40.8351 23.8014 41.3773 24.2602C42.0864 24.8442 42.7538 25.5533 43.3795 26.2624C43.3795 26.2624 43.4212 26.3041 43.4212 26.2624V25.595L43.4629 23.5928V22.9254C43.4629 22.258 43.3378 21.5489 43.0875 20.9232C42.6704 19.8804 41.8779 19.0461 40.9185 18.5456C40.8768 18.5039 40.7933 18.5039 40.7099 18.4622C40.7099 18.4622 40.7099 18.5039 40.7516 18.5456ZM36.4553 16.5851C37.0392 17.1274 37.5398 17.7531 37.9986 18.4205C38.4157 19.0878 38.8746 19.6718 39.4586 20.2141C39.834 20.5895 40.9602 21.4655 41.2522 21.7157C41.2105 21.382 40.6682 19.0044 39.2083 17.8365C38.374 17.1691 37.3729 16.6685 36.3301 16.4183C36.3301 16.46 36.3301 16.46 36.3301 16.5017L36.4553 16.5851ZM13.0963 49.0791C14.0557 48.9956 15.0568 48.8288 15.9745 48.5368L18.2269 47.9945H18.2687C18.2687 47.9945 18.2687 47.9528 18.2269 47.9528H18.1852C17.059 47.6608 16.0162 47.1186 15.0985 46.3678L13.138 44.4907L11.3444 42.9473V43.0308C11.5112 43.281 12.1369 44.6576 12.5123 45.4084C12.9712 46.4512 13.8054 47.2437 14.8482 47.6609C14.8899 47.7026 14.8482 47.7026 14.7648 47.7026C13.5969 47.5357 12.3872 47.4523 11.1775 47.4106C10.2599 47.4106 9.30048 47.2437 8.42452 46.9934C7.79884 46.7849 7.21486 46.4929 6.6726 46.0758C6.63089 46.0758 6.63089 46.0758 6.58918 46.0758C7.42343 47.2437 8.59137 48.1614 9.92617 48.6619C10.969 48.9956 12.0118 49.1208 13.0963 49.0791ZM12.1369 46.618C12.2204 46.618 12.2621 46.6597 12.3872 46.6597V46.618L12.3038 46.5346C11.5947 45.8255 11.0941 44.9495 10.7604 43.9902L10.0096 41.8628C9.55076 40.5697 8.88336 39.3601 8.0074 38.2756C8.0074 38.3173 8.0074 38.3173 8.0074 38.359C8.25767 39.2767 8.38281 40.1943 8.46624 41.1537C8.84165 43.7399 10.093 44.9913 10.093 45.033C10.093 45.0747 10.093 45.1164 10.0513 45.0747L9.88446 44.9495C9.09192 44.3239 8.21596 43.7816 7.25658 43.4062C6.50575 43.0725 5.79664 42.6971 5.12924 42.2382C4.33671 41.7377 3.6276 41.112 3.04362 40.4029H3.00191C3.12705 40.7366 3.25219 41.0703 3.41904 41.404C4.04472 42.6136 4.96239 43.6982 6.08863 44.4907C7.17315 45.325 8.42452 45.8672 9.75932 46.0341C10.5519 46.2426 11.3444 46.4512 12.1369 46.618ZM5.42123 41.1954L7.92398 42.7388C7.92398 42.7388 7.96569 42.6971 7.96569 42.6554C7.42343 41.5708 7.34 40.4029 7.25658 39.2349C7.17315 38.1921 7.34 36.9408 7.29829 35.9397C7.21486 35.1054 7.04801 34.2712 6.79774 33.4786C6.79774 33.4369 6.75603 33.3952 6.75603 33.3535L6.71432 33.3952C6.63089 34.6049 6.17205 35.6894 6.0052 36.6905C5.83836 37.8584 5.92178 39.0681 6.25548 40.236C6.29719 40.2778 6.21377 40.3195 6.21377 40.2778C5.37952 39.1515 4.46185 38.1087 3.46075 37.1493C2.58479 36.3151 1.91739 35.314 1.54198 34.1877C1.54198 34.1877 1.50027 34.146 1.45855 34.146C1.41684 34.146 1.45855 34.2295 1.45855 34.3129C1.45855 35.8562 1.91739 37.3996 2.83506 38.6927C3.50246 39.6521 4.37842 40.528 5.42123 41.1954ZM4.96239 37.5247C5.00411 37.483 5.00411 37.483 5.00411 37.3996C4.92068 36.3568 5.04582 35.2723 5.46294 34.3129C6.04692 32.7278 6.46404 31.101 6.71432 29.3908C6.71432 29.1823 6.75603 28.8068 6.75603 28.7234C6.71432 28.7234 6.71432 28.7234 6.71432 28.7651C6.38062 29.4742 6.00521 30.1416 5.58808 30.7673C4.92068 31.685 4.25328 32.6861 4.16986 33.854C4.12815 34.1877 4.12815 34.5214 4.16986 34.8551C4.16986 34.8551 4.16986 34.8969 4.12815 34.8969C4.12815 34.8969 4.12815 34.8968 4.12815 34.8551L3.83616 33.854C3.25219 31.9353 1.91739 30.7256 1.91739 27.8892L1.87568 27.8475C1.79225 28.0143 1.75054 28.1812 1.66711 28.348C0.457455 32.269 2.91849 35.1054 3.41904 35.6894C3.91958 36.2734 4.58698 36.9825 4.96239 37.5247ZM3.21047 29.7245L3.91958 31.8936C3.91958 31.8936 3.9613 31.8936 3.9613 31.8518C4.33671 30.7256 4.92068 29.6828 5.58808 28.7234L5.71322 28.5566C6.29719 27.8475 6.79774 27.0966 7.21486 26.3041C7.46514 25.7201 7.84055 24.4687 7.88226 24.3436H7.84055C7.79884 24.3436 7.79884 24.3436 7.75713 24.3436C7.34 24.9693 6.83945 25.5116 6.25548 26.0121C5.54637 26.5127 4.92068 27.1801 4.50356 27.9726C4.46185 28.0977 4.37842 28.2229 4.33671 28.348L4.08643 29.0571C4.08643 29.0571 4.04472 29.1405 4.04472 29.0571C4.04472 28.9737 4.12815 28.0143 4.12815 27.8475C4.12815 27.0132 4.04472 26.179 3.87787 25.3864C3.66931 24.3436 3.71102 23.3008 3.91958 22.2997C3.91958 22.2163 3.9613 22.1329 4.00301 22.0494C4.00301 22.0077 4.04472 21.9243 4.04472 21.8826C4.04472 21.8409 4.04472 21.8409 4.00301 21.7992C2.91849 23.134 2.2928 25.5533 2.54308 27.3886C2.75164 28.1812 2.9602 28.9737 3.21047 29.7245ZM4.71212 23.6345L4.75383 25.6367V26.2624H4.79555C5.37952 25.5116 6.04692 24.8442 6.75603 24.2185L8.42452 22.8003C9.09192 22.0911 9.50905 21.2152 9.71761 20.2975C9.71761 20.2558 9.71761 20.2141 9.71761 20.1724H9.6759L9.46733 20.4644C9.09192 20.9649 8.59137 21.4237 8.04911 21.7574C7.04801 22.3831 6.38062 22.842 5.79664 23.6345C5.75493 23.6762 5.71322 23.6762 5.75493 23.5928L6.13034 22.2163C6.3389 21.4237 6.42233 20.3809 6.71432 19.6718C6.88117 19.2547 7.17315 18.8376 7.50685 18.5039C7.50685 18.4622 7.50685 18.4622 7.50685 18.4205C7.42343 18.4205 7.38171 18.4622 7.29829 18.5039C6.25548 19.0461 5.50466 19.9221 5.08753 20.9232C4.83726 21.5489 4.67041 22.2163 4.71212 22.9254V23.6345ZM6.92288 21.674L8.75822 20.1724C9.30048 19.6301 9.80103 19.0461 10.2182 18.3787C10.6353 17.7113 11.1775 17.0857 11.7615 16.5434L11.8867 16.4183C11.8867 16.3765 11.8867 16.3765 11.8867 16.3348C10.8438 16.5851 9.84274 17.0439 9.0085 17.7531C7.46514 18.9627 6.96459 21.3403 6.92288 21.674ZM23.6913 34.6049C23.8164 34.438 23.5244 34.3129 23.441 34.6049C23.3576 34.8969 23.5661 34.8134 23.6913 34.6049ZM26.8614 27.2635C26.7363 27.2218 26.2774 27.764 26.3609 27.8475C26.5694 27.7223 26.7363 27.5138 26.8614 27.2635ZM26.9448 27.1801C27.0283 27.2218 27.3202 27.0549 27.2785 27.0132C27.2368 26.9715 26.8614 26.8046 26.8614 26.8881C26.8614 27.0549 26.9031 27.1383 26.9448 27.1801ZM32.576 32.3524C32.7429 32.3107 32.7011 32.0604 32.576 32.0604C32.4509 32.0604 32.284 32.269 32.3257 32.269C32.3674 32.269 32.4926 32.3941 32.576 32.3524ZM30.5321 26.8046C30.407 26.8046 30.3652 26.9298 30.4904 27.0132C30.6155 27.0549 30.6989 27.0132 30.7824 26.9715C30.8658 26.9298 30.9492 26.8464 30.9492 26.7212C30.9492 26.5961 30.7824 26.4292 30.8658 26.3458C30.9492 26.2624 31.0744 26.3875 31.1578 26.3458C31.2412 26.3041 31.2829 26.2207 31.2829 26.1372C31.2829 26.0538 31.2412 25.8035 31.0744 25.8035C30.9075 25.8035 30.7407 26.1372 30.7407 26.1372C30.6989 26.2207 30.6989 26.3458 30.7407 26.4292C30.7824 26.5961 30.7407 26.8046 30.5321 26.8046Z" fill="#009EDB"/>
<path d="M33.2851 26.8464C33.2851 26.9298 33.4937 27.472 33.5354 27.5972C33.5771 27.7223 33.6188 28.1812 33.7022 28.1394C33.7857 28.0977 33.7857 27.8475 33.744 27.7223C33.7022 27.4303 33.6188 27.0966 33.5354 26.8464C33.4937 26.6795 33.2017 26.0538 33.1183 26.0955C33.0348 26.1372 33.2434 26.5127 33.2851 26.6795C33.3268 26.8464 33.2434 26.7629 33.2851 26.8464ZM31.8252 19.7552C31.9503 19.797 31.9503 19.5467 31.7418 19.3798C31.5332 19.213 31.1995 19.2964 31.2829 19.3798C31.4498 19.505 31.6166 19.6718 31.8252 19.7552ZM25.5683 17.9616C25.2763 17.7948 25.5266 17.5445 25.3181 17.3776C25.0678 17.2942 24.8175 17.3359 24.6507 17.5028C24.4421 17.7531 24.9009 17.6696 25.0261 17.7531C25.1512 17.8365 25.5683 18.1285 25.61 18.0868C25.6517 18.045 25.61 17.9616 25.5683 17.9616ZM27.2368 17.1274C26.8614 16.9605 25.4849 16.9605 25.5266 17.3359C25.5683 17.7113 26.3191 17.3359 26.5277 17.3359C26.7363 17.3359 27.5705 17.2942 27.2368 17.1274ZM23.441 33.2284C23.3576 33.1866 23.2324 33.2701 23.1907 33.1866C23.149 33.1032 23.0656 33.1449 23.0656 33.1866C23.0656 33.2284 23.0239 33.3118 23.1073 33.3952C23.1907 33.4786 23.3576 33.4786 23.441 33.3952C23.4827 33.3535 23.4827 33.2701 23.441 33.2284ZM22.6485 30.4336C22.7736 30.4336 22.7736 30.3502 22.8153 30.3502C22.857 30.3502 22.8153 30.4336 22.9404 30.4336C23.0656 30.4336 23.1907 30.1416 22.8153 30.1416C22.5233 30.1416 22.565 30.4336 22.6485 30.4336ZM23.149 30.7673C22.9404 30.7256 22.9822 30.8507 22.8153 30.8507C22.565 30.8925 22.7736 30.6839 22.6902 30.6005C22.6485 30.5588 22.5233 30.7673 22.4816 30.8925C22.4816 30.9759 22.4816 31.1427 22.565 31.1844L23.3576 31.2679C23.5244 31.2679 23.3576 30.809 23.149 30.7673ZM20.5628 33.4786C20.6463 33.4786 20.688 33.2284 20.6463 33.1032C20.6045 32.9781 20.3543 33.0615 20.3543 33.1449C20.3543 33.2284 20.5211 33.4786 20.5628 33.4786ZM17.2258 33.4786C17.2258 33.3952 17.2258 33.0615 17.1424 32.9781C17.059 32.8947 17.059 33.0198 17.0173 33.0198C16.9756 33.0198 16.9756 32.8529 16.9339 32.8529C16.8921 32.8529 16.9339 33.1032 17.0173 33.2701C17.1007 33.4369 17.2258 33.6872 17.2258 33.4786ZM17.1424 32.7278C17.2258 32.4775 17.2676 32.2273 17.2676 31.977C17.2676 31.7684 17.1424 31.6016 17.1007 31.6016C17.059 31.6016 17.1007 31.7267 17.1424 31.9353C17.1424 32.1438 17.059 32.3524 17.0173 32.561C17.0173 32.6027 17.1007 32.8112 17.1424 32.7278Z" fill="#009EDB"/>
<path d="M12.8878 42.0714C19.1029 48.2865 29.1139 48.2865 35.329 42.0714C41.5442 35.8562 41.5442 25.8453 35.329 19.6301C29.1139 13.415 19.1029 13.415 12.8878 19.6301C6.6726 25.8453 6.6726 35.898 12.8878 42.0714ZM8.92507 31.1845H11.3444C11.3861 32.4358 11.5947 33.6455 11.9701 34.8134C11.8449 34.7717 11.7198 34.73 11.5947 34.6466C11.4278 34.5632 11.3027 34.6883 11.261 34.6883C11.0941 34.6883 10.8856 34.5632 10.8856 34.6883C10.8856 34.8134 11.0524 34.73 11.0524 34.8134C11.0524 34.8969 10.6353 34.8969 10.5936 34.73C10.5519 34.5632 10.4684 34.3963 10.4267 34.6049C10.385 34.8134 10.2182 34.7717 10.1347 34.8134C10.093 34.8551 10.0513 34.9386 10.0513 35.022C10.0513 35.1054 9.84275 35.0637 9.84275 35.1888C9.84275 35.314 9.96788 35.3557 10.0096 35.4808C10.0513 35.606 10.1764 35.6894 10.093 35.7311C10.0096 35.7728 10.0513 35.6894 9.96788 35.7311C9.88446 35.7728 10.3433 37.0242 10.4267 36.9825C10.5101 36.9408 10.3016 36.5653 10.3016 36.3985C10.3016 36.2317 10.3433 36.1899 10.4684 36.1065C10.5936 36.0231 10.9273 36.6071 11.0524 36.5236C11.1775 36.4402 11.0107 36.3568 11.1358 36.3151C11.261 36.2734 11.6364 36.8573 11.7615 36.6905C11.8449 36.5653 11.9284 36.7739 11.9284 36.8156C12.0535 37.0242 12.2621 37.0242 12.3872 37.2745C12.5123 37.5247 12.8043 37.9836 13.0129 37.9836C13.2215 37.9836 13.0963 37.775 13.1797 37.775C13.2632 37.775 13.3466 38.067 13.4717 38.2338C13.5552 38.359 13.6803 38.4424 13.8471 38.4841C14.1391 38.8595 14.4728 39.2349 14.8065 39.6104L13.0963 41.3206C10.4684 38.651 8.96679 35.022 8.92507 31.1845ZM22.7319 27.7223L22.565 27.8057C22.3148 27.9309 22.1062 28.056 21.9393 28.2229L20.2291 26.5127C21.2302 25.6367 22.4816 25.0944 23.7747 25.0527V27.472C23.4827 27.5138 23.1907 27.5555 22.8987 27.6806C22.9822 27.5138 23.149 27.3469 23.149 27.3469C23.149 27.3469 22.857 27.5138 22.7319 27.7223ZM21.4388 31.685C21.4388 31.7267 21.4388 31.7684 21.4388 31.7684C21.4388 31.685 21.3971 31.6433 21.3554 31.5599C21.3137 31.5182 21.2719 31.4764 21.2302 31.4764C21.1885 31.4764 21.1468 31.4764 21.1051 31.4764H21.0217L20.9382 31.5181H20.3543C20.2708 31.5181 20.2291 31.5181 20.2291 31.4764C20.1874 31.3096 20.4377 31.4347 20.6045 30.9342C20.6463 30.8925 20.6463 30.809 20.688 30.7673L20.7297 30.6839L20.8131 30.6005C20.8965 30.5171 20.98 30.5171 21.0634 30.5171H21.1468L21.2302 30.6005L21.3554 30.8507C21.3971 30.8925 21.4388 30.8925 21.4388 30.9342C21.5222 30.9759 21.5639 31.0176 21.6056 31.0593L21.6474 31.101V31.1427C21.6891 31.1845 21.6891 31.1845 21.7308 31.1845H21.7725C21.8142 31.1845 21.8142 31.1845 21.8559 31.1845H21.8976C21.9811 31.1427 21.9811 31.1845 22.0228 31.1845V31.2262C22.0228 31.2679 22.0228 31.2679 21.9811 31.3096C21.9811 31.3513 21.9393 31.3513 21.9393 31.393C21.8976 31.4347 21.8559 31.4764 21.8142 31.4764C21.7308 31.4764 21.6474 31.4347 21.6056 31.4347C21.5639 31.4347 21.5222 31.4347 21.5222 31.4764V31.685M16.9339 35.6894C16.8087 35.4808 16.767 35.1888 16.767 34.9386C16.767 34.6883 16.6836 34.438 16.5584 34.2295C16.5167 34.0626 16.475 33.8958 16.475 33.7289C16.475 33.4369 16.2247 33.5203 16.2247 33.4369C16.2247 33.3535 16.4333 33.4369 16.4333 33.3535C16.4333 33.2701 16.183 32.9364 15.9745 32.8529C15.7659 32.7695 15.8493 32.6444 15.8493 32.5192C15.8493 32.3941 15.8493 32.269 15.7659 32.1855C15.7242 32.0187 15.7659 31.7267 15.9745 31.7267C16.0579 31.7267 16.183 31.8101 16.3082 31.7267C16.4333 31.6433 16.3499 31.393 16.3499 31.1845H17.5178C17.5178 31.3513 17.5595 31.5599 17.5595 31.7267C17.4761 31.7684 17.4344 31.8518 17.4761 31.8936C17.5178 31.9353 17.5595 31.977 17.6013 31.9353C17.8098 33.1449 18.3521 34.2712 19.1863 35.1888L17.4761 36.899C17.351 36.7739 17.2258 36.6071 17.1007 36.4402C17.1007 36.3985 17.1007 36.3568 17.1007 36.3151C17.1007 36.0231 16.8921 35.8562 16.8087 35.606M15.3071 32.7695C15.1819 32.269 15.1402 31.7267 15.0985 31.1845H16.0996C16.0162 31.3096 15.8076 31.4347 15.7659 31.5599C15.7242 31.685 15.4739 32.1021 15.6408 32.269C16.0162 32.6861 15.5573 32.8529 15.3071 32.7695ZM15.5156 38.943L15.3071 39.1515C15.2236 39.0681 15.0985 38.943 15.0151 38.8595C15.1819 38.7761 15.3488 38.8178 15.5156 38.943ZM18.1018 28.2229C18.0601 28.2229 18.0601 28.2646 18.0184 28.2646C17.8932 28.3897 17.5595 28.348 17.6013 28.4731C17.643 28.5983 18.5189 28.1812 18.5189 28.2646C18.5189 28.348 18.1435 28.4731 17.8932 28.5983C17.643 28.7234 17.5595 28.932 17.1424 28.932C16.9339 28.932 16.8504 29.0988 16.767 29.224C16.6419 29.3908 16.5584 29.5577 16.475 29.7245C16.475 29.9748 16.4333 30.2251 16.3082 30.4753H15.0985C15.1819 28.348 16.0162 26.3041 17.4761 24.719L19.1863 26.4292C18.7692 27.0132 18.3938 27.5972 18.1018 28.2229ZM19.6869 26.9715L21.1885 28.4731C21.1468 28.4731 21.1051 28.4731 21.0217 28.4731C20.8548 28.4731 20.8548 28.348 20.7297 28.348C20.4794 28.3897 20.4377 28.4731 20.396 28.4314C20.2291 28.2646 20.0206 28.1394 19.7703 28.0143C19.4783 27.9309 19.1863 27.9309 18.9361 28.056C18.8943 28.056 18.8943 28.0977 18.8526 28.0977C19.1446 27.7223 19.4366 27.3469 19.6869 26.9715ZM17.6013 30.0165C17.6013 30.1834 17.5595 30.3502 17.5595 30.5171H16.6836C16.6419 30.3919 16.6836 30.2668 16.767 30.1416C16.8504 29.9748 17.059 29.8914 17.2676 29.9331C17.351 29.9331 17.4761 29.9748 17.6013 30.0165ZM18.3521 31.977L18.4355 32.1021C18.5189 32.1855 18.6024 32.269 18.6858 32.2273C18.7692 32.1855 18.9778 32.2273 19.0195 32.2273C19.1446 32.269 19.228 32.3524 19.3115 32.4358C19.3949 32.561 19.5617 32.4775 19.6869 32.561C19.812 32.6444 19.9371 32.7278 19.7703 32.8112C19.6035 32.8947 19.9372 33.0615 19.9789 33.0615C20.0206 33.0615 20.0623 32.9781 20.0623 32.8529C20.0623 32.8112 20.1457 32.6444 20.2708 32.6861C20.396 32.7278 20.7714 33.1866 20.8965 33.0198C21.0217 32.8529 20.9382 32.6444 20.98 32.561C20.98 32.5192 21.0217 32.4775 21.0634 32.4775C21.1885 32.6861 21.2719 32.8529 21.4388 33.0198L19.7286 34.73C19.0195 33.9792 18.5189 33.0198 18.3521 31.977ZM19.6869 26.0121L18.0184 24.3019C19.6035 22.842 21.6474 22.0077 23.7747 21.9243V24.3436C22.273 24.3853 20.8548 24.9693 19.6869 26.0121ZM17.5178 23.8014L15.8076 22.0911C17.9767 20.0472 20.8131 18.8793 23.7747 18.7959V21.2152C21.4388 21.2986 19.1863 22.2163 17.5178 23.8014ZM17.0173 24.2602C15.4322 25.9704 14.5145 28.1812 14.4311 30.5171H12.0118C12.0952 27.5555 13.2632 24.719 15.3071 22.55L17.0173 24.2602ZM14.4311 31.1845C14.4311 31.6433 14.4728 32.0604 14.5562 32.5192C14.5145 32.5192 14.5145 32.3941 14.3894 32.4358C14.2643 32.4775 13.8054 33.2701 13.5969 33.6038C13.43 33.8958 13.6803 34.5214 13.43 34.73C13.1797 34.8134 12.9295 34.8551 12.6792 34.8551H12.6375C12.2204 33.6872 12.0118 32.4775 11.9701 31.2679L14.4311 31.1845ZM23.733 46.0341C19.9371 45.9506 16.3082 44.449 13.5969 41.8211L15.3071 40.1109C17.6013 42.2799 20.6045 43.5313 23.733 43.6147V46.0341ZM23.733 42.9473C20.7714 42.8639 17.935 41.696 15.7659 39.6521L16.0579 39.3601C16.0996 39.4018 16.183 39.4435 16.2665 39.4852C16.4333 39.5686 16.6419 39.6104 16.8504 39.5686C17.0173 39.5269 17.351 39.2349 17.5595 39.2349C17.7681 39.2349 18.1018 39.3184 18.3104 39.1932C18.5189 39.0681 18.1852 38.651 18.0601 38.4424C18.0184 38.4007 18.0184 38.359 17.9767 38.3173C19.6035 39.6938 21.6891 40.4863 23.8164 40.528L23.733 42.9473ZM23.733 39.8189C21.6056 39.7355 19.5617 38.9012 17.9767 37.4413L19.6869 35.7311C20.4794 36.4402 21.4388 36.9825 22.5233 37.2327C22.1479 37.3996 21.9811 37.6499 22.0228 37.8584C22.0645 38.067 21.7725 38.1921 21.7725 38.4424C21.7725 38.6927 22.1062 38.8595 22.1479 39.1098C22.1896 39.2349 22.4816 39.4435 22.7319 39.6104C23.0656 39.6938 23.3993 39.7355 23.6913 39.6938L23.733 39.8189ZM23.6496 36.4819C23.5244 36.3985 23.441 36.5653 23.2741 36.6488C22.1062 36.4819 21.0634 35.9814 20.1874 35.2306L21.8976 33.5203C22.4399 33.9375 23.0656 34.2295 23.733 34.2712C23.733 34.3546 23.8164 34.438 23.8164 34.6049C23.8164 34.7717 23.6913 34.8551 23.733 34.9386C23.7747 35.022 24.1501 34.9386 24.1918 34.8134C24.2335 34.6883 24.0667 34.6049 24.025 34.4797C23.9833 34.3963 23.9833 34.3546 23.9415 34.2712H24.0667C24.1918 34.2712 24.317 34.2712 24.4421 34.2295C24.4838 34.2295 24.5255 34.1877 24.5255 34.146C24.5255 34.1043 24.5672 34.0626 24.5672 34.0209C24.5672 33.9792 24.6089 33.9792 24.6089 33.9375L24.6507 33.9792C24.6924 34.0626 24.7758 34.3129 24.8592 34.2712C24.9426 34.2295 24.9844 33.854 24.9426 33.7706C24.8592 33.6455 24.8592 33.5203 24.9426 33.3952C24.9426 33.3535 24.9844 33.1032 25.0678 33.1449C25.1512 33.1866 25.0678 33.3952 25.0678 33.4786C25.0678 33.6038 25.1512 33.7706 25.2763 33.6872C25.3598 33.6455 25.4432 33.5203 25.5266 33.5621C25.61 33.6038 25.3181 33.6872 25.2763 33.7706C25.2346 33.854 25.4015 33.8958 25.3598 33.9375C25.3181 33.9792 25.2763 33.9375 25.2346 33.9792C25.1929 34.0209 25.3181 34.2712 25.2346 34.3129C25.1512 34.3546 24.8592 34.438 24.7758 34.4797C24.6924 34.5214 24.6089 34.438 24.6507 34.3963C24.6924 34.3546 24.6507 34.1877 24.5672 34.1877C24.4838 34.1877 24.4838 34.2295 24.4838 34.3129C24.4838 34.3963 24.5672 34.5214 24.5672 34.5632C24.5672 34.6049 24.4421 34.6466 24.3587 34.6883C24.2752 34.8134 24.1501 34.9386 24.025 35.022C23.8998 35.1054 23.6496 35.1054 23.6496 35.1888C23.6496 35.2723 23.7747 35.2723 23.8164 35.314C23.8998 35.4391 23.9415 35.606 23.7747 35.6894C23.6078 35.7728 23.3993 35.5643 23.3159 35.606C23.2324 35.6477 23.1907 35.8562 23.149 36.1065C23.1073 36.3568 23.6078 36.4402 23.8581 36.3151C24.025 36.2316 23.9833 35.9814 24.1501 35.898C24.317 35.8145 24.2752 35.6477 24.4421 35.6894C24.6089 35.7311 24.5672 35.5643 24.7341 35.5643C24.9009 35.5643 24.9009 35.6894 25.1095 35.7311C25.4432 35.8145 25.4432 36.0648 25.4849 35.9397C25.5266 35.8145 25.5683 35.7311 25.3181 35.6477C25.0678 35.5643 24.9426 35.2723 25.1512 35.3557C25.4015 35.4808 25.61 35.4808 25.6517 35.606C25.6935 35.7311 25.9437 35.6894 25.9854 35.8145C26.0272 36.0231 26.194 35.8145 26.0689 35.6894C25.9437 35.5643 25.9854 35.5225 26.0689 35.4391C26.1523 35.3557 26.194 35.4808 26.3191 35.314C26.4443 35.1471 26.2774 35.1888 26.2357 35.1054C26.194 35.022 26.2357 34.5632 26.4026 34.6466C26.5694 34.73 26.7363 34.6049 26.6528 34.5632C26.5694 34.5214 26.6946 34.2712 26.7363 34.2712C26.778 34.2712 26.7363 34.438 26.778 34.4797C26.8197 34.5214 27.2368 34.3546 27.2785 34.5632C27.3202 34.7717 26.9865 34.8969 26.9031 34.8969C26.7363 34.8969 26.6111 35.0637 26.486 35.2306C26.3609 35.3974 26.2357 35.4391 26.3191 35.606C26.4026 35.7728 26.5694 35.7311 26.7363 35.6477C26.9031 35.5643 27.0283 35.4391 27.1117 35.3974C27.2785 35.314 27.4037 35.8145 27.3202 35.898C27.2368 35.9814 27.07 36.0231 26.9865 36.1065C26.7363 36.2317 26.486 36.3568 26.194 36.3568C26.0272 36.3985 26.0272 36.4402 25.9854 36.6071C25.9437 36.7739 25.1929 36.6488 25.0261 36.6488C24.8592 36.6488 25.1512 36.2734 24.9009 36.3151C24.6507 36.3568 24.4004 36.3985 24.1501 36.4402C24.1084 36.4402 23.8581 36.6488 23.6496 36.4819ZM25.8603 40.3612C26.0689 40.4446 26.2774 40.6115 26.4026 40.7783C26.5277 40.9869 26.5694 41.0703 26.486 41.2789C26.2774 41.6543 26.3609 41.9045 26.778 42.0297C27.0283 42.1131 27.1117 42.3634 27.2785 42.5302C26.3609 42.7805 25.4015 42.9056 24.4421 42.9473V40.528C24.9009 40.4863 25.4015 40.4446 25.8603 40.3612ZM24.4421 39.8606V39.5686C24.9844 39.4852 24.8592 39.8189 25.2346 39.6938C25.3598 39.6521 25.4849 39.6938 25.5683 39.7772C25.1929 39.7772 24.8175 39.8189 24.4421 39.8606ZM24.4421 46.0758V43.6147C25.6935 43.573 26.9448 43.3645 28.1545 42.9473C28.1962 42.9891 28.2379 42.9891 28.2796 42.9891C28.4465 42.9891 28.6133 42.9056 28.7385 42.8222C29.1556 42.6554 29.531 42.4468 29.8647 42.1965C30.9492 41.6543 31.992 40.9034 32.868 40.0692L34.5782 41.7794C31.8669 44.449 28.2379 45.9506 24.4421 46.0758ZM31.1995 24.2602L31.7835 23.6762C31.9503 23.8431 32.1172 23.9682 32.3674 24.0099C32.576 24.0516 32.6594 24.1351 32.7011 24.3436C32.7429 24.5522 32.9514 24.6356 33.16 24.6773C33.3685 24.719 33.4937 24.9693 33.6605 24.9693C33.8274 24.9693 34.3696 25.7201 34.5782 25.9704C34.7033 26.0955 34.8702 26.3041 34.9953 26.1372C35.1205 25.9704 35.1205 26.0121 35.2039 25.9704C35.8296 27.3886 36.205 28.9737 36.2467 30.5171H33.8274C33.8274 29.9748 33.744 29.4325 33.6188 28.8903C33.7022 28.7234 33.744 28.5566 33.744 28.348C33.744 28.1812 33.5771 28.0977 33.452 28.2229C33.3685 27.8892 33.2434 27.5972 33.1183 27.3052C33.0766 27.1383 33.0348 26.9298 32.9931 26.7629C32.9931 26.7212 32.9097 26.6795 32.8263 26.5961C32.7429 26.4292 32.7011 26.3041 32.6177 26.179C32.7429 26.0955 32.7846 25.887 32.6177 25.9287C32.3674 25.9704 32.5343 25.8035 32.4509 25.7201C32.3674 25.6367 32.3674 25.7201 32.3257 25.7618C31.992 25.2613 31.6583 24.8025 31.2412 24.3436C31.2412 24.3436 31.2412 24.3436 31.2412 24.3019C31.1578 24.3019 31.1578 24.2602 31.1995 24.2602ZM32.6594 38.4007C32.576 38.2338 32.5343 38.0253 32.4509 37.8584C32.4092 37.6916 32.0755 37.6916 32.0755 37.775C32.0755 37.9419 32.0755 38.1087 32.0337 38.2756V38.3173L31.1578 37.4413C32.7429 35.7311 33.6605 33.5203 33.744 31.1845H36.1633C36.0799 34.146 34.9119 36.9825 32.868 39.1098L32.7429 38.9847C32.7846 38.8178 32.7429 38.6093 32.6594 38.4007ZM30.6572 40.0692C30.7824 39.8606 31.0326 39.4852 31.1578 39.2767C31.2829 39.0681 30.8241 38.7761 30.5738 38.6927C30.3235 38.6093 30.3235 38.4841 30.3235 38.2756C30.4487 38.1921 30.5738 38.067 30.699 37.9419L32.4092 39.6521C31.8252 40.1943 31.2412 40.6532 30.5738 41.0703C30.5321 40.9869 30.8241 40.6949 30.9075 40.5697C30.9909 40.4446 30.5738 40.2778 30.6572 40.0692ZM31.7001 30.0999C31.4915 29.8079 31.7835 29.7662 32.0755 29.6411C32.2423 29.5577 32.4509 29.6828 32.4509 29.5994C32.4509 29.516 32.5343 29.3491 32.6177 29.3074C32.7011 29.2657 32.8263 29.1823 32.868 29.0988C32.868 29.1823 32.9097 29.2657 32.9097 29.3491C32.8263 29.516 32.7846 29.6411 32.7846 29.8079C32.7846 29.9331 32.7846 30.0999 32.9097 29.8079C32.9097 29.7662 32.9514 29.7662 32.9514 29.7245C33.0348 30.0165 33.0348 30.2668 33.0348 30.5171H31.2412C31.2412 30.5171 31.2412 30.5171 31.2412 30.4753C31.3663 30.2668 31.8252 30.3085 31.7001 30.0999ZM32.0337 26.6795C32.0337 26.6795 32.0337 26.7212 31.992 26.7212C31.9503 26.7629 31.7418 26.4292 31.7418 26.6795C31.7418 26.9298 31.8252 27.0132 31.992 27.0549C32.1589 27.0966 32.0755 27.1801 32.2006 27.2218C32.2423 27.2218 32.3257 27.2635 32.3674 27.3052C32.576 27.764 32.7011 28.2229 32.8263 28.7234C32.7429 28.7651 32.7011 28.8068 32.6594 28.8486C32.576 28.932 32.6177 29.0988 32.5343 29.224C32.4092 29.4325 32.3674 29.5577 32.0337 29.4742C31.8252 29.3908 31.992 29.1405 32.0337 28.932C32.0755 28.7234 32.1589 28.7651 32.1589 28.64C32.1589 28.5149 31.7418 28.056 31.5332 28.2229C31.3246 28.3897 31.3663 28.5566 31.1995 28.7234C31.1161 28.8068 31.0327 28.8068 30.9075 28.7234C30.7824 28.64 30.7407 28.5566 30.7824 28.4731C30.8241 28.3897 30.4904 28.0143 30.3653 27.8475C30.1984 27.6389 29.9481 27.5138 29.6979 27.5138C29.4893 27.1383 29.1973 26.7629 28.9053 26.4292L30.6155 24.719C31.1995 25.3447 31.6583 25.9704 32.0337 26.6795ZM29.1556 27.8475L29.0722 27.9726C29.0305 28.056 28.8219 27.8892 28.7802 27.9309C28.7385 27.9726 29.0722 28.3897 28.7385 28.2646C28.4048 28.1394 28.6133 28.1394 28.6133 28.0143C28.6133 27.8892 28.3213 27.8057 28.4882 27.7223C28.655 27.6389 28.4882 27.5138 28.655 27.472C28.8219 27.4303 28.7802 27.2635 28.5716 27.2218C28.3631 27.1801 28.4048 27.6806 28.2796 27.5972C28.1545 27.5555 28.0294 27.5555 27.9042 27.5555L28.4882 26.9715C28.5716 27.0132 28.6133 27.0132 28.6968 27.0132C28.7802 27.3469 28.9887 27.5972 29.1556 27.8475ZM28.4882 36.3151C28.7385 36.3568 29.0305 36.3985 29.2807 36.4819C29.4476 36.5654 29.5727 36.7322 29.6979 36.5236C29.9481 36.1482 30.115 35.7311 30.1984 35.2723C30.2818 34.6466 30.1567 34.438 30.0733 34.438C29.9898 34.438 29.823 34.6049 29.6561 34.6049C29.5727 34.6049 29.5727 34.7717 29.5727 34.8969C29.5727 35.022 29.4059 35.1471 29.3642 35.0637C29.3224 34.9803 29.239 35.022 29.2807 35.1054C29.3224 35.1888 28.947 35.1471 28.7802 35.0637C28.5299 34.9386 29.0722 34.9386 29.3224 34.73C29.531 34.5632 29.7396 34.3546 29.9481 34.146C30.0733 33.9375 30.0733 33.6872 30.2818 33.5203C30.4904 33.3535 30.8241 33.3952 30.8658 33.1449C30.9075 32.8947 30.9492 32.9364 31.0744 32.9781C31.1995 33.0198 32.3674 32.9364 32.3674 32.561C32.3674 32.3941 32.1172 32.1855 31.8669 32.1438C31.7 32.1438 31.6583 31.8101 31.5749 31.6433C31.4915 31.4764 31.4081 31.3096 31.2829 31.1427H33.0348C32.9514 33.2701 32.1172 35.314 30.6572 36.899L30.6155 36.8573V36.6905C30.6572 36.3568 30.407 35.8145 30.3235 35.898C30.2401 35.9814 30.3235 35.9814 30.0733 36.3568C29.9898 36.4819 29.8647 36.6905 29.6979 36.6905C29.531 36.6905 29.531 36.6071 29.2807 36.6488C29.0722 36.6905 28.8219 36.6905 28.6133 36.6488C28.2379 36.5236 27.8625 36.3568 27.4871 36.1065C27.5288 36.0648 27.6539 36.1482 27.6539 36.0231C27.6539 35.898 28.3213 36.2734 28.4882 36.3151ZM35.037 41.3623L33.3268 39.6521C35.4959 37.3579 36.7472 34.3546 36.8307 31.2262H39.2917C39.2083 35.022 37.7066 38.6093 35.037 41.3623ZM39.2917 30.5171H36.8307C36.789 28.7234 36.3718 26.9715 35.5793 25.3447L35.621 25.303C35.7879 25.1361 34.8285 23.8848 34.6616 23.7596C34.4948 23.6345 34.3279 23.4259 34.1194 23.2174C33.7857 22.8837 33.452 22.5083 33.2017 22.1329L34.9953 20.3392C37.7066 23.0922 39.2083 26.7212 39.2917 30.5171ZM24.4421 15.6674C28.2379 15.7509 31.8669 17.2525 34.6199 19.8804L32.9514 21.5489C32.868 21.5072 32.7846 21.4655 32.8263 21.382C32.9097 21.2569 32.7011 21.2569 32.6594 20.9232C32.576 20.5895 32.3257 20.2975 32.0337 20.1307C31.8252 20.0055 31.7001 19.8387 31.4915 19.7552C31.2829 19.6718 30.8658 19.4215 30.6572 19.505C30.5321 19.5467 30.3653 19.5884 30.2401 19.5884C28.4465 18.629 26.486 18.1285 24.4838 18.0868L24.4421 15.6674ZM24.4421 18.7959C26.2357 18.8376 27.9459 19.2964 29.5727 20.0889C29.6144 20.3392 29.7396 20.6312 29.9064 20.8398C29.9898 21.0483 30.115 21.2152 30.2401 21.4237C30.3653 21.5489 30.2818 21.7992 30.3235 22.0077C30.3235 22.0911 30.407 22.1746 30.4487 22.258C30.4487 22.3831 30.4487 22.4666 30.4487 22.5917C30.4487 22.6334 30.6155 22.6334 30.7407 22.55C30.8658 22.4666 30.9492 22.2997 31.1161 22.3414C31.2829 22.3831 31.4915 22.7168 31.6166 22.9254L30.8241 23.7179C30.7407 23.5511 30.6572 23.3425 30.699 23.3425C30.7407 23.3425 30.8241 23.3842 30.8658 23.3842C31.0327 23.3842 30.7407 23.2591 30.7407 23.2174C30.6155 23.0922 30.6155 22.9254 30.4487 22.8003C30.2818 22.6751 30.0316 22.7585 29.9481 22.5917C29.7813 22.2997 29.5727 22.0494 29.2807 21.8409C29.239 21.8409 29.6144 22.2997 29.4893 22.3831C29.3642 22.4666 28.9053 22.0911 28.8636 22.1746C28.8219 22.258 29.3642 22.4666 29.531 22.6334C29.6144 22.7168 29.7813 22.9671 29.9481 23.1757C28.3631 21.966 26.4443 21.2986 24.4421 21.2152V18.7959ZM24.4421 21.8826C26.5694 21.966 28.6133 22.8003 30.1984 24.2602L28.4882 25.9704C27.362 24.9693 25.9437 24.3853 24.4421 24.3019V21.8826ZM24.4421 25.011C25.7769 25.0944 27.0283 25.595 27.9876 26.4709L27.9042 26.5544L27.8208 26.5127C27.6122 26.4292 27.1951 26.8464 27.2785 26.8881C27.362 26.9298 27.5288 26.7212 27.6122 26.7629H27.6539L26.9448 27.5138C26.7363 27.5972 26.5277 27.764 26.5277 27.8892C26.5277 27.8892 26.5277 27.8892 26.5277 27.9309L26.2774 28.1812L26.1523 28.056C25.9437 27.8892 25.7352 27.764 25.4849 27.6806C25.61 27.5972 25.6518 27.472 25.6935 27.3052C25.6935 27.0549 25.61 27.1383 25.4849 27.2635C25.3598 27.3886 25.2346 27.4303 25.1512 27.5555C24.9426 27.472 24.6924 27.4303 24.4838 27.4303V25.011H24.4421ZM24.1501 28.0977C24.1918 28.1812 24.1501 28.2646 24.1084 28.3063C24.025 28.3897 23.7747 28.0977 23.733 28.348C23.6496 28.5983 23.8998 28.4731 23.8998 28.5149C24.025 28.6817 24.1918 28.7651 24.4004 28.8068C24.5672 28.8068 24.8175 28.8068 24.8175 28.9737C24.8175 29.0571 25.0261 29.0571 25.0678 29.1405C25.0678 29.2657 25.1929 29.4742 25.2763 29.4325C25.3598 29.3908 25.4849 29.4742 25.5266 29.5577C25.5683 29.6411 25.5266 29.6828 25.4849 29.7662C25.3598 29.8914 25.61 29.8497 25.6517 30.0999C25.6935 30.3502 25.4432 30.1834 25.4015 30.3502C25.3181 30.4753 25.2346 30.5588 25.1512 30.6839C25.1095 30.7256 25.1929 30.809 25.2346 30.7673C25.2763 30.7256 25.3598 30.6005 25.4849 30.6005C25.61 30.6005 25.7352 31.0593 25.8603 31.101C25.9854 31.1427 25.9437 31.3096 25.9854 31.3513C26.0272 31.393 25.7769 31.3513 25.8186 31.4347C25.8603 31.5182 26.1106 31.5599 26.1106 31.685C26.0689 31.8101 25.9854 31.9353 25.8186 31.9353C25.6935 31.9353 25.4849 31.6433 25.4849 31.7267C25.4849 31.8101 25.5683 32.0604 25.6935 32.0604C25.8186 32.0604 26.1106 31.9353 25.9854 32.1021C25.8603 32.269 25.902 32.5192 25.8186 32.5192C25.7352 32.5192 25.6935 32.5192 25.7769 32.6444C25.8186 32.7695 25.7769 32.8947 25.6935 33.0198C25.61 33.1032 25.4015 33.0198 25.4015 32.9781C25.4015 32.9364 25.6517 32.9364 25.6517 32.8112C25.6517 32.6861 25.5266 32.6444 25.2763 32.7278C25.1512 32.7695 25.1095 32.6861 25.0261 32.6861C24.9426 32.6861 24.6924 32.9781 24.6924 33.0198C24.6924 33.0615 24.6924 33.1449 24.6924 33.2284C24.6924 33.3952 24.6507 33.5203 24.5672 33.6455C24.4004 33.6872 24.2752 33.6872 24.1084 33.6872C23.441 33.6872 22.7736 33.3952 22.273 32.9781C22.3565 32.9364 22.4816 32.8947 22.6067 32.8947C22.7319 32.9364 22.7736 32.8529 22.857 32.8112C22.9404 32.7695 23.149 32.8947 23.2741 32.8112C23.3993 32.7278 23.6913 32.1855 23.6496 32.0604C23.6078 31.9353 23.9415 31.7267 23.8998 31.685C23.8581 31.6433 23.8164 31.7267 23.8164 31.685C23.8164 31.6433 23.8998 31.6433 23.8164 31.4764C23.733 31.3096 23.6078 31.393 23.5244 31.393C23.3993 31.3096 23.1907 31.2679 23.149 31.3096C23.1073 31.3513 22.9822 31.2262 22.9404 31.2679C22.8987 31.2679 22.8153 31.3096 22.8153 31.393C22.7736 31.4764 22.857 31.5599 22.857 31.6433C22.8153 31.8101 22.565 31.9353 22.565 32.0604C22.565 32.1855 22.4399 32.1021 22.3982 32.1438C22.3565 32.1855 22.3982 32.269 22.3148 32.269C22.2313 32.269 22.1062 32.4775 22.0228 32.6444C21.8976 32.4775 21.7725 32.269 21.6474 32.1021C21.7308 32.0604 21.8142 32.0187 21.8559 32.0604C21.9811 32.1438 22.4816 31.2679 22.3982 31.0176C22.3148 30.7673 22.1896 30.9342 22.0645 30.9759C21.9393 31.0176 21.9393 30.8925 21.9811 30.8507C22.0228 30.809 22.565 30.809 22.273 30.6422C22.1479 30.5588 21.8142 30.5588 21.8559 30.4336C21.8976 30.3085 22.0645 30.4336 22.1062 30.4336C22.3148 30.5171 22.4399 30.0999 22.565 30.0999C22.7736 30.0999 22.6902 29.6828 22.4816 29.8079C22.273 29.9331 22.1896 29.8914 22.1062 30.0165C22.0228 30.1416 21.8142 30.3085 21.8142 30.1416C21.8142 30.0582 22.273 29.8079 22.3565 29.6828C22.4399 29.5994 22.5233 29.4742 22.565 29.3491C22.6067 29.224 23.1907 29.1405 23.3159 29.0571C23.3993 28.9737 23.4827 28.8486 23.4827 28.7234C23.4827 28.5983 23.3159 28.64 23.2741 28.5566C23.2324 28.4731 23.4827 28.5566 23.4827 28.4314C23.4827 28.3063 23.2741 28.4314 23.1907 28.348C23.1907 28.3063 23.1907 28.3063 23.2324 28.2646C23.6078 28.1394 23.8581 28.0977 24.1501 28.0977H24.2335H24.1501ZM23.7747 15.6674V18.0868C20.6463 18.1702 17.643 19.4215 15.3488 21.5906L13.6386 19.8804C16.3499 17.2525 19.9789 15.7509 23.7747 15.6674ZM13.0963 20.3809L14.8065 22.0911C12.6375 24.3853 11.3861 27.3886 11.3027 30.5171H8.88336C9.0085 26.7212 10.5101 23.0922 13.0963 20.3809Z" fill="#009EDB"/>
</g>
<defs>
<clipPath id="clip0_6721_4518">
<rect width="124.428" height="38" fill="white" transform="translate(1.3335 15)"/>
</clipPath>
</defs>
</svg>
