<svg width="195" height="70" viewBox="0 0 195 70" fill="none" xmlns="http://www.w3.org/2000/svg">
<g clip-path="url(#clip0_6721_3411)">
<path fill-rule="evenodd" clip-rule="evenodd" d="M45.354 21H28.6071C30.0101 20.9993 31.3068 21.7476 32.0083 22.9627C32.7097 24.1778 32.7093 25.6749 32.0071 26.8896L25.3091 38.4892L30.2825 47.1007C30.9835 48.3158 32.2797 49.0645 33.6825 49.0645C35.0854 49.0645 36.3816 48.3158 37.0825 47.1007L48.753 26.8896C49.4551 25.675 49.4557 24.1781 48.7544 22.9631C48.0532 21.7481 46.7568 20.9997 45.354 21Z" fill="#FF0050"/>
<path fill-rule="evenodd" clip-rule="evenodd" d="M22.0103 21H5.26439C3.86153 20.9997 2.56515 21.7481 1.86392 22.9631C1.16269 24.1781 1.16323 25.675 1.86534 26.8896L13.5368 47.1007C14.2377 48.3158 15.5339 49.0645 16.9368 49.0645C18.3396 49.0645 19.6358 48.3158 20.3368 47.1007L25.3112 38.4864L18.6113 26.8896C17.9092 25.675 17.9086 24.1781 18.6099 22.9631C19.3111 21.7481 20.6075 20.9997 22.0103 21Z" fill="#003FFF"/>
<path fill-rule="evenodd" clip-rule="evenodd" d="M28.6083 21H22.0095C20.6064 20.9993 19.3098 21.7476 18.6083 22.9627C17.9068 24.1778 17.9073 25.6749 18.6095 26.8896L25.3084 38.4911L32.0083 26.8896C32.7105 25.6749 32.7109 24.1778 32.0095 22.9627C31.308 21.7476 30.0113 20.9993 28.6083 21Z" fill="#1B0260"/>
<path fill-rule="evenodd" clip-rule="evenodd" d="M61.3999 24.5142H65.9143L70.1492 40.2373L74.8195 24.5142H79.0846L83.7549 40.1749L87.9265 24.5142H92.3172L85.9035 47.2432H81.6384L76.9388 31.3633L72.2667 47.2432H67.8448L61.3999 24.5142Z" fill="#1B0260"/>
<path fill-rule="evenodd" clip-rule="evenodd" d="M98.2021 46.5575L92.0065 31.6749H96.4898L100.32 41.2648L103.9 31.6749H108.321L99.292 54.436H95.0268L98.2021 46.5575Z" fill="#1B0260"/>
<path fill-rule="evenodd" clip-rule="evenodd" d="M109.616 43.4437L117.804 35.4423H109.739V31.6749H123.528V35.5047L115.34 43.4748H123.688V47.2432H109.616V43.4437Z" fill="#1B0260"/>
<path fill-rule="evenodd" clip-rule="evenodd" d="M133.227 47.5539C132.08 47.5689 130.941 47.3521 129.88 46.9164C127.934 46.1223 126.394 44.5716 125.615 42.6201C125.206 41.6169 125 40.543 125.007 39.46C125 38.3739 125.218 37.298 125.646 36.2999C126.463 34.3622 128.004 32.8205 129.942 32.0036C130.94 31.5754 132.016 31.3581 133.102 31.3652C134.217 31.3525 135.324 31.5645 136.356 31.9885C137.312 32.3838 138.175 32.9722 138.893 33.7168C139.603 34.4598 140.163 35.3319 140.543 36.2857C140.942 37.2859 141.143 38.354 141.135 39.4307V40.9872H129.118C129.339 41.819 129.839 42.5498 130.534 43.0574C131.336 43.5985 132.291 43.8665 133.258 43.8214C134.074 43.8372 134.876 43.6093 135.562 43.1669C136.227 42.73 136.756 42.1147 137.088 41.3914L140.481 43.4153C139.818 44.6397 138.847 45.6699 137.664 46.4045C136.325 47.2047 134.785 47.6037 133.227 47.5539ZM133.132 35.0995C132.296 35.0771 131.474 35.3168 130.782 35.7852C130.137 36.2313 129.625 36.8448 129.303 37.5598H136.836C136.59 36.8107 136.103 36.1645 135.45 35.7228C134.756 35.2911 133.951 35.0743 133.134 35.0995H133.132Z" fill="#1B0260"/>
<path fill-rule="evenodd" clip-rule="evenodd" d="M143.242 24.5142H151.056C152.178 24.502 153.291 24.7189 154.326 25.1517C155.29 25.556 156.168 26.1429 156.91 26.88C157.645 27.62 158.228 28.4982 158.623 29.464C159.453 31.4998 159.453 33.7796 158.623 35.8154C158.228 36.7812 157.645 37.6593 156.91 38.3994C156.164 39.1395 155.281 39.7266 154.31 40.1277C153.269 40.5601 152.152 40.7773 151.025 40.7662H147.569V47.2432H143.242V24.5142ZM147.569 28.5299V36.7466H150.745C151.328 36.7548 151.907 36.6436 152.445 36.4198C152.936 36.2136 153.38 35.9118 153.752 35.5321C154.117 35.1565 154.402 34.7121 154.593 34.2249C154.988 33.203 154.988 32.0707 154.593 31.0488C154.402 30.5615 154.117 30.1172 153.752 29.7417C153.38 29.3617 152.936 29.0599 152.445 28.8539C151.907 28.6301 151.328 28.5189 150.745 28.5271L147.569 28.5299Z" fill="#1B0260"/>
<path fill-rule="evenodd" clip-rule="evenodd" d="M166.905 47.5539C166.025 47.5445 165.155 47.3759 164.336 47.0562C162.442 46.3411 160.916 44.8936 160.102 43.0404C159.613 41.9115 159.374 40.69 159.402 39.46C159.374 38.2315 159.607 37.0111 160.087 35.8796C160.501 34.9227 161.105 34.0595 161.861 33.3419C162.565 32.6815 163.397 32.1729 164.306 31.8478C165.159 31.5348 166.059 31.3712 166.968 31.3642C167.892 31.3461 168.809 31.5211 169.661 31.878C170.39 32.1863 171.052 32.6356 171.607 33.2002V31.6749H175.872V47.2422H171.609V45.4988C171.06 46.1237 170.386 46.6273 169.631 46.9778C168.778 47.3737 167.845 47.5706 166.905 47.5539ZM167.745 43.6316C168.298 43.6382 168.845 43.5268 169.351 43.3048C169.829 43.094 170.258 42.7866 170.612 42.4019C170.968 42.0116 171.248 41.5576 171.437 41.0637C171.831 40.0093 171.831 38.8483 171.437 37.794C171.25 37.3039 170.97 36.8548 170.612 36.4718C169.868 35.6865 168.83 35.2467 167.748 35.2582C167.178 35.2522 166.612 35.3577 166.082 35.5689C165.08 35.9683 164.286 36.7624 163.886 37.7647C163.471 38.8362 163.471 40.0242 163.886 41.0958C164.085 41.5906 164.382 42.0403 164.758 42.418C165.551 43.2069 166.628 43.6445 167.747 43.6325L167.745 43.6316Z" fill="#1B0260"/>
<path fill-rule="evenodd" clip-rule="evenodd" d="M183.147 46.5575L176.952 31.6749H181.435L185.265 41.2648L188.845 31.6749H193.266L184.237 54.436H179.972L183.147 46.5575Z" fill="#1B0260"/>
</g>
<defs>
<clipPath id="clip0_6721_3411">
<rect width="192.667" height="34" fill="white" transform="translate(1.3335 21)"/>
</clipPath>
</defs>
</svg>
