<svg width="71" height="70" viewBox="0 0 71 70" fill="none" xmlns="http://www.w3.org/2000/svg">
<path fill-rule="evenodd" clip-rule="evenodd" d="M35.3751 67C32.9401 67 31.6885 65.3877 31.6885 65.3877C29.6873 65.2993 14.0469 65.3435 14.0469 65.3435L12.5242 52.2937C12.5242 52.2937 2.89094 45.3994 2.10784 44.6043C-2.51622 23.3052 14.1976 3 35.3758 3C56.5539 3 73.2677 23.3052 68.6437 44.6043C67.8606 45.3994 58.2273 52.2937 58.2273 52.2937L56.7046 65.3435C56.7046 65.3435 41.0643 65.2993 39.063 65.3877C39.063 65.3877 37.8114 67 35.3751 67Z" fill="#ED1C24"/>
<path fill-rule="evenodd" clip-rule="evenodd" d="M35.3981 47.1545L33.9203 9.485C32.138 9.11569 27.5914 9.55886 25.1544 11.4054L32.2471 47.3022L22.5719 12.8826C20.2525 12.8538 15.5722 16.8356 15.2245 18.016L29.3373 48.5579L13.4786 20.6381C11.9145 21.229 8.49547 27.6181 9.04107 28.3604L26.7184 50.3306L8.53184 31.5697C8.53184 31.5697 6.16759 35.2258 7.70939 41.4187L17.982 48.9509L19.2681 59.2414L31.8627 59.2414C31.8627 59.2414 33.9232 61.2245 35.3852 61.2245C36.8472 61.2245 38.9078 59.2414 38.9078 59.2414L51.5024 59.2414L52.7884 48.9509L63.061 41.4187C64.6028 35.2258 62.2386 31.5697 62.2386 31.5697L44.052 50.3306L61.7294 28.3604C62.275 27.6181 58.8559 21.229 57.2919 20.6381L41.4332 48.5579L55.5459 18.016C55.1983 16.8356 50.518 12.8538 48.1986 12.8826L38.5233 47.3022L45.6161 11.4054C43.1791 9.55886 38.6324 9.11569 36.8502 9.485L35.3981 47.1545Z" fill="#FFD500"/>
</svg>
