<svg width="165" height="70" viewBox="0 0 165 70" fill="none" xmlns="http://www.w3.org/2000/svg">
<path d="M54.2387 43.8658H47.9193C48.7371 43.118 48.9615 40.428 49.2582 35.5703L49.3306 34.4501L49.6273 28.0983C49.6273 26.8282 49.4782 26.0062 49.1062 25.7065H56.1696C57.8775 25.7065 61.2254 25.7793 61.2254 29.2942C61.2254 31.6859 59.0543 33.1058 57.0612 33.6296C59.8865 33.8536 61.9824 35.2735 61.9824 38.1876C62.0548 41.3256 59.0832 43.8672 54.2503 43.8672M54.0274 35.0509H52.7638L52.5409 37.7424L52.3919 41.1059C52.3919 41.2558 52.9129 41.6297 54.0998 41.6297C56.6284 41.6297 58.264 40.3596 58.264 38.2661C58.3364 35.95 56.3303 35.0655 54.026 35.0655M54.547 27.8931C54.1751 27.8931 53.7293 27.8931 53.2835 27.9659C53.0606 29.236 52.9867 30.4318 52.9115 31.8503L52.8391 32.8978H53.2849C55.5892 32.8978 57.6706 32.0758 57.6706 29.9837C57.7429 28.7879 56.7037 27.8917 54.5485 27.8917M76.8386 44.0331C75.2754 44.0331 75.1307 43.9603 73.9395 39.6977L73.4937 38.1264C72.7497 38.5003 71.4123 38.6502 69.3295 38.6502H67.1583L66.7864 39.4722C66.4144 40.2942 65.5228 42.0138 65.5228 43.0598C65.5165 43.3357 65.5413 43.6114 65.5966 43.8818H61.2833C62.4731 42.6859 64.1086 39.7719 66.2653 35.1528L67.5289 32.4613L69.9084 26.8559C69.9084 26.482 69.836 26.1837 69.6855 25.8084H73.6254L75.5591 32.9807L76.3031 35.8205C77.6419 40.6797 78.5321 42.9929 79.5742 43.892L76.8242 44.0418M71.1735 29.9925L68.199 36.3443H72.9581L71.1735 29.9925ZM93.9268 44.6397C92.5879 44.6397 92.2912 44.4157 91.8454 43.8178L86.7158 36.7909C86.3438 36.209 85.9718 35.8191 85.3769 35.8191H85.3045L85.2322 37.239L85.0093 41.7228C85.0093 42.9187 85.1583 43.6665 85.5303 43.9632H80.6091C81.3531 43.3813 81.576 41.2718 82.0218 35.6678L82.0942 34.5476L82.3909 28.1958C82.3909 26.9257 82.2418 26.1037 81.8698 25.804H88.4874C90.7164 25.804 93.617 26.1779 93.617 29.6884C93.617 32.6024 91.6833 34.1722 89.3037 34.92C89.6193 35.2529 89.917 35.6026 90.1953 35.9675L93.8385 40.8266C96.1428 43.8905 96.2918 44.0273 97.1096 44.4142C96.0544 44.5604 94.9905 44.6352 93.9253 44.6383M87.383 27.9732C86.9372 27.9732 86.4161 27.9732 85.9703 28.0459C85.8213 28.7937 85.7474 30.138 85.5984 32.3057L85.526 33.5757C85.7489 33.6485 86.1049 33.6485 86.3438 33.6485C88.5728 33.6485 90.136 32.2286 90.136 30.2107C90.0636 28.7908 89.0939 27.9703 87.3859 27.9703M103.533 44.2397C98.8494 44.2397 96.1731 40.3553 96.1731 36.0926C96.1731 30.1278 99.4443 25.4054 105.616 25.4054C107.55 25.4054 108.441 25.7793 110.077 25.7793L109.631 30.4129C108.74 28.769 107.252 27.7215 105.318 27.7215C101.453 27.7215 99.8901 31.907 99.8901 35.4932C99.8901 39.3776 102.119 41.5453 104.946 41.5453C106.509 41.5453 107.92 41.1714 110.225 39.5275C109.258 42.3673 107.103 44.2353 103.533 44.2353M135.355 44.0113C133.791 44.0113 133.719 43.9385 132.455 39.6758L132.01 38.1046C131.266 38.4785 129.928 38.6284 127.845 38.6284H125.616L125.244 39.4503C124.665 40.6462 123.981 42.0661 123.981 43.038C123.981 43.262 124.053 43.5617 124.053 43.86H111.265C112.009 43.038 112.232 40.348 112.604 35.5645L112.677 34.4443L112.973 28.0925C112.973 26.8966 112.824 26.0746 112.527 25.7007H117.509C116.765 26.2245 116.543 29.1385 116.246 33.9962L116.173 35.1164L115.801 40.4964C115.801 41.3184 116.098 41.5439 116.991 41.5439C120.04 41.5439 120.708 41.4711 122.121 40.572C123.012 39.0008 123.906 37.0601 124.871 35.0437L126.135 32.3522L128.514 26.7467C128.514 26.3728 128.442 26.0746 128.291 25.6993H132.217L134.15 32.8716L134.894 35.7114C136.233 40.5706 137.065 42.8838 138.241 43.7828C137.279 43.9102 136.311 43.985 135.342 44.0069M129.691 29.9576L126.792 36.3094H131.476L129.691 29.9576ZM146.643 34.0675L145.379 36.4592C145.083 37.8049 145.007 39.5973 145.007 41.5409C145.007 42.3629 145.156 43.4846 145.528 43.857H140.607C141.499 43.0351 141.797 38.0275 141.797 36.3836C141.128 34.1431 140.234 31.8998 138.898 29.2112C138.006 27.5673 137.039 26.0106 136.369 25.6993L139.554 25.5494C140.743 25.5494 141.117 25.6993 141.858 27.3432L144.386 33.471L147.571 28.315C147.794 27.867 148.092 27.2676 148.092 26.7438C148.092 26.3699 148.019 25.8477 147.869 25.6963H152.703C151.661 25.9204 147.498 32.5719 146.607 34.066M162.962 29.9561C162.219 28.6104 160.583 27.5644 158.798 27.5644C157.235 27.5644 155.899 28.1463 155.899 29.8048C155.899 31.2247 157.607 32.1209 159.393 33.3168C161.327 34.5126 163.333 36.0082 163.333 38.6225C163.333 41.9861 160.062 44.1509 156.197 44.1509C154.634 44.1509 153.013 43.8527 151.142 43.1791L151.438 38.6953C152.33 40.4891 153.967 41.8959 156.42 41.8959C158.279 41.8959 159.767 40.9998 159.767 39.3543C159.767 38.0086 158.652 37.1139 157.238 36.2905C154.264 34.4966 152.404 33.0898 152.404 30.4609C152.404 26.5765 155.588 25.305 159.021 25.305C160.955 25.305 162.206 25.6789 163.407 25.6789L162.962 29.9561Z" fill="#00AEEF"/>
<path d="M40.7664 22.42C40.3698 21.489 39.7098 20.4269 38.52 19.6311C37.9917 19.2325 37.3302 18.8339 36.6702 18.5691C36.1419 18.4236 35.6136 18.3029 34.9521 18.3029H34.8074C34.0142 18.3029 32.561 18.4484 31.7678 19.6311C31.3712 20.0298 31.2395 20.827 31.3712 21.4904C31.516 22.0214 31.8995 22.5524 32.4278 22.6863C32.539 22.7785 32.6805 22.8257 32.8244 22.8187C32.8244 22.9642 32.6797 23.2173 32.6797 23.2173C32.2831 23.6159 31.6231 24.2793 29.6401 24.2793H29.4954C28.4388 24.1338 27.6456 23.8807 26.4558 22.6848C25.7944 21.8876 25.3992 20.4269 25.3992 18.169C25.3992 16.9732 25.2545 16.045 25.0026 15.2594C24.8579 14.7283 24.3412 14.1973 23.946 13.9311C23.5509 13.6649 23.2846 13.5325 22.6245 13.2662L20.3782 13C19.585 13 19.0567 13.1455 18.7918 13.531H17.9986C17.602 13.531 17.0723 13.6765 16.6771 13.6765C15.8839 13.822 15.3556 14.2075 14.8273 14.6076C14.6826 14.7531 14.1659 15.2724 14.0341 15.8035C14.0341 16.2021 14.1789 16.6007 14.1789 16.7346L14.3236 16.88C14.5885 16.6138 15.1168 16.4814 15.7768 16.4814C16.7032 16.4814 18.0232 16.88 18.2881 17.5434C18.9496 18.6055 18.6847 19.4027 18.6847 20.3324C18.2881 22.8565 17.3632 24.0524 15.3802 24.3186C14.9837 24.4641 14.5871 24.4641 14.3236 24.4641C12.8704 24.4641 11.8124 24.0655 11.2841 23.1358V22.8696C11.2841 22.8696 11.4288 22.8696 11.5489 22.7241C12.0772 22.4579 12.4753 22.0593 12.6056 21.5282C12.7503 20.8634 12.6056 20.2 12.209 19.669C11.4158 18.8717 10.3592 18.3407 9.1694 18.3407C8.37622 18.3407 7.84791 18.4862 7.31961 18.6069C5.73324 19.0056 4.28004 20.3338 3.22343 22.4593C2.43025 24.0538 1.90195 25.9131 1.77023 28.0386C1.63852 30.1641 1.62549 31.891 1.77023 33.4841C1.91497 36.1406 2.4317 37.7351 3.09172 39.4489C3.75174 41.1627 4.53913 42.7703 5.46547 44.2353C5.73035 44.6339 5.86206 45.0325 6.12694 45.2973L6.27168 45.1518C6.41642 45.0064 6.53656 44.8856 6.66827 44.6208C7.19658 44.2222 8.12147 42.8939 8.38635 42.4968C8.65123 42.0996 9.04782 41.4347 9.31269 40.7699L9.45743 40.5036L9.72231 40.6491C9.98719 40.9154 10.1189 41.314 10.1189 41.7112C10.1189 42.1083 9.97416 42.5084 9.72231 43.3057C9.45743 44.2367 8.92913 45.2988 8.40082 46.3608C8.54556 46.5063 8.54556 46.7594 8.40082 46.7594C8.00423 47.4243 8.00423 47.6905 8.00423 47.9553H8.14897C8.29372 47.9553 8.81044 47.8098 9.20558 47.4243C9.60217 47.158 10.6588 46.2284 11.9803 44.3691C13.0369 43.0409 13.6983 41.5802 14.4915 39.9857L14.6363 39.7195L14.9011 39.865C15.0459 40.0104 15.166 40.0105 15.2977 40.1312C15.4425 40.3974 15.4425 40.7961 15.4425 41.1932C15.2977 42.2553 14.6493 43.7174 14.2527 44.7794C13.4595 46.6387 12.0063 48.6318 10.9483 50.0925C10.9189 50.186 10.8675 50.2711 10.7984 50.3405C10.7294 50.4099 10.6448 50.4615 10.5517 50.4911C10.6964 50.6366 10.8166 50.7573 11.08 50.8897L11.4766 51.2883C12.8675 52.4569 14.3728 53.4805 15.9693 54.3435C17.2908 55.1407 19.9352 56.4675 21.7836 57C23.6334 56.6014 26.2764 55.1407 27.5978 54.3435C29.1944 53.4805 30.6997 52.4569 32.0906 51.2883L32.4872 50.8897C32.7521 50.7442 32.8838 50.4911 33.0155 50.4911C33.1602 50.2248 33.1602 50.0924 33.1602 49.9601L33.0155 49.8146C31.9589 48.4863 30.5042 46.3608 29.7111 44.5015C29.3145 43.4395 28.6544 41.9774 28.5213 40.9154C28.3765 40.5167 28.5213 40.1181 28.666 39.8533L28.9309 39.5871C29.0756 39.4416 29.3275 39.4416 29.3275 39.4416L29.4722 39.7078C30.2654 41.3023 31.0586 42.763 31.9835 44.0913C33.305 45.9505 34.3616 46.8802 34.7582 47.1464C35.1548 47.545 35.5514 47.6774 35.8148 47.6774H35.9595C36.1043 47.5319 35.9595 47.2788 35.5629 46.6154C35.4182 46.4699 35.4182 46.3492 35.4182 46.2168C34.8899 45.1547 34.3616 44.0927 34.0967 43.1616C33.8318 42.3644 33.7001 41.8334 33.7001 41.5671C33.7001 41.1685 33.8449 40.7699 34.0967 40.5051L34.3616 40.3596L34.5063 40.6258C34.7712 41.2907 35.2995 42.0865 35.5629 42.4851C35.8264 42.8838 36.8844 44.0796 37.1493 44.4782C37.4142 44.7445 37.5459 44.8769 37.5459 45.0093L37.6906 45.1547C37.8354 45.0093 37.9555 44.7561 38.2189 44.2237L38.3637 44.0782C39.1569 42.7499 39.95 41.023 40.6101 39.2961C41.2715 37.7016 41.6667 35.9747 41.9316 33.3313C42.0763 31.7368 42.1964 30.0099 41.9316 27.8859C42.0763 25.8927 41.535 23.8996 40.8749 22.4404L40.7664 22.42Z" fill="#00AEEF"/>
</svg>
