<svg width="116" height="58" viewBox="0 0 116 58" fill="none" xmlns="http://www.w3.org/2000/svg">
<path fill-rule="evenodd" clip-rule="evenodd" d="M53.4191 7.54004H16.82V47.7911H53.4191V7.54004ZM40.0048 39.1161H26.2839V11.5151H22.6994V42.2429H40.0048V39.1161ZM37.3686 26.7543C41.9749 26.7543 44.6806 24.5411 44.6806 20.6705V20.6725C44.6806 16.8326 42.1118 14.6316 37.5055 14.6316H33.2895V11.5151H37.8406C44.3741 11.5151 48.2385 14.9381 48.2385 20.6725C48.2385 25.5711 45.0934 29.127 39.8945 29.5827L50.2924 42.2531H45.9272L33.2813 26.7543H37.3686Z" fill="white"/>
<path d="M65.1576 34.7978V35.5417H60.7741V26.7521H61.6303V34.7978H65.1576Z" fill="white"/>
<path d="M66.8722 26.7521V35.5417H66.0916V26.7521H66.8722Z" fill="white"/>
<path d="M71.0759 29.7664C69.7292 29.7664 68.9996 30.9374 68.9996 32.3986C68.9996 33.8598 69.7292 35.0307 71.0759 35.0307C72.4227 35.0307 73.1666 33.8475 73.1666 32.3986C73.1666 30.9496 72.437 29.7664 71.0759 29.7664ZM71.0759 35.6929C69.0487 35.6929 68.1434 34.107 68.1434 32.3945C68.1434 30.6819 69.0487 29.0961 71.0759 29.0961C73.1032 29.0961 74.0228 30.6697 74.0228 32.3945C74.0228 34.1193 73.1155 35.6929 71.0759 35.6929Z" fill="white"/>
<path d="M78.903 29.2473H79.7204L77.2027 36.4858C77.0587 36.9656 76.8188 37.4113 76.4976 37.7958C76.3723 37.9294 76.2201 38.0349 76.051 38.1053C75.8819 38.1758 75.6998 38.2096 75.5167 38.2045C75.2682 38.2093 75.0207 38.1713 74.7851 38.0921V37.4299C74.9804 37.5065 75.1884 37.5454 75.3982 37.5444C76.0521 37.5444 76.2933 36.9906 76.5324 36.1711L76.6959 35.6173L74.4479 29.2473H75.3042L77.0637 34.4974H77.076L78.903 29.2473Z" fill="white"/>
<path d="M82.9596 29.7664C81.4739 29.7664 81.0958 31.1765 81.0958 32.3986C81.0958 33.6207 81.4739 35.0307 82.9596 35.0307C84.3451 35.0307 84.8233 33.545 84.8233 32.3986C84.8233 31.2521 84.3451 29.7664 82.9596 29.7664ZM85.604 26.7561V35.5437H84.8295V34.5485H84.8049C84.3758 35.3434 83.7484 35.6949 82.841 35.6949C81.1162 35.6949 80.2477 34.2644 80.2477 32.3965C80.2477 30.4817 81.0529 29.0961 82.841 29.0961C83.2498 29.0888 83.6521 29.1989 84.0002 29.4134C84.3483 29.6278 84.6276 29.9376 84.8049 30.3059H84.8295V26.7521L85.604 26.7561Z" fill="white"/>
<path d="M87.4678 26.7521H88.2362L87.5822 29.2534H86.8138L87.4678 26.7521Z" fill="white"/>
<path d="M90.0039 35.6929C89.4062 35.7071 88.8113 35.6051 88.2525 35.3925V34.6098C88.7782 34.8807 89.3614 35.0209 89.9528 35.0185C90.6967 35.0185 91.3527 34.6098 91.3527 33.8843C91.3527 32.3986 88.3302 32.6254 88.3302 30.8005C88.3302 29.5518 89.3377 29.0879 90.3738 29.0879C90.8925 29.0837 91.4065 29.186 91.884 29.3883V30.0688C91.4366 29.8588 90.9478 29.7513 90.4535 29.7541C89.5339 29.7541 89.1068 30.1322 89.1068 30.7105C89.1068 31.1642 89.3459 31.3911 89.8608 31.6445C90.805 32.0839 92.2028 32.5498 92.2028 33.8925C92.2028 35.2351 90.9603 35.6929 90.0039 35.6929Z" fill="white"/>
<path d="M62.5418 39.7454H61.6344V42.8925H62.5663C63.5881 42.8925 64.7591 42.5022 64.7591 41.2699C64.7591 39.8394 63.7373 39.7454 62.5418 39.7454ZM66.2939 47.7911H65.3497L64.1031 44.8564C63.6126 43.6998 63.1978 43.6303 62.366 43.6303H61.6344V47.7911H60.7782V39.0035H63.0445C64.6079 39.0035 65.6154 39.6595 65.6154 41.2719C65.6154 42.4041 64.7591 43.1112 63.7373 43.2972V43.3237C64.0085 43.376 64.2532 43.5204 64.4301 43.7325C64.508 43.8307 64.5764 43.936 64.6345 44.0472C64.6978 44.1739 64.7612 44.2985 64.8225 44.4559L66.2939 47.7911Z" fill="white"/>
<path d="M71.033 44.1024C71.033 43.0948 70.5936 42.0117 69.4349 42.0117C68.2762 42.0117 67.6079 43.0948 67.5834 44.1024H71.033ZM71.877 44.7686H67.5854C67.5854 46.1991 68.3048 47.2761 69.6515 47.2761C70.2882 47.2551 70.912 47.091 71.4765 46.7958V47.5458C70.8786 47.8005 70.2378 47.9392 69.5882 47.9546C67.5098 47.9546 66.7271 46.5445 66.7271 44.6562C66.7271 42.729 67.7837 41.3557 69.3838 41.3557C71.1577 41.3557 71.875 42.7536 71.875 44.3905L71.877 44.7686Z" fill="white"/>
<path d="M75.6332 42.0117C74.1475 42.0117 73.7694 43.4218 73.7694 44.6439C73.7694 45.866 74.2619 47.1249 75.5842 47.1249C76.9942 47.1249 77.497 45.7904 77.497 44.6439C77.497 43.1194 77.0433 42.0117 75.6332 42.0117ZM78.2776 41.4947V47.274C78.2776 49.0254 77.4847 50.4621 75.3185 50.4621C74.6679 50.4575 74.0237 50.3335 73.4179 50.0963V49.3279C74.0151 49.6177 74.6672 49.7765 75.3307 49.7938C77.3335 49.7938 77.5092 48.3326 77.5092 46.5567H77.4847C77.0556 47.4641 76.3771 47.7829 75.5698 47.7829C73.5548 47.7829 72.9131 46.0336 72.9131 44.6357C72.9131 42.7209 73.657 41.3373 75.5085 41.3373C76.3505 41.3373 76.9799 41.5417 77.4725 42.2059H77.497V41.4865L78.2776 41.4947Z" fill="white"/>
<path d="M80.6523 47.7911H79.8717V41.4947H80.6523V47.7911ZM80.6523 40.2747H79.8717V39.2426H80.6523V40.2747Z" fill="white"/>
<path d="M83.6462 47.9423C83.049 47.9567 82.4547 47.854 81.8969 47.6398V46.8592C82.4226 47.1301 83.0058 47.2703 83.5972 47.2679C84.339 47.2679 84.995 46.8592 84.995 46.1357C84.995 44.65 81.9725 44.8769 81.9725 43.0499C81.9725 41.8033 82.98 41.3373 84.0161 41.3373C84.5358 41.3336 85.0506 41.4373 85.5284 41.6418V42.3203C85.0805 42.1115 84.592 42.004 84.0979 42.0056C83.1803 42.0056 82.7511 42.3837 82.7511 42.9641C82.7511 43.4157 82.9902 43.6425 83.5073 43.8939C84.4494 44.3353 85.8492 44.8013 85.8492 46.1419C85.8492 47.4825 84.6026 47.9423 83.6442 47.9423" fill="white"/>
<path d="M89.6238 47.7666C89.3259 47.8793 89.0104 47.9388 88.6919 47.9423C88.3725 47.9569 88.0573 47.8641 87.7968 47.6787C87.3697 47.3762 87.2573 46.8224 87.2573 45.9661V42.163H86.26V41.4947H87.2675V39.9722L88.0461 39.6943V41.4947H89.4766V42.163H88.0461V46.2298C88.0461 46.8428 88.2505 47.2761 88.8901 47.2761C89.1469 47.2754 89.4006 47.2196 89.634 47.1126L89.6238 47.7666Z" fill="white"/>
<path d="M94.2975 44.1024C94.2975 43.0948 93.8561 42.0117 92.6974 42.0117C91.5387 42.0117 90.8724 43.0948 90.8581 44.1024H94.2975ZM95.1415 44.7686H90.85C90.85 46.1991 91.5673 47.2761 92.914 47.2761C93.5513 47.2551 94.1758 47.091 94.741 46.7958V47.5458C94.1424 47.8003 93.5009 47.939 92.8507 47.9546C90.7743 47.9546 89.9896 46.5445 89.9896 44.6562C89.9896 42.729 91.0461 41.3557 92.6463 41.3557C94.4201 41.3557 95.1395 42.7536 95.1395 44.3905L95.1415 44.7686Z" fill="white"/>
<path d="M99.3167 42.2324C99.1322 42.1789 98.9406 42.1534 98.7485 42.1568C97.5224 42.1568 97.1872 43.5424 97.1872 44.6746V47.7911H96.4066V42.9048C96.4198 42.4342 96.4027 41.9632 96.3555 41.4947H97.1382V42.7045H97.1627C97.414 41.9729 97.9433 41.3557 98.7485 41.3557C98.9404 41.3581 99.1312 41.3842 99.3167 41.4334V42.2324Z" fill="white"/>
</svg>
