<svg width="117" height="70" viewBox="0 0 117 70" fill="none" xmlns="http://www.w3.org/2000/svg">
<path fill-rule="evenodd" clip-rule="evenodd" d="M16.0143 43.4783H3.39024C2.91305 43.4783 2.48177 43.675 2.17013 43.9935C1.85849 44.3106 1.6665 44.7481 1.6665 45.2322V48.2461C1.6665 48.7288 1.8571 49.1662 2.16596 49.4819C2.47899 49.8018 2.91166 50 3.39024 50H16.0143V43.4783ZM37.6887 43.9978C37.3771 43.6793 36.943 43.4783 36.4645 43.4783H23.8404V50H36.4645C36.943 50 37.3757 49.8018 37.6887 49.4805C37.9976 49.1648 38.1882 48.7274 38.1882 48.2461V45.2322C38.1882 44.7509 37.9976 44.3149 37.6887 43.9978ZM37.6887 32.2599C37.3771 31.9386 36.943 31.7391 36.4645 31.7391H23.8404V38.2609H36.4645C36.943 38.2609 37.3757 38.0599 37.6887 37.7401C37.9976 37.4232 38.1882 36.9874 38.1882 36.5063V33.4923C38.1882 33.0126 37.9976 32.5768 37.6887 32.2599ZM16.0143 31.7391L3.39024 31.7405C2.91305 31.7405 2.48177 31.9372 2.17013 32.2556C1.85849 32.5726 1.6665 33.0098 1.6665 33.4923V36.5063C1.6665 36.9874 1.8571 37.4246 2.16596 37.7416C2.47899 38.0614 2.91166 38.2609 3.39024 38.2609H16.0143V31.7391ZM36.4332 26.5217H3.42155C2.93427 26.5217 2.49374 26.3236 2.17503 26.0036C1.86056 25.6865 1.6665 25.2505 1.6665 24.7678V21.7539C1.6665 21.2698 1.86198 20.8324 2.17786 20.5153C2.49657 20.1968 2.93569 20 3.42155 20H36.4332C36.9204 20 37.3624 20.1982 37.6797 20.5195C37.9941 20.8366 38.1882 21.2726 38.1882 21.7539V24.7678C38.1882 25.2491 37.9941 25.6851 37.6797 26.0022C37.361 26.3236 36.9204 26.5217 36.4332 26.5217Z" fill="#EB0028"/>
<path fill-rule="evenodd" clip-rule="evenodd" d="M112.848 20H110.871C108.342 20 108.183 20.2799 107.987 20.7199L104.074 30.24C102.77 33.3994 101.425 36.7997 100.911 38.5598C100.437 36.7997 99.5686 34.4395 97.7498 30.0798L93.8383 20.7199C93.6003 20.1601 92.6124 20 90.4771 20H88.2648C86.091 20 85.6548 20.2005 85.6548 20.6405V49.3595C85.6548 49.8803 86.091 50 88.3432 50H89.5691C91.7814 50 92.4129 49.8803 92.4129 49.3595V32.3203H92.5725C92.5725 32.3203 92.7693 33.1195 93.0871 33.8394L97.5929 44.5194C97.7897 44.9998 98.0277 45.2017 100.122 45.2017H101.466C103.598 45.2017 103.758 45.0401 103.956 44.5194L108.064 34.2404C108.461 33.2796 108.737 32.3203 108.737 32.3203H108.895V49.3595C108.895 49.8803 109.329 50 111.662 50H112.848C115.022 50 115.655 49.8803 115.655 49.3595V20.6405C115.655 20.2005 115.022 20 112.848 20ZM79.1331 20.6405C79.1331 20.2005 78.5222 20 76.4253 20H75.2036C72.9912 20 72.6114 20.2005 72.6114 20.6405V49.3595C72.6114 49.8803 72.9912 50 75.2036 50H76.4253C78.5236 50 79.1331 49.8803 79.1331 49.3595V20.6405ZM67.9688 20C68.5741 20 68.6983 20.0808 68.6983 22.2V24.1606C68.6983 26.2005 68.536 26.44 67.9688 26.44H61.077V49.3595C61.077 49.8803 60.4279 50 58.118 50H56.9016C54.5507 50 54.1457 49.8803 54.1457 49.3595V26.44H47.2539C46.6853 26.44 46.5244 26.2799 46.5244 24.1606V22.2C46.5244 20 46.6458 20 47.2539 20H67.9688Z" fill="#004691"/>
</svg>
