<svg width="51" height="50" viewBox="0 0 51 50" fill="none" xmlns="http://www.w3.org/2000/svg">
<path fill-rule="evenodd" clip-rule="evenodd" d="M25.3156 47.8571C23.5763 47.8571 22.6823 46.7055 22.6823 46.7055C21.2528 46.6423 10.0811 46.6739 10.0811 46.6739L8.9935 37.3526C8.9935 37.3526 2.11259 32.4281 1.55323 31.8602C-1.74967 16.6465 10.1888 2.14282 25.316 2.14282C40.4433 2.14282 52.3817 16.6465 49.0788 31.8602C48.5195 32.4281 41.6386 37.3526 41.6386 37.3526L40.5509 46.6739C40.5509 46.6739 29.3792 46.6423 27.9498 46.7055C27.9498 46.7055 27.0558 47.8571 25.3156 47.8571Z" fill="#ED1C24"/>
<path fill-rule="evenodd" clip-rule="evenodd" d="M25.3319 33.6818L24.2764 6.77496C23.0033 6.51116 19.7557 6.82772 18.015 8.14668L23.0812 33.7873L16.1704 9.20184C14.5136 9.18122 11.1706 12.0254 10.9222 12.8686L21.0028 34.6842L9.67515 14.7415C8.55798 15.1635 6.11578 19.7271 6.50549 20.2574L19.1322 35.9504L6.14176 22.5497C6.14176 22.5497 4.45301 25.1613 5.5543 29.5848L12.8919 34.9649L13.8105 42.3153L22.8066 42.3153C22.8066 42.3153 24.2784 43.7317 25.3227 43.7317C26.367 43.7317 27.8388 42.3153 27.8388 42.3153L36.835 42.3153L37.7536 34.9649L45.0912 29.5848C46.1925 25.1613 44.5037 22.5497 44.5037 22.5497L31.5133 35.9504L44.14 20.2574C44.5297 19.7271 42.0875 15.1635 40.9703 14.7415L29.6427 34.6842L39.7233 12.8686C39.4749 12.0254 36.1319 9.18122 34.4751 9.20184L27.5642 33.7873L32.6305 8.14668C30.8898 6.82772 27.6422 6.51116 26.3691 6.77496L25.3319 33.6818Z" fill="#FFD500"/>
</svg>
