<svg width="169" height="70" viewBox="0 0 169 70" fill="none" xmlns="http://www.w3.org/2000/svg">
<path d="M21.6665 55C32.7122 55 41.6665 46.0457 41.6665 35C41.6665 23.9543 32.7122 15 21.6665 15C10.6208 15 1.6665 23.9543 1.6665 35C1.6665 46.0457 10.6208 55 21.6665 55Z" fill="#7F6000"/>
<path d="M31.6587 39.1693C31.6758 38.2933 31.6621 37.4197 31.6654 36.5448C31.6548 35.6712 31.6312 34.7982 31.615 33.9252C31.599 33.0525 31.56 32.1812 31.5261 31.3099C31.5157 31.0522 31.3948 30.7973 31.1739 30.6264C30.774 30.3169 30.1969 30.3879 29.886 30.7847L29.8232 30.8629C28.6629 32.3406 27.5326 33.8387 26.4137 35.3451L24.7566 37.6187L23.9476 38.7594C23.4389 38.2576 22.9325 37.7534 22.4183 37.2575L21.1293 36.0221L19.8318 34.7963C18.9631 33.9828 18.0841 33.1791 17.2008 32.3796C16.3164 31.5812 15.4166 30.7975 14.5123 30.0192L14.4341 29.9518L14.406 29.9295C14.1304 29.7197 13.7356 29.7712 13.5239 30.045C13.1902 30.4764 12.8529 30.9038 12.5304 31.3446L11.5532 32.6593L10.5965 33.992C10.2807 34.4398 9.97004 34.8901 9.66748 35.3487C10.0915 34.998 10.5064 34.639 10.9186 34.277L12.144 33.1827L13.3483 32.069C13.5637 31.8731 13.7748 31.673 13.9843 31.4721C14.6177 32.2065 15.2534 32.9376 15.9006 33.6575C16.6975 34.5422 17.4989 35.4221 18.3101 36.2918L19.5324 37.5917L20.765 38.8824C21.5883 39.7406 22.4225 40.5886 23.2598 41.4332C23.3102 41.4827 23.3694 41.5342 23.4297 41.5754C23.9734 41.9494 24.7181 41.8164 25.0953 41.2776L26.7073 38.9726L28.2899 36.6469C28.8816 35.7614 29.4673 34.8722 30.0472 33.9787C30.0528 34.0093 30.0567 34.0393 30.0626 34.0705C30.2098 34.931 30.3506 35.7928 30.5037 36.6527C30.6708 37.5121 30.822 38.3726 31.0025 39.2305C31.18 40.0885 31.3629 40.9454 31.5765 41.8005C31.6259 40.9214 31.6452 40.0448 31.6587 39.1693Z" fill="#F8FBFB"/>
<path d="M63.093 36.4143C63.6911 34.1977 65.8395 32.5053 68.2321 32.5053C70.8252 32.5053 72.6119 34.3954 73.2087 36.4143H63.093ZM68.1983 29.63C63.511 29.63 59.9756 33.3947 59.9756 38.3868C59.9756 43.4992 63.4336 47.2098 68.1983 47.2098C71.4832 47.2098 74.2431 45.5448 75.768 42.6392C75.9503 42.2902 75.8271 41.8581 75.4844 41.6604L74.2142 40.925C74.0425 40.8251 73.8356 40.7977 73.6442 40.8547C73.4514 40.9088 73.2903 41.039 73.196 41.2164C72.1411 43.198 70.3932 44.3352 68.3996 44.3352C66.8437 44.3352 65.444 43.7778 64.4567 42.7659C63.5778 41.8638 63.0698 40.6724 62.9684 39.2896H75.6181C76.022 39.2896 76.35 38.9638 76.3542 38.5592C76.3746 35.9098 75.4823 33.5411 73.8413 31.8888C72.3748 30.4111 70.4234 29.63 68.1983 29.63Z" fill="black"/>
<path d="M92.5586 29.6299C90.7065 29.6299 89.1013 30.399 88.0599 31.7375C87.0487 30.3842 85.5174 29.6299 83.7033 29.6299C82.488 29.6299 81.3684 30.0127 80.4937 30.6875C80.4881 30.2871 80.1616 29.9641 79.759 29.9641H78.2545C77.8485 29.9641 77.5185 30.2935 77.5185 30.7002V46.1401C77.5185 46.5468 77.8485 46.8761 78.2545 46.8761H79.759C80.1658 46.8761 80.4937 46.5468 80.4937 46.1401V37.6514C80.4937 34.237 81.5408 32.5052 83.6026 32.5052C85.5498 32.5052 86.3091 33.6579 86.3091 36.6155V46.1401C86.3091 46.5468 86.6377 46.8761 87.0444 46.8761H88.5482C88.955 46.8761 89.285 46.5468 89.285 46.1401V37.2502C89.285 32.5052 91.7233 32.5052 92.5256 32.5052C94.4734 32.5052 95.0983 33.4151 95.0983 36.2482V46.1401C95.0983 46.5468 95.4276 46.8761 95.8343 46.8761H97.3382C97.7456 46.8761 98.0735 46.5468 98.0735 46.1401V36.448C98.0735 33.5213 97.5028 29.6299 92.5586 29.6299Z" fill="black"/>
<path d="M102.614 34.1761C102.614 32.839 103.951 31.7694 105.254 31.7694C106.457 31.7694 107.46 32.4379 107.961 33.5068L109.264 32.839C108.596 31.4021 106.892 30.3655 105.321 30.3655C103.082 30.3655 101.11 31.9369 101.11 34.276C101.11 36.8832 103.516 37.7846 105.622 38.5538C107.159 39.0886 108.629 39.6903 108.629 41.5952C108.629 43.5332 107.093 45.0707 105.153 45.0707C103.115 45.0707 101.879 43.7675 101.311 41.9294L99.8409 42.3974C100.475 44.9033 102.581 46.4746 105.153 46.4746C107.927 46.4746 110.133 44.5029 110.133 41.662C110.133 36.081 102.614 37.8853 102.614 34.1761Z" fill="black"/>
<path d="M122.363 39.4229C122.363 42.3975 122.03 45.0708 118.32 45.0708C114.61 45.0708 114.276 42.3975 114.276 39.4229V30.6999H112.772V39.9577C112.772 41.5284 112.739 43.099 113.707 44.4023C114.777 45.8062 116.582 46.4747 118.32 46.4747C120.057 46.4747 121.862 45.8062 122.931 44.4023C123.901 43.099 123.867 41.5284 123.867 39.9577V30.6999H122.363V39.4229Z" fill="black"/>
<path d="M129.344 32.7055H129.278V30.6999H127.774V46.1405H129.278V38.2527C129.278 35.9805 129.078 31.7696 132.453 31.7696C132.854 31.7696 133.155 31.8702 133.522 32.07L134.324 30.7337C133.79 30.4994 133.289 30.3657 132.687 30.3657C131.049 30.3657 129.946 31.3023 129.344 32.7055Z" fill="black"/>
<path d="M142.378 45.0707C138.635 45.0707 136.294 41.8626 136.294 38.3201C136.294 34.9783 138.735 31.7694 142.277 31.7694C146.019 31.7694 148.46 34.5765 148.46 38.1527C148.46 41.8626 146.321 45.0707 142.378 45.0707ZM148.359 33.3738H148.292C146.855 31.4352 144.984 30.3662 142.477 30.3662C137.966 30.3662 134.79 33.9417 134.79 38.387C134.79 42.6979 137.799 46.4746 142.277 46.4746C144.616 46.4746 146.922 45.3051 148.292 43.467H148.359V45.3719C148.359 47.4436 148.192 49.4492 146.989 51.2204C145.853 52.8579 143.981 53.5264 142.043 53.5264C138.934 53.5264 136.228 51.5208 136.061 48.3127H134.557C134.79 52.5567 138.132 54.9296 142.176 54.9296C144.616 54.9296 146.889 53.9268 148.326 51.9557C149.796 49.9164 149.863 47.7779 149.863 45.405V30.6998H148.359V33.3738Z" fill="black"/>
<path d="M160.019 31.7695C163.196 31.7695 165.534 34.3091 165.901 37.15H154.004C154.272 34.243 156.879 31.7695 160.019 31.7695ZM160.187 45.0708C156.611 45.0708 153.905 42.4643 154.004 38.5538H167.407C167.439 34.1093 164.664 30.3656 159.987 30.3656C155.475 30.3656 152.5 34.0755 152.5 38.3871C152.5 42.7648 155.408 46.4747 159.987 46.4747C163.027 46.4747 165.5 44.9702 166.904 42.2968L165.634 41.5615C164.532 43.6339 162.593 45.0708 160.187 45.0708Z" fill="black"/>
</svg>
