<?xml version="1.0" encoding="utf-8"?>
<svg version="1.1" id="Layer_1" xmlns="http://www.w3.org/2000/svg" xmlns:xlink="http://www.w3.org/1999/xlink" x="0px" y="0px"
	 viewBox="0 0 133 133" style="enable-background:new 0 0 133 133;" xml:space="preserve">
<style type="text/css">
	.st0{opacity:0.3;}
	.st1{filter:url(#Adobe_OpacityMaskFilter);}
	.st2{fill:#007bff;}
	.st3{mask:url(#mask-2_1_);fill:#161656;}
	.st4{filter:url(#Adobe_OpacityMaskFilter_1_);}
	.st5{mask:url(#mask-4_1_);fill:#64f0ff;}
	.st6{fill:#ffffff;}
	.st7{fill:none;stroke:#161656;stroke-width:4;}
	.st8{fill:none;stroke:#ff6f00;stroke-width:4;}
	.st9{fill:none;stroke:#64f0ff;stroke-width:4;}
	.st10{fill:none;stroke:#007bff;stroke-width:4;}
	.st11{fill:#ff6f00;}
	.st12{fill:#161656;}
	.st13{fill:#64f0ff;}
	.st14{fill:none;stroke:#007bff;stroke-width:6;}
	.st15{fill:none;stroke:#ff6f00;stroke-width:4;stroke-linecap:round;stroke-linejoin:round;}
	.st16{fill:none;stroke:#64f0ff;stroke-width:4;stroke-linecap:round;stroke-linejoin:round;}
	.st17{fill:none;stroke:#161656;stroke-width:4;stroke-linecap:round;stroke-linejoin:round;}
	.st18{fill:none;stroke:#007bff;stroke-width:4;stroke-linecap:round;stroke-linejoin:round;}
</style>
<title>Independant icon / white</title>
<g id="Desktop">
	<g id="_x33_.1-Mantle" transform="translate(-1073.000000, -1667.000000)">
		<g id="Group" transform="translate(1075.000000, 1667.000000)">
			<g id="Group-15" transform="translate(17.034483, 121.034483)" class="st0">
				<g id="Clip-14">
				</g>
				<defs>
					<filter id="Adobe_OpacityMaskFilter" filterUnits="userSpaceOnUse" x="14.8" y="1.7" width="68.9" height="8.8">
						<feColorMatrix  type="matrix" values="1 0 0 0 0  0 1 0 0 0  0 0 1 0 0  0 0 0 1 0"/>
					</filter>
				</defs>
				<mask maskUnits="userSpaceOnUse" x="14.8" y="1.7" width="68.9" height="8.8" id="mask-2_1_">
					<g class="st1">
						<polygon id="path-1_1_" class="st2" points="14.8,1.7 83.7,1.7 83.7,10.5 14.8,10.5 						"/>
					</g>
				</mask>
				<path id="Fill-13" class="st3" d="M83.7,6.1c0,2.4-15.4,4.4-34.5,4.4s-34.5-2-34.5-4.4s15.4-4.4,34.5-4.4S83.7,3.7,83.7,6.1"/>
			</g>
			<g id="Group-34">
				<g id="Group-3" transform="translate(0.000000, 0.431241)">
					<g id="Clip-2">
					</g>
					<defs>
						<filter id="Adobe_OpacityMaskFilter_1_" filterUnits="userSpaceOnUse" x="-18.3" y="-35.7" width="176.2" height="169">
							<feColorMatrix  type="matrix" values="1 0 0 0 0  0 1 0 0 0  0 0 1 0 0  0 0 0 1 0"/>
						</filter>
					</defs>
					<mask maskUnits="userSpaceOnUse" x="-18.3" y="-35.7" width="176.2" height="169" id="mask-4_1_">
						<g class="st4">
							<polygon id="path-3_1_" class="st2" points="112.7,87.3 63.5,115.7 14.4,87.3 14.4,30.6 63.5,2.2 112.7,30.6 							"/>
						</g>
					</mask>
					<path id="Fill-1" class="st5" d="M28.2-15.7L28.2-15.7c0.3,0.5,0.3,1,0.2,1.4l0,0.1L60.1-1.5l0-0.1c0,0,0,0,0,0c0,0,0,0,0,0
						c0.2-0.3,0.4-0.5,0.8-0.7l0.1,0l-8-29.6l-0.1,0c-0.1,0-0.2,0-0.2,0c-0.5,0-0.9-0.2-1.3-0.5c0,0,0,0,0,0c0,0,0,0,0-0.1l-0.1-0.1
						L28.2-15.7z M61.8-2.5c0.4,0,0.7,0.1,1,0.3c0.3,0.2,0.6,0.5,0.7,0.9l0,0.1L90-7.5l0-0.1c0-0.4,0.1-0.7,0.4-1l0.1-0.1L54.2-32.5
						l-0.1,0.1l0,0c-0.2,0.2-0.4,0.3-0.6,0.4l-0.1,0l8,29.5l0.1,0C61.7-2.5,61.8-2.5,61.8-2.5z M-8.4-4.6L-8.4-4.6
						c0.2,0.5,0.2,1,0,1.5l0,0.1l28,17.6l0-0.1c0.4-0.4,0.9-0.7,1.4-0.7c0,0,0,0,0.1,0l0.1,0L26-12.9L26-13
						c-0.2-0.1-0.3-0.1-0.4-0.2c-0.3-0.2-0.6-0.5-0.7-0.8l0-0.1L-8.4-4.6z M28.2-13.8C28.2-13.8,28.2-13.8,28.2-13.8
						C28.2-13.8,28.2-13.8,28.2-13.8c-0.1,0.2-0.3,0.4-0.4,0.5l-0.1,0l20,32.1l0.1,0c0.2-0.1,0.5-0.2,0.8-0.2c0.2,0,0.5,0,0.7,0.1
						l0.1,0L60.6,0.9l-0.1,0C60,0.4,59.8-0.3,60-1l0-0.1L28.2-13.8L28.2-13.8z M21.6,13.9L21.6,13.9c0.2,0.1,0.4,0.1,0.5,0.2
						c0.6,0.4,0.9,1,0.9,1.7l0,0.1L46.8,20l0-0.1c0.1-0.1,0.1-0.3,0.2-0.4c0.1-0.1,0.2-0.3,0.4-0.4l0.1,0l-20-32.1l-0.1,0
						c-0.2,0.1-0.5,0.2-0.8,0.2c0,0,0,0-0.1,0l-0.1,0L21.6,13.9z M63.6-0.8L63.6-0.8c0,0.5,0,0.9-0.2,1.2c-0.1,0.1-0.2,0.2-0.3,0.3
						l-0.1,0.1l19.1,25.1l0.1,0c0.2-0.1,0.4-0.1,0.6-0.1c0.1,0,0.2,0,0.3,0l0.1,0l8.1-31.5l-0.1,0c-0.3-0.1-0.5-0.2-0.7-0.4
						c-0.2-0.2-0.4-0.5-0.5-0.9l0-0.1L63.6-0.8z M49.7,19L49.7,19c0.5,0.4,0.8,1,0.8,1.6l0,0.1l30.6,6.2l0.1-0.1
						c0-0.1,0.1-0.1,0.1-0.2c0.1-0.2,0.3-0.4,0.5-0.5l0.1-0.1l-19-25l-0.1,0c-0.3,0.2-0.6,0.2-0.9,0.2c-0.3,0-0.5-0.1-0.8-0.2
						l-0.1,0L49.7,19z M83.6,25.9L83.6,25.9c0.1,0,0.1,0.1,0.2,0.1c0,0,0,0,0.1,0c0.3,0.2,0.6,0.5,0.7,0.9l0,0.1l29.4-7l0-0.1
						c0-0.3,0.1-0.6,0.3-0.8c0-0.1,0.1-0.1,0.1-0.2c0,0,0.1-0.1,0.1-0.1l0.1-0.1L93.2-6.2l-0.1,0.1c-0.4,0.3-0.8,0.5-1.3,0.5l-0.1,0
						L83.6,25.9z M-0.6,26.8c0.4,0,0.7,0.1,1,0.3c0.2,0.1,0.3,0.2,0.5,0.4l0,0.1l18.5-11l0-0.1c-0.2-0.5-0.2-1,0-1.5l0-0.1l-28-17.6
						l0,0.1C-9-2.3-9.3-2.1-9.7-2l-0.1,0L-1,26.8l0.1,0C-0.8,26.8-0.7,26.8-0.6,26.8z M1.1,27.9L1.1,27.9c0.3,0.6,0.2,1.3-0.1,1.8
						c-0.1,0.1-0.1,0.2-0.2,0.2L0.7,30l14.2,16.6l0.1,0c0.3-0.2,0.6-0.3,1-0.3l0.1,0l4.5-28.7l-0.1,0c-0.2-0.1-0.3-0.1-0.4-0.2
						c-0.2-0.1-0.3-0.2-0.5-0.4l0-0.1L1.1,27.9z M16.5,46.3L16.5,46.3c0.3,0.1,0.4,0.1,0.5,0.2c0.1,0.1,0.2,0.1,0.2,0.2l0.1,0.1
						L47,21.6l0-0.1c-0.2-0.3-0.3-0.7-0.2-1l0-0.1l-23.9-4.2l0,0.1c-0.1,0.2-0.1,0.3-0.2,0.4c-0.3,0.6-0.9,0.9-1.6,0.9l-0.1,0
						L16.5,46.3z M17.5,47.1L17.5,47.1c0.1,0.1,0.1,0.2,0.1,0.2l0,0.1l22.1-10.1l0-0.1c-0.1-0.4-0.1-0.9,0.2-1.2
						c0.3-0.4,0.8-0.7,1.3-0.7c0.1,0,0.3,0,0.4,0.1l0.1,0l6.1-13.1l-0.1,0c0,0,0,0,0,0c0,0,0,0,0,0c-0.1-0.1-0.2-0.1-0.3-0.2
						l-0.1-0.1L17.5,47.1z M42,35.5L42,35.5c0.8,0.5,1,1.4,0.5,2.1l0,0.1l14,11.6l0.1,0c0.2-0.2,0.4-0.3,0.7-0.4l0.1,0L49,22.4
						l-0.1,0c-0.1,0-0.2,0-0.3,0c-0.2,0-0.3,0-0.5-0.1l-0.1,0L42,35.5z M57.8,48.7c0.4,0,0.7,0.1,1,0.3c0.1,0.1,0.2,0.1,0.3,0.2
						l0.1,0.1l22.3-20.4l-0.1-0.1c-0.3-0.4-0.5-0.9-0.4-1.4l0-0.1l-30.6-6.2l0,0.1c-0.1,0.2-0.1,0.3-0.2,0.4
						c-0.2,0.3-0.5,0.6-0.8,0.7l-0.1,0L57.8,48.7L57.8,48.7z M17.8,47.6L17.8,47.6c0,0.2,0,0.2,0.1,0.3l0,0.1l38.1,2.1l0-0.1
						c0.1-0.2,0.1-0.4,0.2-0.5c0,0,0,0,0,0c0,0,0,0,0,0l0-0.1l-14-11.6l-0.1,0.1c-0.3,0.3-0.6,0.4-1,0.4c-0.3,0-0.6-0.1-0.8-0.2
						c-0.2-0.1-0.3-0.3-0.5-0.5l0-0.1L17.8,47.6z M84.7,27.3L84.7,27.3c0,0.4,0,0.7-0.1,0.9l0,0.1L117,52.3l0.1,0
						c0.3-0.2,0.6-0.3,0.9-0.4l0.1,0l-1.7-30l-0.1,0c-0.1,0-0.3,0-0.4,0c-0.4,0-0.7-0.1-1-0.3c-0.4-0.3-0.7-0.7-0.8-1.3l0-0.1
						L84.7,27.3z M95.2,47.9c0.3,0,0.6,0.1,0.8,0.2c0.5,0.3,0.7,0.8,0.7,1.3l0,0.1l19.7,3.7l0-0.1c0.1-0.2,0.1-0.3,0.2-0.4
						c0,0,0,0,0-0.1c0,0,0,0,0-0.1l0.1-0.1L84.4,28.7l-0.1,0.1c-0.1,0.2-0.3,0.3-0.4,0.4l-0.1,0l10.7,18.9l0.1,0
						C94.8,48,95,47.9,95.2,47.9z M117,21.6c-0.1,0-0.1,0.1-0.2,0.1l0,0l1.7,30.2l0.1,0c0.2,0,0.5,0.1,0.7,0.3
						c0.4,0.3,0.7,0.7,0.8,1.2l0,0.1l28.3,0l0-0.1c0-0.3,0.2-0.6,0.3-0.8l0-0.1l-31.6-30.9L117,21.6z M-15.3,55.9L-15.3,55.9
						c0.1,0.1,0.1,0.1,0.1,0.1c0,0,0,0,0.1,0c0.2,0.2,0.3,0.4,0.4,0.6l0,0.1l28.7-8.3l0-0.1c0-0.4,0-0.8,0.2-1.1
						c0.1-0.1,0.1-0.2,0.2-0.2l0.1-0.1L0.4,30.2l-0.1,0c-0.3,0.2-0.6,0.3-1,0.3c-0.2,0-0.4,0-0.6-0.1l-0.1,0L-15.3,55.9z M33.7,59.3
						c0.3,0,0.6,0.1,0.8,0.2c0.2,0.1,0.4,0.3,0.5,0.5l0,0.1l20.9-9l0-0.1c0-0.1,0-0.3-0.1-0.4l0-0.1l-38-2.1l0,0.1
						c0,0.1-0.1,0.3-0.1,0.4l0,0.1l14.9,10.8l0.1-0.1C32.9,59.5,33.3,59.3,33.7,59.3z M83.6,29.6l3.8,34.5l0.1,0c0,0,0.1,0,0.1,0
						l0.1,0l6.6-13.4l-0.1,0c-0.7-0.5-0.9-1.4-0.4-2.1c0.1-0.1,0.2-0.3,0.4-0.4l0.1,0L83.8,29.5L83.6,29.6z M59.4,49.5L59.4,49.5
						c0.3,0.5,0.4,1,0.2,1.5l0,0.1l26.1,13.6l0,0c0.3-0.3,0.8-0.5,1.3-0.6l0.1,0l-3.9-34.6l-0.1,0c-0.1,0-0.2,0-0.3,0
						c-0.4,0-0.7-0.1-1-0.3c0,0,0,0,0,0c0,0,0,0,0,0l-0.1,0L59.4,49.5z M88,64.3L88,64.3c0.3,0.2,0.5,0.4,0.7,0.7l0,0.1l27.6-11
						l0-0.1c0-0.1,0-0.3,0-0.4l0-0.1l-19.6-3.7l0,0.1c0,0.1-0.1,0.2-0.1,0.3c-0.3,0.4-0.8,0.7-1.3,0.7c-0.2,0-0.3,0-0.5-0.1l-0.1,0
						L88,64.3z M66.7,67.3c0.3,0,0.6,0.1,0.8,0.2c0.3,0.2,0.5,0.5,0.6,0.9l0,0.1l17-2.4l0-0.1c0-0.3,0.1-0.6,0.2-0.9l0-0.1l-26-13.5
						l0,0.1c0,0,0,0,0,0c0,0,0,0,0,0c-0.1,0.2-0.3,0.4-0.6,0.6l-0.1,0l7.4,15.2l0.1,0C66.4,67.3,66.6,67.3,66.7,67.3z M119.8,54.7
						C119.8,54.7,119.8,54.7,119.8,54.7L119.8,54.7l14.9,15.8l0.1,0c0.3-0.2,0.5-0.3,0.8-0.3c0.2,0,0.5,0.1,0.7,0.2l0.1,0l12.5-15.6
						l-0.1-0.1c-0.3-0.3-0.4-0.6-0.5-1l0-0.1l-28.3,0l0,0.1C120,54.2,119.9,54.5,119.8,54.7z M-5,72.2c0.3,0,0.7,0.1,1,0.3l0.1,0
						l18.6-23l0-0.1c-0.1-0.2-0.2-0.3-0.3-0.5l0-0.1l-28.7,8.3l0,0.1c0.1,0.6-0.1,1.1-0.5,1.6c0,0,0,0,0,0c0,0,0,0-0.1,0.1l-0.1,0.1
						l9.2,13.5l0.1,0C-5.6,72.2-5.3,72.2-5,72.2z M17.4,49.3c-0.2,0.2-0.4,0.4-0.7,0.6l-0.1,0l9.7,34.8l0.1,0c0.1,0,0.3-0.1,0.4-0.1
						l0.1,0l6.3-22.3l-0.1,0c-0.1,0-0.1-0.1-0.2-0.1c-0.7-0.4-0.9-1.3-0.5-2l0-0.1L17.4,49.3L17.4,49.3z M27.2,84.6L27.2,84.6
						c0.3,0.1,0.5,0.1,0.6,0.2l0.1,0L56.5,52l-0.1-0.1c-0.1-0.1-0.3-0.3-0.3-0.5l0-0.1l-20.9,9l0,0.1c0.1,0.4,0.1,0.8-0.2,1.2
						c-0.3,0.4-0.8,0.7-1.3,0.7c-0.1,0-0.1,0-0.2,0l-0.1,0L27.2,84.6z M58.4,52.3c-0.1,0-0.2,0.1-0.3,0.1l-0.1,0l-2.6,32.2l0.1,0
						c0.2,0,0.4,0.1,0.6,0.2l0.1,0L65.8,70l-0.1-0.1c-0.6-0.5-0.7-1.3-0.3-1.9c0.1-0.2,0.3-0.3,0.4-0.4l0.1,0L58.4,52.3L58.4,52.3z
						 M56.4,85L56.4,85c0.1,0,0.1,0.1,0.1,0.1l0,0l28.9-18.3l0-0.1c-0.1-0.1-0.1-0.3-0.1-0.4l0-0.1l-17,2.4v0.1
						c0,0.3-0.1,0.6-0.2,0.8c-0.3,0.4-0.8,0.7-1.3,0.7h0c-0.2,0-0.4,0-0.6-0.1l-0.1,0L56.4,85z M-3.6,72.7L-3.6,72.7
						c0.5,0.5,0.6,1.1,0.5,1.7l0,0.1l28.4,11.1l0-0.1c0,0,0-0.1,0-0.1c0,0,0-0.1,0-0.1c0.1-0.2,0.3-0.4,0.6-0.6l0.1,0L16.3,50
						l-0.1,0c-0.1,0-0.2,0-0.2,0c-0.3,0-0.7-0.1-1-0.3l-0.1,0L-3.6,72.7z M56.8,85.4L56.8,85.4c0.2,0.2,0.2,0.4,0.3,0.6l0,0.1
						l16.2-0.3l0-0.1c0-0.3,0.1-0.5,0.2-0.7c0.3-0.4,0.8-0.7,1.3-0.7c0.3,0,0.5,0.1,0.8,0.2l0.1,0l10.3-17l-0.1,0
						c-0.1-0.1-0.2-0.1-0.2-0.2l0-0.1L56.8,85.4z M28.2,85.1L28.2,85.1c0.4,0.4,0.5,0.8,0.6,1.2l0,0.1l24.6-0.2l0-0.1
						c0.1-0.2,0.1-0.4,0.2-0.5c0.3-0.5,0.8-0.8,1.3-0.9l0.1,0l2.6-32.2l-0.1,0c-0.3,0-0.5-0.1-0.7-0.2l-0.1,0L28.2,85.1z M88.9,65.4
						L88.9,65.4c0.1,0.5,0.1,0.9-0.1,1.3l0,0.1l21,21.5l0.1,0c0.3-0.1,0.6-0.2,0.9-0.2c0.1,0,0.2,0,0.3,0l0.1,0l6.7-32.6l-0.1,0
						c-0.2-0.1-0.3-0.1-0.5-0.2c-0.3-0.2-0.5-0.5-0.7-0.8l0-0.1L88.9,65.4z M119.4,55.2c-0.3,0.3-0.8,0.4-1.2,0.4h-0.1l-6.7,32.6
						l0.1,0.1c0.1,0,0.1,0.1,0.2,0.1c0.1,0,0.1,0.1,0.2,0.2c0,0,0.1,0.1,0.1,0.1l0.1,0.1l22.2-16.2l0-0.1c-0.2-0.5-0.2-1.1,0.1-1.5
						l0-0.1L119.4,55.2L119.4,55.2z M136.7,70.8L136.7,70.8c0.5,0.6,0.5,1.4,0.1,2l0,0.1l18.2,21.1l0.1,0c0.2-0.1,0.3-0.2,0.5-0.2
						l0.1,0l-5.2-38.2l-0.1,0c-0.3,0-0.6-0.1-0.9-0.3l-0.1,0L136.7,70.8z M112.3,89.1L112.3,89.1c0.2,0.4,0.3,0.7,0.3,1l0,0.1l16,4
						l0-0.1c0,0,0-0.1,0.1-0.1c0-0.1,0.1-0.1,0.1-0.2c0.3-0.3,0.7-0.5,1.1-0.5c0,0,0.1,0,0.1,0l0.1,0l5-20.1l-0.1,0
						c-0.1-0.1-0.3-0.1-0.4-0.2l0,0l0,0l-0.1,0L112.3,89.1z M130.5,93.4L130.5,93.4c0.2,0.1,0.4,0.2,0.5,0.3
						c0.2,0.2,0.4,0.5,0.5,0.9l0,0.1l22.7,0.8l0-0.1c0-0.4,0.2-0.8,0.4-1.1l0-0.1l-18.2-21.1l-0.1,0c-0.2,0.1-0.5,0.2-0.8,0.2
						c0,0-0.1,0-0.1,0l-0.1,0L130.5,93.4z M75.9,84.7L75.9,84.7c0.5,0.6,0.6,1.3,0.2,1.9c-0.1,0.2-0.3,0.4-0.5,0.5l-0.1,0l4.9,15.6
						l0.1,0c0,0,0.1,0,0.1,0l0.1,0l6.2-34.8l-0.1,0c-0.2,0-0.3-0.1-0.5-0.2l-0.1,0L75.9,84.7z M57.2,86.4L57.2,86.4
						c0,0.4-0.1,0.6-0.2,0.9l0,0.1l22.4,16l0.1-0.1c0.2-0.2,0.4-0.4,0.7-0.5l0.1,0l-4.9-15.5l-0.1,0c-0.1,0-0.2,0-0.4,0
						c-0.3,0-0.6-0.1-0.8-0.2c-0.3-0.2-0.6-0.5-0.7-0.9l0-0.1L57.2,86.4z M88.4,67.2c-0.3,0.3-0.7,0.5-1.1,0.6l-0.1,0l-6.2,34.8
						l0.1,0c0.2,0,0.5,0.1,0.7,0.3c0.2,0.1,0.3,0.2,0.5,0.4l0,0.1l26.5-12.8l0-0.1c-0.1-0.5-0.1-1,0.2-1.5c0.1-0.1,0.2-0.2,0.3-0.3
						l0.1-0.1L88.4,67.2L88.4,67.2z M-3.3,75c0,0,0,0.1-0.1,0.1c0,0.1-0.1,0.2-0.2,0.2c0,0-0.1,0-0.1,0.1c0,0-0.1,0-0.1,0.1l-0.1,0
						l21.1,34l0.1,0c0.3-0.2,0.6-0.3,1-0.3c0.1,0,0.2,0,0.4,0l0.1,0l7.4-21.2l-0.1,0c0,0-0.1,0-0.1,0c0,0,0,0,0,0
						c-0.6-0.4-1-1.1-0.9-1.9l0-0.1L-3.3,75L-3.3,75z M28.8,86.7L28.8,86.7c-0.1,0.3-0.1,0.5-0.3,0.8c-0.1,0.2-0.3,0.4-0.5,0.5
						L28,88l19.3,26.7l0.1,0c0.2-0.1,0.5-0.1,0.7-0.1c0.1,0,0.3,0,0.4,0l0.1,0l5.9-26.4l-0.1,0c0,0,0,0-0.1,0c0,0-0.1,0-0.1,0
						c-0.5-0.3-0.9-0.9-0.9-1.5l0-0.1L28.8,86.7z M48.9,114.8L48.9,114.8c0.1,0,0.1,0.1,0.1,0.1c0,0,0,0,0.1,0
						c0.3,0.2,0.5,0.5,0.7,0.8l0,0.1L79,104.9l0-0.1c0-0.3,0-0.7,0.1-1l0-0.1l-22.4-16l-0.1,0.1c-0.4,0.4-0.9,0.7-1.4,0.7
						c-0.1,0-0.2,0-0.3,0l-0.1,0L48.9,114.8z M19.1,109.4L19.1,109.4c0.1,0.1,0.1,0.1,0.2,0.1c0.1,0.1,0.2,0.1,0.3,0.2
						c0.4,0.4,0.6,0.9,0.6,1.5l0,0.1l26.1,4.6l0-0.1c0,0,0-0.1,0-0.1c0-0.1,0-0.2,0.1-0.2c0.1-0.2,0.2-0.3,0.4-0.5l0.1-0.1
						L27.7,88.2l-0.1,0c-0.2,0.1-0.4,0.1-0.6,0.1c-0.1,0-0.3,0-0.4,0l-0.1,0L19.1,109.4z M112.4,90.7c0,0,0,0.1,0,0.1
						c0,0.1,0,0.2-0.1,0.2c0,0.1-0.1,0.1-0.1,0.2l-0.1,0.1l18.2,27.2l-0.5-22.1l-0.1,0c-0.3-0.1-0.6-0.2-0.8-0.4
						c-0.4-0.3-0.5-0.8-0.4-1.4l0-0.1L112.4,90.7L112.4,90.7z M131.4,95.2c-0.1,0.3-0.2,0.5-0.3,0.7c-0.2,0.2-0.5,0.4-0.8,0.4
						l-0.1,0l0.5,22l0.1,0c0.3,0,0.5,0.1,0.7,0.2c0,0,0,0,0,0c0,0,0,0,0.1,0.1l0.1,0l22.9-22.1l0-0.1c-0.1-0.2-0.2-0.4-0.3-0.6
						l0-0.1L131.4,95.2L131.4,95.2z M111.7,91.6c-0.2,0.1-0.4,0.2-0.6,0.3l-0.1,0l2.6,20l0.1,0c0.2,0,0.3,0.1,0.4,0.2
						c0.6,0.4,0.8,1.1,0.6,1.7l0,0.1l14,5.5l0-0.1c0,0,0,0,0-0.1c0,0,0,0,0-0.1c0.2-0.3,0.5-0.5,0.8-0.7l0.1,0L111.7,91.6
						L111.7,91.6z M49.9,116.1L49.9,116.1c0.1,0.4,0,0.8-0.2,1.2l0,0.1L66.1,129l0.1-0.1c0.3-0.3,0.7-0.4,1.1-0.4
						c0.2,0,0.3,0,0.4,0.1l0.1,0l12-22.6l-0.1,0c-0.2-0.2-0.4-0.4-0.5-0.7l0-0.1L49.9,116.1z M90.8,129.5c0.2,0,0.5,0,0.7,0.1l0.1,0
						l18.2-38l-0.1,0c0,0,0,0,0,0c-0.2-0.2-0.5-0.4-0.6-0.6l0-0.1l-26.4,12.8l0,0.1c0.2,0.6,0.2,1.2-0.1,1.7
						c-0.2,0.3-0.5,0.6-0.9,0.7l-0.1,0l8.7,23.3l0.1,0C90.4,129.5,90.6,129.5,90.8,129.5z M91.9,129.9L91.9,129.9
						c0.1,0.1,0.2,0.2,0.3,0.2l0.1,0.1l20.1-15.6l-0.1-0.1c-0.5-0.5-0.6-1.3-0.2-1.9c0.3-0.4,0.7-0.7,1.2-0.7l0.1,0l-2.5-20l-0.1,0
						c-0.1,0-0.3,0-0.5-0.1l-0.1,0L91.9,129.9z M68.1,128.9L68.1,128.9c0.1,0.1,0.1,0.1,0.1,0.1c0,0,0,0,0,0
						c0.2,0.2,0.4,0.6,0.5,0.9l0,0.1L89,131l0-0.1c0-0.2,0.1-0.4,0.2-0.6c0.1-0.2,0.3-0.4,0.6-0.6l0.1,0l-8.7-23.4l-0.1,0
						c0,0-0.1,0-0.1,0c-0.2,0-0.5,0-0.7-0.1l-0.1,0L68.1,128.9z M92.4,130.4L92.4,130.4c0.1,0.2,0.2,0.4,0.3,0.6l0,0.1l36-10.1
						l0-0.1c-0.1-0.4-0.1-0.7-0.1-1.1l0-0.1l-14.1-5.5l0,0.1c-0.3,0.4-0.8,0.7-1.3,0.7c-0.2,0-0.5-0.1-0.7-0.2l0,0L92.4,130.4z
						 M90.8,133.3c-0.4,0-0.7-0.1-1-0.3c-0.5-0.3-0.8-0.8-0.8-1.5l0-0.1l-20.3-1.1l0,0.1c-0.1,0.3-0.2,0.5-0.3,0.7
						c-0.3,0.3-0.7,0.5-1.1,0.5c-0.4,0-0.8-0.1-1-0.4c-0.5-0.4-0.6-1.2-0.3-1.8l0-0.1l-16.3-11.7l-0.1,0.1c-0.4,0.4-0.9,0.6-1.4,0.6
						c-0.3,0-0.7-0.1-1-0.3c-0.6-0.4-0.9-1-0.9-1.7l0-0.1l-26.1-4.6l0,0.1c-0.1,0.3-0.2,0.5-0.4,0.7c-0.4,0.4-0.9,0.6-1.4,0.6
						c-0.5,0-0.9-0.2-1.3-0.5c-0.8-0.7-0.8-1.9-0.1-2.7l0,0l-21.1-34l-0.1,0C-4.5,75.9-4.7,76-5,76c-0.5,0-0.9-0.2-1.3-0.5
						c-0.8-0.7-0.8-1.9-0.1-2.7c0,0,0,0,0,0c0,0,0,0,0.1-0.1l0.1-0.1l-9.2-13.5l-0.1,0c-0.3,0.1-0.6,0.2-0.8,0.2
						c-0.5,0-0.9-0.2-1.3-0.5c-0.8-0.7-0.8-1.9-0.1-2.7c0.4-0.4,0.9-0.6,1.4-0.6c0.2,0,0.5,0,0.7,0.1l0.1,0l13.9-25.4l-0.1,0
						c-0.8-0.6-1-1.7-0.5-2.5c0.2-0.3,0.5-0.5,0.8-0.7l0.1,0L-10.2-2l-0.1,0c-0.3,0-0.7-0.1-0.9-0.3c-0.4-0.3-0.7-0.7-0.8-1.2
						c-0.1-0.5,0-1,0.2-1.4c0.3-0.6,0.9-0.9,1.6-0.9c0.4,0,0.7,0.1,1,0.3C-8.9-5.3-8.8-5.2-8.6-5l0,0l33.3-9.5l0-0.1
						c-0.1-0.4,0-0.9,0.3-1.3c0.3-0.6,0.9-0.9,1.6-0.9c0.4,0,0.7,0.1,1,0.3c0.1,0.1,0.1,0.1,0.2,0.2c0,0,0,0,0.1,0.1l0.1,0.1
						l23.2-16.8l0-0.1c-0.4-0.7-0.3-1.6,0.3-2.2c0.4-0.4,0.9-0.6,1.4-0.6c0.5,0,0.9,0.2,1.3,0.5c0.6,0.6,0.8,1.4,0.4,2.2l0,0.1
						L90.7-9l0,0c0.3-0.3,0.8-0.4,1.2-0.4c0.5,0,0.9,0.2,1.3,0.5c0.7,0.6,0.8,1.6,0.3,2.4l0,0.1l21.4,25l0.1,0
						c0.3-0.2,0.6-0.3,1-0.3c0.3,0,0.7,0.1,1,0.3c0.9,0.6,1.2,1.7,0.6,2.6c0,0,0,0,0,0l0,0.1L149,52.1l0.1,0
						c0.3-0.3,0.8-0.4,1.2-0.4c0.5,0,0.9,0.2,1.3,0.5c0.8,0.7,0.8,1.9,0.1,2.7c-0.2,0.2-0.5,0.4-0.9,0.5l-0.1,0l5.2,38.2l0.1,0
						c0.5,0,0.9,0.2,1.3,0.5c0.8,0.7,0.8,1.9,0.1,2.7c-0.4,0.4-0.8,0.6-1.4,0.6h0c-0.4,0-0.8-0.1-1.2-0.4l-0.1,0L131.9,119l0,0.1
						c0.5,0.6,0.5,1.5,0.1,2.1c-0.3,0.6-0.9,0.9-1.6,0.9c-0.4,0-0.7-0.1-1-0.3c-0.2-0.1-0.4-0.3-0.5-0.5l0,0l-36.2,10.2l0,0.1
						c0,0.3-0.1,0.6-0.3,0.9C92.1,133,91.5,133.3,90.8,133.3z"/>
				</g>
				<path id="Fill-4" class="st6" d="M78.8,62.3c0,7.8-6.3,14.1-14.1,14.1S50.7,70,50.7,62.3S57,48.2,64.7,48.2S78.8,54.5,78.8,62.3
					"/>
				<path id="Stroke-6" class="st7" d="M64.1,94V77.2"/>
				<path id="Stroke-8" class="st8" d="M64.1,47.7V30"/>
				<g id="Group-13" transform="translate(67.241379, 60.500207)">
					<path id="Fill-10" class="st6" d="M14,1.5h14.8"/>
					<path id="Stroke-12" class="st9" d="M14,1.5h14.8"/>
				</g>
				<path id="Stroke-14" class="st10" d="M32.1,62h15.7"/>
				<path id="Fill-16" class="st11" d="M58.2,32.2l4.6-7.1c0.7-1,2.1-1,2.8,0l4.7,7.2c0.7,1.1-0.1,2.6-1.4,2.6l-9.3-0.1
					C58.3,34.7,57.5,33.3,58.2,32.2"/>
				<path id="Fill-18" class="st12" d="M70.4,90.3l-4.7,7.2c-0.6,1-2,1-2.7,0l-4.9-7.4c-0.7-1.1,0.1-2.5,1.4-2.5l9.5,0.1
					C70.3,87.9,71.1,89.3,70.4,90.3"/>
				<path id="Fill-20" class="st2" d="M35,68.2l-7-4.5c-1-0.7-1-2.1,0-2.8l7.2-4.7c1.1-0.7,2.6,0.1,2.6,1.4l-0.1,9.3
					C37.5,68.2,36.1,69,35,68.2"/>
				<path id="Fill-22" class="st13" d="M91.9,55l9,5.8c0.6,0.4,0.6,1.2,0,1.6l-9.1,6c-0.7,0.4-1.5,0-1.5-0.8l0.2-11.8
					C90.4,55,91.3,54.6,91.9,55"/>
				<path id="Stroke-24" class="st14" d="M113.4,79.9v-41c0-4.8-2.6-9.3-6.7-11.7L71.1,6.7c-4.2-2.4-9.3-2.4-13.5,0L22.1,27.2
					c-4.2,2.4-6.7,6.9-6.7,11.7v41c0,4.8,2.6,9.3,6.7,11.7L57.6,112c4.2,2.4,9.3,2.4,13.5,0l35.5-20.5
					C110.8,89.1,113.4,84.7,113.4,79.9z"/>
				<path id="Stroke-26" class="st15" d="M55.7,49.1c2.5-1.7,5.6-2.6,8.8-2.6c3.4,0,6.5,1,9.1,2.8"/>
				<path id="Stroke-28" class="st16" d="M78.2,54.2c1.5,2.4,2.3,5.3,2.3,8.3c0,3.3-1,6.4-2.7,8.9"/>
				<path id="Stroke-30" class="st17" d="M72.6,76.3c-2.4,1.4-5.1,2.2-8.1,2.2c-2.7,0-5.2-0.6-7.4-1.8"/>
				<path id="Stroke-32" class="st18" d="M51.2,71.4c-1.7-2.5-2.7-5.6-2.7-8.9c0-3,0.8-5.8,2.3-8.2"/>
			</g>
		</g>
	</g>
</g>
</svg>
