<svg width="116" height="58" viewBox="0 0 116 58" fill="none" xmlns="http://www.w3.org/2000/svg">
<path d="M88.9224 41.8233V43.6716H101.5V35.341H99.6666V41.8261H88.9224V41.8233ZM88.9224 14.3284V16.1766H99.6666V22.6617H101.5V14.3311H88.9224V14.3284ZM82.4354 28.6194V24.3278H85.3095C86.7115 24.3278 87.213 24.798 87.213 26.0836V26.8446C87.213 28.1655 86.7277 28.6194 85.3095 28.6194H82.4354ZM87 29.3805C88.3103 29.0353 89.227 27.8041 89.227 26.3364C89.227 25.4122 88.8684 24.5805 88.1863 23.9092C87.3235 23.0748 86.175 22.6589 84.6813 22.6589H80.6397V35.3383H82.4354V30.2856H85.1316C86.5147 30.2856 87.0728 30.8645 87.0728 32.3132V35.3383H88.9062V32.604C88.9062 30.6117 88.4398 29.8507 87.0027 29.6333V29.3805H87ZM71.8718 29.7963H77.407V28.1302H71.8718V24.3251H77.9436V22.6589H70.0384V35.3383H78.2132V33.6722H71.8718V29.7963ZM65.8513 30.4677V31.3374C65.8513 33.1666 65.1853 33.7646 63.5164 33.7646H63.12C61.4484 33.7646 60.6395 33.221 60.6395 30.7041V27.2985C60.6395 24.7627 61.4835 24.2381 63.1551 24.2381H63.5137C65.1475 24.2381 65.6706 24.8551 65.6868 26.5565H67.6631C67.4824 24.056 65.8297 22.4823 63.3519 22.4823C62.1494 22.4823 61.141 22.8628 60.3861 23.5858C59.2537 24.6539 58.6255 26.4668 58.6255 29.0027C58.6255 31.5385 59.1647 33.259 60.2783 34.3815C61.0332 35.1236 62.0739 35.5231 63.0984 35.5231C64.1769 35.5231 65.1637 35.0882 65.6679 34.1478H65.9187V35.3437H67.5714V28.8043H62.7021V30.4704H65.8459L65.8513 30.4677ZM50.0032 24.3278H51.9606C53.8102 24.3278 54.8185 24.798 54.8185 27.3339V30.6661C54.8185 33.2019 53.8129 33.6722 51.9606 33.6722H50.0032V24.3251V24.3278ZM52.1224 35.341C55.5546 35.341 56.8299 32.7154 56.8299 29.0027C56.8299 25.2899 55.4656 22.6644 52.0873 22.6644H48.2048V35.3437H52.1224V35.341ZM39.5286 29.799H45.0638V28.1329H39.5286V24.3278H45.6003V22.6617H37.6952V35.341H45.87V33.6749H39.5286V29.799ZM28.9272 22.6617H27.0938V35.341H35.3576V33.6749H28.9245V22.6617H28.9272ZM14.5 35.341V43.6716H27.0776V41.8233H16.3334V35.3383H14.5V35.341ZM14.5 14.3311V22.6617H16.3334V16.1766H27.0776V14.3284H14.5V14.3311Z" fill="white"/>
</svg>
