<?xml version="1.0" encoding="UTF-8"?>
<svg width="222px" height="224px" viewBox="0 0 222 224" version="1.1" xmlns="http://www.w3.org/2000/svg" xmlns:xlink="http://www.w3.org/1999/xlink">
    <title>Blockchain experts</title>
    <defs>
        <polygon id="path-1" points="0.0208036987 0.0727353846 127.805374 0.0727353846 127.805374 12.6358974 0.0208036987 12.6358974"></polygon>
    </defs>
    <g id="Desktop" stroke="none" stroke-width="1" fill="none" fill-rule="evenodd">
        <g id="HOME-+-Dark-Gradient--Copy" transform="translate(-349.000000, -4085.000000)">
            <g id="Group-28" transform="translate(349.000000, 4089.000000)">
                <path d="M169.155556,92.88932 C169.155556,126.910042 141.576516,154.488889 107.555556,154.488889 C73.5345954,154.488889 45.9555556,126.910042 45.9555556,92.88932 C45.9555556,58.8685979 73.5345954,31.2888889 107.555556,31.2888889 C135.782064,31.2888889 169.155556,58.8685979 169.155556,92.88932 Z" id="Stroke-1" stroke="#ffffff" stroke-width="4"></path>
                <path d="M113.422222,0 C145.454153,0.83177654 173.473005,17.3827772 189.688889,42.0444444" id="Stroke-3" stroke="#ff6f00" stroke-width="8" stroke-linecap="round" stroke-linejoin="round"></path>
                <path d="M160.364591,131.022222 C159.137256,131.022222 157.993719,130.362878 157.380052,129.301164 L139.302685,98.0330149 C138.691557,96.971301 138.691557,95.6500759 139.303531,94.5875167 L157.380052,63.3185225 C157.992873,62.2593446 159.137256,61.6 160.364591,61.6 L196.521864,61.6 C197.750892,61.6 198.896122,62.2593446 199.510636,63.3202131 L217.584617,94.5892074 C218.198284,95.6509212 218.197438,96.9704557 217.583771,98.0338602 L199.509789,129.301164 C198.895275,130.362878 197.750892,131.022222 196.521864,131.022222 L160.364591,131.022222 Z" id="Fill-5" fill="#007bff"></path>
                <path d="M197.399808,59.6444444 L160.464049,59.6444444 C158.292883,59.6444444 156.273897,60.8117693 155.189611,62.6926518 L136.723029,94.7274055 C135.640472,96.608288 135.640472,98.9455356 136.723029,100.829882 L155.189611,132.861172 C156.273897,134.744652 158.292883,135.911111 160.464049,135.911111 L197.399808,135.911111 C199.570974,135.911111 201.593418,134.744652 202.677704,132.861172 L221.141693,100.829882 C222.226843,98.9455356 222.226843,96.608288 221.141693,94.7274055 L202.677704,62.6926518 C201.593418,60.8117693 199.570974,59.6444444 197.399808,59.6444444 M197.399808,64.7926241 C197.736161,64.7926241 198.06041,64.9796732 198.22556,65.2663086 L216.691278,97.3036603 C216.857293,97.5911617 216.856429,97.9652598 216.689549,98.2553591 L198.22556,130.286649 C198.059545,130.575882 197.735297,130.762931 197.399808,130.762931 L160.464049,130.762931 C160.131154,130.762931 159.80777,130.575882 159.641755,130.285783 L141.178631,98.2605549 C141.010022,97.9669918 141.009157,97.5894297 141.175172,97.3010624 L159.640026,65.2689065 C159.806906,64.9796732 160.130289,64.7926241 160.464049,64.7926241 L197.399808,64.7926241" id="Fill-7" fill="#161656"></path>
                <path d="M117.527647,137.516007 C116.600768,135.919336 114.876584,134.933333 113.028873,134.933333 L81.5504162,134.933333 C79.6992504,134.933333 77.980249,135.919336 77.0542342,137.516007 L61.3154376,164.619045 C60.3911504,166.209703 60.3911504,168.186861 61.3154376,169.778379 L77.0542342,196.880558 C77.980249,198.478947 79.6992504,199.466667 81.5504162,199.466667 L113.028873,199.466667 C114.876584,199.466667 116.600768,198.478947 117.527647,196.880558 L133.260397,169.778379 C134.187275,168.186861 134.187275,166.209703 133.260397,164.619045 L117.527647,137.516007 Z" id="Fill-9" fill="#161656"></path>
                <path d="M35.6979794,106.577778 C33.5996696,106.577778 31.6453277,105.462717 30.5970349,103.668738 L3.71901443,57.6675768 C2.67072163,55.8727461 2.67158371,53.6400687 3.7207386,51.8418307 L30.5961728,5.8423731 C31.6461898,4.0492461 33.6005317,2.93333333 35.6979794,2.93333333 L89.4574687,2.93333333 C91.5549164,2.93333333 93.5101204,4.0492461 94.5592753,5.84407679 L121.436434,51.8435343 C122.483864,53.6400687 122.484726,55.8727461 121.435572,57.6675768 L94.5592753,103.668738 C93.5109825,105.462717 91.5557785,106.577778 89.4574687,106.577778 L35.6979794,106.577778 Z" id="Fill-11" fill="#007bff"></path>
                <path d="M90.1381536,0 L35.9951797,0 C32.8131079,0 29.8515671,1.69460695 28.2609653,4.41869622 L1.19295135,50.8244592 C-0.397650449,53.5554232 -0.397650449,56.9377624 1.19295135,59.665289 L28.2609653,106.071052 C29.8515671,108.797719 32.8131079,110.488889 35.9951797,110.488889 L90.1381536,110.488889 C93.3202254,110.488889 96.280898,108.797719 97.8714998,106.071052 L124.940382,59.665289 C126.530984,56.9377624 126.530984,53.5554232 124.940382,50.8244592 L97.8714998,4.41869622 C96.280898,1.69460695 93.3202254,0 90.1381536,0 M90.1381536,5.932843 C91.1826372,5.932843 92.1576622,6.4914102 92.6803381,7.38511772 L119.747484,53.7883027 C120.271028,54.6871662 120.271028,55.802582 119.748352,56.6980082 L92.6803381,103.103771 C92.1576622,103.999197 91.1835054,104.556046 90.1381536,104.556046 L35.9951797,104.556046 C34.9498279,104.556046 33.9748029,103.999197 33.4529952,103.103771 L6.384113,56.6980082 C5.86143708,55.802582 5.86230531,54.6871662 6.384113,53.7908807 L33.4512588,7.38769572 C33.9748029,6.4914102 34.9506961,5.932843 35.9951797,5.932843 L90.1381536,5.932843" id="Fill-13" fill="#64f0ff"></path>
                <path d="M50.6069389,40.5163238 C50.6121043,33.885625 56.0013493,28.4951635 62.619962,28.5003384 C69.2394356,28.5063757 74.6192106,33.9054619 74.6140452,40.5361607 C74.6080189,47.1668595 69.2187739,52.5573209 62.6001612,52.5512836 C55.9806876,52.5461088 50.6009126,47.1461601 50.6069389,40.5163238 M72.8578056,55.3379365 C77.534224,52.0803729 80.6102259,46.6683496 80.6145305,40.5413355 C80.6231395,30.5952873 72.5530464,22.496658 62.6251274,22.4888958 C52.6972083,22.480271 44.6133408,30.5651007 44.6047318,40.5111489 C44.5995664,46.638163 47.6660985,52.0553611 52.3373514,55.3206871 C44.7562505,59.6244315 39.2327049,68.5441358 38.1333333,79.1586013 L44.164811,79.1637761 C45.5904643,67.4962301 53.3144749,58.5566889 62.5949958,58.5644511 C71.8755167,58.5722134 79.584892,67.5246918 80.9907445,79.1948252 L87.0222222,79.2 C85.9400687,68.5838096 80.4320193,59.6537556 72.8578056,55.3379365" id="Fill-15" fill="#ffffff"></path>
                <path d="M91.5534982,162.835189 C91.5560639,159.405566 94.3577594,156.61772 97.8000135,156.620276 C101.241412,156.623686 104.039687,159.415794 104.036266,162.846268 C104.032845,166.275891 101.230294,169.063737 97.7897508,169.061181 C94.348352,169.057771 91.5500774,166.264811 91.5534982,162.835189 M103.122893,170.501554 C105.555134,168.817425 107.153537,166.016794 107.156958,162.848825 C107.161234,157.703539 102.964677,153.514525 97.8025791,153.511116 C92.6404808,153.506002 88.4362272,157.688198 88.4328063,162.832632 C88.4302406,166.002305 90.0243677,168.803788 92.453188,170.493031 C88.5106312,172.719217 85.6388078,177.333525 85.0666667,182.823137 L88.2027525,182.825694 C88.9442269,176.791468 92.9611877,172.16608 97.78633,172.170341 C102.613183,172.174603 106.620736,176.805957 107.352803,182.841888 L110.488889,182.844444 C109.9253,177.353128 107.062029,172.734559 103.122893,170.501554" id="Fill-17" fill="#007bff"></path>
                <path d="M172.728948,89.4121447 C172.732331,85.2971081 175.965467,81.9507375 179.936905,81.9542434 C183.908343,81.9577493 187.136405,85.3085022 187.133023,89.4252918 C187.128794,93.5403285 183.895658,96.8858226 179.925065,96.8814402 C175.953627,96.8788108 172.725565,93.5271814 172.728948,89.4121447 M186.079272,98.6115962 C188.885327,96.589575 190.730658,93.2300573 190.734041,89.4279212 C190.739116,83.254928 185.8966,78.2274839 179.939442,78.2222251 C173.983131,78.2178427 169.133003,83.2356457 169.127929,89.4086389 C169.125392,93.2116514 170.964804,96.574675 173.768321,98.6002021 C169.219265,101.271689 165.905787,106.80924 165.244444,113.395928 L168.864069,113.399434 C169.719078,106.158021 174.35355,100.609076 179.921682,100.613459 C185.49066,100.618717 190.11583,106.176427 190.959845,113.419593 L194.577778,113.422222 C193.928275,106.832905 190.624099,101.290971 186.079272,98.6115962" id="Fill-19" fill="#ffffff"></path>
                <path d="M185.777778,150.577778 C175.130136,164.227637 160.577814,174.852736 143.733333,180.888889" id="Stroke-21" stroke="#161656" stroke-width="8" stroke-linecap="round" stroke-linejoin="round"></path>
                <path d="M47.9111111,162.311111 C34.9498275,150.416451 25.2936277,134.909286 20.5333333,117.333333" id="Stroke-23" stroke="#64f0ff" stroke-width="8" stroke-linecap="round" stroke-linejoin="round"></path>
                <g id="Group-27" opacity="0.3" transform="translate(41.066667, 207.288889)">
                    <mask id="mask-2" fill="white">
                        <use xlink:href="#path-1"></use>
                    </mask>
                    <g id="Clip-26"></g>
                    <path d="M127.805374,6.3543559 C127.805374,9.82369949 99.2002883,12.6359764 63.9130889,12.6359764 C28.6258895,12.6359764 0.0208036987,9.82369949 0.0208036987,6.3543559 C0.0208036987,2.88501231 28.6258895,0.0727353846 63.9130889,0.0727353846 C99.2002883,0.0727353846 127.805374,2.88501231 127.805374,6.3543559" id="Fill-25" fill="#161656" mask="url(#mask-2)"></path>
                </g>
            </g>
        </g>
    </g>
</svg>