<?xml version="1.0" encoding="utf-8"?>
<svg version="1.1" id="Layer_1" xmlns="http://www.w3.org/2000/svg" xmlns:xlink="http://www.w3.org/1999/xlink" x="0px" y="0px"
	 viewBox="0 0 304.3 125" style="enable-background:new 0 0 304.3 125;" xml:space="preserve">
<style type="text/css">
	.st0{fill:#FFFFFF;}
	.st1{fill:#FF6F00;}
	.st2{opacity:0.2;fill:url(#SVGID_1_);enable-background:new    ;}
	.st3{fill:#0065A4;}
</style>
<polygon id="Fill-1" class="st0" points="-11.6,0 -11.6,125 268.3,125 304.3,0 62.3,0 "/>
<polygon id="Fill-2" class="st1" points="268.2,125 -11.7,125 -11.7,69 284.6,69 "/>
<linearGradient id="SVGID_1_" gradientUnits="userSpaceOnUse" x1="-11.6" y1="1658.6102" x2="48.9" y2="1658.6102" gradientTransform="matrix(1 0 0 1 0 -1596.1102)">
	<stop  offset="0" style="stop-color:#000000"/>
	<stop  offset="1" style="stop-color:#000000;stop-opacity:0"/>
</linearGradient>
<rect x="-11.6" class="st2" width="60.5" height="125"/>
<g>
	<path id="Fill-16" class="st3" d="M221.7,49.8v-1.1h0.7c0.4,0,0.7,0.1,0.7,0.5c0,0.5-0.4,0.6-0.8,0.6H221.7z M221.7,50.2h0.6
		l0.9,1.5h0.6l-1-1.5c0.5-0.1,0.9-0.3,0.9-1s-0.4-1-1.2-1h-1.3v3.5h0.5V50.2z M222.3,53c1.6,0,3-1.3,3-3s-1.4-3-3-3s-3,1.3-3,3
		S220.7,53,222.3,53z M219.9,50c0-1.4,1.1-2.5,2.4-2.5c1.3,0,2.4,1.1,2.4,2.5s-1.1,2.5-2.4,2.5S219.9,51.4,219.9,50z"/>
	<path id="Fill-11" class="st3" d="M223.3,27.7l-0.5,5.2h-2.1c-3.5,0-5.2,2.8-5.2,5.3v11.9h-6.1V27.7h5.8l0.2,2.8
		c1.2-1.9,3.3-2.8,5.9-2.8H223.3z"/>
	<path id="Fill-12" class="st3" d="M180.9,50.2h-6.1V38.3c0-2.4-0.2-5.5-3.8-5.5c-3.3,0-4.7,2.4-4.7,5.2v12.2h-6.1V27.8h5.8v2.9
		c1.2-1.9,3.5-3.5,6.8-3.5c6.3,0,8.2,4.3,8.2,8.8L180.9,50.2z"/>
	<path id="Fill-13" class="st3" d="M157.6,44.9l-0.3,5.2c-1.6,0.3-2.8,0.5-4.4,0.5c-5.8,0-7.5-2.6-7.5-7.7V21.7h6.1v6.2h6.1
		l-0.3,5.2h-5.8v9.3c0,2.1,0.5,3.3,2.8,3.3C155.1,45.6,156.2,45.4,157.6,44.9"/>
	<path id="Fill-14" class="st3" d="M143.4,27.8l-0.5,5.2h-1.7c-3.3,0-5.1,2.8-5.1,5.3v11.9H130V27.8h5.8l0.2,2.8
		c1.2-1.9,3.3-2.8,5.9-2.8H143.4z"/>
	<path id="Fill-15" class="st3" d="M102.5,47.7c-4.2,2.2-8.4,3.5-13.8,3.5c-10.1-0.3-17.4-6.5-17.5-17c0-10.5,7.3-17.2,17.4-17.4
		c5.1,0,9.6,1.2,13.3,4.3l-4.4,4.3c-2.3-1.7-5.4-2.9-9.2-2.7C81.8,22.9,78,27.4,78,33.8c-0.2,6.7,4,11.4,10.7,11.5
		c3.1,0.2,5.4-0.4,7.3-1.2v-6.9h-7l0.5-5.7h12.9L102.5,47.7z"/>
	<path id="Fill-16_1_" class="st3" d="M200.4,36.4c-0.2-2.8-2.3-4.7-5.2-4.5c-3,0.2-5.1,2.1-5.4,4.5H200.4z M206.5,41h-16.7
		c0.5,2.9,2.8,4.6,5.6,4.6c2.8,0.2,4.4-0.7,6.3-2.8l4,3.1c-2.8,3.5-6.3,4.7-10.1,4.7c-6.8,0-11.9-4.6-11.9-11.7s5-11.7,11.7-11.7
		c7.2,0,11.2,4.3,11.2,12L206.5,41z"/>
	<path id="Fill-17" class="st3" d="M120.2,40.4h-0.9c-2.8,0-8,0.2-7.8,3.1c0,4.3,8.7,2.9,8.7-2.1L120.2,40.4z M126.2,35.6v14.6h-5.4
		l-0.2-2.2c-1.6,2.1-4.4,2.8-7.1,2.8c-4,0-8-2.1-8-6.7c-0.2-7.4,8.4-7.9,13.8-7.9h1v-0.3c0-2.4-1.6-3.8-4.7-3.8
		c-2.3,0-4.4,0.9-6.1,2.4l-3.5-3.6c3.1-2.6,6.4-3.5,10.1-3.5C123,27.3,126.1,30.6,126.2,35.6z"/>
</g>
<g>
	<path class="st0" d="M79.4,92.1h-1.7c-0.1-0.2-0.1-0.8-0.1-1.1c-0.4,0.9-1.2,1.3-2.1,1.3c-2.1,0-2.7-1.5-2.7-3.9v-6.6
		c0-2.3,0.9-4,3.3-4c2.9,0,3.3,2.2,3.3,3.7V82h-2.2v-0.6c0-0.7-0.1-1.6-1.1-1.6c-0.8,0-1.1,0.5-1.1,1.7v7.2c0,1.1,0.3,1.7,1.1,1.7
		c0.9,0,1.2-0.8,1.2-2.2v-2H76v-1.9h3.4V92.1z"/>
	<path class="st0" d="M81.3,78.1h2.2v12.1H87l-0.2,1.9h-5.5V78.1z"/>
	<path class="st0" d="M94.6,81.8v6.5c0,2.7-1.1,4-3.5,4c-2.3,0-3.3-1.3-3.3-3.9v-6.6c0-2.7,1.4-3.9,3.4-3.9
		C93.4,77.9,94.6,79.1,94.6,81.8z M90,81.6v7.1c0,1.2,0.4,1.7,1.2,1.7c0.8,0,1.2-0.5,1.2-1.7v-7c0-1.1-0.3-1.7-1.2-1.7
		C90.4,79.9,90,80.4,90,81.6z"/>
	<path class="st0" d="M96.3,78.1h2.9c2.4,0,3.4,1.1,3.4,3.2v0.5c0,2-0.7,2.6-1.3,2.8c0.6,0.2,1.6,0.8,1.6,2.8v1.1
		c0,2.4-1,3.6-3.4,3.6h-3.1V78.1z M99,83.8c1.2,0,1.6-0.4,1.6-1.8v-0.5c0-1.2-0.4-1.6-1.4-1.6h-0.7v3.9H99z M98.4,90.4h0.7
		c1.2,0,1.6-0.6,1.6-1.9v-0.9c0-1.4-0.3-2-1.7-2h-0.6V90.4z"/>
	<path class="st0" d="M106.4,88.4l-0.5,3.8h-2.2l2.3-14h3.1l2.3,14h-2.3l-0.6-3.8H106.4z M108.3,86.4c-0.3-2.4-0.6-4.6-0.8-6.2h-0.1
		c-0.1,1.2-0.5,4.2-0.8,6.2H108.3z"/>
	<path class="st0" d="M112.6,78.1h2.2v12.1h3.5l-0.2,1.9h-5.5V78.1z"/>
	<path class="st0" d="M123.5,80.1h-2.3v-2h6.7v2h-2.3v12h-2.2V80.1z"/>
	<path class="st0" d="M135.5,81.8v6.5c0,2.7-1.1,4-3.5,4c-2.3,0-3.3-1.3-3.3-3.9v-6.6c0-2.7,1.4-3.9,3.4-3.9
		C134.2,77.9,135.5,79.1,135.5,81.8z M130.9,81.6v7.1c0,1.2,0.4,1.7,1.2,1.7c0.8,0,1.2-0.5,1.2-1.7v-7c0-1.1-0.3-1.7-1.2-1.7
		C131.3,79.9,130.9,80.4,130.9,81.6z"/>
	<path class="st0" d="M137.2,78.1h3.1c2.2,0,3.4,1.1,3.4,3.6v0.8c0,2.3-0.8,3.9-3.5,3.9h-0.8v5.8h-2.2V78.1z M139.4,84.6h0.6
		c1.3,0,1.6-0.8,1.6-2.2v-0.7c0-1-0.2-1.9-1.4-1.9h-0.8V84.6z"/>
	<path class="st0" d="M147.4,92.1v-0.2c0-2.8,0.9-4.1,2.5-6.4c1.2-1.8,1.5-2.4,1.5-3.9c0-1.2-0.1-1.9-0.9-1.9c-0.7,0-1,0.5-1,1.5
		v0.7h-2.1v-0.8c0-1.6,0.5-3.3,3.1-3.3c2.4,0,3.1,1.6,3.1,3.6c0,2.3-0.6,3-1.8,4.9c-1,1.4-1.8,2.6-1.9,3.8h4.1l-0.3,1.9H147.4z"/>
	<path class="st0" d="M161.7,81.6v6.8c0,2.1-0.6,3.9-3.4,3.9c-2.5,0-3.2-1.8-3.2-3.8v-6.8c0-2.1,1-3.7,3.3-3.7
		C160.8,77.9,161.7,79.7,161.7,81.6z M157.3,81.4v7.3c0,0.9,0.3,1.6,1.1,1.6c0.8,0,1.1-0.6,1.1-1.6v-7.3c0-1-0.3-1.5-1.1-1.5
		C157.6,79.9,157.3,80.5,157.3,81.4z"/>
	<path class="st0" d="M166.3,78.1h2.9c2.4,0,3.4,1.1,3.4,3.2v0.5c0,2-0.7,2.6-1.3,2.8c0.6,0.2,1.6,0.8,1.6,2.8v1.1
		c0,2.4-1,3.6-3.4,3.6h-3.1V78.1z M169,83.8c1.2,0,1.6-0.4,1.6-1.8v-0.5c0-1.2-0.4-1.6-1.4-1.6h-0.7v3.9H169z M168.4,90.4h0.7
		c1.2,0,1.6-0.6,1.6-1.9v-0.9c0-1.4-0.3-2-1.7-2h-0.6V90.4z"/>
	<path class="st0" d="M174.3,78.1h2.2v12.1h3.5l-0.2,1.9h-5.5V78.1z"/>
	<path class="st0" d="M187.6,81.8v6.5c0,2.7-1.1,4-3.5,4c-2.3,0-3.3-1.3-3.3-3.9v-6.6c0-2.7,1.4-3.9,3.4-3.9
		C186.4,77.9,187.6,79.1,187.6,81.8z M183,81.6v7.1c0,1.2,0.4,1.7,1.2,1.7c0.8,0,1.2-0.5,1.2-1.7v-7c0-1.1-0.3-1.7-1.2-1.7
		C183.4,79.9,183,80.4,183,81.6z"/>
	<path class="st0" d="M195.5,87.9v0.5c0,1.6-0.3,3.9-3.2,3.9c-2.6,0-3.1-1.6-3.1-3.8v-7.1c0-2.2,1-3.6,3.2-3.6
		c2.6,0,3.1,1.7,3.1,3.7v0.6h-2.2v-0.9c0-0.9-0.2-1.5-1-1.5c-0.7,0-1,0.5-1,1.5v7.4c0,0.9,0.2,1.6,1,1.6c0.8,0,1-0.6,1-1.7v-0.8
		H195.5z"/>
	<path class="st0" d="M196.9,78.1h2.1v6.3h0c0.5-1.4,1.7-4.4,2.5-6.3h2.4l-2.6,5.4l2.7,8.6h-2.4l-1.8-6.3l-0.9,1.9v4.4h-2.1V78.1z"
		/>
	<path class="st0" d="M211.1,87.9v0.5c0,1.6-0.3,3.9-3.2,3.9c-2.6,0-3.1-1.6-3.1-3.8v-7.1c0-2.2,1-3.6,3.2-3.6
		c2.6,0,3.1,1.7,3.1,3.7v0.6h-2.2v-0.9c0-0.9-0.2-1.5-1-1.5c-0.7,0-1,0.5-1,1.5v7.4c0,0.9,0.2,1.6,1,1.6c0.8,0,1-0.6,1-1.7v-0.8
		H211.1z"/>
	<path class="st0" d="M212.5,78.1h2.2v5.5h2.3v-5.5h2.2v14h-2.2v-6.5h-2.3v6.5h-2.2V78.1z"/>
	<path class="st0" d="M223,88.4l-0.5,3.8h-2.2l2.3-14h3.1l2.3,14h-2.3l-0.6-3.8H223z M224.9,86.4c-0.3-2.4-0.6-4.6-0.8-6.2H224
		c-0.1,1.2-0.5,4.2-0.8,6.2H224.9z"/>
	<path class="st0" d="M231.3,78.1v14h-2.2v-14H231.3z"/>
	<path class="st0" d="M233.3,92.1v-14h2.5c0.6,2,2.2,8.9,2.4,9.6h0c-0.1-1.7-0.1-3.7-0.1-6v-3.6h2v14h-2.4c-0.4-1.7-2.3-9.4-2.4-10
		h0c0.1,1.7,0.1,3.6,0.1,6.1v3.8H233.3z"/>
	<path class="st0" d="M79.2,109.9v0.5c0,1.6-0.3,3.9-3.2,3.9c-2.6,0-3.1-1.6-3.1-3.8v-7.1c0-2.2,1-3.6,3.2-3.6
		c2.6,0,3.1,1.7,3.1,3.7v0.6h-2.2v-0.9c0-0.9-0.2-1.5-1-1.5c-0.7,0-1,0.5-1,1.5v7.4c0,0.9,0.2,1.6,1,1.6c0.8,0,1-0.6,1-1.7v-0.8
		H79.2z"/>
	<path class="st0" d="M87.3,103.8v6.5c0,2.7-1.1,4-3.5,4c-2.3,0-3.3-1.3-3.3-3.9v-6.6c0-2.7,1.4-3.9,3.4-3.9
		C86.1,99.9,87.3,101.1,87.3,103.8z M82.7,103.6v7.1c0,1.2,0.4,1.7,1.2,1.7c0.8,0,1.2-0.5,1.2-1.7v-7c0-1.1-0.3-1.7-1.2-1.7
		C83.1,101.9,82.7,102.4,82.7,103.6z"/>
	<path class="st0" d="M89.1,114.1v-14h2.5c0.6,2,2.2,8.9,2.4,9.6h0c-0.1-1.7-0.1-3.7-0.1-6v-3.6h2v14h-2.4c-0.4-1.7-2.3-9.4-2.4-10
		h0c0.1,1.7,0.1,3.6,0.1,6.1v3.8H89.1z"/>
	<path class="st0" d="M99.4,110v0.9c0,1,0.3,1.6,1.1,1.6c0.8,0,1.1-0.8,1.1-1.7c0-1.5-0.3-2-1.8-3.2c-1.5-1.2-2.3-2-2.3-4
		c0-1.8,0.6-3.7,3.1-3.7c2.6,0,3,1.8,3,3.4v0.7h-2.1v-0.7c0-1-0.2-1.6-0.9-1.6c-0.7,0-0.9,0.6-0.9,1.5c0,1,0.2,1.5,1.4,2.4
		c2.1,1.6,2.7,2.5,2.7,4.8c0,2-0.7,3.9-3.3,3.9c-2.6,0-3.2-1.7-3.2-3.5V110H99.4z"/>
	<path class="st0" d="M107.4,100.1v10.7c0,1,0.3,1.6,1.2,1.6c0.9,0,1.1-0.7,1.1-1.6v-10.7h2.2v10.6c0,2.2-1,3.6-3.3,3.6
		c-2.2,0-3.3-1.2-3.3-3.6v-10.6H107.4z"/>
	<path class="st0" d="M113.8,100.1h2.2v12.1h3.5l-0.2,1.9h-5.5V100.1z"/>
	<path class="st0" d="M120.8,102.1h-2.3v-2h6.7v2h-2.3v12h-2.2V102.1z"/>
	<path class="st0" d="M128.4,100.1v14h-2.2v-14H128.4z"/>
	<path class="st0" d="M130.5,114.1v-14h2.5c0.6,2,2.2,8.9,2.4,9.6h0c-0.1-1.7-0.1-3.7-0.1-6v-3.6h2v14h-2.4c-0.4-1.7-2.3-9.4-2.4-10
		h0c0.1,1.7,0.1,3.6,0.1,6.1v3.8H130.5z"/>
	<path class="st0" d="M145.6,114.1h-1.7c-0.1-0.2-0.1-0.8-0.1-1.1c-0.4,0.9-1.2,1.3-2.1,1.3c-2.1,0-2.7-1.5-2.7-3.9v-6.6
		c0-2.3,0.9-4,3.3-4c2.9,0,3.3,2.2,3.3,3.7v0.5h-2.2v-0.6c0-0.7-0.1-1.6-1.1-1.6c-0.8,0-1.1,0.5-1.1,1.7v7.2c0,1.1,0.3,1.7,1.1,1.7
		c0.9,0,1.2-0.8,1.2-2.2v-2h-1.2v-1.9h3.4V114.1z"/>
	<path class="st0" d="M150.4,100.1h5.5v2h-3.3v3.7h3.1v2h-3.1v6.3h-2.2V100.1z"/>
	<path class="st0" d="M159.4,100.1v14h-2.2v-14H159.4z"/>
	<path class="st0" d="M163.6,107.9v6.3h-2.2v-14h3c2.1,0,3.4,0.9,3.4,3.4v0.5c0,2.2-0.9,2.7-1.4,2.9c0.8,0.4,1.3,1,1.3,2.9
		c0,1.2,0,3.5,0.1,4.3h-2.1c-0.2-0.8-0.1-3.2-0.1-4.2c0-1.7-0.2-2.1-1.5-2.1H163.6z M163.6,106.1h0.5c1.1,0,1.6-0.4,1.6-2v-0.5
		c0-1.1-0.2-1.7-1.5-1.7h-0.6V106.1z"/>
	<path class="st0" d="M176.6,108.9c0-2.4,0-5.4,0.1-7h0c-0.3,2.4-1.1,8.1-1.7,12.2h-2c-0.5-3.6-1.2-9.6-1.6-12.2h0
		c0,1.6,0.1,4.8,0.1,7.2v5h-2v-14h3.2c0.5,3.6,1.1,7.6,1.3,9.5h0c0.2-2,1-6.2,1.5-9.5h3.1v14h-2.1V108.9z"/>
	<path class="st0" d="M183,114.1v-0.2c0-2.8,0.9-4.1,2.5-6.4c1.2-1.8,1.5-2.4,1.5-3.9c0-1.2-0.1-1.9-0.9-1.9c-0.7,0-1,0.5-1,1.5v0.7
		H183v-0.8c0-1.6,0.5-3.3,3.1-3.3c2.4,0,3.1,1.6,3.1,3.6c0,2.3-0.6,3-1.8,4.9c-1,1.4-1.8,2.6-1.9,3.8h4.1l-0.3,1.9H183z"/>
	<path class="st0" d="M197.2,103.6v6.8c0,2.1-0.6,3.9-3.4,3.9c-2.5,0-3.2-1.8-3.2-3.8v-6.8c0-2.1,1-3.7,3.3-3.7
		C196.4,99.9,197.2,101.7,197.2,103.6z M192.8,103.4v7.3c0,0.9,0.3,1.6,1.1,1.6c0.8,0,1.1-0.6,1.1-1.6v-7.3c0-1-0.3-1.5-1.1-1.5
		C193.1,101.9,192.8,102.5,192.8,103.4z"/>
	<path class="st0" d="M199.6,114.1v-11.5c-0.3,0.1-1,0.1-1.4,0V101c0.9-0.1,1.5-0.5,1.9-1h1.6v14.1H199.6z"/>
	<path class="st0" d="M209.4,100.1v1.7c-1.8,3.5-2.9,7.6-3.4,12.3h-2.3c0.4-4.5,1.9-9.2,3.4-12h-3.9v-2H209.4z"/>
	<path class="st0" d="M214,105.8v2h-3.8v-2H214z"/>
	<path class="st0" d="M214.7,114.1v-0.2c0-2.8,0.9-4.1,2.5-6.4c1.2-1.8,1.5-2.4,1.5-3.9c0-1.2-0.1-1.9-0.9-1.9c-0.7,0-1,0.5-1,1.5
		v0.7h-2.1v-0.8c0-1.6,0.5-3.3,3.1-3.3c2.4,0,3.1,1.6,3.1,3.6c0,2.3-0.6,3-1.8,4.9c-1,1.4-1.8,2.6-1.9,3.8h4.1l-0.3,1.9H214.7z"/>
	<path class="st0" d="M229,103.6v6.8c0,2.1-0.6,3.9-3.4,3.9c-2.5,0-3.2-1.8-3.2-3.8v-6.8c0-2.1,1-3.7,3.3-3.7
		C228.1,99.9,229,101.7,229,103.6z M224.6,103.4v7.3c0,0.9,0.3,1.6,1.1,1.6c0.8,0,1.1-0.6,1.1-1.6v-7.3c0-1-0.3-1.5-1.1-1.5
		C224.9,101.9,224.6,102.5,224.6,103.4z"/>
	<path class="st0" d="M230.2,114.1v-0.2c0-2.8,0.9-4.1,2.5-6.4c1.2-1.8,1.5-2.4,1.5-3.9c0-1.2-0.1-1.9-0.9-1.9c-0.7,0-1,0.5-1,1.5
		v0.7h-2.1v-0.8c0-1.6,0.5-3.3,3.1-3.3c2.4,0,3.1,1.6,3.1,3.6c0,2.3-0.6,3-1.8,4.9c-1,1.4-1.8,2.6-1.9,3.8h4.1l-0.3,1.9H230.2z"/>
	<path class="st0" d="M244.5,103.6v6.8c0,2.1-0.6,3.9-3.4,3.9c-2.5,0-3.2-1.8-3.2-3.8v-6.8c0-2.1,1-3.7,3.3-3.7
		C243.6,99.9,244.5,101.7,244.5,103.6z M240.1,103.4v7.3c0,0.9,0.3,1.6,1.1,1.6c0.8,0,1.1-0.6,1.1-1.6v-7.3c0-1-0.3-1.5-1.1-1.5
		C240.4,101.9,240.1,102.5,240.1,103.4z"/>
</g>
</svg>
