<svg width="136" height="136" viewBox="0 0 136 136" fill="none" xmlns="http://www.w3.org/2000/svg">
<path d="M69.916 50.1441C69.916 55.2023 71.5478 59.661 74.8253 63.3622C77.0604 66.0158 81.2793 68.5358 86.8624 71.042" stroke="#64F0FF" stroke-width="4" stroke-linecap="round"/>
<path d="M93.1872 74.3254L93.2116 74.3405L93.2363 74.3551C94.891 75.3323 95.9997 76.1339 96.669 76.7541C97.7576 77.8389 98.398 79.3197 98.398 81.5004C98.398 83.9832 97.6146 85.7934 96.1514 87.1976L96.1508 87.1982C94.6103 88.6772 92.7099 89.4469 90.2411 89.4469C87.5797 89.4469 85.7523 88.7395 84.4566 87.5816C83.5484 86.6544 82.6181 85.1836 81.7304 83.0415C80.9218 81.0903 78.8895 79.8617 76.8307 80.3331L69.1738 82.0864C67.0222 82.5791 65.6543 84.7304 66.3141 86.8368C67.7866 91.538 69.8534 95.3758 72.639 98.1635C75.6815 101.208 79.7712 103.215 84.6975 104.345V109.56C84.6975 111.77 86.4883 113.56 88.6975 113.56H94.1617C96.3709 113.56 98.1617 111.77 98.1617 109.56V103.83" stroke="#007BFF" stroke-width="4" stroke-linecap="round"/>
<path d="M109.203 95.9526C112.562 91.6683 114.24 86.6969 114.24 81.1549C114.24 75.4659 112.36 70.4946 108.591 66.4114C107.172 64.8209 105.198 63.3126 102.807 61.8576" stroke="#FF6F00" stroke-width="4" stroke-linecap="round"/>
<path d="M74.4766 37.5797L74.4796 37.5761C75.9829 35.8324 77.8026 34.3587 79.9045 33.1427C81.3861 32.2855 82.9865 31.5705 84.6976 30.9907V25.7607C84.6976 23.5515 86.4885 21.7607 88.6976 21.7607H94.1619C96.371 21.7607 98.1619 23.5515 98.1619 25.7607V30.7921C100.904 31.5027 103.332 32.6333 105.377 34.2432C107.11 35.6075 108.713 37.3981 110.207 39.5552C111.464 41.371 110.747 43.8262 108.817 44.9015L102.235 48.5703C100.297 49.6503 97.9407 48.8446 96.3634 47.2846C94.8057 45.744 93.1355 45.1389 91.3649 45.1389C89.4552 45.1389 88.0835 45.6836 87.0244 46.6338C85.9785 47.5722 85.4986 48.6466 85.4986 50.0579C85.4986 51.3812 85.9053 52.3127 86.6657 53.0737C87.5714 53.98 89.7969 55.3675 93.829 57.1832L93.8341 57.1855L93.8392 57.1878" stroke="#007BFF" stroke-width="4" stroke-linecap="round"/>
<path d="M38.0801 27.2007H46.2401" stroke="#161656" stroke-width="2" stroke-linecap="round" stroke-linejoin="round"/>
<path d="M24.4805 40.8007H57.1205" stroke="#64F0FF" stroke-width="2" stroke-linecap="round" stroke-linejoin="round"/>
<path d="M10.8809 54.4006H40.8009" stroke="#007BFF" stroke-width="4" stroke-linecap="round" stroke-linejoin="round"/>
<path d="M48.9609 54.4006H59.8409" stroke="#161656" stroke-width="4" stroke-linecap="round" stroke-linejoin="round"/>
<path d="M40.8008 70.7206H68.0008" stroke="#007BFF" stroke-width="2" stroke-linecap="round" stroke-linejoin="round"/>
<path d="M54.4004 27.2007H73.4404" stroke="#FF6F00" stroke-width="4" stroke-linecap="round" stroke-linejoin="round"/>
</svg>
