<svg width="136" height="136" viewBox="0 0 136 136" fill="none" xmlns="http://www.w3.org/2000/svg">
<path d="M7.45305 68.7077C7.84357 69.0982 8.47674 69.0982 8.86726 68.7077L15.2312 62.3437C15.6217 61.9532 15.6217 61.32 15.2312 60.9295C14.8407 60.539 14.2075 60.539 13.817 60.9295L8.16016 66.5863L2.5033 60.9295C2.11278 60.539 1.47961 60.539 1.08909 60.9295C0.698564 61.32 0.698564 61.9532 1.08909 62.3437L7.45305 68.7077ZM29.5539 23.4568C29.9718 23.0958 30.0179 22.4643 29.6569 22.0463C29.2958 21.6284 28.6644 21.5823 28.2464 21.9433L29.5539 23.4568ZM9.16016 68.0006C9.16016 50.2008 17.0626 34.248 29.5539 23.4568L28.2464 21.9433C15.3341 33.0982 7.16016 49.5954 7.16016 68.0006H9.16016Z" fill="#007BFF"/>
<path d="M124.53 51.6185C124.684 52.1491 125.238 52.4547 125.769 52.3013C126.299 52.1478 126.605 51.5933 126.452 51.0628L124.53 51.6185ZM52.8657 9.35646C52.5793 9.82865 52.7298 10.4436 53.202 10.7301L60.8969 15.3981C61.369 15.6845 61.984 15.5339 62.2705 15.0617C62.5569 14.5895 62.4064 13.9745 61.9342 13.6881L55.0943 9.5388L59.2436 2.69897C59.5301 2.22677 59.3795 1.61177 58.9073 1.32532C58.4351 1.03888 57.8201 1.18945 57.5337 1.66164L52.8657 9.35646ZM68.0007 9.16064C94.8108 9.16064 117.435 27.0923 124.53 51.6185L126.452 51.0628C119.116 25.7041 95.7251 7.16064 68.0007 7.16064V9.16064ZM53.9585 10.8464C58.4573 9.74496 63.1601 9.16064 68.0007 9.16064V7.16064C62.9986 7.16064 58.1362 7.76452 53.4829 8.90381L53.9585 10.8464Z" fill="#161656"/>
<path d="M128.547 67.2935C128.157 66.903 127.523 66.903 127.133 67.2935L120.769 73.6575C120.378 74.048 120.378 74.6812 120.769 75.0717C121.159 75.4622 121.793 75.4622 122.183 75.0717L127.84 69.4148L133.497 75.0717C133.887 75.4622 134.52 75.4622 134.911 75.0717C135.302 74.6812 135.302 74.048 134.911 73.6575L128.547 67.2935ZM47.2722 123.086C46.7554 122.892 46.1786 123.153 45.984 123.67C45.7895 124.187 46.0507 124.763 46.5676 124.958L47.2722 123.086ZM126.84 68.0006C126.84 100.497 100.496 126.841 67.9999 126.841V128.841C101.601 128.841 128.84 101.602 128.84 68.0006H126.84ZM67.9999 126.841C60.7026 126.841 53.7177 125.513 47.2722 123.086L46.5676 124.958C53.2349 127.468 60.4583 128.841 67.9999 128.841V126.841Z" fill="#FF6F00"/>
<path d="M68.0008 21.7606C42.4631 21.7606 21.7608 42.463 21.7608 68.0006C21.7608 93.5383 42.4631 114.241 68.0008 114.241C75.8332 114.241 83.2108 112.293 89.6758 108.856" stroke="#64F0FF" stroke-width="4" stroke-linecap="round"/>
<path d="M102.319 98.9909C109.728 90.7909 114.24 79.9227 114.24 68.0007C114.24 50.2954 104.289 34.9144 89.6752 27.145" stroke="#007BFF" stroke-width="4" stroke-linecap="round"/>
<path d="M52.5676 54.0366C52.5676 57.9708 53.8368 61.4387 56.386 64.3174C58.1243 66.3812 61.4058 68.3413 65.7481 70.2906C67.8007 71.2305 69.4322 72.0824 70.6671 72.8445L70.6861 72.8562L70.7053 72.8675C71.9923 73.6276 72.8546 74.2511 73.3751 74.7335C74.2218 75.5771 74.7199 76.7289 74.7199 78.425C74.7199 80.356 74.1107 81.764 72.9726 82.8561L72.9721 82.8566C71.774 84.0069 70.2959 84.6056 68.3757 84.6056C66.3057 84.6056 64.8844 84.0555 63.8766 83.1548C63.2839 82.5497 62.6791 81.6469 62.0919 80.3878C61.1993 78.4736 59.1903 77.2321 57.1315 77.7035L52.8554 78.6826C50.7038 79.1753 49.3262 81.3313 50.0424 83.4192C51.1653 86.6929 52.6876 89.3862 54.6852 91.3852C57.0516 93.7533 60.2324 95.3141 64.064 96.193V99.3605C64.064 101.57 65.8548 103.361 68.064 103.361H70.5362C72.7453 103.361 74.5362 101.57 74.5362 99.3605V95.7923" stroke="#007BFF" stroke-width="4" stroke-linecap="round"/>
<path d="M56.1152 44.2643L56.1176 44.2616C57.2869 42.9053 58.7021 41.7592 60.337 40.8134C61.4893 40.1467 62.734 39.5906 64.0649 39.1396V35.9607C64.0649 33.7516 65.8558 31.9607 68.0649 31.9607H70.5372C72.7463 31.9607 74.5372 33.7516 74.5372 35.9607V38.9851C76.6697 39.5378 78.5583 40.4172 80.1489 41.6694C81.2985 42.5743 82.3746 43.7206 83.3871 45.0791C84.707 46.85 83.9778 49.3164 82.0486 50.3917L78.4861 52.3773C76.5484 53.4573 74.2333 52.5642 72.464 51.226C71.4484 50.4578 70.3755 50.1438 69.2506 50.1438C67.7653 50.1438 66.6984 50.5674 65.8747 51.3064C65.0612 52.0363 64.6879 52.872 64.6879 53.9696C64.6879 54.9988 65.0042 55.7234 65.5957 56.3152C66.3001 57.0201 68.0311 58.0993 71.1672 59.5116L71.1711 59.5133L71.175 59.5151C73.9373 60.7716 76.2696 61.9813 78.1491 63.1471C80.0091 64.2788 81.5442 65.4519 82.6478 66.689C85.5798 69.8648 87.042 73.7314 87.042 78.1562C87.042 82.4666 85.7365 86.3333 83.1238 89.6655" stroke="#161656" stroke-width="4" stroke-linecap="round"/>
</svg>
