<svg width="136" height="136" viewBox="0 0 136 136" fill="none" xmlns="http://www.w3.org/2000/svg">
<path d="M67.9994 116.961C49.9728 116.961 35.3594 114.525 35.3594 111.521C35.3594 108.516 49.9728 106.081 67.9994 106.081C72.9863 106.081 77.712 106.267 81.9394 106.6" stroke="#007BFF" stroke-width="4" stroke-linecap="round"/>
<path d="M90.779 107.625C96.8617 108.613 100.639 109.993 100.639 111.521C100.639 114.156 89.3913 116.354 74.459 116.854" stroke="#161656" stroke-width="4" stroke-linecap="round"/>
<path d="M113.221 120.897C106.37 122.513 97.4849 123.757 87.3809 124.464" stroke="#161656" stroke-width="2" stroke-linecap="round"/>
<path d="M124.1 117.15C126.518 115.82 127.84 114.382 127.84 112.881C127.84 106.121 101.049 100.641 68.0002 100.641C34.9514 100.641 8.16016 106.121 8.16016 112.881C8.16016 119.641 34.9514 125.121 68.0002 125.121C71.2401 125.121 74.4199 125.068 77.5202 124.967" stroke="#64F0FF" stroke-width="2" stroke-linecap="round"/>
<ellipse cx="67.9991" cy="43.5206" rx="10.88" ry="10.88" stroke="#161656" stroke-width="4"/>
<path d="M94.9902 25.1606C98.5555 30.3916 100.64 36.7127 100.64 43.5206C100.64 48.2467 99.8185 52.8086 98.4329 57.1206" stroke="#FF6F00" stroke-width="4" stroke-linecap="round"/>
<path d="M85.3394 15.8624C80.3154 12.706 74.3706 10.8806 67.9994 10.8806C49.9728 10.8806 35.3594 25.494 35.3594 43.5206C35.3594 70.72 62.5594 92.4806 67.9994 92.4806C71.6793 92.4806 85.3163 82.5232 93.7555 67.6606" stroke="#007BFF" stroke-width="4" stroke-linecap="round"/>
</svg>
