<svg width="136" height="136" viewBox="0 0 136 136" fill="none" xmlns="http://www.w3.org/2000/svg">
<path d="M57.1191 116.96V127.84" stroke="#007BFF" stroke-width="2" stroke-linecap="round" stroke-linejoin="round"/>
<path d="M78.8789 116.96V125.12" stroke="#007BFF" stroke-width="4" stroke-linecap="round" stroke-linejoin="round"/>
<path d="M68 116.96V133.28" stroke="#007BFF" stroke-width="4" stroke-linecap="round" stroke-linejoin="round"/>
<path d="M35.3594 100.64V116.96" stroke="#007BFF" stroke-width="2" stroke-linecap="round" stroke-linejoin="round"/>
<path d="M46.2402 100.64V108.8" stroke="#007BFF" stroke-width="4" stroke-linecap="round" stroke-linejoin="round"/>
<path d="M46.2402 114.24V118.32" stroke="#64F0FF" stroke-width="2" stroke-linecap="round" stroke-linejoin="round"/>
<path d="M89.7598 100.64V111.52" stroke="#007BFF" stroke-width="2" stroke-linecap="round" stroke-linejoin="round"/>
<path d="M89.7598 116.96V122.4" stroke="#64F0FF" stroke-width="4" stroke-linecap="round" stroke-linejoin="round"/>
<path d="M100.639 100.64V114.24" stroke="#007BFF" stroke-width="2" stroke-linecap="round" stroke-linejoin="round"/>
<path d="M68.0004 32.64C60.4893 32.64 54.4004 38.7289 54.4004 46.24C54.4004 53.7511 60.4893 59.84 68.0004 59.84C73.1208 59.84 77.5803 57.0102 79.9004 52.8292" stroke="#161656" stroke-width="4" stroke-linecap="round" stroke-linejoin="round"/>
<path d="M81.6003 46.24C81.6003 40.8568 78.4727 36.2042 73.9355 34" stroke="#64F0FF" stroke-width="4" stroke-linecap="round" stroke-linejoin="round"/>
<path d="M62.5605 21.7599H91.1205" stroke="#007BFF" stroke-width="2" stroke-linecap="round" stroke-linejoin="round"/>
<path d="M44.8809 21.7599H55.7609" stroke="#007BFF" stroke-width="2" stroke-linecap="round" stroke-linejoin="round"/>
<path d="M34.109 62.5599L30.1432 65.5125C23.5347 70.4326 18.9374 77.5849 17.206 85.6398V85.6398C16.7505 87.7588 18.3672 89.7573 20.5345 89.7545L35.3603 89.7356" stroke="#161656" stroke-width="4" stroke-linecap="round" stroke-linejoin="round"/>
<path d="M101.891 62.5599L105.857 65.5125C112.465 70.4326 117.063 77.5849 118.794 85.6398V85.6398C119.25 87.7588 117.633 89.7573 115.465 89.7545L100.64 89.7356" stroke="#161656" stroke-width="4" stroke-linecap="round" stroke-linejoin="round"/>
<path d="M68 70.72V95.2" stroke="#FF6F00" stroke-width="2" stroke-linecap="round" stroke-linejoin="round"/>
<path d="M57.1204 97.58L55.5985 103.858C54.9882 106.375 56.8954 108.8 59.4859 108.8H76.5148C79.1053 108.8 81.0126 106.375 80.4022 103.858L78.8804 97.58" stroke="#161656" stroke-width="4" stroke-linecap="round" stroke-linejoin="round"/>
<path d="M76.1601 89.76H92.4801L95.7978 43.3114C97.0538 25.7279 86.4933 9.44477 69.9263 3.42042V3.42042C68.682 2.96795 67.3181 2.96795 66.0738 3.42042V3.42042C49.5069 9.44477 38.9464 25.7279 40.2023 43.3114L43.5201 89.76H59.8401" stroke="#007BFF" stroke-width="4" stroke-linecap="round" stroke-linejoin="round"/>
</svg>
