<?xml version="1.0" encoding="utf-8"?>
<!-- Generator: Adobe Illustrator 26.0.3, SVG Export Plug-In . SVG Version: 6.00 Build 0)  -->
<svg version="1.1" xmlns="http://www.w3.org/2000/svg" xmlns:xlink="http://www.w3.org/1999/xlink" x="0px" y="0px"
	 viewBox="0 0 3414 480" style="enable-background:new 0 0 3414 480;" xml:space="preserve">
<style type="text/css">
	.st0{fill:#F8F8F8;}
	.st1{fill:#0C1731;}
	.st2{clip-path:url(#SVGID_00000057861025952310629550000003706584449882191007_);}
	.st3{clip-path:url(#SVGID_00000060023823335030213780000005679041639603759770_);fill:#0C1731;}
	
		.st4{clip-path:url(#SVGID_00000113347730831040718640000007052708352062303421_);fill:url(#SVGID_00000037693884362015138990000007253882364294076818_);}
	.st5{clip-path:url(#SVGID_00000010276116871396293700000001834106242207994021_);}
	.st6{clip-path:url(#SVGID_00000039839136519781065810000002437172391661037467_);fill:#0C1731;}
	.st7{clip-path:url(#SVGID_00000032629495670590664840000000755881953640054196_);fill:#0C1731;}
	
		.st8{clip-path:url(#SVGID_00000039856453376923725570000014259432844578146467_);fill:url(#SVGID_00000173159076870287306240000017668652219183729833_);}
	.st9{fill:url(#SVGID_00000156569637682900020780000010194528874443310254_);}
	.st10{fill:url(#SVGID_00000078748410188262578010000006058282953454767031_);}
</style>
<g id="background">
</g>
<g id="text">
	<g>
		<path class="st1" d="M662.2,393.7c-20.3-7.6-36.5-18.8-48.6-33.7c-12.1-14.9-18.1-32.9-18.1-53.9l0.2-3.5c0.2-3.7,3.3-6.7,7-6.7
			h54.2c4,0,7.2,3.4,7,7.4l0,0c0,13.6,6.1,24.5,18.1,32.6c12.1,8.1,29,12.1,50.7,12.1c22.9,0,39.5-3,49.8-9.1
			c10.2-6,15.3-14.2,15.3-24.4c0-9-3.3-16.5-10-22.6c-6.7-6-15-10.9-25.1-14.4c-10.1-3.6-23.9-7.8-41.6-12.8
			c-25.1-7.1-45.4-13.9-60.9-20.5c-15.5-6.5-28.8-16.2-40-29.1c-11.1-12.9-16.7-29.8-16.7-50.9c0-29.1,11.8-51.3,35.3-66.5
			c23.6-15.2,54.9-22.8,93.9-22.8c36.9,0,67,7.8,90.5,23.5c20.9,14,32.5,34.2,34.7,60.7c0.4,5.3-3.6,9.8-8.9,9.9l-49.3,1
			c-4.3,0.1-8.2-2.9-9.1-7.1c-1.8-8.4-6.9-15.3-15.3-20.6c-10.7-6.8-25.2-10.2-43.5-10.2c-19.5,0-34.5,2.6-44.9,7.9
			c-10.4,5.3-15.6,12.6-15.6,21.9c0,7.1,3.1,13.3,9.3,18.4c6.2,5.1,13.9,9.3,23.3,12.6c9.3,3.3,22.5,7.2,39.5,11.9
			c25.4,6.8,46.3,13.6,62.5,20.2c16.3,6.7,30.3,16.5,42.1,29.5c11.8,13,17.7,30.1,17.7,51.2c0,34.1-12.2,59.2-36.5,75.3
			c-24.3,16.1-57.6,24.2-99.8,24.2C704.9,405.1,682.5,401.3,662.2,393.7z"/>
		<path class="st1" d="M928.9,80.5H979c5,0,9.1,4.1,9.1,9.1v300.8c0,5-4.1,9.1-9.1,9.1h-50.2c-5,0-9.1-4.1-9.1-9.1V89.6
			C919.7,84.6,923.8,80.5,928.9,80.5z"/>
		<path class="st1" d="M1065.7,80.5h50.2c5,0,9.1,4.1,9.1,9.1v246.7c0,2.5,2,4.6,4.6,4.6h145.9c5,0,9.1,4.1,9.1,9.1v40.4
			c0,5-4.1,9.1-9.1,9.1h-209.8c-5,0-9.1-4.1-9.1-9.1V89.6C1056.5,84.6,1060.6,80.5,1065.7,80.5z"/>
		<path class="st1" d="M1344.3,80.5h207c5,0,9.1,4.1,9.1,9.1v39c0,5-4.1,9.1-9.1,9.1h-143.1c-2.5,0-4.6,2-4.6,4.6v61.1
			c0,2.5,2,4.6,4.6,4.6h122.7c5,0,9.1,4.1,9.1,9.1v39c0,5-4.1,9.1-9.1,9.1h-122.7c-2.5,0-4.6,2-4.6,4.6v68.1c0,2.5,2,4.6,4.6,4.6
			H1554c5,0,9.1,4.1,9.1,9.1v39c0,5-4.1,9.1-9.1,9.1h-209.8c-5,0-9.1-4.1-9.1-9.1V89.6C1335.1,84.6,1339.2,80.5,1344.3,80.5z"/>
		<path class="st1" d="M1640.7,80.5h54.4c3,0,5.8,1.5,7.5,3.9L1820,252.8c3.6,5.1,6.9,15,15,29.6c0.5,0.8,1.5,1.1,2.3,0.6l0,0
			c0.5-0.3,0.8-0.9,0.8-1.5l-1.3-26v-166c0-5,4.1-9.1,9.1-9.1h50.1c5,0,9.1,4.1,9.1,9.1v300.8c0,5-4.1,9.1-9.1,9.1h-54.4
			c-3,0-5.9-1.5-7.5-4l-115-169.7c-5.7-8-11.4-17.7-17.4-29.2c-0.4-0.8-1.5-1.1-2.3-0.6l0,0c-0.5,0.3-0.8,0.9-0.8,1.5
			c0.9,12.8,1.3,21.8,1.3,26.9v166c0,5-4.1,9.1-9.1,9.1h-50.1c-5,0-9.1-4.1-9.1-9.1V89.6C1631.6,84.6,1635.7,80.5,1640.7,80.5z"/>
		<path class="st1" d="M2047.7,138.6h-77.8c-5,0-9.1-4.1-9.1-9.1V89.6c0-5,4.1-9.1,9.1-9.1h232.6c5,0,9.1,4.1,9.1,9.1v39.9
			c0,5-4.1,9.1-9.1,9.1H2125c-2.5,0-4.6,2-4.6,4.6v247.2c0,5-4.1,9.1-9.1,9.1h-49.9c-5,0-9.1-4.1-9.1-9.1V143.2
			C2052.3,140.7,2050.2,138.6,2047.7,138.6z"/>
		<path class="st1" d="M2267.5,89.6c0-5,4.1-9.1,9.1-9.1h118.2c48.7,0,86.3,13.3,112.8,39.8c26.5,26.5,39.8,66.4,39.8,119.7
			c0,53.3-13.3,93.2-39.8,119.8c-26.5,26.5-64.1,39.8-112.8,39.8h-118.2c-5,0-9.1-4.1-9.1-9.1V89.6z M2394.9,342.3
			c27.3,0,48-8.3,62.1-24.9c14.1-16.6,21.2-40.1,21.2-70.5V233c0-30.4-7.1-53.9-21.2-70.5c-14.1-16.6-34.8-24.9-62.1-24.9h-54.4
			c-2.5,0-4.6,2-4.6,4.6v195.5c0,2.5,2,4.6,4.6,4.6H2394.9z"/>
		<path class="st1" d="M2690.5,80.5h72.2c3.8,0,7.1,2.3,8.5,5.8l117.5,300.8c2.3,6-2.1,12.4-8.5,12.4h-53.8c-3.8,0-7.2-2.4-8.5-5.9
			l-19.5-52c-0.7-1.8-2.4-3-4.3-3h-138.8c-1.9,0-3.6,1.2-4.3,3l-19.5,52c-1.3,3.6-4.7,5.9-8.5,5.9H2573c-6.4,0-10.8-6.5-8.5-12.4
			L2682,86.3C2683.3,82.8,2686.7,80.5,2690.5,80.5z M2769.3,282.3c3.2,0,5.4-3.2,4.3-6.2l-27.9-74.8c-3.7-9.8-10.2-30.4-19.7-61.7
			c-0.2-0.7-0.8-1.1-1.5-1.1h0c-0.7,0-1.3,0.5-1.5,1.1c-9.4,31.3-16,51.9-19.7,61.7l-27.9,74.8c-1.1,3,1.1,6.2,4.3,6.2H2769.3z"/>
		<path class="st1" d="M3214.9,80.5h72.2c3.8,0,7.1,2.3,8.5,5.8L3413,387.1c2.3,6-2.1,12.4-8.5,12.4h-53.8c-3.8,0-7.2-2.4-8.5-5.9
			l-19.5-52c-0.7-1.8-2.4-3-4.3-3h-138.8c-1.9,0-3.6,1.2-4.3,3l-19.5,52c-1.3,3.6-4.7,5.9-8.5,5.9h-50.1c-6.4,0-10.8-6.5-8.5-12.4
			l117.5-300.8C3207.7,82.8,3211.1,80.5,3214.9,80.5z M3293.7,282.3c3.2,0,5.4-3.2,4.3-6.2l-27.9-74.8c-3.7-9.8-10.2-30.4-19.7-61.7
			c-0.2-0.7-0.8-1.1-1.5-1.1l0,0c-0.7,0-1.3,0.5-1.5,1.1c-9.4,31.3-16,51.9-19.7,61.7l-27.9,74.8c-1.1,3,1.1,6.2,4.3,6.2H3293.7z"/>
		<path class="st1" d="M2950.3,138.6h-77.8c-5,0-9.1-4.1-9.1-9.1V89.6c0-5,4.1-9.1,9.1-9.1H3105c5,0,9.1,4.1,9.1,9.1v39.9
			c0,5-4.1,9.1-9.1,9.1h-77.5c-2.5,0-4.6,2-4.6,4.6v247.2c0,5-4.1,9.1-9.1,9.1h-49.9c-5,0-9.1-4.1-9.1-9.1V143.2
			C2954.8,140.7,2952.8,138.6,2950.3,138.6z"/>
	</g>
</g>
<g id="graphic">
	<g>
		<path class="st1" d="M400,480H80c-44.2,0-80-35.8-80-80V80C0,35.8,35.8,0,80,0h320c44.2,0,80,35.8,80,80v320
			C480,444.2,444.2,480,400,480z"/>
		
			<linearGradient id="SVGID_00000045618488581504635970000005896635197904013211_" gradientUnits="userSpaceOnUse" x1="50.4055" y1="306.7374" x2="417.1243" y2="173.2626">
			<stop  offset="0" style="stop-color:#8C78FF"/>
			<stop  offset="0.8" style="stop-color:#FFFFFF"/>
		</linearGradient>
		<path style="fill:url(#SVGID_00000045618488581504635970000005896635197904013211_);" d="M435.6,232c-2-0.2-4.1,1.7-5.7,4.9
			l-41-71.2c2.5-4.9,1.7-13.2-2.6-21c-1.6-3-3.6-5.7-5.7-7.8l1.8-22.3c4.9,2.9,9.2,3.8,11.2,1.9c1.3-1.3,1.4-3.6,0.5-6.5
			c-7.3-8.8-15.3-17-24-24.4c-2.8-0.9-5-0.8-6.3,0.4c-2,2-1.1,6.5,1.9,11.7l-27.8,0.3l-31.8-39c3.5-0.5,5.9-1.7,6.5-3.6
			c0.4-1.5-0.3-3.2-1.8-5c-11.6-4.4-23.5-7.8-35.5-10c-1.9,0.6-3.1,1.6-3.5,3c-1.3,4.3,6.9,10.5,18.2,13.8c1.8,0.5,3.5,0.9,5.2,1.2
			l32.4,39.7l-34.9,0.4c-2.5-5.1-7.8-9.5-14.7-11.5c-6.4-1.9-12.9-1.3-17.7,1.2l-22.6-16.4c2.7-1.9,4.4-4.3,4.5-7
			c0.2-6.6-9.2-12.1-21-12.4c-7.3-0.2-13.8,1.7-17.7,4.7l-14.7-3.3c2.8-2.5,4.1-5,3.4-7c-0.5-1.5-2.1-2.5-4.4-3
			c-5.8,1.5-11.6,3.3-17.3,5.4c-1.5,0.6-3,1.1-4.5,1.7c-1.3,0.5-2.6,1-3.8,1.5c-0.2,0.1-0.4,0.1-0.6,0.2
			C115.3,72,78.4,107.4,57.1,153.1c-1,2.1-1.9,4.2-2.8,6.3c0,0,0,0,0,0.1c-20,47-21.5,99-3.9,147.3c17.6,48.3,52.1,87.2,97.7,110.3
			c0,0,0,0,0.1,0c2,1,4.1,2,6.2,3c32.4,15.1,67.5,21.2,102.2,18.1c0.5,0.1,1.1,0,1.6-0.1c16.8-1.6,33.5-5.4,49.8-11.3c0,0,0,0,0,0
			c34-12.4,63.3-33.1,85.9-60.4c0,0,0,0,0,0c7.8-9.4,14.8-19.6,20.8-30.5c0.1-2.4-0.5-4.1-1.8-5c-3.7-2.5-12.1,3.4-18.6,13.2
			c-1.1,1.6-2,3.2-2.9,4.8L371,359.4c-0.9-0.8-2-1.4-3.3-1.8l34-59.7c0.2,0.1,0.4,0.2,0.6,0.2c7,2.1,15.4-5.3,18.8-16.6
			c1.2-3.9,1.6-7.8,1.4-11.3l4.3-4c1.1,4.9,3.1,8.1,5.7,8.3c1.8,0.1,3.6-1.3,5.1-3.7c1.9-11.3,2.8-22.7,2.7-34.1
			C439,233.8,437.5,232.1,435.6,232z M371.8,105.7c0.3,0.4,0.7,0.7,1,1.1c0.6,0.6,1.2,1.2,1.8,1.7l-1.8,22.9c-2.7-1-5.3-1-7.4,0.1
			l-20.9-25.6L371.8,105.7z M334.1,106.2l26.8,32.8c-0.8,4.8,0.4,11.2,3.7,17.3c0.3,0.6,0.6,1.1,1,1.7l-48.4,73l-74-34.2
			c1-4,0.8-8.2-0.7-12.3c-1.3-3.5-3.4-6.5-6.1-8.8l32.6-57c11.2,3.2,22.3-1.2,24.8-9.9c0.2-0.7,0.3-1.4,0.4-2.1L334.1,106.2z
			 M394.5,284.8c-26.3,22.4-59.4,42.3-95.8,57.6c-2.4-2.4-6-3.8-10.1-4.2l10.9-50.1c2-0.1,4.1-0.5,6.1-1.3
			c11.1-4,16.8-16.3,12.7-27.3c-1.1-3.1-2.9-5.7-5.1-7.9l6.8-10.2l75.2,34.7C394.5,279.1,394.3,282.1,394.5,284.8z M261.4,115.3
			l-32.2,56.3c-3.2-1.1-6.7-1.4-10.1-0.9l-16.7-45.8c17.7-6.3,35.6-11.3,53.3-15C257.2,111.9,259.1,113.8,261.4,115.3z M306.5,247
			c-4.8-2-10.2-2.2-15.4-0.3c-9.6,3.5-15.2,13.3-13.8,23l-90.6,31.5c-1.2-2-2.7-3.8-4.3-5.2l35.6-83.3c3.8,0.8,7.8,0.6,11.7-0.8
			c4.2-1.5,7.6-4.2,10-7.5l72.9,33.6L306.5,247z M167.2,290.3c-3.1-7.5-6.1-15.1-8.9-22.9c-4.8-13.3-9.1-26.5-12.8-39.7
			c18.3-8.5,38.1-16.8,58.8-24.8c1.6,2.6,3.7,4.8,6.2,6.4l-35.1,82.1C172.6,290.5,169.8,290.1,167.2,290.3z M211.4,173.5
			c-7.5,4.5-11.5,13.2-10,21.8c-20.4,7.9-39.9,16.1-58.1,24.5c-5.7-21.3-9.9-42.1-12.5-61.8c19.6-11.5,41.1-21.7,63.9-30.3
			L211.4,173.5z M150.6,270.3c2.8,7.8,5.8,15.4,8.9,22.9c-5.4,3.9-7.8,11-6.6,18.3c-17,4.1-33,7.3-47.6,9.6
			c-4.6-9.6-8.8-19.5-12.5-29.8c-3.7-10.2-6.9-20.6-9.6-30.9c15.9-9.6,34.3-19.4,54.7-29.1C141.6,244.2,145.8,257.3,150.6,270.3z
			 M155.6,319.2c0.1,0.2,0.2,0.4,0.4,0.7c4.8,8.1,13.2,12.3,20.8,11.2c7,13.9,14.4,27.1,22,39.3c-21.5,3.1-42.3,4.1-61.7,2.9
			c-10.4-13.6-19.7-28.5-27.9-44.5C123.4,326.5,139,323.3,155.6,319.2z M184.2,327.8c5.2-4.3,7.2-11.6,5.5-19l90.2-31.3
			c2.6,4.5,6.7,7.8,11.5,9.4L280,338.8c-1.3,0.3-2.5,0.6-3.8,1.1c-8.9,3.2-14.9,9.9-15.6,16.3c-17.9,5.6-35.7,9.9-53.1,12.8
			C199.4,356.3,191.6,342.4,184.2,327.8z M263.1,364c3.8,4.4,11.2,6.2,19.2,4.4l10.5,28.9c-17.8,6.2-35.9,10.6-54.1,13.3
			c-8.9-10-17.7-21.5-26.3-34.2C229.1,373.5,246.1,369.4,263.1,364z M254.1,93.9c-0.5,0.9-1,1.9-1.3,2.9c-0.5,1.8-0.6,3.6-0.4,5.4
			c-17.6,3.7-35.3,8.7-52.9,14.9l-14-38.5c6.7-2.3,13.4-4.4,20.2-6.3c3.8,2.2,9,3.6,14.7,3.7c2.9,0.1,5.7-0.2,8.2-0.7L254.1,93.9z
			 M199.5,64.6c0,0.3,0.1,0.7,0.2,1c-5.7,1.6-11.3,3.4-17,5.4l-4-11c0,0,0,0,0,0L199.5,64.6z M130.4,78.9c8.2-5.6,17-10.6,26.1-14.9
			c3.6,0.7,8.8,0.3,14.5-1.3l4,11.1c-16.3,6.2-32,13.7-46.7,22.4C128.8,90.1,129.5,84.4,130.4,78.9z M127.9,106
			c15.6-9.6,32.4-17.9,50-24.5l14,38.5c-22.1,8.3-43,18.1-62.1,29.1C128.1,133.9,127.4,119.4,127.9,106z M135.7,223.3
			c-20.2,9.5-38.5,19.2-54.5,28.7c-4-17.5-6.4-34.9-7.2-52c14.1-13.4,30.7-26,49.1-37.4C125.9,182.1,130.1,202.5,135.7,223.3z
			 M80.5,128.6c11.3-16.5,25-30.9,40.7-43c-0.6,5.1-1,10.3-1.3,15.8c-14.5,9.2-28,19.5-40.2,30.8C79.9,131,80.2,129.8,80.5,128.6z
			 M76.9,146.2c12.6-12.8,27-24.5,42.7-34.9c-0.1,13.3,0.7,27.5,2.5,42.4c-17.9,10.9-34.1,22.8-48.3,35.5
			C73.6,174.5,74.6,160.1,76.9,146.2z M61.5,163.4c1.8-2.3,3.7-4.5,5.6-6.7c-1.5,13-2,26.4-1.5,40c-6.6,6.4-12.6,12.9-18,19.6
			C49.7,198.3,54.3,180.5,61.5,163.4z M49.7,273.1c-2.6-13.9-3.6-27.9-3.2-41.8c5.7-8,12.3-15.9,19.7-23.5
			c1.2,16.1,3.7,32.5,7.6,48.8C64.8,262.2,56.7,267.7,49.7,273.1z M58.1,303.9c-2.6-7.2-4.8-14.6-6.6-22c7-5.5,15.2-11.2,24.4-17.1
			c2.6,9.8,5.6,19.5,9.1,29.2c3.5,9.7,7.4,19.1,11.7,28.2c-10.9,1.5-20.9,2.4-29.6,2.7C63.8,318.2,60.7,311.2,58.1,303.9z
			 M95.9,367.1c-9.3-10.4-17.5-21.8-24.5-34c8.8-0.4,18.6-1.4,29.1-2.9c7.6,15,16.1,29.2,25.6,42.3
			C115.6,371.3,105.5,369.5,95.9,367.1z M151.1,409.4c-16.5-8.5-31.5-19.1-44.7-31.6c8.5,1.6,17.3,2.7,26.4,3.4
			c8.4,10.7,17.4,20.7,26.9,29.7C156.8,410.5,153.9,410,151.1,409.4z M143.8,381.8c19,0.6,39.1-0.7,59.8-3.9
			c8.2,12.5,16.7,24,25.4,34.1c-18.7,2.1-37.2,2.4-55.1,0.7C163.2,403.5,153.1,393.1,143.8,381.8z M187.9,423.8
			c-1-0.7-1.9-1.4-2.9-2.2c16.6,0.8,33.5,0,50.6-2.3c3.7,4,7.4,7.8,11.1,11.2C227,431.5,207.2,429.2,187.9,423.8z M258.2,429.9
			c-4.2-3.6-8.5-7.6-12.7-11.9c16.9-2.8,33.7-7.1,50.1-12.9l5.6,15.4C287.1,425.3,272.7,428.4,258.2,429.9z M387.5,361.2
			c-20.8,25.2-47.5,44.5-78.5,56.5l-5.6-15.4c12.3-4.7,24.2-10.1,35.6-16.1c4.9,2.6,13.6,1.2,21.6-3.9c6.5-4.1,11-9.7,12.3-14.6
			l14.7-7.5C387.5,360.5,387.5,360.8,387.5,361.2z M358.1,357.7c-3.3,0.8-6.9,2.3-10.3,4.5c-7.5,4.8-12.3,11.4-12.7,16.7
			c-11.1,5.9-22.6,11.1-34.6,15.7L290,365.7c7.2-3.8,11.8-10,11.9-15.8c34-14.3,65.3-32.5,91-53.2L358.1,357.7z M414.7,257.3
			c-5.8-1.8-12.5,3-16.6,11.1l-73.4-33.9l46.2-69.7c3.6,3.5,7.6,5.4,11.1,5.4l44.5,77.4c-0.3,1.6-0.5,3.4-0.6,5.1
			c-0.1,1.1-0.1,2.2-0.1,3.2l-5.9,5.6C418.5,259.4,416.8,257.9,414.7,257.3z"/>
	</g>
</g>
</svg>
