<?xml version="1.0" encoding="utf-8"?>
<!-- Generator: Adobe Illustrator 26.2.0, SVG Export Plug-In . SVG Version: 6.00 Build 0)  -->
<svg version="1.1" id="Layer_1" xmlns="http://www.w3.org/2000/svg" xmlns:xlink="http://www.w3.org/1999/xlink" x="0px" y="0px"
	 viewBox="0 0 225.4 26.4" style="enable-background:new 0 0 225.4 26.4;" xml:space="preserve">
<style type="text/css">
	.st0{fill:#FFFFFF;}
	.st1{fill:url(#SVGID_1_);}
</style>
<g>
	<g>
		<path class="st0" d="M42,23.5c-1.4-0.5-2.4-1.3-3.2-2.2c-0.8-1-1.2-2.2-1.2-3.6v-0.2c0-0.2,0.2-0.4,0.5-0.4h3.6
			c0.3,0,0.5,0.2,0.5,0.5c0,0.9,0.4,1.6,1.2,2.2c0.8,0.5,1.9,0.8,3.4,0.8s2.6-0.2,3.3-0.6s1-0.9,1-1.6c0-0.6-0.2-1.1-0.7-1.5
			c-0.4-0.4-1-0.7-1.7-1c-0.7-0.2-1.6-0.5-2.8-0.9c-1.7-0.5-3-0.9-4.1-1.4c-1-0.4-1.9-1.1-2.7-1.9c-0.7-0.9-1.1-2-1.1-3.4
			c0-1.9,0.8-3.4,2.4-4.4c1.6-1,3.7-1.5,6.3-1.5c2.5,0,4.5,0.5,6,1.6c1.4,0.9,2.2,2.3,2.3,4c0,0.4-0.2,0.7-0.6,0.7l-3.3,0.1
			c-0.3,0-0.5-0.2-0.6-0.5c-0.1-0.6-0.5-1-1-1.4c-0.6-0.6-1.6-0.8-2.8-0.8c-1.3,0-2.3,0.2-3,0.5c-0.7,0.4-1,0.8-1,1.5
			c0,0.5,0.2,0.9,0.6,1.2c0.4,0.3,0.9,0.6,1.6,0.8c0.6,0.2,1.5,0.5,2.6,0.8c1.7,0.5,3.1,0.9,4.2,1.3c1.1,0.4,2,1.1,2.8,2
			c0.8,0.9,1.2,2,1.2,3.4c0,2.3-0.8,3.9-2.4,5c-1.6,1.1-3.8,1.6-6.7,1.6C44.9,24.3,43.4,24.1,42,23.5z"/>
		<path class="st0" d="M59.8,2.7h3.3c0.3,0,0.6,0.3,0.6,0.6v20c0,0.3-0.3,0.6-0.6,0.6h-3.3c-0.3,0-0.6-0.3-0.6-0.6v-20
			C59.2,2.9,59.5,2.7,59.8,2.7z"/>
		<path class="st0" d="M68.9,2.7h3.3c0.4,0,0.7,0.2,0.7,0.6v16.4c0,0.2,0.1,0.3,0.3,0.3h9.7c0.3,0,0.6,0.3,0.6,0.6v2.7
			c0,0.3-0.3,0.6-0.6,0.6h-14c-0.3,0-0.6-0.3-0.6-0.6v-20C68.3,2.9,68.6,2.7,68.9,2.7z"/>
		<path class="st0" d="M87.5,2.7h13.8c0.3,0,0.6,0.3,0.6,0.6v2.6c0,0.3-0.3,0.6-0.6,0.6h-9.5c-0.2,0-0.3,0.1-0.3,0.3v4.1
			c0,0.2,0.1,0.3,0.3,0.3h8.2c0.3,0,0.6,0.3,0.6,0.6v2.6c0,0.3-0.3,0.6-0.6,0.6h-8.2c-0.2,0-0.3,0.1-0.3,0.3v4.5
			c0,0.2,0.1,0.3,0.3,0.3h9.7c0.3,0,0.6,0.3,0.6,0.6v2.6c0,0.3-0.3,0.6-0.6,0.6h-14c-0.3,0-0.6-0.3-0.6-0.6v-20
			C86.9,2.9,87.2,2.7,87.5,2.7z"/>
		<path class="st0" d="M107.3,2.7h3.6c0.2,0,0.4,0.1,0.5,0.3l7.8,11.2c0.2,0.3,0.5,1,1,2c0,0.1,0.1,0.1,0.2,0l0.1-0.1l-0.1-1.7V3.3
			c0-0.3,0.3-0.6,0.6-0.6h3.3c0.3,0,0.6,0.3,0.6,0.6v20c0,0.3-0.3,0.6-0.6,0.6h-3.6c-0.2,0-0.4-0.1-0.5-0.3l-7.7-11.3
			c-0.4-0.5-0.8-1.2-1.2-1.9c0-0.1-0.1-0.1-0.2,0l-0.1,0.1c0.1,0.9,0.1,1.5,0.1,1.8v11c0,0.3-0.3,0.6-0.6,0.6h-3.3
			c-0.3,0-0.6-0.3-0.6-0.6v-20C106.7,2.9,106.9,2.7,107.3,2.7z"/>
		<path class="st0" d="M134.4,6.5h-5.2c-0.3,0-0.6-0.3-0.6-0.6V3.3c0-0.3,0.3-0.6,0.6-0.6h15.5c0.3,0,0.6,0.3,0.6,0.6V6
			c0,0.3-0.3,0.6-0.6,0.6h-5.2c-0.2,0-0.3,0.1-0.3,0.3v16.4c0,0.3-0.3,0.6-0.6,0.6h-3.3c-0.3,0-0.6-0.3-0.6-0.6V6.8
			C134.7,6.7,134.6,6.5,134.4,6.5z"/>
		<path class="st0" d="M149.1,3.3c0-0.3,0.3-0.6,0.6-0.6h7.9c3.2,0,5.8,0.9,7.5,2.7c1.8,1.8,2.7,4.4,2.7,8s-0.9,6.2-2.7,8
			c-1.8,1.8-4.3,2.7-7.5,2.7h-7.9c-0.3,0-0.6-0.3-0.6-0.6V3.3z M157.6,20.1c1.8,0,3.2-0.6,4.1-1.7c0.9-1.1,1.4-2.7,1.4-4.7v-0.9
			c0-2-0.5-3.6-1.4-4.7s-2.3-1.7-4.1-1.7h-3.7c-0.2,0-0.3,0.1-0.3,0.3v13c0,0.2,0.1,0.3,0.3,0.3h3.7V20.1z"/>
		<path class="st0" d="M177.3,2.7h4.8c0.3,0,0.5,0.2,0.6,0.4l7.8,20.1c0.2,0.4-0.1,0.8-0.6,0.8h-3.6c-0.3,0-0.5-0.2-0.6-0.4
			l-1.3-3.5c0-0.1-0.2-0.2-0.3-0.2h-9.2c-0.1,0-0.2,0.1-0.3,0.2l-1.3,3.5c-0.1,0.2-0.3,0.4-0.6,0.4h-3.3c-0.4,0-0.7-0.4-0.6-0.8
			l7.8-20.1C176.8,2.8,177,2.7,177.3,2.7z M182.5,16.1c0.2,0,0.4-0.2,0.3-0.4l-1.9-5c-0.2-0.7-0.7-2-1.3-4.1l-0.1-0.1
			c0,0-0.1,0-0.1,0.1c-0.6,2.1-1.1,3.5-1.3,4.1l-1.9,5c-0.1,0.2,0.1,0.4,0.3,0.4H182.5z"/>
		<path class="st0" d="M212.2,2.7h4.8c0.3,0,0.5,0.2,0.6,0.4l7.8,20.1c0.2,0.4-0.1,0.8-0.6,0.8h-3.6c-0.3,0-0.5-0.2-0.6-0.4
			l-1.3-3.5c0-0.1-0.2-0.2-0.3-0.2h-9.1c-0.1,0-0.2,0.1-0.3,0.2l-1.3,3.5c-0.1,0.2-0.3,0.4-0.6,0.4h-3.3c-0.4,0-0.7-0.4-0.6-0.8
			l7.8-20.1C211.7,2.8,212,2.7,212.2,2.7z M217.5,16.1c0.2,0,0.4-0.2,0.3-0.4l-1.9-5c-0.2-0.7-0.7-2-1.3-4.1l-0.1-0.1
			c0,0-0.1,0-0.1,0.1c-0.6,2.1-1.1,3.5-1.3,4.1l-1.9,5c-0.1,0.2,0.1,0.4,0.3,0.4H217.5z"/>
		<path class="st0" d="M194.6,6.5h-5.2c-0.3,0-0.6-0.3-0.6-0.6V3.3c0-0.3,0.3-0.6,0.6-0.6h15.5c0.3,0,0.6,0.3,0.6,0.6V6
			c0,0.3-0.3,0.6-0.6,0.6h-5.2c-0.2,0-0.3,0.1-0.3,0.3v16.4c0,0.3-0.3,0.6-0.6,0.6h-3.3c-0.3,0-0.6-0.3-0.6-0.6V6.8
			C194.9,6.7,194.8,6.5,194.6,6.5z"/>
		
			<linearGradient id="SVGID_1_" gradientUnits="userSpaceOnUse" x1="1.1209" y1="827.4916" x2="25.5756" y2="818.5908" gradientTransform="matrix(1 0 0 1 0 -810)">
			<stop  offset="0" style="stop-color:#8C78FF"/>
			<stop  offset="0.8" style="stop-color:#FFFFFF"/>
		</linearGradient>
		<path class="st1" d="M26.9,12.8c-0.1,0-0.3,0.1-0.4,0.3l-2.7-4.8C24,8,23.9,7.4,23.6,6.9c-0.1-0.2-0.2-0.4-0.4-0.5l0.1-1.5
			C23.6,5.1,23.9,5.2,24,5c0.1-0.1,0.1-0.2,0-0.4C23.5,4,23,3.5,22.4,3c-0.2-0.1-0.3-0.1-0.4,0s-0.1,0.4,0.1,0.8h-1.9l-2.1-2.6
			c0.2,0,0.4-0.1,0.4-0.2c0-0.1,0-0.2-0.1-0.3C17.6,0.4,16.8,0.2,16,0c-0.1,0-0.2,0.1-0.2,0.2c-0.1,0.3,0.5,0.7,1.2,0.9
			c0.1,0,0.2,0.1,0.3,0.1l2.2,2.6h-2.3c-0.2-0.3-0.5-0.6-1-0.8c-0.4-0.1-0.9-0.1-1.2,0.1L13.5,2c0.2-0.1,0.3-0.3,0.3-0.5
			c0-0.4-0.6-0.8-1.4-0.8c-0.5,0-0.9,0.1-1.2,0.3l-1-0.2c0.2-0.2,0.3-0.3,0.2-0.5c0-0.1-0.1-0.2-0.3-0.2C9.7,0.2,9.3,0.3,8.9,0.5
			c-0.1,0-0.2,0.1-0.3,0.1S8.4,0.7,8.3,0.7l0,0C5.2,2,2.8,4.4,1.3,7.4C1.2,7.5,1.2,7.7,1.1,7.8l0,0c-1.3,3.1-1.4,6.6-0.3,9.8
			C2,20.8,4.3,23.4,7.3,25l0,0c0.1,0.1,0.3,0.1,0.4,0.2c2.2,1,4.5,1.4,6.8,1.2h0.1c1.1-0.1,2.2-0.4,3.3-0.8c2.3-0.8,4.2-2.2,5.7-4
			c0.5-0.6,1-1.3,1.4-2c0-0.2,0-0.3-0.1-0.3c-0.2-0.2-0.8,0.2-1.2,0.9c-0.1,0.1-0.1,0.2-0.2,0.3l-0.9,0.8c-0.1-0.1-0.1-0.1-0.2-0.1
			l2.3-4l0,0c0.5,0.1,1-0.4,1.3-1.1c0.1-0.3,0.1-0.5,0.1-0.8l0.3-0.3c0.1,0.3,0.2,0.5,0.4,0.6c0.1,0,0.2-0.1,0.3-0.2
			c0.1-0.8,0.2-1.5,0.2-2.3C27.2,12.9,27.1,12.8,26.9,12.8z M22.7,4.3C22.7,4.4,22.7,4.4,22.7,4.3c0.1,0.1,0.1,0.2,0.2,0.2L22.8,6
			c-0.2-0.1-0.4-0.1-0.5,0l-1.4-1.6L22.7,4.3z M20.2,4.4L22,6.6c-0.1,0.3,0,0.7,0.2,1.2c0,0,0,0.1,0.1,0.1l-3.2,4.9l-4.9-2.3
			c0.1-0.3,0.1-0.5,0-0.8c-0.1-0.2-0.2-0.4-0.4-0.6L16,5.3c0.7,0.2,1.5-0.1,1.7-0.7V4.5L20.2,4.4z M24.2,16.3
			c-1.8,1.5-4,2.8-6.4,3.8c-0.2-0.2-0.4-0.3-0.7-0.3l0.7-3.3c0.1,0,0.3,0,0.4-0.1c0.7-0.3,1.1-1.1,0.8-1.8c-0.1-0.2-0.2-0.4-0.3-0.5
			l0.5-0.7l5,2.3C24.2,15.9,24.2,16.1,24.2,16.3z M15.3,5l-2.1,3.8c-0.2-0.1-0.4-0.1-0.7-0.1l-1.1-3.1c1.2-0.4,2.4-0.8,3.6-1
			C15,4.8,15.2,4.9,15.3,5z M18.3,13.8c-0.3-0.1-0.7-0.1-1,0c-0.6,0.2-1,0.9-0.9,1.5l-6,2.1c-0.1-0.1-0.2-0.3-0.3-0.3l2.4-5.6
			c0.3,0.1,0.5,0,0.8-0.1s0.5-0.3,0.7-0.5l4.9,2.2L18.3,13.8z M9,16.7c-0.2-0.5-0.4-1-0.6-1.5c-0.3-0.9-0.6-1.8-0.9-2.6
			c1.2-0.6,2.5-1.1,3.9-1.7c0.1,0.2,0.2,0.3,0.4,0.4l-2.3,5.5C9.4,16.7,9.2,16.6,9,16.7z M12,8.9c-0.5,0.3-0.8,0.9-0.7,1.5
			c-1.4,0.5-2.7,1.1-3.9,1.6C7,10.6,6.7,9.2,6.6,7.9c1.3-0.8,2.7-1.4,4.3-2L12,8.9z M7.9,15.3c0.2,0.5,0.4,1,0.6,1.5
			C8.1,17.1,8,17.5,8.1,18c-1.1,0.3-2.2,0.6-3.2,0.7c-0.3-0.6-0.6-1.3-0.8-2c-0.2-0.7-0.5-1.4-0.6-2.1c1.1-0.6,2.3-1.3,3.6-1.9
			C7.3,13.6,7.6,14.5,7.9,15.3z M8.3,18.6L8.3,18.6c0.3,0.6,0.9,0.9,1.4,0.8c0.5,0.9,1,1.8,1.5,2.6c-1.4,0.2-2.8,0.3-4.1,0.2
			c-0.7-0.9-1.3-1.9-1.9-3C6.1,19.1,7.2,18.9,8.3,18.6z M10.2,19.2c0.3-0.3,0.5-0.8,0.4-1.3l6-2.1c0.2,0.3,0.4,0.5,0.8,0.6l-0.8,3.5
			c-0.1,0-0.2,0-0.3,0.1c-0.6,0.2-1,0.7-1,1.1c-1.2,0.4-2.4,0.7-3.5,0.9C11.2,21.1,10.7,20.1,10.2,19.2z M15.4,21.6
			c0.3,0.3,0.7,0.4,1.3,0.3l0.7,1.9c-1.2,0.4-2.4,0.7-3.6,0.9c-0.6-0.7-1.2-1.4-1.8-2.3C13.2,22.2,14.3,21.9,15.4,21.6z M14.8,3.6
			c0,0.1-0.1,0.1-0.1,0.2s0,0.2,0,0.4c-1.2,0.2-2.4,0.6-3.5,1l-0.9-2.6c0.4-0.2,0.9-0.3,1.3-0.4c0.3,0.1,0.6,0.2,1,0.2
			c0.2,0,0.4,0,0.5,0L14.8,3.6z M11.2,1.6C11.2,1.6,11.2,1.7,11.2,1.6c-0.4,0.2-0.7,0.3-1.1,0.4L9.8,1.3L11.2,1.6z M6.6,2.6
			c0.5-0.4,1.1-0.7,1.7-1c0.2,0,0.6,0,1-0.1l0.3,0.7C8.5,2.6,7.5,3.1,6.5,3.7C6.5,3.3,6.5,2.9,6.6,2.6z M6.4,4.4
			c1-0.6,2.2-1.2,3.3-1.6l1,2.5C9.2,5.9,7.8,6.5,6.6,7.2C6.4,6.2,6.4,5.3,6.4,4.4z M6.9,12.2c-1.3,0.6-2.6,1.3-3.6,1.9
			c-0.3-1.2-0.4-2.3-0.5-3.5c0.9-0.9,2-1.7,3.3-2.5C6.3,9.4,6.6,10.8,6.9,12.2z M3.3,5.9C4,4.8,4.9,3.8,6,3C5.9,3.3,5.9,3.7,5.9,4.1
			c-1,0.6-1.9,1.3-2.7,2C3.2,6,3.2,6,3.3,5.9z M3,7c0.9-0.8,1.8-1.6,2.9-2.3c0,0.9,0,1.8,0.2,2.8C4.9,8.2,3.8,9,2.9,9.9
			C2.8,8.9,2.9,8,3,7z M2,8.2C2.1,8,2.2,7.9,2.4,7.8c-0.1,0.9-0.1,1.8-0.1,2.7c-0.4,0.4-0.8,0.9-1.2,1.3C1.2,10.5,1.5,9.3,2,8.2z
			 M1.2,15.5C1,14.6,1,13.6,1,12.7c0.4-0.5,0.8-1.1,1.3-1.6c0.1,1.1,0.2,2.2,0.5,3.3C2.2,14.8,1.7,15.1,1.2,15.5z M1.8,17.6
			c-0.2-0.5-0.3-1-0.4-1.5c0.5-0.4,1-0.7,1.6-1.1c0.2,0.7,0.4,1.3,0.6,1.9s0.5,1.3,0.8,1.9C3.7,18.9,3,19,2.4,19
			C2.2,18.5,1.9,18,1.8,17.6z M4.3,21.8c-0.6-0.7-1.2-1.5-1.6-2.3c0.6,0,1.2-0.1,1.9-0.2c0.5,1,1.1,1.9,1.7,2.8
			C5.6,22.1,4.9,21.9,4.3,21.8z M8,24.6c-1.1-0.6-2.1-1.3-3-2.1c0.6,0.1,1.2,0.2,1.8,0.2c0.6,0.7,1.2,1.4,1.8,2
			C8.4,24.7,8.2,24.6,8,24.6z M7.5,22.8c1.3,0,2.6,0,4-0.3c0.5,0.8,1.1,1.6,1.7,2.3c-1.2,0.1-2.5,0.2-3.7,0
			C8.8,24.2,8.1,23.5,7.5,22.8z M10.4,25.6c-0.1,0-0.1-0.1-0.2-0.1c1.1,0.1,2.2,0,3.4-0.2c0.2,0.3,0.5,0.5,0.7,0.7
			C13,26.1,11.7,25.9,10.4,25.6z M15.1,26c-0.3-0.2-0.6-0.5-0.8-0.8c1.1-0.2,2.2-0.5,3.3-0.9l0.4,1C17,25.7,16.1,25.9,15.1,26z
			 M23.7,21.4c-1.4,1.7-3.2,3-5.2,3.8l-0.4-1c0.8-0.3,1.6-0.7,2.4-1.1c0.3,0.2,0.9,0.1,1.4-0.3c0.4-0.3,0.7-0.6,0.8-1L23.7,21.4
			C23.7,21.3,23.7,21.4,23.7,21.4z M21.8,21.1c-0.2,0.1-0.5,0.2-0.7,0.3c-0.5,0.3-0.8,0.8-0.8,1.1c-0.7,0.4-1.5,0.7-2.3,1l-0.7-1.9
			c0.5-0.3,0.8-0.7,0.8-1.1c2.3-1,4.4-2.2,6.1-3.5L21.8,21.1z M25.5,14.5c-0.4-0.1-0.8,0.2-1.1,0.7l-4.9-2.3l3.1-4.6
			c0.2,0.2,0.5,0.4,0.7,0.4l3,5.2c0,0.1,0,0.2,0,0.3c0,0.1,0,0.1,0,0.2l-0.4,0.3C25.8,14.6,25.7,14.5,25.5,14.5z"/>
	</g>
</g>
</svg>
