<?xml version="1.0" encoding="UTF-8"?>
<svg width="79px" height="80px" viewBox="0 0 79 80" version="1.1" xmlns="http://www.w3.org/2000/svg" xmlns:xlink="http://www.w3.org/1999/xlink">
    <!-- Generator: Sketch 51.2 (57519) - http://www.bohemiancoding.com/sketch -->
    <title>Artboard</title>
    <desc>Created with Sketch.</desc>
    <defs></defs>
    <g id="Artboard" stroke="none" stroke-width="1" fill="none" fill-rule="evenodd">
        <path d="M78.9619387,39.5190559 C78.9619387,61.3238131 61.2856256,78.9998738 39.4808684,78.9998738 C17.6763636,78.9998738 -0.000201916933,61.3238131 -0.000201916933,39.5190559 C-0.000201916933,17.7142987 17.6763636,0.0382380192 39.4808684,0.0382380192 C61.2856256,0.0382380192 78.9619387,17.7142987 78.9619387,39.5190559" id="Fill-1" fill="#FFFFFF"></path>
        <path d="M26.3508505,45.4959581 C26.3508505,44.6048636 25.6009901,43.8828295 24.6745255,43.8828295 C23.7503746,43.8828295 23,44.6048636 23,45.4959581 L23,57.3866239 C23,58.2774709 23.7503746,59 24.6745255,59 C25.6009901,59 26.3508505,58.2774709 26.3508505,57.3866239 L26.3508505,45.4959581 Z M58,45.4959581 C58,44.6048636 57.2506537,43.8828295 56.3252174,43.8828295 C55.4000382,43.8828295 54.6494065,44.6048636 54.6494065,45.4959581 L54.6494065,57.3866239 C54.6494065,58.2774709 55.4000382,59 56.3252174,59 C57.2506537,59 58,58.2774709 58,57.3866239 L58,45.4959581 Z M52.7255274,38.7444322 C52.7255274,37.8538327 51.9756669,37.1313036 51.0494594,37.1313036 C50.1245373,37.1313036 49.3744198,37.8538327 49.3744198,38.7444322 L49.3744198,57.3866239 C49.3744198,58.2782135 50.1245373,59 51.0494594,59 C51.9756669,59 52.7255274,58.2782135 52.7255274,57.3866239 L52.7255274,38.7444322 Z M31.6266085,38.7444322 C31.6266085,37.8538327 30.8757198,37.1313036 29.9500264,37.1313036 C29.0251043,37.1313036 28.2742156,37.8538327 28.2742156,38.7444322 L28.2742156,57.3866239 C28.2742156,58.2782135 29.0251043,59 29.9500264,59 C30.8757198,59 31.6266085,58.2782135 31.6266085,57.3866239 L31.6266085,38.7444322 Z M47.4500264,27.2475806 C47.4500264,26.355991 46.700166,25.633957 45.7755009,25.633957 C44.8503217,25.633957 44.099433,26.355991 44.099433,27.2475806 L44.099433,51.3799045 C44.099433,52.2707515 44.8503217,52.9937756 45.7755009,52.9937756 C46.700166,52.9937756 47.4500264,52.2707515 47.4500264,51.3799045 L47.4500264,27.2475806 Z M36.9010811,27.2475806 C36.9010811,26.355991 36.1501924,25.633957 35.2255274,25.633957 C34.299834,25.633957 33.5494594,26.355991 33.5494594,27.2475806 L33.5494594,51.3799045 C33.5494594,52.2707515 34.299834,52.9937756 35.2255274,52.9937756 C36.1501924,52.9937756 36.9010811,52.2707515 36.9010811,51.3799045 L36.9010811,27.2475806 Z M42.176325,46.2098238 C42.176325,47.1001757 41.4259504,47.8229523 40.5007712,47.8229523 C39.5740496,47.8229523 38.8247033,47.1001757 38.8247033,46.2098238 L38.8247033,19.6126335 C38.8247033,18.7217865 39.5740496,18 40.5007712,18 C41.4259504,18 42.176325,18.7217865 42.176325,19.6126335 L42.176325,46.2098238 Z" id="Fill-4" fill="#005EFF"></path>
    </g>
</svg>