<svg width="307" height="24" viewBox="0 0 307 24" fill="none" xmlns="http://www.w3.org/2000/svg">
<path d="M10.5102 10.0719C8.78496 9.42087 7.246 8.35954 6 7V21H10.5102V10.0719Z" fill="url(#paint0_linear_5865_7433)"/>
<path d="M23 7C21.754 8.35954 20.215 9.42087 18.4898 10.0719V21H23V7Z" fill="url(#paint1_linear_5865_7433)"/>
<path d="M16.7551 10.5723C16.0252 10.7207 15.2712 10.7985 14.5 10.7985C13.7288 10.7985 12.9748 10.7207 12.2449 10.5723V21H16.7551V10.5723Z" fill="url(#paint2_linear_5865_7433)"/>
<rect width="4" height="24" fill="#CA4820"/>
<rect x="25" width="4" height="24" fill="#444EA6"/>
<path d="M43.9167 22.6282C43.4104 22.6282 43 22.2178 43 21.7115V2.2885C43 1.78224 43.4104 1.37183 43.9167 1.37183H46.7128C47.2191 1.37183 47.6295 1.78224 47.6295 2.2885V17.7763C47.6295 18.2826 48.0399 18.693 48.5462 18.693H57.4633C57.9695 18.693 58.3799 19.1034 58.3799 19.6096V21.7115C58.3799 22.2178 57.9695 22.6282 57.4633 22.6282H43.9167Z" fill="white"/>
<path d="M70.3591 23C68.1013 23 66.1542 22.5972 64.5178 21.7915C62.8814 20.9859 61.6282 19.7671 60.7583 18.1352C59.8883 16.5033 59.4533 14.4582 59.4533 12C59.4533 9.50047 59.8883 7.44507 60.7583 5.8338C61.6282 4.20188 62.8814 2.99343 64.5178 2.20845C66.1542 1.40282 68.1013 1 70.3591 1C72.6583 1 74.6157 1.40282 76.2314 2.20845C77.8678 2.99343 79.121 4.20188 79.9909 5.8338C80.8609 7.44507 81.2959 9.50047 81.2959 12C81.2959 14.4582 80.8609 16.5033 79.9909 18.1352C79.121 19.7671 77.8678 20.9859 76.2314 21.7915C74.6157 22.5972 72.6583 23 70.3591 23ZM70.3591 19.2197C71.374 19.2197 72.2647 19.0751 73.0311 18.7859C73.7975 18.4967 74.4397 18.0629 74.9575 17.4845C75.4753 16.9061 75.8689 16.2038 76.1382 15.3775C76.4075 14.5305 76.5421 13.57 76.5421 12.4958V11.5352C76.5421 10.4404 76.4075 9.46948 76.1382 8.62254C75.8689 7.77559 75.4753 7.07324 74.9575 6.51549C74.4397 5.93709 73.7975 5.50329 73.0311 5.21408C72.2647 4.92488 71.374 4.78028 70.3591 4.78028C69.3648 4.78028 68.4845 4.92488 67.7181 5.21408C66.9517 5.50329 66.3095 5.93709 65.7917 6.51549C65.2739 7.07324 64.8803 7.77559 64.611 8.62254C64.3625 9.46948 64.2382 10.4404 64.2382 11.5352V12.4958C64.2382 13.57 64.3625 14.5305 64.611 15.3775C64.8803 16.2038 65.2739 16.9061 65.7917 17.4845C66.3095 18.0629 66.9517 18.4967 67.7181 18.7859C68.4845 19.0751 69.3648 19.2197 70.3591 19.2197Z" fill="white"/>
<path d="M85.9711 22.6282C85.4649 22.6282 85.0545 22.2178 85.0545 21.7115V2.2885C85.0545 1.78224 85.4649 1.37183 85.9711 1.37183H88.8521C89.141 1.37183 89.413 1.50807 89.5861 1.73944L97.8866 12.8366C98.0109 12.9812 98.1662 13.1878 98.3527 13.4563C98.5391 13.7042 98.7151 13.9521 98.8808 14.2C99.026 14.4172 99.1314 14.5947 99.1971 14.7326C99.2132 14.7664 99.2469 14.7887 99.2843 14.7887C99.336 14.7887 99.378 14.7468 99.378 14.6951C99.378 14.3769 99.378 14.0673 99.378 13.7662C99.378 13.415 99.378 13.1052 99.378 12.8366V2.2885C99.378 1.78224 99.7884 1.37183 100.295 1.37183H102.842C103.349 1.37183 103.759 1.78224 103.759 2.2885V21.7115C103.759 22.2178 103.349 22.6282 102.842 22.6282H99.962C99.6727 22.6282 99.4003 22.4916 99.2273 22.2597L90.7404 10.8845C90.5332 10.5953 90.3157 10.2751 90.0879 9.92394C89.8797 9.60311 89.7234 9.35124 89.619 9.16834C89.6014 9.13751 89.5688 9.11831 89.5333 9.11831C89.4792 9.11831 89.4354 9.16212 89.4354 9.21616C89.4354 9.4934 89.4354 9.77064 89.4354 10.0479C89.4354 10.3371 89.4354 10.616 89.4354 10.8845V21.7115C89.4354 22.2178 89.025 22.6282 88.5187 22.6282H85.9711Z" fill="white"/>
<path d="M109.395 22.6282C108.889 22.6282 108.479 22.2178 108.479 21.7115V2.2885C108.479 1.78224 108.889 1.37183 109.395 1.37183H117.178C119.395 1.37183 121.28 1.75399 122.833 2.51831C124.387 3.28263 125.578 4.44976 126.406 6.01972C127.256 7.56901 127.68 9.56244 127.68 12C127.68 14.4169 127.256 16.4103 126.406 17.9803C125.578 19.5502 124.387 20.7174 122.833 21.4817C121.28 22.246 119.395 22.6282 117.178 22.6282H109.395ZM113.108 17.9002C113.108 18.4065 113.519 18.8169 114.025 18.8169H117.147C118.08 18.8169 118.908 18.6826 119.633 18.4141C120.358 18.1455 120.959 17.7531 121.435 17.2366C121.912 16.6995 122.274 16.0385 122.523 15.2535C122.771 14.4479 122.895 13.5183 122.895 12.4648V11.5352C122.895 10.4817 122.771 9.56244 122.523 8.77746C122.274 7.97183 121.912 7.3108 121.435 6.79437C120.959 6.25728 120.358 5.85446 119.633 5.58592C118.908 5.29671 118.08 5.15211 117.147 5.15211H114.025C113.519 5.15211 113.108 5.56252 113.108 6.06878V17.9002Z" fill="white"/>
<path d="M141.39 23C139.133 23 137.186 22.5972 135.549 21.7915C133.913 20.9859 132.66 19.7671 131.79 18.1352C130.92 16.5033 130.485 14.4582 130.485 12C130.485 9.50047 130.92 7.44507 131.79 5.8338C132.66 4.20188 133.913 2.99343 135.549 2.20845C137.186 1.40282 139.133 1 141.39 1C143.69 1 145.647 1.40282 147.263 2.20845C148.899 2.99343 150.152 4.20188 151.022 5.8338C151.892 7.44507 152.327 9.50047 152.327 12C152.327 14.4582 151.892 16.5033 151.022 18.1352C150.152 19.7671 148.899 20.9859 147.263 21.7915C145.647 22.5972 143.69 23 141.39 23ZM141.39 19.2197C142.405 19.2197 143.296 19.0751 144.063 18.7859C144.829 18.4967 145.471 18.0629 145.989 17.4845C146.507 16.9061 146.9 16.2038 147.17 15.3775C147.439 14.5305 147.573 13.57 147.573 12.4958V11.5352C147.573 10.4404 147.439 9.46948 147.17 8.62254C146.9 7.77559 146.507 7.07324 145.989 6.51549C145.471 5.93709 144.829 5.50329 144.063 5.21408C143.296 4.92488 142.405 4.78028 141.39 4.78028C140.396 4.78028 139.516 4.92488 138.749 5.21408C137.983 5.50329 137.341 5.93709 136.823 6.51549C136.305 7.07324 135.912 7.77559 135.642 8.62254C135.394 9.46948 135.27 10.4404 135.27 11.5352V12.4958C135.27 13.57 135.394 14.5305 135.642 15.3775C135.912 16.2038 136.305 16.9061 136.823 17.4845C137.341 18.0629 137.983 18.4967 138.749 18.7859C139.516 19.0751 140.396 19.2197 141.39 19.2197Z" fill="white"/>
<path d="M157.003 22.6282C156.496 22.6282 156.086 22.2178 156.086 21.7115V2.2885C156.086 1.78224 156.496 1.37183 157.003 1.37183H159.883C160.172 1.37183 160.444 1.50807 160.617 1.73944L168.918 12.8366C169.042 12.9812 169.198 13.1878 169.384 13.4563C169.57 13.7042 169.747 13.9521 169.912 14.2C170.057 14.4172 170.163 14.5947 170.228 14.7326C170.245 14.7664 170.278 14.7887 170.316 14.7887C170.367 14.7887 170.409 14.7468 170.409 14.6951C170.409 14.3769 170.409 14.0672 170.409 13.7662C170.409 13.415 170.409 13.1052 170.409 12.8366V2.2885C170.409 1.78224 170.82 1.37183 171.326 1.37183H173.874C174.38 1.37183 174.79 1.78224 174.79 2.2885V21.7115C174.79 22.2178 174.38 22.6282 173.874 22.6282H170.993C170.704 22.6282 170.432 22.4916 170.259 22.2597L161.772 10.8845C161.565 10.5953 161.347 10.2751 161.119 9.92394C160.911 9.6031 160.755 9.35124 160.65 9.16834C160.633 9.13751 160.6 9.11831 160.565 9.11831C160.511 9.11831 160.467 9.16212 160.467 9.21616C160.467 9.4934 160.467 9.77064 160.467 10.0479C160.467 10.3371 160.467 10.616 160.467 10.8845V21.7115C160.467 22.2178 160.056 22.6282 159.55 22.6282H157.003Z" fill="white"/>
<path d="M186.526 22.6282C186.019 22.6282 185.609 22.2178 185.609 21.7115V2.2885C185.609 1.78224 186.019 1.37183 186.526 1.37183H197.789C198.907 1.37183 199.912 1.58873 200.802 2.02253C201.714 2.45634 202.428 3.06573 202.946 3.8507C203.464 4.63568 203.723 5.55493 203.723 6.60845C203.723 7.4554 203.568 8.20939 203.257 8.87042C202.946 9.53145 202.522 10.0789 201.983 10.5127C201.48 10.9342 200.908 11.2484 200.268 11.4554C200.235 11.4662 200.212 11.4971 200.212 11.5322C200.212 11.5701 200.239 11.6027 200.276 11.6109C201.037 11.7793 201.709 12.0846 202.294 12.5268C202.915 12.9812 203.402 13.57 203.754 14.293C204.127 14.9953 204.313 15.8319 204.313 16.8028C204.313 18.0836 204.013 19.1577 203.412 20.0254C202.832 20.893 202.056 21.5437 201.082 21.9775C200.109 22.4113 199.021 22.6282 197.82 22.6282H186.526ZM190.238 17.9312C190.238 18.4375 190.649 18.8479 191.155 18.8479H196.919C197.685 18.8479 198.306 18.631 198.783 18.1972C199.28 17.7634 199.529 17.092 199.529 16.1831C199.529 15.646 199.425 15.1812 199.218 14.7887C199.011 14.3962 198.7 14.0967 198.286 13.8901C197.871 13.6629 197.343 13.5493 196.701 13.5493H191.155C190.649 13.5493 190.238 13.9597 190.238 14.466V17.9312ZM190.238 9.03826C190.238 9.54452 190.649 9.95493 191.155 9.95493H196.39C196.95 9.95493 197.416 9.85164 197.789 9.64507C198.182 9.41784 198.472 9.12864 198.659 8.77746C198.866 8.40563 198.969 7.98216 198.969 7.50704C198.969 6.70141 198.741 6.09202 198.286 5.67887C197.851 5.26573 197.271 5.05915 196.546 5.05915H191.155C190.649 5.05915 190.238 5.46956 190.238 5.97582V9.03826Z" fill="white"/>
<path d="M208.949 22.6282C208.442 22.6282 208.032 22.2178 208.032 21.7115V2.2885C208.032 1.78224 208.442 1.37183 208.949 1.37183H219.714C221.289 1.37183 222.594 1.6507 223.629 2.20845C224.686 2.7662 225.473 3.55117 225.991 4.56338C226.509 5.55493 226.767 6.70141 226.767 8.00282C226.767 9.38685 226.457 10.616 225.835 11.6901C225.368 12.483 224.742 13.1354 223.957 13.6474C223.524 13.9302 223.327 14.4882 223.562 14.9489L226.801 21.2947C227.113 21.9046 226.67 22.6282 225.985 22.6282H222.929C222.578 22.6282 222.258 22.4276 222.105 22.1117L218.847 15.3981C218.693 15.0822 218.373 14.8817 218.022 14.8817H213.578C213.072 14.8817 212.661 15.2921 212.661 15.7984V21.7115C212.661 22.2178 212.251 22.6282 211.745 22.6282H208.949ZM212.661 10.3087C212.661 10.8149 213.072 11.2254 213.578 11.2254H219.093C220.025 11.2254 220.75 10.9465 221.268 10.3887C221.786 9.81033 222.045 9.03568 222.045 8.06479C222.045 7.44507 221.931 6.91831 221.703 6.48451C221.475 6.03005 221.144 5.6892 220.709 5.46197C220.274 5.23474 219.735 5.12113 219.093 5.12113H213.578C213.072 5.12113 212.661 5.53153 212.661 6.03779V10.3087Z" fill="white"/>
<path d="M231.645 22.6282C231.138 22.6282 230.728 22.2178 230.728 21.7115V2.2885C230.728 1.78224 231.138 1.37183 231.645 1.37183H234.441C234.947 1.37183 235.357 1.78224 235.357 2.2885V21.7115C235.357 22.2178 234.947 22.6282 234.441 22.6282H231.645Z" fill="white"/>
<path d="M240.99 22.6282C240.484 22.6282 240.073 22.2178 240.073 21.7115V2.2885C240.073 1.78224 240.484 1.37183 240.99 1.37183H248.773C250.99 1.37183 252.874 1.75399 254.428 2.51831C255.982 3.28263 257.173 4.44976 258.001 6.01972C258.85 7.56901 259.275 9.56244 259.275 12C259.275 14.4169 258.85 16.4103 258.001 17.9803C257.173 19.5502 255.982 20.7174 254.428 21.4817C252.874 22.246 250.99 22.6282 248.773 22.6282H240.99ZM244.703 17.9002C244.703 18.4065 245.113 18.8169 245.62 18.8169H248.742C249.674 18.8169 250.503 18.6826 251.228 18.4141C251.953 18.1455 252.553 17.7531 253.03 17.2366C253.506 16.6995 253.869 16.0385 254.117 15.2535C254.366 14.4479 254.49 13.5183 254.49 12.4648V11.5352C254.49 10.4817 254.366 9.56244 254.117 8.77746C253.869 7.97183 253.506 7.3108 253.03 6.79437C252.553 6.25728 251.953 5.85446 251.228 5.58592C250.503 5.29671 249.674 5.15211 248.742 5.15211H245.62C245.113 5.15211 244.703 5.56252 244.703 6.06878V17.9002Z" fill="white"/>
<path d="M272.737 23C269.381 23 266.792 22.1117 264.969 20.3352C263.167 18.538 262.266 15.7596 262.266 12C262.266 9.50047 262.701 7.44507 263.571 5.8338C264.441 4.20188 265.704 2.99343 267.361 2.20845C269.018 1.40282 271.007 1 273.327 1C274.715 1 276.02 1.15493 277.242 1.46479C278.464 1.77465 279.541 2.24976 280.473 2.89014C281.426 3.53052 282.161 4.33615 282.679 5.30704C283.089 6.03039 283.343 6.86147 283.441 7.80028C283.493 8.30381 283.077 8.71549 282.57 8.71549H279.712C279.206 8.71549 278.812 8.29823 278.686 7.80775C278.614 7.52424 278.505 7.25875 278.36 7.01127C278.091 6.51549 277.708 6.10235 277.211 5.77183C276.714 5.44131 276.144 5.19343 275.502 5.02817C274.86 4.86291 274.187 4.78028 273.482 4.78028C272.405 4.78028 271.463 4.92488 270.655 5.21408C269.847 5.48263 269.174 5.9061 268.635 6.48451C268.117 7.04225 267.724 7.7446 267.455 8.59155C267.185 9.4385 267.051 10.4197 267.051 11.5352V12.4648C267.051 14.0141 267.278 15.2845 267.734 16.2761C268.19 17.2676 268.873 18.0113 269.785 18.507C270.696 18.9822 271.825 19.2197 273.172 19.2197C274.29 19.2197 275.274 19.0545 276.123 18.7239C276.993 18.3728 277.666 17.877 278.143 17.2366C278.64 16.5962 278.889 15.8113 278.889 14.8817C278.889 14.7619 278.791 14.6648 278.672 14.6648H273.436C272.929 14.6648 272.519 14.2544 272.519 13.7481V12.0491C272.519 11.5428 272.929 11.1324 273.436 11.1324H282.57C283.077 11.1324 283.487 11.5428 283.487 12.0491V21.7115C283.487 22.2178 283.077 22.6282 282.57 22.6282H281.161C280.745 22.6282 280.389 22.3297 280.317 21.9203C280.198 21.2448 279.359 20.965 278.792 21.3511C278.541 21.522 278.283 21.6792 278.019 21.8225C277.314 22.215 276.527 22.5042 275.657 22.6901C274.787 22.8967 273.814 23 272.737 23Z" fill="white"/>
<path d="M288.87 22.6282C288.364 22.6282 287.954 22.2178 287.954 21.7115V2.2885C287.954 1.78224 288.364 1.37183 288.87 1.37183H304.064C304.57 1.37183 304.98 1.78224 304.98 2.2885V4.23545C304.98 4.74171 304.57 5.15211 304.064 5.15211H293.531C293.025 5.15211 292.614 5.56252 292.614 6.06878V8.97629C292.614 9.48255 293.025 9.89296 293.531 9.89296H302.634C303.141 9.89296 303.551 10.3034 303.551 10.8096V12.7256C303.551 13.2318 303.141 13.6423 302.634 13.6423H293.531C293.025 13.6423 292.614 14.0527 292.614 14.5589V17.9002C292.614 18.4065 293.025 18.8169 293.531 18.8169H304.25C304.756 18.8169 305.167 19.2273 305.167 19.7336V21.7115C305.167 22.2178 304.756 22.6282 304.25 22.6282H288.87Z" fill="white"/>
<defs>
<linearGradient id="paint0_linear_5865_7433" x1="23.0224" y1="14.6406" x2="5.97755" y2="14.6406" gradientUnits="userSpaceOnUse">
<stop stop-color="#5059C4"/>
<stop offset="1" stop-color="#CB4920"/>
</linearGradient>
<linearGradient id="paint1_linear_5865_7433" x1="23.0224" y1="14.6406" x2="5.97755" y2="14.6406" gradientUnits="userSpaceOnUse">
<stop stop-color="#5059C4"/>
<stop offset="1" stop-color="#CB4920"/>
</linearGradient>
<linearGradient id="paint2_linear_5865_7433" x1="23.0224" y1="14.6406" x2="5.97755" y2="14.6406" gradientUnits="userSpaceOnUse">
<stop stop-color="#5059C4"/>
<stop offset="1" stop-color="#CB4920"/>
</linearGradient>
</defs>
</svg>
