<?xml version="1.0" encoding="UTF-8"?><svg xmlns="http://www.w3.org/2000/svg" xmlns:xlink="http://www.w3.org/1999/xlink" viewBox="0 0 4359.55 330"><defs><style>.f{fill:url(#d);}.g{fill:url(#c);}.h{fill:url(#b);}.i{fill:#fff;}.j{fill:#ca4820;}.k{fill:#444ea6;}</style><linearGradient id="b" x1="286.82" y1="-967.03" x2="75.23" y2="-967.03" gradientTransform="translate(0 -777.04) scale(1 -1)" gradientUnits="userSpaceOnUse"><stop offset="0" stop-color="#5059c4"/><stop offset="1" stop-color="#cb4920"/></linearGradient><linearGradient id="c" x1="286.82" x2="75.23" xlink:href="#b"/><linearGradient id="d" x1="286.82" y1="-989.36" x2="75.23" y2="-989.36" xlink:href="#b"/></defs><g id="a"><g><g><path class="h" d="M131.49,140.89c-21.42-8.14-40.52-21.41-55.99-38.4v175h55.99V140.89Z"/><path class="g" d="M286.54,102.5c-15.47,16.99-34.57,30.26-55.99,38.4v136.6h55.99V102.5Z"/><path class="f" d="M209.02,147.15c-9.06,1.85-18.42,2.83-27.99,2.83s-18.93-.97-27.99-2.83v130.35h55.99V147.15Z"/><rect class="j" x="1.02" y="15" width="49.66" height="300"/><rect class="k" x="311.37" y="15" width="49.66" height="300"/></g><g><path class="i" d="M836.68,288.87c-28.2-27.42-42.29-68.71-42.29-123.87s14.09-96.44,42.29-123.86C864.87,13.71,904.54,0,955.67,0s91.25,13.71,119.45,41.13c28.19,27.42,42.3,68.71,42.3,123.86s-14.1,96.45-42.3,123.87c-28.2,27.42-68.02,41.13-119.45,41.13s-90.8-13.71-118.99-41.13Zm188.01-42.3c15.64-17.5,23.47-42.37,23.47-74.6v-13.94c0-32.23-7.83-57.09-23.47-74.6-15.65-17.5-38.65-26.26-69.02-26.26s-53.3,8.76-68.79,26.26c-15.5,17.51-23.24,42.38-23.24,74.6v13.94c0,32.23,7.74,57.1,23.24,74.6,15.49,17.51,38.42,26.26,68.79,26.26s53.37-8.75,69.02-26.26Z"/><path class="i" d="M1176.73,5.58h51.69c2.96,0,5.73,1.44,7.44,3.85l119.98,169.51c3.54,5.01,9.3,14.62,17.31,28.86,.7,1.25,2.3,1.67,3.52,.94l.08-.05-1.4-26.96V14.7c0-5.04,4.08-9.12,9.12-9.12h47.3c5.04,0,9.12,4.08,9.12,9.12V315.3c0,5.04-4.08,9.12-9.12,9.12h-51.69c-2.97,0-5.75-1.44-7.45-3.87l-120.45-170.9c-5.49-7.8-11.12-17.23-16.88-28.27-.68-1.3-2.31-1.77-3.57-1.01h0c.92,13.33,1.39,22.62,1.39,27.89v167.04c0,5.04-4.08,9.12-9.12,9.12h-47.29c-5.04,0-9.12-4.08-9.12-9.12V14.7c0-5.04,4.08-9.12,9.12-9.12Z"/><path class="i" d="M1503.18,14.7c0-5.04,4.08-9.12,9.12-9.12h122.88c48.64,0,86.22,13.25,112.71,39.74,26.49,26.49,39.74,66.39,39.74,119.68s-13.25,93.19-39.74,119.69c-26.5,26.49-64.07,39.74-112.71,39.74h-122.88c-5.04,0-9.12-4.08-9.12-9.12V14.7Zm132,252.56c27.26,0,47.94-8.29,62.05-24.87,14.1-16.57,21.15-40.05,21.15-70.42v-13.94c0-30.37-7.05-53.84-21.15-70.42-14.1-16.57-34.79-24.87-62.05-24.87h-60.05c-2.52,0-4.56,2.04-4.56,4.56v195.39c0,2.52,2.04,4.56,4.56,4.56h60.05Z"/><path class="i" d="M1869.42,288.87c-28.2-27.42-42.29-68.71-42.29-123.87s14.09-96.44,42.29-123.86c28.19-27.43,67.86-41.13,118.99-41.13s91.25,13.71,119.45,41.13c28.19,27.42,42.3,68.71,42.3,123.86s-14.1,96.45-42.3,123.87c-28.2,27.42-68.02,41.13-119.45,41.13s-90.8-13.71-118.99-41.13Zm188.01-42.3c15.64-17.5,23.47-42.37,23.47-74.6v-13.94c0-32.23-7.83-57.09-23.47-74.6-15.65-17.5-38.65-26.26-69.02-26.26s-53.3,8.76-68.79,26.26c-15.5,17.51-23.24,42.38-23.24,74.6v13.94c0,32.23,7.74,57.1,23.24,74.6,15.49,17.51,38.42,26.26,68.79,26.26s53.37-8.75,69.02-26.26Z"/><path class="i" d="M2209.48,5.58h51.69c2.96,0,5.73,1.44,7.44,3.85l119.98,169.51c3.54,5.01,9.3,14.62,17.31,28.86,.7,1.25,2.3,1.67,3.52,.94l.08-.05-1.4-26.96V14.7c0-5.04,4.08-9.12,9.12-9.12h47.3c5.04,0,9.12,4.08,9.12,9.12V315.3c0,5.04-4.08,9.12-9.12,9.12h-51.69c-2.97,0-5.75-1.44-7.45-3.87l-120.45-170.9c-5.49-7.8-11.12-17.23-16.88-28.27-.68-1.3-2.31-1.77-3.57-1.01h0c.92,13.33,1.39,22.62,1.39,27.89v167.04c0,5.04-4.08,9.12-9.12,9.12h-47.29c-5.04,0-9.12-4.08-9.12-9.12V14.7c0-5.04,4.08-9.12,9.12-9.12Z"/><g><path class="i" d="M2625.15,14.69c0-5.03,4.08-9.12,9.12-9.12h173.55c16.73,0,31.91,3.33,45.55,9.99,13.63,6.67,24.32,15.96,32.07,27.89,7.74,11.93,11.62,25.64,11.62,41.13,0,17.66-4.88,32.93-14.64,45.78-9.76,12.86-22.24,21.77-37.42,26.73v1.86c17.97,3.41,32.61,12.16,43.92,26.26,11.31,14.1,16.97,30.76,16.97,49.97,0,28.82-9.22,50.89-27.65,66.23-18.44,15.34-41.91,23.01-70.42,23.01h-173.55c-5.03,0-9.12-4.08-9.12-9.12V14.69Zm163.6,118.24c12.39,0,22-3.17,28.82-9.53,6.81-6.35,10.23-14.48,10.23-24.4,0-11.77-3.18-20.76-9.53-26.96-6.35-6.2-15.11-9.3-26.26-9.3h-93.94c-2.52,0-4.56,2.04-4.56,4.56v61.07c0,2.52,2.04,4.56,4.56,4.56h90.68Zm7.9,134.32c11.77,0,21.38-3.41,28.82-10.23,7.44-6.81,11.15-16.57,11.15-29.28,0-11.46-3.72-20.76-11.15-27.89-7.44-7.12-18.29-10.69-32.53-10.69h-94.87c-2.52,0-4.56,2.04-4.56,4.56v68.97c0,2.52,2.04,4.56,4.56,4.56h98.59Z"/><path class="i" d="M2944.17,14.69c0-5.03,4.08-9.12,9.12-9.12h160.07c35.63,0,62.43,8.76,80.41,26.26,17.97,17.51,26.96,42.06,26.96,73.67,0,42.82-17.13,71.95-51.38,87.37-2.37,1.07-3.39,3.88-2.22,6.2l56.27,112.14c3.04,6.06-1.37,13.2-8.15,13.2h-52.43c-3.53,0-6.73-2.03-8.24-5.22l-52.54-111.16c-.75-1.59-2.36-2.61-4.12-2.61h-80.83c-2.52,0-4.56,2.04-4.56,4.56v105.31c0,5.03-4.08,9.12-9.12,9.12h-50.13c-5.03,0-9.12-4.08-9.12-9.12V14.69Zm163.14,134.51c14.56,0,25.72-3.87,33.46-11.62,7.74-7.74,11.62-18.43,11.62-32.07s-3.88-24.17-11.62-31.61c-7.75-7.44-18.9-11.15-33.46-11.15h-90.22c-2.52,0-4.56,2.04-4.56,4.56v77.34c0,2.52,2.04,4.56,4.56,4.56h90.22Z"/><path class="i" d="M3787.25,289.56c-26.81-26.96-40.2-68.48-40.2-124.56s14.25-96.05,42.76-123.63c28.5-27.58,68.79-41.37,120.85-41.37,27.58,0,52.75,4.26,75.53,12.78,22.77,8.53,40.9,21.38,54.38,38.58,11.65,14.87,18.27,32.57,19.85,53.11,.41,5.32-3.76,9.87-9.09,9.87h-51.79c-4.56,0-8.36-3.37-9.02-7.88-2.02-13.72-9.5-24.96-22.44-33.72-15.34-10.38-33.7-15.57-55.08-15.57-32.53,0-56.78,8.68-72.74,26.03-15.96,17.36-23.94,42.3-23.94,74.83v13.94c0,34.09,7.36,59.42,22.08,75.99,14.71,16.58,37.26,24.87,67.63,24.87,25.1,0,45.85-5.96,62.28-17.9,15.07-10.94,23.35-25.48,24.86-43.6,.22-2.67-1.87-4.96-4.55-4.96h-82.77c-5.03,0-9.12-4.08-9.12-9.12v-37.08c0-5.03,4.08-9.12,9.12-9.12h145.84c5.03,0,9.12,4.08,9.12,9.12v155.14c0,5.03-4.08,9.12-9.12,9.12h-29.68c-4.44,0-8.24-3.2-8.98-7.58l-3.34-19.52c-.6-3.51-4.81-5-7.49-2.66-13.04,11.42-26.66,19.94-40.86,25.57-16.43,6.51-36.41,9.76-59.96,9.76-49.27,0-87.31-13.48-114.11-40.44Z"/><path class="i" d="M3295.11,5.58h50.13c5.03,0,9.12,4.08,9.12,9.12V315.31c0,5.03-4.08,9.12-9.12,9.12h-50.13c-5.03,0-9.12-4.08-9.12-9.12V14.69c0-5.03,4.08-9.12,9.12-9.12Z"/><path class="i" d="M3422.72,14.69c0-5.03,4.08-9.12,9.12-9.12h118.15c48.65,0,86.22,13.25,112.71,39.74,26.48,26.49,39.74,66.39,39.74,119.68s-13.25,93.19-39.74,119.69c-26.5,26.49-64.07,39.74-112.71,39.74h-118.15c-5.03,0-9.12-4.08-9.12-9.12V14.69Zm127.27,252.56c27.27,0,47.94-8.29,62.05-24.87,14.1-16.57,21.15-40.05,21.15-70.42v-13.94c0-30.37-7.05-53.84-21.15-70.42-14.1-16.57-34.78-24.87-62.05-24.87h-54.35c-2.52,0-4.56,2.04-4.56,4.56v195.39c0,2.52,2.04,4.56,4.56,4.56h54.35Z"/><path class="i" d="M4138.25,5.58h206.86c5.03,0,9.12,4.08,9.12,9.12V53.63c0,5.03-4.08,9.12-9.12,9.12h-143.05c-2.52,0-4.56,2.04-4.56,4.56v61.07c0,2.52,2.04,4.56,4.56,4.56h122.6c5.03,0,9.12,4.08,9.12,9.12v38.94c0,5.03-4.08,9.12-9.12,9.12h-122.6c-2.52,0-4.56,2.04-4.56,4.56v68.04c0,2.52,2.04,4.56,4.56,4.56h145.84c5.03,0,9.12,4.08,9.12,9.12v38.94c0,5.03-4.08,9.12-9.12,9.12h-209.65c-5.03,0-9.12-4.08-9.12-9.12V14.69c0-5.03,4.08-9.12,9.12-9.12Z"/></g><path class="i" d="M551.14,5.49h50.16c5.04,0,9.12,4.08,9.12,9.12v246.74c0,2.52,2.04,4.56,4.56,4.56h145.92c5.04,0,9.12,4.08,9.12,9.12v40.36c0,5.04-4.08,9.12-9.12,9.12h-209.76c-5.04,0-9.12-4.08-9.12-9.12V14.61c0-5.04,4.08-9.12,9.12-9.12Z"/></g></g></g><g id="e"/></svg>