<svg width="306" height="32" viewBox="0 0 306 32" fill="none" xmlns="http://www.w3.org/2000/svg">
<path d="M43.9167 26.6282C43.4104 26.6282 43 26.2178 43 25.7115V6.2885C43 5.78224 43.4104 5.37183 43.9167 5.37183H46.7128C47.2191 5.37183 47.6295 5.78224 47.6295 6.2885V21.7763C47.6295 22.2826 48.0399 22.693 48.5462 22.693H57.4633C57.9695 22.693 58.3799 23.1034 58.3799 23.6096V25.7115C58.3799 26.2178 57.9695 26.6282 57.4633 26.6282H43.9167Z" fill="#0C1731"/>
<path d="M70.3591 27C68.1013 27 66.1542 26.5972 64.5178 25.7915C62.8814 24.9859 61.6282 23.7671 60.7583 22.1352C59.8883 20.5033 59.4533 18.4582 59.4533 16C59.4533 13.5005 59.8883 11.4451 60.7583 9.8338C61.6282 8.20188 62.8814 6.99343 64.5178 6.20845C66.1542 5.40282 68.1013 5 70.3591 5C72.6583 5 74.6157 5.40282 76.2314 6.20845C77.8678 6.99343 79.121 8.20188 79.9909 9.8338C80.8609 11.4451 81.2959 13.5005 81.2959 16C81.2959 18.4582 80.8609 20.5033 79.9909 22.1352C79.121 23.7671 77.8678 24.9859 76.2314 25.7915C74.6157 26.5972 72.6583 27 70.3591 27ZM70.3591 23.2197C71.374 23.2197 72.2647 23.0751 73.0311 22.7859C73.7975 22.4967 74.4397 22.0629 74.9575 21.4845C75.4753 20.9061 75.8689 20.2038 76.1382 19.3775C76.4075 18.5305 76.5421 17.57 76.5421 16.4958V15.5352C76.5421 14.4404 76.4075 13.4695 76.1382 12.6225C75.8689 11.7756 75.4753 11.0732 74.9575 10.5155C74.4397 9.93709 73.7975 9.50329 73.0311 9.21408C72.2647 8.92488 71.374 8.78028 70.3591 8.78028C69.3648 8.78028 68.4845 8.92488 67.7181 9.21408C66.9517 9.50329 66.3095 9.93709 65.7917 10.5155C65.2739 11.0732 64.8803 11.7756 64.611 12.6225C64.3625 13.4695 64.2382 14.4404 64.2382 15.5352V16.4958C64.2382 17.57 64.3625 18.5305 64.611 19.3775C64.8803 20.2038 65.2739 20.9061 65.7917 21.4845C66.3095 22.0629 66.9517 22.4967 67.7181 22.7859C68.4845 23.0751 69.3648 23.2197 70.3591 23.2197Z" fill="#0C1731"/>
<path d="M85.9711 26.6282C85.4649 26.6282 85.0545 26.2178 85.0545 25.7115V6.2885C85.0545 5.78224 85.4649 5.37183 85.9711 5.37183H88.8521C89.141 5.37183 89.413 5.50807 89.5861 5.73944L97.8866 16.8366C98.0109 16.9812 98.1662 17.1878 98.3527 17.4563C98.5391 17.7042 98.7151 17.9521 98.8808 18.2C99.026 18.4172 99.1314 18.5947 99.1971 18.7326C99.2132 18.7664 99.2469 18.7887 99.2843 18.7887C99.336 18.7887 99.378 18.7468 99.378 18.6951C99.378 18.3769 99.378 18.0673 99.378 17.7662C99.378 17.415 99.378 17.1052 99.378 16.8366V6.2885C99.378 5.78224 99.7884 5.37183 100.295 5.37183H102.842C103.349 5.37183 103.759 5.78224 103.759 6.2885V25.7115C103.759 26.2178 103.349 26.6282 102.842 26.6282H99.962C99.6727 26.6282 99.4003 26.4916 99.2273 26.2597L90.7404 14.8845C90.5332 14.5953 90.3157 14.2751 90.0879 13.9239C89.8797 13.6031 89.7234 13.3512 89.619 13.1683C89.6014 13.1375 89.5688 13.1183 89.5333 13.1183C89.4792 13.1183 89.4354 13.1621 89.4354 13.2162C89.4354 13.4934 89.4354 13.7706 89.4354 14.0479C89.4354 14.3371 89.4354 14.616 89.4354 14.8845V25.7115C89.4354 26.2178 89.025 26.6282 88.5187 26.6282H85.9711Z" fill="#0C1731"/>
<path d="M109.395 26.6282C108.889 26.6282 108.479 26.2178 108.479 25.7115V6.2885C108.479 5.78224 108.889 5.37183 109.395 5.37183H117.178C119.395 5.37183 121.28 5.75399 122.833 6.51831C124.387 7.28263 125.578 8.44976 126.406 10.0197C127.256 11.569 127.68 13.5624 127.68 16C127.68 18.4169 127.256 20.4103 126.406 21.9803C125.578 23.5502 124.387 24.7174 122.833 25.4817C121.28 26.246 119.395 26.6282 117.178 26.6282H109.395ZM113.108 21.9002C113.108 22.4065 113.519 22.8169 114.025 22.8169H117.147C118.08 22.8169 118.908 22.6826 119.633 22.4141C120.358 22.1455 120.959 21.7531 121.435 21.2366C121.912 20.6995 122.274 20.0385 122.523 19.2535C122.771 18.4479 122.895 17.5183 122.895 16.4648V15.5352C122.895 14.4817 122.771 13.5624 122.523 12.7775C122.274 11.9718 121.912 11.3108 121.435 10.7944C120.959 10.2573 120.358 9.85446 119.633 9.58592C118.908 9.29671 118.08 9.15211 117.147 9.15211H114.025C113.519 9.15211 113.108 9.56252 113.108 10.0688V21.9002Z" fill="#0C1731"/>
<path d="M141.39 27C139.133 27 137.186 26.5972 135.549 25.7915C133.913 24.9859 132.66 23.7671 131.79 22.1352C130.92 20.5033 130.485 18.4582 130.485 16C130.485 13.5005 130.92 11.4451 131.79 9.8338C132.66 8.20188 133.913 6.99343 135.549 6.20845C137.186 5.40282 139.133 5 141.39 5C143.69 5 145.647 5.40282 147.263 6.20845C148.899 6.99343 150.152 8.20188 151.022 9.8338C151.892 11.4451 152.327 13.5005 152.327 16C152.327 18.4582 151.892 20.5033 151.022 22.1352C150.152 23.7671 148.899 24.9859 147.263 25.7915C145.647 26.5972 143.69 27 141.39 27ZM141.39 23.2197C142.405 23.2197 143.296 23.0751 144.063 22.7859C144.829 22.4967 145.471 22.0629 145.989 21.4845C146.507 20.9061 146.9 20.2038 147.17 19.3775C147.439 18.5305 147.573 17.57 147.573 16.4958V15.5352C147.573 14.4404 147.439 13.4695 147.17 12.6225C146.9 11.7756 146.507 11.0732 145.989 10.5155C145.471 9.93709 144.829 9.50329 144.063 9.21408C143.296 8.92488 142.405 8.78028 141.39 8.78028C140.396 8.78028 139.516 8.92488 138.749 9.21408C137.983 9.50329 137.341 9.93709 136.823 10.5155C136.305 11.0732 135.912 11.7756 135.642 12.6225C135.394 13.4695 135.27 14.4404 135.27 15.5352V16.4958C135.27 17.57 135.394 18.5305 135.642 19.3775C135.912 20.2038 136.305 20.9061 136.823 21.4845C137.341 22.0629 137.983 22.4967 138.749 22.7859C139.516 23.0751 140.396 23.2197 141.39 23.2197Z" fill="#0C1731"/>
<path d="M157.003 26.6282C156.496 26.6282 156.086 26.2178 156.086 25.7115V6.2885C156.086 5.78224 156.496 5.37183 157.003 5.37183H159.883C160.172 5.37183 160.444 5.50807 160.617 5.73944L168.918 16.8366C169.042 16.9812 169.198 17.1878 169.384 17.4563C169.57 17.7042 169.747 17.9521 169.912 18.2C170.057 18.4172 170.163 18.5947 170.228 18.7326C170.245 18.7664 170.278 18.7887 170.316 18.7887C170.367 18.7887 170.409 18.7468 170.409 18.6951C170.409 18.3769 170.409 18.0672 170.409 17.7662C170.409 17.415 170.409 17.1052 170.409 16.8366V6.2885C170.409 5.78224 170.82 5.37183 171.326 5.37183H173.874C174.38 5.37183 174.79 5.78224 174.79 6.2885V25.7115C174.79 26.2178 174.38 26.6282 173.874 26.6282H170.993C170.704 26.6282 170.432 26.4916 170.259 26.2597L161.772 14.8845C161.565 14.5953 161.347 14.2751 161.119 13.9239C160.911 13.6031 160.755 13.3512 160.65 13.1683C160.633 13.1375 160.6 13.1183 160.565 13.1183C160.511 13.1183 160.467 13.1621 160.467 13.2162C160.467 13.4934 160.467 13.7706 160.467 14.0479C160.467 14.3371 160.467 14.616 160.467 14.8845V25.7115C160.467 26.2178 160.056 26.6282 159.55 26.6282H157.003Z" fill="#0C1731"/>
<path d="M186.526 26.6282C186.019 26.6282 185.609 26.2178 185.609 25.7115V6.2885C185.609 5.78224 186.019 5.37183 186.526 5.37183H197.789C198.907 5.37183 199.912 5.58873 200.802 6.02253C201.714 6.45634 202.428 7.06573 202.946 7.8507C203.464 8.63568 203.723 9.55493 203.723 10.6085C203.723 11.4554 203.568 12.2094 203.257 12.8704C202.946 13.5315 202.522 14.0789 201.983 14.5127C201.48 14.9342 200.908 15.2484 200.268 15.4554C200.235 15.4662 200.212 15.4971 200.212 15.5322C200.212 15.5701 200.239 15.6027 200.276 15.6109C201.037 15.7793 201.709 16.0846 202.294 16.5268C202.915 16.9812 203.402 17.57 203.754 18.293C204.127 18.9953 204.313 19.8319 204.313 20.8028C204.313 22.0836 204.013 23.1577 203.412 24.0254C202.832 24.893 202.056 25.5437 201.082 25.9775C200.109 26.4113 199.021 26.6282 197.82 26.6282H186.526ZM190.238 21.9312C190.238 22.4375 190.649 22.8479 191.155 22.8479H196.919C197.685 22.8479 198.306 22.631 198.783 22.1972C199.28 21.7634 199.529 21.092 199.529 20.1831C199.529 19.646 199.425 19.1812 199.218 18.7887C199.011 18.3962 198.7 18.0967 198.286 17.8901C197.871 17.6629 197.343 17.5493 196.701 17.5493H191.155C190.649 17.5493 190.238 17.9597 190.238 18.466V21.9312ZM190.238 13.0383C190.238 13.5445 190.649 13.9549 191.155 13.9549H196.39C196.95 13.9549 197.416 13.8516 197.789 13.6451C198.182 13.4178 198.472 13.1286 198.659 12.7775C198.866 12.4056 198.969 11.9822 198.969 11.507C198.969 10.7014 198.741 10.092 198.286 9.67887C197.851 9.26573 197.271 9.05915 196.546 9.05915H191.155C190.649 9.05915 190.238 9.46956 190.238 9.97582V13.0383Z" fill="#0C1731"/>
<path d="M208.949 26.6282C208.442 26.6282 208.032 26.2178 208.032 25.7115V6.2885C208.032 5.78224 208.442 5.37183 208.949 5.37183H219.714C221.289 5.37183 222.594 5.6507 223.629 6.20845C224.686 6.7662 225.473 7.55117 225.991 8.56338C226.509 9.55493 226.767 10.7014 226.767 12.0028C226.767 13.3869 226.457 14.616 225.835 15.6901C225.368 16.483 224.742 17.1354 223.957 17.6474C223.524 17.9302 223.327 18.4882 223.562 18.9489L226.801 25.2947C227.113 25.9046 226.67 26.6282 225.985 26.6282H222.929C222.578 26.6282 222.258 26.4276 222.105 26.1117L218.847 19.3981C218.693 19.0822 218.373 18.8817 218.022 18.8817H213.578C213.072 18.8817 212.661 19.2921 212.661 19.7984V25.7115C212.661 26.2178 212.251 26.6282 211.745 26.6282H208.949ZM212.661 14.3087C212.661 14.8149 213.072 15.2254 213.578 15.2254H219.093C220.025 15.2254 220.75 14.9465 221.268 14.3887C221.786 13.8103 222.045 13.0357 222.045 12.0648C222.045 11.4451 221.931 10.9183 221.703 10.4845C221.475 10.03 221.144 9.6892 220.709 9.46197C220.274 9.23474 219.735 9.12113 219.093 9.12113H213.578C213.072 9.12113 212.661 9.53153 212.661 10.0378V14.3087Z" fill="#0C1731"/>
<path d="M231.645 26.6282C231.138 26.6282 230.728 26.2178 230.728 25.7115V6.2885C230.728 5.78224 231.138 5.37183 231.645 5.37183H234.441C234.947 5.37183 235.357 5.78224 235.357 6.2885V25.7115C235.357 26.2178 234.947 26.6282 234.441 26.6282H231.645Z" fill="#0C1731"/>
<path d="M240.99 26.6282C240.484 26.6282 240.073 26.2178 240.073 25.7115V6.2885C240.073 5.78224 240.484 5.37183 240.99 5.37183H248.773C250.99 5.37183 252.874 5.75399 254.428 6.51831C255.982 7.28263 257.173 8.44976 258.001 10.0197C258.85 11.569 259.275 13.5624 259.275 16C259.275 18.4169 258.85 20.4103 258.001 21.9803C257.173 23.5502 255.982 24.7174 254.428 25.4817C252.874 26.246 250.99 26.6282 248.773 26.6282H240.99ZM244.703 21.9002C244.703 22.4065 245.113 22.8169 245.62 22.8169H248.742C249.674 22.8169 250.503 22.6826 251.228 22.4141C251.953 22.1455 252.553 21.7531 253.03 21.2366C253.506 20.6995 253.869 20.0385 254.117 19.2535C254.366 18.4479 254.49 17.5183 254.49 16.4648V15.5352C254.49 14.4817 254.366 13.5624 254.117 12.7775C253.869 11.9718 253.506 11.3108 253.03 10.7944C252.553 10.2573 251.953 9.85446 251.228 9.58592C250.503 9.29671 249.674 9.15211 248.742 9.15211H245.62C245.113 9.15211 244.703 9.56252 244.703 10.0688V21.9002Z" fill="#0C1731"/>
<path d="M272.737 27C269.381 27 266.792 26.1117 264.969 24.3352C263.167 22.538 262.266 19.7596 262.266 16C262.266 13.5005 262.701 11.4451 263.571 9.8338C264.441 8.20188 265.704 6.99343 267.361 6.20845C269.018 5.40282 271.007 5 273.327 5C274.715 5 276.02 5.15493 277.242 5.46479C278.464 5.77465 279.541 6.24976 280.473 6.89014C281.426 7.53052 282.161 8.33615 282.679 9.30704C283.089 10.0304 283.343 10.8615 283.441 11.8003C283.493 12.3038 283.077 12.7155 282.57 12.7155H279.712C279.206 12.7155 278.812 12.2982 278.686 11.8077C278.614 11.5242 278.505 11.2587 278.36 11.0113C278.091 10.5155 277.708 10.1023 277.211 9.77183C276.714 9.44131 276.144 9.19343 275.502 9.02817C274.86 8.86291 274.187 8.78028 273.482 8.78028C272.405 8.78028 271.463 8.92488 270.655 9.21408C269.847 9.48263 269.174 9.9061 268.635 10.4845C268.117 11.0423 267.724 11.7446 267.455 12.5915C267.185 13.4385 267.051 14.4197 267.051 15.5352V16.4648C267.051 18.0141 267.278 19.2845 267.734 20.2761C268.19 21.2676 268.873 22.0113 269.785 22.507C270.696 22.9822 271.825 23.2197 273.172 23.2197C274.29 23.2197 275.274 23.0545 276.123 22.7239C276.993 22.3728 277.666 21.877 278.143 21.2366C278.64 20.5962 278.889 19.8113 278.889 18.8817C278.889 18.7619 278.791 18.6648 278.672 18.6648H273.436C272.929 18.6648 272.519 18.2544 272.519 17.7481V16.0491C272.519 15.5428 272.929 15.1324 273.436 15.1324H282.57C283.077 15.1324 283.487 15.5428 283.487 16.0491V25.7115C283.487 26.2178 283.077 26.6282 282.57 26.6282H281.161C280.745 26.6282 280.389 26.3297 280.317 25.9203C280.198 25.2448 279.359 24.965 278.792 25.3511C278.541 25.522 278.283 25.6792 278.019 25.8225C277.314 26.215 276.527 26.5042 275.657 26.6901C274.787 26.8967 273.814 27 272.737 27Z" fill="#0C1731"/>
<path d="M288.87 26.6282C288.364 26.6282 287.954 26.2178 287.954 25.7115V6.2885C287.954 5.78224 288.364 5.37183 288.87 5.37183H304.064C304.57 5.37183 304.98 5.78224 304.98 6.2885V8.23545C304.98 8.74171 304.57 9.15211 304.064 9.15211H293.531C293.025 9.15211 292.614 9.56252 292.614 10.0688V12.9763C292.614 13.4826 293.025 13.893 293.531 13.893H302.634C303.141 13.893 303.551 14.3034 303.551 14.8096V16.7256C303.551 17.2318 303.141 17.6423 302.634 17.6423H293.531C293.025 17.6423 292.614 18.0527 292.614 18.5589V21.9002C292.614 22.4065 293.025 22.8169 293.531 22.8169H304.25C304.756 22.8169 305.167 23.2273 305.167 23.7336V25.7115C305.167 26.2178 304.756 26.6282 304.25 26.6282H288.87Z" fill="#0C1731"/>
<path d="M26.6667 32H5.33333C2.38667 32 0 29.6133 0 26.6667V5.33333C0 2.38667 2.38667 0 5.33333 0H26.6667C29.6133 0 32 2.38667 32 5.33333V26.6667C32 29.6133 29.6133 32 26.6667 32Z" fill="#0C1731"/>
<path d="M12.6982 14.393C11.2704 13.8504 9.99675 12.966 8.96558 11.833V23.4997H12.6982V14.393Z" fill="url(#paint0_linear_5865_7432)"/>
<path d="M23.0345 11.833C22.0034 12.966 20.7297 13.8504 19.302 14.393V23.4997H23.0345V11.833Z" fill="url(#paint1_linear_5865_7432)"/>
<path d="M17.8664 14.81C17.2623 14.9336 16.6383 14.9984 16.0001 14.9984C15.3618 14.9984 14.7379 14.9336 14.1338 14.81V23.4997H17.8664V14.81Z" fill="url(#paint2_linear_5865_7432)"/>
<rect x="4" y="6" width="3.31034" height="20" fill="#CA4820"/>
<rect x="24.6897" y="6" width="3.31034" height="20" fill="#444EA6"/>
<defs>
<linearGradient id="paint0_linear_5865_7432" x1="23.0531" y1="18.2001" x2="8.94699" y2="18.2001" gradientUnits="userSpaceOnUse">
<stop stop-color="#5059C4"/>
<stop offset="1" stop-color="#CB4920"/>
</linearGradient>
<linearGradient id="paint1_linear_5865_7432" x1="23.0531" y1="18.2001" x2="8.94699" y2="18.2001" gradientUnits="userSpaceOnUse">
<stop stop-color="#5059C4"/>
<stop offset="1" stop-color="#CB4920"/>
</linearGradient>
<linearGradient id="paint2_linear_5865_7432" x1="23.0531" y1="18.2001" x2="8.94699" y2="18.2001" gradientUnits="userSpaceOnUse">
<stop stop-color="#5059C4"/>
<stop offset="1" stop-color="#CB4920"/>
</linearGradient>
</defs>
</svg>
