<?xml version="1.0" standalone="no"?>
<!DOCTYPE svg PUBLIC "-//W3C//DTD SVG 20010904//EN"
 "http://www.w3.org/TR/2001/REC-SVG-20010904/DTD/svg10.dtd">
<svg version="1.0" xmlns="http://www.w3.org/2000/svg"
 width="700.000000pt" height="700.000000pt" viewBox="0 0 700.000000 700.000000"
 preserveAspectRatio="xMidYMid meet">
<metadata>
Created by potrace 1.11, written by Peter Selinger 2001-2013
</metadata>
<g transform="translate(0.000000,700.000000) scale(0.100000,-0.100000)"
fill="#000000" stroke="none">
<path d="M3185 6989 c-455 -41 -851 -152 -1250 -348 -866 -427 -1508 -1184
-1788 -2111 -253 -836 -173 -1760 220 -2544 389 -776 1073 -1392 1883 -1694
403 -150 769 -215 1215 -215 548 -1 1030 110 1520 348 698 340 1281 930 1609
1627 224 478 330 952 329 1483 0 246 -8 357 -44 575 -119 722 -469 1388 -1000
1905 -547 533 -1210 853 -1974 956 -173 23 -561 33 -720 18z m389 -1338 c15
-10 37 -32 47 -47 18 -28 19 -71 19 -1260 l0 -1231 -23 -34 c-60 -90 -172 -88
-241 5 -21 27 -21 31 -21 1254 0 1162 1 1229 18 1260 37 68 138 94 201 53z
m-453 -684 c74 -49 69 36 69 -1197 0 -1032 -1 -1107 -18 -1139 -27 -54 -65
-76 -127 -76 -62 0 -97 21 -126 75 -18 33 -19 83 -19 1140 0 1032 1 1107 18
1140 24 48 75 80 127 80 27 0 54 -8 76 -23z m906 3 c18 -10 40 -34 50 -52 17
-31 18 -94 18 -1148 l0 -1115 -22 -36 c-57 -91 -187 -88 -243 4 -19 31 -20 59
-20 1145 0 936 2 1117 14 1140 16 30 53 66 76 75 34 12 96 6 127 -13z m-1358
-1029 c14 -10 34 -30 45 -45 21 -27 21 -34 21 -906 0 -872 0 -879 -21 -906
-50 -68 -128 -87 -195 -48 -73 42 -69 -10 -69 952 0 906 0 905 43 941 49 40
129 45 176 12z m1813 1 c14 -8 36 -32 47 -52 21 -37 21 -43 21 -900 0 -857 0
-863 -21 -900 -54 -97 -173 -100 -243 -6 -21 27 -21 37 -24 879 -1 469 0 867
3 885 8 42 58 99 99 111 37 11 81 5 118 -17z m-2267 -602 c66 -41 65 -27 65
-657 0 -546 -1 -569 -20 -600 -25 -41 -74 -66 -126 -65 -53 0 -76 13 -111 59
l-28 36 0 571 c0 531 1 573 18 604 38 69 135 94 202 52z m2720 0 c66 -41 65
-27 65 -657 0 -546 -1 -569 -20 -600 -55 -92 -195 -86 -248 10 -16 29 -17 80
-17 597 0 525 1 567 18 598 38 69 135 94 202 52z"/>
</g>
</svg>
