<?xml version="1.0" encoding="utf-8"?>
<!-- Generator: Adobe Illustrator 22.1.0, SVG Export Plug-In . SVG Version: 6.00 Build 0)  -->
<svg version="1.1" id="Layer_1" xmlns="http://www.w3.org/2000/svg" xmlns:xlink="http://www.w3.org/1999/xlink" x="0px" y="0px"
	 viewBox="0 0 141.7 183" style="enable-background:new 0 0 141.7 183;" xml:space="preserve">
<style type="text/css">
	.st0{fill:#000076;fill-opacity:0.2;}
	.st1{fill:#FFFFFF;}
	.st2{fill:#FF6F00;}
	.st3{fill:#64EFFF;}
	.st4{fill:#000076;}
</style>
<title>Traceability Copy</title>
<desc>Created with Sketch.</desc>
<g id="Desktop">
	<g id="_x35_-Project-" transform="translate(-568.000000, -2960.000000)">
		<g id="Traceability-Copy" transform="translate(563.000000, 2959.000000)">
			<g id="Group-3" transform="translate(0.000000, 112.640000)">
				<g id="Clip-2">
				</g>
				<path id="Fill-1" class="st0" d="M126.4,26.7L88.8,5c-4.7-2.7-12.3-2.7-17,0L15.9,37.5c-4.6,2.7-4.6,7.1,0.1,9.8L53.6,69
					c4.7,2.7,12.3,2.7,17,0l55.9-32.5C131.1,33.9,131.1,29.4,126.4,26.7"/>
			</g>
			<g id="Group-22" transform="translate(1.000000, 86.640000)">
				<g id="Group-6">
					<g id="Clip-5">
					</g>
					<path id="Fill-4" class="st1" d="M124.2,22.8L95.9,6.5c-6-3.5-15.7-3.5-21.6,0l-11.6,6.7c-1.2,0.7-1.2,1.8,0,2.5
						c1.2,0.7,3.1,0.7,4.3,0L78.6,9c3.6-2.1,9.5-2.1,13.1,0L120,25.4c1.2,0.7,3.1,0.7,4.3,0C125.4,24.6,125.4,23.5,124.2,22.8"/>
				</g>
				<g id="Group-9">
					<g id="Clip-8">
					</g>
					<path id="Fill-7" class="st2" d="M133.1,28c-1.2-0.7-3.1-0.7-4.2,0c-1.2,0.7-1.2,1.8,0,2.5c3.6,2.1,3.7,5.5,0,7.6l-6.5,3.8
						c-1.2,0.7-1.2,1.8,0,2.5s3.1,0.7,4.2,0l6.5-3.8C139.1,37,139.1,31.4,133.1,28"/>
				</g>
				<g id="Group-12">
					<g id="Clip-11">
					</g>
					<path id="Fill-10" class="st1" d="M118.1,46.8c-1.2-0.7-3.1-0.7-4.3,0L73.4,70.3c-3.6,2.1-9.5,2.1-13.1,0l-11.1-6.4
						c-1.2-0.7-3.1-0.7-4.2,0c-1.1,0.7-1.2,1.8,0,2.5l11.1,6.4c6,3.5,15.7,3.5,21.6,0l40.5-23.5C119.3,48.6,119.3,47.5,118.1,46.8"
						/>
				</g>
				<g id="Group-15">
					<g id="Clip-14">
					</g>
					<path id="Fill-13" class="st3" d="M50.8,22.5c-1.2-0.7-3.1-0.7-4.2,0L18.7,38.7c-5.9,3.5-5.9,9.1,0.1,12.5l16.1,9.3
						c1.2,0.7,3.1,0.7,4.2,0c1.2-0.7,1.2-1.8,0-2.5L23,48.7c-3.6-2.1-3.7-5.5,0-7.6L50.9,25C52,24.3,52,23.2,50.8,22.5"/>
				</g>
				<g id="Group-18">
					<g id="Clip-17">
					</g>
					<path id="Fill-16" class="st1" d="M101.8,37L74.2,21c-1.2-0.7-3.1-0.7-4.3,0s-1.2,1.8,0,2.5l27.7,16c1.2,0.7,3.1,0.7,4.2,0
						C103,38.8,103,37.7,101.8,37"/>
				</g>
				<g id="Group-21">
					<g id="Clip-20">
					</g>
					<path id="Fill-19" class="st1" d="M91.5,49.4l-29-16.8c-1.2-0.7-3.1-0.7-4.2,0c-1.2,0.7-1.2,1.8,0,2.5l29.1,16.8
						c1.2,0.7,3.1,0.7,4.2,0C92.7,51.1,92.7,50.1,91.5,49.4"/>
				</g>
			</g>
			<g id="Group-35" transform="translate(0.000000, 0.640000)">
				<g id="Group-25" transform="translate(23.000000, 0.000000)">
					<g id="Clip-24">
					</g>
					<path id="Fill-23" class="st4" d="M74.7,34c0,18.6-15.1,33.6-33.6,33.6S7.4,52.6,7.4,34S22.5,0.4,41,0.4S74.7,15.4,74.7,34"/>
				</g>
				<path id="Fill-26" class="st1" d="M57.2,21.4c-1.6,0-2.9,1.3-2.9,2.9v5.9c0,1.6,1.3,2.9,2.9,2.9h3.2c1.6,0,2.9-1.3,2.9-2.9v-5.9
					c0-1.6-1.3-2.9-2.9-2.9H57.2z M60.5,35.5h-3.2c-2.9,0-5.3-2.4-5.3-5.3v-5.9c0-2.9,2.4-5.3,5.3-5.3h3.2c2.9,0,5.3,2.4,5.3,5.3
					v5.9C65.7,33.2,63.4,35.5,60.5,35.5z"/>
				<path id="Fill-28" class="st1" d="M70,48c0-5.7-4.6-10.3-10.3-10.3h-2.3c-5.7,0-10.3,4.6-10.3,10.3v3.2c0,0.3,0,0.5,0,0.8h2.1
					c0-0.2,0-0.5,0-0.8V48c0-4.5,3.7-8.2,8.2-8.2h2.3c4.5,0,8.2,3.7,8.2,8.2v3.2c0,0.3,0,0.5,0,0.8H70c0-0.2,0-0.5,0-0.8
					C70,51.2,70,48,70,48z"/>
				<path id="Fill-30" class="st1" d="M75.7,45.9h5.7V26.3h-5.7V45.9z M76.7,44.9h3.7V27.3h-3.7V44.9z"/>
				<path id="Fill-32" class="st3" d="M81.2,47.4L78.6,51c-0.1,0.1-0.2,0.1-0.2,0l-2.6-3.7c-0.1-0.1,0-0.2,0.1-0.2H81
					C81.2,47.2,81.3,47.3,81.2,47.4"/>
				<path id="Fill-33" class="st3" d="M81.4,23.1c0-1.6-1.3-2.8-2.8-2.8c-1.6,0-2.8,1.3-2.8,2.8v1.7h5.7L81.4,23.1L81.4,23.1z"/>
				<path id="Fill-34" class="st1" d="M65.7,93.1c-0.3,0-0.5-0.2-0.5-0.5v-18c0-0.3,0.2-0.5,0.5-0.5s0.5,0.2,0.5,0.5v18
					C66.2,92.9,66,93.1,65.7,93.1"/>
			</g>
		</g>
	</g>
</g>
</svg>
