<svg class="graphic--circle" viewBox="0 0 1156.6 985" version="1.1">
    <g transform="translate(2.000000, 2.000000)">
        <path class="graphic__stroke graphic__highlight" d="M643.4,171.9c9.1,1.6,18.1,3.5,27.2,5.8c6.6,1.6,13.2,3.4,19.6,5.4 c25.7,7.7,50.1,17.8,73.1,29.9"/>
		<path class="graphic__stroke alt graphic__highlight" d="M778,221c10.2,5.9,20,12.2,29.5,18.9"/>
		<path class="graphic__stroke alt graphic__primary" d="M964.2,686.8c-3.6,12.4-7.7,24.5-12.4,36.3"/>
		<path class="graphic__stroke graphic__primary" d="M946.4,736c-77.8,178.8-275.3,280.8-471,232.5C347.9,937,249.4,848.6,200.2,737"/>
		<path class="graphic__stroke graphic__primary" d="M190.9,713.9c-27.3-73.8-33.5-156.3-13.2-238.5c5.8-23.7,13.6-46.3,23.2-67.8"/>
		<path class="graphic__stroke alt graphic__secondary" d="M209.5,389.3c11.6-23.1,25.3-44.7,40.8-64.8"/>
		<path class="graphic__stroke alt graphic__primary" d="M264.9,306.6c50-57.8,115.4-100.4,188.1-122.8"/>
		<path class="graphic__stroke alt graphic__primary" d="M469.6,179.1c6.4-1.7,12.9-3.2,19.4-4.6"/>
		<path class="graphic__stroke graphic__highlight" d="M852.8,738.1c-56.2,93.8-158.9,156.6-276.2,156.6c-177.7,0-321.8-144.1-321.8-321.8 c0-111.6,56.8-209.9,143.1-267.6"/>
		<path class="graphic__stroke graphic__highlight" d="M114.3,406.9c68.1-189.3,249.2-324.7,462-324.7c140.3,0,266.8,58.8,356.2,153.2"/>
		<path class="graphic__stroke alt graphic__secondary" d="M150.5,818.8c-35.9-62.6-58.5-134-63.9-210.8c-1.5-22.3-1.6-44.3-0.2-66l0.4-5.8 c2-26.9,6.3-53.3,12.5-78.9"/>
		<path class="graphic__stroke graphic__highlight" d="M13.2,695.2C9.1,676.7,6,658,3.8,639"/>
		<path class="graphic__stroke graphic__highlight" d="M3.7,638.6c-7.7-67-3.7-136.5,13.8-205.7c9-35.5,21.1-69.5,36-101.6"/>
		<path class="graphic__stroke graphic__highlight" d="M65.5,307c11.3-21.7,24-42.4,37.8-62.2"/>
		<path class="graphic__stroke graphic__primary" d="M119.9,222.3C201,117.6,316.3,44.2,444.8,14.6"/>
		<path class="graphic__stroke graphic__highlight" d="M13.2,695.2c-3.5-15.8-6.3-31.8-8.4-48"/>
		<path class="graphic__stroke graphic__highlight" d="M3.7,638.6c-7.7-67-3.7-136.5,13.8-205.7c9-35.5,21.1-69.5,36-101.6"/>
		<path class="graphic__stroke alt graphic__secondary" d="M65.5,307c11.3-21.7,24-42.4,37.8-62.2"/>
		<path class="graphic__stroke graphic__secondary" d="M513.8,3.1c65-6.8,132.4-2.4,199.5,14.5c43.1,10.9,83.8,26.4,121.8,45.9"/>
		<path class="graphic__stroke alt graphic__secondary" d="M854,73.6c3.2,1.8,6.3,3.6,9.4,5.4c8.3,4.9,16.4,9.9,24.4,15.2"/>
    </g>
</svg>