<?xml version="1.0" encoding="UTF-8"?>
<svg width="59px" height="90px" viewBox="0 0 59 90" version="1.1" xmlns="http://www.w3.org/2000/svg" xmlns:xlink="http://www.w3.org/1999/xlink">
    <!-- Generator: Sketch 51.2 (57519) - http://www.bohemiancoding.com/sketch -->
    <title>icon-etherum</title>
    <desc>Created with Sketch.</desc>
    <defs></defs>
    <g id="Desktop" stroke="none" stroke-width="1" fill="none" fill-rule="evenodd">
        <g id="2-Services-Copy" transform="translate(-448.000000, -2141.000000)" fill="#000000" fill-rule="nonzero">
            <g id="icon-etherum" transform="translate(448.000000, 2141.000000)">
                <path d="M58.07755,45.4455199 C58.0608669,45.6142701 57.9073828,45.642658 57.8022796,45.7025879 C56.1923648,46.6062686 54.5774452,47.5067951 52.9658621,48.4073216 C49.4824403,50.3550454 45.9990184,52.301192 42.5139283,54.2473386 C38.6017521,56.431628 34.6862392,58.6143402 30.7723946,60.7986296 C30.3136106,61.0541205 29.8498216,61.3017259 29.4043841,61.576142 C29.1491334,61.7338524 28.9506051,61.7338524 28.6803396,61.5824504 C25.0417654,59.5369462 21.3948496,57.5024817 17.7479339,55.4648631 C11.9839386,52.2444162 6.21827492,49.0271236 0.454279576,45.8050997 C-0.132963944,45.477062 -0.0912563084,45.582728 0.245741394,45.052821 C3.08019236,40.5990786 5.91631163,36.1469134 8.75576752,31.6947482 C12.2825652,26.1654207 15.814368,20.6392476 19.3394973,15.1114972 C21.9904347,10.9558276 24.6363672,6.7985809 27.2856362,2.64133416 C27.7944694,1.84331941 28.3049708,1.04530468 28.8154723,0.247289942 C29.0240104,-0.0807477364 29.0557083,-0.0823248406 29.2609098,0.239404421 C32.1287269,4.73572856 34.9948757,9.23362981 37.8626928,13.729954 C42.5789923,21.1265727 47.2952918,28.5216145 52.0115913,35.9166562 C53.98186,39.0046262 55.9521289,42.0910192 57.9207293,45.1789894 C57.9774516,45.2673071 58.0275008,45.3603562 58.07755,45.4455199" id="Fill-1"></path>
                <path d="M58.0920643,50.7805481 C57.5982458,51.4397776 57.1244471,52.0706194 56.6523166,52.701461 C52.6667349,58.0084167 48.6811532,63.3153725 44.6939032,68.6207511 C41.0403142,73.4829634 37.3850569,78.3420215 33.7314679,83.2026567 C32.2616909,85.158266 30.7935821,87.1170295 29.3221367,89.0726387 C29.0435297,89.4432582 29.0368564,89.4432582 28.7649226,89.0821014 C26.2040738,85.672402 23.6448932,82.2611255 21.0840443,78.8514262 C18.1194655,74.9039344 15.1515502,70.9595966 12.185303,67.0121047 C8.71355938,62.3880352 5.24515234,57.7639656 1.775077,53.139896 C1.24288756,52.4301991 0.707361512,51.7236564 0.176840378,51.0123824 C0.121786298,50.9414127 0.0350344146,50.8783286 0.05505408,50.7316579 C0.603926574,51.036039 1.13611601,51.3278032 1.66496884,51.6242989 C6.70491962,54.4394299 11.7415338,57.256138 16.7814845,60.069692 C20.6386067,62.2224392 24.5057389,64.3578384 28.341173,66.5405506 C28.881704,66.848086 29.2353847,66.8023499 29.7325398,66.5200482 C33.6830872,64.2916 37.6486492,62.0883854 41.6108746,59.8772852 C47.0045062,56.8665934 52.3981377,53.8574785 57.7917693,50.8483636 C57.8651746,50.808936 57.9302385,50.7395434 58.0920643,50.7805481" id="Fill-3"></path>
            </g>
        </g>
    </g>
</svg>