<?xml version="1.0" encoding="UTF-8"?>
<svg width="80px" height="74px" viewBox="0 0 80 74" version="1.1" xmlns="http://www.w3.org/2000/svg" xmlns:xlink="http://www.w3.org/1999/xlink">
    <!-- Generator: Sketch 51.2 (57519) - http://www.bohemiancoding.com/sketch -->
    <title>icon-hyper</title>
    <desc>Created with Sketch.</desc>
    <defs></defs>
    <g id="Desktop" stroke="none" stroke-width="1" fill="none" fill-rule="evenodd">
        <g id="2-Services-Copy" transform="translate(-623.000000, -2149.000000)" fill="#000000" fill-rule="nonzero">
            <g id="icon-hyper" transform="translate(623.000000, 2149.000000)">
                <path d="M37.8126471,60.2171769 C36.3060204,59.6647698 34.8607497,59.1288525 33.4127519,58.6080509 C33.0078034,58.4623913 32.6369414,58.2521469 32.2974392,58.8457783 C31.5516249,60.1580885 30.7158221,61.4168071 29.9113788,62.6933895 C29.2364648,63.7665982 28.5547332,64.8356845 27.7802862,66.0586752 C31.2066688,64.0647881 34.4748895,62.1615946 37.8126471,60.2171769 Z M71.4124661,30.6001895 C71.2461236,30.4806388 71.2174908,30.4572782 71.1847677,30.4380401 C69.5431583,29.4321646 67.896095,28.4359081 66.2626663,27.4176654 C64.6687781,26.4241572 63.0885244,25.4059143 61.5000901,24.401413 C61.4400977,24.3629368 61.3651072,24.3491954 61.2982974,24.3244607 C61.2969341,24.391794 61.2805725,24.4605013 61.2955706,24.523712 C61.3760148,24.8754936 61.4755476,25.2217786 61.5478112,25.5749344 C61.7945981,26.769068 62.0113886,27.9714465 62.2854446,29.1587094 C62.368616,29.5187358 62.4558775,29.9680819 62.9944454,29.9859459 C63.2903169,29.9941907 63.5848249,30.0367893 63.8806964,30.0519048 C65.0532746,30.1178639 66.2285797,30.1618366 67.3997945,30.2470337 C68.6855401,30.3418499 69.9671954,30.4723938 71.4124661,30.6001895 Z M18.3955703,21.5555548 C19.7563063,20.3174485 21.0734116,19.1123217 22.4014246,17.918188 C22.6073075,17.7326782 22.6495748,17.6021343 22.4859594,17.3437947 C22.1423667,16.7996325 21.851949,16.2197426 21.5410795,15.6549682 C20.9193404,14.5226712 20.3030551,13.3876258 19.6758621,12.2580771 C19.2640963,11.5160378 18.8414227,10.7808692 18.3955703,9.99485722 L18.3955703,21.5555548 Z M28.009348,28.3232281 C28.0870654,28.2613915 28.1306963,28.2311603 28.1702366,28.1968066 C30.1349868,26.4818713 32.099737,24.7669361 34.0672142,23.0561232 C34.1967431,22.9434431 34.1749277,22.895348 34.0358546,22.8458788 C33.0541612,22.4886005 32.0738312,22.1313224 31.0921379,21.7767925 C29.5746035,21.2298819 28.0584326,20.6829715 26.5408983,20.1374353 C26.4931772,20.1209455 26.4413655,20.1099523 26.3922809,20.0962109 C26.386827,20.1580474 26.3677386,20.2212582 26.3800097,20.2789724 C26.884491,22.8623685 27.3916992,25.4443904 27.9016345,28.0264125 C27.9207228,28.1226027 27.9684441,28.2119222 28.009348,28.3232281 Z M58.549556,31.7366089 C58.4663848,31.7050035 58.4023021,31.6788948 58.3382192,31.6555342 C57.4151548,31.3202424 56.4920903,30.9849506 55.5703894,30.6469105 C54.0433108,30.0890068 52.5175956,29.5269808 50.9877902,28.9745737 C50.9346151,28.9553357 50.7628187,28.8550229 50.7941785,29.0748865 C50.8718959,29.6121779 50.9250708,30.1535917 51.0286941,30.6840125 C51.3763772,32.4662809 51.7417852,34.244427 52.0990125,36.0253213 C52.171276,36.3853477 52.2312684,36.7494967 52.2980781,37.1122714 C52.5994035,36.8855373 52.913,36.6725445 53.2020541,36.4293205 C54.0460377,35.7202607 54.885931,35.0070785 55.7176434,34.281529 C56.6270732,33.4886462 57.5255954,32.6806478 58.4282079,31.8795202 C58.4663848,31.8451665 58.4950175,31.7998197 58.549556,31.7366089 Z M44.632689,47.6492296 C45.0553626,47.8209981 45.44804,48.0010112 45.8543519,48.1439225 C47.5177768,48.7306832 49.185292,49.3023283 50.8487169,49.8877148 C51.2359404,50.0237554 52.3880667,49.5414298 52.2994415,49.2487366 C52.0322028,48.3747792 52.0403836,47.4609715 51.8372276,46.5787692 C51.5808965,45.462962 51.3709232,44.3361616 51.1418615,43.2148578 C51.0695979,42.8562054 51.0027883,42.4961789 50.9332516,42.1361524 C50.6864649,42.3463969 50.4383146,42.5566413 50.1915277,42.7668858 C50.1751662,42.7806273 50.1560777,42.7902463 50.1397161,42.805362 C48.2608641,44.3705153 46.4120083,45.9700221 44.632689,47.6492296 Z M31.3593766,45.8477231 C31.7738694,46.7615308 31.7656886,47.8347395 32.0179293,48.8516081 C32.3928815,50.3727887 32.6355781,51.9269489 32.9082706,53.4714899 C32.9778072,53.8603735 33.1018823,53.7105915 33.2668614,53.5690543 C33.8136101,53.0977219 34.3630857,52.6291379 34.9084708,52.1564314 C36.3142012,50.9403114 37.7199316,49.7228172 39.1256619,48.5080714 C39.2783698,48.3747792 39.2920044,48.3156908 39.0656695,48.2387386 C37.7076604,47.7715287 36.3591955,47.2795841 35.0025498,46.8096259 C33.8558774,46.4124975 32.7023877,46.0304846 31.5516249,45.6457235 C31.4330036,45.6058733 31.3089285,45.5825127 31.3593766,45.8477231 Z M27.6698457,41.8049831 C27.5607686,41.2786848 27.4476013,40.7537606 27.3439781,40.2260883 C27.0781027,38.8629346 26.8176813,37.4997809 26.5518061,36.1366272 C26.3745559,35.2310644 26.1945787,34.3282499 26.0105112,33.4240613 C25.9832419,33.2893949 25.9696074,33.140987 25.7637244,33.3237486 C24.2366458,34.6676642 22.6945692,35.9923417 21.1674906,37.3362574 C20.7011862,37.7457532 20.0617221,38.0961606 20.4189494,38.9165263 C20.4748514,39.0456961 20.3275974,39.2367026 20.562113,39.3191513 C21.6856066,39.7204022 22.8022827,40.1408911 23.9271397,40.5338972 C25.1515295,40.962631 26.3827366,41.3693784 27.6698457,41.8049831 Z M39.1747466,21.6819763 C39.8496608,21.9361935 40.5436635,22.2069004 41.2444835,22.4597434 C42.2452653,22.8225182 43.2555914,23.1605584 44.2550098,23.5288297 C45.2653359,23.9012235 46.2647543,24.3024745 47.2750804,24.6707457 C47.3650689,24.7037253 47.6527596,24.9290854 47.6200365,24.570433 C47.5641346,23.9575636 47.4741459,23.3446941 47.3555246,22.7428177 C47.011932,20.9935287 46.5674431,19.2593554 46.3233832,17.496325 C46.217033,16.7254286 45.6907364,16.7336734 45.2557916,16.5179325 C45.0090049,16.3956333 44.8726586,16.6910749 44.7226777,16.8188705 C42.8670045,18.4307448 41.022239,20.0577347 39.1747466,21.6819763 Z M34.0344911,11.0103518 C29.3319071,9.61696684 24.6824982,8.23732338 19.9826413,6.84393846 C20.4475821,7.70003196 20.8648018,8.48604397 21.2970196,9.2610628 C22.5009574,11.4225958 23.715803,13.5772581 24.9088332,15.7429135 C25.0192735,15.9421649 25.0751756,15.9407908 25.2469719,15.8432263 C26.607708,15.0737041 27.9684441,14.305556 29.337361,13.5538976 C30.8876185,12.7033007 32.4460566,11.8691936 34.0344911,11.0103518 Z M73.1590622,33.4721565 C71.6537991,33.5271223 70.2957899,33.1987011 68.9050577,33.1629733 C66.8925862,33.1093816 64.8855686,32.8620353 62.8758241,32.6957634 C62.6999374,32.6806478 62.642672,32.7342395 62.6372182,32.9224977 C62.5826796,34.7391199 62.6985739,36.5543679 62.5376854,38.3751124 C62.4136102,39.7684974 62.5117796,41.1811203 62.513143,42.5854984 C62.513143,42.6899336 62.5295045,42.7929947 62.5376854,42.8974297 C62.6385817,42.8479605 62.754476,42.8177292 62.8362837,42.7462736 C63.6366365,42.0344656 64.4315355,41.3171609 65.2277979,40.5998562 C66.7903265,39.194104 68.3514916,37.7869776 69.9153837,36.3812253 C70.9693406,35.433064 72.0260245,34.487651 73.1590622,33.4721565 Z M23.7294375,66.9367551 C24.1725631,66.2510558 24.5775116,65.6340638 24.9729159,65.008827 C26.5968003,62.4419207 28.215231,59.872266 29.8418423,57.3067338 C29.9591001,57.1239723 29.9372846,57.0525166 29.7450364,56.952204 C29.134205,56.634776 28.5329178,56.2994842 27.935721,55.9586958 C25.6846436,54.6711201 23.4376565,53.379422 21.1865791,52.0932206 C21.1184059,52.0547445 21.0297808,52.0492479 20.9520635,52.0286357 C20.9602443,52.1110845 20.9616077,52.1949075 20.9793326,52.274608 C21.2683868,53.5539387 21.4442735,54.85663 21.7346912,56.1387089 C22.1505475,57.9800657 22.3673381,59.8653953 22.7450173,61.7163711 C23.0913369,63.4216873 23.4553815,65.1201329 23.7294375,66.9367551 Z M47.9254523,3.30138785 C46.8701319,3.19420439 45.9361597,3.43742838 44.9940067,3.50201329 C42.7402025,3.65591774 40.4932154,3.90876076 38.2421379,4.1121345 C37.5481352,4.17534525 36.837771,4.13686913 36.1560395,4.26741309 C33.5640963,4.76073182 30.9257954,4.76348011 28.3147637,5.04792851 C26.9676622,5.19358808 25.6314685,5.45605013 24.0812111,5.47116574 C24.3579941,5.5810975 24.4561634,5.63194093 24.5597866,5.65942386 C25.3874086,5.88203565 26.2409365,6.03044352 27.0385623,6.33275583 C28.6638102,6.94699948 30.3626852,7.29328449 32.0029312,7.84569153 C33.4754712,8.3403844 34.9752805,8.75125431 36.4641822,9.19235545 C36.7000613,9.26243695 36.9304865,9.42046384 37.1949983,9.27205598 C37.9503568,8.85019289 38.7098057,8.43794883 39.4624373,8.01471159 C41.2840239,6.99234633 43.1001566,5.96036203 44.9231067,4.94074506 C45.8870751,4.40207949 46.8619511,3.88127783 47.9254523,3.30138785 Z M71.4465526,27.7378415 C66.7794188,21.0759775 62.1845484,14.5199229 57.571953,7.93775937 C57.6169474,8.85843777 57.957813,9.65956539 58.1255191,10.5019174 C58.3395827,11.5792486 58.6313639,12.6400899 58.8658795,13.7146729 C59.1044855,14.8002488 59.2994606,15.896818 59.5435205,16.9823941 C59.7889439,18.0707183 60.1107212,19.1411788 60.3193311,20.2349996 C60.4147734,20.7338149 60.6165659,21.0361272 61.0569645,21.2504942 C61.4346437,21.4346299 61.7795999,21.6874729 62.1368272,21.912833 C63.3148592,22.6548724 64.4928914,23.3969116 65.6709234,24.140325 C66.6798859,24.7765551 67.6847582,25.42103 68.6978112,26.0531375 C69.5786084,26.6027962 70.4689497,27.1387135 71.4465526,27.7378415 Z M60.0043711,34.4120729 C60.0111884,34.4752837 60.0043711,34.423066 59.9989172,34.3694743 C59.9348345,34.3955832 59.857117,34.4079505 59.8066689,34.4519231 C58.8495179,35.2557991 57.886913,36.0555525 56.9406697,36.874544 C55.8498992,37.8172088 54.7959423,38.8038463 53.681993,39.719028 C53.2115983,40.1051633 52.8380094,40.3662512 53.0316212,41.122032 C53.3547619,42.375254 53.4951987,43.6738227 53.7351681,44.9504052 C53.9410511,46.0442261 54.1660225,47.1339246 54.4087188,48.2195006 C54.4646209,48.4640987 54.3814495,48.8186287 54.6855018,48.9313087 C55.0904503,49.0810906 55.4654027,49.3146957 55.9221628,48.8529822 C56.8288657,47.9350522 57.8569168,47.138047 58.7758908,46.2311101 C59.0567643,45.9535324 59.5980591,45.9178046 59.6307822,45.4148669 C59.6975919,44.3815084 59.6880476,43.3454017 59.7316785,42.3106691 C59.8380286,39.7176539 59.6962284,37.1150198 60.0043711,34.4120729 Z M72.4555154,37.4063389 C70.4430439,39.2023489 68.5805534,40.85957 66.7207899,42.5209135 C65.5100347,43.6023672 64.2924622,44.6755759 63.1035225,45.7803899 C62.8158319,46.0469744 62.348164,46.2022529 62.3236217,46.6859527 C62.1804581,49.5194435 62.3168044,52.3570568 62.1490985,55.1919218 C62.0577463,56.7323404 62.1327369,58.2837522 62.1327369,59.8901299 C65.5659368,52.4120226 68.9705039,44.9971262 72.4555154,37.4063389 Z M5.6621892,33.3155036 C7.3065256,31.8163094 8.87859845,30.389945 10.4397636,28.9553357 C11.8795805,27.6306581 13.300309,26.2839942 14.7469432,24.9675615 C15.4968479,24.2846105 16.0845005,23.6566254 16.0504139,22.4473761 C15.9399734,18.6863361 16.0095101,14.9197996 16.0095101,11.1546372 L16.0095101,10.6448287 C12.525862,18.2795887 9.11993141,25.7412062 5.6621892,33.3155036 Z M37.8930914,12.1330298 C37.7649258,12.1907439 37.6381237,12.2388391 37.5195026,12.3047981 C35.6365601,13.3532722 33.7549812,14.4072429 31.8720387,15.4557169 C30.6544662,16.1331713 29.4328034,16.8065032 28.212504,17.4825835 C28.0597961,17.5677806 27.9493556,17.6309914 28.2247751,17.7313041 C29.1369319,18.0624735 30.0368175,18.4252482 30.9489742,18.7591659 C32.5864933,19.3555457 34.2240124,19.9532995 35.8738027,20.5125774 C36.1560395,20.6087676 36.4750898,20.9206989 36.7886863,20.658237 C37.8412797,19.7774088 38.8788751,18.8759684 39.9110166,17.9676573 C41.0263294,16.9878906 42.1130094,15.9710219 43.2528645,15.0201124 C43.5596436,14.764521 43.5814591,14.5391609 43.531011,14.2134882 C43.4737455,13.847965 43.2760434,13.7023054 42.9174526,13.6239791 C42.2275403,13.4700746 41.5526261,13.2515852 40.874985,13.0482115 C39.8837474,12.7500216 38.8952366,12.4408386 37.8930914,12.1330298 Z M50.6932822,52.5288251 C50.7150975,52.3749207 50.6755572,52.2759822 50.5051243,52.2182679 C49.6134195,51.9173298 48.7271685,51.6026502 47.8381906,51.2962154 C46.2102157,50.7341894 44.5822409,50.1762857 42.9542661,49.6170079 C42.7770159,49.5565455 42.6134004,49.336682 42.4075174,49.5153211 C41.5662608,50.2477414 40.7372752,50.9952772 39.8946551,51.7263233 C39.0793043,52.4353832 38.2489552,53.1265791 37.4336044,53.8356388 C36.6509765,54.5172157 35.88062,55.212534 35.1048095,55.9009815 C35.0107306,55.9848045 34.9780075,56.0438929 35.1375326,56.1002328 C37.1254617,56.8106668 39.1120274,57.5252232 41.1026834,58.2301605 C41.1640391,58.2521469 41.263572,58.2026775 41.3331085,58.1628273 C42.9760815,57.2229109 44.6217814,56.2898651 46.2552101,55.3362071 C47.6895732,54.4979777 49.1075747,53.6350134 50.5392108,52.7940355 C50.6591956,52.7225798 50.7300956,52.6717364 50.6932822,52.5288251 Z M59.4153551,29.0212948 C59.2830991,28.3012418 59.2026548,27.5990527 59.0185874,26.9243466 C58.6886293,25.7205939 58.3613982,24.5182154 58.1596057,23.2814833 C58.0968863,22.8925997 58.0655267,22.3731722 57.8146494,22.165676 C57.1179199,21.5912826 56.3202941,21.1391883 55.5499374,20.658237 C54.5641537,20.0426191 53.5592814,19.4586067 52.5734977,18.8416147 C51.2632097,18.0212491 49.9651929,17.1816453 48.6589954,16.3544089 C48.6003665,16.3173069 48.4994702,16.3063138 48.4353874,16.3283002 C48.3208565,16.3667763 48.3781219,16.4684631 48.395847,16.5481636 C48.4585663,16.8394828 48.5335568,17.1280535 48.5853684,17.422121 C48.7953417,18.6038873 48.9248706,19.8062658 49.2193786,20.96742 C49.5261578,22.1739209 49.6365983,23.4120272 49.9365601,24.6144058 C50.0265488,24.9813029 49.832937,25.5172202 50.2419759,25.6917369 C51.2972963,26.1438313 52.3907935,26.506606 53.4733832,26.8954895 C55.4490412,27.6072976 57.4274259,28.3108608 59.4153551,29.0212948 Z M18.3792088,30.8530325 C18.3792088,32.5693419 18.3805723,34.2842773 18.3764818,36.0005866 C18.3764818,36.1613619 18.3901164,36.2809127 18.5632763,36.359239 C18.7377995,36.4375654 18.8100631,36.3262595 18.9150497,36.23694 C20.8266249,34.5852154 22.7531981,32.9499806 24.6388675,31.2721473 C24.9470101,30.9986921 25.538753,30.7994408 25.4378568,30.2951289 C25.3015105,29.6190486 25.1474391,28.9470909 25.020637,28.2682623 C24.7847579,27.0081696 24.5025212,25.7576959 24.2611881,24.5003516 C24.030763,23.2993471 23.827607,22.0942204 23.6080894,20.8904678 C23.5944547,20.8203863 23.6012721,20.6706042 23.4417468,20.817638 C21.9828414,22.1629278 20.5293899,23.5164624 19.0418517,24.8301468 C18.571457,25.2451391 18.3342145,25.6546349 18.3601203,26.3183478 C18.4187492,27.8285352 18.3792088,29.341471 18.3792088,30.8530325 Z M29.9141058,53.4110274 C29.6264151,51.8568674 29.3455418,50.2999589 29.0496703,48.747173 C28.8437874,47.6615969 28.6256333,46.5787692 28.3992985,45.4973156 C28.3229445,45.1345409 28.2970387,44.6948139 28.0761577,44.4460933 C27.8552766,44.2014951 27.420332,44.1451552 27.0740124,44.0228561 C24.932012,43.2670753 22.7913751,42.5030496 20.638467,41.7747518 C20.3003281,41.6606976 19.9471912,41.3487663 19.5558773,41.5878678 C19.0145825,41.9204114 19.0500325,42.394492 19.180925,42.9633888 C19.4740695,44.2440937 19.6445025,45.5522815 19.9499181,46.828864 C20.0767201,47.3592847 19.8272065,48.0477322 20.5525688,48.392643 C21.3242889,48.7595403 22.057832,49.2088864 22.8009192,49.6348719 C25.0888102,50.9444338 27.3726107,52.2608665 29.6591382,53.574551 C29.8459326,53.6817343 30.0081848,53.7380744 29.9141058,53.4110274 Z M53.6942643,65.9652333 C53.6969912,65.9267572 53.6983546,65.8896552 53.7010815,65.8525532 C53.057527,65.625819 52.412609,65.4004589 51.7704179,65.1709763 C49.6502329,64.4165697 47.530048,63.6621631 45.4125899,62.8995116 C44.4308965,62.5463558 43.4669281,62.1341118 42.4716001,61.8235546 C41.761236,61.6023169 41.0481448,61.0870118 40.2586997,61.7177453 C39.8319357,62.0585337 39.3274545,62.3003835 38.8529693,62.5779612 C36.781869,63.7940812 34.7107688,65.0102012 32.6342146,66.2208245 C31.5161748,66.8721701 30.3899545,67.5097743 29.1151165,68.2394463 C37.4281505,67.4699241 45.5612074,66.7168915 53.6942643,65.9652333 Z M6.31256106,43.7521492 C11.1105874,50.5830333 15.8377137,57.3108563 20.6548285,64.1678491 C20.5634765,63.6250612 20.5034841,63.2375516 20.4312205,62.8527905 C20.2185204,61.7163711 19.9976394,60.5813258 19.7822121,59.4435322 C19.5504235,58.2232898 19.366356,56.9906801 19.0827556,55.7814308 C18.759615,54.4045356 18.5823648,53.0029059 18.3028548,51.6205141 C18.2115028,51.1629232 18.3164894,50.5500537 17.8869986,50.2903399 C16.1063159,49.2143829 14.2860928,48.2016367 12.4767773,47.1710266 C11.1119509,46.3932594 9.743034,45.6196147 8.37002675,44.8528407 C7.72101835,44.4914402 7.05973879,44.1520259 6.31256106,43.7521492 Z M57.0906506,18.7371795 C56.8315926,17.5100664 56.6584329,16.326926 56.3230209,15.194629 C55.9044378,13.7875025 55.7544569,12.3267845 55.3195121,10.9224064 C54.9881907,9.85469425 54.8436636,8.72789382 54.6036941,7.62995047 C54.3078226,6.26954507 53.99968,4.91188797 53.6956277,3.55285672 C53.6697219,3.43468009 53.6751757,3.30963273 53.4856545,3.41681619 C51.8426814,4.33337215 50.1765297,5.21145199 48.5567356,6.16785821 C47.4659652,6.81095893 46.331564,7.36748843 45.2585186,8.05181356 C43.8759671,8.93264171 42.3816116,9.6362049 40.8095387,10.4840535 C41.8894014,10.7836175 42.8342813,11.0460796 43.7777978,11.3112899 C43.9591383,11.3635075 44.1132097,11.4624461 44.3000041,11.2686914 C44.9912799,10.5568833 45.8202653,10.2985437 46.829228,10.2614417 C48.7380763,10.1899861 50.3196933,12.2649478 49.9420141,14.0211075 C49.9147448,14.1489032 49.8902025,14.2739506 50.0565449,14.3770116 C52.3853397,15.812995 54.7073173,17.2572234 57.0906506,18.7371795 Z M44.302731,59.3981853 C46.5074507,60.1951905 48.5880952,60.9537196 50.6714667,61.7012554 C52.1330991,62.2234313 53.5988218,62.735988 55.0631812,63.2471707 C56.3898306,63.7088841 57.7192071,64.1637267 59.0458565,64.6213176 C59.1535702,64.6570453 59.2558299,64.7243786 59.2585568,64.5072634 C59.2653741,63.8545437 59.3076414,63.2031981 59.3144588,62.5504783 C59.3294569,60.8231757 59.3867223,59.1013697 59.4794378,57.3740671 C59.6266919,54.6189026 59.3962666,51.8499967 59.6321457,49.0907097 C59.6375995,49.0343697 59.6076034,48.9752814 59.5953321,48.916193 C59.544884,48.9491726 59.491709,48.9780297 59.4467147,49.0165058 C58.8004333,49.5812801 58.1555152,50.1488028 57.5078703,50.7108289 C57.2556297,50.9279441 57.1206468,51.1574266 57.1342814,51.5270721 C57.1588237,52.1866625 57.2992605,52.8847293 57.0579275,53.5072178 C56.2289419,55.6385195 53.7419854,56.0026685 52.0990125,54.9954188 C51.985845,54.9253373 51.9299431,54.8992285 51.8004141,54.9775549 C50.3742319,55.8240293 48.9398688,56.6540141 47.5109595,57.494992 C46.4733641,58.1051132 45.4398592,58.7221051 44.302731,59.3981853 Z M16.0095101,27.704862 C14.4456179,29.1312264 12.9403547,30.493006 11.4473628,31.8699012 C10.5965618,32.6531649 9.77439365,33.4680339 8.92495619,34.2526719 C7.30516213,35.7532402 5.67991422,37.2455637 4.04512206,38.7296424 C3.8228776,38.9316419 3.88286997,39.0484444 4.08193557,39.1693693 C4.46370521,39.3988519 4.84956525,39.6200895 5.23815221,39.8385789 C7.67466061,41.2017325 10.1302575,42.5291585 12.5394966,43.9376589 C14.1074791,44.8528407 15.6986404,45.7144309 17.4043326,46.5609054 C17.0880093,45.9205529 17.1070977,45.2788263 16.9557533,44.6824466 C16.7266916,43.7851286 16.9966573,42.5731311 15.6318307,42.2969277 C15.473669,42.2653223 15.3236881,42.1567646 15.1846148,42.0633226 C13.208957,40.7235295 13.2157743,37.4324477 15.7613597,36.3180146 C15.8922523,36.2603004 16.0163274,36.2273208 16.0163274,36.0184506 C16.0067831,33.2825242 16.0095101,30.5479719 16.0095101,27.704862 Z M28.4988312,31.0962565 C28.6392679,31.6843914 28.7537988,32.2216828 28.8765105,32.7576001 C29.210559,34.2155699 29.4546188,35.6941519 29.7341288,37.1644891 C30.0818117,38.997601 30.4267679,40.8293387 30.7771779,42.6610765 C30.8058106,42.8136068 30.8358068,42.9400283 31.0375994,43.0087357 C32.1474582,43.3866261 33.2409556,43.8126116 34.3521779,44.1877537 C36.3701032,44.8720789 38.3907554,45.5495332 40.4250422,46.1843891 C40.7822695,46.295695 41.1585853,46.6818303 41.5689876,46.3712731 C42.3611597,45.7707709 43.1465143,45.1592755 43.9005094,44.5120523 C45.9061635,42.7916204 47.8968195,41.0533247 49.886112,39.3136548 C50.1179008,39.1102811 50.3878665,38.9467575 50.2610644,38.4987857 C50.0497276,37.7581205 49.9420141,36.9858499 49.8029408,36.2245726 C49.5711521,34.9479902 49.3516346,33.6700336 49.1212093,32.3948252 C48.9262341,31.3216165 48.7653454,30.240163 48.5008337,29.1848182 C48.4013008,28.7849414 48.6658126,28.210548 48.1027025,27.9865622 C47.3228015,27.6746307 46.5251757,27.405298 45.7357306,27.1139789 C44.1827463,26.5409597 42.6324888,25.9610697 41.0795044,25.3921729 C39.9682821,24.9840512 38.863877,24.5525691 37.7349297,24.2076583 C37.3449792,24.0881075 36.9509385,23.607156 36.4955418,23.998788 C34.1203892,26.0407702 31.7506905,28.0896231 29.3973533,30.15634 C29.0728492,30.4407885 28.6556294,30.6716452 28.4988312,31.0962565 Z M23.4799239,73.5079253 C20.8334422,73.8102377 19.5149734,70.9451414 20.2757858,69.003472 C20.3766821,68.7451323 20.1326222,68.5513776 20.0003662,68.3631195 C18.774613,66.6110822 17.5270444,64.8727864 16.3026546,63.1180009 C15.0359974,61.304127 13.8006999,59.4682668 12.5299524,57.6557671 C10.3361404,54.5295829 8.11914955,51.4185144 5.9239741,48.2937045 C4.5196072,46.295695 3.14250955,44.2770732 1.73950612,42.2790637 C1.282746,41.6290922 0.719635778,41.0478281 0.318777653,40.3676254 C-0.103895882,39.6516949 -0.0902612515,38.7626218 0.26287567,38.0810451 C0.64328185,37.3458765 0.95142449,36.5791025 1.31137872,35.8384373 C2.24671435,33.9036386 3.12069414,31.9386086 4.00830857,29.9804493 C4.81275174,28.2036773 5.59674298,26.4172865 6.3998227,24.6405145 C7.4428719,22.3305736 8.49410188,20.0247552 9.54669533,17.7189368 C10.4234021,15.7978795 11.3055626,13.8795704 12.1863597,11.9598872 C12.9403547,10.3150334 13.6929863,8.66880551 14.4524352,7.0267 C14.5233354,6.8714214 14.4728872,6.77248282 14.3938063,6.64880961 C13.1216954,4.67278642 13.8334231,2.31612455 16.0517774,1.61256134 C17.6252137,1.11374603 19.0459422,1.53423498 19.9758239,2.96334771 C20.0085471,3.01419115 20.0835375,3.0774019 20.1312587,3.07190532 C22.0414703,2.87127987 23.9503186,2.65004223 25.8618938,2.46315826 C26.5777119,2.39307677 27.2935299,2.36009724 28.0107115,2.27352599 C29.4355303,2.10038349 30.901253,2.19932205 32.3110738,1.95334977 C34.4326222,1.58095597 36.5841668,1.61256134 38.7057154,1.25803146 C40.1509862,1.01480746 41.6398877,1.05603187 43.0974297,0.880141067 C44.597239,0.700127828 46.1052292,0.630046337 47.6064019,0.463774567 C50.0538181,0.191693488 52.5107783,-0.125734439 54.9895541,0.0515305074 C55.8335377,0.11199297 56.0462379,0.870522039 56.4239172,1.40506517 C57.886913,3.46216303 59.2940068,5.557737 60.7420045,7.62582803 C61.8109596,9.15387934 62.9208185,10.6544477 63.9925004,12.1811249 C65.3055152,14.0499646 66.5912609,15.9380424 67.9015489,17.8096304 C68.744169,19.0106349 69.6222392,20.1855304 70.4621324,21.3879089 C71.691976,23.1454427 72.9027312,24.9194664 74.1230306,26.683871 C74.4379906,27.1400876 74.7638582,27.5880595 75.0829085,28.041528 C75.4714955,28.5898126 75.8000901,29.014424 76.6495276,29.0817572 C79.3859978,29.2974983 80.2477065,32.1062545 79.1146686,34.1358694 C78.7192644,34.843555 78.0484406,35.4358123 77.186732,35.4646693 C76.3618369,35.4921523 76.1845867,36.0115799 75.9214383,36.6107078 C75.2751568,38.0851675 74.5593387,39.5280216 73.888515,40.9914881 C73.3417663,42.1856217 72.8291041,43.3962451 72.280992,44.5890045 C71.1929485,46.9621562 70.0817262,49.3243147 68.9991365,51.6988405 C68.2819551,53.2722387 67.6152217,54.8676231 66.8925862,56.438273 C66.0772354,58.2081741 65.2073459,59.9519666 64.3947219,61.7232418 C63.7184444,63.1963272 63.1294283,64.7133854 62.4245179,66.1727294 C62.0604733,66.9230136 61.9486693,67.9316374 60.9315259,68.1789838 C60.3820503,68.3136502 59.8066689,68.3988473 59.2408317,68.4029697 C57.003389,68.4208337 54.7973058,68.806969 52.5680437,68.956751 C49.9461044,69.1340159 47.3391631,69.5146546 44.7199507,69.7455112 C43.4246608,69.8581913 42.1280075,69.9378918 40.8354445,70.0876738 C39.158385,70.2828027 37.467691,70.2773061 35.7919948,70.5645027 C34.4530742,70.7926111 33.0623419,70.6950467 31.7152405,70.8860532 C30.0899925,71.1169098 28.4511101,71.1595084 26.828589,71.380746 C26.3581943,71.4439567 26.3704654,71.8823096 26.1673094,72.1557649 C25.4664894,73.0984297 24.619779,73.738782 23.4799239,73.5079253 Z" id="Fill-1"></path>
            </g>
        </g>
    </g>
</svg>