<?xml version="1.0" encoding="UTF-8"?>
<svg width="74px" height="60px" viewBox="0 0 74 60" version="1.1" xmlns="http://www.w3.org/2000/svg" xmlns:xlink="http://www.w3.org/1999/xlink">
    <!-- Generator: Sketch 51.2 (57519) - http://www.bohemiancoding.com/sketch -->
    <title>icon-r3</title>
    <desc>Created with Sketch.</desc>
    <defs></defs>
    <g id="Desktop" stroke="none" stroke-width="1" fill="none" fill-rule="evenodd">
        <g id="2-Services-Copy" transform="translate(-819.000000, -2159.000000)" fill="#000000" fill-rule="nonzero">
            <g id="icon-r3" transform="translate(819.000000, 2159.000000)">
                <path d="M41.7457069,0.00626948452 C44.9849604,0.00626948452 48.2226795,0.00956921321 51.4619329,0.00131989148 C51.8394111,-0.00032997287 51.9729094,0.144858089 51.9713749,0.550724719 C51.9621682,3.60627349 51.9667716,6.66182226 51.9683061,9.71737103 C51.9683061,9.96650055 51.9161343,10.1859325 51.7811014,10.3971151 C49.8077808,13.4543137 47.840598,16.516462 45.8672772,19.5736607 C45.7107619,19.8145409 45.747589,19.8986839 46.0145857,19.9646785 C48.6492604,20.6130752 51.0905926,21.7448821 53.2541869,23.4904386 C56.0469114,25.7425034 58.149127,28.5918192 59.5148001,32.071383 C60.7945429,35.3331649 61.1950381,38.7285858 60.814491,42.2114494 C60.3740998,46.2354685 58.8810664,49.8024752 56.4289929,52.8877215 C54.6536181,55.1232878 52.5253165,56.8655445 50.0486916,58.1194414 C48.5341756,58.8849785 46.964419,59.450882 45.3056634,59.7181599 C42.3027174,60.2015703 39.3243228,60.1124775 36.4134445,59.1192592 C33.7342704,58.2035845 31.3543167,56.7154068 29.2766524,54.6646255 C26.867544,52.2888208 25.158151,49.4296059 24.119319,46.1051292 C23.5270158,44.2110849 23.177158,42.264245 23.1694857,40.25801 C23.1679513,39.6954063 23.2155196,39.6508599 23.7341685,39.6525097 C26.4302217,39.6541596 29.126275,39.6558094 31.8223282,39.6541596 C32.7276619,39.6525097 32.7107829,39.6475601 32.770627,40.6440783 C32.9010564,42.8334482 33.6682884,44.7340919 35.0078755,46.3889059 C36.3413247,48.0321708 38.0062182,49.1260308 39.9611253,49.5615951 C43.6607179,50.3832275 47.2130022,49.1177815 49.6129038,45.7075119 C50.4814105,44.4750633 51.0061972,43.0809278 51.2593837,41.59605 C51.4941567,40.2134636 51.4588641,38.8094291 51.1427644,37.4136439 C50.6947009,35.4453556 49.8031774,33.7756929 48.4206253,32.4178546 C46.7603353,30.7894385 44.8069626,29.8985117 42.5466972,29.7813713 C41.0674738,29.7038278 39.652698,29.9777052 38.2900939,30.5832055 C38.0722,30.6805474 37.8604441,30.807587 37.671705,30.9593746 C37.4077771,31.1738569 37.2405205,31.0897138 37.0978155,30.8158363 C36.5362017,29.7533236 35.9945358,28.679262 35.4114396,27.6315981 C34.4830888,25.9619354 33.6575472,24.227928 32.6693524,22.5962121 C32.555802,22.4081277 32.5251127,22.2612897 32.6693524,22.063306 C33.6560127,20.7087674 34.5091747,19.253587 35.4221808,17.8429529 C36.6911824,15.8829141 37.9509774,13.9195756 39.2138413,11.956237 C39.5207341,11.4777763 39.8214891,10.9927162 40.1237785,10.5093059 C40.1744158,10.4301124 40.2649492,10.3525688 40.2112429,10.2453276 C40.1544678,10.1364366 40.0470553,10.1694339 39.9595908,10.1892322 C39.6588358,10.2618263 39.355012,10.2387282 39.0511881,10.2387282 C34.5843634,10.2420279 30.1160043,10.2436778 25.6491796,10.2436778 C25.4926642,10.2436778 25.3115974,10.2849244 25.224133,10.0968398 C25.1320651,9.89555639 25.3008562,9.79326479 25.4021308,9.66787511 C25.845591,9.11847028 26.1969832,8.49812128 26.5805992,7.90417012 C27.8296528,5.96722938 29.0679654,4.02203931 30.3093468,2.07849911 C30.660739,1.52744442 31.024407,0.986288907 31.3558512,0.4220353 C31.5415213,0.110210938 31.7686219,-0.00032997287 32.1108075,-0.00032997287 C35.3224405,0.0112190776 38.5340737,0.00626948452 41.7457069,0.00626948452" id="Fill-1"></path>
                <path d="M0.0006137856,19.9214521 L0.0006137856,0.69558281 C0.0006137856,0.0257378839 0.0236307456,0.00593951165 0.648157593,0.007589376 C3.42400297,0.007589376 6.19984835,0.007589376 8.97415926,0.00593951165 C9.5649279,0.0042896473 9.60635843,0.040586663 9.60175503,0.677434301 C9.59868611,1.20209116 9.58794486,1.72674803 9.57720361,2.25305476 C9.57566915,2.33554797 9.53423862,2.43288996 9.60482397,2.49393494 C9.69689181,2.5698287 9.77821839,2.48733549 9.85647606,2.44113929 C11.093254,1.72509816 12.3852727,1.15754483 13.7371356,0.741779011 C15.2056176,0.293015908 16.698651,0.0207882908 18.2239083,0.012538969 C21.4877131,-0.00395967444 24.7530526,0.00593951165 28.0168575,0.00593951165 C28.1580282,0.00593951165 28.3237503,-0.0320073684 28.4096803,0.134628931 C28.4771967,0.268267942 28.3881978,0.378808855 28.3130091,0.477800715 C27.5273635,1.51391553 26.8782852,2.65397179 26.1693628,3.74783186 C24.8481894,5.78871405 23.5423605,7.83949543 22.2349972,9.88862695 C22.0662061,10.1542551 21.8559846,10.2449977 21.5659708,10.2466475 C20.3245894,10.2565467 19.083208,10.2054009 17.8433611,10.325841 C16.1692609,10.4891776 14.6670207,11.1177759 13.315158,12.1852381 C11.3955434,13.7014635 10.2416265,15.7406958 9.74292573,18.2253915 C9.63704771,18.7516983 9.60175503,19.2928537 9.60175503,19.8340092 C9.6032895,26.27013 9.6032895,32.7079007 9.6032895,39.1440216 C9.6032895,39.8699619 9.55725558,39.9194578 8.88822927,39.9194578 C6.15227997,39.9178079 3.41786511,39.9178079 0.681915801,39.9194578 C0.0635268096,39.9194578 0.0006137856,39.8534633 0.0006137856,39.1902177 C0.0006137856,32.7672959 0.0006137856,26.344374 0.0006137856,19.9214521" id="Fill-3"></path>
                <path d="M73.3700893,35.8997283 C73.4606227,38.5164132 71.3568725,40.9961593 68.670026,40.9978092 C66.0721785,41.0011089 63.8778949,38.8546353 63.8855673,35.8353835 C63.8917051,32.9959671 66.0230756,30.8164963 68.6408713,30.7917483 C71.3660793,30.7653505 73.5035876,33.4249318 73.3700893,35.8997283" id="Fill-5"></path>
            </g>
        </g>
    </g>
</svg>