<?xml version="1.0" encoding="utf-8"?>
<svg version="1.1" id="Layer_1" xmlns="http://www.w3.org/2000/svg" xmlns:xlink="http://www.w3.org/1999/xlink" x="0px" y="0px"
	 viewBox="0 0 141.7 183" style="enable-background:new 0 0 141.7 183;" xml:space="preserve">
<style type="text/css">
	.st0{fill:#ffffff;}
	.st1{fill:#64f0ff;}
	.st2{fill:#161656;}
	.st3{fill:#ff6f00;}
	.st4{fill:#161656;fill-opacity:0.2;}
</style>
<title>Coin icon</title>
<g id="Desktop">
	<g id="_x35_-Project-" transform="translate(-936.000000, -3016.000000)">
		<g id="Costs-Copy" transform="translate(936.000000, 3015.000000)">
			<path id="Fill-1" class="st0" d="M72.6,88.6c-0.1,0-0.3,0-0.4-0.1l-3.7-1.6c-6.9-3-10.4-7.7-10.4-13.9c0-5.1,2.8-9.6,7.4-12.2
				c0.5-0.3,1.2-0.1,1.5,0.4s0.1,1.2-0.4,1.5c-4,2.2-6.3,5.9-6.3,10.2c0,5.2,3.1,9.2,9.1,11.8l3.7,1.6c0.6,0.2,0.8,0.9,0.6,1.5
				C73.4,88.4,73,88.6,72.6,88.6"/>
			<path id="Fill-3" class="st0" d="M74.5,113.4h-2.2c-1.8,0-3.3-1.5-3.3-3.3v-3.3c-4.6-1-8.6-3.2-11.8-6.6
				c-1.5-1.7-1.6-4.2-0.1-5.9l2.6-3c0.8-0.9,2-1.5,3.2-1.5c0.1,0,0.1,0,0.2,0c1.1,0.2,2.2,0.5,3.1,1.4c2.1,2.2,4.8,3.5,7.6,3.5
				c1.5,0,4.1-0.3,4.1-2.3c0-1.1,0-1.3-4-3.1l-1.5-0.6c-0.6-0.2-0.8-0.9-0.6-1.5c0.2-0.6,0.9-0.8,1.5-0.6l1.6,0.7
				c4,1.8,5.3,2.6,5.3,5.1c0,2.8-2.4,4.5-6.3,4.5c-3.4,0-6.7-1.5-9.2-4.2c-0.3-0.4-0.8-0.5-1.7-0.7c-0.6,0-1.1,0.3-1.5,0.7l-2.6,3
				c-0.7,0.8-0.7,2.1,0,2.9c3,3.2,7,5.3,11.5,6.1c0.5,0.1,0.9,0.6,0.9,1.1v4.2c0,0.6,0.5,1.1,1.1,1.1h2.2c0.6,0,1.1,0.5,1.1,1.1
				C75.6,112.9,75.1,113.4,74.5,113.4"/>
			<path id="Fill-5" class="st0" d="M75.3,113.4h-0.7c-0.6,0-1.1-0.5-1.1-1.1s0.5-1.1,1.1-1.1h0.7c0.6,0,1.1-0.5,1.1-1.1v-4.2
				c0-0.5,0.4-1,0.9-1.1c4.1-0.7,7.5-2.8,9.5-5.8c0.3-0.5,1-0.6,1.5-0.3c0.5,0.3,0.6,1,0.3,1.5c-2.2,3.3-5.8,5.6-10.1,6.5v3.3
				C78.6,111.9,77.1,113.4,75.3,113.4"/>
			<path id="Fill-7" class="st1" d="M88.1,100.3c-0.2,0-0.4-0.1-0.6-0.2c-0.5-0.3-0.7-1-0.4-1.5c1.2-1.9,1.8-4.1,1.8-6.5
				c0-7.5-5.3-10.6-9.2-12.2l-5.9-2.6c-3-1.3-4.9-2.3-4.9-4.5c0-2.4,2.1-3.8,5.4-3.8c2.8,0,5.2,1,7.4,3.1c0.4,0.4,1,0.7,1.5,0.6h0.1
				c0.6,0,1.2-0.3,1.5-0.8l2.3-2.8c0.7-0.8,0.7-2.1-0.1-2.9c-2.5-2.7-5.9-4.5-9.7-5.1c-0.5-0.1-0.9-0.6-0.9-1.1v-3.6
				c0-0.6-0.5-1.1-1.1-1.1h-3c-0.3,0-0.5,0.1-0.7,0.2c-0.5,0.4-1.2,0.3-1.6-0.1c-0.4-0.5-0.3-1.2,0.1-1.6c0.6-0.5,1.3-0.8,2.1-0.8h3
				c1.8,0,3.3,1.5,3.3,3.3V59c3.9,0.9,7.4,2.8,10.1,5.6c1.5,1.6,1.6,4.1,0.1,5.8l-2.3,2.8c-0.8,0.9-1.9,1.5-3.1,1.5
				c-1.1,0.2-2.4-0.3-3.3-1.2c-1.7-1.7-3.6-2.5-5.8-2.5c-0.7,0-3.2,0.1-3.2,1.6c0,0.6,0.3,1.1,3.5,2.5l5.9,2.6
				c1.9,0.8,4.7,2.1,6.9,4.5c2.4,2.6,3.7,5.9,3.7,9.8c0,2.8-0.7,5.4-2.1,7.6C88.8,100.1,88.4,100.3,88.1,100.3"/>
			<path id="Fill-9" class="st0" d="M31.6,97.3c-1.3,0-2.5-0.9-2.9-2.2C23.9,77.5,29.2,59,42.6,46.7c1.2-1.1,3.1-1,4.2,0.2
				s1,3.1-0.2,4.2c-11.7,10.7-16.4,27-12.2,42.3c0.4,1.6-0.5,3.2-2.1,3.7C32.1,97.3,31.9,97.3,31.6,97.3"/>
			<g id="Group-13" transform="translate(34.000000, 0.537000)">
				<g id="Clip-12">
				</g>
				<path id="Fill-11" class="st2" d="M83,67.5c-1.2,0-2.3-0.7-2.8-1.9c-1.3-3.1-3-6.1-5-8.8C63.1,40.1,40.7,34.7,22.3,44
					c-1.5,0.7-3.3,0.1-4-1.3c-0.7-1.5-0.1-3.3,1.3-4c21.1-10.6,46.6-4.5,60.6,14.6c2.3,3.1,4.2,6.5,5.7,10.1
					c0.6,1.5-0.1,3.3-1.6,3.9C83.8,67.5,83.4,67.5,83,67.5"/>
			</g>
			<g id="Group-16" transform="translate(45.000000, 41.537000)">
				<g id="Clip-15">
				</g>
				<path id="Fill-14" class="st3" d="M30.1,89c-3,0-5.9-0.3-8.8-0.8c-1.6-0.3-2.7-1.9-2.4-3.5s1.9-2.7,3.5-2.4
					c11.6,2.2,23.2-0.5,32.7-7.4C67.2,66,73.7,51.3,72.2,36.4c-0.2-1.6,1-3.1,2.7-3.3s3.1,1,3.3,2.7c1.7,17-5.7,33.8-19.5,43.9
					C50.4,85.8,40.3,89,30.1,89"/>
			</g>
			<path id="Fill-17" class="st0" d="M23.2,92.1L23.2,92.1L23.2,92.1z M23.2,92.1L23.2,92.1L23.2,92.1z M23.2,92.1L23.2,92.1
				L23.2,92.1z M23.2,92.1L23.2,92.1L23.2,92.1z M23.2,92.1L23.2,92.1L23.2,92.1z M23.2,92.1L23.2,92.1L23.2,92.1z M23.2,92.1
				L23.2,92.1L23.2,92.1z M23.2,92.1L23.2,92.1L23.2,92.1z M33,101.9c-1.3,0-2.6-0.9-2.9-2.2c-1.2-4.7-7.5-6.4-8.9-6.6
				c-0.8,0.1-1.6-0.1-2.3-0.7c-1.3-1.1-1.4-3-0.3-4.2c1.3-1.5,3.3-1.1,4.6-0.8c2.7,0.6,5.8,1.9,8.2,4c1.3-2.9,3.7-5.7,7.8-7.6
				c1.5-0.7,3.3,0,4,1.5c0.7,1.5,0,3.3-1.5,4c-6.5,3-5.8,9.3-5.8,9.3c0.2,1.6-0.9,3-2.4,3.3C33.4,101.9,33.2,101.9,33,101.9z"/>
			<path id="Fill-19" class="st4" d="M118.7,145.6c0,2.7-17.2,4.9-38.4,4.9s-38.4-2.2-38.4-4.9s17.2-4.9,38.4-4.9
				S118.7,142.9,118.7,145.6"/>
		</g>
	</g>
</g>
</svg>
