<?xml version="1.0" encoding="UTF-8"?>
<svg width="131px" height="103px" viewBox="0 0 131 103" version="1.1" xmlns="http://www.w3.org/2000/svg" xmlns:xlink="http://www.w3.org/1999/xlink">
    <!-- Generator: Sketch 51.2 (57519) - http://www.bohemiancoding.com/sketch -->
    <title>Group 7</title>
    <desc>Created with Sketch.</desc>
    <defs>
        <polygon id="path-1" points="0 86.0895 130.946 86.0895 130.946 0.0005 0 0.0005"></polygon>
    </defs>
    <g id="Desktop" stroke="none" stroke-width="1" fill="none" fill-rule="evenodd">
        <g id="6-About" transform="translate(-654.000000, -4139.000000)">
            <g id="Group-7" transform="translate(654.000000, 4139.000000)">
                <ellipse id="Oval-2" fill="#000076" fill-rule="nonzero" opacity="0.187555804" cx="64.5" cy="90.5" rx="62.5" ry="12.5"></ellipse>
                <g id="Group-16">
                    <path d="M102.8806,76.3407 C92.9286,76.3407 84.8606,68.2737 84.8606,58.3217 C84.8606,48.3697 92.9286,40.3017 102.8806,40.3017 C112.8326,40.3017 120.9006,48.3697 120.9006,58.3217 C120.9006,68.2737 112.8326,76.3407 102.8806,76.3407" id="Fill-1" fill="#64EFFF"></path>
                    <path d="M102.8806,76.3407 C92.9286,76.3407 84.8606,68.2737 84.8606,58.3217 C84.8606,48.3697 92.9286,40.3017 102.8806,40.3017 C112.8326,40.3017 120.9006,48.3697 120.9006,58.3217 C120.9006,68.2737 112.8326,76.3407 102.8806,76.3407 Z" id="Stroke-3" stroke="#000076" stroke-width="6"></path>
                    <path d="M29.3884,3.5555 C20.1404,6.7455 17.4474,15.8195 17.4474,15.8195 C17.4474,15.8195 15.2174,21.6325 12.7684,28.0175 M12.0904,29.7845 C9.3064,37.0425 6.4784,44.4155 6.4784,44.4155 C0.6024,53.4255 -2.7266,80.6495 26.0644,83.5875 C56.8154,83.1965 53.0934,54.2085 53.0934,54.2085 L52.5064,16.9945 C51.7224,2.6965 34.8784,2.5005 34.8784,2.5005 C34.1294,2.5435 33.4104,2.6215 32.7204,2.7305" id="Stroke-5" stroke="#000076" stroke-width="5" stroke-linecap="round" stroke-linejoin="round"></path>
                    <path d="M27.6316,76.3407 C17.6796,76.3407 9.6116,68.2737 9.6116,58.3217 C9.6116,48.3697 17.6796,40.3017 27.6316,40.3017 C37.5836,40.3017 45.6516,48.3697 45.6516,58.3217 C45.6516,68.2737 37.5836,76.3407 27.6316,76.3407" id="Fill-7" fill="#64EFFF"></path>
                    <path d="M27.6316,76.3407 C17.6796,76.3407 9.6116,68.2737 9.6116,58.3217 C9.6116,48.3697 17.6796,40.3017 27.6316,40.3017 C37.5836,40.3017 45.6516,48.3697 45.6516,58.3217 C45.6516,68.2737 37.5836,76.3407 27.6316,76.3407 Z" id="Stroke-9" stroke="#000076" stroke-width="6"></path>
                    <path d="M124.4675,44.4154 L113.4985,15.8194 C113.4985,15.8194 109.7775,3.2844 96.0675,2.5004 C96.0675,2.5004 79.2235,2.6964 78.4405,16.9944 L77.8525,54.2084 C77.8525,54.2084 74.1305,83.1964 104.8815,83.5874 C133.6725,80.6494 130.3435,53.4254 124.4675,44.4154 Z" id="Stroke-11" stroke="#000076" stroke-width="5"></path>
                    <mask id="mask-2" fill="white">
                        <use xlink:href="#path-1"></use>
                    </mask>
                    <g id="Clip-14"></g>
                    <polygon id="Fill-13" fill="#000076" mask="url(#mask-2)" points="50.733 32.4985 80.711 32.4985 80.711 23.6535 50.733 23.6535"></polygon>
                    <polygon id="Fill-15" fill="#000076" mask="url(#mask-2)" points="51.092 47.3145 80.711 47.3145 80.711 37.9525 51.092 37.9525"></polygon>
                </g>
            </g>
        </g>
    </g>
</svg>