<?xml version="1.0" encoding="utf-8"?>
<!-- Generator: Adobe Illustrator 22.1.0, SVG Export Plug-In . SVG Version: 6.00 Build 0)  -->
<svg version="1.1" id="Layer_1" xmlns="http://www.w3.org/2000/svg" xmlns:xlink="http://www.w3.org/1999/xlink" x="0px" y="0px"
	 viewBox="0 0 199 176" style="enable-background:new 0 0 199 176;" xml:space="preserve">
<style type="text/css">
	.st0{fill:none;stroke:#007BFF;stroke-width:5.4;stroke-linecap:round;}
	.st1{fill:none;stroke:#FF6F00;stroke-width:7.2;stroke-linecap:round;stroke-linejoin:round;}
	.st2{fill:none;stroke:#000076;stroke-width:6.3;stroke-linecap:round;stroke-linejoin:round;}
	.st3{fill:none;stroke:#64EEFF;stroke-width:0.9;stroke-linecap:round;stroke-linejoin:round;}
	.st4{fill:none;stroke:#64EEFF;stroke-width:2.7;stroke-linecap:round;stroke-linejoin:round;}
	.st5{fill:none;stroke:#64EEFF;stroke-width:2.1231;stroke-linecap:round;stroke-linejoin:round;}
	.st6{fill:none;stroke:#007BFF;stroke-width:2.7;stroke-linecap:round;stroke-linejoin:round;}
</style>
<title>Group 17</title>
<desc>Created with Sketch.</desc>
<g id="Desktop">
	<g id="_x36_-About-Copy" transform="translate(-761.000000, -3092.000000)">
		<g id="Group-17" transform="translate(762.000000, 3095.000000)">
			<g id="Group-7" transform="translate(49.000000, 0.000000)">
				<path id="Stroke-1" class="st0" d="M77.2,20.3C69.5,13.4,59.4,9.1,48.7,9.1C25.4,9.1,5.1,29.5,5.1,52.8c0,6.8,3.1,14.6,5.9,20.3
					c0,0,29.1,46.8,37.7,46.8c6.6,0,24.7-26.7,33.2-39.8"/>
				<path id="Stroke-3" class="st1" d="M88.2,69.3c2.2-5.1,4.1-11.1,4.1-16.5c0-9.8-3.6-19.1-9.4-26.5"/>
				<path id="Stroke-5" class="st2" d="M63.2,49.9c0,8.1-6.5,14.6-14.5,14.6S34.1,58,34.1,49.9s6.5-14.6,14.5-14.6
					S63.2,41.9,63.2,49.9z"/>
			</g>
			<g id="Group-16" transform="translate(0.000000, 133.000000)">
				<path id="Stroke-8" class="st3" d="M118.1,29.6c-5.1,0.2-10.4,0.3-15.8,0.4c-1.1,0-2.2,0-3.3,0c-49,0-88.7-7.6-88.7-17.1
					C10.3,3.5,50-4.1,99-4.1c49,0,88.7,7.6,88.7,17.1c0,1-0.4,1.9-1.2,2.9"/>
				<path id="Stroke-10" class="st4" d="M180.5,19.6c-10,4.5-29.6,8-53.8,9.5"/>
				<path id="Stroke-12" class="st5" d="M108.3,17.6c24.5-0.7,43.1-4,43.1-8c0-2.3-6-4.3-15.7-5.8"/>
				<path id="Stroke-14" class="st6" d="M130.2,3.1c-8.7-1-19.6-1.6-31.3-1.6C70,1.5,46.6,5.1,46.6,9.6c0,4.5,23.5,8.1,52.4,8.1
					c1,0,2.1,0,3.1,0"/>
			</g>
		</g>
	</g>
</g>
</svg>
