<?xml version="1.0" encoding="UTF-8"?>
<svg width="327px" height="236px" viewBox="0 0 327 236" version="1.1" xmlns="http://www.w3.org/2000/svg" xmlns:xlink="http://www.w3.org/1999/xlink">
    <!-- Generator: Sketch 51.2 (57519) - http://www.bohemiancoding.com/sketch -->
    <title>People icon</title>
    <desc>Created with Sketch.</desc>
    <defs>
        <polygon id="path-1" points="0.220724799 0.480819377 319.393759 0.480819377 319.393759 71.7668651 0.220724799 71.7668651"></polygon>
        <polygon id="path-3" points="0.42894225 0.713589592 247.125133 0.713589592 247.125133 177.109426 0.42894225 177.109426"></polygon>
        <polygon id="path-5" points="0.41913225 0.0931079799 209.154677 0.0931079799 209.154677 123.213232 0.41913225 123.213232"></polygon>
    </defs>
    <g id="Desktop" stroke="none" stroke-width="1" fill="none" fill-rule="evenodd">
        <g id="6-About" transform="translate(-772.000000, -1768.000000)">
            <g id="People-icon" transform="translate(772.000000, 1768.000000)">
                <g id="Group-22">
                    <path d="M1.09209825,170.726483 C0.87464325,170.726483 0.69315825,170.554995 0.68416575,170.335327 C0.58361325,167.995743 0.53292825,165.620227 0.53292825,163.274926 C0.53292825,73.4307875 73.7057183,0.33856609 163.647068,0.33856609 C163.872698,0.33856609 164.055818,0.520669896 164.055818,0.746870588 C164.055818,0.972254671 163.872698,1.15517509 163.647068,1.15517509 C74.1561608,1.15517509 1.35042825,73.8815557 1.35042825,163.274926 C1.35042825,165.607978 1.40111325,167.972061 1.50084825,170.30103 C1.51065825,170.526414 1.33571325,170.715867 1.11008325,170.726483 L1.09209825,170.726483 Z" id="Fill-3" fill="#64EFFF"></path>
                    <path d="M242.042294,21.0908872 C242.008776,21.0908872 241.974441,21.0827211 241.943376,21.0655723 C230.540069,14.7768664 218.402646,9.87884567 205.867919,6.50706713 C205.759191,6.4768526 205.694609,6.36579377 205.724039,6.25636817 C205.753469,6.14775917 205.867919,6.08488028 205.974194,6.11264498 C218.540804,9.49258962 230.709291,14.4036761 242.141211,20.7078976 C242.240129,20.7626104 242.276099,20.8867349 242.221326,20.9855446 C242.183721,21.0525066 242.114234,21.0908872 242.042294,21.0908872" id="Fill-5" fill="#64EFFF"></path>
                    <path d="M323.48614,133.223878 C323.294027,133.223878 323.122352,133.087504 323.084747,132.892335 C314.292535,86.7563765 285.791215,46.6894561 244.887602,22.9653315 C244.69222,22.8526394 244.626002,22.6019405 244.738817,22.4075875 C244.85245,22.212418 245.102605,22.1470893 245.297987,22.2589647 C286.406792,46.1014976 315.051992,86.370937 323.88835,132.738812 C323.930042,132.96093 323.784527,133.174065 323.562985,133.216529 C323.536825,133.221428 323.511482,133.223878 323.48614,133.223878" id="Fill-7" fill="#64EFFF"></path>
                    <g id="Group-11" transform="translate(7.357500, 164.138408)">
                        <mask id="mask-2" fill="white">
                            <use xlink:href="#path-1"></use>
                        </mask>
                        <g id="Clip-10"></g>
                        <path d="M156.289405,162.072224 C120.68074,162.072224 86.8247948,150.767089 58.3823348,129.379283 C30.8734598,108.692944 10.2242273,79.3023696 0.23846475,46.6192277 C0.17306475,46.4036429 0.29405475,46.175809 0.50987475,46.1096637 C0.72569475,46.0443349 0.95459475,46.1651931 1.01999475,46.3815945 C10.9558898,78.8989647 31.5021173,108.143366 58.8736523,128.726812 C87.1738673,150.007643 120.859772,161.255615 156.289405,161.255615 C199.266197,161.255615 239.797847,144.576376 270.418945,114.291615 C301.01797,84.0289024 318.12007,43.7529301 318.576235,0.88504083 C318.578687,0.661289965 318.76099,0.480819377 318.984985,0.480819377 L318.989072,0.480819377 C319.214702,0.483269204 319.396187,0.668639446 319.393735,0.89320692 C318.935935,43.9783142 301.74718,84.4568055 270.994465,114.872224 C240.219677,145.309691 199.482835,162.072224 156.289405,162.072224" id="Fill-9" fill="#64EFFF" mask="url(#mask-2)"></path>
                    </g>
                    <path d="M291.635113,189.711009 C291.581976,189.711009 291.528021,189.706109 291.474066,189.694677 C291.030981,189.606483 290.744038,189.176947 290.833146,188.734345 C292.501663,180.404933 293.346958,171.838704 293.346958,163.274926 C293.346958,91.8363377 235.163848,33.7158256 163.646496,33.7158256 C161.451509,33.7158256 159.238536,33.7705384 157.070526,33.879964 C156.624989,33.9199779 156.235859,33.5557702 156.212969,33.1050021 C156.190079,32.6550505 156.537516,32.2712443 156.987959,32.2483792 C159.183764,32.138137 161.424531,32.0826076 163.646496,32.0826076 C236.065551,32.0826076 294.981958,90.9348014 294.981958,163.274926 C294.981958,171.946497 294.125218,180.619701 292.435446,189.054455 C292.357783,189.443161 292.016886,189.711009 291.635113,189.711009" id="Fill-12" fill="#64EFFF"></path>
                    <g id="Group-16" transform="translate(31.882500, 58.795848)">
                        <mask id="mask-4" fill="white">
                            <use xlink:href="#path-3"></use>
                        </mask>
                        <g id="Clip-15"></g>
                        <path d="M131.764405,235.670743 C59.3461673,235.670743 0.42894225,176.818549 0.42894225,104.479242 C0.42894225,63.7508678 18.9567623,25.992501 51.2619098,0.885857439 C51.6175223,0.608210381 52.1317298,0.6735391 52.4096798,1.02876401 C52.6868123,1.38562215 52.6222298,1.8984526 52.2666173,2.17528304 C20.3620448,26.969982 2.06394225,64.257982 2.06394225,104.479242 C2.06394225,175.91783 60.2470523,234.037525 131.764405,234.037525 C179.133625,234.037525 222.749702,208.175518 245.590652,166.543975 C245.806472,166.147103 246.303512,166.001747 246.7,166.219781 C247.096487,166.436999 247.241185,166.932681 247.024547,167.328736 C223.895837,209.483726 179.731217,235.670743 131.764405,235.670743" id="Fill-14" fill="#64EFFF" mask="url(#mask-4)"></path>
                    </g>
                    <path d="M74.2408538,115.635672 C73.9032263,115.635672 73.5615113,115.552378 73.2459563,115.376807 C72.2608688,114.827229 71.9077088,113.582717 72.4587038,112.598703 C90.9358388,79.5513536 125.877424,59.0209869 163.646741,59.0209869 C192.336086,59.0209869 220.080401,71.0471875 239.765801,92.0177066 C240.537521,92.8400318 240.496646,94.1319073 239.672606,94.9027862 C238.848566,95.6752983 237.555281,95.6328346 236.784379,94.8105093 C217.868246,74.6606824 191.211206,63.1040318 163.646741,63.1040318 C127.357099,63.1040318 93.7831913,82.831672 76.0270913,114.589596 C75.6534938,115.259215 74.9569838,115.635672 74.2408538,115.635672" id="Fill-17" fill="#64EFFF"></path>
                    <g id="Group-21" transform="translate(58.860000, 112.692042)">
                        <mask id="mask-6" fill="white">
                            <use xlink:href="#path-5"></use>
                        </mask>
                        <g id="Clip-20"></g>
                        <path d="M104.786905,154.836007 C47.2381748,154.836007 0.41913225,108.067993 0.41913225,50.5828028 C0.41913225,45.014346 0.86466975,39.4238408 1.74348225,33.9672595 C1.92251475,32.8550381 2.96973225,32.0890588 4.08561975,32.2768789 C5.20068975,32.4557163 5.95851225,33.5034256 5.77947975,34.6164637 C4.93500225,39.8582768 4.50663225,45.2299308 4.50663225,50.5828028 C4.50663225,105.817419 49.4920223,150.752962 104.786905,150.752962 C160.081787,150.752962 205.067177,105.817419 205.067177,50.5828028 C205.067177,34.0252388 200.918365,17.6073149 193.071182,3.1043391 C192.534085,2.11379239 192.904412,0.874179931 193.896857,0.338484429 C194.89012,-0.196394464 196.130267,0.171896194 196.666547,1.16407612 C204.835825,16.2607266 209.154677,33.3499031 209.154677,50.5828028 C209.154677,108.067993 162.335635,154.836007 104.786905,154.836007" id="Fill-19" fill="#64EFFF" mask="url(#mask-6)"></path>
                    </g>
                </g>
                <g id="Group-57" transform="translate(96.000000, 84.000000)">
                    <path d="M46.4606182,150.817424 C45.3307091,150.817424 44.4151636,149.902972 44.4151636,148.774413 L44.4151636,77.5485204 C44.4151636,76.4199613 45.3307091,75.5055097 46.4606182,75.5055097 C47.5905273,75.5055097 48.5060727,76.4199613 48.5060727,77.5485204 L48.5060727,148.774413 C48.5060727,149.902972 47.5905273,150.817424 46.4606182,150.817424" id="Fill-23" fill="#FF6F00"></path>
                    <path d="M81.3064091,150.817424 C80.1765,150.817424 79.2609545,149.902972 79.2609545,148.774413 L79.2609545,77.5485204 C79.2609545,76.4199613 80.1765,75.5055097 81.3064091,75.5055097 C82.4363182,75.5055097 83.3518636,76.4199613 83.3518636,77.5485204 L83.3518636,148.774413 C83.3518636,149.902972 82.4363182,150.817424 81.3064091,150.817424" id="Fill-25" fill="#007BFF"></path>
                    <path d="M39.8927455,110.872559 C39.3265636,110.872559 38.7628364,110.638839 38.3586545,110.181204 C33.4078364,104.579269 30.6808364,97.4009462 30.6808364,89.9692903 L30.6808364,80.0745806 C30.6808364,63.1976774 44.4271091,49.467828 61.3242,49.467828 L66.7299273,49.467828 C67.4229273,49.467828 68.3212909,49.467828 69.0159273,50.0603011 C69.0298364,50.0627527 69.0437455,50.0652043 69.0576545,50.0684731 C70.1687455,50.2703226 70.9059273,51.3343226 70.7030182,52.444086 C70.5009273,53.5538495 69.4356545,54.2950538 68.3237455,54.0874839 C67.8115636,53.9943226 67.2584727,53.8660215 66.7757455,53.5538495 L66.7299273,53.5538495 L61.3242,53.5538495 C46.6828364,53.5538495 34.7717455,65.4507097 34.7717455,80.0745806 L34.7717455,89.9692903 C34.7717455,96.403957 37.1346545,102.622065 41.4260182,107.477892 C42.1730182,108.323699 42.0920182,109.614882 41.2452,110.360989 C40.8565636,110.704215 40.3738364,110.872559 39.8927455,110.872559" id="Fill-27" fill="#000076"></path>
                    <path d="M91.7997545,68.4138925 C91.0781182,68.4138925 90.3793909,68.0322581 90.0063,67.3572473 C87.2097545,62.2889462 82.7645727,58.1996559 77.4881182,55.8428387 C76.4572091,55.3827527 75.9949364,54.1741075 76.4563909,53.1436129 C76.9170273,52.1147527 78.1254818,51.6513978 79.1580273,52.1131183 C85.2412091,54.8295054 90.3663,59.543957 93.5891182,65.3845161 C94.1348455,66.3733333 93.7748455,67.6154839 92.7848455,68.1597419 C92.4723,68.332172 92.1335727,68.4138925 91.7997545,68.4138925" id="Fill-29" fill="#29EAEF"></path>
                    <path d="M87.6213818,111.466258 C87.1214727,111.466258 86.6207455,111.284022 86.2263818,110.917097 C85.4000182,110.14729 85.3558364,108.854473 86.1265636,108.029097 C90.7402909,103.091548 93.2815636,96.6773118 93.2815636,89.9688817 L93.2815636,80.074172 C93.2815636,78.4977849 93.1596545,78.1145161 92.8348364,77.0889247 C92.6990182,76.6615269 92.5402909,76.1613978 92.3594727,75.4961935 C92.0624727,74.4068602 92.7055636,73.2840215 93.7962,72.9881935 C94.8843818,72.6915484 96.0093818,73.3346882 96.3063818,74.4232043 C96.4692,75.0205806 96.6123818,75.470043 96.7342909,75.854129 C97.1532,77.1763656 97.3724727,77.9641505 97.3724727,80.074172 L97.3724727,89.9688817 C97.3724727,97.7159785 94.4401091,105.119849 89.1170182,110.817398 C88.7144727,111.248065 88.1687455,111.466258 87.6213818,111.466258" id="Fill-31" fill="#007BFF"></path>
                    <path d="M65.8073455,4.56343226 C58.2588,4.56343226 52.1175273,10.6973677 52.1175273,18.2368946 L52.1175273,25.6611957 C52.1175273,33.2015398 58.2588,39.3354753 65.8073455,39.3354753 C73.3558909,39.3354753 79.4971636,33.2015398 79.4971636,25.6611957 L79.4971636,18.2368946 C79.4971636,10.6973677 73.3558909,4.56343226 65.8073455,4.56343226 M65.8073455,43.4214968 C56.0030727,43.4214968 48.0266182,35.454572 48.0266182,25.6611957 L48.0266182,18.2368946 C48.0266182,8.44433548 56.0030727,0.477410753 65.8073455,0.477410753 C75.6116182,0.477410753 83.5880727,8.44433548 83.5880727,18.2368946 L83.5880727,25.6611957 C83.5880727,35.454572 75.6116182,43.4214968 65.8073455,43.4214968" id="Fill-33" fill="#007BFF"></path>
                    <path d="M62.7994636,150.834912 C61.6695545,150.834912 60.7540091,149.92046 60.7540091,148.791901 L60.7540091,108.513535 C60.7540091,107.384976 61.6695545,106.470525 62.7994636,106.470525 C63.9293727,106.470525 64.8449182,107.384976 64.8449182,108.513535 L64.8449182,148.791901 C64.8449182,149.92046 63.9293727,150.834912 62.7994636,150.834912" id="Fill-35" fill="#007BFF"></path>
                    <path d="M109.0323,44.9967398 L105.001936,44.9967398 C104.8833,44.9967398 102.448391,44.993471 102.331391,44.9885677 C101.2023,44.9493419 100.318664,44.0038366 100.357936,42.8760946 C100.398027,41.7475355 101.333209,40.8404387 102.473755,40.9058151 C102.670118,40.9082667 104.890664,40.9107183 105.001936,40.9107183 L109.0323,40.9107183 C113.599391,40.9107183 117.314755,37.1997935 117.314755,32.6381591 L117.314755,22.7883957 C117.314755,18.2275785 113.599391,14.5166538 109.0323,14.5166538 L105.001936,14.5166538 C104.224664,14.5166538 101.827391,14.5705892 101.387209,14.629428 C100.277755,14.7732559 99.2345727,14.0140731 99.0693,12.9100301 C98.9032091,11.8076215 99.6297545,10.7787613 100.731845,10.5957075 C101.586845,10.4526968 104.969209,10.4306323 105.001936,10.4306323 L109.0323,10.4306323 C115.8543,10.4306323 121.405664,15.9745462 121.405664,22.7883957 L121.405664,32.6381591 C121.405664,39.4528258 115.8543,44.9967398 109.0323,44.9967398" id="Fill-37" fill="#007BFF"></path>
                    <path d="M129.333845,71.8415742 C128.612209,71.8415742 127.913482,71.4599398 127.540391,70.784929 C125.317391,66.756929 121.784482,63.5077247 117.592118,61.6355097 C116.561209,61.1746065 116.098936,59.9667785 116.560391,58.9362839 C117.021027,57.9066065 118.231118,57.4440688 119.262027,57.904972 C124.261936,60.1375742 128.473936,64.0111226 131.123209,68.8121978 C131.668936,69.8010151 131.308936,71.0431656 130.318936,71.5874237 C130.006391,71.7598538 129.667664,71.8415742 129.333845,71.8415742" id="Fill-39" fill="#000076"></path>
                    <path d="M125.951645,106.682753 C125.451736,106.682753 124.951009,106.500516 124.556645,106.133591 C123.7311,105.363785 123.685282,104.070968 124.456827,103.245591 C128.1231,99.3213763 130.142373,94.2252903 130.142373,88.8954839 L130.142373,80.8885161 C130.142373,79.9765161 130.109645,79.9005161 129.973009,79.576086 C129.838827,79.259828 129.636736,78.7809462 129.409282,77.9473978 C129.1131,76.8588817 129.756191,75.736043 130.846009,75.4402151 C131.935827,75.1419355 133.060009,75.7867097 133.357009,76.8752258 C133.511645,77.444 133.628645,77.7202151 133.741555,77.9874409 C134.075373,78.7776774 134.233282,79.3211183 134.233282,80.8885161 L134.233282,88.8954839 C134.233282,95.2631398 131.822918,101.350495 127.447282,106.033892 C127.044736,106.464559 126.499009,106.682753 125.951645,106.682753" id="Fill-41" fill="#007BFF"></path>
                    <path d="M124.310127,151.411123 C123.180218,151.411123 122.264673,150.496671 122.264673,149.368112 L122.264673,88.6490151 C122.264673,87.5204559 123.180218,86.6060043 124.310127,86.6060043 C125.440036,86.6060043 126.355582,87.5204559 126.355582,88.6490151 L126.355582,149.368112 C126.355582,150.496671 125.440036,151.411123 124.310127,151.411123" id="Fill-43" fill="#007BFF"></path>
                    <path d="M108.654382,150.834912 C107.524473,150.834912 106.608927,149.92046 106.608927,148.791901 L106.608927,120.935041 C106.608927,119.806482 107.524473,118.89203 108.654382,118.89203 C109.784291,118.89203 110.699836,119.806482 110.699836,120.935041 L110.699836,148.791901 C110.699836,149.92046 109.784291,150.834912 108.654382,150.834912" id="Fill-45" fill="#FF6F00"></path>
                    <path d="M29.5591909,44.9967398 L25.5288273,44.9967398 C18.7060091,44.9967398 13.1554636,39.4528258 13.1554636,32.6381591 L13.1554636,22.7883957 C13.1554636,15.9745462 18.7060091,10.4306323 25.5288273,10.4306323 L29.5591909,10.4306323 C29.5919182,10.4306323 32.9734636,10.4526968 33.8292818,10.5957075 C34.9436455,10.7812129 35.6963727,11.833772 35.5106455,12.9468043 C35.3257364,14.0557505 34.2801,14.8051269 33.1698273,14.6286108 C32.7165545,14.569772 30.3340091,14.5166538 29.5591909,14.5166538 L25.5288273,14.5166538 C20.9617364,14.5166538 17.2463727,18.2275785 17.2463727,22.7883957 L17.2463727,32.6381591 C17.2463727,37.1997935 20.9617364,40.9107183 25.5288273,40.9107183 L29.5591909,40.9107183 C29.6696455,40.9107183 31.8910091,40.9082667 32.1102818,40.9049978 C32.1217364,40.9049978 32.1340091,40.9041806 32.1454636,40.9041806 C33.2524636,40.9041806 34.1671909,41.7851269 34.1966455,42.8948903 C34.2261,44.0152774 33.3514636,44.9493419 32.2297364,44.9885677 C32.1127364,44.993471 29.6778273,44.9967398 29.5591909,44.9967398" id="Fill-47" fill="#007BFF"></path>
                    <path d="M5.22752727,71.8415742 C4.89370909,71.8415742 4.55498182,71.7598538 4.24243636,71.5874237 C3.25243636,71.0431656 2.89243636,69.8010151 3.43816364,68.8121978 C6.08743636,64.0111226 10.2994364,60.1375742 15.2993455,57.904972 C16.3310727,57.444886 17.5403455,57.9074237 18.0009818,58.9362839 C18.4624364,59.9667785 18.0001636,61.1746065 16.9692545,61.6355097 C12.7768909,63.5077247 9.24398182,66.756929 7.02098182,70.784929 C6.64789091,71.4599398 5.94916364,71.8415742 5.22752727,71.8415742" id="Fill-49" fill="#64EFFF"></path>
                    <path d="M8.60931818,106.682753 C8.06195455,106.682753 7.51622727,106.464559 7.11368182,106.033892 C2.73804545,101.350495 0.327681818,95.2631398 0.327681818,88.8954839 L0.327681818,80.8885161 C0.327681818,79.3211183 0.485590909,78.7776774 0.819409091,77.9874409 C0.932318182,77.7202151 1.04931818,77.444 1.20395455,76.8752258 C1.50013636,75.7867097 2.62431818,75.1419355 3.71495455,75.4402151 C4.80477273,75.736043 5.44786364,76.8588817 5.15168182,77.9473978 C4.92422727,78.7809462 4.72213636,79.259828 4.58795455,79.576086 C4.45131818,79.9005161 4.41859091,79.9765161 4.41859091,80.8885161 L4.41859091,88.8954839 C4.41859091,94.2252903 6.43786364,99.3213763 10.1041364,103.245591 C10.8756818,104.070968 10.8298636,105.363785 10.0043182,106.133591 C9.60995455,106.500516 9.10922727,106.682753 8.60931818,106.682753" id="Fill-51" fill="#007BFF"></path>
                    <path d="M10.2508364,151.411123 C9.12092727,151.411123 8.20538182,150.496671 8.20538182,149.368112 L8.20538182,88.6490151 C8.20538182,87.5204559 9.12092727,86.6060043 10.2508364,86.6060043 C11.3807455,86.6060043 12.2962909,87.5204559 12.2962909,88.6490151 L12.2962909,149.368112 C12.2962909,150.496671 11.3807455,151.411123 10.2508364,151.411123" id="Fill-53" fill="#007BFF"></path>
                    <path d="M25.9065818,150.834912 C24.7766727,150.834912 23.8611273,149.92046 23.8611273,148.791901 L23.8611273,120.935041 C23.8611273,119.806482 24.7766727,118.89203 25.9065818,118.89203 C27.0364909,118.89203 27.9520364,119.806482 27.9520364,120.935041 L27.9520364,148.791901 C27.9520364,149.92046 27.0364909,150.834912 25.9065818,150.834912" id="Fill-55" fill="#007BFF"></path>
                </g>
            </g>
        </g>
    </g>
</svg>