<?xml version="1.0" encoding="utf-8"?>
<!-- Generator: Adobe Illustrator 22.1.0, SVG Export Plug-In . SVG Version: 6.00 Build 0)  -->
<svg version="1.1" id="Layer_1" xmlns="http://www.w3.org/2000/svg" xmlns:xlink="http://www.w3.org/1999/xlink" x="0px" y="0px"
	 viewBox="0 0 141.7 183" style="enable-background:new 0 0 141.7 183;" xml:space="preserve">
<style type="text/css">
	.st0{fill:none;stroke:#FFFFFF;stroke-width:3;stroke-linecap:round;stroke-linejoin:round;}
	.st1{fill:none;stroke:#000076;stroke-width:5;stroke-linecap:round;stroke-linejoin:round;}
	.st2{fill:none;stroke:#FF6F00;stroke-width:5;stroke-linecap:round;stroke-linejoin:round;}
	.st3{fill:none;stroke:#64EFFF;stroke-width:3;stroke-linecap:round;stroke-linejoin:round;}
	.st4{fill:none;stroke:#64EFFF;stroke-width:2;stroke-linecap:round;stroke-linejoin:round;}
	.st5{fill:none;stroke:#FFFFFF;stroke-width:4;stroke-linecap:round;stroke-linejoin:round;}
	.st6{fill:none;stroke:#000076;stroke-width:4;stroke-linecap:round;stroke-linejoin:round;}
	.st7{fill:#000076;}
</style>
<title>Group 31</title>
<desc>Created with Sketch.</desc>
<g id="Desktop">
	<g id="APPII" transform="translate(-944.000000, -3067.000000)">
		<g id="Group-31" transform="translate(947.307692, 3069.000000)">
			<path id="Stroke-1" class="st0" d="M89.1,109.1v10.6c0,0,0.1,6-3.6,10.9c-1.4,2.7-1.4,6.4-1.4,6.4v5.8"/>
			<path id="Stroke-3" class="st1" d="M53.7,144v-7.2c0,0,0.5-4.2-1.6-6.1c-2.1-1.9-7.1-6.6-7.3-11.7c-0.1-3.6-0.1-1.6,0-4.1"/>
			<path id="Stroke-5" class="st0" d="M44.8,108.5V99c0-1.9,1.6-3.5,3.5-3.5h2.2c1.9,0,3.5,1.6,3.5,3.5v7"/>
			<path id="Stroke-7" class="st0" d="M54,106.3V74.1c0-1.9,1.6-3.5,3.5-3.5h2.2c1.9,0,3.5,1.6,3.5,3.5V88"/>
			<path id="Stroke-9" class="st2" d="M63.2,93.7v12.9"/>
			<path id="Stroke-11" class="st0" d="M63.1,84.8c0-1.9,1.6-3.5,3.5-3.5h2.2c1.9,0,3.5,1.6,3.5,3.5v21.8"/>
			<path id="Stroke-13" class="st0" d="M72.2,106.4v-14c0-1.9,1.6-3.5,3.5-3.5h2.2c1.9,0,3.5,1.6,3.5,3.5v14.3"/>
			<path id="Stroke-15" class="st0" d="M81.4,107.3v-5.9c0-1.9,1.3-3.5,3-3.5h1.8c1.6,0,3,1.6,3,3.5v15.9"/>
			<path id="Stroke-17" class="st3" d="M47.5,79.4c-2.6-2.5-4.2-6-4.2-9.9c0-7.6,6.1-13.7,13.7-13.7c7.6,0,13.7,6.1,13.7,13.7
				c0,1.3-0.2,2.5-0.5,3.7"/>
			<path id="Stroke-19" class="st4" d="M42.7,88.6c-5.8-4.4-9.6-11.3-9.6-19.2c0-13.2,10.7-23.9,23.9-23.9s23.9,10.7,23.9,23.9
				c0,4.2-1.1,8.2-3.1,11.7"/>
			<path id="Stroke-21" class="st2" d="M35.1,101.1h-9.9c-4.1,0-7.4-3.3-7.4-7.4v-7.3"/>
			<path id="Stroke-23" class="st5" d="M17.9,74.2V41.4c0-4.1,3.3-7.4,7.4-7.4h85.2c4.1,0,7.4,3.3,7.4,7.4v3.3"/>
			<path id="Stroke-25" class="st5" d="M117.8,52.4v41.3c0,4.1-3.3,7.4-7.4,7.4H96.9"/>
			<path id="Stroke-27" class="st6" d="M106.1,42.8v49.4"/>
			<path id="Fill-29" class="st7" d="M115.2,67.1c0,1.7-1.3,3-3,3c-1.7,0-3-1.3-3-3c0-1.7,1.3-3,3-3
				C113.9,64.1,115.2,65.5,115.2,67.1"/>
		</g>
	</g>
</g>
</svg>
