<?xml version="1.0" encoding="UTF-8"?>
<svg width="270px" height="294px" viewBox="0 0 270 294" version="1.1" xmlns="http://www.w3.org/2000/svg" xmlns:xlink="http://www.w3.org/1999/xlink">
    <!-- Generator: Sketch 51.2 (57519) - http://www.bohemiancoding.com/sketch -->
    <title>Group 15</title>
    <desc>Created with Sketch.</desc>
    <defs>
        <path d="M72.4171341,1.42585946 L5.0157622,40.1507351 C2.38832317,41.6603027 0.238170732,45.3660324 0.238170732,48.3861081 L0.238170732,125.835859 C0.238170732,128.854995 2.38832317,132.560724 5.0157622,134.070292 L34.2682317,150.877751 C35.3437805,151.496627 36.719878,151.127935 37.3408232,150.056659 L46.4338415,134.350573 C45.8696037,133.598141 45.4584756,132.749773 45.2193598,131.858141 C44.8044512,130.323178 44.8942378,128.645254 45.5529878,127.102768 L37.1054878,95.7310378 C36.1934451,95.6040649 35.2908537,95.304973 34.4468598,94.8205946 C32.6879878,93.8095135 31.5009146,92.1776757 31.015122,90.3690162 C30.5264939,88.5612973 30.7353659,86.5560649 31.7504268,84.8066595 C32.7654878,83.0572541 34.4062195,81.8749946 36.223689,81.3906162 C38.0402134,80.9062378 40.0542683,81.1122162 41.8131402,82.1242378 C43.5720122,83.1343784 44.7590854,84.7662162 45.244878,86.5748757 C45.7335061,88.3835351 45.5246341,90.387827 44.5095732,92.1372324 C44.0218902,92.9771351 43.3896037,93.6844216 42.66375,94.2487459 L50.3778354,122.894789 L50.4279268,122.879741 C51.3191768,122.641784 52.2576829,122.572184 53.1914634,122.680346 L63.1039024,105.559686 C62.5491159,104.812897 62.1446037,103.974876 61.907378,103.093589 C61.5151524,101.639514 61.57375,100.059405 62.139878,98.5855784 L56.7120427,78.4288541 C55.8,78.3018811 54.8974085,78.0037297 54.0534146,77.5184108 C52.2945427,76.5082703 51.1074695,74.8754919 50.6216768,73.067773 C50.1330488,71.2591135 50.3419207,69.2548216 51.3569817,67.5054162 C52.3720427,65.7550703 54.0118293,64.5728108 55.8302439,64.089373 C57.6467683,63.6040541 59.6617683,63.810973 61.4196951,64.8220541 C63.1785671,65.8321946 64.3656402,67.4640324 64.8514329,69.2726919 C65.340061,71.0813514 65.131189,73.0865838 64.116128,74.8359892 C63.6284451,75.6758919 62.9961585,76.3822378 62.2703049,76.9475027 L66.9099085,94.1753838 C66.9789024,94.1556324 67.0469512,94.1330595 67.1168902,94.1151892 C67.9977439,93.8791135 68.9258537,93.808573 69.8482927,93.9110919 L78.6246951,78.7552216 C78.0784146,78.0140757 77.6795732,77.1845189 77.4451829,76.3116973 C76.9575,74.5030378 77.1654268,72.4987459 78.1814329,70.7493405 C78.3383232,70.4765838 78.5141159,70.2188757 78.70125,69.9743351 L76.3185976,61.1266703 C75.4065549,60.9996973 74.5039634,60.7024865 73.6599695,60.216227 C71.9010976,59.207027 70.7140244,57.5742486 70.2282317,55.7655892 C69.7396037,53.9569297 69.9484756,51.9526378 70.9635366,50.2032324 C71.9785976,48.453827 73.6193293,47.270627 75.4367988,46.7871892 C77.2533232,46.3018703 79.267378,46.5097297 81.0253049,47.5208108 C82.785122,48.5300108 83.9721951,50.1627892 84.4579878,51.9705081 C84.9466159,53.778227 84.7377439,55.7844 83.7217378,57.5338054 C83.235,58.3737081 82.6027134,59.0809946 81.8768598,59.6443784 L83.8890244,67.1160324 C84.3748171,67.0708865 84.8662805,67.0746486 85.3558537,67.1282595 L95.0641463,50.3603027 C94.5282622,49.6266811 94.1350915,48.8055892 93.9035366,47.9431135 C93.4149085,46.1344541 93.6237805,44.1301622 94.6388415,42.3807568 C95.6548476,40.6313514 97.2946341,39.4481514 99.1121037,38.9647135 C100.928628,38.4793946 102.943628,38.6863135 104.701555,39.6983351 C106.460427,40.7075351 107.6475,42.3403135 108.134238,44.1480324 C108.620976,45.9566919 108.413994,47.9619243 107.397043,49.7113297 C106.382927,51.4607351 104.742195,52.6439351 102.924726,53.1264324 C101.982439,53.3784973 100.987226,53.4415135 100.001463,53.3051351 L90.3810671,69.9216649 C90.7250915,70.3637189 91.0152439,70.8424541 91.2477439,71.3437622 L98.7548476,69.3422919 C98.882439,68.4346703 99.1820427,67.5355135 99.6697256,66.6965514 C100.683841,64.9462054 102.324573,63.7639459 104.142988,63.2805081 C105.959512,62.7942486 107.973567,63.0030486 109.732439,64.0131892 C111.490366,65.0223892 112.677439,66.6551676 113.163232,68.463827 C113.652805,70.2715459 113.442988,72.2767784 112.427927,74.0261838 C111.412866,75.7765297 109.773079,76.9587892 107.95561,77.4412865 C106.13814,77.9275459 104.124085,77.7196865 102.366159,76.7095459 C101.522165,76.2251676 100.810488,75.5950054 100.24436,74.8736108 L91.3526524,77.243773 C91.2335671,77.5278162 91.0974695,77.8071568 90.9396341,78.0799135 C89.9245732,79.8302595 88.2838415,81.0115784 86.466372,81.4950162 C85.5344817,81.7442595 84.5487195,81.8100973 83.5733537,81.6784216 L74.8602744,96.7261297 C75.4575915,97.4983135 75.8895122,98.3748973 76.1371341,99.2985081 C76.1560366,99.3671676 76.1721037,99.4377081 76.1881707,99.5063676 L93.5018598,94.8911351 C93.6294512,93.982573 93.9290549,93.0843568 94.4157927,92.2444541 C95.4308537,90.4941081 97.0715854,89.3127892 98.8890549,88.8293514 C100.705579,88.3430919 102.720579,88.5509514 104.477561,89.5610919 C106.237378,90.5712324 107.424451,92.2040108 107.910244,94.0126703 C108.397927,95.8203892 108.19,97.8246811 107.173994,99.5740865 C106.159878,101.325373 104.520091,102.506692 102.701677,102.99013 C100.885152,103.476389 98.8710976,103.26853 97.1122256,102.257449 C96.2682317,101.774011 95.5575,101.143849 94.991372,100.421514 L74.7355183,105.823038 C73.7365244,107.046681 72.3906707,107.887524 70.9295122,108.275968 C70.0051829,108.52333 69.0307622,108.590108 68.0639024,108.464076 L58.1921037,125.515135 C58.7780793,126.280735 59.2033841,127.149795 59.4491159,128.064 L59.4623476,128.114789 L88.2469817,120.439038 C88.3755183,119.531416 88.675122,118.632259 89.1628049,117.793297 C90.1778659,116.042951 91.8185976,114.860692 93.635122,114.378195 C95.4516463,113.891935 97.4675915,114.098854 99.2245732,115.109935 C100.983445,116.120076 102.171463,117.751914 102.656311,119.560573 C103.144939,121.369232 102.937012,123.373524 101.921006,125.12293 C100.905945,126.873276 99.2652134,128.055535 97.448689,128.538973 C95.6312195,129.024292 93.6171646,128.817373 91.8592378,127.806292 C91.0142988,127.320973 90.3045122,126.692692 89.7364939,125.970357 L58.2119512,134.376908 C57.1987805,135.715297 55.7839329,136.631384 54.2396037,137.040519 C53.3266159,137.285059 52.3625915,137.353719 51.4070732,137.23427 L42.3235061,152.922486 C41.702561,153.993762 42.0711585,155.361308 43.1467073,155.979243 L72.4171341,172.796108 C75.0445732,174.305676 79.3439329,174.305676 81.971372,172.796108 L149.372744,134.071232 C152.000183,132.560724 154.150335,128.854995 154.150335,125.835859 L154.150335,48.3861081 C154.150335,45.3660324 152.000183,41.6603027 149.372744,40.1507351 L81.971372,1.42585946 C80.6576524,0.670605405 78.926189,0.293448649 77.1937805,0.293448649 C75.4623171,0.293448649 73.7308537,0.670605405 72.4171341,1.42585946" id="path-1"></path>
        <linearGradient x1="25.0000507%" y1="88.1966448%" x2="74.999938%" y2="11.8033212%" id="linearGradient-3">
            <stop stop-color="#00FFDD" offset="0%"></stop>
            <stop stop-color="#3FA8F4" offset="100%"></stop>
        </linearGradient>
    </defs>
    <g id="Desktop" stroke="none" stroke-width="1" fill="none" fill-rule="evenodd">
        <g id="6-About-Copy" transform="translate(-390.000000, -2791.000000)">
            <g id="Group-15" transform="translate(390.000000, 2791.000000)">
                <g id="Group-3" transform="translate(59.000000, 59.000000)">
                    <mask id="mask-2" fill="white">
                        <use xlink:href="#path-1"></use>
                    </mask>
                    <g id="Clip-2"></g>
                    <path d="M72.4171341,1.42585946 L5.0157622,40.1507351 C2.38832317,41.6603027 0.238170732,45.3660324 0.238170732,48.3861081 L0.238170732,125.835859 C0.238170732,128.854995 2.38832317,132.560724 5.0157622,134.070292 L34.2682317,150.877751 C35.3437805,151.496627 36.719878,151.127935 37.3408232,150.056659 L46.4338415,134.350573 C45.8696037,133.598141 45.4584756,132.749773 45.2193598,131.858141 C44.8044512,130.323178 44.8942378,128.645254 45.5529878,127.102768 L37.1054878,95.7310378 C36.1934451,95.6040649 35.2908537,95.304973 34.4468598,94.8205946 C32.6879878,93.8095135 31.5009146,92.1776757 31.015122,90.3690162 C30.5264939,88.5612973 30.7353659,86.5560649 31.7504268,84.8066595 C32.7654878,83.0572541 34.4062195,81.8749946 36.223689,81.3906162 C38.0402134,80.9062378 40.0542683,81.1122162 41.8131402,82.1242378 C43.5720122,83.1343784 44.7590854,84.7662162 45.244878,86.5748757 C45.7335061,88.3835351 45.5246341,90.387827 44.5095732,92.1372324 C44.0218902,92.9771351 43.3896037,93.6844216 42.66375,94.2487459 L50.3778354,122.894789 L50.4279268,122.879741 C51.3191768,122.641784 52.2576829,122.572184 53.1914634,122.680346 L63.1039024,105.559686 C62.5491159,104.812897 62.1446037,103.974876 61.907378,103.093589 C61.5151524,101.639514 61.57375,100.059405 62.139878,98.5855784 L56.7120427,78.4288541 C55.8,78.3018811 54.8974085,78.0037297 54.0534146,77.5184108 C52.2945427,76.5082703 51.1074695,74.8754919 50.6216768,73.067773 C50.1330488,71.2591135 50.3419207,69.2548216 51.3569817,67.5054162 C52.3720427,65.7550703 54.0118293,64.5728108 55.8302439,64.089373 C57.6467683,63.6040541 59.6617683,63.810973 61.4196951,64.8220541 C63.1785671,65.8321946 64.3656402,67.4640324 64.8514329,69.2726919 C65.340061,71.0813514 65.131189,73.0865838 64.116128,74.8359892 C63.6284451,75.6758919 62.9961585,76.3822378 62.2703049,76.9475027 L66.9099085,94.1753838 C66.9789024,94.1556324 67.0469512,94.1330595 67.1168902,94.1151892 C67.9977439,93.8791135 68.9258537,93.808573 69.8482927,93.9110919 L78.6246951,78.7552216 C78.0784146,78.0140757 77.6795732,77.1845189 77.4451829,76.3116973 C76.9575,74.5030378 77.1654268,72.4987459 78.1814329,70.7493405 C78.3383232,70.4765838 78.5141159,70.2188757 78.70125,69.9743351 L76.3185976,61.1266703 C75.4065549,60.9996973 74.5039634,60.7024865 73.6599695,60.216227 C71.9010976,59.207027 70.7140244,57.5742486 70.2282317,55.7655892 C69.7396037,53.9569297 69.9484756,51.9526378 70.9635366,50.2032324 C71.9785976,48.453827 73.6193293,47.270627 75.4367988,46.7871892 C77.2533232,46.3018703 79.267378,46.5097297 81.0253049,47.5208108 C82.785122,48.5300108 83.9721951,50.1627892 84.4579878,51.9705081 C84.9466159,53.778227 84.7377439,55.7844 83.7217378,57.5338054 C83.235,58.3737081 82.6027134,59.0809946 81.8768598,59.6443784 L83.8890244,67.1160324 C84.3748171,67.0708865 84.8662805,67.0746486 85.3558537,67.1282595 L95.0641463,50.3603027 C94.5282622,49.6266811 94.1350915,48.8055892 93.9035366,47.9431135 C93.4149085,46.1344541 93.6237805,44.1301622 94.6388415,42.3807568 C95.6548476,40.6313514 97.2946341,39.4481514 99.1121037,38.9647135 C100.928628,38.4793946 102.943628,38.6863135 104.701555,39.6983351 C106.460427,40.7075351 107.6475,42.3403135 108.134238,44.1480324 C108.620976,45.9566919 108.413994,47.9619243 107.397043,49.7113297 C106.382927,51.4607351 104.742195,52.6439351 102.924726,53.1264324 C101.982439,53.3784973 100.987226,53.4415135 100.001463,53.3051351 L90.3810671,69.9216649 C90.7250915,70.3637189 91.0152439,70.8424541 91.2477439,71.3437622 L98.7548476,69.3422919 C98.882439,68.4346703 99.1820427,67.5355135 99.6697256,66.6965514 C100.683841,64.9462054 102.324573,63.7639459 104.142988,63.2805081 C105.959512,62.7942486 107.973567,63.0030486 109.732439,64.0131892 C111.490366,65.0223892 112.677439,66.6551676 113.163232,68.463827 C113.652805,70.2715459 113.442988,72.2767784 112.427927,74.0261838 C111.412866,75.7765297 109.773079,76.9587892 107.95561,77.4412865 C106.13814,77.9275459 104.124085,77.7196865 102.366159,76.7095459 C101.522165,76.2251676 100.810488,75.5950054 100.24436,74.8736108 L91.3526524,77.243773 C91.2335671,77.5278162 91.0974695,77.8071568 90.9396341,78.0799135 C89.9245732,79.8302595 88.2838415,81.0115784 86.466372,81.4950162 C85.5344817,81.7442595 84.5487195,81.8100973 83.5733537,81.6784216 L74.8602744,96.7261297 C75.4575915,97.4983135 75.8895122,98.3748973 76.1371341,99.2985081 C76.1560366,99.3671676 76.1721037,99.4377081 76.1881707,99.5063676 L93.5018598,94.8911351 C93.6294512,93.982573 93.9290549,93.0843568 94.4157927,92.2444541 C95.4308537,90.4941081 97.0715854,89.3127892 98.8890549,88.8293514 C100.705579,88.3430919 102.720579,88.5509514 104.477561,89.5610919 C106.237378,90.5712324 107.424451,92.2040108 107.910244,94.0126703 C108.397927,95.8203892 108.19,97.8246811 107.173994,99.5740865 C106.159878,101.325373 104.520091,102.506692 102.701677,102.99013 C100.885152,103.476389 98.8710976,103.26853 97.1122256,102.257449 C96.2682317,101.774011 95.5575,101.143849 94.991372,100.421514 L74.7355183,105.823038 C73.7365244,107.046681 72.3906707,107.887524 70.9295122,108.275968 C70.0051829,108.52333 69.0307622,108.590108 68.0639024,108.464076 L58.1921037,125.515135 C58.7780793,126.280735 59.2033841,127.149795 59.4491159,128.064 L59.4623476,128.114789 L88.2469817,120.439038 C88.3755183,119.531416 88.675122,118.632259 89.1628049,117.793297 C90.1778659,116.042951 91.8185976,114.860692 93.635122,114.378195 C95.4516463,113.891935 97.4675915,114.098854 99.2245732,115.109935 C100.983445,116.120076 102.171463,117.751914 102.656311,119.560573 C103.144939,121.369232 102.937012,123.373524 101.921006,125.12293 C100.905945,126.873276 99.2652134,128.055535 97.448689,128.538973 C95.6312195,129.024292 93.6171646,128.817373 91.8592378,127.806292 C91.0142988,127.320973 90.3045122,126.692692 89.7364939,125.970357 L58.2119512,134.376908 C57.1987805,135.715297 55.7839329,136.631384 54.2396037,137.040519 C53.3266159,137.285059 52.3625915,137.353719 51.4070732,137.23427 L42.3235061,152.922486 C41.702561,153.993762 42.0711585,155.361308 43.1467073,155.979243 L72.4171341,172.796108 C75.0445732,174.305676 79.3439329,174.305676 81.971372,172.796108 L149.372744,134.071232 C152.000183,132.560724 154.150335,128.854995 154.150335,125.835859 L154.150335,48.3861081 C154.150335,45.3660324 152.000183,41.6603027 149.372744,40.1507351 L81.971372,1.42585946 C80.6576524,0.670605405 78.926189,0.293448649 77.1937805,0.293448649 C75.4623171,0.293448649 73.7308537,0.670605405 72.4171341,1.42585946" id="Fill-1" fill="url(#linearGradient-3)" mask="url(#mask-2)"></path>
                </g>
                <g id="Group-14">
                    <path d="M134.69743,293.764517 C125.127535,293.764517 115.688864,291.240075 107.400997,286.463517 L27.5319755,240.436498 C10.6947378,230.733556 0.236486014,212.650671 0.236486014,193.245729 L0.236486014,101.19169 C0.236486014,81.7867481 10.6947378,63.7048058 27.5310315,54.0018635 L107.401941,7.97390192 C115.688864,3.19828654 125.127535,0.672901923 134.69743,0.672901923 C144.267325,0.672901923 153.705997,3.19828654 161.993864,7.97390192 L241.862885,54.0009212 C258.700122,63.7048058 269.159318,81.7867481 269.159318,101.19169 L269.159318,193.245729 C269.159318,212.650671 258.700122,230.733556 241.863829,240.436498 L161.993864,286.463517 C153.705997,291.240075 144.266381,293.764517 134.69743,293.764517 Z" id="Stroke-4" stroke="#64EFFF" stroke-width="0.3"></path>
                    <path d="M134.69743,273.659063 C128.855612,273.659063 123.093094,272.117448 118.032955,269.201948 L37.1934441,222.61614 C26.9136189,216.691852 20.5289685,205.652717 20.5289685,193.805083 L20.5289685,100.632525 C20.5289685,88.7858327 26.9136189,77.7457558 37.1925,71.8224096 L118.032955,25.2356596 C123.093094,22.3201596 128.855612,20.7785442 134.69743,20.7785442 C140.539248,20.7785442 146.301766,22.3201596 151.361906,25.2356596 L232.201416,71.8224096 C242.481241,77.7457558 248.865892,88.7858327 248.865892,100.632525 L248.865892,193.805083 C248.865892,205.652717 242.481241,216.691852 232.20236,222.615198 L151.361906,269.20289 C146.301766,272.117448 140.539248,273.659063 134.69743,273.659063 Z" id="Stroke-6" stroke="#64EFFF" stroke-width="0.75"></path>
                    <path d="M80.699507,71.246 C102.14657,58.8866923 127.109297,44.5004808 127.109297,44.5004808 C129.799857,42.9503846 132.863318,42.1315192 135.969262,42.1315192 C139.07615,42.1315192 142.139612,42.9503846 144.829227,44.5004808 L221.548878,88.7126154 C227.014017,91.8618077 230.408843,97.7314423 230.408843,104.030769 L230.408843,133.224404" id="Stroke-8" stroke="#64EEFF" stroke-width="3" stroke-linecap="round" stroke-linejoin="round"></path>
                    <path d="M230.408937,131.659513 L230.408937,192.454379 C230.408937,198.752763 227.014112,204.622398 221.548972,207.77159 L144.829322,251.983725 C142.139706,253.533821 139.076245,254.353629 135.969357,254.353629 C132.863413,254.353629 129.799951,253.533821 127.109392,251.983725 L50.3897413,207.77159 C44.9246014,204.622398 41.5297762,198.752763 41.5297762,192.454379 L41.5297762,177.854263" id="Stroke-10" stroke="#64EEFF" stroke-width="3" stroke-linecap="round" stroke-linejoin="round"></path>
                    <path d="M41.5301538,161.784431 L41.5301538,104.030392 C41.5301538,97.7310654 44.924979,91.8623731 50.3901189,88.7131808 C50.3901189,88.7131808 56.1328112,85.4028538 64.4754336,80.5952" id="Stroke-12" stroke="#007BFF" stroke-width="5" stroke-linecap="round" stroke-linejoin="round"></path>
                </g>
            </g>
        </g>
    </g>
</svg>