<?xml version="1.0" encoding="UTF-8"?>
<svg width="347px" height="325px" viewBox="0 0 347 325" version="1.1" xmlns="http://www.w3.org/2000/svg" xmlns:xlink="http://www.w3.org/1999/xlink">
    <!-- Generator: Sketch 51.2 (57519) - http://www.bohemiancoding.com/sketch -->
    <title>Illustration</title>
    <desc>Created with Sketch.</desc>
    <defs>
        <polygon id="path-1" points="0.0470835616 0.0324074074 66.2339055 0.0324074074 66.2339055 47.2892593 0.0470835616 47.2892593"></polygon>
        <polygon id="path-3" points="0.648420968 0.803233683 56.3941452 0.803233683 56.3941452 74.5777933 0.648420968 74.5777933"></polygon>
        <polygon id="path-5" points="0 325 346 325 346 0 0 0"></polygon>
    </defs>
    <g id="Desktop" stroke="none" stroke-width="1" fill="none" fill-rule="evenodd">
        <g id="4-Project-" transform="translate(-225.000000, -1195.000000)">
            <g id="Illustration" transform="translate(225.000000, 1195.000000)">
                <g id="Group-3" transform="translate(160.000000, 0.000000)">
                    <mask id="mask-2" fill="white">
                        <use xlink:href="#path-1"></use>
                    </mask>
                    <g id="Clip-2"></g>
                    <path d="M63.4804808,47.2892593 C61.9596726,47.2892593 60.7270562,46.0457407 60.7270562,44.5114815 L60.7270562,7.09851852 C60.7270562,6.27907407 60.0414534,5.58740741 59.230111,5.58740741 L7.05179589,5.58740741 C6.23953562,5.58740741 5.55393288,6.27907407 5.55393288,7.09851852 L5.55393288,11.9216667 C5.55393288,13.4559259 4.32131644,14.6994444 2.80050822,14.6994444 C1.2797,14.6994444 0.0470835616,13.4559259 0.0470835616,11.9216667 L0.0470835616,7.09851852 C0.0470835616,3.20222222 3.1896589,0.0318518519 7.05179589,0.0318518519 L59.230111,0.0318518519 C63.0922479,0.0318518519 66.2339055,3.20222222 66.2339055,7.09851852 L66.2339055,44.5114815 C66.2339055,46.0457407 65.001289,47.2892593 63.4804808,47.2892593" id="Fill-1" fill="#000076" mask="url(#mask-2)"></path>
                </g>
                <path d="M219.911287,91.2808642 L209.786809,91.2808642 C208.246633,91.2808642 207,90.0452977 207,88.5208496 C207,86.9964015 208.246633,85.760835 209.786809,85.760835 L219.911287,85.760835 C220.732466,85.760835 221.426382,85.0735913 221.426382,84.259387 L221.426382,57.9297677 C221.426382,56.4062396 222.673943,55.1697531 224.213191,55.1697531 C225.752438,55.1697531 227,56.4062396 227,57.9297677 L227,84.259387 C227,88.1307675 223.820251,91.2808642 219.911287,91.2808642" id="Fill-4" fill="#000076"></path>
                <path d="M196.515333,120.37037 L162.173271,120.37037 C160.650997,120.37037 159.418855,119.135398 159.418855,117.611683 C159.418855,116.087968 160.650997,114.852995 162.173271,114.852995 L196.515333,114.852995 C197.605164,114.852995 198.491168,113.949065 198.491168,112.838233 L198.491168,44.951528 L178.465643,25.5791037 L136.484667,25.5791037 C135.395755,25.5791037 134.508832,26.4830337 134.508832,27.5938653 L134.508832,54.8386646 C134.508832,56.3623797 133.275772,57.5973522 131.754416,57.5973522 C130.23306,57.5973522 129,56.3623797 129,54.8386646 L129,27.5938653 C129,23.4411208 132.357633,20.0617284 136.484667,20.0617284 L179.578427,20.0617284 C180.291821,20.0617284 180.977671,20.3394363 181.491829,20.8360001 L203.158985,41.7965089 C203.697014,42.3160617 204,43.032401 204,43.7809249 L204,112.838233 C204,116.990978 200.642367,120.37037 196.515333,120.37037" id="Fill-6" fill="#000076"></path>
                <path d="M201.252747,47.1450617 L179.747253,47.1450617 C178.228938,47.1450617 177,45.9060886 177,44.3774374 L177,23.8324392 C177,22.303788 178.228938,21.0648148 179.747253,21.0648148 C181.264652,21.0648148 182.494505,22.303788 182.494505,23.8324392 L182.494505,41.609813 L201.252747,41.609813 C202.770147,41.609813 204,42.8487862 204,44.3774374 C204,45.9060886 202.770147,47.1450617 201.252747,47.1450617" id="Fill-8" fill="#000076"></path>
                <path d="M156.587319,70.2160494 C155.258004,70.2160494 153.929603,69.9060603 152.742716,69.2795266 C152.070755,68.925521 151.805987,68.0779679 152.152011,67.3877506 C152.498034,66.6975334 153.324291,66.4268783 153.996252,66.7818204 C155.713587,67.6883744 157.968673,67.5956587 159.606578,66.5486262 C160.157111,66.1964937 160.672038,65.7319784 161.215267,65.2412405 C161.543944,64.9452993 161.871708,64.6493581 162.212253,64.3702743 C164.95305,62.1291753 168.542929,60.981935 172.068898,61.2188752 C174.349548,61.3724649 175.068985,62.5627854 175.294494,63.2586218 C175.670646,64.4161639 175.161197,65.4454024 174.78961,66.1974302 C174.769524,66.2367642 174.749438,66.2789077 174.726614,66.3229243 C174.733917,66.3201147 174.740308,66.3163686 174.746699,66.313559 C175.530045,65.9042986 176.232135,65.2655901 176.974396,64.5884841 C177.55871,64.0574757 178.162197,63.5077368 178.852418,63.0244911 C180.76422,61.6899462 183.681224,61.0849525 185.570201,62.9139814 C186.120735,63.4459263 186.145385,64.335623 185.626807,64.8994097 C185.107315,65.4650694 184.240887,65.489419 183.691267,64.9574741 C182.970918,64.2616377 181.449875,64.6090876 180.394458,65.3470675 C179.849403,65.7282323 179.336302,66.1955572 178.79216,66.6900412 C177.953122,67.4542438 177.085781,68.244669 175.989279,68.8168844 C174.550406,69.5679756 173.0951,69.4050207 172.281625,68.3991952 C171.256337,67.1292704 171.96573,65.695454 172.34736,64.9256323 C172.452354,64.7130416 172.616693,64.3805761 172.668733,64.1885889 C172.549131,64.1305245 172.299885,64.0499835 171.889039,64.0218878 C169.036857,63.8280276 166.133547,64.7579947 163.919545,66.5673567 C163.613693,66.8174083 163.31971,67.0833807 163.025728,67.3493532 C162.422241,67.8944095 161.797755,68.4581962 161.055494,68.9339497 C159.721615,69.7852489 158.15401,70.2160494 156.587319,70.2160494" id="Fill-10" fill="#64EFFF"></path>
                <path d="M153.1063,253.780864 C152.060977,253.780864 151.212599,252.96622 151.212599,251.962461 L151.212599,236.738792 C151.212599,235.41954 150.094369,234.346682 148.72049,234.346682 L141.8937,234.346682 C140.848378,234.346682 140,233.532038 140,232.52828 C140,231.523612 140.848378,230.709877 141.8937,230.709877 L148.72049,230.709877 C152.160396,230.709877 154.963073,233.379292 155,236.674238 L155,236.70697 L155,236.709697 L155,251.962461 C155,252.96622 154.151622,253.780864 153.1063,253.780864" id="Fill-12" fill="#000076"></path>
                <path d="M147.958345,320.987654 L101.03981,320.987654 C97.1573041,320.987654 94,317.870575 94,314.039772 L94,307.862056 C94,306.353586 95.2381946,305.13097 96.7679463,305.13097 C98.2967753,305.13097 99.5358925,306.353586 99.5358925,307.862056 L99.5358925,314.039772 C99.5358925,314.845442 100.225111,315.525483 101.03981,315.525483 L147.958345,315.525483 C148.774889,315.525483 149.464107,314.845442 149.464107,314.039772 L149.464107,268.548987 C149.464107,267.040517 150.703225,265.817901 152.232054,265.817901 C153.760883,265.817901 155,267.040517 155,268.548987 L155,314.039772 C155,317.870575 151.840851,320.987654 147.958345,320.987654" id="Fill-14" fill="#000076"></path>
                <path d="M63.7666544,232.716049 C62.7914612,232.716049 62,231.894484 62,230.882197 L62,209.217988 C62,205.713497 64.6314317,202.839851 67.9412587,202.635377 C68.006625,202.628041 68.0728745,202.623457 68.1408907,202.623457 L72.2333456,202.623457 C73.2085388,202.623457 74,203.445022 74,204.457309 C74,205.470512 73.2085388,206.291161 72.2333456,206.291161 L68.3175561,206.291161 C66.7823335,206.291161 65.5333088,207.604199 65.5333088,209.217988 L65.5333088,230.882197 C65.5333088,231.894484 64.7418476,232.716049 63.7666544,232.716049" id="Fill-16" fill="#000076"></path>
                <path d="M133.242882,269.830247 C131.720033,269.830247 130.485763,268.603437 130.485763,267.089794 L130.485763,226.345651 L110.439675,207.101276 L84.7571183,207.101276 C83.23427,207.101276 82,205.874467 82,204.360823 C82,202.848093 83.23427,201.62037 84.7571183,201.62037 L111.553551,201.62037 C112.268564,201.62037 112.955086,201.896243 113.468829,202.389524 L135.15816,223.211487 C135.696717,223.727605 136,224.439209 136,225.182786 L136,267.089794 C136,268.603437 134.76573,269.830247 133.242882,269.830247" id="Fill-18" fill="#000076"></path>
                <path d="M128.412343,299.92284 L85.8421861,299.92284 C84.8252994,299.92284 84,299.115552 84,298.120859 C84,297.126166 84.8252994,296.318879 85.8421861,296.318879 L128.412343,296.318879 C130.013202,296.318879 131.315628,295.028662 131.315628,293.44382 L131.315628,282.666178 C131.315628,281.670584 132.140927,280.864198 133.157814,280.864198 C134.175622,280.864198 135,281.670584 135,282.666178 L135,293.44382 C135,297.016246 132.044212,299.92284 128.412343,299.92284" id="Fill-20" fill="#000076"></path>
                <path d="M133.252747,227.700617 L111.747253,227.700617 C110.228938,227.700617 109,226.461644 109,224.932993 L109,204.387995 C109,202.859344 110.228938,201.62037 111.747253,201.62037 C113.264652,201.62037 114.494505,202.859344 114.494505,204.387995 L114.494505,222.165369 L133.252747,222.165369 C134.770147,222.165369 136,223.404342 136,224.932993 C136,226.461644 134.770147,227.700617 133.252747,227.700617" id="Fill-22" fill="#000076"></path>
                <path d="M85.7353242,274.845679 C84.3392754,274.845679 82.9432266,274.527565 81.7120081,273.887871 C81.0490443,273.543754 80.8058968,272.754104 81.1674307,272.123944 C81.5298752,271.492918 82.3594906,271.262351 83.0215437,271.605601 C84.7126479,272.484531 86.9619894,272.449859 88.6193989,271.519789 C89.1767256,271.206009 89.7003578,270.788214 90.2549525,270.346149 C90.5891664,270.080043 90.9233803,269.813937 91.2703435,269.563434 C94.0560664,267.553337 97.6613875,266.572993 101.17291,266.874637 C103.443197,267.069666 104.13257,268.187831 104.342023,268.836193 C104.688075,269.915352 104.157158,270.856691 103.768304,271.543192 C103.747359,271.579597 103.725503,271.617736 103.702736,271.658476 C103.709111,271.655875 103.715486,271.652408 103.722771,271.649808 C104.514138,271.289221 105.22901,270.714537 105.985772,270.10518 C106.580436,269.62671 107.194224,269.132637 107.894525,268.70184 C109.83242,267.509997 112.755653,267.017658 114.595195,268.753847 C115.131577,269.260055 115.135219,270.082643 114.604302,270.593185 C114.071563,271.10286 113.207343,271.106328 112.672782,270.600986 C111.971571,269.939622 110.446208,270.228265 109.377998,270.886162 C108.824314,271.225945 108.302503,271.646341 107.74973,272.091006 C106.893705,272.779241 106.01036,273.490879 104.902082,273.995354 C103.448661,274.658451 102.001615,274.472091 101.215711,273.522084 C100.223087,272.324174 100.964368,271.014447 101.362328,270.31061 C101.472519,270.116448 101.644634,269.812204 101.701096,269.636244 C101.582709,269.579903 101.33683,269.499291 100.927941,269.464619 C98.0866679,269.220183 95.1707199,270.011566 92.9213784,271.635072 C92.6099311,271.860439 92.3103224,272.099674 92.0098031,272.338909 C91.3951045,272.829515 90.7594607,273.33659 90.0063411,273.759586 C88.7186613,274.482492 87.2279034,274.845679 85.7353242,274.845679" id="Fill-24" fill="#64EFFF"></path>
                <g id="Group-28" transform="translate(290.000000, 90.277778)">
                    <mask id="mask-4" fill="white">
                        <use xlink:href="#path-3"></use>
                    </mask>
                    <g id="Clip-27"></g>
                    <path d="M50.2172758,74.5777933 L23.4024532,74.5777933 C21.8790823,74.5777933 20.6443887,73.3456484 20.6443887,71.825422 C20.6443887,70.3051956 21.8790823,69.0730508 23.4024532,69.0730508 L50.2172758,69.0730508 C50.5813403,69.0730508 50.8782919,68.7657026 50.8782919,68.3867929 L50.8782919,19.8193668 L36.8608887,6.30797623 L6.82556613,6.30797623 C6.46058226,6.30797623 6.16455,6.61532436 6.16455,6.99331668 L6.16455,24.6286769 C6.16455,26.1489033 4.92985645,27.3810482 3.40648548,27.3810482 C1.88311452,27.3810482 0.648420968,26.1489033 0.648420968,24.6286769 L0.648420968,6.99331668 C0.648420968,3.5803763 3.41935645,0.803233683 6.82556613,0.803233683 L37.9751468,0.803233683 C38.6894855,0.803233683 39.3762435,1.08030572 39.8910823,1.57573255 L55.5522919,16.6715715 C56.0910339,17.1899348 56.394421,17.9046339 56.394421,18.6514439 L56.394421,68.3867929 C56.394421,71.8006507 53.6234855,74.5777933 50.2172758,74.5777933" id="Fill-26" fill="#000076" mask="url(#mask-4)"></path>
                </g>
                <path d="M343.255141,111.342593 L327.744859,111.342593 C326.228782,111.342593 325,110.122131 325,108.61632 L325,94.0071364 C325,92.5013254 326.228782,91.2808642 327.744859,91.2808642 C329.260936,91.2808642 330.489718,92.5013254 330.489718,94.0071364 L330.489718,105.890048 L343.255141,105.890048 C344.771218,105.890048 346,107.110509 346,108.61632 C346,110.122131 344.771218,111.342593 343.255141,111.342593" id="Fill-29" fill="#000076"></path>
                <path d="M306.587319,135.416667 C305.258004,135.416667 303.929603,135.106678 302.742716,134.480144 C302.070755,134.126138 301.805987,133.278585 302.152011,132.588368 C302.498034,131.898151 303.325204,131.627496 303.996252,131.982438 C305.713587,132.888992 307.968673,132.796276 309.606578,131.749244 C310.157111,131.397111 310.672038,130.932596 311.215267,130.441858 C311.543944,130.145917 311.871708,129.849975 312.212253,129.570892 C314.95305,127.329793 318.542929,126.182552 322.068898,126.419492 C324.349548,126.573082 325.068985,127.763403 325.294494,128.459239 C325.670646,129.616781 325.161197,130.64602 324.78961,131.398047 C324.769524,131.437381 324.749438,131.479525 324.726614,131.523542 C324.733917,131.520732 324.740308,131.516986 324.746699,131.514176 C325.530045,131.104916 326.232135,130.466207 326.974396,129.789101 C327.55871,129.258093 328.162197,128.708354 328.852418,128.225108 C330.763307,126.890563 333.682137,126.28557 335.570201,128.114599 C336.120735,128.646544 336.145385,129.53624 335.626807,130.100027 C335.106402,130.665687 334.240887,130.690036 333.691267,130.158091 C332.972744,129.462255 331.449875,129.809705 330.394458,130.547685 C329.849403,130.92885 329.336302,131.396174 328.79216,131.890658 C327.953122,132.654861 327.085781,133.445286 325.989279,134.017502 C324.551319,134.768593 323.0951,134.605638 322.281625,133.599813 C321.256337,132.329888 321.96573,130.896071 322.34736,130.12625 C322.452354,129.913659 322.616693,129.581193 322.668733,129.389206 C322.549131,129.331142 322.299885,129.250601 321.889039,129.222505 C319.033205,129.029581 316.133547,129.958612 313.919545,131.767974 C313.613693,132.018026 313.31971,132.283998 313.025728,132.54997 C312.422241,133.095027 311.797755,133.658813 311.055494,134.134567 C309.721615,134.985866 308.15401,135.416667 306.587319,135.416667" id="Fill-31" fill="#D4D4D4"></path>
                <path d="M49.722333,246.491024 C46.4579396,246.491024 43.8013862,249.116689 43.8013862,252.345145 L43.8013862,264.244361 C43.8013862,267.472817 46.4579396,270.098483 49.722333,270.098483 L56.277667,270.098483 C59.5429758,270.098483 62.1986138,267.472817 62.1986138,264.244361 L62.1986138,252.345145 C62.1986138,249.116689 59.5429758,246.491024 56.277667,246.491024 L49.722333,246.491024 Z M56.277667,274.845679 L49.722333,274.845679 C43.8105404,274.845679 39,270.090337 39,264.244361 L39,252.345145 C39,246.500074 43.8105404,241.743827 49.722333,241.743827 L56.277667,241.743827 C62.190375,241.743827 67,246.500074 67,252.345145 L67,264.244361 C67,270.090337 62.190375,274.845679 56.277667,274.845679 Z" id="Fill-33" fill="#000076"></path>
                <path d="M41,299.269807 C41,297.96858 39.8806255,296.91358 38.5,296.91358 C37.1193745,296.91358 36,297.96858 36,299.269807 L36,309.953704 L41,309.953704" id="Fill-35" fill="#000076"></path>
                <path d="M64.5004766,296.91358 C63.1191611,296.91358 62,297.969406 62,299.269644 L62,309.953704 L67,309.953704 L67,299.269644 C67,297.969406 65.8808389,296.91358 64.5004766,296.91358" id="Fill-37" fill="#000076"></path>
                <path d="M78,301.770171 C78,288.582761 67.513792,277.854938 54.625425,277.854938 L49.374575,277.854938 C36.4852967,277.854938 26,288.582761 26,301.770171 L26,309.208601 C26,309.794128 26.0364516,310.375925 26.0774596,310.95679 L30.8599068,310.95679 C30.807052,310.376857 30.7797133,309.794128 30.7797133,309.208601 L30.7797133,301.770171 C30.7797133,291.279169 39.1216571,282.744275 49.374575,282.744275 L54.625425,282.744275 C64.8792541,282.744275 73.2202867,291.279169 73.2202867,301.770171 L73.2202867,309.208601 C73.2202867,309.794128 73.192948,310.376857 73.1400932,310.95679 L77.9216291,310.95679 C77.9635484,310.375925 78,309.794128 78,309.208601 L78,301.770171 Z" id="Fill-39" fill="#000076"></path>
                <path d="M129.806938,69.0844041 C127.126037,69.0844041 124.943712,71.2326468 124.943712,73.8737324 L124.943712,83.6099143 C124.943712,86.2509999 127.126037,88.4001638 129.806938,88.4001638 L135.193062,88.4001638 C137.874898,88.4001638 140.056288,86.2509999 140.056288,83.6099143 L140.056288,73.8737324 C140.056288,71.2326468 137.874898,69.0844041 135.193062,69.0844041 L129.806938,69.0844041 Z M135.193062,92.2839506 L129.806938,92.2839506 C124.951196,92.2839506 121,88.3927942 121,83.6099143 L121,73.8737324 C121,69.0917737 124.951196,65.2006173 129.806938,65.2006173 L135.193062,65.2006173 C140.048804,65.2006173 144,69.0917737 144,73.8737324 L144,83.6099143 C144,88.3927942 140.048804,92.2839506 135.193062,92.2839506 Z" id="Fill-41" fill="#000076"></path>
                <path d="M121,110.339506 C119.895636,110.339506 119,111.232361 119,112.333297 L119,121.373457 L123,121.373457 L123,112.333297 C123,111.232361 122.104364,110.339506 121,110.339506" id="Fill-43" fill="#000076"></path>
                <path d="M141,110.339506 C139.895636,110.339506 139,111.232361 139,112.333297 L139,121.373457 L143,121.373457 L143,112.333297 C143,111.232361 142.104364,110.339506 141,110.339506" id="Fill-45" fill="#000076"></path>
                <path d="M153,113.132305 C153,102.742605 144.530597,94.2901235 134.121013,94.2901235 L129.879902,94.2901235 C119.469403,94.2901235 111,102.742605 111,113.132305 L111,118.992387 C111,119.453847 111.0293,119.912566 111.063177,120.37037 L114.926141,120.37037 C114.883107,119.913479 114.861132,119.453847 114.861132,118.992387 L114.861132,113.132305 C114.861132,104.867148 121.598199,98.1426276 129.879902,98.1426276 L134.121013,98.1426276 C142.402716,98.1426276 149.139783,104.867148 149.139783,113.132305 L149.139783,118.992387 C149.139783,119.453847 149.117809,119.913479 149.074775,120.37037 L152.937738,120.37037 C152.971616,119.912566 153,119.453847 153,118.992387 L153,113.132305 Z" id="Fill-47" fill="#000076"></path>
                <path d="M283.424265,126.116651 C280.859226,126.116651 278.772226,128.185883 278.772226,130.728161 L278.772226,140.104251 C278.772226,142.64745 280.859226,144.716682 283.424265,144.716682 L288.575735,144.716682 C291.140774,144.716682 293.226844,142.64745 293.226844,140.104251 L293.226844,130.728161 C293.226844,128.185883 291.140774,126.116651 288.575735,126.116651 L283.424265,126.116651 Z M288.575735,148.45679 L283.424265,148.45679 C278.779666,148.45679 275,144.709305 275,140.104251 L275,130.728161 C275,126.123106 278.779666,122.376543 283.424265,122.376543 L288.575735,122.376543 C293.220334,122.376543 297,126.123106 297,130.728161 L297,140.104251 C297,144.709305 293.220334,148.45679 288.575735,148.45679 Z" id="Fill-49" fill="#000076"></path>
                <path d="M275,164.506173 C273.895464,164.506173 273,165.317795 273,166.318915 L273,174.537037 L277,174.537037 L277,166.318915 C277,165.317795 276.104536,164.506173 275,164.506173" id="Fill-51" fill="#000076"></path>
                <path d="M294.999507,164.506173 C293.894698,164.506173 293,165.317795 293,166.318915 L293,174.537037 L297,174.537037 L297,166.318915 C297,165.317795 296.104316,164.506173 294.999507,164.506173" id="Fill-53" fill="#000076"></path>
                <path d="M305,167.577248 C305,157.586937 296.934373,149.459877 287.019579,149.459877 L282.981327,149.459877 C273.066534,149.459877 265,157.586937 265,167.577248 L265,173.211754 C265,173.65656 265.0281,174.096798 265.059826,174.537037 L268.739123,174.537037 C268.698332,174.097712 268.677484,173.65656 268.677484,173.211754 L268.677484,167.577248 C268.677484,159.630119 275.093365,153.164457 282.981327,153.164457 L287.019579,153.164457 C294.906635,153.164457 301.323423,159.630119 301.323423,167.577248 L301.323423,173.211754 C301.323423,173.65656 301.302574,174.097712 301.261784,174.537037 L304.940174,174.537037 C304.972806,174.096798 305,173.65656 305,173.211754 L305,167.577248 Z" id="Fill-55" fill="#000076"></path>
                <path d="M112.457449,246.103192 L112.457449,246.105053 L112.457449,246.103192 Z M106.928573,246.23536 L106.928573,246.23629 L106.928573,246.23536 Z M100.312455,249.768519 C98.4646026,249.768519 96.4818774,249.139326 95.6799793,247.74598 C94.7771558,246.178583 95.6882368,244.631663 96.1763487,243.801426 C97.0672447,242.287082 97.8792353,240.924452 98.6939784,239.55996 C98.962807,239.109473 99.2316355,238.658986 99.5041341,238.201984 C97.5581091,238.922391 96.0066106,240.056985 94.3945569,241.236256 C93.9440626,241.565745 93.4926509,241.895233 93.0311466,242.218206 C91.7870118,243.089396 90.8575807,243.877748 89.9593447,244.64004 C88.3720636,245.986847 86.8719453,247.259194 84.2249476,248.393788 C82.8156622,248.99692 81.5706099,249.234263 80.4182254,249.122572 C79.9943388,249.080688 79.6135748,248.843345 79.386034,248.478487 C79.0291251,247.90514 78.9144371,247.22941 79.0639902,246.576948 C79.2328109,245.84351 79.7145002,245.197564 80.422813,244.756384 C81.069653,244.353366 81.9183437,244.557202 82.3156228,245.215248 C82.4761859,245.480514 82.5394936,245.779288 82.5138035,246.067823 C82.7193243,245.998947 82.9312676,245.91704 83.154221,245.822103 C85.4213722,244.84946 86.645322,243.811665 88.1940679,242.498365 C89.0959739,241.73235 90.1189904,240.864883 91.4686381,239.920164 C91.9136273,239.60836 92.3494415,239.289109 92.7852556,238.97079 C95.3267404,237.111135 97.9553881,235.188188 102.197924,234.730255 C102.708974,234.673478 103.220941,234.92106 103.502614,235.365963 C103.783371,235.811796 103.792546,236.379559 103.525552,236.8347 C102.650254,238.322982 101.848356,239.665136 101.048293,241.005428 C100.238137,242.365266 99.4270638,243.723243 98.5398378,245.232002 C98.1058587,245.969163 98.0361284,246.238152 98.0544785,246.33402 C98.2306391,246.639309 99.5674418,247.16891 101.110683,246.913882 C102.319035,246.7147 103.431049,246.180445 104.715554,245.181741 C105.124761,244.865283 105.67251,244.804784 106.137685,245.027235 C106.477161,245.189187 106.732227,245.481445 106.85242,245.829549 C107.090053,245.932863 107.581835,246.032454 108.033247,245.957994 C108.857165,245.821172 109.51318,245.378131 110.283883,244.81223 C110.727037,244.488326 111.315157,244.460403 111.786754,244.739631 C112.065675,244.906237 112.273031,245.163126 112.380379,245.459107 C112.583147,245.592205 112.929963,245.773703 113.156587,245.89191 C114.069503,246.368458 115.013614,246.860829 114.999851,247.959124 C114.991594,248.578079 114.622757,249.124434 114.01537,249.421346 C113.330912,249.755488 112.508829,249.465091 112.17761,248.769815 C112.131735,248.671154 112.09687,248.569702 112.073933,248.467318 C112.01246,248.434742 111.950987,248.403096 111.897772,248.375173 C111.560131,248.19926 111.196799,248.009385 110.864663,247.786003 C110.216905,248.184368 109.431522,248.55574 108.475484,248.713969 C107.541465,248.868475 106.256043,248.746546 105.322024,248.16296 C104.348553,248.791222 103.086985,249.417623 101.551084,249.669858 C101.156558,249.735011 100.738176,249.768519 100.312455,249.768519 Z" id="Fill-57" fill="#64EFFF"></path>
                <mask id="mask-6" fill="white">
                    <use xlink:href="#path-5"></use>
                </mask>
                <g id="Clip-60"></g>
                <path d="M26,164.11333 L27.813681,164.11333 L27.813681,162.5 L26,162.5 L26,164.11333 Z M26,171.489477 L27.813681,171.489477 L27.813681,168.723768 L26,168.723768 L26,171.489477 Z M26,178.864702 L27.813681,178.864702 L27.813681,176.098992 L26,176.098992 L26,178.864702 Z M26,186.240848 L27.813681,186.240848 L27.813681,183.475139 L26,183.475139 L26,186.240848 Z M26,193.616073 L27.813681,193.616073 L27.813681,190.850363 L26,190.850363 L26,193.616073 Z M26.0117889,201.020798 C26.0036274,200.743305 26,200.465812 26,200.187398 L26,198.22651 L27.813681,198.22651 L27.813681,200.187398 C27.813681,200.447374 27.8173084,200.706429 27.82547,200.964562 L26.0117889,201.020798 Z M27.2278621,208.51587 C26.9521825,207.60503 26.7209382,206.672986 26.5395701,205.745551 L28.3178844,205.386009 C28.4874635,206.251676 28.7041984,207.122875 28.9617411,207.973791 L27.2278621,208.51587 Z M30.3600892,215.410783 C29.8595132,214.611493 29.3924904,213.775327 28.9735301,212.927176 L30.5922404,212.098385 C30.9858092,212.891222 31.4229063,213.673918 31.8899292,214.421581 L30.3600892,215.410783 Z M35.1645303,221.22707 C34.4789588,220.590035 33.8133379,219.907826 33.1867111,219.199805 L34.5360898,217.96722 C35.1228156,218.630991 35.7458151,219.268948 36.3878581,219.865419 L35.1645303,221.22707 Z M41.2983995,225.566468 C40.4650131,225.131329 39.6479498,224.649174 38.8671601,224.13383 L39.8556163,222.587799 C40.5838092,223.069032 41.3491826,223.519843 42.1272518,223.927324 L41.2983995,225.566468 Z M48.3445504,228.106311 C47.4295483,227.912711 46.5145462,227.668407 45.6249357,227.381695 L46.1735742,225.624547 C47.0051469,225.891899 47.8602975,226.120531 48.7145413,226.301224 L48.3445504,228.106311 Z M55.744369,228.703704 L54.0512978,228.703704 C53.6949094,228.703704 53.3412416,228.69725 52.9884807,228.683422 L53.0574006,226.841459 C53.3865837,226.853444 53.7184873,226.859898 54.0512978,226.859898 L55.744369,226.859898 L55.744369,228.703704 Z M60.2794784,228.703704 L63,228.703704 L63,226.859898 L60.2794784,226.859898 L60.2794784,228.703704 Z" id="Fill-59" fill="#808080" mask="url(#mask-6)"></path>
                <path d="M71.222286,58.0076011 L73.9756955,58.0076011 L73.9756955,56.1728395 L71.222286,56.1728395 L71.222286,58.0076011 Z M78.5622671,58.0076011 L81.31476,58.0076011 L81.31476,56.1728395 L78.5622671,56.1728395 L78.5622671,58.0076011 Z M85.9013316,58.0076011 L88.6529079,58.0076011 L88.6529079,56.1728395 L85.9013316,56.1728395 L85.9013316,58.0076011 Z M93.2394795,58.0076011 L95.9910558,58.0076011 L95.9910558,56.1728395 L93.2394795,56.1728395 L93.2394795,58.0076011 Z M100.576711,58.0076011 L103.329204,58.0076011 L103.329204,56.1728395 L100.576711,56.1728395 L100.576711,58.0076011 Z M107.914859,58.0076011 L110.666435,58.0076011 L110.666435,56.1728395 L107.914859,56.1728395 L107.914859,58.0076011 Z M115.251173,58.0076011 L118,58.0076011 L118,56.1728395 L115.251173,56.1728395 L115.251173,58.0076011 Z M63.9712133,58.178234 L63.8007292,56.3517288 C64.731059,56.265495 65.6742209,56.2095347 66.6063838,56.1866002 L66.6522129,58.0204445 C65.7612961,58.0424616 64.8584638,58.0956697 63.9712133,58.178234 Z M56.9373703,59.486419 L56.4396668,57.7204609 C57.3397494,57.4663465 58.2581636,57.2406708 59.1701618,57.0498556 L59.54596,58.8460872 C58.6742914,59.0277286 57.7962068,59.2433131 56.9373703,59.486419 Z M50.2554945,62.0449941 L49.4479865,60.3973781 C50.2857416,59.9863915 51.1482444,59.5992568 52.0107472,59.2460652 L52.7055156,60.9441371 C51.8796761,61.2817333 51.0565863,61.6514377 50.2554945,62.0449941 Z M44.1400657,65.7613038 L43.0511674,64.2843206 C43.8064302,63.7283879 44.5855241,63.1926375 45.3701174,62.6926649 L46.3545255,64.239369 C45.6056788,64.7173244 44.8604984,65.2292229 44.1400657,65.7613038 Z M38.7762334,70.5078321 L37.4444411,69.2464335 C38.0842147,68.5694064 38.7579017,67.9052227 39.4444209,67.2694778 L40.6882214,68.6161928 C40.0310328,69.2244163 39.3875929,69.8610786 38.7762334,70.5078321 Z M34.3353982,76.1295417 L32.8028746,75.1231749 C33.3115771,74.3443186 33.8560263,73.5709666 34.4197236,72.8233013 L35.882587,73.9287451 C35.3436373,74.6433848 34.8239359,75.3837111 34.3353982,76.1295417 Z M30.9669628,82.4521303 L29.2786205,81.7365732 C29.6397534,80.8797395 30.0384662,80.0210711 30.4600935,79.1835024 L32.0961906,80.0100625 C31.6938116,80.810936 31.3134304,81.6319918 30.9669628,82.4521303 Z M28.7900828,89.2746914 L27,88.8783828 C27.1998147,87.9701758 27.4362926,87.0537124 27.7011845,86.1537618 L29.459187,86.672082 C29.2071272,87.5316678 28.9816482,88.4068491 28.7900828,89.2746914 Z" id="Fill-61" fill="#808080" mask="url(#mask-6)"></path>
                <path d="M329.176069,171.285676 L331,171.285676 L331,168.518519 L329.176069,168.518519 L329.176069,171.285676 Z M329.176069,178.659552 L331,178.659552 L331,175.895153 L329.176069,175.895153 L329.176069,178.659552 Z M329.176069,186.031589 L331,186.031589 L331,183.268109 L329.176069,183.268109 L329.176069,186.031589 Z M329.176069,193.400868 L331,193.400868 L331,190.638308 L329.176069,190.638308 L329.176069,193.400868 Z M329.176069,200.769229 L331,200.769229 L331,198.006668 L329.176069,198.006668 L329.176069,200.769229 Z M329.176069,208.139427 L331,208.139427 L331,205.375028 L329.176069,205.375028 L329.176069,208.139427 Z M329.176069,215.507787 L331,215.507787 L331,212.745227 L329.176069,212.745227 L329.176069,215.507787 Z M329.176069,222.876147 L331,222.876147 L331,220.113587 L329.176069,220.113587 L329.176069,222.876147 Z M329.176069,230.246346 L331,230.246346 L331,227.482866 L329.176069,227.482866 L329.176069,230.246346 Z M329.176069,237.617464 L331,237.617464 L331,234.853065 L329.176069,234.853065 L329.176069,237.617464 Z M329.176069,244.99226 L331,244.99226 L331,242.226022 L329.176069,242.226022 L329.176069,244.99226 Z M329.176069,252.37441 L331,252.37441 L331,249.603575 L329.176069,249.603575 L329.176069,252.37441 Z M330.656189,259.844814 L328.846849,259.614065 C328.959933,258.717726 329.043834,257.814953 329.09764,256.928727 L330.917923,257.041804 C330.862293,257.966641 330.773833,258.909865 330.656189,259.844814 Z M329.076664,267.177321 L327.333898,266.633083 C327.59928,265.773517 327.836391,264.899243 328.043407,264.032323 L329.81718,264.461646 C329.601045,265.367177 329.352078,266.280983 329.076664,267.177321 Z M326.260514,274.12647 L324.637215,273.28713 C325.045776,272.485482 325.431537,271.664528 325.783556,270.846332 L327.456101,271.578112 C327.088579,272.433081 326.686402,273.289888 326.260514,274.12647 Z M322.302583,280.483577 L320.847086,279.375795 C321.379674,278.663321 321.899494,277.921429 322.38922,277.170343 L323.914027,278.179758 C323.401502,278.964858 322.859794,279.739846 322.302583,280.483577 Z M317.335106,286.066615 L316.086625,284.727164 C316.730473,284.116735 317.366113,283.474129 317.97713,282.816815 L319.307688,284.073527 C318.671136,284.75934 318.007225,285.429526 317.335106,286.066615 Z M311.500349,290.72022 L310.496275,289.185872 C311.232231,288.694955 311.967276,288.170942 312.678609,287.627623 L313.779352,289.093021 C313.037012,289.660242 312.27096,290.208158 311.500349,290.72022 Z M304.967939,294.302815 L304.237455,292.617699 C305.050928,292.259163 305.863489,291.869371 306.650516,291.459354 L307.4877,293.093907 C306.665107,293.521392 305.817891,293.927732 304.967939,294.302815 Z M297.913884,296.698566 L297.484349,294.912325 C298.34798,294.700881 299.215259,294.45818 300.061564,294.191577 L300.606919,295.945642 C299.722312,296.225116 298.815818,296.478848 297.913884,296.698566 Z M290.556145,297.826573 L290.438502,295.991608 C291.326756,295.93461 292.223218,295.847274 293.101441,295.73144 L293.336729,297.555373 C292.418379,297.674885 291.482702,297.766817 290.556145,297.826573 Z M254,297.916667 L256.736809,297.916667 L256.736809,296.078024 L254,296.078024 L254,297.916667 Z M261.298462,297.916667 L264.035271,297.916667 L264.035271,296.078024 L261.298462,296.078024 L261.298462,297.916667 Z M268.596923,297.916667 L271.334644,297.916667 L271.334644,296.078024 L268.596923,296.078024 L268.596923,297.916667 Z M275.897208,297.916667 L278.634929,297.916667 L278.634929,296.078024 L275.897208,296.078024 L275.897208,297.916667 Z M283.197494,297.916667 L285.936127,297.916667 L285.936127,296.078024 L283.197494,296.078024 L283.197494,297.916667 Z" id="Fill-62" fill="#808080" mask="url(#mask-6)"></path>
                <path d="M163.113881,297.064147 C162.404714,296.940063 161.699179,296.802589 161,296.651724 L161.388635,294.907407 C162.065113,295.052916 162.747039,295.185927 163.433506,295.30644 L163.113881,297.064147 Z M170.448905,297.862213 C169.529984,297.822934 168.601074,297.759553 167.686694,297.674748 L167.857402,295.897401 C168.74091,295.979529 169.639855,296.040231 170.528811,296.078617 L170.448905,297.862213 Z M175.018085,297.916667 L177.739435,297.916667 L177.739435,296.131286 L175.018085,296.131286 L175.018085,297.916667 Z M182.277742,297.916667 L185,297.916667 L185,296.131286 L182.277742,296.131286 L182.277742,297.916667 Z" id="Fill-63" fill="#808080" mask="url(#mask-6)"></path>
                <path d="M271.159015,182.332073 L273,182.332073 L273,179.552469 L271.159015,179.552469 L271.159015,182.332073 Z M271.159015,189.743733 L273,189.743733 L273,186.964129 L271.159015,186.964129 L271.159015,189.743733 Z M271.159015,197.156319 L273,197.156319 L273,194.376715 L271.159015,194.376715 L271.159015,197.156319 Z M271.159015,204.569831 L273,204.569831 L273,201.790227 L271.159015,201.790227 L271.159015,204.569831 Z M271.159015,211.985196 L273,211.985196 L273,209.203739 L271.159015,209.203739 L271.159015,211.985196 Z M272.011391,219.558019 L270.238523,219.059709 C270.47601,218.204803 270.670234,217.324888 270.816592,216.444047 L272.632724,216.748776 C272.475319,217.694452 272.266368,218.639203 272.011391,219.558019 Z M268.951674,226.558434 L267.387757,225.581266 C267.853527,224.826392 268.285238,224.036321 268.670924,223.232357 L270.328731,224.0391 C269.914509,224.901416 269.451502,225.748913 268.951674,226.558434 Z M264.091474,232.429781 L262.854332,231.05804 C263.508802,230.459698 264.14026,229.819676 264.731216,229.155572 L266.10275,230.390231 C265.470372,231.102499 264.792889,231.788832 264.091474,232.429781 Z M257.811874,236.728395 L257,235.066746 C257.792544,234.674026 258.574042,234.234069 259.323323,233.757989 L260.304568,235.325163 C259.500978,235.835513 258.662409,236.306962 257.811874,236.728395 Z" id="Fill-64" fill="#808080" mask="url(#mask-6)"></path>
                <path d="M169,131.15816 L170.820768,131.15816 L170.820768,128.395062 L169,128.395062 L169,131.15816 Z M169,138.539001 L170.820768,138.539001 L170.820768,135.771301 L169,135.771301 L169,138.539001 Z M169,145.903275 L170.820768,145.903275 L170.820768,143.143858 L169,143.143858 L169,145.903275 Z M169,153.27215 L170.820768,153.27215 L170.820768,150.509052 L169,150.509052 L169,153.27215 Z M169,160.641946 L170.820768,160.641946 L170.820768,157.878848 L169,157.878848 L169,160.641946 Z M169,168.011743 L170.820768,168.011743 L170.820768,165.248644 L169,165.248644 L169,168.011743 Z M169,175.381539 L170.820768,175.381539 L170.820768,172.61844 L169,172.61844 L169,175.381539 Z M169,182.752255 L170.820768,182.752255 L170.820768,179.988236 L169,179.988236 L169,182.752255 Z M169,190.122972 L170.820768,190.122972 L170.820768,187.358953 L169,187.358953 L169,190.122972 Z M169,197.495529 L170.820768,197.495529 L170.820768,194.73059 L169,194.73059 L169,197.495529 Z M169,204.869927 L170.820768,204.869927 L170.820768,202.104068 L169,202.104068 L169,204.869927 Z M169,212.25445 L170.820768,212.25445 L170.820768,209.481227 L169,209.481227 L169,212.25445 Z M170.036017,219.778877 C169.775647,218.865821 169.562617,217.929754 169.399659,216.994609 L171.194026,216.677064 C171.344239,217.547781 171.543613,218.420338 171.785775,219.269885 L170.036017,219.778877 Z M173.113115,226.706871 C172.611494,225.904266 172.147198,225.065764 171.732973,224.215297 L173.365292,223.401646 C173.752205,224.194127 174.184637,224.975563 174.652575,225.724784 L173.113115,226.706871 Z M177.965462,232.503671 C177.263556,231.870423 176.588962,231.193915 175.958976,230.491635 L177.307255,229.254592 C177.894452,229.90901 178.524438,230.540417 179.178094,231.130406 L177.965462,232.503671 Z M184.208876,236.728395 C183.366771,236.317888 182.532859,235.854917 181.731721,235.353289 L182.690356,233.788576 C183.437781,234.256149 184.215249,234.687826 185,235.07072 L184.208876,236.728395 Z" id="Fill-65" fill="#808080" mask="url(#mask-6)"></path>
                <path d="M245.99935,237.045242 C246.10078,251.725616 234.319332,263.709333 219.684128,263.811076 C205.048924,263.91282 193.10208,252.095009 193.00065,237.414635 C192.89922,222.73426 204.680668,210.750544 219.315872,210.6488 C233.950162,210.547057 245.89792,222.364868 245.99935,237.045242" id="Fill-66" fill="#000076" mask="url(#mask-6)"></path>
                <path d="M212.991239,243.888329 L217.471831,237.860959 L213.631451,232.557281 C213.270604,232.043543 212.998402,231.600408 212.816636,231.230665 C212.634869,230.860922 212.543538,230.505114 212.540852,230.162312 C212.538165,229.812078 212.709187,229.496217 213.051231,229.214729 C213.393275,228.932312 213.813218,228.790175 214.310166,228.786459 C214.877851,228.781814 215.322866,228.931383 215.642525,229.233309 C215.960392,229.536164 216.403616,230.097282 216.969511,230.919449 L220.030891,235.352651 L223.239116,230.873928 C223.50326,230.496753 223.728006,230.174389 223.91425,229.905907 C224.101389,229.637425 224.281364,229.415394 224.455072,229.237954 C224.627885,229.062373 224.822187,228.929525 225.037979,228.840341 C225.252876,228.751157 225.503588,228.705636 225.788326,228.703778 C226.302287,228.700062 226.724021,228.836625 227.051739,229.113468 C227.379456,229.390311 227.545105,229.721036 227.548687,230.104714 C227.552268,230.663974 227.203062,231.425756 226.502857,232.390061 L222.555925,237.824727 L226.881612,243.787997 C227.270217,244.311025 227.554059,244.74487 227.730453,245.08953 C227.907743,245.435119 227.998179,245.762128 227.999969,246.070557 C228.00176,246.362264 227.924756,246.629816 227.770747,246.873215 C227.614947,247.116614 227.396468,247.309846 227.112626,247.452913 C226.828783,247.596908 226.50823,247.6703 226.149173,247.673087 C225.76415,247.675874 225.437329,247.605269 225.170499,247.461274 C224.902774,247.317278 224.685191,247.137052 224.517751,246.921523 C224.352101,246.705995 224.040501,246.287014 223.586532,245.664582 L219.996865,240.608949 L216.255875,245.867105 C215.964869,246.287014 215.758032,246.57965 215.635361,246.7478 C215.512691,246.915949 215.364055,247.079454 215.191242,247.239242 C215.017534,247.399031 214.811591,247.525375 214.57431,247.618275 C214.334342,247.712105 214.054081,247.760413 213.733527,247.762271 C213.237475,247.765987 212.824694,247.631281 212.496977,247.358155 C212.16926,247.085957 212.002715,246.686486 212.000029,246.16067 C211.996447,245.542883 212.326851,244.785746 212.991239,243.888329" id="Fill-67" fill="#FF6F00" mask="url(#mask-6)"></path>
                <path d="M245.99935,298.233514 C246.10078,312.913888 234.319332,324.897605 219.684128,324.999348 C205.048924,325.101091 193.10208,313.28328 193.00065,298.602906 C192.89922,283.922532 204.680668,271.938815 219.315872,271.837072 C233.950162,271.735328 245.89792,283.55314 245.99935,298.233514" id="Fill-68" fill="#000076" mask="url(#mask-6)"></path>
                <path d="M212.991239,305.076601 L217.471831,299.04923 L213.631451,293.745553 C213.270604,293.231814 212.998402,292.78868 212.816636,292.418937 C212.634869,292.049194 212.543538,291.693386 212.540852,291.350584 C212.538165,291.00035 212.709187,290.684489 213.051231,290.403001 C213.393275,290.120584 213.813218,289.978446 214.310166,289.97473 C214.877851,289.970085 215.322866,290.119655 215.642525,290.421581 C215.960392,290.724436 216.403616,291.285553 216.969511,292.107721 L220.030891,296.540922 L223.239116,292.0622 C223.50326,291.685025 223.728006,291.362661 223.91425,291.094179 C224.101389,290.825697 224.281364,290.603665 224.455072,290.426226 C224.627885,290.250644 224.822187,290.117797 225.037979,290.028613 C225.252876,289.939428 225.503588,289.893907 225.788326,289.892049 C226.302287,289.888333 226.724021,290.024897 227.051739,290.301739 C227.379456,290.578582 227.545105,290.909307 227.548687,291.292985 C227.552268,291.852245 227.203062,292.614027 226.502857,293.578332 L222.555925,299.012999 L226.881612,304.976268 C227.270217,305.499297 227.554059,305.933141 227.730453,306.277801 C227.907743,306.62339 227.998179,306.950399 227.999969,307.258828 C228.00176,307.550535 227.924756,307.818088 227.770747,308.061487 C227.614947,308.304885 227.396468,308.498118 227.112626,308.641185 C226.828783,308.78518 226.50823,308.858571 226.149173,308.861358 C225.76415,308.864145 225.437329,308.793541 225.170499,308.649546 C224.902774,308.50555 224.685191,308.325324 224.517751,308.109795 C224.352101,307.894266 224.040501,307.475286 223.586532,306.852854 L219.996865,301.797221 L216.255875,307.055377 C215.964869,307.475286 215.758032,307.767922 215.635361,307.936071 C215.512691,308.104221 215.364055,308.267725 215.191242,308.427514 C215.017534,308.587302 214.811591,308.713647 214.57431,308.806547 C214.334342,308.900376 214.054081,308.948684 213.733527,308.950542 C213.237475,308.954258 212.824694,308.819553 212.496977,308.546426 C212.16926,308.274228 212.002715,307.874757 212.000029,307.348942 C211.996447,306.731155 212.326851,305.974017 212.991239,305.076601" id="Fill-69" fill="#FF6F00" mask="url(#mask-6)"></path>
                <path d="M53,125.887346 C53,140.567827 41.1353103,152.469136 26.5,152.469136 C11.8637759,152.469136 0,140.567827 0,125.887346 C0,111.206865 11.8637759,99.3055556 26.5,99.3055556 C41.1353103,99.3055556 53,111.206865 53,125.887346" id="Fill-70" fill="#000076" mask="url(#mask-6)"></path>
                <path d="M39.8039655,131.404321 C39.66157,131.404321 39.5164005,131.387977 39.3730804,131.354382 C38.3790858,131.121029 37.7660455,130.142219 38.0036795,129.166134 C38.2015538,128.352578 38.3014156,127.51269 38.3014156,126.66917 C38.3014156,120.77452 33.4174348,115.977626 27.4137076,115.977626 C25.4312663,115.977626 23.4913588,116.506074 21.8038797,117.503952 C20.9282398,118.021504 19.7918497,117.744568 19.2657261,116.885613 C18.7386778,116.026657 19.0197702,114.910742 19.8954101,114.393189 C22.1589438,113.053909 24.7590486,112.345679 27.4137076,112.345679 C35.4562795,112.345679 42,118.771501 42,126.66917 C42,127.795982 41.8650017,128.920069 41.6005529,130.009653 C41.39898,130.843185 40.6398456,131.404321 39.8039655,131.404321" id="Fill-71" fill="#005EFF" mask="url(#mask-6)"></path>
                <path d="M27.237806,141.435185 C19.3868844,141.435185 13,134.823647 13,126.697723 C13,125.751349 13.0857482,124.807778 13.2572445,123.8913 C13.4458905,122.877661 14.394536,122.213424 15.372065,122.411481 C16.3504968,122.606735 16.9904489,123.586741 16.8018029,124.600379 C16.6745346,125.283301 16.6104491,125.988644 16.6104491,126.697723 C16.6104491,132.763672 21.3780471,137.698269 27.237806,137.698269 C29.7208923,137.698269 32.1362828,136.793936 34.0380868,135.151561 C34.803502,134.491061 35.9425987,134.597563 36.5816482,135.38979 C37.2197951,136.18295 37.1159947,137.361013 36.3514821,138.021513 C33.8006998,140.222556 30.5639322,141.435185 27.237806,141.435185" id="Fill-72" fill="#005EFF" mask="url(#mask-6)"></path>
                <path d="M35.6600008,142.438272 C34.9106282,142.438272 34.2791236,141.904907 34.2273766,141.208107 C34.1085502,139.568473 34.6068543,137.96135 35.1530723,136.739973 C33.4655463,136.596746 31.7425641,136.180248 31.0430219,135.996602 C30.2802333,135.79626 29.8384676,135.067827 30.0550382,134.367512 C30.2735254,133.668075 31.064104,133.261242 31.8326422,133.461583 C33.7559043,133.964194 36.3135458,134.331486 37.0581271,134.075787 C37.638843,133.875446 38.3010125,134.042397 38.6881564,134.491407 C39.0762586,134.939539 39.105007,135.565165 38.7581107,136.041415 C38.7418199,136.065139 36.9201352,138.623003 37.0964582,141.032369 C37.1491634,141.759045 36.5502403,142.386429 35.7577451,142.435636 C35.7242054,142.437393 35.6925823,142.438272 35.6600008,142.438272" id="Fill-73" fill="#005EFF" mask="url(#mask-6)"></path>
                <path d="M22.6984411,120.37037 C22.5189801,120.37037 22.3377851,120.330573 22.1643928,120.247275 C20.5136982,119.452246 18.2717359,118.709046 17.5746988,118.871013 C17.0207105,118.997811 16.4571855,118.730333 16.175423,118.20926 C15.8919266,117.688187 15.9569488,117.031062 16.3349439,116.584031 C16.3531501,116.561819 18.3506293,114.152667 18.5404939,111.616717 C18.5977134,110.853156 19.2227926,110.282104 19.9397697,110.344115 C20.6567468,110.4052 21.1907951,111.073432 21.1327087,111.837919 C21.0043984,113.563105 20.3273015,115.167972 19.662342,116.363755 C21.1517818,116.750627 22.6351529,117.427188 23.2350902,117.716879 C23.8887792,118.032484 24.1800782,118.854354 23.8844444,119.553128 C23.666837,120.066797 23.1934761,120.37037 22.6984411,120.37037" id="Fill-74" fill="#005EFF" mask="url(#mask-6)"></path>
                <path d="M38.0697421,102.314815 L11,148.040775 C12.2168122,148.957179 13.5165682,149.765498 14.8810385,150.462963 L42,104.65109 C40.7640469,103.764248 39.4515304,102.979023 38.0697421,102.314815" id="Fill-75" fill="#FFFFFF" mask="url(#mask-6)"></path>
            </g>
        </g>
    </g>
</svg>