<?xml version="1.0" encoding="utf-8"?>
<!-- Generator: Adobe Illustrator 22.1.0, SVG Export Plug-In . SVG Version: 6.00 Build 0)  -->
<svg version="1.1" id="Layer_1" xmlns="http://www.w3.org/2000/svg" xmlns:xlink="http://www.w3.org/1999/xlink" x="0px" y="0px"
	 viewBox="0 0 166 166" style="enable-background:new 0 0 166 166;" xml:space="preserve">
<style type="text/css">
	.st0{fill:none;stroke:#64EFFF;stroke-width:2;stroke-linecap:round;stroke-linejoin:round;}
	.st1{fill:none;stroke:#005EFF;stroke-width:5;stroke-linecap:round;stroke-linejoin:round;}
	.st2{fill:none;stroke:#005EFF;stroke-width:4;}
	.st3{fill:none;stroke:#64EFFF;stroke-width:6;stroke-linecap:round;stroke-linejoin:round;}
	.st4{fill:none;stroke:#005EFF;stroke-width:5;stroke-linecap:round;}
	.st5{fill:#FFFFFF;}
	.st6{fill:none;stroke:#005EFF;stroke-width:5;}
	.st7{fill:#005EFF;}
	.st8{fill:none;stroke:#000076;stroke-width:4;}
	.st9{fill:#000076;}
	.st10{fill:none;stroke:#64EFFF;stroke-width:3;}
	.st11{fill:#64EFFF;}
	.st12{opacity:0.3;}
	.st13{filter:url(#Adobe_OpacityMaskFilter);}
	.st14{mask:url(#mask-2_1_);fill:#000076;}
</style>
<title>Group 56</title>
<desc>Created with Sketch.</desc>
<g id="Desktop">
	<g id="_x39_-Join" transform="translate(-507.000000, -568.000000)">
		<g id="Group-56" transform="translate(509.000000, 570.000000)">
			<path id="Stroke-1" class="st0" d="M141.8,49.7c0,0,7,30.1-21.3,33"/>
			<path id="Stroke-3" class="st0" d="M120.7,85.1c0,0,28.2,8,16.8,34"/>
			<path id="Stroke-5" class="st1" d="M100.4,133c-6.9,4.3-14.9,6.7-23.6,6.8c-25,0.2-45.4-20-45.6-45c-0.1-25,20-45.4,45-45.6
				c5.8,0,11.3,1,16.3,2.9"/>
			<path id="Stroke-7" class="st2" d="M99.3,94.3c0.2,25-9.9,45.4-22.5,45.5c-12.6,0.1-22.9-20.2-23.1-45.2
				c-0.2-25,9.9-45.4,22.5-45.5C88.8,49.1,99.2,69.3,99.3,94.3z"/>
			<path id="Stroke-9" class="st2" d="M76.7,117.3c-25,0.2-45.4-9.9-45.5-22.5c-0.1-12.6,20.2-22.9,45.2-23.1
				c25-0.2,45.4,9.9,45.5,22.5C121.9,106.8,101.7,117.1,76.7,117.3z"/>
			<path id="Stroke-11" class="st3" d="M100.7,56.2c12.6,8,21,22,21.1,38c0.1,13.4-5.7,25.5-14.9,33.9"/>
			<path id="Stroke-13" class="st4" d="M76,50.3c0,0,0.1,24.1,0.2,40.2"/>
			<path id="Stroke-15" class="st4" d="M76.3,102.6c0.1,16.7,0.2,36.1,0.2,36.1"/>
			<path id="Fill-17" class="st5" d="M51.2,84.2c0,14-11.4,25.4-25.4,25.4S0.5,98.2,0.5,84.2s11.4-25.4,25.4-25.4
				S51.2,70.2,51.2,84.2"/>
			<path id="Stroke-19" class="st6" d="M51.2,84.2c0,14-11.4,25.4-25.4,25.4S0.5,98.2,0.5,84.2s11.4-25.4,25.4-25.4
				S51.2,70.2,51.2,84.2z"/>
			<path id="Fill-21" class="st7" d="M24.5,72.6c-1.3,0-2.3,1-2.3,2.3v4.7c0,1.3,1,2.3,2.3,2.3h2.6c1.3,0,2.3-1,2.3-2.3v-4.7
				c0-1.3-1-2.3-2.3-2.3H24.5z M27.1,83.9h-2.6c-2.3,0-4.2-1.9-4.2-4.2v-4.7c0-2.3,1.9-4.2,4.2-4.2h2.6c2.3,0,4.2,1.9,4.2,4.2v4.7
				C31.3,82,29.4,83.9,27.1,83.9z"/>
			<path id="Fill-23" class="st7" d="M20.2,92.5c-0.5,0-0.9,0.4-0.9,0.9v4.3h1.9v-4.3C21.1,92.9,20.7,92.5,20.2,92.5"/>
			<path id="Fill-25" class="st7" d="M30.3,92.5c-0.5,0-0.9,0.4-0.9,0.9v4.3h1.9v-4.3C31.2,92.9,30.8,92.5,30.3,92.5"/>
			<path id="Fill-27" class="st7" d="M35.8,94.2c0-5.1-4.1-9.2-9.2-9.2h-2.1c-5.1,0-9.2,4.1-9.2,9.2v2.9c0,0.2,0,0.5,0,0.7h1.9
				c0-0.2,0-0.4,0-0.7v-2.9c0-4.1,3.3-7.4,7.4-7.4h2.1c4.1,0,7.4,3.3,7.4,7.4v2.9c0,0.2,0,0.5,0,0.7h1.9c0-0.2,0-0.4,0-0.7V94.2z"/>
			<path id="Fill-29" class="st5" d="M136.3,59.7c-14,0-25.4-11.4-25.4-25.4S122.3,9,136.3,9s25.4,11.4,25.4,25.4
				S150.3,59.7,136.3,59.7z"/>
			<path id="Stroke-31" class="st8" d="M161.7,34.4c0,14-11.4,25.4-25.4,25.4S111,48.4,111,34.4S122.3,9,136.3,9
				S161.7,20.4,161.7,34.4z"/>
			<path id="Fill-33" class="st9" d="M135,22.8c-1.3,0-2.3,1-2.3,2.3v4.7c0,1.3,1,2.3,2.3,2.3h2.6c1.3,0,2.3-1,2.3-2.3v-4.7
				c0-1.3-1-2.3-2.3-2.3H135z M137.5,34.1H135c-2.3,0-4.2-1.9-4.2-4.2v-4.7c0-2.3,1.9-4.2,4.2-4.2h2.6c2.3,0,4.2,1.9,4.2,4.2v4.7
				C141.8,32.2,139.9,34.1,137.5,34.1z"/>
			<path id="Fill-35" class="st9" d="M130.6,42.7c-0.5,0-0.9,0.4-0.9,0.9v4.3h1.9v-4.3C131.6,43.1,131.2,42.7,130.6,42.7"/>
			<path id="Fill-37" class="st9" d="M140.8,42.7c-0.5,0-0.9,0.4-0.9,0.9v4.3h1.9v-4.3C141.7,43.1,141.3,42.7,140.8,42.7"/>
			<path id="Fill-39" class="st9" d="M146.3,44.4c0-5.1-4.1-9.2-9.2-9.2H135c-5.1,0-9.2,4.1-9.2,9.2v2.9c0,0.2,0,0.5,0,0.7h1.9
				c0-0.2,0-0.4,0-0.7v-2.9c0-4.1,3.3-7.4,7.4-7.4h2.1c4.1,0,7.4,3.3,7.4,7.4v2.9c0,0.2,0,0.5,0,0.7h1.9c0-0.2,0-0.4,0-0.7V44.4z"/>
			<path id="Fill-41" class="st5" d="M154.7,124.9c0,9-7.3,16.2-16.2,16.2c-9,0-16.2-7.3-16.2-16.2s7.3-16.2,16.2-16.2
				C147.5,108.7,154.7,115.9,154.7,124.9"/>
			<path id="Stroke-43" class="st10" d="M154.7,124.9c0,9-7.3,16.2-16.2,16.2c-9,0-16.2-7.3-16.2-16.2s7.3-16.2,16.2-16.2
				C147.5,108.7,154.7,115.9,154.7,124.9z"/>
			<path id="Fill-45" class="st11" d="M137.6,117.5c-0.8,0-1.5,0.7-1.5,1.5v3c0,0.8,0.7,1.5,1.5,1.5h1.6c0.8,0,1.5-0.7,1.5-1.5v-3
				c0-0.8-0.7-1.5-1.5-1.5H137.6z M139.3,124.7h-1.6c-1.5,0-2.7-1.2-2.7-2.7v-3c0-1.5,1.2-2.7,2.7-2.7h1.6c1.5,0,2.7,1.2,2.7,2.7v3
				C142,123.5,140.8,124.7,139.3,124.7z"/>
			<path id="Fill-47" class="st11" d="M134.9,130.2c-0.3,0-0.6,0.3-0.6,0.6v2.7h1.2v-2.7C135.5,130.5,135.2,130.2,134.9,130.2"/>
			<path id="Fill-49" class="st11" d="M141.3,130.2c-0.3,0-0.6,0.3-0.6,0.6v2.7h1.2v-2.7C141.9,130.5,141.7,130.2,141.3,130.2"/>
			<path id="Fill-51" class="st11" d="M144.9,131.3c0-3.3-2.6-5.9-5.9-5.9h-1.3c-3.3,0-5.9,2.7-5.9,5.9v1.8c0,0.1,0,0.3,0,0.4h1.2
				c0-0.1,0-0.3,0-0.4v-1.8c0-2.6,2.1-4.7,4.7-4.7h1.3c2.6,0,4.7,2.1,4.7,4.7v1.8c0,0.1,0,0.3,0,0.4h1.2c0-0.1,0-0.3,0-0.4V131.3z"
				/>
			<g id="Group-55" transform="translate(55.000000, 139.010000)" class="st12">
				<g id="Clip-54">
				</g>
				<defs>
					<filter id="Adobe_OpacityMaskFilter" filterUnits="userSpaceOnUse" x="0.2" y="9.6" width="48.4" height="6.4">
						<feColorMatrix  type="matrix" values="1 0 0 0 0  0 1 0 0 0  0 0 1 0 0  0 0 0 1 0"/>
					</filter>
				</defs>
				<mask maskUnits="userSpaceOnUse" x="0.2" y="9.6" width="48.4" height="6.4" id="mask-2_1_">
					<g class="st13">
						<polygon id="path-1_1_" class="st5" points="0.2,9.6 48.6,9.6 48.6,16 0.2,16 						"/>
					</g>
				</mask>
				<path id="Fill-53" class="st14" d="M48.6,12.8c0,1.8-10.8,3.2-24.2,3.2c-13.4,0-24.2-1.4-24.2-3.2s10.8-3.2,24.2-3.2
					C37.8,9.6,48.6,11,48.6,12.8"/>
			</g>
		</g>
	</g>
</g>
</svg>
