<?xml version="1.0" encoding="utf-8"?>
<svg version="1.1" id="Layer_1" xmlns="http://www.w3.org/2000/svg" xmlns:xlink="http://www.w3.org/1999/xlink" x="0px" y="0px"
	 viewBox="0 0 141.7 183" style="enable-background:new 0 0 141.7 183;" xml:space="preserve">
<style type="text/css">
	.st0{fill:none;stroke:#ff6f00;stroke-width:4;stroke-linecap:round;stroke-linejoin:round;}
	.st1{fill:none;stroke:#ffffff;stroke-width:4;stroke-linecap:round;stroke-linejoin:round;}
	.st2{filter:url(#Adobe_OpacityMaskFilter);}
	.st3{fill:#ffffff;}
	.st4{mask:url(#mask-2_1_);fill:none;stroke:#64f0ff;stroke-width:2;stroke-linecap:round;stroke-linejoin:round;}
	.st5{filter:url(#Adobe_OpacityMaskFilter_1_);}
	.st6{mask:url(#mask-2_2_);fill:none;stroke:#ffffff;stroke-width:2;stroke-linecap:round;stroke-linejoin:round;}
	.st7{filter:url(#Adobe_OpacityMaskFilter_2_);}
	.st8{mask:url(#mask-2_3_);fill:none;stroke:#ffffff;stroke-width:2;stroke-linecap:round;stroke-linejoin:round;}
	.st9{filter:url(#Adobe_OpacityMaskFilter_3_);}
	.st10{mask:url(#mask-2_4_);fill:none;stroke:#64f0ff;stroke-width:2;stroke-linecap:round;stroke-linejoin:round;}
	.st11{filter:url(#Adobe_OpacityMaskFilter_4_);}
	.st12{mask:url(#mask-2_5_);fill:#161656;}
	.st13{filter:url(#Adobe_OpacityMaskFilter_5_);}
	.st14{mask:url(#mask-2_6_);fill:#161656;}
	.st15{filter:url(#Adobe_OpacityMaskFilter_6_);}
	.st16{mask:url(#mask-2_7_);fill:none;stroke:#ff6f00;stroke-width:4;stroke-linecap:round;stroke-linejoin:round;}
	.st17{filter:url(#Adobe_OpacityMaskFilter_7_);}
	.st18{mask:url(#mask-2_8_);fill:none;stroke:#ff6f00;stroke-width:4;stroke-linecap:round;stroke-linejoin:round;}
	.st19{filter:url(#Adobe_OpacityMaskFilter_8_);}
	.st20{opacity:0.3;mask:url(#mask-2_9_);fill:#161656;enable-background:new    ;}
</style>
<title>No third party icon</title>
<g id="Desktop">
	<g id="APPII" transform="translate(-405.000000, -3058.000000)">
		<g id="Group-15" transform="translate(405.000000, 3059.000000)">
			<path id="Stroke-1" class="st0" d="M47.1,32.8h-8.8c-4.9,0-9,4-9,9v54.5"/>
			<path id="Stroke-3" class="st1" d="M29.3,107.3v13.8c0,4.9,4,9,9,9h37c4.9,0,9-4,9-9V41.8c0-4.9-4-9-9-9H55.8"/>
			<g id="Clip-6">
			</g>
			<defs>
				<filter id="Adobe_OpacityMaskFilter" filterUnits="userSpaceOnUse" x="60.5" y="48.3" width="14" height="14.2">
					<feColorMatrix  type="matrix" values="1 0 0 0 0  0 1 0 0 0  0 0 1 0 0  0 0 0 1 0"/>
				</filter>
			</defs>
			<mask maskUnits="userSpaceOnUse" x="60.5" y="48.3" width="14" height="14.2" id="mask-2_1_">
				<g class="st2">
					<polygon id="path-1_1_" class="st3" points="16.9,151 124.4,151 124.4,31 16.9,31 					"/>
				</g>
			</mask>
			<polygon id="Stroke-5" class="st4" points="61.5,61.4 73.4,61.4 73.4,49.3 61.5,49.3 			"/>
			<defs>
				<filter id="Adobe_OpacityMaskFilter_1_" filterUnits="userSpaceOnUse" x="39.2" y="48.3" width="14" height="14.2">
					<feColorMatrix  type="matrix" values="1 0 0 0 0  0 1 0 0 0  0 0 1 0 0  0 0 0 1 0"/>
				</filter>
			</defs>
			<mask maskUnits="userSpaceOnUse" x="39.2" y="48.3" width="14" height="14.2" id="mask-2_2_">
				<g class="st5">
					<polygon id="path-1_2_" class="st3" points="16.9,151 124.4,151 124.4,31 16.9,31 					"/>
				</g>
			</mask>
			<polygon id="Stroke-7" class="st6" points="40.2,61.4 52.2,61.4 52.2,49.3 40.2,49.3 			"/>
			<defs>
				<filter id="Adobe_OpacityMaskFilter_2_" filterUnits="userSpaceOnUse" x="60.5" y="68.2" width="14" height="14.2">
					<feColorMatrix  type="matrix" values="1 0 0 0 0  0 1 0 0 0  0 0 1 0 0  0 0 0 1 0"/>
				</filter>
			</defs>
			<mask maskUnits="userSpaceOnUse" x="60.5" y="68.2" width="14" height="14.2" id="mask-2_3_">
				<g class="st7">
					<polygon id="path-1_3_" class="st3" points="16.9,151 124.4,151 124.4,31 16.9,31 					"/>
				</g>
			</mask>
			<polygon id="Stroke-8" class="st8" points="61.5,81.4 73.4,81.4 73.4,69.2 61.5,69.2 			"/>
			<defs>
				<filter id="Adobe_OpacityMaskFilter_3_" filterUnits="userSpaceOnUse" x="39.2" y="68.2" width="14" height="14.2">
					<feColorMatrix  type="matrix" values="1 0 0 0 0  0 1 0 0 0  0 0 1 0 0  0 0 0 1 0"/>
				</filter>
			</defs>
			<mask maskUnits="userSpaceOnUse" x="39.2" y="68.2" width="14" height="14.2" id="mask-2_4_">
				<g class="st9">
					<polygon id="path-1_4_" class="st3" points="16.9,151 124.4,151 124.4,31 16.9,31 					"/>
				</g>
			</mask>
			<polygon id="Stroke-9" class="st10" points="40.2,81.4 52.2,81.4 52.2,69.2 40.2,69.2 			"/>
			<defs>
				<filter id="Adobe_OpacityMaskFilter_4_" filterUnits="userSpaceOnUse" x="49.4" y="99.9" width="14.6" height="23.9">
					<feColorMatrix  type="matrix" values="1 0 0 0 0  0 1 0 0 0  0 0 1 0 0  0 0 0 1 0"/>
				</filter>
			</defs>
			<mask maskUnits="userSpaceOnUse" x="49.4" y="99.9" width="14.6" height="23.9" id="mask-2_5_">
				<g class="st11">
					<polygon id="path-1_5_" class="st3" points="16.9,151 124.4,151 124.4,31 16.9,31 					"/>
				</g>
			</mask>
			<polygon id="Fill-10" class="st12" points="49.4,123.8 64,123.8 64,99.9 49.4,99.9 			"/>
			<defs>
				<filter id="Adobe_OpacityMaskFilter_5_" filterUnits="userSpaceOnUse" x="73.4" y="67.2" width="51.1" height="51.1">
					<feColorMatrix  type="matrix" values="1 0 0 0 0  0 1 0 0 0  0 0 1 0 0  0 0 0 1 0"/>
				</filter>
			</defs>
			<mask maskUnits="userSpaceOnUse" x="73.4" y="67.2" width="51.1" height="51.1" id="mask-2_6_">
				<g class="st13">
					<polygon id="path-1_6_" class="st3" points="16.9,151 124.4,151 124.4,31 16.9,31 					"/>
				</g>
			</mask>
			<path id="Fill-11" class="st14" d="M124.4,92.7c0,14.1-11.4,25.5-25.5,25.5s-25.5-11.4-25.5-25.5s11.4-25.5,25.5-25.5
				S124.4,78.6,124.4,92.7"/>
			<defs>
				<filter id="Adobe_OpacityMaskFilter_6_" filterUnits="userSpaceOnUse" x="88.6" y="82.8" width="21.8" height="20.3">
					<feColorMatrix  type="matrix" values="1 0 0 0 0  0 1 0 0 0  0 0 1 0 0  0 0 0 1 0"/>
				</filter>
			</defs>
			<mask maskUnits="userSpaceOnUse" x="88.6" y="82.8" width="21.8" height="20.3" id="mask-2_7_">
				<g class="st15">
					<polygon id="path-1_7_" class="st3" points="16.9,151 124.4,151 124.4,31 16.9,31 					"/>
				</g>
			</mask>
			<path id="Stroke-12" class="st16" d="M90.6,84.8l17.8,16.3"/>
			<defs>
				<filter id="Adobe_OpacityMaskFilter_7_" filterUnits="userSpaceOnUse" x="87.9" y="83.2" width="21.8" height="20.3">
					<feColorMatrix  type="matrix" values="1 0 0 0 0  0 1 0 0 0  0 0 1 0 0  0 0 0 1 0"/>
				</filter>
			</defs>
			<mask maskUnits="userSpaceOnUse" x="87.9" y="83.2" width="21.8" height="20.3" id="mask-2_8_">
				<g class="st17">
					<polygon id="path-1_8_" class="st3" points="16.9,151 124.4,151 124.4,31 16.9,31 					"/>
				</g>
			</mask>
			<path id="Stroke-13" class="st18" d="M107.7,85.2l-17.8,16.3"/>
			<defs>
				<filter id="Adobe_OpacityMaskFilter_8_" filterUnits="userSpaceOnUse" x="16.9" y="140.7" width="80.9" height="10.3">
					<feColorMatrix  type="matrix" values="1 0 0 0 0  0 1 0 0 0  0 0 1 0 0  0 0 0 1 0"/>
				</filter>
			</defs>
			<mask maskUnits="userSpaceOnUse" x="16.9" y="140.7" width="80.9" height="10.3" id="mask-2_9_">
				<g class="st19">
					<polygon id="path-1_9_" class="st3" points="16.9,151 124.4,151 124.4,31 16.9,31 					"/>
				</g>
			</mask>
			<path id="Fill-14" class="st20" d="M97.7,145.9c0,2.8-18.1,5.1-40.4,5.1s-40.4-2.3-40.4-5.1c0-2.8,18.1-5.1,40.4-5.1
				S97.7,143,97.7,145.9"/>
		</g>
	</g>
</g>
</svg>
