<?xml version="1.0" encoding="utf-8"?>
<!-- Generator: Adobe Illustrator 22.1.0, SVG Export Plug-In . SVG Version: 6.00 Build 0)  -->
<svg version="1.1" id="Layer_1" xmlns="http://www.w3.org/2000/svg" xmlns:xlink="http://www.w3.org/1999/xlink" x="0px" y="0px"
	 viewBox="0 0 152 152" style="enable-background:new 0 0 152 152;" xml:space="preserve">
<style type="text/css">
	.st0{fill:#007BFF;}
	.st1{fill:none;stroke:#000076;stroke-width:6;}
	.st2{fill:none;stroke:#64EFFF;stroke-width:6;}
	.st3{fill:none;stroke:#000076;stroke-width:6;stroke-linecap:round;stroke-linejoin:round;}
	.st4{fill:none;stroke:#64EFFF;stroke-width:6;stroke-linecap:round;stroke-linejoin:round;}
	.st5{fill:#000076;}
	.st6{filter:url(#Adobe_OpacityMaskFilter);}
	.st7{fill:#FFFFFF;}
	.st8{mask:url(#mask-2_1_);fill:#000076;}
	.st9{filter:url(#Adobe_OpacityMaskFilter_1_);}
	.st10{mask:url(#mask-4_1_);fill:#000076;}
	.st11{fill:#64EFFF;}
	.st12{fill:none;stroke:#64EFFF;}
	.st13{opacity:0.1876;fill:#000076;enable-background:new    ;}
</style>
<title>Group 5</title>
<desc>Created with Sketch.</desc>
<g id="Desktop">
	<g id="_x36_-About" transform="translate(-334.000000, -4115.000000)">
		<g id="Group-5" transform="translate(334.000000, 4115.000000)">
			<g id="Group-35">
				<path id="Fill-1" class="st0" d="M74,137.5v-30V137.5z"/>
				<path id="Stroke-2" class="st1" d="M74,137.5v-30"/>
				<path id="Fill-4" class="st0" d="M74,50.5v-33V50.5z"/>
				<path id="Stroke-5" class="st1" d="M74,50.5v-33"/>
				<path id="Fill-6" class="st0" d="M106,77.5h28H106z"/>
				<path id="Stroke-7" class="st2" d="M106,77.5h28"/>
				<path id="Fill-8" class="st0" d="M14,77.5h29H14z"/>
				<path id="Stroke-9" class="st1" d="M14,77.5h29"/>
				<g id="Group-34">
					<path id="Stroke-10" class="st3" d="M53.4,58.8c4-4.3,9.3-7.4,15.5-8.6c8-1.6,15.9,0.3,22.1,4.6"/>
					<g id="Group-15" transform="translate(96.992701, 57.473684)">
						<path id="Fill-12" class="st0" d="M0.4,3.3C3.1,6.8,5,10.9,5.9,15.5c0.9,4.3,0.7,8.6-0.3,12.6"/>
						<path id="Stroke-14" class="st4" d="M0.4,3.3C3.1,6.8,5,10.9,5.9,15.5c0.9,4.3,0.7,8.6-0.3,12.6"/>
					</g>
					<path id="Stroke-16" class="st3" d="M97.1,96.7c-4.1,5.2-10,8.9-17,10.3c-9.2,1.8-18.3-1-24.8-6.8"/>
					<g id="Group-21" transform="translate(45.189781, 64.105263)">
						<path id="Fill-18" class="st0" d="M4.6,29.5c-1.7-2.8-3-6-3.6-9.4C-0.1,14.2,0.6,8.4,2.7,3.3"/>
						<path id="Stroke-20" class="st3" d="M4.6,29.5c-1.7-2.8-3-6-3.6-9.4C-0.1,14.2,0.6,8.4,2.7,3.3"/>
					</g>
					<path id="Fill-22" class="st5" d="M66.4,21.7c-3.6-0.1-5-2.6-3-5.7l6.9-10.7c2-3.1,5.2-3.1,7.2,0l7.4,11.2c2,3,0.7,5.5-3,5.4
						L66.4,21.7z"/>
					<g id="Group-26" transform="translate(61.722628, 127.105263)">
						<g id="Clip-25">
						</g>
						<defs>
							<filter id="Adobe_OpacityMaskFilter" filterUnits="userSpaceOnUse" x="0.7" y="3.4" width="23.4" height="19">
								<feColorMatrix  type="matrix" values="1 0 0 0 0  0 1 0 0 0  0 0 1 0 0  0 0 0 1 0"/>
							</filter>
						</defs>
						<mask maskUnits="userSpaceOnUse" x="0.7" y="3.4" width="23.4" height="19" id="mask-2_1_">
							<g class="st6">
								<polygon id="path-1_1_" class="st7" points="0.7,3.4 24.1,3.4 24.1,22.4 0.7,22.4 								"/>
							</g>
						</mask>
						<path id="Fill-24" class="st8" d="M20.2,3.7c3.6,0.1,5,2.6,3,5.7l-6.9,10.7c-2,3.1-5.2,3.1-7.2,0L1.6,8.9c-2-3-0.7-5.5,3-5.4
							L20.2,3.7z"/>
					</g>
					<g id="Group-29" transform="translate(0.000000, 61.894737)">
						<g id="Clip-28">
						</g>
						<defs>
							<filter id="Adobe_OpacityMaskFilter_1_" filterUnits="userSpaceOnUse" x="0" y="3.3" width="18.9" height="23.5">
								<feColorMatrix  type="matrix" values="1 0 0 0 0  0 1 0 0 0  0 0 1 0 0  0 0 0 1 0"/>
							</filter>
						</defs>
						<mask maskUnits="userSpaceOnUse" x="0" y="3.3" width="18.9" height="23.5" id="mask-4_1_">
							<g class="st9">
								<polygon id="path-3_1_" class="st7" points="0,3.3 18.9,3.3 18.9,26.8 0,26.8 								"/>
							</g>
						</mask>
						<path id="Fill-27" class="st10" d="M18.7,22.9c-0.1,3.6-2.6,5-5.6,3l-10.7-7c-3.1-2-3.1-5.2,0-7.3l11.2-7.4c3-2,5.5-0.7,5.4,3
							L18.7,22.9z"/>
					</g>
					<path id="Fill-30" class="st11" d="M132,69.2c0.1-3.6,2.6-5,5.6-3l10.7,7c3.1,2,3.1,5.2,0,7.3l-11.2,7.4c-3,2-5.5,0.7-5.4-3
						L132,69.2z"/>
					<path id="Stroke-32" class="st12" d="M132,69.2c0.1-3.6,2.6-5,5.6-3l10.7,7c3.1,2,3.1,5.2,0,7.3l-11.2,7.4c-3,2-5.5,0.7-5.4-3
						L132,69.2z"/>
				</g>
			</g>
			<ellipse id="Oval-2" class="st13" cx="65" cy="83" rx="30" ry="30.5"/>
		</g>
	</g>
</g>
</svg>
