<?xml version="1.0" encoding="UTF-8"?>
<svg width="221px" height="175px" viewBox="0 0 221 175" version="1.1" xmlns="http://www.w3.org/2000/svg" xmlns:xlink="http://www.w3.org/1999/xlink">
    <!-- Generator: Sketch 51.2 (57519) - http://www.bohemiancoding.com/sketch -->
    <title>POC  icon</title>
    <desc>Created with Sketch.</desc>
    <defs></defs>
    <g id="Desktop" stroke="none" stroke-width="1" fill="none" fill-rule="evenodd">
        <g id="2-Services" transform="translate(-932.000000, -1574.000000)">
            <g id="POC--icon" transform="translate(935.000000, 1576.000000)">
                <path d="M215,73.9266 L215,135.1396" id="Stroke-1" stroke="#005EFF" stroke-width="6" stroke-linecap="round" stroke-linejoin="round"></path>
                <path d="M215,146.8457 L215,162.4427 C215,166.5627 211.66,169.9017 207.54,169.9017 L161.185,169.9017" id="Stroke-3" stroke="#64EFFF" stroke-width="6" stroke-linecap="round" stroke-linejoin="round"></path>
                <path d="M148.4973,169.9019 L112.8813,169.9019 C108.7613,169.9019 105.4223,166.5619 105.4223,162.4429 L105.4223,138.0809" id="Stroke-5" stroke="#000076" stroke-width="6" stroke-linecap="round" stroke-linejoin="round"></path>
                <path d="M199.5078,58.4346 L185.9048,58.4346" id="Stroke-7" stroke="#005EFF" stroke-width="6" stroke-linecap="round"></path>
                <path d="M198.7522,76.5716 L185.9052,76.5716" id="Stroke-9" stroke="#005EFF" stroke-width="6" stroke-linecap="round"></path>
                <path d="M198.7522,93.1973 L185.9052,93.1973" id="Stroke-11" stroke="#FF6F00" stroke-width="6" stroke-linecap="round"></path>
                <path d="M198.7522,111.3343 L185.9052,111.3343" id="Stroke-13" stroke="#005EFF" stroke-width="6" stroke-linecap="round"></path>
                <path d="M144.2939,21.7825 L207.5399,21.7825 C211.6599,21.7825 214.9999,25.1225 214.9999,29.2425 L214.9999,54.2785" id="Stroke-15" stroke="#000076" stroke-width="6" stroke-linecap="round" stroke-linejoin="round"></path>
                <g id="Group-20" transform="translate(77.000000, 0.902000)">
                    <path d="M44.4609,0.0985 L102.9569,0.0985 C107.0769,0.0985 110.4169,3.4385 110.4169,7.5575 L110.4169,140.7585 C110.4169,144.8785 107.0769,148.2175 102.9569,148.2175 L8.2979,148.2175 C4.1779,148.2175 0.8379,144.8785 0.8379,140.7585 L0.8379,132.7255" id="Fill-17" fill="#FFFFFF"></path>
                    <path d="M44.4609,0.0985 L102.9569,0.0985 C107.0769,0.0985 110.4169,3.4385 110.4169,7.5575 L110.4169,140.7585 C110.4169,144.8785 107.0769,148.2175 102.9569,148.2175 L8.2979,148.2175 C4.1779,148.2175 0.8379,144.8785 0.8379,140.7585 L0.8379,132.7255" id="Stroke-19" stroke="#005EFF" stroke-width="6" stroke-linecap="round" stroke-linejoin="round"></path>
                </g>
                <g id="Group-24" transform="translate(77.000000, 35.902000)">
                    <path d="M0.8384,67.4975 L0.8384,0.2645" id="Fill-21" fill="#FFFFFF"></path>
                    <path d="M0.8384,67.4975 L0.8384,0.2645" id="Stroke-23" stroke="#005EFF" stroke-width="9" stroke-linecap="round" stroke-linejoin="round"></path>
                </g>
                <path d="M77.8384,23.3533 L77.8384,8.4603 C77.8384,4.3403 81.1784,1.0003 85.2984,1.0003 L108.2714,1.0003" id="Stroke-25" stroke="#64EFFF" stroke-width="6" stroke-linecap="round" stroke-linejoin="round"></path>
                <path d="M98.2424,71.2815 L132.9984,71.2815" id="Stroke-27" stroke="#005EFF" stroke-width="6" stroke-linecap="round"></path>
                <path d="M98.2424,54.656 L169.2794,54.656" id="Stroke-29" stroke="#FF6F00" stroke-width="6" stroke-linecap="round"></path>
                <path d="M98.2424,91.6858 L169.2794,91.6858" id="Stroke-31" stroke="#005EFF" stroke-width="6" stroke-linecap="round"></path>
                <path d="M98.2424,35.0074 L169.2794,35.0074" id="Stroke-33" stroke="#000076" stroke-width="6" stroke-linecap="round"></path>
                <path d="M148.5657,72.0374 L168.5377,72.0374" id="Stroke-35" stroke="#000076" stroke-width="6" stroke-linecap="round"></path>
                <path d="M17.3813,86.3958 L57.4343,86.3958" id="Stroke-37" stroke="#000076" stroke-width="6" stroke-linecap="round"></path>
                <path d="M0,104.533 L42.32,104.533" id="Stroke-39" stroke="#64EFFF" stroke-width="6" stroke-linecap="round"></path>
                <g id="Group-44" transform="translate(25.000000, 120.902000)">
                    <path d="M0.6941,0.2565 L53.5941,0.2565" id="Fill-41" fill="#FFFFFF"></path>
                    <path d="M0.6941,0.2565 L53.5941,0.2565" id="Stroke-43" stroke="#005EFF" stroke-width="10" stroke-linecap="round" stroke-linejoin="round"></path>
                </g>
            </g>
        </g>
    </g>
</svg>