<?xml version="1.0" encoding="utf-8"?>
<!-- Generator: Adobe Illustrator 22.1.0, SVG Export Plug-In . SVG Version: 6.00 Build 0)  -->
<svg version="1.1" id="Layer_1" xmlns="http://www.w3.org/2000/svg" xmlns:xlink="http://www.w3.org/1999/xlink" x="0px" y="0px"
	 viewBox="0 0 166 166" style="enable-background:new 0 0 166 166;" xml:space="preserve">
<style type="text/css">
	.st0{fill:none;stroke:#FF6F00;stroke-width:3;}
	.st1{fill:none;stroke:#FFFFFF;}
	.st2{fill:none;stroke:#005EFF;stroke-width:3;}
	.st3{opacity:0.3;fill:#000076;enable-background:new    ;}
	.st4{filter:url(#Adobe_OpacityMaskFilter);}
	.st5{fill:#FFFFFF;}
	.st6{mask:url(#mask-2_1_);fill:#FFFFFF;}
	.st7{fill:#005EFF;}
	.st8{fill:none;stroke:#64EFFF;stroke-width:3;}
	.st9{filter:url(#Adobe_OpacityMaskFilter_1_);}
	.st10{mask:url(#mask-4_1_);fill:#FFFFFF;}
	.st11{filter:url(#Adobe_OpacityMaskFilter_2_);}
	.st12{mask:url(#mask-6_1_);fill:#64F0FF;}
	.st13{filter:url(#Adobe_OpacityMaskFilter_3_);}
	.st14{mask:url(#mask-8_1_);fill:#FFFFFF;}
	.st15{filter:url(#Adobe_OpacityMaskFilter_4_);}
	.st16{mask:url(#mask-10_1_);fill:#FF6F00;}
</style>
<title>Group 44</title>
<desc>Created with Sketch.</desc>
<g id="Desktop">
	<g id="_x39_-Join" transform="translate(-265.000000, -560.000000)">
		<g id="Group-44" transform="translate(259.000000, 558.000000)">
			<path id="Stroke-1" class="st0" d="M92.9,83.4C80.8,90.4,71.2,96,71.2,96s-7,5.6-16.6,1.1c-4.9-2.3-21.8-12-38-21.5"/>
			<path id="Stroke-3" class="st1" d="M89.6,87.5c-0.3,0.2-0.6,0.3-0.9,0.5"/>
			<path id="Stroke-5" class="st2" d="M94.7,92.8C78.5,102.1,63,111,63,111s-10.2,4.7-10.2,13c0,4.6,0.1,13.4,0.2,31.9"/>
			<path id="Fill-7" class="st3" d="M132.3,111.5c1.6-0.9,1.6-3.1,0-4L108.5,94c-2.2-1.2-4.8-1.2-7,0l-23.8,13.5
				c-1.6,0.9-1.6,3.1,0,4l23.8,13.5c2.2,1.2,4.8,1.2,7,0L132.3,111.5z"/>
			<g id="Group-15" transform="translate(35.000000, 122.926000)">
				<g id="Group-11">
					<g id="Clip-10">
					</g>
					<defs>
						<filter id="Adobe_OpacityMaskFilter" filterUnits="userSpaceOnUse" x="7.2" y="12.1" width="21.7" height="23.6">
							<feColorMatrix  type="matrix" values="1 0 0 0 0  0 1 0 0 0  0 0 1 0 0  0 0 0 1 0"/>
						</filter>
					</defs>
					<mask maskUnits="userSpaceOnUse" x="7.2" y="12.1" width="21.7" height="23.6" id="mask-2_1_">
						<g class="st4">
							<polyline id="path-1_1_" class="st5" points="3.6,41.5 3.7,10.4 32.5,6.4 32.4,37.5 							"/>
						</g>
					</mask>
					<path id="Fill-9" class="st6" d="M18.1,12.2c-6,0.8-10.8,6.8-10.9,13.2c0,6.4,4.8,11,10.8,10.2s10.8-6.8,10.9-13.2
						C28.9,16,24.1,11.4,18.1,12.2"/>
				</g>
				<g id="Group-14" transform="translate(0.000000, 2.000000)">
					<path id="Fill-12" class="st7" d="M18.1,6.4C10.2,7.5,3.7,15.4,3.7,24c0,8.6,6.4,14.6,14.4,13.5c7.9-1.1,14.4-9,14.4-17.6
						C32.5,11.3,26,5.3,18.1,6.4 M18,33.6c-6,0.8-10.8-3.7-10.8-10.2c0-6.4,4.9-12.4,10.9-13.2S28.9,14,28.9,20.4
						C28.9,26.9,24,32.8,18,33.6"/>
				</g>
			</g>
			<path id="Stroke-16" class="st8" d="M112.2,88.7c16.3-9.4,31.7-18.3,31.7-18.3s10.2-4.7,10.2-13c0-4.6-0.1-23.9-0.2-42.4"/>
			<g id="Group-24" transform="translate(136.000000, 0.926000)">
				<g id="Group-20">
					<g id="Clip-19">
					</g>
					<defs>
						<filter id="Adobe_OpacityMaskFilter_1_" filterUnits="userSpaceOnUse" x="7.1" y="11.3" width="21.7" height="23.6">
							<feColorMatrix  type="matrix" values="1 0 0 0 0  0 1 0 0 0  0 0 1 0 0  0 0 0 1 0"/>
						</filter>
					</defs>
					<mask maskUnits="userSpaceOnUse" x="7.1" y="11.3" width="21.7" height="23.6" id="mask-4_1_">
						<g class="st9">
							<polyline id="path-3_1_" class="st5" points="3.5,40.7 3.6,9.6 32.4,5.6 32.3,36.7 							"/>
						</g>
					</mask>
					<path id="Fill-18" class="st10" d="M17.9,11.4c-6,0.8-10.9,6.8-10.9,13.2s4.8,11,10.8,10.2c6-0.8,10.8-6.8,10.9-13.2
						C28.8,15.2,23.9,10.6,17.9,11.4"/>
				</g>
				<g id="Group-23">
					<g id="Clip-22">
					</g>
					<defs>
						<filter id="Adobe_OpacityMaskFilter_2_" filterUnits="userSpaceOnUse" x="3.5" y="7.5" width="28.8" height="31.4">
							<feColorMatrix  type="matrix" values="1 0 0 0 0  0 1 0 0 0  0 0 1 0 0  0 0 0 1 0"/>
						</filter>
					</defs>
					<mask maskUnits="userSpaceOnUse" x="3.5" y="7.5" width="28.8" height="31.4" id="mask-6_1_">
						<g class="st11">
							<polyline id="path-5_1_" class="st5" points="3.5,40.7 3.6,9.6 32.4,5.6 32.3,36.7 							"/>
						</g>
					</mask>
					<path id="Fill-21" class="st12" d="M18,7.6C10,8.7,3.5,16.6,3.5,25.2c0,8.6,6.4,14.6,14.4,13.5c7.9-1.1,14.4-9,14.4-17.6
						C32.3,12.5,25.9,6.5,18,7.6 M17.9,34.8c-6,0.8-10.8-3.7-10.8-10.2c0-6.5,4.9-12.4,10.9-13.2c6-0.8,10.8,3.7,10.8,10.2
						C28.8,28.1,23.9,34,17.9,34.8"/>
				</g>
			</g>
			<g id="Group-31" transform="translate(0.000000, 60.926000)">
				<g id="Group-27">
					<g id="Clip-26">
					</g>
					<defs>
						<filter id="Adobe_OpacityMaskFilter_3_" filterUnits="userSpaceOnUse" x="13.7" y="12.5" width="24.4" height="14.1">
							<feColorMatrix  type="matrix" values="1 0 0 0 0  0 1 0 0 0  0 0 1 0 0  0 0 0 1 0"/>
						</filter>
					</defs>
					<mask maskUnits="userSpaceOnUse" x="13.7" y="12.5" width="24.4" height="14.1" id="mask-8_1_">
						<g class="st13">
							<polyline id="path-7_1_" class="st5" points="3,19.5 25.8,6.3 48.8,19.5 26,32.8 							"/>
						</g>
					</mask>
					<path id="Fill-25" class="st14" d="M34.5,14.6c-4.8-2.8-12.5-2.8-17.2,0c-4.7,2.8-4.7,7.2,0.1,10s12.5,2.8,17.2,0
						C39.3,21.8,39.2,17.3,34.5,14.6"/>
				</g>
				<g id="Group-30">
					<g id="Clip-29">
					</g>
					<defs>
						<filter id="Adobe_OpacityMaskFilter_4_" filterUnits="userSpaceOnUse" x="9.7" y="10.2" width="32.3" height="18.7">
							<feColorMatrix  type="matrix" values="1 0 0 0 0  0 1 0 0 0  0 0 1 0 0  0 0 0 1 0"/>
						</filter>
					</defs>
					<mask maskUnits="userSpaceOnUse" x="9.7" y="10.2" width="32.3" height="18.7" id="mask-10_1_">
						<g class="st15">
							<polyline id="path-9_1_" class="st5" points="3,19.5 25.8,6.3 48.8,19.5 26,32.8 							"/>
						</g>
					</mask>
					<path id="Fill-28" class="st16" d="M37.3,12.9c-6.3-3.7-16.6-3.7-22.9,0c-6.3,3.7-6.3,9.6,0.1,13.3s16.6,3.7,22.9,0
						C43.7,22.5,43.6,16.6,37.3,12.9 M17.3,24.5c-4.8-2.8-4.8-7.2-0.1-10c4.7-2.8,12.5-2.8,17.2,0c4.8,2.8,4.8,7.2,0.1,10
						C29.8,27.3,22.1,27.3,17.3,24.5"/>
				</g>
			</g>
			<path id="Fill-32" class="st5" d="M101,108.8c-0.1,0-0.3,0-0.4-0.1L77.2,95.4c-1.7-0.9-2.7-2.7-2.7-4.6l0-26.6
				c0-0.5,0.4-0.8,0.8-0.8c0.1,0,0.3,0,0.4,0.1l23.4,13.3c1.7,0.9,2.7,2.7,2.7,4.6l0,26.6C101.8,108.5,101.4,108.8,101,108.8"/>
			<path id="Fill-34" class="st7" d="M75.3,62c-1.2,0-2.3,0.9-2.3,2.3l0,26.6c0,2.4,1.3,4.7,3.4,5.9L99.9,110
				c0.4,0.2,0.8,0.3,1.1,0.3c1.2,0,2.3-0.9,2.3-2.3l0-26.6c0-2.4-1.3-4.7-3.4-5.9L76.5,62.3C76.1,62.1,75.7,62,75.3,62 M76,65.5
				l22.4,12.7c1.2,0.7,1.9,1.9,1.9,3.3l0,25.3L78,94.1c-1.2-0.7-1.9-1.9-1.9-3.3L76,65.5 M76,64.3L76,64.3L76,64.3"/>
			<path id="Fill-36" class="st5" d="M105.7,71c-1,0-1.9-0.2-2.7-0.7L79.6,57c-0.3-0.2-0.4-0.5-0.4-0.7s0.1-0.5,0.4-0.6L103,42.4
				c0.8-0.5,1.8-0.7,2.7-0.7c1,0,1.9,0.2,2.7,0.7l23.4,13.3c0.3,0.2,0.4,0.5,0.4,0.6c0,0.2,0,0.5-0.4,0.7l-23.4,13.3
				C107.6,70.8,106.6,71,105.7,71"/>
			<path id="Fill-38" class="st7" d="M105.7,40.2c-1.2,0-2.4,0.3-3.4,0.9L78.9,54.4c-1.5,0.9-1.5,3,0,3.9l23.4,13.3
				c1.1,0.6,2.3,0.9,3.4,0.9c1.2,0,2.4-0.3,3.4-0.9l23.4-13.3c1.5-0.9,1.5-3,0-3.9l-23.4-13.3C108.1,40.5,106.9,40.2,105.7,40.2
				 M105.7,43.2c0.7,0,1.4,0.2,2,0.5l22.2,12.7L107.7,69c-0.6,0.3-1.3,0.5-2,0.5c-0.7,0-1.4-0.2-2-0.5L81.5,56.3l22.3-12.6
				C104.3,43.4,105,43.2,105.7,43.2"/>
			<path id="Fill-40" class="st5" d="M110.3,108.8c-0.2,0-0.4-0.1-0.6-0.2c-0.2-0.1-0.2-0.3-0.2-0.5l0-26.6c0-1.9,1-3.6,2.7-4.6
				l23.4-13.3c0.1-0.1,0.3-0.1,0.4-0.1c0.2,0,0.4,0.1,0.6,0.2c0.2,0.1,0.2,0.3,0.2,0.5l0,26.6c0,1.9-1,3.6-2.7,4.6l-23.4,13.3
				C110.6,108.8,110.4,108.8,110.3,108.8"/>
			<path id="Fill-42" class="st7" d="M136,62c-0.4,0-0.8,0.1-1.1,0.3l-23.4,13.3c-2.1,1.2-3.4,3.5-3.5,5.9l0,26.6
				c0,1.3,1.1,2.3,2.3,2.3c0.4,0,0.8-0.1,1.1-0.3l23.4-13.3c2.1-1.2,3.4-3.5,3.4-5.9l0-26.6C138.3,63,137.2,62,136,62 M135.3,65.5
				l0,25.3c0,1.3-0.7,2.6-1.9,3.3L111,106.8l0-25.3c0-1.3,0.7-2.6,1.9-3.3L135.3,65.5 M136.4,65L136.4,65L136.4,65"/>
		</g>
	</g>
</g>
</svg>
