<?xml version="1.0" encoding="utf-8"?>
<!-- Generator: Adobe Illustrator 22.1.0, SVG Export Plug-In . SVG Version: 6.00 Build 0)  -->
<svg version="1.1" id="Layer_1" xmlns="http://www.w3.org/2000/svg" xmlns:xlink="http://www.w3.org/1999/xlink" x="0px" y="0px"
	 viewBox="0 0 133 133" style="enable-background:new 0 0 133 133;" xml:space="preserve">
<style type="text/css">
	.st0{fill:#FF6F00;}
	.st1{fill:none;stroke:#64EFFF;stroke-width:4;stroke-linecap:round;stroke-linejoin:round;}
	.st2{fill:none;stroke:#FFFFFF;stroke-width:4;stroke-linecap:round;stroke-linejoin:round;}
	.st3{fill:#000075;}
	.st4{filter:url(#Adobe_OpacityMaskFilter);}
	.st5{fill:#FFFFFF;}
	.st6{mask:url(#mask-2_1_);fill:#FF6F00;}
	.st7{opacity:0.3;fill:#000076;enable-background:new    ;}
</style>
<title>Group 38</title>
<desc>Created with Sketch.</desc>
<g id="Desktop">
	<g id="_x33_.1-Mantle" transform="translate(-533.000000, -1988.000000)">
		<g id="Group-38" transform="translate(533.000000, 1988.000000)">
			<path id="Fill-1" class="st0" d="M68.8,65.8c-1.4,0-2.5,1.1-2.5,2.5c0,1.4,1.1,2.5,2.5,2.5s2.5-1.1,2.5-2.5
				C71.3,66.9,70.2,65.8,68.8,65.8 M68.8,73.8c-3.1,0-5.6-2.5-5.6-5.6c0-3.1,2.5-5.6,5.6-5.6c3.1,0,5.6,2.5,5.6,5.6
				C74.3,71.3,71.8,73.8,68.8,73.8"/>
			<path id="Stroke-3" class="st1" d="M51.2,65.8v-2.6c0-2.9,2.3-5.2,5.2-5.2h23.9c2.9,0,5.2,2.3,5.2,5.2v9.6"/>
			<path id="Stroke-5" class="st2" d="M85.5,77.4v2.3c0,2.9-2.3,5.3-5.2,5.3H56.4c-2.9,0-5.2-2.4-5.2-5.3V72"/>
			<path id="Fill-7" class="st3" d="M60.8,49.5c0-3.9,3.3-7,7.3-7h1.2c4,0,7.3,3.2,7.3,7v3h6v-3c0-7-6-12.8-13.3-12.8h-1.2
				c-7.3,0-13.3,5.7-13.3,12.8v3h6V49.5z"/>
			<polygon id="Fill-9" class="st0" points="23.8,26.5 25.7,32.6 31.7,32.6 26.8,36.3 28.7,42.3 23.8,38.6 18.9,42.3 20.8,36.3 
				15.9,32.6 21.9,32.6 			"/>
			<polygon id="Fill-11" class="st0" points="41.4,8 43.3,14 49.3,14 44.4,17.7 46.3,23.8 41.4,20 36.5,23.8 38.4,17.7 33.5,14 
				39.6,14 			"/>
			<g id="Group-15" transform="translate(50.074074, 0.000000)">
				<g id="Clip-14">
				</g>
				<defs>
					<filter id="Adobe_OpacityMaskFilter" filterUnits="userSpaceOnUse" x="8.5" y="1.7" width="16.5" height="15.7">
						<feColorMatrix  type="matrix" values="1 0 0 0 0  0 1 0 0 0  0 0 1 0 0  0 0 0 1 0"/>
					</filter>
				</defs>
				<mask maskUnits="userSpaceOnUse" x="8.5" y="1.7" width="16.5" height="15.7" id="mask-2_1_">
					<g class="st4">
						<polygon id="path-1_1_" class="st5" points="8.5,1.7 25,1.7 25,17.4 8.5,17.4 						"/>
					</g>
				</mask>
				<polygon id="Fill-13" class="st6" points="16.8,1.7 18.7,7.7 25,7.7 19.9,11.4 21.9,17.4 16.8,13.7 11.7,17.4 13.6,11.4 
					8.5,7.7 14.8,7.7 				"/>
			</g>
			<polygon id="Fill-16" class="st0" points="91.5,8 93.4,14 99.4,14 94.5,17.7 96.4,23.8 91.5,20 86.6,23.8 88.5,17.7 83.6,14 
				89.6,14 			"/>
			<polygon id="Fill-18" class="st0" points="110,26.5 111.9,32.6 117.9,32.6 113.1,36.3 114.9,42.3 110,38.6 105.2,42.3 107,36.3 
				102.2,32.6 108.2,32.6 			"/>
			<polygon id="Fill-20" class="st0" points="116.5,51.6 118.4,57.6 124.4,57.6 119.5,61.3 121.4,67.3 116.5,63.6 111.7,67.3 
				113.5,61.3 108.6,57.6 114.7,57.6 			"/>
			<polygon id="Fill-22" class="st0" points="110,77.5 111.9,83.6 117.9,83.6 113.1,87.3 114.9,93.3 110,89.6 105.2,93.3 107,87.3 
				102.2,83.6 108.2,83.6 			"/>
			<polygon id="Fill-24" class="st0" points="91.5,96.1 93.4,102.1 99.4,102.1 94.5,105.8 96.4,111.8 91.5,108.1 86.6,111.8 
				88.5,105.8 83.6,102.1 89.6,102.1 			"/>
			<polygon id="Fill-26" class="st0" points="66.5,102.6 68.3,108.6 74.3,108.6 69.5,112.3 71.3,118.3 66.5,114.6 61.6,118.3 
				63.4,112.3 58.6,108.6 64.6,108.6 			"/>
			<polygon id="Fill-28" class="st0" points="41.4,95.2 43.3,101.2 49.3,101.2 44.4,104.9 46.3,110.9 41.4,107.2 36.5,110.9 
				38.4,104.9 33.5,101.2 39.6,101.2 			"/>
			<polygon id="Fill-30" class="st0" points="23.8,77.5 25.7,83.6 31.7,83.6 26.8,87.3 28.7,93.3 23.8,89.6 18.9,93.3 20.8,87.3 
				15.9,83.6 21.9,83.6 			"/>
			<polygon id="Fill-32" class="st0" points="16.8,51.6 18.8,57.6 25.2,57.6 20,61.3 22,67.3 16.8,63.6 11.7,67.3 13.7,61.3 
				8.5,57.6 14.9,57.6 			"/>
			<path id="Fill-34" class="st7" d="M98.4,127.8c0,2-13.3,3.7-29.7,3.7s-29.7-1.7-29.7-3.7c0-2,13.3-3.7,29.7-3.7
				S98.4,125.7,98.4,127.8"/>
			<path id="Fill-36" class="st0" d="M69.2,78.5c-0.8,0-1.4-0.6-1.4-1.4v-3.7c0-0.8,0.6-1.4,1.4-1.4s1.4,0.6,1.4,1.4v3.7
				C70.6,77.8,70,78.5,69.2,78.5"/>
		</g>
	</g>
</g>
</svg>
