<?xml version="1.0" encoding="UTF-8"?>
<svg width="105px" height="128px" viewBox="0 0 105 128" version="1.1" xmlns="http://www.w3.org/2000/svg" xmlns:xlink="http://www.w3.org/1999/xlink">
    <!-- Generator: Sketch 51.2 (57519) - http://www.bohemiancoding.com/sketch -->
    <title>Group 8</title>
    <desc>Created with Sketch.</desc>
    <defs></defs>
    <g id="Desktop" stroke="none" stroke-width="1" fill="none" fill-rule="evenodd">
        <g id="6-About" transform="translate(-972.000000, -4125.000000)">
            <g id="Group-8" transform="translate(972.000000, 4125.000000)">
                <ellipse id="Oval-2-Copy" fill="#000076" fill-rule="nonzero" opacity="0.187555804" cx="52.5" cy="115.5" rx="52.5" ry="12.5"></ellipse>
                <g id="Group-21" transform="translate(3.000000, 0.000000)">
                    <path d="M97.6967,61.7953 C98.0427,59.5233 98.2187,57.2323 98.2187,54.9253 L98.2187,28.0663 C98.2187,21.5913 93.4277,16.0613 86.8267,14.9163 C75.6797,12.9823 65.4157,7.0873 60.2887,3.7473 C57.2657,1.7763 53.7967,0.6533 50.1937,0.4513 L50.1937,61.7953 L97.6967,61.7953 Z" id="Fill-1" fill="#64EFFF"></path>
                    <polygon id="Fill-3" fill="#64EFFF" points="48.9574 114.309 49.0224 114.337 49.5754 114.1 48.9574 113.833"></polygon>
                    <path d="M49.0228,0.4096 C49.0018,0.4096 48.9798,0.4116 48.9578,0.4116 L48.9578,0.4516 C49.1638,0.4396 49.3698,0.4346 49.5758,0.4296 C49.3908,0.4246 49.2088,0.4096 49.0228,0.4096" id="Fill-5" fill="#64EFFF"></path>
                    <polygon id="Fill-7" fill="#64EFFF" points="50.1283 114.3373 50.1933 114.3093 50.1933 113.8333 49.5753 114.0993"></polygon>
                    <path d="M50.1937,0.412 C50.1717,0.412 50.1497,0.41 50.1287,0.41 C49.9427,0.41 49.7597,0.425 49.5757,0.43 C49.7817,0.435 49.9877,0.44 50.1937,0.452 L50.1937,0.412 Z" id="Fill-9" fill="#64EFFF"></path>
                    <path d="M1.4535,61.7953 C2.4365,68.2643 4.8095,74.5763 8.5525,80.6343 C12.5085,87.0393 17.9885,93.1593 24.8425,98.8273 C36.3665,108.3563 47.7775,113.3253 48.2585,113.5323 L48.9575,113.8333 L48.9575,61.7953 L1.4535,61.7953 Z" id="Fill-11" fill="#64EFFF"></path>
                    <path d="M50.1937,61.7953 L50.1937,0.4513 C49.9877,0.4403 49.7817,0.4353 49.5757,0.4293 C49.3697,0.4353 49.1637,0.4403 48.9577,0.4513 L48.9577,61.7953 L50.1937,61.7953 Z" id="Fill-13" fill="#64EFFF"></path>
                    <polygon id="Fill-15" fill="#64EFFF" points="48.9574 61.7953 48.9574 113.8333 49.5754 114.0993 50.1934 113.8333 50.1934 61.7953"></polygon>
                    <path d="M49.6957,0.5004 C45.6747,0.5004 41.7797,1.6544 38.4297,3.8374 C33.3037,7.1784 23.0397,13.0724 11.8927,15.0064 C5.2917,16.1514 0.5007,21.6834 0.5007,28.1564 L0.5007,55.0164 C0.5007,63.8894 3.0637,72.5394 8.1207,80.7254 C12.0757,87.1294 17.5567,93.2504 24.4107,98.9174 C35.9347,108.4464 47.3457,113.4164 47.8267,113.6234 L49.6957,114.4284 L51.5657,113.6234 C52.0457,113.4164 63.4577,108.4464 74.9807,98.9174 C81.8347,93.2504 87.3157,87.1294 91.2717,80.7254 C96.3287,72.5394 98.8917,63.8894 98.8917,55.0164 L98.8917,28.1564 C98.8917,21.6824 94.1007,16.1514 87.4997,15.0064 C76.3527,13.0724 66.0887,7.1784 60.9617,3.8374 C57.6117,1.6544 53.7167,0.5004 49.6957,0.5004 M49.6957,7.5004 C52.3557,7.5004 54.9297,8.2614 57.1387,9.7024 C62.7167,13.3364 73.9227,19.7554 86.3017,21.9034 C89.5417,22.4654 91.8917,25.0954 91.8917,28.1564 L91.8917,55.0164 C91.8917,62.5704 89.6797,69.9824 85.3167,77.0464 C81.7627,82.7994 76.7847,88.3434 70.5207,93.5224 C61.5437,100.9454 52.5187,105.4584 49.6957,106.7834 C46.8747,105.4584 37.8477,100.9454 28.8717,93.5224 C22.6067,88.3434 17.6297,82.7994 14.0757,77.0464 C9.7127,69.9824 7.5007,62.5704 7.5007,55.0164 L7.5007,28.1564 C7.5007,25.0954 9.8507,22.4654 13.0907,21.9034 C25.4697,19.7554 36.6747,13.3364 42.2527,9.7014 C44.4627,8.2614 47.0357,7.5004 49.6957,7.5004" id="Fill-17" fill="#000076"></path>
                    <path d="M33.9398,52.3949 L45.1828,63.6379 C45.1828,63.6379 67.7778,43.7559 73.3598,38.9679" id="Stroke-19" stroke="#000076" stroke-width="7" stroke-linecap="round" stroke-linejoin="round"></path>
                </g>
            </g>
        </g>
    </g>
</svg>