<?xml version="1.0" encoding="utf-8"?>
<!-- Generator: Adobe Illustrator 22.1.0, SVG Export Plug-In . SVG Version: 6.00 Build 0)  -->
<svg version="1.1" id="Layer_1" xmlns="http://www.w3.org/2000/svg" xmlns:xlink="http://www.w3.org/1999/xlink" x="0px" y="0px"
	 viewBox="0 0 133 133" style="enable-background:new 0 0 133 133;" xml:space="preserve">
<style type="text/css">
	.st0{fill:#007BFF;}
	.st1{fill:none;stroke:#FFFFFF;stroke-width:6;}
	.st2{fill:none;stroke:#FFFFFF;stroke-width:6;stroke-linecap:round;stroke-linejoin:round;}
	.st3{fill:none;stroke:#64EFFF;stroke-width:6;stroke-linecap:round;stroke-linejoin:round;}
	.st4{fill:#000076;}
	.st5{fill:none;stroke:#FFFFFF;stroke-width:4;}
	.st6{opacity:0.3;fill:#000076;enable-background:new    ;}
	.st7{fill:none;stroke:#FFFFFF;stroke-width:5;stroke-linecap:round;stroke-linejoin:round;}
	.st8{filter:url(#Adobe_OpacityMaskFilter);}
	.st9{fill:#FFFFFF;}
	.st10{mask:url(#mask-2_1_);fill:#FFFFFF;}
	.st11{fill:#FF6F00;}
	.st12{fill:none;stroke:#FFFFFF;stroke-width:4;stroke-linecap:round;stroke-linejoin:round;}
	.st13{fill:none;stroke:#FF6F00;stroke-width:4;stroke-linecap:round;stroke-linejoin:round;}
</style>
<title>Wallet</title>
<desc>Created with Sketch.</desc>
<g id="Desktop">
	<g id="_x33_.1-Mantle" transform="translate(-273.000000, -1667.000000)">
		<g id="Wallet" transform="translate(276.000000, 1667.000000)">
			<path id="Fill-1" class="st0" d="M95.8,92.5V74.3V92.5z"/>
			<path id="Stroke-2" class="st1" d="M95.8,74.3v18.2"/>
			<g id="Group-42">
				<g id="Group-6" transform="translate(34.666667, 91.000000)">
					<path id="Fill-3" class="st0" d="M61,2.1v9.1c0,4.8-4,8.8-8.8,8.8H20.1"/>
					<path id="Stroke-5" class="st2" d="M61,2.1v9.1c0,4.8-4,8.8-8.8,8.8H20.1"/>
				</g>
				<g id="Group-10" transform="translate(0.866667, 95.333333)">
					<path id="Fill-7" class="st0" d="M42.2,15.6H28.3c-4.8,0-8.8-4-8.8-8.8V1.6"/>
					<path id="Stroke-9" class="st3" d="M42.2,15.6H28.3c-4.8,0-8.8-4-8.8-8.8V1.6"/>
				</g>
				<g id="Group-14" transform="translate(0.866667, 42.466667)">
					<path id="Fill-11" class="st0" d="M19.5,44.3V10.8c0-4.8,4-8.8,8.8-8.8H31"/>
					<path id="Stroke-13" class="st2" d="M19.5,44.3V10.8c0-4.8,4-8.8,8.8-8.8H31"/>
				</g>
				<g id="Group-18" transform="translate(45.933333, 42.466667)">
					<path id="Fill-15" class="st0" d="M20.1,2h20.8c4.8,0,8.8,4,8.8,8.8v13"/>
					<path id="Stroke-17" class="st2" d="M20.1,2h20.8c4.8,0,8.8,4,8.8,8.8v13"/>
				</g>
				<path id="Fill-19" class="st4" d="M100.1,92.3H84.5c-4.6,0-8.3-3.8-8.3-8.3V83c0-4.6,3.8-8.3,8.3-8.3h15.5
					c4.6,0,8.3,3.8,8.3,8.3v0.9C108.4,88.5,104.7,92.3,100.1,92.3"/>
				<path id="Stroke-21" class="st5" d="M100.1,92.3H84.5c-4.6,0-8.3-3.8-8.3-8.3V83c0-4.6,3.8-8.3,8.3-8.3h15.5
					c4.6,0,8.3,3.8,8.3,8.3v0.9C108.4,88.5,104.7,92.3,100.1,92.3z"/>
				<path id="Fill-23" class="st6" d="M91.8,127.3c0,2.3-14.9,4.2-33.3,4.2c-18.4,0-33.3-1.9-33.3-4.2c0-2.3,14.9-4.2,33.3-4.2
					C76.9,123,91.8,124.9,91.8,127.3"/>
				<g id="Group-28" transform="translate(0.000000, 40.733333)">
					<path id="Fill-25" class="st0" d="M61,1.7h26.3c4.8,0,8.7,3.8,8.7,8.5v0.9c0,4.7-3.9,8.5-8.7,8.5H28.8c-4.8,0-8.7-3.8-8.7-8.5
						v-0.9c0-4.7,3.9-8.5,8.7-8.5h5.7"/>
					<path id="Stroke-27" class="st7" d="M61,1.7h26.3c4.8,0,8.7,3.8,8.7,8.5v0.9c0,4.7-3.9,8.5-8.7,8.5H28.8
						c-4.8,0-8.7-3.8-8.7-8.5v-0.9c0-4.7,3.9-8.5,8.7-8.5h5.7"/>
				</g>
				<g id="Group-31" transform="translate(13.000000, 0.000000)">
					<g id="Clip-30">
					</g>
					<defs>
						<filter id="Adobe_OpacityMaskFilter" filterUnits="userSpaceOnUse" x="19.6" y="2.2" width="45.8" height="58.4">
							<feColorMatrix  type="matrix" values="1 0 0 0 0  0 1 0 0 0  0 0 1 0 0  0 0 0 1 0"/>
						</filter>
					</defs>
					<mask maskUnits="userSpaceOnUse" x="19.6" y="2.2" width="45.8" height="58.4" id="mask-2_1_">
						<g class="st8">
							<polygon id="path-1_1_" class="st9" points="19.6,2.2 65.4,2.2 65.4,60.6 19.6,60.6 							"/>
						</g>
					</mask>
					<path id="Fill-29" class="st10" d="M65.2,16.7c-1-8.8-9.1-15.3-17.9-14.4C38.5,3,32.1,10.8,33.2,19.6c0.4,3,1.5,5.7,3.3,8
						c0.2,0.3,0.2,0.7,0,0.9L34,32.2l-1.3,1.9l-1.8,2.6c-0.1,0.2-0.2,0.5-0.1,0.7l0.8,2.5c0.2,0.5-0.2,1-0.6,1l-2.6,0.4
						c-0.4,0.1-0.7,0.5-0.7,0.9l0.5,3.4c0.1,0.4-0.2,0.8-0.6,0.9l-3.4,0.8c-0.4,0.1-0.7,0.5-0.6,0.9l0.6,3.4
						c0.1,0.4-0.2,0.8-0.6,0.9l-3.4,0.7c-0.4,0.1-0.7,0.5-0.6,0.9l1.1,5.6c0.1,0.4,0.5,0.7,0.9,0.6l6.8-1.1c0.2,0,0.4-0.2,0.5-0.3
						l16.9-24.9c0.2-0.3,0.5-0.4,0.8-0.3c1.4,0.3,2.9,0.3,4.4,0.2C59.9,33.2,66.3,25.5,65.2,16.7"/>
				</g>
				<path id="Fill-32" class="st0" d="M69.5,14.4c0.3,2.8-1.7,5.3-4.5,5.6c-2.8,0.3-5.3-1.7-5.6-4.5c-0.3-2.8,1.7-5.3,4.5-5.6
					C66.7,9.6,69.2,11.6,69.5,14.4"/>
				<path id="Fill-34" class="st11" d="M103.3,83.5c0,2-1.6,3.5-3.5,3.5c-2,0-3.5-1.6-3.5-3.5c0-2,1.6-3.5,3.5-3.5
					C101.7,80,103.3,81.6,103.3,83.5"/>
				<g id="Group-39" transform="translate(24.266667, 50.266667)">
					<path id="Fill-36" class="st0" d="M19.7,1.7h20.7"/>
					<path id="Stroke-38" class="st12" d="M19.7,1.7h20.7"/>
				</g>
				<path id="Stroke-40" class="st13" d="M72.1,52h13.6"/>
			</g>
		</g>
	</g>
</g>
</svg>
