<?xml version="1.0" encoding="utf-8"?>
<svg version="1.1" id="Layer_1" xmlns="http://www.w3.org/2000/svg" xmlns:xlink="http://www.w3.org/1999/xlink" x="0px" y="0px"
	 viewBox="0 0 141.7 183" style="enable-background:new 0 0 141.7 183;" xml:space="preserve">
<style type="text/css">
	.st0{filter:url(#Adobe_OpacityMaskFilter);}
	.st1{fill:#007bff;}
	.st2{mask:url(#mask-2_1_);fill:#161656;fill-opacity:0.2;}
	.st3{filter:url(#Adobe_OpacityMaskFilter_1_);}
	.st4{mask:url(#mask-4_1_);fill:#007bff;}
	.st5{filter:url(#Adobe_OpacityMaskFilter_2_);}
	.st6{mask:url(#mask-6_1_);fill:#ff6f00;}
	.st7{filter:url(#Adobe_OpacityMaskFilter_3_);}
	.st8{mask:url(#mask-8_1_);fill:#007bff;}
	.st9{filter:url(#Adobe_OpacityMaskFilter_4_);}
	.st10{mask:url(#mask-10_1_);fill:#64f0ff;}
	.st11{filter:url(#Adobe_OpacityMaskFilter_5_);}
	.st12{mask:url(#mask-12_1_);fill:#007bff;}
	.st13{filter:url(#Adobe_OpacityMaskFilter_6_);}
	.st14{mask:url(#mask-14_1_);fill:#007bff;}
	.st15{filter:url(#Adobe_OpacityMaskFilter_7_);}
	.st16{mask:url(#mask-16_1_);fill:#161656;}
	.st17{fill:#64f0ff;}
</style>
<title>Permission icon</title>
<g id="Desktop">
	<g id="APPII" transform="translate(-598.000000, -3038.000000)">
		<g id="Traceability-Copy" transform="translate(594.652406, 3038.000000)">
			<g id="Group-3" transform="translate(0.000000, 90.352941)">
				<g id="Clip-2">
				</g>
				<defs>
					<filter id="Adobe_OpacityMaskFilter" filterUnits="userSpaceOnUse" x="23.9" y="19.9" width="94.3" height="54.6">
						<feColorMatrix  type="matrix" values="1 0 0 0 0  0 1 0 0 0  0 0 1 0 0  0 0 0 1 0"/>
					</filter>
				</defs>
				<mask maskUnits="userSpaceOnUse" x="23.9" y="19.9" width="94.3" height="54.6" id="mask-2_1_">
					<g class="st0">
						<polyline id="path-1_1_" class="st1" points="19.9,51.5 78.3,17.6 122.1,42.9 63.7,76.9 						"/>
					</g>
				</mask>
				<path id="Fill-1" class="st2" d="M115.3,39L85.1,21.5c-3.8-2.2-9.9-2.2-13.6,0L26.6,47.6c-3.7,2.2-3.7,5.7,0,7.9l30.2,17.4
					c3.8,2.2,9.9,2.2,13.6,0l44.9-26.1C119.1,44.7,119.1,41.1,115.3,39"/>
			</g>
			<g id="Group-22" transform="translate(0.802139, 69.497326)">
				<g id="Group-6">
					<g id="Clip-5">
					</g>
					<defs>
						<filter id="Adobe_OpacityMaskFilter_1_" filterUnits="userSpaceOnUse" x="63.5" y="20.6" width="50.8" height="17.6">
							<feColorMatrix  type="matrix" values="1 0 0 0 0  0 1 0 0 0  0 0 1 0 0  0 0 0 1 0"/>
						</filter>
					</defs>
					<mask maskUnits="userSpaceOnUse" x="63.5" y="20.6" width="50.8" height="17.6" id="mask-4_1_">
						<g class="st3">
							<polyline id="path-3_1_" class="st1" points="20.3,53.6 67.5,80.9 129.4,45 82.1,17.7 							"/>
						</g>
					</mask>
					<path id="Fill-4" class="st4" d="M113.6,35.8L90.8,22.7c-4.8-2.8-12.6-2.8-17.4,0l-9.3,5.4c-0.9,0.5-0.9,1.4,0,2
						c0.9,0.5,2.5,0.5,3.4,0l9.3-5.4c2.9-1.7,7.6-1.7,10.5,0l22.7,13.1c0.9,0.5,2.5,0.5,3.4,0C114.5,37.3,114.5,36.4,113.6,35.8"/>
				</g>
				<g id="Group-9">
					<g id="Clip-8">
					</g>
					<defs>
						<filter id="Adobe_OpacityMaskFilter_2_" filterUnits="userSpaceOnUse" x="111.4" y="39.5" width="12.9" height="13.9">
							<feColorMatrix  type="matrix" values="1 0 0 0 0  0 1 0 0 0  0 0 1 0 0  0 0 0 1 0"/>
						</filter>
					</defs>
					<mask maskUnits="userSpaceOnUse" x="111.4" y="39.5" width="12.9" height="13.9" id="mask-6_1_">
						<g class="st5">
							<polyline id="path-5_1_" class="st1" points="20.3,53.6 67.5,80.9 129.4,45 82.1,17.7 							"/>
						</g>
					</mask>
					<path id="Fill-7" class="st6" d="M120.7,39.9c-0.9-0.5-2.5-0.5-3.4,0c-0.9,0.5-0.9,1.4,0,2c2.9,1.7,2.9,4.4,0,6.1l-5.2,3
						c-0.9,0.5-0.9,1.4,0,2c0.9,0.5,2.5,0.5,3.4,0l5.2-3C125.5,47.2,125.5,42.7,120.7,39.9"/>
				</g>
				<g id="Group-12">
					<g id="Clip-11">
					</g>
					<defs>
						<filter id="Adobe_OpacityMaskFilter_3_" filterUnits="userSpaceOnUse" x="49.2" y="54.6" width="60.1" height="23.3">
							<feColorMatrix  type="matrix" values="1 0 0 0 0  0 1 0 0 0  0 0 1 0 0  0 0 0 1 0"/>
						</filter>
					</defs>
					<mask maskUnits="userSpaceOnUse" x="49.2" y="54.6" width="60.1" height="23.3" id="mask-8_1_">
						<g class="st7">
							<polyline id="path-7_1_" class="st1" points="20.3,53.6 67.5,80.9 129.4,45 82.1,17.7 							"/>
						</g>
					</mask>
					<path id="Fill-10" class="st8" d="M108.6,55c-0.9-0.5-2.5-0.5-3.4,0L72.8,73.9c-2.9,1.7-7.6,1.7-10.5,0l-8.9-5.1
						c-0.9-0.5-2.5-0.5-3.4,0s-0.9,1.4,0,2l8.9,5.1c4.8,2.8,12.6,2.8,17.4,0L108.7,57C109.6,56.4,109.6,55.6,108.6,55"/>
				</g>
				<g id="Group-15">
					<g id="Clip-14">
					</g>
					<defs>
						<filter id="Adobe_OpacityMaskFilter_4_" filterUnits="userSpaceOnUse" x="25.4" y="35.2" width="30" height="31.3">
							<feColorMatrix  type="matrix" values="1 0 0 0 0  0 1 0 0 0  0 0 1 0 0  0 0 0 1 0"/>
						</filter>
					</defs>
					<mask maskUnits="userSpaceOnUse" x="25.4" y="35.2" width="30" height="31.3" id="mask-10_1_">
						<g class="st9">
							<polyline id="path-9_1_" class="st1" points="20.3,53.6 67.5,80.9 129.4,45 82.1,17.7 							"/>
						</g>
					</mask>
					<path id="Fill-13" class="st10" d="M54.7,35.6c-0.9-0.5-2.5-0.5-3.4,0l-22.4,13c-4.8,2.8-4.7,7.3,0.1,10.1l12.9,7.4
						c0.9,0.5,2.5,0.5,3.4,0c0.9-0.5,0.9-1.4,0-2l-12.9-7.4c-2.9-1.7-2.9-4.4,0-6.1l22.4-13C55.6,37,55.6,36.1,54.7,35.6"/>
				</g>
				<g id="Group-18">
					<g id="Clip-17">
					</g>
					<defs>
						<filter id="Adobe_OpacityMaskFilter_5_" filterUnits="userSpaceOnUse" x="69.3" y="33.9" width="27" height="15.6">
							<feColorMatrix  type="matrix" values="1 0 0 0 0  0 1 0 0 0  0 0 1 0 0  0 0 0 1 0"/>
						</filter>
					</defs>
					<mask maskUnits="userSpaceOnUse" x="69.3" y="33.9" width="27" height="15.6" id="mask-12_1_">
						<g class="st11">
							<polyline id="path-11_1_" class="st1" points="20.3,53.6 67.5,80.9 129.4,45 82.1,17.7 							"/>
						</g>
					</mask>
					<path id="Fill-16" class="st12" d="M95.6,47.2L73.4,34.4c-0.9-0.5-2.5-0.5-3.4,0s-0.9,1.4,0,2l22.2,12.8c0.9,0.5,2.5,0.5,3.4,0
						C96.5,48.6,96.5,47.7,95.6,47.2"/>
				</g>
				<g id="Group-21">
					<g id="Clip-20">
					</g>
					<defs>
						<filter id="Adobe_OpacityMaskFilter_6_" filterUnits="userSpaceOnUse" x="59.9" y="43.2" width="28.1" height="16.2">
							<feColorMatrix  type="matrix" values="1 0 0 0 0  0 1 0 0 0  0 0 1 0 0  0 0 0 1 0"/>
						</filter>
					</defs>
					<mask maskUnits="userSpaceOnUse" x="59.9" y="43.2" width="28.1" height="16.2" id="mask-14_1_">
						<g class="st13">
							<polyline id="path-13_1_" class="st1" points="20.3,53.6 67.5,80.9 129.4,45 82.1,17.7 							"/>
						</g>
					</mask>
					<path id="Fill-19" class="st14" d="M87.3,57.1L64,43.7c-0.9-0.5-2.5-0.5-3.4,0c-0.9,0.5-0.9,1.4,0,2L84,59.1
						c0.9,0.5,2.5,0.5,3.4,0C88.3,58.5,88.3,57.6,87.3,57.1"/>
				</g>
			</g>
			<g id="Group-35" transform="translate(0.000000, 0.513369)">
				<g id="Group-25" transform="translate(18.449198, 0.000000)">
					<g id="Clip-24">
					</g>
					<defs>
						<filter id="Adobe_OpacityMaskFilter_7_" filterUnits="userSpaceOnUse" x="19.9" y="17.8" width="53.9" height="53.9">
							<feColorMatrix  type="matrix" values="1 0 0 0 0  0 1 0 0 0  0 0 1 0 0  0 0 0 1 0"/>
						</filter>
					</defs>
					<mask maskUnits="userSpaceOnUse" x="19.9" y="17.8" width="53.9" height="53.9" id="mask-16_1_">
						<g class="st15">
							<polygon id="path-15_1_" class="st1" points="19.9,17.8 73.8,17.8 73.8,71.7 19.9,71.7 							"/>
						</g>
					</mask>
					<path id="Fill-23" class="st16" d="M73.8,44.8c0,14.9-12.1,27-27,27s-27-12.1-27-27s12.1-27,27-27S73.8,29.9,73.8,44.8"/>
				</g>
				<path id="Fill-26" class="st1" d="M59.8,34.7c-1.3,0-2.3,1-2.3,2.3v4.7c0,1.3,1,2.3,2.3,2.3h2.6c1.3,0,2.3-1,2.3-2.3V37
					c0-1.3-1-2.3-2.3-2.3H59.8z M62.4,46h-2.6c-2.3,0-4.2-1.9-4.2-4.2V37c0-2.3,1.9-4.2,4.2-4.2h2.6c2.3,0,4.2,1.9,4.2,4.2v4.7
					C66.6,44.1,64.7,46,62.4,46z"/>
				<path id="Fill-28" class="st1" d="M70,56c0-4.6-3.7-8.3-8.3-8.3h-1.9c-4.6,0-8.3,3.7-8.3,8.3v2.6c0,0.2,0,0.4,0,0.6h1.7
					c0-0.2,0-0.4,0-0.6V56c0-3.6,2.9-6.6,6.6-6.6h1.9c3.6,0,6.6,2.9,6.6,6.6v2.6c0,0.2,0,0.4,0,0.6H70c0-0.2,0-0.4,0-0.6V56z"/>
				<path id="Fill-30" class="st1" d="M74.6,54.3h4.6V38.6h-4.6V54.3z M75.4,53.5h3V39.4h-3V53.5z"/>
				<path id="Fill-32" class="st17" d="M79,55.5l-2,2.9c0,0.1-0.2,0.1-0.2,0l-2.1-2.9c-0.1-0.1,0-0.2,0.1-0.2l4.1,0
					C79,55.3,79.1,55.4,79,55.5"/>
				<path id="Fill-33" class="st17" d="M79.2,36c0-1.2-1-2.3-2.3-2.3c-1.3,0-2.3,1-2.3,2.3v1.4h4.5V36z"/>
				<path id="Fill-34" class="st1" d="M66.6,92.2c-0.2,0-0.4-0.2-0.4-0.4V77.4c0-0.2,0.2-0.4,0.4-0.4s0.4,0.2,0.4,0.4v14.4
					C67,92,66.8,92.2,66.6,92.2"/>
			</g>
		</g>
	</g>
</g>
</svg>
