<?xml version="1.0" encoding="utf-8"?>
<svg version="1.1" id="Layer_1" xmlns="http://www.w3.org/2000/svg" xmlns:xlink="http://www.w3.org/1999/xlink" x="0px" y="0px"
	 viewBox="0 0 141.7 183" style="enable-background:new 0 0 141.7 183;" xml:space="preserve">
<style type="text/css">
	.st0{fill:#161656;}
	.st1{fill:none;stroke:#ff6f00;stroke-width:4;stroke-linecap:round;stroke-linejoin:round;}
	.st2{fill:none;stroke:#161656;stroke-width:0.5;stroke-linecap:round;stroke-linejoin:round;}
	.st3{fill:none;stroke:#64f0ff;stroke-width:0.5;stroke-linecap:round;stroke-linejoin:round;}
	.st4{fill:none;stroke:#ff6f00;stroke-linecap:round;stroke-linejoin:round;}
	.st5{fill:none;stroke:#64f0ff;stroke-linecap:round;stroke-linejoin:round;}
	.st6{fill:none;stroke:#161656;stroke-linecap:round;stroke-linejoin:round;}
	.st7{fill:none;stroke:#64f0ff;stroke-width:4;stroke-linecap:round;stroke-linejoin:round;}
	.st8{fill:none;stroke:#ffffff;stroke-width:4;stroke-linecap:round;stroke-linejoin:round;}
</style>
<title>Integrity icon</title>
<g id="Desktop">
	<g id="APPII" transform="translate(-216.000000, -3054.000000)">
		<g id="Group-29" transform="translate(217.000000, 3055.000000)">
			<path id="Fill-1" class="st0" d="M100.4,91c0,16.4-13.3,29.8-29.8,29.8c-16.4,0-29.8-13.3-29.8-29.8s13.3-29.8,29.8-29.8
				C87.1,61.3,100.4,74.6,100.4,91"/>
			<polyline id="Stroke-3" class="st1" points="60.7,92.1 67.1,99.2 84.5,83.7 			"/>
			<path id="Stroke-5" class="st2" d="M10.6,93.4c0-0.9-0.1-1.7-0.1-2.6c0-32.9,26.7-59.6,59.6-59.6"/>
			<path id="Stroke-7" class="st3" d="M85.7,33.3c4.7,1.3,9.1,3.1,13.2,5.3"/>
			<path id="Stroke-9" class="st3" d="M100,39.3c14.7,8.5,25.4,23.2,28.7,40.4"/>
			<path id="Stroke-11" class="st3" d="M129.8,91.5c-0.3,29.6-22.3,54.1-50.8,58.3"/>
			<path id="Stroke-13" class="st3" d="M66.3,150.3c-25.1-1.6-46-18.9-53.1-42.1"/>
			<path id="Stroke-15" class="st4" d="M67.8,43.1c0.8,0,1.6-0.1,2.4-0.1C96.6,43,118,64.5,118,90.8c0,3.2-0.3,6.4-0.9,9.4"/>
			<path id="Stroke-17" class="st4" d="M112.1,113.7c-6.1,11.1-16.5,19.6-28.9,23.1"/>
			<path id="Stroke-19" class="st5" d="M76.2,138.3c-2,0.2-4,0.4-6,0.4c-13,0-24.8-5.2-33.4-13.6"/>
			<path id="Stroke-21" class="st6" d="M26.6,110.6c-2.7-6-4.3-12.7-4.3-19.7c0-15.3,7.3-29,18.5-37.8"/>
			<path id="Stroke-23" class="st7" d="M37.4,72.6c6.4-11.5,18.7-19.3,32.8-19.3c10.8,0,20.5,4.6,27.3,11.9"/>
			<path id="Stroke-25" class="st8" d="M103.2,73.1c2.9,5.3,4.5,11.3,4.5,17.8c0,20.7-16.8,37.5-37.5,37.5c-5.8,0-11.4-1.3-16.3-3.7
				"/>
			<path id="Stroke-27" class="st1" d="M48.4,121.3c-9.5-6.8-15.7-17.9-15.7-30.5c0-2,0.2-4,0.5-6"/>
		</g>
	</g>
</g>
</svg>
