<?xml version="1.0" encoding="UTF-8"?>
<svg width="362px" height="394px" viewBox="0 0 362 394" version="1.1" xmlns="http://www.w3.org/2000/svg" xmlns:xlink="http://www.w3.org/1999/xlink">
    <!-- Generator: Sketch 51.2 (57519) - http://www.bohemiancoding.com/sketch -->
    <title>Group 19</title>
    <desc>Created with Sketch.</desc>
    <defs></defs>
    <g id="Desktop" stroke="none" stroke-width="1" fill="none" fill-rule="evenodd">
        <g id="6-About" transform="translate(-899.000000, -711.000000)">
            <g id="Group-19" transform="translate(900.000000, 711.000000)">
                <path d="M180.3049,393.4511 C167.4909,393.4511 154.8509,390.0641 143.7529,383.6571 L36.8019,321.9091 C14.2559,308.8901 0.2499,284.6321 0.2499,258.5991 L0.2499,135.1021 C0.2499,109.0691 14.2559,84.8101 36.8009,71.7931 L143.7529,10.0441 C154.8499,3.6371 167.4899,0.2501 180.3049,0.2501 C193.1189,0.2501 205.7589,3.6371 216.8569,10.0451 L323.8079,71.7921 C346.3539,84.8101 360.3599,109.0691 360.3599,135.1021 L360.3599,258.5991 C360.3599,284.6321 346.3539,308.8901 323.8089,321.9081 L216.8559,383.6571 C205.7579,390.0641 193.1189,393.4511 180.3049,393.4511 Z" id="Stroke-1" stroke="#64EFFF" stroke-width="0.5"></path>
                <path d="M180.3049,364.442 C172.5759,364.442 164.9519,362.399 158.2579,358.534 L51.3059,296.786 C37.7069,288.934 29.2589,274.302 29.2589,258.599 L29.2589,135.102 C29.2589,119.399 37.7069,104.767 51.3049,96.915 L158.2579,35.167 C164.9519,31.302 172.5759,29.259 180.3049,29.259 C188.0339,29.259 195.6579,31.302 202.3519,35.167 L309.3039,96.915 C322.9029,104.767 331.3509,119.399 331.3509,135.102 L331.3509,258.599 C331.3509,274.302 322.9029,288.934 309.3039,296.786 L202.3519,358.535 C195.6579,362.399 188.0339,364.442 180.3049,364.442 Z" id="Stroke-3" stroke="#64EFFF" stroke-width="0.5"></path>
                <path d="M296.5295,280.2345 L194.4045,339.1965 C185.6795,344.2335 174.9295,344.2335 166.2045,339.1965 L64.0805,280.2345 C55.3545,275.1965 49.9795,265.8875 49.9795,255.8125 L49.9795,137.8885 C49.9795,127.8135 55.3545,118.5045 64.0805,113.4665 L166.2045,54.5045 C174.9295,49.4675 185.6795,49.4675 194.4045,54.5045 L296.5295,113.4665 C305.2555,118.5045 310.6305,127.8135 310.6305,137.8885 L310.6305,255.8125 C310.6305,265.8875 305.2555,275.1965 296.5295,280.2345 Z" id="Stroke-5" stroke="#000076" stroke-width="2"></path>
                <path d="M136.1135,178.3302 C133.8505,177.0452 131.0165,178.6482 131.0135,181.2192 L130.9805,220.5172 C130.9775,224.0892 132.9285,227.4132 136.0705,229.2022 L170.6655,248.8802 C172.9285,250.1702 175.7625,248.5622 175.7645,245.9902 L175.7975,206.6932 C175.8015,203.1212 173.8555,199.7972 170.7085,198.0082 L136.1135,178.3302 Z" id="Fill-7" fill="#FFFFFF"></path>
                <path d="M219.0173,172.4662 C221.2823,171.1802 221.2853,167.9642 219.0223,166.6792 L184.4273,146.9962 C181.2863,145.2072 177.3843,145.2042 174.2333,146.9872 L139.6053,166.6122 C137.3403,167.8932 137.3383,171.1092 139.6003,172.3992 L174.1953,192.0772 C177.3373,193.8662 181.2393,193.8692 184.3893,192.0862 L219.0173,172.4662 Z" id="Fill-9" fill="#FFFFFF"></path>
                <path d="M227.5891,181.3007 C227.5911,178.7287 224.7601,177.1217 222.4951,178.4027 L187.8671,198.0227 C184.7161,199.8057 182.7661,203.1267 182.7621,206.6987 L182.7301,245.9967 C182.7271,248.5677 185.5591,250.1807 187.8241,248.8947 L222.4521,229.2747 C225.5971,227.4907 227.5531,224.1697 227.5561,220.5987 L227.5891,181.3007 Z" id="Fill-11" fill="#64EFFF"></path>
                <path d="M128.7,125.2887 C148.691,113.7467 171.959,100.3137 171.959,100.3137 C174.466,98.8657 177.322,98.1007 180.217,98.1007 C183.112,98.1007 185.968,98.8657 188.475,100.3137 L259.985,141.5997 C265.079,144.5407 268.243,150.0217 268.243,155.9037 L268.243,183.1657" id="Stroke-13" stroke="#FFFFFF" stroke-width="6" stroke-linecap="round" stroke-linejoin="round"></path>
                <path d="M268.2434,202.7384 L268.2434,238.4764 C268.2434,244.3574 265.0794,249.8384 259.9854,252.7804 L188.4754,294.0664 C185.9674,295.5134 183.1124,296.2794 180.2174,296.2794 C177.3214,296.2794 174.4664,295.5134 171.9584,294.0664 L100.4484,252.7804 C95.3544,249.8384 92.1904,244.3574 92.1904,238.4764 L92.1904,224.8424" id="Stroke-15" stroke="#FFFFFF" stroke-width="6" stroke-linecap="round" stroke-linejoin="round"></path>
                <path d="M92.1902,209.8358 L92.1902,155.9038 C92.1902,150.0218 95.3552,144.5408 100.4482,141.5998 C100.4482,141.5998 105.8012,138.5088 113.5772,134.0198" id="Stroke-17" stroke="#FFFFFF" stroke-width="6" stroke-linecap="round" stroke-linejoin="round"></path>
            </g>
        </g>
    </g>
</svg>