<?xml version="1.0" encoding="UTF-8"?>
<svg width="135px" height="290px" viewBox="0 0 135 290" version="1.1" xmlns="http://www.w3.org/2000/svg" xmlns:xlink="http://www.w3.org/1999/xlink">
    <!-- Generator: Sketch 51.2 (57519) - http://www.bohemiancoding.com/sketch -->
    <title>Fund icon</title>
    <desc>Created with Sketch.</desc>
    <defs>
        <path d="M180.211,21.886 L156.645,31.539 L156.645,46.687 L152.677,53.61 L133.524,54.208 L130.06,46.687 L130.06,31.431 L108.385,23.682 L104.195,33.259 C104.195,33.259 -9.181,130.578 1.592,130.578 C46.796,130.578 249.013,126.207 249.013,126.207 L220.314,3.331 L198.766,0.339" id="path-1"></path>
        <path d="M180.211,21.886 L156.645,31.539 L156.645,46.687 L152.677,53.61 L133.524,54.208 L130.06,46.687 L130.06,31.431 L108.385,23.682 L104.195,33.259 C104.195,33.259 -9.181,130.578 1.592,130.578 C46.796,130.578 249.013,126.207 249.013,126.207 L220.314,3.331 L198.766,0.339" id="path-3"></path>
        <path d="M180.211,21.886 L156.645,31.539 L156.645,46.687 L152.677,53.61 L133.524,54.208 L130.06,46.687 L130.06,31.431 L108.385,23.682 L104.195,33.259 C104.195,33.259 -9.181,130.578 1.592,130.578 C46.796,130.578 249.013,126.207 249.013,126.207 L220.314,3.331 L198.766,0.339" id="path-5"></path>
        <path d="M180.211,21.886 L156.645,31.539 L156.645,46.687 L152.677,53.61 L133.524,54.208 L130.06,46.687 L130.06,31.431 L108.385,23.682 L104.195,33.259 C104.195,33.259 -9.181,130.578 1.592,130.578 C46.796,130.578 249.013,126.207 249.013,126.207 L220.314,3.331 L198.766,0.339" id="path-7"></path>
        <path d="M180.211,21.886 L156.645,31.539 L156.645,46.687 L152.677,53.61 L133.524,54.208 L130.06,46.687 L130.06,31.431 L108.385,23.682 L104.195,33.259 C104.195,33.259 -9.181,130.578 1.592,130.578 C46.796,130.578 249.013,126.207 249.013,126.207 L220.314,3.331 L198.766,0.339" id="path-9"></path>
        <path d="M180.211,21.886 L156.645,31.539 L156.645,46.687 L152.677,53.61 L133.524,54.208 L130.06,46.687 L130.06,31.431 L108.385,23.682 L104.195,33.259 C104.195,33.259 -9.181,130.578 1.592,130.578 C46.796,130.578 249.013,126.207 249.013,126.207 L220.314,3.331 L198.766,0.339" id="path-11"></path>
    </defs>
    <g id="Desktop" stroke="none" stroke-width="1" fill="none" fill-rule="evenodd">
        <g id="6-About" transform="translate(-758.000000, -2224.000000)">
            <g id="Fund-icon" transform="translate(687.000000, 2223.000000)">
                <g id="Group-99" transform="translate(0.000000, 159.558000)">
                    <g id="Group-15">
                        <mask id="mask-2" fill="white">
                            <use xlink:href="#path-1"></use>
                        </mask>
                        <g id="Clip-14"></g>
                        <path d="M108.4842,94.6709 L105.8352,93.2629 C115.2962,75.4589 118.9502,55.4559 116.4032,35.4169 L119.3792,35.0379 C122.0052,55.6959 118.2372,76.3169 108.4842,94.6709" id="Fill-13" fill="#64EFFF" mask="url(#mask-2)"></path>
                    </g>
                    <g id="Group-48">
                        <mask id="mask-4" fill="white">
                            <use xlink:href="#path-3"></use>
                        </mask>
                        <g id="Clip-47"></g>
                        <path d="M72.2377,132.7969 C71.7377,132.7969 71.2477,132.5469 70.9637,132.0909 C70.5257,131.3879 70.7397,130.4629 71.4427,130.0249 C74.1977,128.3059 76.9007,126.4269 79.4747,124.4399 C87.0907,118.5619 93.7527,111.6449 99.2747,103.8829 C99.7547,103.2069 100.6907,103.0499 101.3667,103.5289 C102.0417,104.0099 102.1997,104.9459 101.7187,105.6209 C96.0257,113.6249 89.1577,120.7549 81.3077,126.8149 C78.6547,128.8619 75.8697,130.7989 73.0297,132.5689 C72.7827,132.7239 72.5087,132.7969 72.2377,132.7969" id="Fill-46" fill="#007BFF" mask="url(#mask-4)"></path>
                    </g>
                    <g id="Group-61">
                        <mask id="mask-6" fill="white">
                            <use xlink:href="#path-5"></use>
                        </mask>
                        <g id="Clip-60"></g>
                        <path d="M118.3128,128.3301 C117.9758,128.3301 117.6368,128.2171 117.3568,127.9851 C116.7188,127.4571 116.6298,126.5121 117.1588,125.8741 C135.9798,103.1351 144.6688,81.0431 145.3308,54.2421 C145.3508,53.4141 146.0058,52.7861 146.8678,52.7791 C147.6958,52.8001 148.3508,53.4881 148.3298,54.3161 C147.6498,81.8351 138.7488,104.4941 119.4688,127.7861 C119.1728,128.1441 118.7448,128.3301 118.3128,128.3301" id="Fill-59" fill="#007BFF" mask="url(#mask-6)"></path>
                    </g>
                    <g id="Group-70">
                        <mask id="mask-8" fill="white">
                            <use xlink:href="#path-7"></use>
                        </mask>
                        <g id="Clip-69"></g>
                        <path d="M136.4735,145.7109 C136.1315,145.7109 135.7865,145.5949 135.5055,145.3559 C134.8725,144.8199 134.7945,143.8739 135.3295,143.2409 C140.6045,137.0139 145.4005,130.3139 149.5835,123.3269 C150.0095,122.6149 150.9305,122.3849 151.6405,122.8109 C152.3515,123.2359 152.5825,124.1569 152.1575,124.8679 C147.8905,131.9939 142.9995,138.8279 137.6195,145.1809 C137.3225,145.5299 136.8995,145.7109 136.4735,145.7109" id="Fill-68" fill="#29EAEF" mask="url(#mask-8)"></path>
                    </g>
                    <g id="Group-73">
                        <mask id="mask-10" fill="white">
                            <use xlink:href="#path-9"></use>
                        </mask>
                        <g id="Clip-72"></g>
                        <path d="M170.6776,70.6846 C170.6006,70.6846 170.5236,70.6786 170.4456,70.6666 C169.6276,70.5396 169.0666,69.7736 169.1936,68.9556 C172.7096,46.2656 170.9886,22.7286 164.2146,0.8876 C163.9686,0.0966 164.4116,-0.7444 165.2026,-0.9894 C165.9926,-1.2354 166.8336,-0.7934 167.0796,-0.0014 C173.9886,22.2736 175.7436,46.2776 172.1576,69.4136 C172.0436,70.1556 171.4046,70.6846 170.6776,70.6846" id="Fill-71" fill="#FF6F00" mask="url(#mask-10)"></path>
                    </g>
                    <g id="Group-76">
                        <mask id="mask-12" fill="white">
                            <use xlink:href="#path-11"></use>
                        </mask>
                        <g id="Clip-75"></g>
                        <path d="M151.8372,123.957 C151.5812,123.957 151.3212,123.892 151.0842,123.754 C150.3682,123.337 150.1252,122.419 150.5422,121.703 C159.9902,105.462 166.2572,87.768 169.1692,69.111 C169.2962,68.292 170.0662,67.743 170.8822,67.86 C171.7012,67.988 172.2612,68.756 172.1332,69.574 C169.1642,88.601 162.7722,106.646 153.1352,123.211 C152.8572,123.69 152.3542,123.957 151.8372,123.957" id="Fill-74" fill="#FF6F00" mask="url(#mask-12)"></path>
                    </g>
                    <path d="M178.2406,130.6719 C178.0076,130.6719 177.7706,130.6169 177.5496,130.5019 C176.8146,130.1199 176.5296,129.2139 176.9116,128.4799 C195.6206,92.5459 201.3786,50.8869 193.1246,11.1759 C192.9566,10.3639 193.4776,9.5699 194.2886,9.4009 C195.0976,9.2319 195.8926,9.7529 196.0626,10.5649 C204.4566,50.9509 198.5996,93.3189 179.5726,129.8639 C179.3046,130.3779 178.7826,130.6719 178.2406,130.6719" id="Fill-83" fill="#007BFF"></path>
                </g>
                <g id="Group-108" transform="translate(80.000000, 0.558000)">
                    <path d="M58.7865,126.8936 C58.3805,126.8936 57.9685,126.8106 57.5735,126.6356 L44.2295,120.7276 C19.6065,110.0526 7.1115,93.4656 7.1115,71.4356 C7.1115,53.4666 16.9875,37.3036 33.5295,28.2016 C34.9805,27.4006 36.8055,27.9306 37.6035,29.3826 C38.4025,30.8336 37.8735,32.6586 36.4215,33.4566 C21.6075,41.6096 13.1115,55.4526 13.1115,71.4356 C13.1115,90.8526 24.3905,105.5866 46.6375,115.2316 L60.0025,121.1496 C61.5175,121.8206 62.2025,123.5916 61.5315,125.1076 C61.0355,126.2276 59.9375,126.8936 58.7865,126.8936" id="Fill-100" fill="#64EFFF"></path>
                    <path d="M65.7303,216.5459 L57.9183,216.5459 C51.9303,216.5459 47.0603,211.6749 47.0603,205.6869 L47.0603,192.9309 C30.3353,189.6099 15.5133,181.4429 4.0663,169.2129 C-1.1617,163.6069 -1.2867,155.0399 3.7733,149.2819 L13.3553,138.4309 C16.1353,135.3029 20.1173,133.4819 24.2863,133.4239 C24.4743,133.4259 24.6673,133.4369 24.8553,133.4709 C28.7403,134.1649 32.4663,135.0499 35.3553,138.2049 C43.0433,146.5149 53.3523,151.2859 63.6293,151.2859 C77.3843,151.2859 79.4383,145.3719 79.4383,141.8469 C79.4383,137.6049 79.4383,136.3239 64.3983,129.6569 L58.6313,127.1049 C57.1163,126.4339 56.4323,124.6619 57.1033,123.1469 C57.7733,121.6319 59.5453,120.9469 61.0603,121.6179 L66.8293,124.1719 C80.6563,130.3009 85.4383,132.8769 85.4383,141.8469 C85.4383,151.5149 77.2853,157.2859 63.6293,157.2859 C51.6853,157.2859 39.7713,151.8129 30.9413,142.2689 C29.3563,140.5379 27.0063,139.9599 24.1013,139.4319 C21.7103,139.5369 19.4433,140.6129 17.8463,142.4089 L8.2753,153.2479 C5.2643,156.6749 5.3383,161.7789 8.4513,165.1169 C19.5553,176.9819 34.1163,184.7129 50.5563,187.4719 C52.0013,187.7149 53.0603,188.9659 53.0603,190.4309 L53.0603,205.6869 C53.0603,208.3659 55.2393,210.5459 57.9183,210.5459 L65.7303,210.5459 C67.3873,210.5459 68.7303,211.8889 68.7303,213.5459 C68.7303,215.2029 67.3873,216.5459 65.7303,216.5459" id="Fill-102" fill="#007BFF"></path>
                    <path d="M68.7874,216.5459 L66.1674,216.5459 C64.5114,216.5459 63.1674,215.2029 63.1674,213.5459 C63.1674,211.8889 64.5114,210.5459 66.1674,210.5459 L68.7874,210.5459 C71.4664,210.5459 73.6454,208.3659 73.6454,205.6869 L73.6454,190.5389 C73.6454,189.0859 74.6864,187.8419 76.1174,187.5859 C91.3054,184.8659 103.8224,177.2669 111.3634,166.1869 C112.2944,164.8169 114.1604,164.4629 115.5314,165.3939 C116.9004,166.3259 117.2554,168.1919 116.3234,169.5619 C108.2864,181.3719 95.3274,189.6349 79.6454,193.0059 L79.6454,205.6869 C79.6454,211.6749 74.7744,216.5459 68.7874,216.5459" id="Fill-104" fill="#FF6F00"></path>
                    <path d="M114.8597,169.3105 C114.3177,169.3105 113.7687,169.1645 113.2747,168.8555 C111.8687,167.9785 111.4407,166.1275 112.3177,164.7225 C116.7627,157.5975 119.0177,149.5435 119.0177,140.7855 C119.0177,113.1135 99.5437,101.7015 84.8967,95.5245 L63.5237,86.0635 C52.9627,81.4435 46.4827,78.2205 46.4827,70.5815 C46.4827,61.0865 55.9957,57.7045 64.8987,57.7045 C74.8607,57.7045 83.3597,61.2745 90.8807,68.6195 C92.7417,70.4435 95.2287,71.4545 97.0657,71.1325 C97.1927,71.1105 97.3217,71.0965 97.4517,71.0915 C99.8677,70.9905 102.1597,69.8685 103.7407,68.0125 L112.2547,57.9985 C115.1647,54.5725 115.0397,49.5255 111.9637,46.2605 C102.8247,36.4935 90.1037,29.7935 76.1367,27.3895 C74.6977,27.1425 73.6457,25.8945 73.6457,24.4335 L73.6457,11.3015 C73.6457,8.6225 71.4657,6.4425 68.7877,6.4425 L57.9177,6.4425 C56.7647,6.4425 55.6897,6.8315 54.8057,7.5705 C53.5337,8.6335 51.6427,8.4635 50.5797,7.1925 C49.5177,5.9205 49.6867,4.0295 50.9587,2.9665 C52.9057,1.3385 55.3777,0.4425 57.9177,0.4425 L68.7877,0.4425 C74.7747,0.4425 79.6457,5.3135 79.6457,11.3015 L79.6457,21.9505 C93.9137,24.9145 106.8667,32.0305 116.3387,42.1535 C121.5057,47.6375 121.7187,56.1235 116.8267,61.8835 L108.3097,71.9015 C105.6887,74.9775 101.9007,76.8565 97.8907,77.0775 C94.1687,77.6435 89.8947,76.0545 86.6847,72.9085 C80.3447,66.7155 73.2167,63.7045 64.8987,63.7045 C61.9857,63.7045 52.4827,64.2005 52.4827,70.5815 C52.4827,73.6605 54.4277,75.5355 65.9407,80.5725 L87.2767,90.0165 C94.0577,92.8755 104.0547,97.6775 111.9707,106.0875 C120.6277,115.2855 125.0177,126.9585 125.0177,140.7855 C125.0177,150.6835 122.4577,159.8065 117.4077,167.8985 C116.8387,168.8105 115.8607,169.3105 114.8597,169.3105" id="Fill-106" fill="#007BFF"></path>
                </g>
            </g>
        </g>
    </g>
</svg>