<?xml version="1.0" encoding="UTF-8"?>
<svg width="308px" height="156px" viewBox="0 0 308 156" version="1.1" xmlns="http://www.w3.org/2000/svg" xmlns:xlink="http://www.w3.org/1999/xlink">
    <!-- Generator: Sketch 51.3 (57544) - http://www.bohemiancoding.com/sketch -->
    <title>Production</title>
    <desc>Created with Sketch.</desc>
    <defs></defs>
    <g id="Desktop" stroke="none" stroke-width="1" fill="none" fill-rule="evenodd">
        <g id="2-Services" transform="translate(-727.000000, -1898.000000)">
            <g id="Production" transform="translate(730.000000, 1899.000000)">
                <path d="M145.2897,23.9414 L106.7337,23.9414" id="Stroke-1" stroke="#FF6F00" stroke-width="6.698" stroke-linecap="round" stroke-linejoin="round"></path>
                <path d="M146.9174,136.2464 L108.3614,136.2464" id="Stroke-2" stroke="#64EEFF" stroke-width="6.698" stroke-linecap="round" stroke-linejoin="round"></path>
                <path d="M82.2216,80.9074 L41.5306,80.9074" id="Stroke-3" stroke="#007BFF" stroke-width="6.698" stroke-linecap="round" stroke-linejoin="round"></path>
                <path d="M116.4999,80.9074 L96.9679,80.9074" id="Stroke-4" stroke="#000075" stroke-width="6.698" stroke-linecap="round" stroke-linejoin="round"></path>
                <path d="M19.8805,80.9074 L0.3495,80.9074" id="Stroke-5" stroke="#000075" stroke-width="6.698" stroke-linecap="round" stroke-linejoin="round"></path>
                <path d="M55.2228,53.2381 L32.4358,53.2381" id="Stroke-7" stroke="#007BFF" stroke-width="6.698" stroke-linecap="round" stroke-linejoin="round"></path>
                <path d="M133.348,53.2381 L73.126,53.2381" id="Stroke-8" stroke="#64EEFF" stroke-width="6.698" stroke-linecap="round" stroke-linejoin="round"></path>
                <path d="M61.7333,110.2044 L47.0843,110.2044" id="Stroke-9" stroke="#FF6F00" stroke-width="6.698" stroke-linecap="round" stroke-linejoin="round"></path>
                <path d="M136.0311,110.2044 L75.8091,110.2044" id="Stroke-10" stroke="#000076" stroke-width="6.698" stroke-linecap="round" stroke-linejoin="round"></path>
                <g id="Group-21" transform="translate(153.000000, 0.369000)">
                    <path d="M29.8312,93.773 C24.9032,79.754 26.6582,63.634 35.9622,50.632 C42.9822,40.821 53.0692,34.505 63.9812,32.055" id="Stroke-11" stroke="#007BFF" stroke-width="7.41" stroke-linecap="round" stroke-linejoin="round"></path>
                    <path d="M75.8727,30.9268 C84.8807,31.2128 93.9047,34.0788 101.7847,39.7168 C112.3797,47.2978 118.8987,58.4568 120.8747,70.3678" id="Stroke-13" stroke="#000075" stroke-width="6.02" stroke-linecap="round" stroke-linejoin="round"></path>
                    <path d="M121.4274,80.9791 C120.9094,89.5351 118.0554,98.0541 112.6994,105.5401 C106.2794,114.5121 97.2944,120.5621 87.4584,123.4041" id="Stroke-15" stroke="#FF6F00" stroke-width="6.02" stroke-linecap="round" stroke-linejoin="round"></path>
                    <path d="M76.0665,125.2357 C65.9885,125.6137 55.7125,122.7777 46.8765,116.4547 C43.4705,114.0177 40.4855,111.2107 37.9375,108.1277" id="Stroke-17" stroke="#64EFFF" stroke-width="6.02" stroke-linecap="round" stroke-linejoin="round"></path>
                    <path d="M147.6425,57.4055 L141.8765,44.7395 C140.9555,42.7185 138.6825,41.6905 136.5565,42.3345 L130.9625,44.0285 C129.0765,44.5995 127.0555,43.8465 125.9695,42.2025 C123.9575,39.1565 121.6875,36.2975 119.1885,33.6595 C117.8535,32.2505 117.5665,30.1515 118.5055,28.4535 L121.1755,23.6225 C122.2495,21.6785 121.7195,19.2395 119.9355,17.9165 L111.8595,11.9315 C110.0775,10.6105 107.5925,10.8105 106.0445,12.4005 L101.2535,17.3195 C100.0085,18.5975 98.1235,18.9965 96.4625,18.3465 C93.0285,17.0045 89.4435,15.9535 85.7465,15.2365 C83.8735,14.8725 82.4325,13.3725 82.1775,11.4825 L81.2785,4.8365 C80.9815,2.6375 79.1045,0.9975 76.8855,0.9975 L66.8255,0.9975 C64.6045,0.9975 62.7255,2.6415 62.4315,4.8435 L61.4215,12.4045 C61.1835,14.1855 59.8925,15.6455 58.1525,16.0965 C54.5925,17.0175 51.1605,18.2495 47.8825,19.7495 C46.2475,20.4975 44.3265,20.1825 43.0165,18.9505 L38.1865,14.4095 C36.5705,12.8905 34.0815,12.7995 32.3585,14.1955 L24.5485,20.5245 C22.8215,21.9235 22.3985,24.3845 23.5575,26.2805 L26.5155,31.1185 C27.5165,32.7555 27.3395,34.8415 26.0985,36.3055 C23.6645,39.1805 21.4865,42.2765 19.6045,45.5595 C18.6745,47.1815 16.8395,48.0565 14.9985,47.7355 L8.9225,46.6755 C6.7385,46.2945 4.6085,47.5865 3.9365,49.6985 L0.8925,59.2645 C0.2195,61.3825 1.2165,63.6715 3.2265,64.6185 L9.0435,67.3605 C10.7145,68.1475 11.7105,69.8865 11.5655,71.7275 C11.4425,73.2865 11.3745,74.8605 11.3745,76.4525 C11.3745,78.8735 11.5185,81.2545 11.7975,83.5975 C12.0255,85.5085 11.0105,87.3475 9.2635,88.1535 L3.2965,90.9095 C1.2785,91.8415 0.2625,94.1225 0.9205,96.2455 L3.8895,105.8305 C4.5465,107.9505 6.6685,109.2575 8.8565,108.8905 L16.5125,107.6085 C18.2725,107.3135 20.0325,108.1065 20.9855,109.6155 C23.1125,112.9865 25.5425,116.1335 28.2485,119.0265 C29.4655,120.3295 29.7885,122.2295 29.0605,123.8575 L26.2915,130.0485 C25.3845,132.0765 26.1195,134.4635 28.0105,135.6305 L36.5745,140.9165 C38.4615,142.0805 40.9195,141.6715 42.3275,139.9575 L45.8025,135.7295 C47.0275,134.2385 49.0715,133.7215 50.8655,134.4335 C54.1025,135.7185 57.4685,136.7405 60.9465,137.4795 C62.7645,137.8655 64.1475,139.3435 64.4085,141.1835 L65.3505,147.8235 C65.6615,150.0215 67.5515,151.6495 69.7715,151.6335 L79.8305,151.5615 C82.0495,151.5455 83.9145,149.8915 84.1965,147.6915 L85.0755,140.8175 C85.3095,138.9945 86.6455,137.5095 88.4325,137.0795 C92.4355,136.1155 96.2895,134.7645 99.9595,133.0705 C101.7105,132.2625 103.7785,132.6615 105.0845,134.0805 L108.9605,138.2875 C110.4635,139.9195 112.9405,140.1885 114.7585,138.9185 L122.9945,133.1665 C124.8175,131.8945 125.4155,129.4685 124.3935,127.4955 L121.1845,121.2955 C120.3645,119.7085 120.5815,117.7905 121.7265,116.4195 C124.1645,113.5015 126.3415,110.3655 128.2275,107.0435 C129.1515,105.4155 130.9865,104.5315 132.8325,104.8475 L140.5605,106.1745 C142.7475,106.5495 144.8745,105.2505 145.5395,103.1335 L148.5495,93.5535 C149.2155,91.4325 148.2085,89.1465 146.1945,88.2075 L138.6945,84.7095 C137.0295,83.9325 136.0335,82.2115 136.1505,80.3785 C136.2335,79.0805 136.2775,77.7715 136.2775,76.4525 C136.2775,74.5565 136.1875,72.6775 136.0175,70.8235" id="Stroke-19" stroke="#000076" stroke-width="4.732"></path>
                </g>
            </g>
        </g>
    </g>
</svg>