<?xml version="1.0" encoding="UTF-8"?>
<svg width="261px" height="261px" viewBox="0 0 261 261" version="1.1" xmlns="http://www.w3.org/2000/svg" xmlns:xlink="http://www.w3.org/1999/xlink">
    <!-- Generator: Sketch 51.2 (57519) - http://www.bohemiancoding.com/sketch -->
    <title>People icon</title>
    <desc>Created with Sketch.</desc>
    <defs></defs>
    <g id="Desktop" stroke="none" stroke-width="1" fill="none" fill-rule="evenodd">
        <g id="6-About" transform="translate(-422.000000, -1928.000000)">
            <g id="People-icon" transform="translate(422.000000, 1928.000000)">
                <g id="Group-22" fill="#64EFFF">
                    <path d="M0.872346773,136.497716 C0.698647962,136.497716 0.553681285,136.360609 0.546498252,136.184982 C0.466178877,134.314458 0.425692688,132.415207 0.425692688,130.540113 C0.425692688,58.7087286 58.8746896,0.270687342 130.718085,0.270687342 C130.898314,0.270687342 131.044587,0.416281353 131.044587,0.597131314 C131.044587,0.777328386 130.898314,0.923575286 130.718085,0.923575286 C59.2344943,0.923575286 1.07869574,59.0691227 1.07869574,130.540113 C1.07869574,132.405414 1.11918193,134.295525 1.1988483,136.157561 C1.20668433,136.337758 1.06694168,136.489228 0.88671284,136.497716 L0.872346773,136.497716 Z" id="Fill-3"></path>
                    <path d="M193.338661,16.8623981 C193.311888,16.8623981 193.284462,16.8558692 193.259648,16.8421586 C184.150908,11.8142685 174.455772,7.89824662 164.443276,5.2024723 C164.356427,5.17831544 164.30484,5.08952268 164.328348,5.0020357 C164.351856,4.9152016 164.443276,4.86492923 164.528167,4.88712742 C174.56613,7.58943062 184.28608,11.5158987 193.417675,16.5561936 C193.496688,16.5999371 193.52542,16.6991761 193.481669,16.7781755 C193.451631,16.8317124 193.396126,16.8623981 193.338661,16.8623981" id="Fill-5"></path>
                    <path d="M258.394417,106.513967 C258.240961,106.513967 258.10383,106.404935 258.073792,106.248895 C251.050744,69.3626846 228.284446,37.3287376 195.611438,18.3610371 C195.455371,18.2709385 195.402477,18.0705019 195.492592,17.9151146 C195.583359,17.7590744 195.783178,17.7068434 195.939246,17.796289 C228.776157,36.8586583 251.657384,69.0545215 258.715694,106.126152 C258.748997,106.303737 258.632763,106.474141 258.455799,106.508091 C258.434903,106.512009 258.41466,106.513967 258.394417,106.513967" id="Fill-7"></path>
                    <path d="M130.717954,260.809017 C102.274448,260.809017 75.2309793,251.770436 52.5116973,234.670648 C30.5381447,218.13169 14.0439407,194.6336 6.06750843,168.503066 C6.01526818,168.330704 6.11191264,168.148548 6.28430544,168.095664 C6.45669825,168.043433 6.6395391,168.14006 6.69177934,168.313076 C14.6283784,194.311074 31.040304,217.692297 52.9041521,234.14899 C75.5098116,251.16325 102.417455,260.156129 130.717954,260.156129 C165.046978,260.156129 197.422869,246.820892 221.882404,222.60789 C246.324308,198.412516 259.985132,166.211429 260.349508,131.938077 C260.351467,131.759185 260.497086,131.614897 260.676009,131.614897 L260.679274,131.614897 C260.859503,131.616856 261.00447,131.765061 261.002511,131.944606 C260.636829,166.391626 246.906787,198.754629 222.342118,223.072093 C197.759818,247.407186 165.220023,260.809017 130.717954,260.809017" id="Fill-9"></path>
                    <path d="M232.952438,151.676055 C232.909993,151.676055 232.866895,151.672137 232.823797,151.662997 C232.469869,151.592485 232.240665,151.249066 232.311842,150.895201 C233.644621,144.235743 234.319827,137.386949 234.319827,130.540113 C234.319827,73.4241699 187.844294,26.9561763 130.717628,26.9561763 C128.964315,26.9561763 127.196635,26.9999198 125.464871,27.0874068 C125.108985,27.1193983 124.798155,26.8282103 124.779871,26.4678161 C124.761587,26.1080748 125.039113,25.8012175 125.398918,25.7829367 C127.152884,25.6947968 128.942766,25.6504004 130.717628,25.6504004 C188.564556,25.6504004 235.625833,72.7033817 235.625833,130.540113 C235.625833,137.47313 234.941486,144.407453 233.591728,151.151133 C233.529693,151.461907 233.257391,151.676055 232.952438,151.676055" id="Fill-12"></path>
                    <path d="M130.717954,235.429303 C72.8716793,235.429303 25.8097496,188.376322 25.8097496,130.540244 C25.8097496,97.9774574 40.6094107,67.7892247 66.4141322,47.7161848 C66.6981885,47.4942029 67.1089274,47.546434 67.3309485,47.8304402 C67.5523165,48.1157523 67.5007293,48.5257659 67.2166729,48.7470949 C41.7319229,68.5707315 27.1157557,98.3829009 27.1157557,130.540244 C27.1157557,187.656187 73.5912887,234.123528 130.717954,234.123528 C168.555563,234.123528 203.395235,213.446566 221.64014,180.161686 C221.812533,179.844383 222.209559,179.728169 222.526265,179.90249 C222.842972,180.076158 222.958553,180.472461 222.785507,180.789111 C204.310745,214.492493 169.032908,235.429303 130.717954,235.429303" id="Fill-14"></path>
                    <path d="M59.3021454,92.4520015 C59.0324551,92.4520015 58.7594998,92.3854069 58.5074407,92.245036 C57.720572,91.8056424 57.4384747,90.8106412 57.8785987,90.0239112 C72.6377736,63.602189 100.54843,47.1879332 130.717824,47.1879332 C153.634313,47.1879332 175.79593,56.803014 191.520244,73.5691764 C192.136679,74.2266345 192.104028,75.2595032 191.445801,75.8758295 C190.787574,76.4934615 189.754523,76.4595113 189.138742,75.8020531 C174.028904,59.6920431 152.735781,50.4523729 130.717824,50.4523729 C101.730365,50.4523729 74.9121833,66.2248399 60.728957,91.615652 C60.4305346,92.1510201 59.874176,92.4520015 59.3021454,92.4520015" id="Fill-17"></path>
                    <path d="M130.717954,213.89164 C84.7491518,213.89164 47.3510142,176.500095 47.3510142,130.540048 C47.3510142,126.088005 47.7069008,121.618334 48.4088791,117.255737 C48.5518868,116.366503 49.3883837,115.754095 50.2797328,115.904259 C51.170429,116.047241 51.7757628,116.884896 51.6327552,117.774783 C50.958203,121.96567 50.6160294,126.260367 50.6160294,130.540048 C50.6160294,174.700735 86.5494812,210.6272 130.717954,210.6272 C174.886428,210.6272 210.819879,174.700735 210.819879,130.540048 C210.819879,117.302092 207.505889,104.17578 201.237713,92.5804898 C200.80869,91.7885368 201.1045,90.7974529 201.897246,90.3691584 C202.690644,89.9415168 203.68125,90.2359692 204.10962,91.0292281 C210.63508,103.099168 214.084895,116.762154 214.084895,130.540048 C214.084895,176.500095 176.686757,213.89164 130.717954,213.89164" id="Fill-19"></path>
                </g>
                <g id="Group-57" transform="translate(77.000000, 67.000000)">
                    <path d="M37.1684945,120.058607 C36.2645673,120.058607 35.5321309,119.330655 35.5321309,118.432263 L35.5321309,61.7327038 C35.5321309,60.8343113 36.2645673,60.1063597 37.1684945,60.1063597 C38.0724218,60.1063597 38.8048582,60.8343113 38.8048582,61.7327038 L38.8048582,118.432263 C38.8048582,119.330655 38.0724218,120.058607 37.1684945,120.058607" id="Fill-23" fill="#FF6F00"></path>
                    <path d="M65.0451273,120.058607 C64.1412,120.058607 63.4087636,119.330655 63.4087636,118.432263 L63.4087636,61.7327038 C63.4087636,60.8343113 64.1412,60.1063597 65.0451273,60.1063597 C65.9490545,60.1063597 66.6814909,60.8343113 66.6814909,61.7327038 L66.6814909,118.432263 C66.6814909,119.330655 65.9490545,120.058607 65.0451273,120.058607" id="Fill-25" fill="#007BFF"></path>
                    <path d="M31.9141964,88.2603925 C31.4612509,88.2603925 31.0102691,88.0743387 30.6869236,87.7100376 C26.7262691,83.2506022 24.5446691,77.5362796 24.5446691,71.6202903 L24.5446691,63.7435806 C24.5446691,50.3086774 35.5416873,39.3789946 49.05936,39.3789946 L53.3839418,39.3789946 C53.9383418,39.3789946 54.6570327,39.3789946 55.2127418,39.8506344 C55.2238691,39.852586 55.2349964,39.8545376 55.2461236,39.8571398 C56.1349964,40.0178226 56.7247418,40.8648226 56.5624145,41.7482527 C56.4007418,42.6316828 55.5485236,43.2217204 54.6589964,43.0564839 C54.2492509,42.9823226 53.8067782,42.8801882 53.4205964,42.6316828 L53.3839418,42.6316828 L49.05936,42.6316828 C37.3462691,42.6316828 27.8173964,52.1022097 27.8173964,63.7435806 L27.8173964,71.6202903 C27.8173964,76.7426237 29.7077236,81.6925645 33.1408145,85.5580591 C33.7384145,86.2313656 33.6736145,87.2592151 32.99616,87.8531559 C32.6852509,88.1263817 32.2990691,88.2603925 31.9141964,88.2603925" id="Fill-27" fill="#000076"></path>
                    <path d="M73.4398036,54.4610591 C72.8624945,54.4610591 72.3035127,54.1572581 72.00504,53.619914 C69.7678036,49.5852796 66.2116582,46.3299892 61.9904945,44.4538387 C61.1657673,44.087586 60.7959491,43.1254409 61.1651127,42.3051129 C61.5336218,41.486086 62.5003855,41.1172312 63.3264218,41.4847849 C68.1929673,43.647172 72.29304,47.4001237 74.8712945,52.0495161 C75.3078764,52.8366667 75.0198764,53.8254839 74.2278764,54.2587419 C73.97784,54.3960054 73.7068582,54.4610591 73.4398036,54.4610591" id="Fill-29" fill="#29EAEF"></path>
                    <path d="M70.0971055,88.7330081 C69.6971782,88.7330081 69.2965964,88.5879382 68.9811055,88.2958468 C68.3200145,87.6830403 68.2846691,86.6538898 68.9012509,85.9968468 C72.5922327,82.0662984 74.6252509,76.9602285 74.6252509,71.6199651 L74.6252509,63.7432554 C74.6252509,62.4883683 74.5277236,62.1832661 74.2678691,61.3668414 C74.1592145,61.0266102 74.0322327,60.6284812 73.8875782,60.0989435 C73.6499782,59.2317769 74.1644509,58.3379382 75.03696,58.1024435 C75.9075055,57.8662984 76.8075055,58.3782715 77.0451055,59.2447876 C77.17536,59.7203306 77.2899055,60.0781263 77.3874327,60.383879 C77.72256,61.4364489 77.8979782,62.0635672 77.8979782,63.7432554 L77.8979782,71.6199651 C77.8979782,77.7870618 75.5520873,83.6809328 71.2936145,88.2164812 C70.9715782,88.5593145 70.5349964,88.7330081 70.0971055,88.7330081" id="Fill-31" fill="#007BFF"></path>
                    <path d="M52.6458764,3.63273226 C46.60704,3.63273226 41.6940218,8.51566774 41.6940218,14.517528 L41.6940218,20.4276624 C41.6940218,26.4301731 46.60704,31.3131086 52.6458764,31.3131086 C58.6847127,31.3131086 63.5977309,26.4301731 63.5977309,20.4276624 L63.5977309,14.517528 C63.5977309,8.51566774 58.6847127,3.63273226 52.6458764,3.63273226 M52.6458764,34.5657968 C44.8024582,34.5657968 38.4212945,28.2237054 38.4212945,20.4276624 L38.4212945,14.517528 C38.4212945,6.72213548 44.8024582,0.380044086 52.6458764,0.380044086 C60.4892945,0.380044086 66.8704582,6.72213548 66.8704582,14.517528 L66.8704582,20.4276624 C66.8704582,28.2237054 60.4892945,34.5657968 52.6458764,34.5657968" id="Fill-33" fill="#007BFF"></path>
                    <path d="M50.2395709,120.072528 C49.3356436,120.072528 48.6032073,119.344577 48.6032073,118.446184 L48.6032073,86.3824855 C48.6032073,85.484093 49.3356436,84.7561414 50.2395709,84.7561414 C51.1434982,84.7561414 51.8759345,85.484093 51.8759345,86.3824855 L51.8759345,118.446184 C51.8759345,119.344577 51.1434982,120.072528 50.2395709,120.072528" id="Fill-35" fill="#007BFF"></path>
                    <path d="M87.22584,35.8197731 L84.0015491,35.8197731 C83.90664,35.8197731 81.9587127,35.817171 81.8651127,35.8132677 C80.96184,35.7820419 80.2549309,35.0293699 80.2863491,34.131628 C80.3184218,33.2332355 81.0665673,32.5111387 81.9790036,32.5631817 C82.1360945,32.5651333 83.9125309,32.5670849 84.0015491,32.5670849 L87.22584,32.5670849 C90.8795127,32.5670849 93.8518036,29.6129935 93.8518036,25.9816925 L93.8518036,18.1407624 C93.8518036,14.5101118 90.8795127,11.5560204 87.22584,11.5560204 L84.0015491,11.5560204 C83.3797309,11.5560204 81.4619127,11.5989559 81.1097673,11.6457946 C80.2222036,11.7602892 79.3876582,11.1559398 79.25544,10.2770634 C79.1225673,9.39948817 79.7038036,8.58046129 80.5854764,8.43474086 C81.2694764,8.32089677 83.9753673,8.30333226 84.0015491,8.30333226 L87.22584,8.30333226 C92.68344,8.30333226 97.1245309,12.7165796 97.1245309,18.1407624 L97.1245309,25.9816925 C97.1245309,31.4065258 92.68344,35.8197731 87.22584,35.8197731" id="Fill-37" fill="#007BFF"></path>
                    <path d="M103.467076,57.1896742 C102.889767,57.1896742 102.330785,56.8858731 102.032313,56.348529 C100.253913,53.142029 97.4275855,50.5554914 94.0736945,49.0651097 C93.2489673,48.6982065 92.8791491,47.7367118 93.2483127,46.9163839 C93.6168218,46.0967065 94.5848945,45.7285022 95.4096218,46.0954054 C99.4095491,47.8726742 102.779149,50.9562226 104.898567,54.7781312 C105.335149,55.5652817 105.047149,56.5540989 104.255149,56.987357 C104.005113,57.1246204 103.734131,57.1896742 103.467076,57.1896742" id="Fill-39" fill="#000076"></path>
                    <path d="M100.761316,84.925086 C100.361389,84.925086 99.9608073,84.7800161 99.6453164,84.4879247 C98.98488,83.8751183 98.9482255,82.8459677 99.5654618,82.1889247 C102.49848,79.065043 104.113898,75.0082903 104.113898,70.7654839 L104.113898,64.3915161 C104.113898,63.6655161 104.087716,63.6050161 103.978407,63.3467527 C103.871062,63.0949946 103.709389,62.7137796 103.527425,62.0502312 C103.29048,61.1837151 103.804953,60.2898763 104.676807,60.0543817 C105.548662,59.8169355 106.448007,60.3302097 106.685607,61.1967258 C106.809316,61.6495 106.902916,61.8693817 106.993244,62.0821075 C107.260298,62.7111774 107.386625,63.1437849 107.386625,64.3915161 L107.386625,70.7654839 C107.386625,75.8344731 105.458335,80.680328 101.957825,84.4085591 C101.635789,84.7513925 101.199207,84.925086 100.761316,84.925086" id="Fill-41" fill="#007BFF"></path>
                    <path d="M99.4481018,120.531223 C98.5441745,120.531223 97.8117382,119.803271 97.8117382,118.904878 L97.8117382,70.5692817 C97.8117382,69.6708892 98.5441745,68.9429376 99.4481018,68.9429376 C100.352029,68.9429376 101.084465,69.6708892 101.084465,70.5692817 L101.084465,118.904878 C101.084465,119.803271 100.352029,120.531223 99.4481018,120.531223" id="Fill-43" fill="#007BFF"></path>
                    <path d="M86.9235055,120.072528 C86.0195782,120.072528 85.2871418,119.344577 85.2871418,118.446184 L85.2871418,96.2706575 C85.2871418,95.3722651 86.0195782,94.6443134 86.9235055,94.6443134 C87.8274327,94.6443134 88.5598691,95.3722651 88.5598691,96.2706575 L88.5598691,118.446184 C88.5598691,119.344577 87.8274327,120.072528 86.9235055,120.072528" id="Fill-45" fill="#FF6F00"></path>
                    <path d="M23.6473527,35.8197731 L20.4230618,35.8197731 C14.9648073,35.8197731 10.5243709,31.4065258 10.5243709,25.9816925 L10.5243709,18.1407624 C10.5243709,12.7165796 14.9648073,8.30333226 20.4230618,8.30333226 L23.6473527,8.30333226 C23.6735345,8.30333226 26.3787709,8.32089677 27.0634255,8.43474086 C27.9549164,8.5824129 28.5570982,9.42030538 28.4085164,10.3063376 C28.2605891,11.1891172 27.42408,11.7856602 26.5358618,11.6451441 C26.1732436,11.5983054 24.2672073,11.5560204 23.6473527,11.5560204 L20.4230618,11.5560204 C16.7693891,11.5560204 13.7970982,14.5101118 13.7970982,18.1407624 L13.7970982,25.9816925 C13.7970982,29.6129935 16.7693891,32.5670849 20.4230618,32.5670849 L23.6473527,32.5670849 C23.7357164,32.5670849 25.5128073,32.5651333 25.6882255,32.5625312 C25.6973891,32.5625312 25.7072073,32.5618806 25.7163709,32.5618806 C26.6019709,32.5618806 27.3337527,33.2631602 27.3573164,34.1465903 C27.38088,35.0384774 26.6811709,35.7820419 25.7837891,35.8132677 C25.6901891,35.817171 23.7422618,35.8197731 23.6473527,35.8197731" id="Fill-47" fill="#007BFF"></path>
                    <path d="M4.18202182,57.1896742 C3.91496727,57.1896742 3.64398545,57.1246204 3.39394909,56.987357 C2.60194909,56.5540989 2.31394909,55.5652817 2.75053091,54.7781312 C4.86994909,50.9562226 8.23954909,47.8726742 12.2394764,46.0954054 C13.0648582,45.7291527 14.0322764,46.097357 14.4007855,46.9163839 C14.7699491,47.7367118 14.4001309,48.6982065 13.5754036,49.0651097 C10.2215127,50.5554914 7.39518545,53.142029 5.61678545,56.348529 C5.31831273,56.8858731 4.75933091,57.1896742 4.18202182,57.1896742" id="Fill-49" fill="#64EFFF"></path>
                    <path d="M6.88745455,84.925086 C6.44956364,84.925086 6.01298182,84.7513925 5.69094545,84.4085591 C2.19043636,80.680328 0.262145455,75.8344731 0.262145455,70.7654839 L0.262145455,64.3915161 C0.262145455,63.1437849 0.388472727,62.7111774 0.655527273,62.0821075 C0.745854545,61.8693817 0.839454545,61.6495 0.963163636,61.1967258 C1.20010909,60.3302097 2.09945455,59.8169355 2.97196364,60.0543817 C3.84381818,60.2898763 4.35829091,61.1837151 4.12134545,62.0502312 C3.93938182,62.7137796 3.77770909,63.0949946 3.67036364,63.3467527 C3.56105455,63.6050161 3.53487273,63.6655161 3.53487273,64.3915161 L3.53487273,70.7654839 C3.53487273,75.0082903 5.15029091,79.065043 8.08330909,82.1889247 C8.70054545,82.8459677 8.66389091,83.8751183 8.00345455,84.4879247 C7.68796364,84.7800161 7.28738182,84.925086 6.88745455,84.925086" id="Fill-51" fill="#007BFF"></path>
                    <path d="M8.20066909,120.531223 C7.29674182,120.531223 6.56430545,119.803271 6.56430545,118.904878 L6.56430545,70.5692817 C6.56430545,69.6708892 7.29674182,68.9429376 8.20066909,68.9429376 C9.10459636,68.9429376 9.83703273,69.6708892 9.83703273,70.5692817 L9.83703273,118.904878 C9.83703273,119.803271 9.10459636,120.531223 8.20066909,120.531223" id="Fill-53" fill="#007BFF"></path>
                    <path d="M20.7252655,120.072528 C19.8213382,120.072528 19.0889018,119.344577 19.0889018,118.446184 L19.0889018,96.2706575 C19.0889018,95.3722651 19.8213382,94.6443134 20.7252655,94.6443134 C21.6291927,94.6443134 22.3616291,95.3722651 22.3616291,96.2706575 L22.3616291,118.446184 C22.3616291,119.344577 21.6291927,120.072528 20.7252655,120.072528" id="Fill-55" fill="#007BFF"></path>
                </g>
            </g>
        </g>
    </g>
</svg>