<?xml version="1.0" encoding="utf-8"?>
<svg version="1.1" id="Layer_1" xmlns="http://www.w3.org/2000/svg" xmlns:xlink="http://www.w3.org/1999/xlink" x="0px" y="0px"
	 viewBox="0 0 141.7 183" style="enable-background:new 0 0 141.7 183;" xml:space="preserve">
<style type="text/css">
	.st0{opacity:0.3;fill:#161656;enable-background:new    ;}
	.st1{fill:#161656;}
	.st2{fill:#ff6f00;}
	.st3{fill:#ffffff;}
	.st4{fill:#64f0ff;}
	.st5{fill:none;stroke:#ffffff;stroke-width:4;stroke-linecap:round;stroke-linejoin:round;}
	.st6{fill:none;stroke:#161656;stroke-width:4;stroke-linecap:round;stroke-linejoin:round;}
	.st7{fill:none;stroke:#ff6f00;stroke-width:4;stroke-linecap:round;stroke-linejoin:round;}
</style>
<title>Thumb icon</title>
<g id="Desktop">
	<g id="APPII" transform="translate(-1102.000000, -3063.000000)">
		<g id="Group-29" transform="translate(1104.076923, 3065.000000)">
			<path id="Fill-1" class="st0" d="M100.5,141.3c0,2.3-14.7,4.2-32.9,4.2s-32.9-1.9-32.9-4.2c0-2.3,14.7-4.2,32.9-4.2
				S100.5,139,100.5,141.3"/>
			<path id="Fill-3" class="st1" d="M47,61.8c-0.4,0-0.8-0.1-1.1-0.4c-0.6-0.6-0.7-1.6-0.1-2.2c0.2-0.2,4.8-5.2,12.4-8.1
				c7.1-2.7,18.1-3.9,30.7,5.5c0.7,0.5,0.8,1.5,0.3,2.2c-0.5,0.7-1.5,0.8-2.2,0.3c-9.2-6.8-18.5-8.5-27.7-5.1
				c-6.9,2.6-11.1,7.2-11.2,7.3C47.8,61.6,47.4,61.8,47,61.8"/>
			<path id="Fill-5" class="st2" d="M45.8,73.8c-0.2,0-0.5,0-0.7-0.2c-0.8-0.4-1.1-1.3-0.7-2.1c0.1-0.2,1.8-3.7,4.9-7.4
				c4.2-5,9-7.7,13.8-7.9c0,0,0,0,0,0c0.9,0,1.6,0.7,1.6,1.5c0,0.9-0.6,1.6-1.5,1.6c-9.6,0.3-15.9,13.3-16,13.5
				C47,73.5,46.4,73.8,45.8,73.8"/>
			<path id="Fill-7" class="st3" d="M93.3,87.6c-0.1,0-0.2,0-0.3,0c-0.9-0.1-1.5-0.9-1.3-1.8c0-0.2,1.5-10.9-4.7-18.7
				c-3.8-4.8-9.8-7.5-17.7-8.2c-0.9-0.1-1.5-0.8-1.4-1.7c0.1-0.9,0.8-1.5,1.7-1.4c8.9,0.7,15.6,3.8,20,9.4
				c7.1,8.9,5.4,20.6,5.3,21.1C94.7,87.1,94,87.6,93.3,87.6"/>
			<path id="Fill-9" class="st3" d="M87.1,83.8c0,0-0.1,0-0.1,0c-0.9-0.1-1.5-0.8-1.5-1.7c0-0.3,0.1-0.7,0.1-1.1
				c0.4-2.6,1.1-7.3-6-12.8c-3.9-3-9.3-4.2-14.4-3c-4.7,1.1-8.5,3.8-10.4,7.6c-4.4,8.8-9.5,11.4-9.8,11.5c-0.8,0.4-1.7,0.1-2.1-0.7
				c-0.4-0.8-0.1-1.7,0.7-2.1c0.1,0,4.5-2.4,8.3-10.1c2.3-4.6,6.8-8,12.5-9.2c6.1-1.4,12.3-0.1,17,3.6c8.5,6.7,7.5,13.1,7.1,15.8
				c0,0.3-0.1,0.6-0.1,0.8C88.6,83.2,87.9,83.8,87.1,83.8"/>
			<path id="Fill-11" class="st2" d="M91,103.3c-0.1,0-0.3,0-0.4,0c-0.1,0-9-2.5-6-16.1c0.2-0.9,1-1.4,1.9-1.2
				c0.8,0.2,1.4,1,1.2,1.9c-2.4,10.7,3.6,12.4,3.7,12.4c0.8,0.2,1.4,1.1,1.1,1.9C92.3,102.8,91.7,103.2,91,103.3"/>
			<path id="Fill-13" class="st3" d="M87.6,107.9c-0.1,0-0.3,0-0.5-0.1c-4-1.1-6.8-3.1-8.3-6c-2.3-4.2-1-8.7-0.9-8.9
				c2.4-7.3,2.3-12.9-0.3-16.6c-2.9-4.3-8.4-4.6-8.4-4.6c-0.1,0-0.1,0-0.2,0c-0.7-0.1-6.6-0.9-8.7,6.2c-3,10-15.1,15.4-15.6,15.6
				c-0.8,0.3-1.7,0-2.1-0.8c-0.3-0.8,0-1.7,0.8-2.1c0.2-0.1,11.3-5.1,13.9-13.6c2.3-7.9,8.9-9,12.2-8.4c0.9,0.1,7.1,0.7,10.7,6
				c3.2,4.5,3.4,11.1,0.7,19.4c0,0-1,3.4,0.7,6.4c1.1,2.1,3.3,3.6,6.4,4.4c0.8,0.2,1.3,1.1,1.1,1.9
				C88.9,107.4,88.2,107.9,87.6,107.9"/>
			<path id="Fill-15" class="st4" d="M79.8,113.3c-0.2,0-0.4,0-0.6-0.1c-0.1,0-3.1-1.2-5.4-4.3c-2.1-2.8-4.1-7.8-1.5-15.5
				c2-6,2.1-10.5,0.2-13c-1.3-1.7-3.5-2.5-6.6-2.4c-0.9,0-1.6-0.6-1.6-1.5c0-0.9,0.6-1.6,1.5-1.6c4.2-0.2,7.4,1.1,9.3,3.6
				c2.6,3.4,2.7,8.7,0.3,15.9c-4.1,12.1,4.6,15.7,5,15.8c0.8,0.3,1.2,1.2,0.9,2C81,113,80.4,113.3,79.8,113.3"/>
			<path id="Fill-17" class="st4" d="M50.6,108.3C50.6,108.3,50.6,108.3,50.6,108.3C50.6,108.3,50.6,108.3,50.6,108.3 M49.3,109.2
				c-0.4,0-0.7-0.1-1.1-0.4c-0.6-0.5-0.7-1.5-0.2-2.2c0.3-0.4,0.8-0.7,1.3-0.7c0.9-0.6,3.7-2.5,12.1-9.4c7.3-5.9,7.7-9,7.5-10.1
				c-0.2-1.4-1.7-1.9-1.8-1.9c0,0-0.1,0-0.1,0c0,0-1.3-0.5-2.5,0.2c-1.2,0.6-2.2,2.2-2.7,4.4c-1.9,7.6-15.2,13.6-15.8,13.8
				c-0.8,0.4-1.7,0-2.1-0.8c-0.4-0.8,0-1.7,0.8-2.1c3.5-1.5,12.7-6.6,14-11.7c0.8-3.3,2.3-5.5,4.4-6.5c2.4-1.2,4.5-0.4,5-0.2
				c1.2,0.4,3.4,1.8,3.9,4.3c0.7,3.6-2.1,7.9-8.6,13.1c-5,4-8.6,6.9-10.9,8.5C51.1,108.5,50.2,109.2,49.3,109.2"/>
			<path id="Fill-19" class="st4" d="M70.7,116.3c-0.8,0-1.5-0.6-1.6-1.4c-0.5-4.7-1.4-7.6-2.7-8.7c-0.6-0.5-1.3-0.6-2.4-0.5
				c-1.1,0.2-4.5,3.9-7.2,7.9c-0.5,0.7-1.5,0.9-2.2,0.4c-0.7-0.5-0.9-1.5-0.4-2.2c1.4-2.1,6.1-8.9,9.4-9.3c1.9-0.3,3.5,0.1,4.7,1.1
				c2.1,1.7,3.3,5,3.9,10.8c0.1,0.9-0.5,1.6-1.4,1.7C70.8,116.3,70.7,116.3,70.7,116.3"/>
			<path id="Stroke-21" class="st5" d="M114.9,109.9v8.7c0,5.5-4.5,10-10,10H86.3"/>
			<path id="Stroke-23" class="st6" d="M43.1,128.6H31.8c-5.5,0-10-4.5-10-10v-8.7"/>
			<path id="Stroke-25" class="st5" d="M21.9,57.1V45.5c0-5.5,4.5-10,10-10h13.7"/>
			<path id="Stroke-27" class="st7" d="M94.6,35.5H105c5.5,0,10,4.5,10,10v11.2"/>
		</g>
	</g>
</g>
</svg>
