<?xml version="1.0" encoding="utf-8"?>
<svg version="1.1" id="Layer_1" xmlns="http://www.w3.org/2000/svg" xmlns:xlink="http://www.w3.org/1999/xlink" x="0px" y="0px"
	 viewBox="0 0 152 152" style="enable-background:new 0 0 152 152;" xml:space="preserve">
<style type="text/css">
	.st0{opacity:0.1876;fill:#161656;enable-background:new    ;}
	.st1{fill:#64f0ff;}
	.st2{fill:#161656;}
	.st3{fill:none;stroke:#161656;stroke-width:7;stroke-linecap:round;stroke-linejoin:round;}
</style>
<title>Shield icon</title>
<g id="Desktop">
	<g id="_x36_-About" transform="translate(-972.000000, -4125.000000)">
		<g id="Group-8" transform="translate(972.000000, 4125.000000)">
			<ellipse id="Oval-2-Copy" class="st0" cx="76" cy="127.5" rx="52.5" ry="12.5"/>
			<g id="Group-21" transform="translate(3.000000, 0.000000)">
				<path id="Fill-1" class="st1" d="M121.2,73.8c0.3-2.3,0.5-4.6,0.5-6.9V40.1c0-6.5-4.8-12-11.4-13.2C99.2,25,88.9,19.1,83.8,15.7
					c-3-2-6.5-3.1-10.1-3.3v61.3H121.2z"/>
				<polygon id="Fill-3" class="st1" points="72.5,126.3 72.5,126.3 73.1,126.1 72.5,125.8 				"/>
				<path id="Fill-5" class="st1" d="M72.5,12.4C72.5,12.4,72.5,12.4,72.5,12.4L72.5,12.4c0.1,0,0.3,0,0.6,0
					C72.9,12.4,72.7,12.4,72.5,12.4"/>
				<polygon id="Fill-7" class="st1" points="73.6,126.3 73.7,126.3 73.7,125.8 73.1,126.1 				"/>
				<path id="Fill-9" class="st1" d="M73.7,12.4C73.7,12.4,73.6,12.4,73.7,12.4c-0.3,0-0.4,0-0.6,0C73.3,12.4,73.5,12.4,73.7,12.4
					L73.7,12.4z"/>
				<path id="Fill-11" class="st1" d="M25,73.8c1,6.5,3.4,12.8,7.1,18.8c4,6.4,9.4,12.5,16.3,18.2c11.5,9.5,22.9,14.5,23.4,14.7
					l0.7,0.3v-52H25z"/>
				<path id="Fill-13" class="st1" d="M73.7,73.8V12.4c-0.2,0-0.4,0-0.6,0c-0.2,0-0.4,0-0.6,0v61.3H73.7z"/>
				<polygon id="Fill-15" class="st1" points="72.5,73.8 72.5,125.8 73.1,126.1 73.7,125.8 73.7,73.8 				"/>
				<path id="Fill-17" class="st2" d="M73.2,12.5c-4,0-7.9,1.2-11.3,3.3c-5.1,3.3-15.4,9.2-26.5,11.2C28.8,28.1,24,33.7,24,40.2V67
					c0,8.9,2.6,17.5,7.6,25.7c4,6.4,9.4,12.5,16.3,18.2c11.5,9.5,22.9,14.5,23.4,14.7l1.9,0.8l1.9-0.8c0.5-0.2,11.9-5.2,23.4-14.7
					c6.9-5.7,12.3-11.8,16.3-18.2c5.1-8.2,7.6-16.8,7.6-25.7V40.2c0-6.5-4.8-12-11.4-13.1c-11.1-1.9-21.4-7.8-26.5-11.2
					C81.1,13.7,77.2,12.5,73.2,12.5 M73.2,19.5c2.7,0,5.2,0.8,7.4,2.2c5.6,3.6,16.8,10.1,29.2,12.2c3.2,0.6,5.6,3.2,5.6,6.3V67
					c0,7.6-2.2,15-6.6,22c-3.6,5.8-8.5,11.3-14.8,16.5c-9,7.4-18,11.9-20.8,13.3c-2.8-1.3-11.8-5.8-20.8-13.3
					c-6.3-5.2-11.2-10.7-14.8-16.5C33.2,82,31,74.6,31,67V40.2c0-3.1,2.3-5.7,5.6-6.3c12.4-2.1,23.6-8.6,29.2-12.2
					C68,20.3,70.5,19.5,73.2,19.5"/>
				<path id="Stroke-19" class="st3" d="M57.4,64.4l11.2,11.2c0,0,22.6-19.9,28.2-24.7"/>
			</g>
		</g>
	</g>
</g>
</svg>
