<?xml version="1.0" encoding="UTF-8"?>
<svg width="436px" height="429px" viewBox="0 0 436 429" version="1.1" xmlns="http://www.w3.org/2000/svg" xmlns:xlink="http://www.w3.org/1999/xlink">
    <!-- Generator: Sketch 51.2 (57519) - http://www.bohemiancoding.com/sketch -->
    <title>Product icon</title>
    <desc>Created with Sketch.</desc>
    <defs>
        <polygon id="path-1" points="0.9127625 0.800555556 40.3035125 0.800555556 40.3035125 10 0.9127625 10"></polygon>
        <polygon id="path-3" points="0.881705 0.800555556 40.272455 0.800555556 40.272455 10 0.881705 10"></polygon>
        <polygon id="path-5" points="0.0287 0.800555556 38.4587 0.800555556 38.4587 10 0.0287 10"></polygon>
        <polyline id="path-7" points="0.572472222 23.2804048 40.5489167 0.138214286 73.6217778 19.1595714 33.6453333 42.3017619"></polyline>
        <polygon id="path-9" points="0 428 435 428 435 0 0 0"></polygon>
    </defs>
    <g id="Desktop" stroke="none" stroke-width="1" fill="none" fill-rule="evenodd">
        <g id="3-Product-Copy-2" transform="translate(-238.000000, -393.000000)">
            <g id="Product-icon" transform="translate(238.000000, 393.000000)">
                <path d="M266,257 L266,284.062454 C266,324.155016 244.347652,361.51309 209.493053,381.560901 C209.493053,381.560901 191.308356,392.019652 167,406" id="Stroke-1" stroke="#000076"></path>
                <path d="M190,212 L190,279.470607 C190,295.004158 181.687329,309.357738 168.193957,317.125534 C168.193957,317.125534 52.1452256,383.921435 19,403" id="Stroke-13" stroke="#64EFFF" stroke-width="4"></path>
                <g id="Group-17" transform="translate(3.000000, 419.000000)">
                    <mask id="mask-2" fill="white">
                        <use xlink:href="#path-1"></use>
                    </mask>
                    <g id="Clip-16"></g>
                    <path d="M20.6081375,10.0005556 C9.7308375,10.0005556 0.9127625,7.94055556 0.9127625,5.40055556 C0.9127625,2.85944444 9.7308375,0.800555556 20.6081375,0.800555556 C31.4854375,0.800555556 40.3035125,2.85944444 40.3035125,5.40055556 C40.3035125,7.94055556 31.4854375,10.0005556 20.6081375,10.0005556 Z" id="Fill-15" fill-opacity="0.2" fill="#000076" mask="url(#mask-2)"></path>
                </g>
                <g id="Group-20" transform="translate(79.000000, 419.000000)">
                    <mask id="mask-4" fill="white">
                        <use xlink:href="#path-3"></use>
                    </mask>
                    <g id="Clip-19"></g>
                    <path d="M20.57708,10.0005556 C9.69978,10.0005556 0.881705,7.94055556 0.881705,5.40055556 C0.881705,2.85944444 9.69978,0.800555556 20.57708,0.800555556 C31.45438,0.800555556 40.272455,2.85944444 40.272455,5.40055556 C40.272455,7.94055556 31.45438,10.0005556 20.57708,10.0005556 Z" id="Fill-18" fill-opacity="0.2" fill="#000076" mask="url(#mask-4)"></path>
                </g>
                <g id="Group-23" transform="translate(152.000000, 419.000000)">
                    <mask id="mask-6" fill="white">
                        <use xlink:href="#path-5"></use>
                    </mask>
                    <g id="Clip-22"></g>
                    <path d="M38.4587,5.40055556 C38.4587,7.94055556 29.8557,10.0005556 19.2437,10.0005556 C8.6317,10.0005556 0.0287,7.94055556 0.0287,5.40055556 C0.0287,2.85944444 8.6317,0.800555556 19.2437,0.800555556 C29.8557,0.800555556 38.4587,2.85944444 38.4587,5.40055556" id="Fill-21" fill="#000076" opacity="0.2" mask="url(#mask-6)"></path>
                </g>
                <path d="M118.579884,419 L77.4199642,419 C72.3315015,419 69.2719636,413.279967 72.0498746,408.959255 L92.6298346,376.949776 C95.1584201,373.016741 100.842438,373.016741 103.371023,376.949776 L123.949974,408.959255 C126.727885,413.279967 123.669356,419 118.579884,419" id="Fill-24" fill="#FF6F00"></path>
                <path d="M96.1715678,409.10157 C96.1715678,408.309279 96.4552396,407.628467 97.0235581,407.059132 C97.5918765,406.488802 98.2557271,406.20314 99.0151097,406.20314 C99.8086109,406.20314 100.477335,406.488802 101.018359,407.059132 C101.558408,407.628467 101.829407,408.309279 101.829407,409.10157 C101.829407,409.894856 101.558408,410.574673 101.018359,411.145003 C100.477335,411.714337 99.8086109,412 99.0151097,412 C98.2557271,412 97.5918765,411.709361 97.0235581,411.131068 C96.4552396,410.550785 96.1715678,409.873954 96.1715678,409.10157 Z M96,390 L102,390 L101.061251,405.100303 L96.9660439,405.100303 L96,390 Z" id="Fill-26" fill="#FFFFFF"></path>
                <path d="M430.443365,273.458104 C437.852212,269.250304 437.852212,258.749696 430.443365,254.560275 L317.180394,190.374233 C306.894364,184.541922 294.125076,184.541922 283.820629,190.374233 L170.556635,254.560275 C163.147788,258.749696 163.147788,269.250304 170.556635,273.458104 L283.820629,337.625767 C294.105636,343.458078 306.874924,343.458078 317.180394,337.625767 L430.443365,273.458104 Z" id="Fill-28" fill="#000076" opacity="0.2"></path>
                <path d="M164.060056,77 L164.060056,188.108819 C164.060056,188.108819 163.000759,195.325346 169.779856,199.569822 C176.557936,203.814298 276.961231,260.056918 276.961231,260.056918 C276.961231,260.056918 284.585935,264.514484 292,266 L292,155.103252 C292,155.103252 286.70453,154.891181 274.842636,148.098796 C262.980742,141.30743 171.262466,89.0972153 171.262466,89.0972153 C171.262466,89.0972153 163.425088,85.7020424 164.060056,77" id="Fill-30" fill="#000076"></path>
                <path d="M422.586723,147.776159 C429.804426,143.649208 429.804426,133.349767 422.586723,129.242288 L312.24952,66.2896406 C302.228787,60.5701198 289.789573,60.5701198 279.75048,66.2896406 L169.413277,129.242288 C162.195574,133.349767 162.195574,143.649208 169.413277,147.776159 L279.75048,210.710359 C289.771213,216.42988 302.210427,216.42988 312.24952,210.710359 L422.586723,147.776159 Z" id="Fill-32" fill="#64EFFF" opacity="0.3"></path>
                <path d="M422.586723,88.7766402 C429.804426,84.6497036 429.804426,74.3502964 422.586723,70.2418065 L312.24952,7.29039486 C302.228787,1.56986838 289.789573,1.56986838 279.75048,7.29039486 L169.413277,70.2418065 C162.195574,74.3502964 162.195574,84.6497036 169.413277,88.7766402 L279.75048,151.709605 C289.771213,157.430132 302.210427,157.430132 312.24952,151.709605 L422.586723,88.7766402 Z" id="Stroke-34" stroke="#FFFFFF" stroke-width="6"></path>
                <path d="M375.637083,86.2598155 C380.120972,83.6979049 380.120972,77.3023513 375.637083,74.7517131 L307.093982,35.6631061 C300.869192,32.112298 293.142288,32.112298 286.905253,35.6631061 L218.362152,74.7517131 C213.879283,77.3023513 213.879283,83.6979049 218.362152,86.2598155 L286.905253,125.336125 C293.130043,128.887958 300.857967,128.887958 307.093982,125.336125 L375.637083,86.2598155 Z" id="Fill-38" fill="#000076"></path>
                <g id="Group-42" transform="translate(260.000000, 59.000000)">
                    <mask id="mask-8" fill="white">
                        <use xlink:href="#path-7"></use>
                    </mask>
                    <g id="Clip-41"></g>
                    <path d="M57.08545,9.64889286 C56.2128667,9.14722619 54.7996722,9.14722619 53.9332556,9.64889286 L27.9983111,24.6620357 C27.1308667,25.1637024 27.1360056,25.9786548 28.0085889,26.4803214 C28.8822,26.9830119 30.2943667,26.9830119 31.1618111,26.4803214 L57.0957278,11.4671786 C57.9631722,10.9655119 57.9580333,10.1505595 57.08545,9.64889286 M16.8942,15.657631 C16.0205889,15.1549405 14.6084222,15.1549405 13.7409778,15.657631 L2.14353333,22.37075 C1.27608889,22.8734405 1.28122778,23.6883929 2.15381111,24.1900595 C3.02639444,24.6917262 4.43958889,24.6917262 5.30600556,24.1900595 L16.9044778,17.4759167 C17.7719222,16.97425 17.7667833,16.1592976 16.8942,15.657631 M46.8035611,32.8586548 C45.9309778,32.3569881 44.5177833,32.3569881 43.6513667,32.8586548 L32.0528944,39.5727976 C31.1864778,40.0744643 31.1905889,40.8894167 32.0631722,41.3921071 C32.9357556,41.8937738 34.34895,41.8937738 35.2163944,41.3921071 L46.8138389,34.6779643 C47.6812833,34.1762976 47.6761444,33.3603214 46.8035611,32.8586548 M28.46595,14.7136786 C27.5861722,14.2079167 26.1729778,14.2079167 25.3065611,14.7095833 L7.12414444,25.235369 C6.2567,25.7370357 6.26183889,26.5530119 7.14058889,27.05775 C8.01317222,27.5604405 9.42636667,27.5604405 10.2938111,27.05775 L28.4762278,16.5329881 C29.3426444,16.0302976 29.3385333,15.2153452 28.46595,14.7136786 M48.4007278,26.1793214 C47.5281444,25.676631 46.1159778,25.676631 45.2485333,26.1793214 L27.0661167,36.7040833 C26.1986722,37.2067738 26.2038111,38.0217262 27.0763944,38.5233929 C27.9551444,39.0291548 29.3683389,39.0291548 30.2347556,38.5274881 L48.4182,28.0017024 C49.2846167,27.5000357 49.2805056,26.6840595 48.4007278,26.1793214 M44.65345,11.0904167 C43.7798389,10.5877262 42.3676722,10.58875 41.5002278,11.0904167 L17.9723389,24.7101548 C17.1048944,25.2128452 17.1028389,26.0318929 17.9754222,26.5335595 C18.8480056,27.0352262 20.2745611,27.0352262 21.1409778,26.5335595 L44.6698944,12.9127976 C45.5373389,12.411131 45.5260333,11.5920833 44.65345,11.0904167 M54.6270056,16.8268214 C53.7482556,16.3210595 52.3350611,16.3210595 51.4686444,16.8227262 L27.9397278,30.4434881 C27.0722833,30.9451548 27.0702278,31.7642024 27.9500056,32.2699643 C28.8225889,32.771631 30.24195,32.7685595 31.1093944,32.265869 L54.6372833,18.646131 C55.5047278,18.1434405 55.5006167,17.3284881 54.6270056,16.8268214" id="Fill-40" fill="#005EFF" mask="url(#mask-8)"></path>
                </g>
                <path d="M198.04612,164 C181.689917,173.195057 169.440449,180.08044 169.440449,180.08044 C162.186517,184.148753 162.186517,194.347442 169.440449,198.434021 L280.331504,260.751561 C290.401511,266.416146 302.903165,266.416146 312.992651,260.751561 C312.992651,260.751561 322.524457,255.395474 336,247.823074" id="Stroke-43" stroke="#64EFFF" stroke-width="4" stroke-linecap="round" stroke-linejoin="round"></path>
                <path d="M343,245 C356.688843,237.222062 372.823446,228.054949 387,220" id="Stroke-45" stroke="#FF6F00" stroke-width="4" stroke-linecap="round" stroke-linejoin="round"></path>
                <path d="M393,216 C409.834158,206.404399 422.586288,199.136246 422.586288,199.136246 C429.804571,195.010967 429.804571,184.714673 422.586288,180.608858 C422.586288,180.608858 409.765801,173.169629 395.438402,165" id="Stroke-47" stroke="#000076" stroke-width="2" stroke-linecap="round" stroke-linejoin="round"></path>
                <path d="M46,395 C46,407.702432 35.7024319,418 23,418 C10.2975681,418 0,407.702432 0,395 C0,382.297568 10.2975681,372 23,372 C35.7024319,372 46,382.297568 46,395" id="Fill-49" fill="#64EFFF"></path>
                <path d="M225,232 L225,284.793127 C225,309.177889 211.856702,331.900102 190.698782,344.092483 C190.698782,344.092483 132.550295,377.600468 85,405" id="Stroke-1" stroke="#FF6F00" stroke-width="2" stroke-linecap="round" stroke-linejoin="round" stroke-dasharray="3,8"></path>
                <path d="M23.0019868,384 C18.5852477,384 15,387.758232 15,392.398668 C15,395.143304 16.2576679,397.580315 18.2007947,399.115309 C18.3935179,399.645049 18.5633925,400.284282 18.5256426,400.795251 C18.4451757,401.871415 18.6051161,404.137408 19.5011797,405.117635 L19.5150875,405.117635 L19.9462312,409.333654 C19.9462312,409.700718 20.2899541,410 20.7171241,410 L25.2133366,410 C25.6405066,410 25.9872097,409.700718 25.9872097,409.333654 L26.4203402,405.117635 L26.5524649,405.117635 C26.5524649,405.117635 27.4981994,403.151967 27.3839563,401.960053 C27.3104433,401.19047 27.5150875,399.985 27.668074,399.220631 C29.687694,397.692937 31,395.207957 31,392.398668 C31,387.758232 27.4177325,384 23.0019868,384 M23.0019868,385.280552 C26.7412145,385.280552 29.780082,388.475675 29.780082,392.398668 C29.780082,393.56347 29.5247734,394.671961 29.0101825,395.695985 C28.5263877,396.673084 27.8131131,397.532347 26.9557929,398.180965 L26.5713399,398.469819 L26.4749783,398.953676 C26.2017882,400.302009 26.0984726,401.352104 26.1699988,402.085188 C26.2057618,402.478322 25.9971439,403.207235 25.7587235,403.838126 L25.3226127,403.838126 L25.2073761,404.981029 L24.8219297,408.718405 L21.108531,408.718405 L20.7260648,404.981029 L20.6118217,403.838126 L20.1429281,403.838126 C19.827021,403.111298 19.6700608,401.831789 19.741587,400.896402 C19.7892711,400.26864 19.6571464,399.534512 19.3392525,398.659608 L19.217062,398.310272 L18.9319508,398.090242 C18.1103936,397.439538 17.4269216,396.588617 16.9580281,395.628204 C16.4712529,394.621907 16.2228983,393.536357 16.2228983,392.398668 C16.2228983,388.475675 19.2627592,385.280552 23.0019868,385.280552" id="Fill-51" fill="#FFFFFF"></path>
                <path d="M23.0019868,384 C18.5852477,384 15,387.758232 15,392.398668 C15,395.143304 16.2576679,397.580315 18.2007947,399.115309 C18.3935179,399.645049 18.5633925,400.284282 18.5256426,400.795251 C18.4451757,401.871415 18.6051161,404.137408 19.5011797,405.117635 L19.5150875,405.117635 L19.9462312,409.333654 C19.9462312,409.700718 20.2899541,410 20.7171241,410 L25.2133366,410 C25.6405066,410 25.9872097,409.700718 25.9872097,409.333654 L26.4203402,405.117635 L26.5524649,405.117635 C26.5524649,405.117635 27.4981994,403.151967 27.3839563,401.960053 C27.3104433,401.19047 27.5150875,399.985 27.668074,399.220631 C29.687694,397.692937 31,395.207957 31,392.398668 C31,387.758232 27.4177325,384 23.0019868,384 Z M23.0019868,385.280552 C26.7412145,385.280552 29.780082,388.475675 29.780082,392.398668 C29.780082,393.56347 29.5247734,394.671961 29.0101825,395.695985 C28.5263877,396.673084 27.8131131,397.532347 26.9557929,398.180965 L26.5713399,398.469819 L26.4749783,398.953676 C26.2017882,400.302009 26.0984726,401.352104 26.1699988,402.085188 C26.2057618,402.478322 25.9971439,403.207235 25.7587235,403.838126 L25.3226127,403.838126 L25.2073761,404.981029 L24.8219297,408.718405 L21.108531,408.718405 L20.7260648,404.981029 L20.6118217,403.838126 L20.1429281,403.838126 C19.827021,403.111298 19.6700608,401.831789 19.741587,400.896402 C19.7892711,400.26864 19.6571464,399.534512 19.3392525,398.659608 L19.217062,398.310272 L18.9319508,398.090242 C18.1103936,397.439538 17.4269216,396.588617 16.9580281,395.628204 C16.4712529,394.621907 16.2228983,393.536357 16.2228983,392.398668 C16.2228983,388.475675 19.2627592,385.280552 23.0019868,385.280552 Z" id="Stroke-53" stroke="#FFFFFF" stroke-width="0.25"></path>
                <mask id="mask-10" fill="white">
                    <use xlink:href="#path-9"></use>
                </mask>
                <g id="Clip-56"></g>
                <polygon id="Fill-55" fill="#FFFFFF" mask="url(#mask-10)" points="19 404 26 404 26 403 19 403"></polygon>
                <polygon id="Stroke-57" stroke="#FFFFFF" stroke-width="0.25" mask="url(#mask-10)" points="19 404 26 404 26 403 19 403"></polygon>
                <path d="M24.1413715,398.999649 C23.9587415,398.999649 23.7975974,398.870949 23.7702517,398.69152 C23.3942488,396.360824 24.1892265,394.259345 24.7664154,393.100103 C22.9625778,393.667512 21.3276974,393.408233 20.3022347,393.111376 C21.3999681,395.342494 21.1704598,398.506455 21.1528804,398.660519 C21.1372543,398.864373 20.9556009,399.015619 20.7456252,398.99871 C20.5376028,398.984618 20.3803652,398.808947 20.3969679,398.606033 C20.3989212,398.566577 20.6997236,394.496079 19.0833991,392.594697 C18.9701099,392.463178 18.9730398,392.264961 19.0873057,392.131563 C19.2035248,391.998166 19.4027575,391.961529 19.5639016,392.043258 C19.589294,392.059228 22.4293372,393.505932 25.4481039,392.0395 C25.6033883,391.964347 25.7889482,392.000045 25.9051673,392.123109 C26.0165032,392.245233 26.033106,392.430298 25.9373961,392.569332 C25.9188401,392.594697 24.0095263,395.418587 24.5173745,398.57879 C24.5525332,398.775128 24.4070152,398.964891 24.1989928,398.995891 C24.1804368,398.99871 24.1628574,398.999649 24.1413715,398.999649" id="Fill-58" fill="#FFFFFF" mask="url(#mask-10)"></path>
                <path d="M24.1413715,398.999649 C23.9587415,398.999649 23.7975974,398.870949 23.7702517,398.69152 C23.3942488,396.360824 24.1892265,394.259345 24.7664154,393.100103 C22.9625778,393.667512 21.3276974,393.408233 20.3022347,393.111376 C21.3999681,395.342494 21.1704598,398.506455 21.1528804,398.660519 C21.1372543,398.864373 20.9556009,399.015619 20.7456252,398.99871 C20.5376028,398.984618 20.3803652,398.808947 20.3969679,398.606033 C20.3989212,398.566577 20.6997236,394.496079 19.0833991,392.594697 C18.9701099,392.463178 18.9730398,392.264961 19.0873057,392.131563 C19.2035248,391.998166 19.4027575,391.961529 19.5639016,392.043258 C19.589294,392.059228 22.4293372,393.505932 25.4481039,392.0395 C25.6033883,391.964347 25.7889482,392.000045 25.9051673,392.123109 C26.0165032,392.245233 26.033106,392.430298 25.9373961,392.569332 C25.9188401,392.594697 24.0095263,395.418587 24.5173745,398.57879 C24.5525332,398.775128 24.4070152,398.964891 24.1989928,398.995891 C24.1804368,398.99871 24.1628574,398.999649 24.1413715,398.999649 Z" id="Stroke-59" stroke="#FFFFFF" stroke-width="0.25" mask="url(#mask-10)"></path>
                <path d="M194,395 C194,407.702432 183.702432,418 171,418 C158.297568,418 148,407.702432 148,395 C148,382.297568 158.297568,372 171,372 C183.702432,372 194,382.297568 194,395" id="Fill-60" fill="#000076" mask="url(#mask-10)"></path>
                <path d="M168.967138,384.323953 C168.967138,383.310824 169.571378,383 170.400353,383 L172.168551,383 C172.980565,383 173.595406,383.310824 173.595406,384.323953 L173.595406,385.673481 C173.595406,386.689561 172.980565,387.012188 172.168551,387.012188 L170.400353,387.012188 C169.571378,387.012188 168.967138,386.689561 168.967138,385.673481 L168.967138,384.323953 Z M173.595406,403.154386 L175.890459,403.154386 C176.919788,403.154386 178,403.370782 178,404.586537 C178,405.811145 176.776678,406 175.890459,406 L168.108481,406 C167.212721,406 166,405.811145 166,404.586537 C166,403.370782 167.085512,403.154386 168.108481,403.154386 L170.530742,403.154386 L170.530742,392.900141 L168.108481,392.900141 C167.212721,392.900141 166,392.732926 166,391.483727 C166,390.262071 167.085512,390.063379 168.108481,390.063379 L171.325795,390.063379 C173.080212,390.063379 173.595406,390.354531 173.595406,392.048326 L173.595406,403.154386 Z" id="Fill-61" fill="#FFFFFF" mask="url(#mask-10)"></path>
            </g>
        </g>
    </g>
</svg>