<?xml version="1.0" encoding="utf-8"?>
<svg version="1.1" id="Layer_1" xmlns="http://www.w3.org/2000/svg" xmlns:xlink="http://www.w3.org/1999/xlink" x="0px" y="0px"
	 viewBox="0 0 746.7 611" style="enable-background:new 0 0 746.7 611;" xml:space="preserve">
<style type="text/css">
	.st0{opacity:0.2483;}
	.st1{filter:url(#Adobe_OpacityMaskFilter);}
	.st2{fill:#ffffff;}
	.st3{mask:url(#mask-2_1_);fill:#161656;}
	.st4{opacity:0.4022;fill:#161656;enable-background:new    ;}
	.st5{opacity:0.2801;fill:#64f0ff;enable-background:new    ;}
	.st6{fill:none;stroke:#64f0ff;stroke-width:2;stroke-linecap:round;stroke-linejoin:round;}
	.st7{fill:none;stroke:#ffffff;stroke-width:4;stroke-linecap:round;stroke-linejoin:round;}
	.st8{fill:none;stroke:#161656;stroke-width:2;stroke-linecap:round;stroke-linejoin:round;}
	.st9{fill:none;stroke:#161656;stroke-width:0.5;}
	.st10{fill:none;stroke:#ff6f00;stroke-width:3;stroke-dasharray:7;}
	.st11{fill:none;stroke:#64f0ff;stroke-width:2;}
	.st12{fill:#161656;}
	.st13{fill:none;stroke:#ffffff;stroke-width:6;}
	.st14{filter:url(#Adobe_OpacityMaskFilter_1_);}
	.st15{mask:url(#mask-4_1_);fill:#007bff;}
</style>
<title>Products page icon</title>
<g id="Desktop">
	<g id="_x33_-Product" transform="translate(-686.000000, -1246.000000)">
		<g id="Group-29" transform="translate(687.000000, 1247.000000)">
			<g>
				<g id="Group-3" transform="translate(204.610493, 390.548780)" class="st0">
					<g id="Clip-2">
					</g>
					<defs>
						<filter id="Adobe_OpacityMaskFilter" filterUnits="userSpaceOnUse" x="161.3" y="0.8" width="378.9" height="218.6">
							<feColorMatrix  type="matrix" values="1 0 0 0 0  0 1 0 0 0  0 0 1 0 0  0 0 0 1 0"/>
						</filter>
					</defs>
					<mask maskUnits="userSpaceOnUse" x="161.3" y="0.8" width="378.9" height="218.6" id="mask-2_1_">
						<g class="st1">
							<polygon id="path-1_1_" class="st2" points="161.3,0.8 540.2,0.8 540.2,219.5 161.3,219.5 							"/>
						</g>
					</mask>
					<path id="Fill-1" class="st3" d="M532.5,123.4c10.4-5.9,10.4-20.6,0-26.5l-158.4-90c-14.4-8.2-32.2-8.2-46.6,0l-158.4,90
						c-10.4,5.9-10.4,20.6,0,26.5l158.4,89.9c14.4,8.2,32.2,8.2,46.6,0L532.5,123.4z"/>
				</g>
				<path id="Fill-4" class="st4" d="M365.4,239v155.8c0,0-1.5,10.1,8.1,16.1c9.6,6,151.1,84.8,151.1,84.8s10.7,6.2,21.2,8.3V348.5
					c0,0-7.5-0.3-24.2-9.8c-16.7-9.5-146-82.7-146-82.7S364.5,251.2,365.4,239"/>
				<path id="Fill-6" class="st5" d="M726.9,336c10.1-5.7,10.1-20.1,0-25.8l-154.3-87.6c-14-8-31.4-8-45.5,0l-154.3,87.6
					c-10.1,5.7-10.1,20.1,0,25.8l154.3,87.6c14,8,31.4,8,45.5,0L726.9,336z"/>
				<path id="Stroke-17" class="st6" d="M411.7,360.8c-22.7,13-39.8,22.7-39.8,22.7c-10.1,5.7-10.1,20.1,0,25.9L526,497.1
					c14,8,31.4,8,45.4,0c0,0,13.2-7.5,32-18.2"/>
				<path id="Stroke-19" class="st7" d="M616.4,472.4c19.1-10.7,41.6-23.3,61.4-34.4"/>
				<path id="Stroke-21" class="st8" d="M686.1,433.3c23.7-13.3,41.7-23.4,41.7-23.4c10.2-5.7,10.2-20,0-25.7
					c0,0-18.1-10.3-38.2-21.6"/>
				<path id="Stroke-23" class="st9" d="M214.6,0c51.7,29.8,215.8,124.6,215.8,124.6c48.7,28.1,79,80.6,79,136.8V331"/>
				<path id="Stroke-25" class="st10" d="M89.7,0c51.2,29.6,309,178.7,309,178.7c29.3,17,47.6,48.6,47.6,82.5v33.6"/>
				<path id="Stroke-27" class="st11" d="M-1,0c43.1,25,372.1,216,372.1,216c18.8,10.9,30.4,31.1,30.4,53v4.5"/>
				<path id="Fill-12" class="st12" d="M662.8,250.7c6.3-3.6,6.3-12.5,0-16l-96-54.3c-8.7-4.9-19.5-4.9-28.3,0l-96,54.3
					c-6.3,3.5-6.3,12.4,0,16l96,54.3c8.7,4.9,19.5,4.9,28.3,0L662.8,250.7z"/>
				<path id="Stroke-8" class="st13" d="M726.9,255.1c10.1-5.7,10.1-20.1,0-25.8l-154.3-87.6c-14-8-31.4-8-45.5,0l-154.3,87.6
					c-10.1,5.7-10.1,20.1,0,25.8l154.3,87.6c14,8,31.4,8,45.5,0L726.9,255.1z"/>
				<g id="Group-16" transform="translate(340.397456, 212.012195)">
					<g id="Clip-15">
					</g>
					<defs>
						<filter id="Adobe_OpacityMaskFilter_1_" filterUnits="userSpaceOnUse" x="162.3" y="13.3" width="78.7" height="45.4">
							<feColorMatrix  type="matrix" values="1 0 0 0 0  0 1 0 0 0  0 0 1 0 0  0 0 0 1 0"/>
						</filter>
					</defs>
					<mask maskUnits="userSpaceOnUse" x="162.3" y="13.3" width="78.7" height="45.4" id="mask-4_1_">
						<g class="st14">
							<polyline id="path-3_1_" class="st2" points="161.1,32.9 217,0.6 263.3,27.1 207.3,59.4 							"/>
						</g>
					</mask>
					<path id="Fill-14" class="st15" d="M240.1,13.8c-1.2-0.7-3.2-0.7-4.4,0l-36.3,21c-1.2,0.7-1.2,1.8,0,2.5c1.2,0.7,3.2,0.7,4.4,0
						l36.3-21C241.4,15.7,241.4,14.6,240.1,13.8 M183.9,22.2c-1.2-0.7-3.2-0.7-4.4,0l-16.2,9.4c-1.2,0.7-1.2,1.8,0,2.5
						c1.2,0.7,3.2,0.7,4.4,0l16.2-9.4C185.1,24.1,185.1,22.9,183.9,22.2 M225.8,46.2c-1.2-0.7-3.2-0.7-4.4,0l-16.2,9.4
						c-1.2,0.7-1.2,1.8,0,2.5c1.2,0.7,3.2,0.7,4.4,0l16.2-9.4C227,48.1,227,46.9,225.8,46.2 M200.1,20.9c-1.2-0.7-3.2-0.7-4.4,0
						l-25.4,14.7c-1.2,0.7-1.2,1.8,0,2.5c1.2,0.7,3.2,0.7,4.4,0l25.4-14.7C201.3,22.8,201.3,21.6,200.1,20.9 M228,36.9
						c-1.2-0.7-3.2-0.7-4.4,0l-25.4,14.7c-1.2,0.7-1.2,1.8,0,2.5c1.2,0.7,3.2,0.7,4.4,0L228,39.5C229.2,38.8,229.2,37.6,228,36.9
						 M222.8,15.9c-1.2-0.7-3.2-0.7-4.4,0l-32.9,19c-1.2,0.7-1.2,1.8,0,2.5c1.2,0.7,3.2,0.7,4.4,0l32.9-19
						C224,17.7,224,16.6,222.8,15.9 M236.7,23.9c-1.2-0.7-3.2-0.7-4.4,0l-32.9,19c-1.2,0.7-1.2,1.8,0,2.5c1.2,0.7,3.2,0.7,4.4,0
						l32.9-19C237.9,25.7,237.9,24.6,236.7,23.9"/>
				</g>
			</g>
		</g>
	</g>
</g>
</svg>
