<?xml version="1.0" encoding="UTF-8"?>
<svg width="166px" height="148px" viewBox="0 0 166 148" version="1.1" xmlns="http://www.w3.org/2000/svg" xmlns:xlink="http://www.w3.org/1999/xlink">
    <!-- Generator: Sketch 51.2 (57519) - http://www.bohemiancoding.com/sketch -->
    <title>Group 56</title>
    <desc>Created with Sketch.</desc>
    <defs>
        <polygon id="path-1" points="0.242 0.5832 48.618 0.5832 48.618 7 0.242 7"></polygon>
    </defs>
    <g id="Desktop" stroke="none" stroke-width="1" fill="none" fill-rule="evenodd">
        <g id="9-Join" transform="translate(-507.000000, -568.000000)">
            <g id="Group-56" transform="translate(509.000000, 570.000000)">
                <path d="M141.7664,40.707 C141.7664,40.707 148.7264,70.844 120.4304,73.66" id="Stroke-1" stroke="#64EFFF" stroke-width="2" stroke-linecap="round" stroke-linejoin="round"></path>
                <path d="M120.6824,76.0888 C120.6824,76.0888 148.9154,84.0568 137.4344,110.0678" id="Stroke-3" stroke="#64EFFF" stroke-width="2" stroke-linecap="round" stroke-linejoin="round"></path>
                <path d="M100.3899,124.0224 C93.5359,128.2754 85.4599,130.7514 76.8019,130.8034 C51.7729,130.9544 31.3599,110.7864 31.2089,85.7574 C31.0589,60.7284 51.2269,40.3154 76.2559,40.1644 C82.0129,40.1294 87.5249,41.1694 92.6019,43.0964" id="Stroke-5" stroke="#FFFFFF" stroke-width="5" stroke-linecap="round" stroke-linejoin="round"></path>
                <path d="M99.3299,85.3467 C99.4809,110.3757 89.3949,130.7277 76.8019,130.8037 C64.2099,130.8797 53.8789,110.6507 53.7289,85.6217 C53.5779,60.5927 63.6639,40.2407 76.2559,40.1647 C88.8489,40.0887 99.1789,60.3177 99.3299,85.3467 Z" id="Stroke-7" stroke="#FFFFFF" stroke-width="4"></path>
                <path d="M76.6668,108.2846 C51.6368,108.4356 31.2858,98.3496 31.2088,85.7576 C31.1338,73.1646 51.3628,62.8346 76.3918,62.6836 C101.4208,62.5326 121.7728,72.6186 121.8488,85.2106 C121.9248,97.8036 101.6958,108.1336 76.6668,108.2846 Z" id="Stroke-9" stroke="#FFFFFF" stroke-width="4"></path>
                <path d="M100.743,47.1679 C113.348,55.1499 121.752,69.1839 121.849,85.2109 C121.93,98.6259 116.174,110.7139 106.961,119.0679" id="Stroke-11" stroke="#64EFFF" stroke-width="6" stroke-linecap="round" stroke-linejoin="round"></path>
                <path d="M75.9812,41.292 C75.9812,41.292 76.0612,65.346 76.1582,81.538" id="Stroke-13" stroke="#FFFFFF" stroke-width="5" stroke-linecap="round"></path>
                <path d="M76.3294,93.5771 C76.4304,110.3211 76.5144,129.6801 76.5144,129.6801" id="Stroke-15" stroke="#FFFFFF" stroke-width="5" stroke-linecap="round"></path>
                <path d="M51.2425,75.1733 C51.2425,89.1853 39.8835,100.5443 25.8715,100.5443 C11.8595,100.5443 0.4995,89.1853 0.4995,75.1733 C0.4995,61.1613 11.8595,49.8013 25.8715,49.8013 C39.8835,49.8013 51.2425,61.1613 51.2425,75.1733" id="Fill-17" fill="#FF6F00"></path>
                <path d="M51.2425,75.1733 C51.2425,89.1853 39.8835,100.5443 25.8715,100.5443 C11.8595,100.5443 0.4995,89.1853 0.4995,75.1733 C0.4995,61.1613 11.8595,49.8013 25.8715,49.8013 C39.8835,49.8013 51.2425,61.1613 51.2425,75.1733 Z" id="Stroke-19" stroke="#FFFFFF" stroke-width="5"></path>
                <path d="M24.4969,63.6059 C23.2119,63.6059 22.1659,64.6519 22.1659,65.9369 L22.1659,70.6759 C22.1659,71.9609 23.2119,73.0069 24.4969,73.0069 L27.0789,73.0069 C28.3639,73.0069 29.4099,71.9609 29.4099,70.6759 L29.4099,65.9369 C29.4099,64.6519 28.3639,63.6059 27.0789,63.6059 L24.4969,63.6059 Z M27.0789,74.8979 L24.4969,74.8979 C22.1689,74.8979 20.2759,73.0039 20.2759,70.6759 L20.2759,65.9369 C20.2759,63.6089 22.1689,61.7159 24.4969,61.7159 L27.0789,61.7159 C29.4059,61.7159 31.2999,63.6089 31.2999,65.9369 L31.2999,70.6759 C31.2999,73.0039 29.4059,74.8979 27.0789,74.8979 Z" id="Fill-21" fill="#FFFFFF"></path>
                <path d="M20.1727,83.5176 C19.6507,83.5176 19.2277,83.9406 19.2277,84.4626 L19.2277,88.7476 L21.1177,88.7476 L21.1177,84.4626 C21.1177,83.9406 20.6947,83.5176 20.1727,83.5176" id="Fill-23" fill="#FFFFFF"></path>
                <path d="M30.2864,83.5176 C29.7644,83.5176 29.3414,83.9406 29.3414,84.4626 L29.3414,88.7476 L31.2314,88.7476 L31.2314,84.4626 C31.2314,83.9406 30.8084,83.5176 30.2864,83.5176" id="Fill-25" fill="#FFFFFF"></path>
                <path d="M35.8084,85.1968 C35.8084,80.0988 31.6614,75.9518 26.5634,75.9518 L24.4864,75.9518 C19.3884,75.9518 15.2414,80.0988 15.2414,85.1968 L15.2414,88.0718 C15.2414,88.2988 15.2554,88.5238 15.2724,88.7478 L17.1634,88.7478 C17.1424,88.5248 17.1314,88.2988 17.1314,88.0718 L17.1314,85.1968 C17.1314,81.1418 20.4314,77.8428 24.4864,77.8428 L26.5634,77.8428 C30.6184,77.8428 33.9174,81.1418 33.9174,85.1968 L33.9174,88.0718 C33.9174,88.2988 33.9074,88.5248 33.8864,88.7478 L35.7774,88.7478 C35.7934,88.5238 35.8084,88.2988 35.8084,88.0718 L35.8084,85.1968 Z" id="Fill-27" fill="#FFFFFF"></path>
                <path d="M161.7088,25.3711 C161.7088,39.3831 150.3498,50.7421 136.3378,50.7421 C122.3258,50.7421 110.9668,39.3831 110.9668,25.3711 C110.9668,11.3591 122.3258,0.0001 136.3378,0.0001 C150.3498,0.0001 161.7088,11.3591 161.7088,25.3711" id="Fill-29" fill="#007BFF"></path>
                <path d="M161.7088,25.3711 C161.7088,39.3831 150.3498,50.7421 136.3378,50.7421 C122.3258,50.7421 110.9668,39.3831 110.9668,25.3711 C110.9668,11.3591 122.3258,0.0001 136.3378,0.0001 C150.3498,0.0001 161.7088,11.3591 161.7088,25.3711 Z" id="Stroke-31" stroke="#000076" stroke-width="4"></path>
                <path d="M134.9637,13.8037 C133.6777,13.8037 132.6317,14.8497 132.6317,16.1357 L132.6317,20.8737 C132.6317,22.1587 133.6777,23.2047 134.9637,23.2047 L137.5447,23.2047 C138.8307,23.2047 139.8767,22.1587 139.8767,20.8737 L139.8767,16.1357 C139.8767,14.8497 138.8307,13.8037 137.5447,13.8037 L134.9637,13.8037 Z M137.5447,25.0957 L134.9637,25.0957 C132.6357,25.0957 130.7417,23.2017 130.7417,20.8737 L130.7417,16.1357 C130.7417,13.8067 132.6357,11.9137 134.9637,11.9137 L137.5447,11.9137 C139.8727,11.9137 141.7667,13.8067 141.7667,16.1357 L141.7667,20.8737 C141.7667,23.2017 139.8727,25.0957 137.5447,25.0957 Z" id="Fill-33" fill="#000076"></path>
                <path d="M130.639,33.7158 C130.117,33.7158 129.694,34.1388 129.694,34.6608 L129.694,38.9458 L131.584,38.9458 L131.584,34.6608 C131.584,34.1388 131.161,33.7158 130.639,33.7158" id="Fill-35" fill="#000076"></path>
                <path d="M140.7527,33.7158 C140.2307,33.7158 139.8077,34.1388 139.8077,34.6608 L139.8077,38.9458 L141.6977,38.9458 L141.6977,34.6608 C141.6977,34.1388 141.2747,33.7158 140.7527,33.7158" id="Fill-37" fill="#000076"></path>
                <path d="M146.2747,35.395 C146.2747,30.297 142.1277,26.149 137.0297,26.149 L134.9527,26.149 C129.8547,26.149 125.7077,30.297 125.7077,35.395 L125.7077,38.27 C125.7077,38.497 125.7217,38.722 125.7387,38.946 L127.6297,38.946 C127.6087,38.722 127.5977,38.497 127.5977,38.27 L127.5977,35.395 C127.5977,31.339 130.8977,28.04 134.9527,28.04 L137.0297,28.04 C141.0847,28.04 144.3837,31.339 144.3837,35.395 L144.3837,38.27 C144.3837,38.497 144.3737,38.722 144.3527,38.946 L146.2437,38.946 C146.2607,38.722 146.2747,38.497 146.2747,38.27 L146.2747,35.395 Z" id="Fill-39" fill="#000076"></path>
                <path d="M154.7308,115.8945 C154.7308,124.8485 147.4718,132.1075 138.5178,132.1075 C129.5638,132.1075 122.3048,124.8485 122.3048,115.8945 C122.3048,106.9405 129.5638,99.6815 138.5178,99.6815 C147.4718,99.6815 154.7308,106.9405 154.7308,115.8945" id="Fill-41" fill="#007BFF"></path>
                <path d="M154.7308,115.8945 C154.7308,124.8485 147.4718,132.1075 138.5178,132.1075 C129.5638,132.1075 122.3048,124.8485 122.3048,115.8945 C122.3048,106.9405 129.5638,99.6815 138.5178,99.6815 C147.4718,99.6815 154.7308,106.9405 154.7308,115.8945 Z" id="Stroke-43" stroke="#64EFFF" stroke-width="3"></path>
                <path d="M137.6399,108.5029 C136.8179,108.5029 136.1499,109.1709 136.1499,109.9929 L136.1499,113.0209 C136.1499,113.8419 136.8179,114.5099 137.6399,114.5099 L139.2889,114.5099 C140.1109,114.5099 140.7789,113.8419 140.7789,113.0209 L140.7789,109.9929 C140.7789,109.1709 140.1109,108.5029 139.2889,108.5029 L137.6399,108.5029 Z M139.2889,115.7179 L137.6399,115.7179 C136.1519,115.7179 134.9419,114.5079 134.9419,113.0209 L134.9419,109.9929 C134.9419,108.5049 136.1519,107.2949 137.6399,107.2949 L139.2889,107.2949 C140.7769,107.2949 141.9869,108.5049 141.9869,109.9929 L141.9869,113.0209 C141.9869,114.5079 140.7769,115.7179 139.2889,115.7179 Z" id="Fill-45" fill="#64EFFF"></path>
                <path d="M134.8763,121.227 C134.5433,121.227 134.2723,121.498 134.2723,121.831 L134.2723,124.569 L135.4803,124.569 L135.4803,121.831 C135.4803,121.498 135.2093,121.227 134.8763,121.227" id="Fill-47" fill="#64EFFF"></path>
                <path d="M141.3392,121.227 C141.0062,121.227 140.7352,121.498 140.7352,121.831 L140.7352,124.569 L141.9432,124.569 L141.9432,121.831 C141.9432,121.498 141.6722,121.227 141.3392,121.227" id="Fill-49" fill="#64EFFF"></path>
                <path d="M144.868,122.2998 C144.868,119.0428 142.218,116.3918 138.96,116.3918 L137.633,116.3918 C134.375,116.3918 131.725,119.0428 131.725,122.2998 L131.725,124.1378 C131.725,124.2818 131.734,124.4258 131.745,124.5698 L132.953,124.5698 C132.94,124.4258 132.933,124.2818 132.933,124.1378 L132.933,122.2998 C132.933,119.7088 135.041,117.5998 137.633,117.5998 L138.96,117.5998 C141.552,117.5998 143.66,119.7088 143.66,122.2998 L143.66,124.1378 C143.66,124.2818 143.653,124.4258 143.639,124.5698 L144.848,124.5698 C144.859,124.4258 144.868,124.2818 144.868,124.1378 L144.868,122.2998 Z" id="Fill-51" fill="#64EFFF"></path>
                <g id="Group-55" opacity="0.3" transform="translate(55.000000, 139.010000)">
                    <mask id="mask-2" fill="white">
                        <use xlink:href="#path-1"></use>
                    </mask>
                    <g id="Clip-54"></g>
                    <path d="M48.618,3.7912 C48.618,5.5632 37.788,7.0002 24.43,7.0002 C11.071,7.0002 0.242,5.5632 0.242,3.7912 C0.242,2.0192 11.071,0.5832 24.43,0.5832 C37.788,0.5832 48.618,2.0192 48.618,3.7912" id="Fill-53" fill="#000076" mask="url(#mask-2)"></path>
                </g>
            </g>
        </g>
    </g>
</svg>