<?xml version="1.0" encoding="utf-8"?>
<svg version="1.1" id="Layer_1" xmlns="http://www.w3.org/2000/svg" xmlns:xlink="http://www.w3.org/1999/xlink" x="0px" y="0px"
	 viewBox="0 0 248 152" style="enable-background:new 0 0 248 152;" xml:space="preserve">
<style type="text/css">
	.st0{fill:none;stroke:#64f0ff;stroke-width:4;stroke-linecap:round;stroke-linejoin:round;}
	.st1{fill:none;stroke:#161656;stroke-width:4;stroke-linecap:round;stroke-linejoin:round;}
	.st2{fill:none;stroke:#007bff;stroke-width:4;stroke-linecap:round;stroke-linejoin:round;}
	.st3{fill:none;stroke:#ff6f00;stroke-width:6;stroke-linecap:round;}
	.st4{fill:none;stroke:#161656;stroke-width:5;stroke-linecap:round;stroke-linejoin:round;}
	.st5{fill:#007bff;}
	.st6{fill:none;stroke:#ff6f00;stroke-width:4;stroke-linecap:round;stroke-linejoin:round;}
	.st7{fill:none;stroke:#161656;stroke-width:5;stroke-linecap:round;}
	.st8{fill:none;stroke:#64f0ff;stroke-width:4;}
	.st9{filter:url(#Adobe_OpacityMaskFilter);}
	.st10{mask:url(#mask-2_1_);fill:#161656;}
	.st11{fill:none;stroke:#007bff;stroke-width:3;stroke-linecap:round;stroke-linejoin:round;}
	.st12{opacity:0.3;}
	.st13{filter:url(#Adobe_OpacityMaskFilter_1_);}
	.st14{mask:url(#mask-4_1_);fill:#161656;}
</style>
<title>Invoice icon</title>
<g id="Desktop">
	<g id="Travel-Ledger" transform="translate(-290.000000, -3009.000000)">
		<g id="Group-57" transform="translate(292.000000, 3011.000000)">
			<path id="Stroke-1" class="st0" d="M159.8,107.3v10c0,2.6-2.1,4.8-4.8,4.8h-29.7"/>
			<path id="Stroke-3" class="st1" d="M117.1,122.1H94.3c-2.6,0-4.8-2.1-4.8-4.8v-12.6"/>
			<path id="Stroke-5" class="st2" d="M149.1,50.7h-26.7"/>
			<path id="Stroke-7" class="st2" d="M147.6,62.3h-25.3"/>
			<path id="Stroke-9" class="st3" d="M147.6,72.9h-25.3"/>
			<path id="Stroke-11" class="st0" d="M147.6,84.6h-25.3"/>
			<path id="Stroke-13" class="st4" d="M129.6,27.2H155c2.6,0,4.8,2.1,4.8,4.8v16"/>
			<g id="Group-18" transform="translate(13.483146, 75.620225)">
				<path id="Fill-15" class="st5" d="M44.3,0.2h24.5"/>
				<path id="Stroke-17" class="st6" d="M44.3,0.2h24.5"/>
			</g>
			<g id="Group-22" transform="translate(13.483146, 84.889888)">
				<path id="Fill-19" class="st5" d="M44.3,0.2h40.4"/>
				<path id="Stroke-21" class="st2" d="M44.3,0.2h40.4"/>
			</g>
			<path id="Stroke-23" class="st7" d="M93.2,76.3h14.1"/>
			<path id="Stroke-25" class="st2" d="M74.2,0h41.2c2.9,0,5.3,2.4,5.3,5.3v86.3c0,2.9-2.4,5.3-5.3,5.3H85.2"/>
			<g id="Group-30" transform="translate(0.000000, 24.215730)">
				<path id="Fill-27" class="st5" d="M43.5,47.9V0.5"/>
				<path id="Stroke-29" class="st2" d="M43.5,47.9V0.5"/>
			</g>
			<path id="Stroke-31" class="st0" d="M43.5,15.7V5.2c0-2.9,2.4-5.3,5.3-5.3h16.2"/>
			<path id="Stroke-33" class="st0" d="M43.5,81.1v10.5c0,2.9,2.4,5.3,5.3,5.3h16.2"/>
			<path id="Stroke-35" class="st8" d="M100.9,63.3H65.2c-3.7,0-6.8-3-6.8-6.8V27c0-3.7,3-6.8,6.8-6.8h35.7c3.7,0,6.8,3,6.8,6.8
				v29.5C107.7,60.3,104.6,63.3,100.9,63.3z"/>
			<path id="Stroke-37" class="st8" d="M77.6,27.3v35.4"/>
			<path id="Stroke-39" class="st8" d="M108.4,27.8H59.8"/>
			<g id="Group-43" transform="translate(107.865169, 50.339326)">
				<g id="Clip-42">
				</g>
				<defs>
					<filter id="Adobe_OpacityMaskFilter" filterUnits="userSpaceOnUse" x="44.1" y="0.7" width="49.8" height="49.8">
						<feColorMatrix  type="matrix" values="1 0 0 0 0  0 1 0 0 0  0 0 1 0 0  0 0 0 1 0"/>
					</filter>
				</defs>
				<mask maskUnits="userSpaceOnUse" x="44.1" y="0.7" width="49.8" height="49.8" id="mask-2_1_">
					<g class="st9">
						<polygon id="path-1_1_" class="st5" points="44.1,0.7 93.9,0.7 93.9,50.5 44.1,50.5 						"/>
					</g>
				</mask>
				<path id="Fill-41" class="st10" d="M93.9,25.6c0,13.8-11.2,24.9-24.9,24.9c-13.8,0-24.9-11.2-24.9-24.9
					C44.1,11.8,55.3,0.7,69,0.7C82.8,0.7,93.9,11.8,93.9,25.6"/>
			</g>
			<path id="Stroke-44" class="st11" d="M164.3,75.9c0.3-4.5,2.8-8.7,7-11.1c6.6-3.8,15.1-1.6,19.1,4.9"/>
			<path id="Stroke-46" class="st11" d="M184.2,88.9c5.5-2.9,8.4-9,7.3-14.9"/>
			<path id="Stroke-48" class="st11" d="M186.6,87.3c-5.7,4.6-14.2,4-19.2-1.5c-0.8-0.9-1.5-1.9-2.1-3"/>
			<path id="Stroke-50" class="st11" d="M161.5,74.3c0.1-0.1,2.8,0.7,3,2.8c0,0,0-2.4,2.5-3.2"/>
			<path id="Stroke-52" class="st11" d="M189.4,77.2c0.1,0.1,2.5-1.4,2.3-3.4c0,0,0.5,2.3,3.1,2.5"/>
			<g id="Group-56" transform="translate(19.382022, 132.080899)" class="st12">
				<g id="Clip-55">
				</g>
				<defs>
					<filter id="Adobe_OpacityMaskFilter_1_" filterUnits="userSpaceOnUse" x="43.6" y="0.4" width="99.3" height="17.3">
						<feColorMatrix  type="matrix" values="1 0 0 0 0  0 1 0 0 0  0 0 1 0 0  0 0 0 1 0"/>
					</filter>
				</defs>
				<mask maskUnits="userSpaceOnUse" x="43.6" y="0.4" width="99.3" height="17.3" id="mask-4_1_">
					<g class="st13">
						<polygon id="path-3_1_" class="st5" points="43.6,0.4 142.8,0.4 142.8,17.7 43.6,17.7 						"/>
					</g>
				</mask>
				<path id="Fill-54" class="st14" d="M142.8,9c0-4.8-22.2-8.7-49.6-8.7S43.6,4.3,43.6,9c0,4.8,22.2,8.7,49.6,8.7
					S142.8,13.8,142.8,9"/>
			</g>
		</g>
	</g>
</g>
</svg>
