<?xml version="1.0" encoding="UTF-8"?>
<svg width="586px" height="611px" viewBox="0 0 586 611" version="1.1" xmlns="http://www.w3.org/2000/svg" xmlns:xlink="http://www.w3.org/1999/xlink">
    <!-- Generator: Sketch 51.2 (57519) - http://www.bohemiancoding.com/sketch -->
    <title>Group 29</title>
    <desc>Created with Sketch.</desc>
    <defs>
        <polygon id="path-1" points="0.671838348 0.803967221 379.577644 0.803967221 379.577644 219.45122 0.671838348 219.45122"></polygon>
        <polyline id="path-3" points="0.395387701 32.8826465 56.3427473 0.576358341 102.629178 27.1298563 46.6818182 59.4339857"></polyline>
    </defs>
    <g id="Desktop" stroke="none" stroke-width="1" fill="none" fill-rule="evenodd">
        <g id="3-Product" transform="translate(-686.000000, -1246.000000)">
            <g id="Group-29" transform="translate(687.000000, 1247.000000)">
                <g>
                    <g id="Group-3" opacity="0.248325893" transform="translate(204.610493, 390.548780)">
                        <mask id="mask-2" fill="white">
                            <use xlink:href="#path-1"></use>
                        </mask>
                        <g id="Clip-2"></g>
                        <path d="M371.808672,123.383604 C382.167878,117.486544 382.167878,102.76767 371.808672,96.8965498 L213.445057,6.93394885 C199.064473,-1.23935999 181.211372,-1.23935999 166.802697,6.93394885 L8.44124325,96.8965498 C-1.91796329,102.76767 -1.91796329,117.486544 8.44124325,123.383604 L166.802697,213.320265 C181.183281,221.495736 199.038543,221.495736 213.445057,213.320265 L371.808672,123.383604 Z" id="Fill-1" fill="#000076" mask="url(#mask-2)"></path>
                    </g>
                    <path d="M204.694797,238.978659 L204.694797,394.774962 C204.694797,394.774962 203.204164,404.894186 212.75895,410.845654 C222.311568,416.799281 363.841555,495.662711 363.841555,495.662711 C363.841555,495.662711 374.590147,501.912184 385.039746,503.993902 L385.039746,348.493445 C385.039746,348.493445 377.575747,348.197599 360.853789,338.674386 C344.133998,329.151173 214.847569,255.941206 214.847569,255.941206 C214.847569,255.941206 203.799984,251.1796 204.694797,238.978659" id="Fill-4" fill="#000076" opacity="0.402176339"></path>
                    <path d="M566.267808,336.043001 C576.363301,330.299309 576.363301,315.965934 566.267808,310.248096 L411.952211,222.63203 C397.937037,214.671437 380.540897,214.671437 366.499864,222.63203 L212.182113,310.248096 C202.086619,315.965934 202.086619,330.299309 212.182113,336.043001 L366.499864,423.633214 C380.512883,431.593807 397.911179,431.593807 411.952211,423.633214 L566.267808,336.043001 Z" id="Fill-6" fill="#64EFFF" opacity="0.280078125"></path>
                    <path d="M250.992986,360.792683 C228.263083,373.745776 211.239865,383.444941 211.239865,383.444941 C201.160639,389.175481 201.160639,403.540697 211.239865,409.297147 L365.341847,497.081937 C379.337424,505.058054 396.709241,505.058054 410.728489,497.081937 C410.728489,497.081937 423.977377,489.535502 442.702703,478.869011" id="Stroke-17" stroke="#64EFFF" stroke-width="2" stroke-linecap="round" stroke-linejoin="round"></path>
                    <path d="M455.72337,472.378049 C474.820639,461.6745 497.326275,449.057156 517.106518,437.972561" id="Stroke-19" stroke="#FFFFFF" stroke-width="4" stroke-linecap="round" stroke-linejoin="round"></path>
                    <path d="M525.476948,433.323171 C549.18589,420.026978 567.143395,409.95352 567.143395,409.95352 C577.311502,404.239224 577.311502,389.971708 567.143395,384.280998 C567.143395,384.280998 549.088224,373.971678 528.910447,362.652439" id="Stroke-21" stroke="#000076" stroke-width="2" stroke-linecap="round" stroke-linejoin="round"></path>
                    <path d="M53.9427663,0 C105.630821,29.8409344 269.752825,124.588333 269.752825,124.588333 C318.492218,152.728086 348.767886,205.16426 348.767886,261.43728 L348.767886,331.036585" id="Stroke-23" stroke="#000076" stroke-width="0.5"></path>
                    <path d="M22.3211447,53.9329268 C73.5317773,83.5587512 237.97222,178.684273 237.97222,178.684273 C267.30477,195.65407 285.524642,227.27685 285.524642,261.214282 L285.524642,294.771341" id="Stroke-25" stroke="#FF6F00" stroke-width="3" stroke-dasharray="7"></path>
                    <path d="M0,93.9176829 C43.1322164,118.932078 210.440655,215.964247 210.440655,215.964247 C229.277805,226.890424 240.882353,247.081512 240.882353,268.931697 L240.882353,273.384146" id="Stroke-27" stroke="#64EFFF" stroke-width="2"></path>
                    <path d="M502.166996,250.702917 C508.445659,247.142264 508.445659,238.252464 502.166996,234.706871 L406.153971,180.378403 C397.435524,175.442971 386.609796,175.442971 377.876236,180.378403 L281.863211,234.706871 C275.584547,238.252464 275.584547,247.142264 281.863211,250.702917 L377.876236,305.016325 C386.594682,309.953908 397.418252,309.953908 406.153971,305.016325 L502.166996,250.702917 Z" id="Fill-12" fill="#000076"></path>
                    <path d="M566.267808,255.143912 C576.363301,249.400207 576.363301,235.064641 566.267808,229.346788 L411.952211,141.732654 C397.937037,133.772042 380.540897,133.772042 366.499864,141.732654 L212.182113,229.346788 C202.086619,235.064641 202.086619,249.400207 212.182113,255.143912 L366.499864,342.732193 C380.512883,350.69496 397.911179,350.69496 411.952211,342.732193 L566.267808,255.143912 Z" id="Stroke-8" stroke="#FFFFFF" stroke-width="6"></path>
                    <g id="Group-16" transform="translate(340.397456, 212.012195)">
                        <mask id="mask-4" fill="white">
                            <use xlink:href="#path-3"></use>
                        </mask>
                        <g id="Clip-15"></g>
                        <path d="M79.4787934,13.8481424 C78.257871,13.1487413 76.2657253,13.1465826 75.0556651,13.8481424 L38.7582052,34.8064313 C37.5438001,35.5079911 37.5655247,36.6455972 38.7864472,37.3449984 C40.0204044,38.0530341 41.9821357,38.0530341 43.1965408,37.3536329 L79.4940007,16.3953441 C80.7062333,15.6937843 80.7127507,14.5561781 79.4787934,13.8481424 M23.2294619,22.2344801 C22.0085394,21.5350789 20.0316009,21.5415549 18.8193683,22.2431147 L2.59978275,31.6094774 C1.37451537,32.3175131 1.38103275,33.4464846 2.59978275,34.1480444 C3.83591243,34.8560801 5.79764372,34.8539215 7.02508356,34.1480444 L23.2424967,24.7816817 C24.4569017,24.0822806 24.4655916,22.9425158 23.2294619,22.2344801 M65.0905916,46.2494109 C63.8696691,45.5500098 61.8775234,45.5500098 60.6674632,46.2494109 L44.4478777,55.6157736 C43.2226103,56.3238093 43.23999,57.4614155 44.4609124,58.1608166 C45.6818349,58.8623764 47.6609459,58.8688524 48.8862132,58.1608166 L65.1057988,48.7966126 C66.315859,48.0972115 66.3093416,46.9488121 65.0905916,46.2494109 M39.4121156,20.9220236 C38.1911932,20.2226225 36.2272894,20.2226225 35.0150568,20.9220236 L9.57772393,35.6116061 C8.35028409,36.3196418 8.35680147,37.450772 9.57772393,38.1501731 C10.8116811,38.8582088 12.7755849,38.8582088 14.0008523,38.1501731 L39.4381852,23.4605907 C40.6525902,22.7590309 40.6460729,21.6300593 39.4121156,20.9220236 M67.317363,36.9326971 C66.098613,36.2311373 64.1216745,36.2246614 62.9094418,36.9240625 L37.4699365,51.6136449 C36.2446691,52.3216806 36.2642213,53.4592868 37.4851437,54.1586879 C38.7038937,54.8602477 40.6830047,54.8667236 41.9082721,54.1586879 L67.3477774,39.4712642 C68.56001,38.7697044 68.5404579,37.6320982 67.317363,36.9326971 M62.0839071,15.8621586 C60.8651571,15.1605989 58.8860461,15.1692334 57.6738135,15.8686346 L24.7393215,34.8884598 C23.5270889,35.587861 23.5336063,36.7168325 24.7545287,37.4162337 C25.9732787,38.1177934 27.9502172,38.126428 29.1646223,37.4248682 L62.0991143,18.4072017 C63.3113469,17.7078005 63.3048295,16.5615598 62.0839071,15.8621586 M76.037617,23.866416 C74.8166945,23.1648563 72.8245488,23.1648563 71.6144886,23.866416 L38.6799967,42.8840826 C37.4655916,43.5834838 37.4873162,44.7232486 38.7060662,45.4226497 C39.9269886,46.1220508 41.9039271,46.1306854 43.1183322,45.4291257 L76.0528242,26.4114591 C77.2650568,25.7120579 77.2607119,24.5658172 76.037617,23.866416" id="Fill-14" fill="#005EFF" mask="url(#mask-4)"></path>
                    </g>
                </g>
            </g>
        </g>
    </g>
</svg>