<?xml version="1.0" encoding="UTF-8"?>
<svg width="115px" height="119px" viewBox="0 0 115 119" version="1.1" xmlns="http://www.w3.org/2000/svg" xmlns:xlink="http://www.w3.org/1999/xlink">
    <!-- Generator: Sketch 51.2 (57519) - http://www.bohemiancoding.com/sketch -->
    <title>Group 19</title>
    <desc>Created with Sketch.</desc>
    <defs></defs>
    <g id="Desktop" stroke="none" stroke-width="1" fill="none" fill-rule="evenodd" stroke-linecap="round">
        <g id="9-Join" transform="translate(-760.000000, -593.000000)">
            <g id="Group-19" transform="translate(763.000000, 596.000000)">
                <path d="M74,74 L74,109" id="Stroke-1" stroke="#000076" stroke-width="4" stroke-linejoin="round"></path>
                <g id="Group-18">
                    <path d="M62.5226575,48.0779143 C56.8065945,48.0779143 52.130752,43.4073429 52.130752,37.6987714 L52.130752,32.7959143 C52.130752,27.0882 56.8065945,22.4176286 62.5226575,22.4176286 C68.2387205,22.4176286 72.9154213,27.0882 72.9154213,32.7959143 L72.9154213,37.6987714 C72.9154213,43.4073429 68.2387205,48.0779143 62.5226575,48.0779143 Z" id="Stroke-2" stroke="#FFFFFF" stroke-width="4" stroke-linejoin="round"></path>
                    <path d="M50.9880543,73.7616 L50.9880543,109.1256" id="Stroke-4" stroke="#FFFFFF" stroke-width="4" stroke-linejoin="round"></path>
                    <path d="M62.8415898,94.6875429 L62.8415898,113.999829" id="Stroke-6" stroke="#64EFFF" stroke-width="4" stroke-linejoin="round"></path>
                    <path d="M25.8887016,72.5328 C25.8887016,72.5328 40.1282213,73.7430857 49.3786307,60.5953714" id="Stroke-8" stroke="#FFFFFF" stroke-width="4" stroke-linejoin="round"></path>
                    <path d="M57.3412094,55.3326 C57.3412094,55.3326 66.752115,53.1211714 73.3959654,58.0968857" id="Stroke-10" stroke="#FF6F00" stroke-width="4"></path>
                    <path d="M80.3434709,91.8222857 C81.4506362,91.8222857 89.7543764,75.2357143 79.7898882,62.52" id="Stroke-12" stroke="#FFFFFF" stroke-width="4"></path>
                    <path d="M17.6878677,77.1788571 L8.59194646,77.1788571 C3.86632441,77.1788571 -0.000171653543,73.428 -0.000171653543,68.8431429 L-0.000171653543,8.73 C-0.000171653543,4.14514286 3.86632441,0.394285714 8.59194646,0.394285714 L67.9480252,0.394285714" id="Stroke-14" stroke="#FFFFFF" stroke-width="6" stroke-linejoin="round"></path>
                    <path d="M84.4990315,0.394285714 L100.179583,0.394285714 C104.904346,0.394285714 108.770843,4.14514286 108.770843,8.73 L108.770843,68.8431429 C108.770843,73.428 104.904346,77.1788571 100.179583,77.1788571 L92.9684173,77.1788571" id="Stroke-16" stroke="#FFFFFF" stroke-width="6" stroke-linejoin="round"></path>
                </g>
            </g>
        </g>
    </g>
</svg>