<?xml version="1.0" encoding="utf-8"?>
<!-- Generator: Adobe Illustrator 22.1.0, SVG Export Plug-In . SVG Version: 6.00 Build 0)  -->
<svg version="1.1" id="Layer_1" xmlns="http://www.w3.org/2000/svg" xmlns:xlink="http://www.w3.org/1999/xlink" x="0px" y="0px"
	 viewBox="0 0 248 152" style="enable-background:new 0 0 248 152;" xml:space="preserve">
<style type="text/css">
	.st0{filter:url(#Adobe_OpacityMaskFilter);}
	.st1{fill:#FFFFFF;}
	.st2{mask:url(#mask-2_1_);fill:#000076;fill-opacity:0.3;}
	.st3{fill:#000076;fill-opacity:0.3;}
	.st4{fill:#FF6F00;}
	.st5{fill:none;stroke:#FF6F00;stroke-width:3;stroke-linecap:round;stroke-linejoin:round;}
	.st6{fill:none;stroke:#FFFFFF;stroke-width:3;stroke-linecap:round;stroke-linejoin:round;}
	.st7{filter:url(#Adobe_OpacityMaskFilter_1_);}
	.st8{mask:url(#mask-4_1_);fill:none;stroke:#64EFFF;stroke-width:2;stroke-linecap:round;stroke-linejoin:round;}
	.st9{filter:url(#Adobe_OpacityMaskFilter_2_);}
	.st10{mask:url(#mask-4_2_);fill:none;stroke:#FFFFFF;stroke-width:2;stroke-linecap:round;stroke-linejoin:round;}
	.st11{filter:url(#Adobe_OpacityMaskFilter_3_);}
	.st12{mask:url(#mask-4_3_);fill:none;stroke:#FFFFFF;stroke-width:2;stroke-linecap:round;stroke-linejoin:round;}
	.st13{filter:url(#Adobe_OpacityMaskFilter_4_);}
	.st14{mask:url(#mask-4_4_);fill:none;stroke:#64EFFF;stroke-width:2;stroke-linecap:round;stroke-linejoin:round;}
	.st15{filter:url(#Adobe_OpacityMaskFilter_5_);}
	.st16{mask:url(#mask-4_5_);fill:#000076;}
	.st17{filter:url(#Adobe_OpacityMaskFilter_6_);}
	.st18{mask:url(#mask-4_6_);fill:#000076;}
	.st19{filter:url(#Adobe_OpacityMaskFilter_7_);}
	.st20{mask:url(#mask-4_7_);fill:#64EFFF;}
	.st21{filter:url(#Adobe_OpacityMaskFilter_8_);}
	.st22{mask:url(#mask-4_8_);fill:#FF6F00;}
	.st23{filter:url(#Adobe_OpacityMaskFilter_9_);}
	.st24{mask:url(#mask-4_9_);fill:#FFFFFF;}
	.st25{filter:url(#Adobe_OpacityMaskFilter_10_);}
	.st26{mask:url(#mask-4_10_);fill:#64EFFF;}
	.st27{filter:url(#Adobe_OpacityMaskFilter_11_);}
	.st28{mask:url(#mask-4_11_);fill:#000076;}
	.st29{filter:url(#Adobe_OpacityMaskFilter_12_);}
	.st30{mask:url(#mask-4_12_);fill:#FF6F00;}
	.st31{filter:url(#Adobe_OpacityMaskFilter_13_);}
	.st32{mask:url(#mask-4_13_);fill:#FFFFFF;}
	.st33{filter:url(#Adobe_OpacityMaskFilter_14_);}
	.st34{mask:url(#mask-4_14_);fill:#FFFFFF;}
	.st35{filter:url(#Adobe_OpacityMaskFilter_15_);}
	.st36{mask:url(#mask-4_15_);fill:#64EFFF;}
	.st37{filter:url(#Adobe_OpacityMaskFilter_16_);}
	.st38{mask:url(#mask-4_16_);fill:#000076;}
	.st39{filter:url(#Adobe_OpacityMaskFilter_17_);}
	.st40{mask:url(#mask-4_17_);fill:#FFFFFF;}
	.st41{filter:url(#Adobe_OpacityMaskFilter_18_);}
	.st42{mask:url(#mask-4_18_);fill:#64EFFF;}
	.st43{filter:url(#Adobe_OpacityMaskFilter_19_);}
	.st44{mask:url(#mask-4_19_);fill:#FF6F00;}
	.st45{filter:url(#Adobe_OpacityMaskFilter_20_);}
	.st46{mask:url(#mask-4_20_);fill:#FFFFFF;}
</style>
<title>Group 45</title>
<desc>Created with Sketch.</desc>
<g id="Desktop">
	<g id="Travel-Ledger" transform="translate(-638.000000, -3010.000000)">
		<g id="Group-45" transform="translate(638.000000, 3011.000000)">
			<g id="Group-3" transform="translate(58.959538, 140.093931)">
				<g id="Clip-2">
				</g>
				<defs>
					<filter id="Adobe_OpacityMaskFilter" filterUnits="userSpaceOnUse" x="42.6" y="0.8" width="44.1" height="9.2">
						<feColorMatrix  type="matrix" values="1 0 0 0 0  0 1 0 0 0  0 0 1 0 0  0 0 0 1 0"/>
					</filter>
				</defs>
				<mask maskUnits="userSpaceOnUse" x="42.6" y="0.8" width="44.1" height="9.2" id="mask-2_1_">
					<g class="st0">
						<polygon id="path-1_1_" class="st1" points="42.6,0.8 86.7,0.8 86.7,10 42.6,10 						"/>
					</g>
				</mask>
				<path id="Fill-1" class="st2" d="M86.7,5.4c0-2.6-9.9-4.6-22-4.6c-12.2,0-22,2.1-22,4.6c0,2.6,9.9,4.6,22,4.6
					C76.8,10,86.7,8,86.7,5.4"/>
			</g>
			<path id="Fill-4" class="st3" d="M145.7,75.5c0-2.6-9.9-4.6-22-4.6c-12.2,0-22,2.1-22,4.6s9.9,4.6,22,4.6
				C135.8,80.1,145.7,78.1,145.7,75.5"/>
			<path id="Fill-6" class="st1" d="M122.9,99.4c-2,0-3.7,1.6-3.7,3.7v7.4c0,2,1.6,3.7,3.7,3.7h4c2,0,3.7-1.6,3.7-3.7v-7.4
				c0-2-1.6-3.7-3.7-3.7H122.9z M127,117.1h-4c-3.6,0-6.6-3-6.6-6.6v-7.4c0-3.6,3-6.6,6.6-6.6h4c3.6,0,6.6,3,6.6,6.6v7.4
				C133.6,114.1,130.6,117.1,127,117.1z"/>
			<path id="Fill-8" class="st4" d="M116.2,130.6c-0.8,0-1.5,0.7-1.5,1.5v6.7h3v-6.7C117.6,131.3,117,130.6,116.2,130.6"/>
			<path id="Fill-10" class="st4" d="M132,130.6c-0.8,0-1.5,0.7-1.5,1.5v6.7h3v-6.7C133.5,131.3,132.8,130.6,132,130.6"/>
			<path id="Fill-12" class="st1" d="M140.7,133.2c0-8-6.5-14.5-14.5-14.5h-3.3c-8,0-14.5,6.5-14.5,14.5v4.5c0,0.4,0,0.7,0,1.1h3
				c0-0.4-0.1-0.7-0.1-1.1v-4.5c0-6.4,5.2-11.5,11.5-11.5h3.3c6.4,0,11.5,5.2,11.5,11.5v4.5c0,0.4,0,0.7,0,1.1h3c0-0.4,0-0.7,0-1.1
				V133.2z"/>
			<path id="Fill-14" class="st1" d="M176,60.4c0-4.9-3.5-7-6-8.1l-3.6-1.6c-1.9-0.8-2.6-1.3-2.6-2.1c0-1.5,2-1.7,2.6-1.7
				c1.5,0,2.8,0.5,4,1.7c0.4,0.4,1,0.6,1.5,0.6c0.5,0,1.1-0.3,1.4-0.7l1.4-1.7c0.7-0.8,0.6-1.9-0.1-2.6c-1.7-1.8-3.9-2.9-6.3-3.3
				v-2.2c0-0.7-0.6-1.3-1.3-1.3h-1.8c-0.7,0-1.3,0.6-1.3,1.3v2.3c-3.9,0.9-6.7,3.9-6.7,7.8c0,3.5,2,6.1,5.9,7.8l3.4,1.5
				c2.5,1.1,2.8,1.4,2.8,2.5c0,1.9-2.2,2.1-3.2,2.1c-1.9,0-3.7-0.9-5.1-2.4c-0.4-0.4-0.9-0.5-1.5-0.6c-0.6,0-1.1,0.3-1.5,0.7
				l-1.6,1.8c-0.7,0.8-0.7,1.9,0,2.7c2,2.1,4.5,3.4,7.4,3.9v2.6c0,0.7,0.6,1.3,1.3,1.3h1.8c0.7,0,1.3-0.6,1.3-1.3v-2.5
				C172.9,67.9,176,64.6,176,60.4"/>
			<path id="Fill-16" class="st1" d="M205.4,60.4c0-4.9-3.5-7-6-8.1l-3.6-1.6c-1.9-0.8-2.6-1.3-2.6-2.1c0-1.5,2-1.7,2.6-1.7
				c1.5,0,2.8,0.5,4,1.7c0.4,0.4,1,0.6,1.5,0.6c0.5,0,1.1-0.3,1.4-0.7l1.4-1.7c0.7-0.8,0.6-1.9-0.1-2.6c-1.6-1.8-3.9-2.9-6.3-3.3
				v-2.2c0-0.7-0.6-1.3-1.3-1.3h-1.8c-0.7,0-1.3,0.6-1.3,1.3v2.3c-3.9,0.9-6.7,3.9-6.7,7.8c0,3.5,2,6.1,5.9,7.8l3.4,1.5
				c2.5,1.1,2.8,1.4,2.8,2.5c0,1.9-2.2,2.1-3.2,2.1c-1.9,0-3.7-0.9-5.1-2.4c-0.4-0.4-0.9-0.5-1.5-0.6c-0.6,0-1.1,0.3-1.5,0.7
				l-1.6,1.8c-0.7,0.8-0.7,1.9,0,2.7c2,2.1,4.5,3.4,7.4,3.9v2.6c0,0.7,0.6,1.3,1.3,1.3h1.8c0.7,0,1.3-0.6,1.3-1.3v-2.5
				C202.3,67.9,205.4,64.6,205.4,60.4"/>
			<path id="Fill-18" class="st1" d="M176,126.1c0-4.9-3.5-7-6-8.1l-3.6-1.6c-1.9-0.8-2.6-1.3-2.6-2.1c0-1.5,2-1.7,2.6-1.7
				c1.5,0,2.8,0.5,4,1.7c0.4,0.4,1,0.6,1.5,0.6c0.5,0,1.1-0.3,1.4-0.7l1.4-1.7c0.7-0.8,0.6-1.9-0.1-2.6c-1.7-1.8-3.9-2.9-6.3-3.3
				v-2.2c0-0.7-0.6-1.3-1.3-1.3h-1.8c-0.7,0-1.3,0.6-1.3,1.3v2.3c-3.9,0.9-6.7,3.9-6.7,7.8c0,3.5,2,6.1,5.9,7.8l3.4,1.5
				c2.5,1.1,2.8,1.4,2.8,2.5c0,1.9-2.2,2.1-3.2,2.1c-1.9,0-3.7-0.9-5.1-2.4c-0.4-0.4-0.9-0.5-1.5-0.6c-0.6,0-1.1,0.3-1.5,0.7
				l-1.6,1.8c-0.7,0.8-0.7,1.9,0,2.7c2,2.1,4.5,3.4,7.4,3.9v2.6c0,0.7,0.6,1.3,1.3,1.3h1.8c0.7,0,1.3-0.6,1.3-1.3v-2.5
				C172.9,133.7,176,130.4,176,126.1"/>
			<path id="Stroke-20" class="st5" d="M129.7,1.8h5.9c3.3,0,6,2.7,6,6v36.5"/>
			<path id="Stroke-22" class="st6" d="M141.7,51.7V61c0,3.3-2.7,6-6,6h-24.8c-3.3,0-6-2.7-6-6V7.8c0-3.3,2.7-6,6-6h13"/>
			<g id="Clip-25">
			</g>
			<defs>
				<filter id="Adobe_OpacityMaskFilter_1_" filterUnits="userSpaceOnUse" x="111.1" y="11.8" width="10" height="10.1">
					<feColorMatrix  type="matrix" values="1 0 0 0 0  0 1 0 0 0  0 0 1 0 0  0 0 0 1 0"/>
				</filter>
			</defs>
			<mask maskUnits="userSpaceOnUse" x="111.1" y="11.8" width="10" height="10.1" id="mask-4_1_">
				<g class="st7">
					<polygon id="path-3_1_" class="st1" points="42,150.1 132.6,150.1 205.4,150.1 205.4,0.5 42,0.5 					"/>
				</g>
			</mask>
			<polygon id="Stroke-24" class="st8" points="112.1,21 120.1,21 120.1,12.8 112.1,12.8 			"/>
			<defs>
				<filter id="Adobe_OpacityMaskFilter_2_" filterUnits="userSpaceOnUse" x="125.3" y="11.8" width="10" height="10.1">
					<feColorMatrix  type="matrix" values="1 0 0 0 0  0 1 0 0 0  0 0 1 0 0  0 0 0 1 0"/>
				</filter>
			</defs>
			<mask maskUnits="userSpaceOnUse" x="125.3" y="11.8" width="10" height="10.1" id="mask-4_2_">
				<g class="st9">
					<polygon id="path-3_2_" class="st1" points="42,150.1 132.6,150.1 205.4,150.1 205.4,0.5 42,0.5 					"/>
				</g>
			</mask>
			<polygon id="Stroke-26" class="st10" points="126.3,21 134.4,21 134.4,12.8 126.3,12.8 			"/>
			<defs>
				<filter id="Adobe_OpacityMaskFilter_3_" filterUnits="userSpaceOnUse" x="111.1" y="25.2" width="10" height="10.1">
					<feColorMatrix  type="matrix" values="1 0 0 0 0  0 1 0 0 0  0 0 1 0 0  0 0 0 1 0"/>
				</filter>
			</defs>
			<mask maskUnits="userSpaceOnUse" x="111.1" y="25.2" width="10" height="10.1" id="mask-4_3_">
				<g class="st11">
					<polygon id="path-3_3_" class="st1" points="42,150.1 132.6,150.1 205.4,150.1 205.4,0.5 42,0.5 					"/>
				</g>
			</mask>
			<polygon id="Stroke-27" class="st12" points="112.1,34.3 120.1,34.3 120.1,26.2 112.1,26.2 			"/>
			<defs>
				<filter id="Adobe_OpacityMaskFilter_4_" filterUnits="userSpaceOnUse" x="125.3" y="25.2" width="10" height="10.1">
					<feColorMatrix  type="matrix" values="1 0 0 0 0  0 1 0 0 0  0 0 1 0 0  0 0 0 1 0"/>
				</filter>
			</defs>
			<mask maskUnits="userSpaceOnUse" x="125.3" y="25.2" width="10" height="10.1" id="mask-4_4_">
				<g class="st13">
					<polygon id="path-3_4_" class="st1" points="42,150.1 132.6,150.1 205.4,150.1 205.4,0.5 42,0.5 					"/>
				</g>
			</mask>
			<polygon id="Stroke-28" class="st14" points="126.3,34.3 134.4,34.3 134.4,26.2 126.3,26.2 			"/>
			<defs>
				<filter id="Adobe_OpacityMaskFilter_5_" filterUnits="userSpaceOnUse" x="118.4" y="46.8" width="9.8" height="16">
					<feColorMatrix  type="matrix" values="1 0 0 0 0  0 1 0 0 0  0 0 1 0 0  0 0 0 1 0"/>
				</filter>
			</defs>
			<mask maskUnits="userSpaceOnUse" x="118.4" y="46.8" width="9.8" height="16" id="mask-4_5_">
				<g class="st15">
					<polygon id="path-3_5_" class="st1" points="42,150.1 132.6,150.1 205.4,150.1 205.4,0.5 42,0.5 					"/>
				</g>
			</mask>
			<polygon id="Fill-29" class="st16" points="118.4,62.8 128.2,62.8 128.2,46.8 118.4,46.8 			"/>
			<defs>
				<filter id="Adobe_OpacityMaskFilter_6_" filterUnits="userSpaceOnUse" x="88.1" y="133.5" width="4.8" height="1.7">
					<feColorMatrix  type="matrix" values="1 0 0 0 0  0 1 0 0 0  0 0 1 0 0  0 0 0 1 0"/>
				</filter>
			</defs>
			<mask maskUnits="userSpaceOnUse" x="88.1" y="133.5" width="4.8" height="1.7" id="mask-4_6_">
				<g class="st17">
					<polygon id="path-3_6_" class="st1" points="42,150.1 132.6,150.1 205.4,150.1 205.4,0.5 42,0.5 					"/>
				</g>
			</mask>
			<path id="Fill-30" class="st18" d="M92,135.2h-3c-0.5,0-0.9-0.4-0.9-0.9c0-0.5,0.4-0.9,0.9-0.9h3c0.5,0,0.9,0.4,0.9,0.9
				C92.9,134.8,92.5,135.2,92,135.2"/>
			<defs>
				<filter id="Adobe_OpacityMaskFilter_7_" filterUnits="userSpaceOnUse" x="75.2" y="133.5" width="7.8" height="1.7">
					<feColorMatrix  type="matrix" values="1 0 0 0 0  0 1 0 0 0  0 0 1 0 0  0 0 0 1 0"/>
				</filter>
			</defs>
			<mask maskUnits="userSpaceOnUse" x="75.2" y="133.5" width="7.8" height="1.7" id="mask-4_7_">
				<g class="st19">
					<polygon id="path-3_7_" class="st1" points="42,150.1 132.6,150.1 205.4,150.1 205.4,0.5 42,0.5 					"/>
				</g>
			</mask>
			<path id="Fill-31" class="st20" d="M82.1,135.2h-6c-0.5,0-0.9-0.4-0.9-0.9c0-0.5,0.4-0.9,0.9-0.9h6c0.5,0,0.9,0.4,0.9,0.9
				C83,134.8,82.6,135.2,82.1,135.2"/>
			<defs>
				<filter id="Adobe_OpacityMaskFilter_8_" filterUnits="userSpaceOnUse" x="62.3" y="133.5" width="7.8" height="1.7">
					<feColorMatrix  type="matrix" values="1 0 0 0 0  0 1 0 0 0  0 0 1 0 0  0 0 0 1 0"/>
				</filter>
			</defs>
			<mask maskUnits="userSpaceOnUse" x="62.3" y="133.5" width="7.8" height="1.7" id="mask-4_8_">
				<g class="st21">
					<polygon id="path-3_8_" class="st1" points="42,150.1 132.6,150.1 205.4,150.1 205.4,0.5 42,0.5 					"/>
				</g>
			</mask>
			<path id="Fill-32" class="st22" d="M69.2,135.2h-6c-0.5,0-0.9-0.4-0.9-0.9c0-0.5,0.4-0.9,0.9-0.9h6c0.5,0,0.9,0.4,0.9,0.9
				C70.1,134.8,69.7,135.2,69.2,135.2"/>
			<defs>
				<filter id="Adobe_OpacityMaskFilter_9_" filterUnits="userSpaceOnUse" x="49.6" y="131.9" width="7.5" height="3.3">
					<feColorMatrix  type="matrix" values="1 0 0 0 0  0 1 0 0 0  0 0 1 0 0  0 0 0 1 0"/>
				</filter>
			</defs>
			<mask maskUnits="userSpaceOnUse" x="49.6" y="131.9" width="7.5" height="3.3" id="mask-4_9_">
				<g class="st23">
					<polygon id="path-3_9_" class="st1" points="42,150.1 132.6,150.1 205.4,150.1 205.4,0.5 42,0.5 					"/>
				</g>
			</mask>
			<path id="Fill-33" class="st24" d="M56.3,135.2C56.3,135.2,56.2,135.2,56.3,135.2c-2.2-0.1-4.3-0.7-6.2-1.7
				c-0.4-0.2-0.6-0.7-0.4-1.2c0.2-0.4,0.7-0.6,1.2-0.4c1.7,0.9,3.5,1.4,5.4,1.5c0.5,0,0.8,0.4,0.8,0.9
				C57.1,134.8,56.7,135.2,56.3,135.2"/>
			<defs>
				<filter id="Adobe_OpacityMaskFilter_10_" filterUnits="userSpaceOnUse" x="42.2" y="121.8" width="4" height="7.3">
					<feColorMatrix  type="matrix" values="1 0 0 0 0  0 1 0 0 0  0 0 1 0 0  0 0 0 1 0"/>
				</filter>
			</defs>
			<mask maskUnits="userSpaceOnUse" x="42.2" y="121.8" width="4" height="7.3" id="mask-4_10_">
				<g class="st25">
					<polygon id="path-3_10_" class="st1" points="42,150.1 132.6,150.1 205.4,150.1 205.4,0.5 42,0.5 					"/>
				</g>
			</mask>
			<path id="Fill-34" class="st26" d="M45.4,129.1c-0.3,0-0.5-0.1-0.7-0.4c-1.2-1.8-2.1-3.7-2.4-5.9c-0.1-0.5,0.2-0.9,0.7-1
				c0.5-0.1,0.9,0.2,1,0.7c0.3,1.9,1.1,3.6,2.2,5.2c0.3,0.4,0.2,0.9-0.2,1.2C45.7,129,45.6,129.1,45.4,129.1"/>
			<defs>
				<filter id="Adobe_OpacityMaskFilter_11_" filterUnits="userSpaceOnUse" x="42" y="108.9" width="1.7" height="7.8">
					<feColorMatrix  type="matrix" values="1 0 0 0 0  0 1 0 0 0  0 0 1 0 0  0 0 0 1 0"/>
				</filter>
			</defs>
			<mask maskUnits="userSpaceOnUse" x="42" y="108.9" width="1.7" height="7.8" id="mask-4_11_">
				<g class="st27">
					<polygon id="path-3_11_" class="st1" points="42,150.1 132.6,150.1 205.4,150.1 205.4,0.5 42,0.5 					"/>
				</g>
			</mask>
			<path id="Fill-35" class="st28" d="M42.9,116.7c-0.5,0-0.9-0.4-0.9-0.9v-6c0-0.5,0.4-0.9,0.9-0.9c0.5,0,0.9,0.4,0.9,0.9v6
				C43.7,116.3,43.3,116.7,42.9,116.7"/>
			<defs>
				<filter id="Adobe_OpacityMaskFilter_12_" filterUnits="userSpaceOnUse" x="42" y="96" width="1.7" height="7.8">
					<feColorMatrix  type="matrix" values="1 0 0 0 0  0 1 0 0 0  0 0 1 0 0  0 0 0 1 0"/>
				</filter>
			</defs>
			<mask maskUnits="userSpaceOnUse" x="42" y="96" width="1.7" height="7.8" id="mask-4_12_">
				<g class="st29">
					<polygon id="path-3_12_" class="st1" points="42,150.1 132.6,150.1 205.4,150.1 205.4,0.5 42,0.5 					"/>
				</g>
			</mask>
			<path id="Fill-36" class="st30" d="M42.9,103.8c-0.5,0-0.9-0.4-0.9-0.9v-6c0-0.5,0.4-0.9,0.9-0.9c0.5,0,0.9,0.4,0.9,0.9v6
				C43.7,103.4,43.3,103.8,42.9,103.8"/>
			<defs>
				<filter id="Adobe_OpacityMaskFilter_13_" filterUnits="userSpaceOnUse" x="42" y="83.1" width="1.7" height="7.8">
					<feColorMatrix  type="matrix" values="1 0 0 0 0  0 1 0 0 0  0 0 1 0 0  0 0 0 1 0"/>
				</filter>
			</defs>
			<mask maskUnits="userSpaceOnUse" x="42" y="83.1" width="1.7" height="7.8" id="mask-4_13_">
				<g class="st31">
					<polygon id="path-3_13_" class="st1" points="42,150.1 132.6,150.1 205.4,150.1 205.4,0.5 42,0.5 					"/>
				</g>
			</mask>
			<path id="Fill-37" class="st32" d="M42.9,90.8c-0.5,0-0.9-0.4-0.9-0.9v-6c0-0.5,0.4-0.9,0.9-0.9c0.5,0,0.9,0.4,0.9,0.9v6
				C43.7,90.5,43.3,90.8,42.9,90.8"/>
			<defs>
				<filter id="Adobe_OpacityMaskFilter_14_" filterUnits="userSpaceOnUse" x="42" y="70.2" width="1.7" height="7.8">
					<feColorMatrix  type="matrix" values="1 0 0 0 0  0 1 0 0 0  0 0 1 0 0  0 0 0 1 0"/>
				</filter>
			</defs>
			<mask maskUnits="userSpaceOnUse" x="42" y="70.2" width="1.7" height="7.8" id="mask-4_14_">
				<g class="st33">
					<polygon id="path-3_14_" class="st1" points="42,150.1 132.6,150.1 205.4,150.1 205.4,0.5 42,0.5 					"/>
				</g>
			</mask>
			<path id="Fill-38" class="st34" d="M42.9,77.9c-0.5,0-0.9-0.4-0.9-0.9v-6c0-0.5,0.4-0.9,0.9-0.9c0.5,0,0.9,0.4,0.9,0.9v6
				C43.7,77.5,43.3,77.9,42.9,77.9"/>
			<defs>
				<filter id="Adobe_OpacityMaskFilter_15_" filterUnits="userSpaceOnUse" x="42" y="57.2" width="1.7" height="7.8">
					<feColorMatrix  type="matrix" values="1 0 0 0 0  0 1 0 0 0  0 0 1 0 0  0 0 0 1 0"/>
				</filter>
			</defs>
			<mask maskUnits="userSpaceOnUse" x="42" y="57.2" width="1.7" height="7.8" id="mask-4_15_">
				<g class="st35">
					<polygon id="path-3_15_" class="st1" points="42,150.1 132.6,150.1 205.4,150.1 205.4,0.5 42,0.5 					"/>
				</g>
			</mask>
			<path id="Fill-39" class="st36" d="M42.9,65c-0.5,0-0.9-0.4-0.9-0.9v-6c0-0.5,0.4-0.9,0.9-0.9c0.5,0,0.9,0.4,0.9,0.9v6
				C43.7,64.6,43.3,65,42.9,65"/>
			<defs>
				<filter id="Adobe_OpacityMaskFilter_16_" filterUnits="userSpaceOnUse" x="42.7" y="45.2" width="4.7" height="6.9">
					<feColorMatrix  type="matrix" values="1 0 0 0 0  0 1 0 0 0  0 0 1 0 0  0 0 0 1 0"/>
				</filter>
			</defs>
			<mask maskUnits="userSpaceOnUse" x="42.7" y="45.2" width="4.7" height="6.9" id="mask-4_16_">
				<g class="st37">
					<polygon id="path-3_16_" class="st1" points="42,150.1 132.6,150.1 205.4,150.1 205.4,0.5 42,0.5 					"/>
				</g>
			</mask>
			<path id="Fill-40" class="st38" d="M43.5,52.2c-0.1,0-0.2,0-0.3,0c-0.5-0.1-0.7-0.6-0.6-1.1c0.6-2,1.7-3.9,3.1-5.5
				c0.3-0.4,0.9-0.4,1.2-0.1c0.4,0.3,0.4,0.9,0.1,1.2c-1.3,1.4-2.2,3.1-2.8,4.9C44.2,51.9,43.9,52.2,43.5,52.2"/>
			<defs>
				<filter id="Adobe_OpacityMaskFilter_17_" filterUnits="userSpaceOnUse" x="51.2" y="40.5" width="7.7" height="2.6">
					<feColorMatrix  type="matrix" values="1 0 0 0 0  0 1 0 0 0  0 0 1 0 0  0 0 0 1 0"/>
				</filter>
			</defs>
			<mask maskUnits="userSpaceOnUse" x="51.2" y="40.5" width="7.7" height="2.6" id="mask-4_17_">
				<g class="st39">
					<polygon id="path-3_17_" class="st1" points="42,150.1 132.6,150.1 205.4,150.1 205.4,0.5 42,0.5 					"/>
				</g>
			</mask>
			<path id="Fill-41" class="st40" d="M52.1,43.1c-0.4,0-0.7-0.2-0.8-0.6c-0.2-0.4,0.1-0.9,0.5-1.1c1.7-0.6,3.4-0.9,5.2-0.9h1
				c0.5,0,0.9,0.4,0.9,0.9c0,0.5-0.4,0.9-0.9,0.9h-1c-1.6,0-3.2,0.3-4.6,0.8C52.3,43.1,52.2,43.1,52.1,43.1"/>
			<defs>
				<filter id="Adobe_OpacityMaskFilter_18_" filterUnits="userSpaceOnUse" x="77" y="40.5" width="7.8" height="1.7">
					<feColorMatrix  type="matrix" values="1 0 0 0 0  0 1 0 0 0  0 0 1 0 0  0 0 0 1 0"/>
				</filter>
			</defs>
			<mask maskUnits="userSpaceOnUse" x="77" y="40.5" width="7.8" height="1.7" id="mask-4_18_">
				<g class="st41">
					<polygon id="path-3_18_" class="st1" points="42,150.1 132.6,150.1 205.4,150.1 205.4,0.5 42,0.5 					"/>
				</g>
			</mask>
			<path id="Fill-42" class="st42" d="M83.9,42.2h-6c-0.5,0-0.9-0.4-0.9-0.9c0-0.5,0.4-0.9,0.9-0.9h6c0.5,0,0.9,0.4,0.9,0.9
				C84.8,41.8,84.4,42.2,83.9,42.2"/>
			<defs>
				<filter id="Adobe_OpacityMaskFilter_19_" filterUnits="userSpaceOnUse" x="64.1" y="40.5" width="7.8" height="1.7">
					<feColorMatrix  type="matrix" values="1 0 0 0 0  0 1 0 0 0  0 0 1 0 0  0 0 0 1 0"/>
				</filter>
			</defs>
			<mask maskUnits="userSpaceOnUse" x="64.1" y="40.5" width="7.8" height="1.7" id="mask-4_19_">
				<g class="st43">
					<polygon id="path-3_19_" class="st1" points="42,150.1 132.6,150.1 205.4,150.1 205.4,0.5 42,0.5 					"/>
				</g>
			</mask>
			<path id="Fill-43" class="st44" d="M71,42.2h-6c-0.5,0-0.9-0.4-0.9-0.9c0-0.5,0.4-0.9,0.9-0.9h6c0.5,0,0.9,0.4,0.9,0.9
				C71.8,41.8,71.5,42.2,71,42.2"/>
			<defs>
				<filter id="Adobe_OpacityMaskFilter_20_" filterUnits="userSpaceOnUse" x="89.9" y="40.5" width="4.8" height="1.7">
					<feColorMatrix  type="matrix" values="1 0 0 0 0  0 1 0 0 0  0 0 1 0 0  0 0 0 1 0"/>
				</filter>
			</defs>
			<mask maskUnits="userSpaceOnUse" x="89.9" y="40.5" width="4.8" height="1.7" id="mask-4_20_">
				<g class="st45">
					<polygon id="path-3_20_" class="st1" points="42,150.1 132.6,150.1 205.4,150.1 205.4,0.5 42,0.5 					"/>
				</g>
			</mask>
			<path id="Fill-44" class="st46" d="M93.8,42.2h-3c-0.5,0-0.9-0.4-0.9-0.9c0-0.5,0.4-0.9,0.9-0.9h3c0.5,0,0.9,0.4,0.9,0.9
				C94.7,41.8,94.3,42.2,93.8,42.2"/>
		</g>
	</g>
</g>
</svg>
