<?xml version="1.0" encoding="utf-8"?>
<!-- Generator: Adobe Illustrator 22.1.0, SVG Export Plug-In . SVG Version: 6.00 Build 0)  -->
<svg version="1.1" id="Layer_1" xmlns="http://www.w3.org/2000/svg" xmlns:xlink="http://www.w3.org/1999/xlink" x="0px" y="0px"
	 viewBox="0 0 166 166" style="enable-background:new 0 0 166 166;" xml:space="preserve">
<style type="text/css">
	.st0{fill:none;stroke:#FFFFFF;stroke-width:6;stroke-linecap:round;stroke-linejoin:round;}
	.st1{fill:none;stroke:#64EFFF;stroke-width:6;stroke-linecap:round;stroke-linejoin:round;stroke-dasharray:7,15;}
	.st2{fill:none;stroke:#FFFFFF;stroke-width:5;stroke-linecap:round;stroke-linejoin:round;}
	.st3{fill:none;stroke:#000076;stroke-width:9;stroke-linecap:round;stroke-linejoin:round;}
	.st4{opacity:0.3;}
	.st5{filter:url(#Adobe_OpacityMaskFilter);}
	.st6{fill:#FFFFFF;}
	.st7{mask:url(#mask-2_1_);fill:#000076;}
</style>
<title>Group 14</title>
<desc>Created with Sketch.</desc>
<g id="Desktop">
	<g id="_x39_-Join" transform="translate(-974.000000, -592.000000)">
		<g id="Group-14" transform="translate(976.000000, 595.000000)">
			<path id="Stroke-1" class="st0" d="M33,69.8c1.2-16.9,10.5-33,26.4-42.1c25.4-14.7,57.8-6,72.5,19.4c12.2,21.1,8.2,47.1-8,63.7"
				/>
			<path id="Stroke-3" class="st1" d="M109.7,121c-24.9,12.5-55.6,3.6-69.7-20.9c-2.4-4.1-4.1-8.4-5.3-12.8"/>
			<path id="Stroke-5" class="st2" d="M22.5,63.5c0.3-0.3,10.4,2.8,11.5,10.6c0,0,0-9,9.3-12"/>
			<path id="Stroke-7" class="st2" d="M123.7,96.4c0.4,0,5,9.6-0.1,15.6c0,0,6.6-6.1,15.1-1.2"/>
			<polyline id="Stroke-9" class="st3" points="80.8,53.1 80.3,85.4 102.8,94.5 			"/>
			<g id="Group-13" transform="translate(35.000000, 114.843000)" class="st4">
				<g id="Clip-12">
				</g>
				<defs>
					<filter id="Adobe_OpacityMaskFilter" filterUnits="userSpaceOnUse" x="22.9" y="20.9" width="52" height="6.6">
						<feColorMatrix  type="matrix" values="1 0 0 0 0  0 1 0 0 0  0 0 1 0 0  0 0 0 1 0"/>
					</filter>
				</defs>
				<mask maskUnits="userSpaceOnUse" x="22.9" y="20.9" width="52" height="6.6" id="mask-2_1_">
					<g class="st5">
						<polygon id="path-1_1_" class="st6" points="22.9,20.9 74.9,20.9 74.9,27.5 22.9,27.5 						"/>
					</g>
				</mask>
				<path id="Fill-11" class="st7" d="M74.9,24.2c0,1.8-11.6,3.3-26,3.3c-14.4,0-26-1.5-26-3.3c0-1.8,11.6-3.3,26-3.3
					C63.3,20.9,74.9,22.4,74.9,24.2"/>
			</g>
		</g>
	</g>
</g>
</svg>
