<?xml version="1.0" encoding="utf-8"?>
<svg version="1.1" id="Layer_1" xmlns="http://www.w3.org/2000/svg" xmlns:xlink="http://www.w3.org/1999/xlink" x="0px" y="0px"
	 viewBox="0 0 141.7 183" style="enable-background:new 0 0 141.7 183;" xml:space="preserve">
<style type="text/css">
	.st0{fill:#007bff;}
	.st1{fill:#64f0ff;}
	.st2{filter:url(#Adobe_OpacityMaskFilter);}
	.st3{mask:url(#mask-2_1_);fill:#161656;}
	.st4{filter:url(#Adobe_OpacityMaskFilter_1_);}
	.st5{mask:url(#mask-4_1_);fill:#ff6f00;}
	.st6{fill:#161656;fill-opacity:0.2;}
</style>
<title>Reduction icon</title>
<g id="Desktop">
	<g id="APPII" transform="translate(-773.000000, -3062.000000)">
		<g id="Costs-Copy" transform="translate(773.347594, 3061.000000)">
			<path id="Fill-1" class="st0" d="M72.5,88.6c-0.1,0-0.3,0-0.4-0.1l-3.7-1.6C61.5,83.9,58,79.2,58,73c0-5.1,2.8-9.6,7.4-12.2
				c0.5-0.3,1.2-0.1,1.5,0.4c0.3,0.5,0.1,1.2-0.4,1.5c-4,2.2-6.3,5.9-6.3,10.2c0,5.2,3.1,9.2,9.1,11.8l3.7,1.6
				c0.6,0.2,0.8,0.9,0.6,1.5C73.4,88.4,73,88.6,72.5,88.6"/>
			<path id="Fill-3" class="st0" d="M74.4,113.4h-2.2c-1.8,0-3.3-1.5-3.3-3.3v-3.3c-4.6-1-8.6-3.2-11.8-6.6
				c-1.5-1.7-1.6-4.2-0.1-5.9l2.6-3c0.8-0.9,2-1.5,3.2-1.5c0.1,0,0.1,0,0.2,0c1.1,0.2,2.2,0.5,3.1,1.4c2.1,2.2,4.8,3.5,7.6,3.5
				c1.5,0,4.1-0.3,4.1-2.3c0-1.1,0-1.3-4-3.1l-1.6-0.7c-0.6-0.2-0.8-0.9-0.6-1.5c0.2-0.6,0.9-0.8,1.5-0.6l1.6,0.7
				c4,1.8,5.3,2.6,5.3,5.1c0,2.8-2.4,4.5-6.3,4.5c-3.4,0-6.7-1.5-9.2-4.2c-0.3-0.4-0.9-0.5-1.7-0.7c-0.6,0-1.1,0.3-1.5,0.7l-2.6,3
				c-0.7,0.8-0.7,2.1,0,2.9c3,3.2,7,5.3,11.5,6.1c0.5,0.1,0.9,0.6,0.9,1.1v4.2c0,0.6,0.5,1.1,1.1,1.1h2.2c0.6,0,1.1,0.5,1.1,1.1
				C75.6,112.9,75.1,113.4,74.4,113.4"/>
			<path id="Fill-5" class="st0" d="M75.3,113.4h-0.7c-0.6,0-1.1-0.5-1.1-1.1c0-0.6,0.5-1.1,1.1-1.1h0.7c0.6,0,1.1-0.5,1.1-1.1v-4.2
				c0-0.5,0.4-1,0.9-1.1c4.1-0.7,7.5-2.8,9.5-5.8c0.3-0.5,1-0.6,1.5-0.3c0.5,0.3,0.6,1,0.3,1.5c-2.2,3.3-5.8,5.6-10.1,6.5v3.3
				C78.6,111.9,77.1,113.4,75.3,113.4"/>
			<path id="Fill-7" class="st1" d="M88,100.3c-0.2,0-0.4-0.1-0.6-0.2c-0.5-0.3-0.7-1-0.4-1.5c1.2-1.9,1.8-4.1,1.8-6.5
				c0-7.5-5.3-10.6-9.2-12.2l-5.9-2.6c-3-1.3-4.9-2.3-4.9-4.5c0-2.4,2.1-3.8,5.4-3.8c2.8,0,5.2,1,7.4,3.1c0.4,0.4,1,0.7,1.5,0.6
				c0,0,0.1,0,0.1,0c0.6,0,1.2-0.3,1.5-0.8l2.3-2.8c0.7-0.8,0.7-2.1-0.1-2.9c-2.5-2.7-5.9-4.5-9.7-5.1c-0.5-0.1-0.9-0.6-0.9-1.1
				v-3.6c0-0.6-0.5-1.1-1.1-1.1h-3c-0.3,0-0.5,0.1-0.7,0.2c-0.5,0.4-1.2,0.3-1.6-0.1c-0.4-0.5-0.3-1.2,0.1-1.6
				c0.6-0.5,1.3-0.8,2.1-0.8h3c1.8,0,3.3,1.5,3.3,3.3v2.7C82.5,60,86,62,88.6,64.8c1.5,1.6,1.6,4.1,0.1,5.8l-2.3,2.8
				c-0.8,0.9-1.9,1.5-3.1,1.5C82.2,75,81,74.6,80,73.6c-1.7-1.7-3.6-2.5-5.8-2.5c-0.7,0-3.2,0.1-3.2,1.6c0,0.6,0.3,1.1,3.5,2.5
				l5.9,2.6c1.9,0.8,4.7,2.1,6.9,4.5c2.4,2.6,3.7,5.9,3.7,9.8c0,2.8-0.7,5.4-2.1,7.6C88.7,100.1,88.4,100.3,88,100.3"/>
			<path id="Fill-9" class="st0" d="M31.5,97.3c-1.3,0-2.5-0.9-2.9-2.2C23.8,77.5,29.2,59,42.6,46.7c1.2-1.1,3.1-1,4.2,0.2
				c1.1,1.2,1,3.1-0.2,4.2c-11.7,10.7-16.4,27-12.2,42.3c0.4,1.6-0.5,3.2-2.1,3.7C32.1,97.3,31.8,97.3,31.5,97.3"/>
			<g id="Group-13" transform="translate(34.000000, 0.537000)">
				<g id="Clip-12">
				</g>
				<defs>
					<filter id="Adobe_OpacityMaskFilter" filterUnits="userSpaceOnUse" x="17.9" y="33.5" width="68.1" height="34.1">
						<feColorMatrix  type="matrix" values="1 0 0 0 0  0 1 0 0 0  0 0 1 0 0  0 0 0 1 0"/>
					</filter>
				</defs>
				<mask maskUnits="userSpaceOnUse" x="17.9" y="33.5" width="68.1" height="34.1" id="mask-2_1_">
					<g class="st2">
						<polygon id="path-1_1_" class="st0" points="17.9,33.5 86,33.5 86,67.5 17.9,67.5 						"/>
					</g>
				</mask>
				<path id="Fill-11" class="st3" d="M83,67.5c-1.2,0-2.3-0.7-2.8-1.9c-1.3-3.1-3-6.1-5-8.8C63,40.1,40.7,34.7,22.2,44
					c-1.5,0.7-3.3,0.1-4-1.3c-0.7-1.5-0.1-3.3,1.3-4C40.6,28,66.1,34.2,80.1,53.3c2.3,3.1,4.2,6.5,5.7,10.1c0.6,1.5-0.1,3.3-1.6,3.9
					C83.8,67.5,83.4,67.5,83,67.5"/>
			</g>
			<g id="Group-16" transform="translate(45.000000, 41.537000)">
				<g id="Clip-15">
				</g>
				<defs>
					<filter id="Adobe_OpacityMaskFilter_1_" filterUnits="userSpaceOnUse" x="18.8" y="33.1" width="59.6" height="55.9">
						<feColorMatrix  type="matrix" values="1 0 0 0 0  0 1 0 0 0  0 0 1 0 0  0 0 0 1 0"/>
					</filter>
				</defs>
				<mask maskUnits="userSpaceOnUse" x="18.8" y="33.1" width="59.6" height="55.9" id="mask-4_1_">
					<g class="st4">
						<polygon id="path-3_1_" class="st0" points="18.8,33.1 78.4,33.1 78.4,89 18.8,89 						"/>
					</g>
				</mask>
				<path id="Fill-14" class="st5" d="M30.1,89c-3,0-5.9-0.3-8.8-0.8c-1.6-0.3-2.7-1.9-2.4-3.5c0.3-1.6,1.9-2.7,3.5-2.4
					c11.6,2.2,23.2-0.5,32.7-7.4C67.1,66,73.7,51.3,72.2,36.4c-0.2-1.6,1-3.1,2.7-3.3c1.7-0.2,3.1,1,3.3,2.7
					c1.7,17-5.7,33.8-19.5,43.9C50.3,85.8,40.3,89,30.1,89"/>
			</g>
			<path id="Fill-17" class="st0" d="M23.1,92.1C23.1,92.1,23.1,92.1,23.1,92.1C23.1,92.1,23.1,92.1,23.1,92.1z M23.1,92.1
				C23.1,92.1,23.1,92.1,23.1,92.1C23.1,92.1,23.1,92.1,23.1,92.1z M23.1,92.1C23.1,92.1,23.1,92.1,23.1,92.1
				C23.1,92.1,23.1,92.1,23.1,92.1z M23.1,92.1C23.1,92.1,23.1,92.1,23.1,92.1C23.1,92.1,23.1,92.1,23.1,92.1z M23.1,92.1L23.1,92.1
				L23.1,92.1z M23.1,92.1C23.1,92.1,23.1,92.1,23.1,92.1C23.1,92.1,23.1,92.1,23.1,92.1z M23.1,92.1L23.1,92.1L23.1,92.1z
				 M23.1,92.1C23.1,92.1,23.1,92.1,23.1,92.1L23.1,92.1z M33,101.9c-1.3,0-2.6-0.9-2.9-2.2c-1.2-4.7-7.5-6.4-8.9-6.6
				c-0.8,0.1-1.6-0.1-2.3-0.7c-1.3-1.1-1.4-3-0.3-4.2c1.3-1.5,3.3-1.1,4.6-0.8c2.7,0.6,5.8,1.9,8.2,4c1.3-2.9,3.7-5.7,7.8-7.6
				c1.5-0.7,3.3,0,4,1.5c0.7,1.5,0,3.3-1.5,4c-6.5,3-5.8,9.3-5.8,9.3c0.2,1.6-0.9,3-2.4,3.3C33.3,101.9,33.1,101.9,33,101.9z"/>
			<path id="Fill-19" class="st6" d="M118.6,145.6c0,2.7-17.2,4.9-38.4,4.9s-38.4-2.2-38.4-4.9s17.2-4.9,38.4-4.9
				S118.6,142.9,118.6,145.6"/>
		</g>
	</g>
</g>
</svg>
