<?xml version="1.0" encoding="UTF-8"?>
<svg width="382px" height="717px" viewBox="0 0 382 717" version="1.1" xmlns="http://www.w3.org/2000/svg" xmlns:xlink="http://www.w3.org/1999/xlink">
    <!-- Generator: Sketch 51.2 (57519) - http://www.bohemiancoding.com/sketch -->
    <title>Group 123</title>
    <desc>Created with Sketch.</desc>
    <defs>
        <path d="M164.004,6.267 C171.109,2.238 179.063,0.224 187.014,0.224 C194.965,0.224 202.912,2.238 210.003,6.267 L366.179,94.955 C376.396,100.742 376.396,115.253 366.179,121.067 L210.003,209.729 C195.793,217.788 178.187,217.788 164.004,209.729 L7.828,121.067 C-2.388,115.253 -2.388,100.742 7.828,94.955" id="path-1"></path>
        <path d="M164.004,6.267 L7.828,94.955 C-2.388,100.742 -2.388,115.253 7.828,121.067 L164.004,209.729 C178.187,217.788 195.793,217.788 210.003,209.729 L366.179,121.067 C376.396,115.253 376.396,100.742 366.179,94.955 L210.003,6.267 C202.912,2.238 194.965,0.224 187.014,0.224 C179.063,0.224 171.109,2.238 164.004,6.267" id="path-3"></path>
        <path d="M164.004,6.267 L7.828,94.955 C-2.388,100.742 -2.388,115.253 7.828,121.067 L164.004,209.729 C178.187,217.788 195.793,217.788 210.003,209.729 L366.179,121.067 C376.396,115.253 376.396,100.742 366.179,94.955 L210.003,6.267 C202.912,2.238 194.965,0.224 187.014,0.224 C179.063,0.224 171.109,2.238 164.004,6.267" id="path-5"></path>
        <path d="M164.004,6.267 L7.828,94.955 C-2.388,100.742 -2.388,115.253 7.828,121.067 L164.004,209.729 C178.187,217.788 195.793,217.788 210.003,209.729 L366.179,121.067 C376.396,115.253 376.396,100.742 366.179,94.955 L210.003,6.267 C202.912,2.238 194.965,0.224 187.014,0.224 C179.063,0.224 171.109,2.238 164.004,6.267" id="path-7"></path>
        <path d="M164.004,6.267 L7.828,94.955 C-2.388,100.742 -2.388,115.253 7.828,121.067 L164.004,209.729 C178.187,217.788 195.793,217.788 210.003,209.729 L366.179,121.067 C376.396,115.253 376.396,100.742 366.179,94.955 L210.003,6.267 C202.912,2.238 194.965,0.224 187.014,0.224 C179.063,0.224 171.109,2.238 164.004,6.267" id="path-9"></path>
        <path d="M164.004,6.267 L7.828,94.955 C-2.388,100.742 -2.388,115.253 7.828,121.067 L164.004,209.729 C178.187,217.788 195.793,217.788 210.003,209.729 L366.179,121.067 C376.396,115.253 376.396,100.742 366.179,94.955 L210.003,6.267 C202.912,2.238 194.965,0.224 187.014,0.224 C179.063,0.224 171.109,2.238 164.004,6.267" id="path-11"></path>
        <path d="M164.004,6.267 L7.828,94.955 C-2.388,100.742 -2.388,115.253 7.828,121.067 L164.004,209.729 C178.187,217.788 195.793,217.788 210.003,209.729 L366.179,121.067 C376.396,115.253 376.396,100.742 366.179,94.955 L210.003,6.267 C202.912,2.238 194.965,0.224 187.014,0.224 C179.063,0.224 171.109,2.238 164.004,6.267" id="path-13"></path>
        <path d="M164.004,6.267 L7.828,94.955 C-2.388,100.742 -2.388,115.253 7.828,121.067 L164.004,209.729 C178.187,217.788 195.793,217.788 210.003,209.729 L366.179,121.067 C376.396,115.253 376.396,100.742 366.179,94.955 L210.003,6.267 C202.912,2.238 194.965,0.224 187.014,0.224 C179.063,0.224 171.109,2.238 164.004,6.267" id="path-15"></path>
        <path d="M92.178,3.955 L4.727,53.617 C-0.994,56.857 -0.994,64.982 4.727,68.239 L92.178,117.884 C100.12,122.396 109.979,122.396 117.935,117.884 L205.386,68.239 C211.107,64.982 211.107,56.857 205.386,53.617 L117.935,3.955 C113.964,1.699 109.514,0.571 105.062,0.571 C100.61,0.571 96.156,1.699 92.178,3.955 Z" id="path-17"></path>
        <path d="M92.178,3.955 L4.727,53.617 C-0.994,56.857 -0.994,64.982 4.727,68.239 L92.178,117.884 C100.12,122.396 109.979,122.396 117.935,117.884 L205.386,68.239 C211.107,64.982 211.107,56.857 205.386,53.617 L117.935,3.955 C113.964,1.699 109.514,0.571 105.062,0.571 C100.61,0.571 96.156,1.699 92.178,3.955 Z" id="path-19"></path>
        <path d="M92.178,3.955 L4.727,53.617 C-0.994,56.857 -0.994,64.982 4.727,68.239 L92.178,117.884 C100.12,122.396 109.979,122.396 117.935,117.884 L205.386,68.239 C211.107,64.982 211.107,56.857 205.386,53.617 L117.935,3.955 C113.964,1.699 109.514,0.571 105.062,0.571 C100.61,0.571 96.156,1.699 92.178,3.955 Z" id="path-21"></path>
    </defs>
    <g id="Desktop" stroke="none" stroke-width="1" fill="none" fill-rule="evenodd">
        <g id="3.1-Mantle" transform="translate(-566.000000, -756.000000)">
            <g id="Group-123" transform="translate(569.000000, 755.000000)">
                <g id="Group-25" transform="translate(1.000000, 448.807000)">
                    <g id="Group-3">
                        <mask id="mask-2" fill="white">
                            <use xlink:href="#path-1"></use>
                        </mask>
                        <g id="Clip-2"></g>
                        <path d="M312.5513,-30.6373 C309.9133,-32.1603 305.7353,-32.3383 302.6003,-31.0593 L302.4523,-30.9993 L160.5813,-89.8933 L160.6953,-90.0123 C162.2223,-91.7723 161.6743,-93.8753 159.3103,-95.2413 C156.2613,-97.0013 151.2983,-97.0013 148.2573,-95.2343 C145.9543,-93.8953 145.3853,-91.8973 146.7833,-90.1433 L146.8863,-90.0313 L51.6563,-53.2783 L51.4953,-53.3703 L51.2443,-53.5153 L50.9253,-53.7133 C50.7313,-53.8253 50.5593,-53.9113 50.3893,-53.9843 C48.6893,-54.6503 46.6503,-54.8933 44.6363,-54.6763 C42.6223,-54.4583 40.8733,-53.7993 39.7293,-52.8173 C38.7213,-51.9663 38.2933,-50.9503 38.4703,-49.8893 L38.4933,-49.7573 L-96.3587,-30.7673 L-96.4627,-30.8533 C-96.7487,-31.0963 -97.0797,-31.3143 -97.4227,-31.5123 C-97.7417,-31.6973 -98.0847,-31.8683 -98.4497,-32.0133 C-101.9637,-33.3983 -106.7407,-32.8703 -109.1207,-30.8533 C-111.1817,-29.0853 -110.7927,-26.7053 -108.1887,-25.2023 C-107.8457,-25.0043 -107.4697,-24.8263 -107.0827,-24.6683 C-106.0097,-24.2463 -104.7567,-23.9953 -103.3787,-23.9233 L-103.1967,-23.9233 L-72.2837,43.9387 L-72.4887,43.9907 C-73.8637,44.3277 -75.0227,44.8677 -75.8487,45.5737 C-77.8887,47.3147 -77.4767,49.6687 -74.8617,51.1777 C-74.6437,51.3037 -74.4277,51.4157 -74.1877,51.5277 L-74.0057,51.6067 L-133.4997,109.2417 L-133.7057,109.1887 C-136.6457,108.4897 -139.9787,108.8797 -142.2037,110.1717 C-145.2447,111.9387 -145.2277,114.8007 -142.1677,116.5677 C-139.8947,117.8797 -136.5227,118.2487 -133.5557,117.5037 L-133.3407,117.4577 L-98.3487,149.6477 L-98.5187,149.7327 L-98.7917,149.8387 L-99.0077,149.9107 C-102.0487,151.6777 -102.0207,154.5467 -98.9607,156.3137 C-96.8027,157.5597 -93.5547,157.9627 -90.6677,157.3287 L-90.4517,157.2827 L-10.9957,238.2127 L-11.1427,238.2987 C-14.0937,240.0917 -14.0207,242.8677 -10.9947,244.6147 C-7.9447,246.3757 -2.9927,246.3817 0.0483,244.6147 C0.7963,244.1797 1.3743,243.6457 1.7813,243.0257 L1.8593,242.9007 L105.6923,256.0017 L105.6693,256.1337 C105.4953,257.4787 106.2763,258.7707 107.8413,259.6747 C108.1603,259.8587 108.5143,260.0237 108.8913,260.1747 C111.8923,261.3557 115.8403,261.1247 118.4943,259.6087 L118.6543,259.5157 L182.3683,288.2307 L182.2673,288.3427 C181.0233,289.7667 181.4533,291.4617 183.3613,292.5627 C185.8273,293.9877 189.8233,293.9807 192.2623,292.5627 C192.9543,292.1607 193.4413,291.6527 193.7673,290.9737 L193.8343,290.8547 L274.7943,295.1667 L274.7943,295.2987 C274.8593,296.4917 275.6503,297.5807 276.9973,298.3587 C277.3063,298.5367 277.6493,298.7077 278.0133,298.8527 C281.5283,300.2377 286.3063,299.7097 288.6853,297.6927 C289.3873,297.0857 289.8153,296.3867 289.9483,295.6087 L289.9583,295.4967 L436.5403,275.2337 L436.6443,275.3197 C436.9293,275.5637 437.2493,275.7877 437.5923,275.9857 C437.9123,276.1697 438.2663,276.3347 438.6313,276.4797 C440.3203,277.1527 442.3693,277.4027 444.3833,277.1857 C446.3973,276.9677 448.1353,276.3017 449.3023,275.3197 C451.0703,273.8157 451.0473,271.8577 449.2623,270.3277 L449.1253,270.2227 L544.0013,221.0927 L544.1733,221.1787 C547.3113,222.6357 551.7613,222.5237 554.5303,220.9147 C557.5713,219.1477 557.5553,216.2727 554.5053,214.5127 C553.1693,213.7407 551.4033,213.2997 549.3993,213.2337 L549.1823,213.2267 L533.8033,124.1137 L534.0193,124.0807 C535.5883,123.8567 536.7253,123.5007 537.6323,122.9737 C540.6733,121.2067 540.6573,118.3447 537.5973,116.5777 C534.9823,115.0677 530.8253,114.8767 527.7013,116.1357 L527.5203,116.2157 L405.2653,41.5427 L405.4013,41.4377 L405.4913,41.3847 L405.5263,41.3517 C407.6113,39.5847 407.2093,37.2107 404.5943,35.7007 C404.2633,35.5097 403.8873,35.3317 403.4983,35.1737 C401.1953,34.2637 398.2683,34.1777 395.6893,34.9487 L395.4953,35.0087 L313.4143,-24.9603 L313.5043,-25.0523 C315.4873,-26.8663 315.0983,-29.1673 312.5513,-30.6373 M269.1313,49.4757 L306.4133,-22.9683 L306.6293,-22.9623 C308.5303,-22.9033 310.4303,-23.2653 311.9623,-23.9973 L312.1673,-24.1033 L393.9963,35.6807 L393.8383,35.7737 C393.7133,35.8457 393.5763,35.9117 393.4403,35.9777 C393.2013,36.0897 392.9973,36.1957 392.8273,36.3337 C392.1933,36.8747 391.7873,37.5077 391.6203,38.1997 L391.5743,38.3057 L272.9133,51.9347 L272.8443,51.8167 C272.4533,51.1967 271.8473,50.6497 271.0593,50.1947 C270.7283,50.0027 270.3633,49.8317 269.9633,49.6797 L269.6903,49.6137 L269.3253,49.5347 L269.1313,49.4757 M184.3753,-18.5043 L156.4953,-87.7833 L156.6993,-87.8363 C157.7113,-88.0663 158.6093,-88.4033 159.3233,-88.8183 L159.3693,-88.8583 L159.5503,-88.9763 L301.0563,-30.2283 L300.8863,-30.1033 C299.9353,-29.3653 299.3933,-28.5333 299.3183,-27.6963 L299.2963,-27.5773 L192.4873,-15.4643 L192.4063,-15.5903 C191.9693,-16.3153 191.3403,-16.9153 190.5403,-17.3773 C190.2553,-17.5413 189.9363,-17.6863 189.6153,-17.8183 C188.2013,-18.3723 186.4813,-18.6163 184.5923,-18.5113 L184.3753,-18.5043 M263.2213,49.1527 L190.3963,-10.8233 L190.5663,-10.9083 C190.9973,-11.1463 191.3483,-11.3893 191.6433,-11.6403 C192.4923,-12.3593 192.8743,-13.2163 192.8353,-14.2513 L192.8233,-14.3773 L299.5413,-26.4903 L299.5993,-26.3513 C300.0023,-25.4343 300.6093,-24.7683 301.5343,-24.2343 C302.2873,-23.7993 303.2243,-23.4563 304.3183,-23.2193 L304.5453,-23.1663 L267.3643,49.0727 L267.1253,49.0407 C265.7803,48.8957 264.5183,48.9147 263.4043,49.1127 L263.2213,49.1527 M404.9603,112.9247 L402.6643,42.7887 L402.8013,42.7497 C403.0393,42.6767 403.2563,42.5777 403.4833,42.4857 L403.9033,42.3077 L526.1353,116.9667 L525.9993,117.0717 C525.2633,117.6197 524.7993,118.2457 524.5643,118.9247 L524.5203,119.0567 L411.0483,116.5317 L411.0133,116.4197 C410.7013,115.5427 409.9803,114.7587 408.9053,114.1387 C408.5743,113.9467 408.1983,113.7687 407.8223,113.6177 C407.0243,113.3007 406.1343,113.0767 405.1653,112.9517 L404.9603,112.9247 M393.7813,41.9977 C394.1133,42.1887 394.4783,42.3607 394.8773,42.5117 C396.5663,43.1847 398.6153,43.4357 400.6303,43.2177 L400.9373,43.1847 L403.2073,112.8597 L402.9683,112.8657 C401.5693,112.9247 400.2493,113.1887 399.1363,113.6377 L398.9663,113.6967 L272.6923,55.1327 L272.7713,55.0337 C273.1893,54.4207 273.3663,53.7617 273.2833,53.0557 L273.2723,52.9307 L391.5703,39.3407 L391.6163,39.4987 C391.8613,40.4547 392.6163,41.3247 393.7813,41.9977 M544.9753,213.9127 L475.2753,163.2997 L475.4103,163.2077 C477.3613,161.8887 477.4063,160.0097 475.5443,158.6327 L475.4063,158.5397 L527.8453,123.4617 L528.0293,123.5277 C529.2483,123.9687 530.4793,124.2067 531.6873,124.2457 L531.9133,124.2587 L547.2933,213.3717 L547.0663,213.3987 C546.4173,213.4967 545.8033,213.6427 545.1793,213.8467 L544.9753,213.9127 M467.2753,157.8667 L409.6903,119.9277 L409.8033,119.8217 L409.8493,119.7957 C410.4943,119.2487 410.8893,118.5827 411.0323,117.7717 L411.0663,117.6337 L524.4353,120.1517 L524.4583,120.2827 C524.6463,121.1797 525.2423,121.9847 526.2363,122.6637 L526.3853,122.7617 L473.9693,157.8277 L473.7853,157.7617 C471.7893,157.0957 469.4223,157.1087 467.4573,157.8007 L467.2753,157.8667 M148.2933,-88.8383 C149.8813,-87.9223 152.0463,-87.4733 154.4023,-87.5723 L154.6293,-87.5853 L182.5323,-18.2143 L182.3403,-18.1683 C180.8063,-17.7923 179.7043,-17.2983 178.9453,-16.6583 L178.9003,-16.6053 L178.8323,-16.5263 L178.7073,-16.4143 L53.3653,-48.9663 L53.4333,-49.0983 C53.9273,-50.1133 53.7163,-51.2343 52.8463,-52.2633 L52.7543,-52.3823 L147.9393,-89.1083 L148.0993,-89.0163 L148.2373,-88.8973 L148.2933,-88.8383 M134.1313,30.3017 L181.7473,-10.2293 L181.9523,-10.1763 C184.1183,-9.5563 186.6003,-9.5703 188.7483,-10.1963 L188.9643,-10.2553 L261.5963,49.5677 L261.3803,49.6537 C260.5513,49.9767 259.8593,50.3787 259.3153,50.8407 C259.1683,50.9657 259.0543,51.0977 258.9303,51.2367 L258.7493,51.4467 L136.9893,34.2517 L136.9983,34.1267 C137.1853,32.8277 136.3583,31.5617 134.7713,30.6447 C134.6223,30.5587 134.4743,30.4737 134.3143,30.3947 L134.1313,30.3017 M126.2283,29.7087 L50.6113,-46.7313 L50.7933,-46.8233 C51.4863,-47.1333 52.0193,-47.4563 52.4273,-47.7993 L52.4723,-47.8523 L52.5633,-47.9313 L52.6763,-48.0503 L178.0063,-15.4913 L177.9503,-15.3663 C177.1853,-13.8233 177.9343,-12.1543 179.8993,-11.0203 L180.1383,-10.8953 L180.3103,-10.7963 L132.6713,29.7607 L132.4663,29.7087 C130.5623,29.2147 128.3543,29.2007 126.4453,29.6617 L126.2283,29.7087 M309.7113,101.8487 L269.7663,57.1107 L269.9593,57.0387 C270.5503,56.8007 271.1173,56.4977 271.6273,56.1217 L271.7863,56.0037 L397.6963,114.3957 L397.5363,114.5147 L397.3663,114.6267 L397.1513,114.7787 C396.8333,115.0547 396.5623,115.3717 396.3023,115.7737 L396.2233,115.8997 L318.0763,105.5997 L318.0993,105.4677 C318.2293,104.4137 317.5863,103.3847 316.3073,102.6457 C316.0443,102.4947 315.7473,102.3497 315.4283,102.2307 C313.8083,101.5847 311.8153,101.4327 309.9393,101.8087 L309.7113,101.8487 M371.2603,196.8487 L403.0183,121.7147 L403.2353,121.7207 C404.9763,121.7547 406.7273,121.4247 408.1693,120.7987 L408.3743,120.7057 L465.8793,158.5987 L465.7543,158.6977 C464.3613,159.7727 464.0613,161.1117 464.9213,162.2787 L465.0133,162.3967 L373.5553,197.9107 L373.3953,197.8187 C373.2803,197.7387 373.1553,197.6667 373.0403,197.5877 C372.9263,197.5087 372.8013,197.4227 372.6633,197.3427 C372.5493,197.2777 372.4473,197.2177 372.3323,197.1787 C372.1153,197.0927 371.8873,197.0277 371.6373,196.9607 L371.2603,196.8487 M281.1323,139.0297 L309.6123,108.4947 L309.8283,108.5407 C312.5073,109.1147 315.4873,108.5607 317.0833,107.2097 C317.3333,106.9977 317.5363,106.7607 317.7173,106.4707 L317.8073,106.3517 L395.9323,116.6377 L395.9093,116.7827 C395.8433,117.1257 395.8463,117.4677 395.9153,117.8107 L395.9393,117.9297 L283.8523,140.8627 L283.7483,140.7377 C283.3603,140.3027 282.8673,139.9137 282.2843,139.5777 C281.9883,139.4057 281.6683,139.2477 281.3383,139.1087 L281.1323,139.0297 M398.1273,120.4427 C398.4473,120.6267 398.8013,120.8047 399.2003,120.9567 C399.7143,121.1607 400.3183,121.3257 401.0813,121.4777 L401.2983,121.5237 L369.6193,196.5067 L369.3693,196.4797 C367.8083,196.3147 366.2043,196.4407 364.7263,196.8487 L364.5563,196.8947 L283.5333,144.9777 L283.6363,144.8787 C284.4953,143.9687 284.7853,142.9267 284.4843,141.9377 L284.4493,141.8127 L396.3893,118.9117 L396.4813,119.0447 C396.8703,119.5717 397.4313,120.0397 398.1273,120.4427 M447.0143,210.6157 L469.9073,164.4217 L470.1353,164.4347 C471.3423,164.4997 472.5023,164.3687 473.5933,164.0387 L473.7863,163.9797 L543.4303,214.5587 L543.2823,214.6577 C542.1593,215.3627 541.4703,216.2797 541.3173,217.2957 L541.2953,217.4527 L450.5943,213.6027 L450.5713,213.4707 C450.3833,212.5877 449.8103,211.8487 448.8623,211.3017 C448.3943,211.0317 447.8133,210.8537 447.2073,210.6757 L447.0143,210.6157 M375.5433,201.3717 L375.5543,201.2467 C375.6743,200.4357 375.4083,199.6517 374.7893,198.9257 L374.6873,198.8007 L465.8843,163.3857 L466.0883,163.3457 L466.2483,163.4387 C466.7163,163.7087 467.2983,163.8867 467.8913,164.0587 L468.0843,164.1177 L445.1913,210.3127 L444.9753,210.3057 C443.0273,210.1947 441.2313,210.5497 439.9373,211.3017 C439.7343,211.4207 439.5973,211.5657 439.4503,211.7167 L439.2353,211.9347 L439.1213,212.0277 L375.5433,201.3717 M278.8523,138.4497 L268.4963,57.9817 L268.9963,57.9027 L308.5413,102.1977 L308.3603,102.2777 C307.7233,102.5407 307.2243,102.8307 306.8393,103.1607 C305.1733,104.5777 305.4913,106.4967 307.5933,107.7107 C307.8103,107.8357 308.0383,107.9407 308.2793,108.0527 L308.4603,108.1327 L279.9803,138.6677 L279.7643,138.6207 C279.5933,138.5747 279.4003,138.5417 279.2173,138.5157 L278.8523,138.4497 M161.6383,99.9037 L132.0803,37.9367 L132.2843,37.8847 C133.6953,37.5547 134.8863,36.9947 135.7373,36.2757 C136.0423,36.0187 136.3143,35.7157 136.5383,35.3727 L136.6303,35.2407 L258.1523,52.4037 L258.1173,52.5417 C257.7383,53.7287 258.2573,54.9747 259.5033,55.9577 L259.6413,56.0757 L167.4513,101.2227 L167.2583,101.3087 L167.0863,101.2097 C166.7213,100.9987 166.3673,100.8207 165.9903,100.6817 C164.7813,100.1947 163.3453,99.9307 161.8313,99.9107 L161.6383,99.9037 M169.0013,105.6537 L169.0573,105.5417 C169.5753,104.4337 169.3413,103.2597 168.4023,102.2447 L168.2983,102.1327 L260.8633,56.7947 L261.0333,56.8667 L261.1943,56.9457 L261.3423,57.0187 C262.8363,57.6057 264.6023,57.8627 266.4463,57.7577 L266.7073,57.7377 L277.0873,138.2987 L276.8033,138.3047 C274.8563,138.3117 273.0153,138.7467 271.6303,139.5117 L271.4933,139.5907 L169.0013,105.6537 M444.1533,268.4677 L445.2773,217.4337 L445.5043,217.4077 C446.9263,217.2687 448.0293,216.9597 448.8793,216.4647 C449.5953,216.0497 450.0813,215.5287 450.4073,214.8097 L450.4633,214.6847 L541.4603,218.5477 L541.5063,218.6667 C541.7023,219.1877 542.0703,219.6747 542.6303,220.1567 L542.7563,220.2687 L447.7893,269.4377 L447.6173,269.3647 L447.5383,269.3197 L447.4013,269.2267 L447.3213,269.1677 L447.2523,269.1407 C446.4543,268.8247 445.5083,268.6067 444.3683,268.4877 L444.1533,268.4677 M21.9363,15.7507 L45.3003,-45.9073 L45.5283,-45.8933 C46.7353,-45.8413 47.8723,-45.9333 48.9183,-46.1703 L49.1223,-46.2233 L124.7403,30.2427 L124.5583,30.3217 C123.9113,30.6317 123.4233,30.9277 123.0383,31.2577 C122.7323,31.5147 122.4723,31.8117 122.2463,32.1547 L122.1563,32.2737 L27.0733,20.3857 L27.0953,20.2537 C27.2243,18.9617 26.4093,17.7017 24.8563,16.8047 C24.5253,16.6137 24.1593,16.4287 23.7603,16.2777 C23.3153,16.0997 22.7903,15.9417 22.1413,15.8027 L21.9363,15.7507 M40.6593,-47.1663 C41.0023,-46.9683 41.3673,-46.7973 41.7673,-46.6323 C42.2233,-46.4603 42.7483,-46.3023 43.3863,-46.1573 L43.5913,-46.1173 L20.2393,15.5457 L20.0103,15.5327 C17.6543,15.4337 15.4033,15.9477 13.8153,16.9507 L13.6673,17.0497 L-95.9927,-26.2703 L-95.8907,-26.3953 C-95.0197,-27.4173 -94.8787,-28.5843 -95.4877,-29.6853 L-95.5807,-29.8443 L38.8753,-48.7753 L38.9673,-48.6563 C39.3573,-48.0893 39.9293,-47.5883 40.6593,-47.1663 M442.2523,268.6867 L373.5763,203.9047 L373.8383,203.7387 C374.0303,203.6137 374.2123,203.4957 374.3703,203.3637 C374.5523,203.2047 374.6653,203.0337 374.7663,202.8557 C374.8223,202.7567 374.8793,202.6577 374.9473,202.5657 L375.0363,202.4337 L438.4003,213.0557 L438.3433,213.1947 C437.9413,214.4337 438.5283,215.6277 439.9783,216.4647 C440.7663,216.9197 441.8153,217.2227 443.1703,217.3877 L443.3873,217.4077 L442.2523,268.6867 M100.6143,67.7867 L126.8213,37.9377 L127.0373,37.9697 C128.0523,38.1617 129.0993,38.2277 130.1463,38.1747 L130.3733,38.1617 L159.8973,100.0427 L159.6473,100.0817 C158.6123,100.2467 157.6573,100.5237 156.8403,100.9197 L156.6583,100.9987 L102.2813,72.8767 L102.4063,72.7647 C104.0153,71.3537 103.6853,69.4547 101.6073,68.2547 C101.3663,68.1167 101.0933,67.9847 100.7963,67.8657 L100.6143,67.7867 M-3.3347,90.6337 L18.8653,24.3747 L19.0923,24.3747 C21.8023,24.4537 24.3033,23.7417 25.8103,22.4557 C26.1273,22.1927 26.3873,21.8827 26.6353,21.4997 L26.7143,21.3747 L121.7853,33.2557 L121.7753,33.3947 C121.6553,34.2317 121.9453,35.0697 122.6313,35.8207 L122.7343,35.9327 L-0.1867,91.7417 L-0.3697,91.6497 C-0.6327,91.4977 -0.9517,91.3257 -1.3167,91.1817 C-1.8187,90.9837 -2.3887,90.8247 -3.1067,90.6737 L-3.3347,90.6337 M1.4263,93.1467 L1.3233,93.0207 C1.2203,92.8957 1.1163,92.7707 1.0023,92.6517 L0.8763,92.5397 L123.7173,36.7637 L123.9693,36.9087 C124.3123,37.1067 124.6773,37.2777 125.0653,37.4367 L125.2253,37.4887 L125.4063,37.5417 L125.6243,37.6137 L99.4403,67.4507 L99.2233,67.4047 C96.5903,66.8837 93.6683,67.4437 92.1273,68.7627 C91.1423,69.5997 90.8403,70.6487 91.2793,71.6507 L91.3243,71.7827 L1.4263,93.1467 M247.7193,227.4437 L277.6603,147.1467 L277.8433,147.1337 C279.5723,147.0147 281.1073,146.5997 282.3103,145.9267 L282.5023,145.8147 L363.0793,197.4487 L362.8753,197.5547 C362.3753,197.8187 361.9793,198.0757 361.6613,198.3397 C360.4723,199.3617 360.0703,200.6007 360.5543,201.8267 L360.6003,201.9457 L252.6013,229.2637 L252.4763,229.1647 C252.2133,228.9607 251.9393,228.7757 251.6643,228.6177 C251.3453,228.4327 251.0143,228.2807 250.6833,228.1427 C249.8623,227.8257 248.9723,227.6027 247.9813,227.4767 L247.7193,227.4437 M192.9173,144.0677 L165.5103,108.1987 L165.7143,108.1327 C166.6463,107.8027 167.4293,107.3747 168.0403,106.8607 L168.0863,106.7947 L168.1763,106.7157 L168.3123,106.5837 L270.4403,140.4017 L270.3043,140.5337 C269.6363,141.1987 269.2763,141.9377 269.2693,142.6567 L269.2583,142.7957 L200.8323,146.7447 L200.7863,146.6127 C200.4983,145.9597 199.9373,145.3867 199.1383,144.9247 C198.8753,144.7737 198.5893,144.6347 198.2813,144.5097 C196.7863,143.9227 194.9193,143.7517 193.1333,144.0347 L192.9173,144.0677 M244.9763,227.4507 L227.7523,190.9027 L227.9343,190.8497 C228.8773,190.5657 229.6263,190.1837 230.1583,189.7157 C231.7563,188.3637 231.5413,186.5567 229.6553,185.3237 L229.5303,185.2377 L273.3093,146.6327 L273.5263,146.6917 C274.2223,146.8957 274.9283,147.0417 275.6123,147.1077 L275.8733,147.1397 L245.9663,227.3907 L245.6363,227.4107 L245.2143,227.4307 L244.9763,227.4507 M151.2643,184.1907 L191.8393,150.5957 L192.0323,150.6547 C194.8033,151.4657 198.1933,150.9647 199.9263,149.4937 C200.5603,148.9537 200.9213,148.3077 200.9743,147.6287 L200.9733,147.4967 L269.4103,143.5527 L269.4563,143.6847 C269.5723,143.9877 269.7443,144.2847 270.0083,144.5947 L270.1003,144.7267 L151.7553,184.4467 L151.6073,184.3617 L151.4473,184.2827 L151.2643,184.1907 M271.2093,145.6697 L271.4603,145.8147 C271.6443,145.9207 271.8263,146.0257 272.0313,146.1177 L272.2143,146.2107 L228.5153,184.7437 L228.2973,184.6577 C225.4693,183.6427 221.7943,184.0847 219.9253,185.6737 C219.3473,186.1547 219.0213,186.7157 218.9213,187.3417 L218.8883,187.4807 L153.9083,186.7817 L153.8633,186.6627 C153.7123,186.2207 153.4133,185.7857 152.9903,185.3707 L152.8533,185.2387 L271.0613,145.5707 L271.2093,145.6697 M376.6583,251.9127 L369.3623,205.2297 L369.6003,205.1967 C370.4533,205.0977 371.2603,204.9067 372.0213,204.6497 L372.2373,204.5637 L440.1923,268.6667 L439.9073,268.7257 C438.5433,269.0687 437.4083,269.6097 436.5813,270.3017 L436.4463,270.4467 L436.3323,270.5787 L436.2193,270.6967 L380.8633,256.7057 L380.9533,256.5737 C381.7423,255.2687 381.1653,253.8047 379.4873,252.8357 C379.2243,252.6837 378.9273,252.5387 378.6193,252.4137 C378.1173,252.2157 377.5363,252.0637 376.8293,251.9457 L376.6583,251.9127 M287.0693,291.7117 L365.6383,205.0517 L365.8433,205.0907 C366.5493,205.2097 367.1983,205.2817 367.8243,205.2887 L368.0523,205.2887 L375.3263,251.7867 L375.0413,251.7937 C373.0153,251.8067 371.1403,252.3937 370.0193,253.3497 C368.3763,254.7407 368.6493,256.6337 370.6703,257.8537 L370.8873,257.9787 L288.1533,292.2987 L287.9823,292.1997 L287.8453,292.1077 C287.6513,291.9947 287.4343,291.8967 287.2283,291.7907 L287.0693,291.7117 M280.1203,290.9337 L248.6673,236.0487 L248.9173,235.9957 C250.4863,235.6797 251.8033,235.0997 252.7213,234.3277 C254.0923,233.1477 254.4133,231.6377 253.5523,230.2857 L253.4603,230.1547 L361.2313,202.8887 L361.3583,203.0137 C361.7243,203.3967 362.1703,203.7327 362.6843,204.0297 C362.9923,204.2077 363.3343,204.3797 363.7453,204.5367 L363.8363,204.5637 L364.0413,204.6427 L285.5973,291.1647 L285.3583,291.1057 C283.7843,290.7097 282.0653,290.6367 280.3593,290.9007 L280.1203,290.9337 M-70.5897,43.6947 L-101.4087,-23.9693 L-101.1477,-24.0023 C-99.6007,-24.1863 -98.2027,-24.6553 -97.1257,-25.3473 L-96.9677,-25.4393 L12.6703,17.8807 L12.5793,17.9987 C11.6633,19.0867 11.5573,20.3657 12.2813,21.4937 L12.3613,21.6187 L-63.2607,45.5337 L-63.3857,45.4217 C-63.6597,45.2237 -63.9227,45.0467 -64.2087,44.8817 C-64.5157,44.7027 -64.8367,44.5447 -65.1777,44.4127 C-66.6957,43.8127 -68.4847,43.5557 -70.3617,43.6817 L-70.5897,43.6947 M92.9273,73.3387 C93.1903,73.4897 93.4753,73.6287 93.7723,73.7477 C96.0423,74.6377 99.1043,74.5517 101.2153,73.5237 L101.3853,73.4377 L155.7403,101.5457 L155.5923,101.6577 L155.4563,101.7507 L155.3313,101.8357 C154.9353,102.1857 154.6073,102.5877 154.3603,103.0757 L154.3033,103.2007 L2.0163,94.7617 L2.0033,94.6367 C1.9803,94.4117 1.9553,94.2017 1.8983,93.9967 L1.8513,93.8787 L91.8183,72.4877 L91.9443,72.5997 C92.2193,72.8767 92.5623,73.1277 92.9273,73.3387 M147.4903,183.1947 L162.7243,108.7457 L162.9173,108.7267 C163.2593,108.6997 163.6343,108.6407 164.0893,108.5617 L164.3043,108.5157 L191.7013,144.3647 L191.5083,144.4377 C190.7813,144.7007 190.1573,145.0367 189.6813,145.4457 C188.0163,146.8637 188.3453,148.7757 190.4573,149.9957 L190.7433,150.1607 L150.1923,183.7547 L149.9753,183.6957 C149.2223,183.4587 148.4703,183.2997 147.7413,183.2207 L147.4903,183.1947 M14.1683,23.1487 C14.4773,23.3267 14.7963,23.4847 15.1383,23.6167 C15.6523,23.8207 16.2223,23.9797 16.9413,24.1307 L17.1453,24.1707 L-5.0437,90.4367 L-5.2707,90.4237 C-6.7507,90.3837 -8.1957,90.5887 -9.4797,91.0167 L-9.6737,91.0757 L-64.0817,51.2247 L-63.9227,51.1327 C-63.6497,50.9607 -63.3787,50.7897 -63.1397,50.5847 C-61.7467,49.4047 -61.4477,47.8947 -62.3207,46.5367 L-62.4007,46.4107 L13.2203,22.4957 L13.3573,22.6007 C13.6203,22.8057 13.8833,22.9837 14.1683,23.1487 M1.0373,97.0237 L1.1513,96.9047 C1.4563,96.5557 1.6713,96.2327 1.8063,95.9027 L1.8633,95.7777 L154.0013,104.1957 L154.0143,104.3347 C154.0043,104.6187 154.0623,104.9157 154.1663,105.2247 L154.2123,105.3437 L69.1963,124.3207 L69.0703,124.2087 C68.7823,123.8987 68.4283,123.6287 68.0293,123.3977 C67.7663,123.2457 67.4923,123.1137 67.1963,122.9957 C64.7883,122.0527 61.5233,122.2037 59.4343,123.3647 L59.2643,123.4507 L1.0373,97.0237 M40.4623,184.6527 L40.4503,184.5137 C40.3073,183.4987 39.5853,182.5427 38.4203,181.8307 L38.2493,181.7177 L157.6323,108.0927 L157.8033,108.1527 C158.7033,108.4627 159.6843,108.6607 160.7093,108.7397 L160.9713,108.7587 L145.7493,183.1747 L145.5443,183.1887 C143.2803,183.3267 141.2693,184.0187 140.0343,185.0807 C139.6373,185.4167 139.3323,185.7927 139.0733,186.2737 L139.0173,186.3857 L40.4623,184.6527 M34.1783,180.4857 L62.4633,129.4637 L62.6793,129.4837 C65.0723,129.7207 67.4813,129.1277 68.8403,127.9807 C69.8033,127.1557 70.1163,126.1537 69.7243,125.1647 L69.6773,125.0327 L154.6503,106.0687 L154.7413,106.2007 C155.0963,106.6427 155.5423,107.0317 156.0683,107.3617 L156.2513,107.4667 L36.8573,181.0977 L36.6853,181.0387 C35.9443,180.7817 35.1923,180.6107 34.4623,180.5187 L34.1783,180.4857 M289.9073,294.4677 L289.8493,294.3167 C289.7103,293.8947 289.4233,293.4657 289.0113,293.0437 L288.8973,292.9247 L372.0173,258.4467 L372.1653,258.4927 C374.8793,259.3627 378.3153,258.9277 380.1273,257.4777 L380.2523,257.3787 L435.6883,271.3897 L435.6203,271.5217 C435.1823,272.3847 435.1873,273.2947 435.6583,274.1457 L435.7503,274.3037 L289.9073,294.4677 M220.6793,190.2227 C220.9533,190.3817 221.2503,190.5267 221.5813,190.6517 C222.9613,191.1987 224.6243,191.3967 226.2753,191.2057 L226.5133,191.1727 L243.7013,227.6347 L243.4973,227.6877 C242.4623,227.9187 241.5213,228.3077 240.7153,228.8157 L240.5563,228.9207 L153.1513,189.6567 L153.2523,189.5447 C153.7503,188.9507 154.0203,188.3307 154.0383,187.6977 L154.0493,187.5467 L218.9383,188.2447 L218.9733,188.3707 C219.2163,189.0757 219.8003,189.7157 220.6793,190.2227 M-131.9267,109.8617 L-72.3747,52.1677 L-72.1577,52.2137 C-69.9927,52.6887 -67.6147,52.5757 -65.6487,51.9237 L-65.4557,51.8507 L-11.0467,91.7017 L-11.1937,91.8007 C-11.4897,91.9727 -11.7607,92.1437 -11.9877,92.3417 C-12.8377,93.0737 -13.2417,93.9707 -13.1677,95.0117 L-13.1557,95.1377 L-129.3767,111.7667 L-129.4567,111.6417 C-129.8587,111.0817 -130.4297,110.5937 -131.1617,110.1717 L-131.4347,110.0657 L-131.7547,109.9467 L-131.9267,109.8617 M30.7863,180.5777 L-3.0037,99.0407 L-2.7987,98.9877 C-1.6837,98.7377 -0.7077,98.3287 0.1433,97.7557 L0.3023,97.6497 L58.4823,124.0637 L58.3683,124.1827 C56.9773,125.5867 57.3853,127.3607 59.3503,128.4947 C59.6233,128.6527 59.9083,128.7917 60.2403,128.9167 C60.4573,129.0017 60.6853,129.0677 60.9243,129.1407 L61.2203,129.2197 L32.8343,180.4197 L32.6523,180.4197 C32.1283,180.4197 31.6053,180.4587 31.0483,180.5447 L30.7863,180.5777 M116.8733,252.6257 L144.5123,191.8987 L144.7623,191.9247 C147.3943,192.2607 150.1803,191.7527 152.0063,190.5997 L152.1653,190.4937 L239.5713,229.7587 L239.4803,229.8777 C238.8583,230.6097 238.6133,231.4267 238.7653,232.2507 L238.7773,232.3757 L120.3473,254.9067 L120.2553,254.7747 C119.8653,254.2347 119.3043,253.7537 118.6083,253.3507 C118.2773,253.1597 117.9003,252.9817 117.5243,252.8297 L117.2733,252.7507 L117.0443,252.6847 L116.8733,252.6257 M191.7083,287.1827 L243.1103,235.7717 L243.3383,235.8247 C244.5803,236.1347 245.6863,236.2727 246.7443,236.2397 L246.9493,236.2397 L278.5063,291.3297 L278.3363,291.3887 C277.3703,291.7247 276.5873,292.1537 275.9753,292.6677 C275.5223,293.0637 275.2743,293.4987 275.0603,293.9537 L274.9923,294.0727 L193.9993,289.7667 L193.9763,289.6347 C193.8233,288.7447 193.2273,287.9667 192.2443,287.4007 L192.1083,287.3467 L191.8683,287.2617 L191.7083,287.1827 M119.8103,258.6457 L119.9123,258.5337 C120.6473,257.6957 120.9613,256.8257 120.7973,256.0087 L120.7743,255.8897 L239.1813,233.3587 L239.2733,233.4897 C239.6063,233.9717 240.1653,234.4397 240.9083,234.8687 C241.0573,234.9537 241.1943,235.0337 241.3423,235.1057 L241.5023,235.1847 L190.0773,286.6087 L189.8723,286.5697 C187.7523,286.1337 185.3743,286.4047 183.6723,287.2747 L183.5133,287.3537 L119.8103,258.6457 M-86.0857,154.3877 L-86.0287,154.2627 C-85.3877,152.8317 -85.9537,151.3617 -87.5767,150.2407 L-87.7247,150.1417 L-9.9837,98.4937 L-9.7897,98.5667 C-8.3297,99.1067 -6.6547,99.3507 -4.9367,99.2647 L-4.7097,99.2517 L29.1493,180.9597 L28.9903,181.0127 C27.9563,181.3627 27.1053,181.8037 26.4713,182.3447 L26.3463,182.5227 L26.1993,182.7267 L26.0863,182.8597 L-86.0857,154.3877 M-96.7817,149.0277 L-131.7727,116.8377 L-131.6017,116.7517 L-131.3297,116.6467 L-131.1257,116.5677 C-129.5257,115.6377 -128.7697,114.3647 -128.9937,112.9737 L-129.0177,112.8417 L-12.7857,96.2187 L-12.7057,96.3437 C-12.3947,96.8257 -11.9947,97.2407 -11.4687,97.6107 L-11.3317,97.7157 L-89.1867,149.4437 L-89.3807,149.3707 C-91.6047,148.5597 -94.3027,148.4077 -96.5657,148.9817 L-96.7817,149.0277 M110.3263,252.3817 L36.9213,188.6147 L37.1373,188.5297 C37.9663,188.2067 38.6583,187.8177 39.1913,187.3627 C39.7353,186.8877 40.1193,186.3597 40.3313,185.7867 L40.3883,185.6607 L138.7033,187.3887 L138.7163,187.5397 C138.6893,188.7337 139.5143,189.8937 140.9653,190.7317 C141.3073,190.9287 141.6733,191.1007 142.0613,191.2587 L142.4593,191.3837 L142.7113,191.4627 L142.8933,191.5157 L115.2543,252.2307 L115.0043,252.2037 C113.5123,251.9867 111.9523,252.0317 110.5313,252.3417 L110.3263,252.3817 M-1.8367,237.5197 L30.9933,189.0967 L31.2103,189.1157 C32.6683,189.3007 33.9893,189.2877 35.1483,189.0767 L35.3423,189.0437 L108.8043,252.8697 L108.6123,252.9547 C107.8733,253.2787 107.2943,253.6147 106.8533,253.9907 C106.6593,254.1547 106.5473,254.3397 106.4463,254.5307 C106.3893,254.6307 106.3223,254.7227 106.2663,254.8207 L106.1753,254.9397 L2.2053,241.8257 L2.2283,241.6937 C2.3573,240.3487 1.5653,239.1157 0.0113,238.2187 C-0.3657,238.0017 -0.7987,237.8567 -1.2657,237.7047 L-1.6417,237.5797 L-1.8367,237.5197 M-9.4397,237.5857 L-88.8617,156.6897 L-88.6797,156.6107 L-88.3037,156.4717 L-87.9187,156.3137 C-87.6457,156.1547 -87.4537,155.9647 -87.2607,155.7597 C-87.1707,155.6677 -87.0807,155.5887 -86.9897,155.4957 L-86.8647,155.3837 L25.3403,183.8617 L25.2963,183.9797 C24.8033,185.4437 25.5973,186.9407 27.4243,187.9957 C27.7553,188.1867 28.1213,188.3707 28.5203,188.5227 L28.7143,188.5687 L29.0323,188.6347 L29.2153,188.7007 L-3.5917,237.1117 L-3.8197,237.0847 C-5.6877,236.8347 -7.5647,236.9867 -9.2237,237.5137 L-9.4397,237.5857" id="Fill-1" fill="#FFFFFF" mask="url(#mask-2)"></path>
                    </g>
                    <g id="Group-6">
                        <mask id="mask-4" fill="white">
                            <use xlink:href="#path-3"></use>
                        </mask>
                        <g id="Clip-5"></g>
                        <path d="M167.386633,100.835494 C164.151342,98.9679686 158.924375,98.9679686 155.710127,100.835494 C152.495878,102.70302 152.512712,105.731041 155.748003,107.598567 C158.984346,109.467144 164.210261,109.467144 167.424509,107.598567 C170.638757,105.731041 170.621923,102.70302 167.386633,100.835494" id="Fill-4" fill="#FF6F00" mask="url(#mask-4)"></path>
                    </g>
                    <g id="Group-9">
                        <mask id="mask-6" fill="white">
                            <use xlink:href="#path-5"></use>
                        </mask>
                        <g id="Clip-8"></g>
                        <path d="M199.9518,143.5004 C196.8768,141.7254 191.9088,141.7254 188.8538,143.5004 C185.7988,145.2754 185.8148,148.1534 188.8898,149.9284 C191.9658,151.7044 196.9318,151.7044 199.9878,149.9284 C203.0428,148.1534 203.0268,145.2754 199.9518,143.5004" id="Fill-7" fill="#000076" mask="url(#mask-6)"></path>
                    </g>
                    <g id="Group-12">
                        <mask id="mask-8" fill="white">
                            <use xlink:href="#path-7"></use>
                        </mask>
                        <g id="Clip-11"></g>
                        <path d="M283.508046,139.27097 C280.173402,137.346095 274.78592,137.346095 271.472966,139.27097 C268.161096,141.195846 268.177362,144.316855 271.512006,146.24173 C274.847733,148.16769 280.234131,148.16769 283.547085,146.24173 C286.861124,144.316855 286.842689,141.195846 283.508046,139.27097" id="Fill-10" fill="#005EFF" mask="url(#mask-8)"></path>
                    </g>
                    <g id="Group-15">
                        <mask id="mask-10" fill="white">
                            <use xlink:href="#path-9"></use>
                        </mask>
                        <g id="Clip-14"></g>
                        <path d="M101.4771,67.3217 C98.4021,65.5467 93.4341,65.5467 90.3791,67.3217 C87.3241,69.0977 87.3401,71.9747 90.4151,73.7507 C93.4911,75.5257 98.4581,75.5257 101.5131,73.7507 C104.5681,71.9747 104.5521,69.0967 101.4771,67.3217" id="Fill-13" fill="#64EFFF" mask="url(#mask-10)"></path>
                    </g>
                    <g id="Group-18">
                        <mask id="mask-12" fill="white">
                            <use xlink:href="#path-11"></use>
                        </mask>
                        <g id="Clip-17"></g>
                        <path d="M318.8638,102.624 C315.7888,100.849 310.8208,100.849 307.7658,102.624 C304.7118,104.399 304.7268,107.277 307.8018,109.052 C310.8778,110.828 315.8448,110.828 318.8998,109.052 C321.9558,107.277 321.9388,104.399 318.8638,102.624" id="Fill-16" fill="#64EFFF" mask="url(#mask-12)"></path>
                    </g>
                    <g id="Group-21">
                        <mask id="mask-14" fill="white">
                            <use xlink:href="#path-13"></use>
                        </mask>
                        <g id="Clip-20"></g>
                        <path d="M69.8912,123.062 C66.8162,121.287 61.8482,121.287 58.7932,123.062 C55.7382,124.838 55.7542,127.715 58.8292,129.491 C61.9052,131.266 66.8712,131.266 69.9272,129.491 C72.9822,127.715 72.9662,124.837 69.8912,123.062" id="Fill-19" fill="#000076" mask="url(#mask-14)"></path>
                    </g>
                    <g id="Group-24">
                        <mask id="mask-16" fill="white">
                            <use xlink:href="#path-15"></use>
                        </mask>
                        <g id="Clip-23"></g>
                        <path d="M151.7857,184.3764 C148.7107,182.6014 143.7427,182.6014 140.6867,184.3764 C137.6327,186.1514 137.6487,189.0294 140.7237,190.8044 C143.7987,192.5804 148.7657,192.5804 151.8217,190.8044 C154.8767,189.0294 154.8607,186.1514 151.7857,184.3764" id="Fill-22" fill="#005EFF" mask="url(#mask-16)"></path>
                    </g>
                </g>
                <g id="Group-60" transform="translate(0.000000, 172.807000)">
                    <path d="M364.2037,450.3203 C374.3467,444.5073 374.3037,430.0763 364.1257,424.3513 L208.5347,336.6163 C194.4047,328.6453 176.8937,328.6973 162.7867,336.7553 L7.7297,425.4283 C-2.4133,431.2153 -2.3693,445.6463 7.8087,451.3983 L163.3987,539.1063 C177.5277,547.0773 195.0387,547.0253 209.1467,538.9683 L364.2037,450.3203 Z" id="Fill-28" fill="#000076" opacity="0.2"></path>
                    <path d="M367.1793,397.0668 C377.3963,391.2528 377.3963,376.7428 367.1793,370.9548 L211.0033,282.2668 C196.8213,274.2088 179.2133,274.2088 165.0043,282.2668 L8.8273,370.9548 C-1.3877,376.7428 -1.3877,391.2528 8.8273,397.0668 L165.0043,485.7288 C179.1873,493.7868 196.7933,493.7868 211.0033,485.7288 L367.1793,397.0668 Z" id="Stroke-26" stroke="#FFFFFF" stroke-width="8"></path>
                    <path d="M128.4068,233.393 L128.4068,282.722" id="Stroke-30" stroke="#FF6F00" stroke-width="7" stroke-linecap="round" stroke-linejoin="round"></path>
                    <path d="M245.7759,231.6918 L245.7759,281.0208" id="Stroke-32" stroke="#64EFFF" stroke-width="7" stroke-linecap="round" stroke-linejoin="round"></path>
                    <path d="M128.4068,299.5361 L128.4068,321.6491" id="Stroke-34" stroke="#000076" stroke-width="7" stroke-linecap="round" stroke-linejoin="round"></path>
                    <path d="M187.942,308.3398 L187.942,350.8648" id="Stroke-36" stroke="#FFFFFF" stroke-width="7" stroke-linecap="round" stroke-linejoin="round"></path>
                    <path d="M187.942,272.5156 L187.942,292.9286" id="Stroke-38" stroke="#000075" stroke-width="7" stroke-linecap="round" stroke-linejoin="round"></path>
                    <path d="M187.942,373.4921 L187.942,393.9041" id="Stroke-40" stroke="#000075" stroke-width="7" stroke-linecap="round" stroke-linejoin="round"></path>
                    <path d="M159.025,336.5561 L159.025,360.3701" id="Stroke-42" stroke="#FFFFFF" stroke-width="7" stroke-linecap="round" stroke-linejoin="round"></path>
                    <path d="M159.025,254.9077 L159.025,317.8457" id="Stroke-44" stroke="#64EFFF" stroke-width="7" stroke-linecap="round" stroke-linejoin="round"></path>
                    <path d="M218.5591,329.7519 L218.5591,345.0609" id="Stroke-46" stroke="#FF6F00" stroke-width="7" stroke-linecap="round" stroke-linejoin="round"></path>
                    <path d="M218.5591,252.1039 L218.5591,315.0409" id="Stroke-48" stroke="#000076" stroke-width="7" stroke-linecap="round" stroke-linejoin="round"></path>
                    <path d="M31.568,87.8867 L31.568,153.8087 C31.568,153.8087 30.318,162.3087 38.318,167.3087 C46.318,172.3087 164.818,238.5587 164.818,238.5587 C164.818,238.5587 173.818,243.8087 182.568,245.5587 L182.568,179.8867 C182.568,179.8867 176.318,179.6367 162.318,171.6367 C148.318,163.6367 40.068,102.1367 40.068,102.1367 C40.068,102.1367 30.818,98.1367 31.568,87.8867" id="Fill-50" fill="#000075"></path>
                    <path d="M179.984,179.3032 L179.984,243.9072 C179.984,243.9072 180.914,245.4502 182.521,245.5532 C187.003,245.8372 196.751,245.6952 206.318,240.5432 C219.318,233.5432 333.818,168.2932 333.818,168.2932 C333.818,168.2932 342.318,164.2372 342.318,153.7932 L342.318,90.1362 C342.318,90.1362 342.732,98.0722 331.068,103.8862 C315.719,111.5382 200.068,178.1362 200.068,178.1362 C200.068,178.1362 189.651,181.9702 179.984,179.3032" id="Fill-52" fill="#000076" opacity="0.36"></path>
                    <path d="M336.1011,100.791 C344.5991,95.955 344.5991,83.885 336.1011,79.071 L206.1881,5.297 C194.3911,-1.406 179.7451,-1.406 167.9251,5.297 L38.0121,79.071 C29.5141,83.885 29.5141,95.955 38.0121,100.791 L167.9251,174.543 C179.7221,181.247 194.3691,181.247 206.1881,174.543 L336.1011,100.791 Z" id="Fill-54" fill="#007BFF"></path>
                    <path d="M336.1011,101.1581 C344.5991,96.3221 344.5991,84.2521 336.1011,79.4371 L206.1881,5.6641 C194.3911,-1.0389 179.7451,-1.0389 167.9251,5.6641 L38.0121,79.4371 C29.5141,84.2521 29.5141,96.3221 38.0121,101.1581 L167.9251,174.9101 C179.7221,181.6131 194.3691,181.6131 206.1881,174.9101 L336.1011,101.1581 Z" id="Stroke-56" stroke="#FFFFFF" stroke-width="5" stroke-linecap="round" stroke-linejoin="round"></path>
                </g>
                <g id="Group-70" transform="translate(82.000000, 201.807000)">
                    <g id="Group-63">
                        <mask id="mask-18" fill="white">
                            <use xlink:href="#path-17"></use>
                        </mask>
                        <g id="Clip-62"></g>
                        <polygon id="Fill-61" fill="#000076" opacity="0.267857143" mask="url(#mask-18)" points="-6.986 225.385 98.913 225.385 98.913 -57.012 -6.986 -57.012"></polygon>
                    </g>
                    <g id="Group-66">
                        <mask id="mask-20" fill="white">
                            <use xlink:href="#path-19"></use>
                        </mask>
                        <g id="Clip-65"></g>
                        <polygon id="Fill-64" fill="#000076" opacity="0.463058036" mask="url(#mask-20)" points="98.3 225.385 220.205 225.385 220.205 -57.012 98.3 -57.012"></polygon>
                    </g>
                    <g id="Group-69">
                        <mask id="mask-22" fill="white">
                            <use xlink:href="#path-21"></use>
                        </mask>
                        <g id="Clip-68"></g>
                        <path d="M205.3863,100.5063 C211.1073,97.2513 211.1073,89.1253 205.3863,85.8843 L118.2203,35.9093 C110.1253,31.7303 100.1343,31.7113 92.1783,36.2233 L4.7273,85.8843 C-0.9937,89.1253 -0.9937,97.2513 4.7273,100.5063 L92.1783,150.1523 C100.1193,154.6653 109.9793,154.6653 117.9353,150.1523 L205.3863,100.5063 Z" id="Fill-67" fill="#000076" mask="url(#mask-22)"></path>
                    </g>
                </g>
                <g id="Group-122" transform="translate(81.000000, 0.807000)">
                    <path d="M51.0611,155.9282 L137.2901,308.9092" id="Stroke-71" stroke="#64EFFF" stroke-width="2" stroke-linecap="round" stroke-linejoin="round" stroke-dasharray="14,5"></path>
                    <path d="M164.4517,150.9633 L79.3617,306.6363" id="Stroke-73" stroke="#64EFFF" stroke-width="2" stroke-linecap="round" stroke-linejoin="round" stroke-dasharray="14,5"></path>
                    <path d="M131.8277,136.1943 L131.3337,137.0633" id="Stroke-75" stroke="#FFFFFF" stroke-width="2" stroke-linecap="round" stroke-linejoin="round"></path>
                    <path d="M128.8219,141.4765 L45.7019,287.5545" id="Stroke-77" stroke="#FFFFFF" stroke-width="2" stroke-linecap="round" stroke-linejoin="round" stroke-dasharray="2.031,5.078"></path>
                    <path d="M44.4459,289.7612 L43.9519,290.6302" id="Stroke-79" stroke="#FFFFFF" stroke-width="2" stroke-linecap="round" stroke-linejoin="round"></path>
                    <path d="M110.8209,124.3036 L110.3259,125.1726" id="Stroke-81" stroke="#FFFFFF" stroke-width="2" stroke-linecap="round" stroke-linejoin="round"></path>
                    <path d="M107.815,129.5859 L24.695,275.6639" id="Stroke-83" stroke="#FFFFFF" stroke-width="2" stroke-linecap="round" stroke-linejoin="round" stroke-dasharray="2.031,5.078"></path>
                    <path d="M23.4391,277.8705 L22.9451,278.7395" id="Stroke-85" stroke="#FFFFFF" stroke-width="2" stroke-linecap="round" stroke-linejoin="round"></path>
                    <path d="M79.774,134.9267 L80.268,135.7957" id="Stroke-87" stroke="#FFFFFF" stroke-width="2" stroke-linecap="round" stroke-linejoin="round"></path>
                    <path d="M82.7789,140.2089 L165.8999,286.2869" id="Stroke-89" stroke="#FFFFFF" stroke-width="2" stroke-linecap="round" stroke-linejoin="round" stroke-dasharray="2.031,5.078"></path>
                    <path d="M167.1558,288.4936 L167.6498,289.3626" id="Stroke-91" stroke="#FFFFFF" stroke-width="2" stroke-linecap="round" stroke-linejoin="round"></path>
                    <path d="M100.6998,122.562 L101.1948,123.431" id="Stroke-93" stroke="#FFFFFF" stroke-width="2" stroke-linecap="round" stroke-linejoin="round"></path>
                    <path d="M103.7057,127.8442 L186.8257,273.9222" id="Stroke-95" stroke="#FFFFFF" stroke-width="2" stroke-linecap="round" stroke-linejoin="round" stroke-dasharray="2.031,5.078"></path>
                    <path d="M188.0816,276.1288 L188.5756,276.9978" id="Stroke-97" stroke="#FFFFFF" stroke-width="2" stroke-linecap="round" stroke-linejoin="round"></path>
                    <path d="M101.4478,186.2958 L101.4478,228.9608 C101.4478,228.9608 110.3878,232.0508 119.1048,227.3578 C127.8208,222.6638 204.5928,178.9138 204.5928,178.9138 C204.5928,178.9138 210.2928,175.8718 210.2928,169.1918 L210.2928,126.5088 C210.2928,126.5088 208.9818,132.1598 202.7498,135.7288 C192.7708,141.4428 114.9138,185.5128 114.9138,185.5128 C114.9138,185.5128 107.9288,188.0838 101.4478,186.2958" id="Fill-99" fill="#FF6F00"></path>
                    <path d="M206.1246,134.6381 C211.8226,131.3951 211.8226,123.3021 206.1246,120.0741 L119.0186,70.6091 C111.1076,66.1141 101.2876,66.1141 93.3626,70.6091 L6.2556,120.0741 C0.5586,123.3021 0.5586,131.3951 6.2556,134.6381 L93.3626,184.0891 C101.2726,188.5831 111.0936,188.5831 119.0186,184.0891 L206.1246,134.6381 Z" id="Fill-101" fill="#FF6F00"></path>
                    <path d="M206.1246,177.975 C211.8226,174.732 211.8226,166.64 206.1246,163.412 L119.0186,113.946 C111.1076,109.452 101.2876,109.452 93.3626,113.946 L6.2556,163.412 C0.5586,166.64 0.5586,174.732 6.2556,177.975 L93.3626,227.426 C101.2726,231.92 111.0936,231.92 119.0186,227.426 L206.1246,177.975 Z" id="Fill-103" fill="#FF6F00"></path>
                    <path d="M1.9342,124.5663 L1.9342,168.7673 C1.9342,168.7673 1.0962,174.4663 6.4602,177.8183 C11.8252,181.1713 91.2792,225.5923 91.2792,225.5923 C91.2792,225.5923 97.3132,229.1123 103.1802,230.2853 L103.1802,186.2523 C103.1802,186.2523 98.9902,186.0853 89.6032,180.7203 C80.2152,175.3573 7.6332,134.1213 7.6332,134.1213 C7.6332,134.1213 1.4312,131.4393 1.9342,124.5663" id="Fill-105" fill="#FF9400"></path>
                    <path d="M207.6636,110.0981 C213.4486,106.8061 213.4486,98.5891 207.6636,95.3111 L119.2246,45.0901 C111.1926,40.5261 101.2236,40.5261 93.1766,45.0901 L4.7366,95.3111 C-1.0474,98.5891 -1.0474,106.8061 4.7366,110.0981 L93.1766,160.3061 C101.2076,164.8691 111.1786,164.8691 119.2246,160.3061 L207.6636,110.0981 Z" id="Fill-107" fill="#FFFFFF" opacity="0.3"></path>
                    <path d="M207.6636,89.3608 C213.4486,86.0688 213.4486,77.8518 207.6636,74.5738 L119.2246,24.3518 C111.1926,19.7888 101.2236,19.7888 93.1766,24.3518 L4.7366,74.5738 C-1.0474,77.8518 -1.0474,86.0688 4.7366,89.3608 L93.1766,139.5688 C101.2076,144.1318 111.1786,144.1318 119.2246,139.5688 L207.6636,89.3608 Z" id="Fill-109" fill="#FFFFFF" opacity="0.3"></path>
                    <g id="Group-113" fill="#FFFFFF" opacity="0.3">
                        <path d="M207.6636,68.6235 C213.4486,65.3315 213.4486,57.1145 207.6636,53.8365 L119.2246,3.6145 C111.1926,-0.9485 101.2236,-0.9485 93.1766,3.6145 L4.7366,53.8365 C-1.0474,57.1145 -1.0474,65.3315 4.7366,68.6235 L93.1766,118.8315 C101.2076,123.3945 111.1786,123.3945 119.2246,118.8315 L207.6636,68.6235 Z" id="Fill-111"></path>
                    </g>
                    <path d="M128.6529,261.5512 C128.6529,273.0952 119.2949,282.4542 107.7499,282.4542 C96.2059,282.4542 86.8469,273.0952 86.8469,261.5512 C86.8469,250.0072 96.2059,240.6482 107.7499,240.6482 C119.2949,240.6482 128.6529,250.0072 128.6529,261.5512" id="Fill-114" fill="#000076"></path>
                    <path d="M104.2193,257.1083 C104.2193,255.2243 105.7513,253.6913 107.6353,253.6913 L108.2103,253.6913 C110.0943,253.6913 111.6263,255.2243 111.6263,257.1083 L111.6263,259.6283 L104.2193,259.6283 L104.2193,257.1083 Z M114.7343,259.6283 L114.3963,259.6283 L114.3963,257.1083 C114.3963,253.6973 111.6203,250.9223 108.2103,250.9223 L107.6353,250.9223 C104.2243,250.9223 101.4483,253.6973 101.4483,257.1083 L101.4483,259.6283 L101.1123,259.6283 C100.1243,259.6283 99.3223,260.4313 99.3223,261.4193 L99.3223,269.7883 C99.3223,270.7753 100.1243,271.5793 101.1123,271.5793 L114.7343,271.5783 C115.7213,271.5783 116.5253,270.7753 116.5253,269.7873 L116.5253,261.4193 C116.5253,260.4313 115.7213,259.6283 114.7343,259.6283 Z" id="Fill-118" fill="#FF6F00"></path>
                    <path d="M107.9225,266.8764 C107.0715,266.8764 106.3815,266.1844 106.3815,265.3344 C106.3815,264.4854 107.0715,263.7934 107.9225,263.7934 C108.7735,263.7934 109.4645,264.4854 109.4645,265.3344 C109.4645,266.1844 108.7735,266.8764 107.9225,266.8764 M107.9225,261.9164 C106.0385,261.9164 104.5045,263.4494 104.5045,265.3344 C104.5045,267.2204 106.0385,268.7534 107.9225,268.7534 C109.8075,268.7534 111.3415,267.2204 111.3415,265.3344 C111.3415,263.4494 109.8075,261.9164 107.9225,261.9164" id="Fill-120" fill="#FFFFFF"></path>
                </g>
            </g>
        </g>
    </g>
</svg>