<?xml version="1.0" encoding="utf-8"?>
<svg version="1.1" id="Layer_1" xmlns="http://www.w3.org/2000/svg" xmlns:xlink="http://www.w3.org/1999/xlink" x="0px" y="0px"
	 viewBox="0 0 248 152" style="enable-background:new 0 0 248 152;" xml:space="preserve">
<style type="text/css">
	.st0{fill:none;stroke:#64f0ff;stroke-width:4;stroke-linecap:round;stroke-linejoin:round;}
	.st1{fill:none;stroke:#ffffff;stroke-width:4;stroke-linecap:round;stroke-linejoin:round;}
	.st2{fill:none;stroke:#ffffff;stroke-width:4;stroke-linecap:round;}
	.st3{fill:#ffffff;}
	.st4{fill:#161656;}
	.st5{fill:none;stroke:#ffffff;stroke-width:4;}
	.st6{fill:none;stroke:#ff6f00;stroke-width:4;stroke-linecap:round;stroke-linejoin:round;}
	.st7{fill:none;stroke:#161656;stroke-width:4;stroke-linecap:round;stroke-linejoin:round;}
	.st8{fill:#64f0ff;}
	.st9{fill:#ff6f00;}
</style>
<title>Payment icon</title>
<g id="Desktop">
	<g id="Travel-Ledger" transform="translate(-965.000000, -3050.000000)">
		<g id="Group-47" transform="translate(967.000000, 3052.000000)">
			<path id="Stroke-1" class="st0" d="M0,90.9V36.9C0,32.6,3.6,29,7.9,29h35.1"/>
			<path id="Stroke-3" class="st1" d="M50.9,29h32.5c4.4,0,7.9,3.6,7.9,7.9v36"/>
			<path id="Stroke-5" class="st0" d="M91.3,83.3v26.6c0,4.4-3.6,7.9-7.9,7.9H54.6"/>
			<path id="Stroke-7" class="st1" d="M47.1,117.9H7.9c-4.4,0-7.9-3.6-7.9-7.9V99.1"/>
			<path id="Stroke-9" class="st2" d="M32,51.8v55.7"/>
			<path id="Stroke-11" class="st0" d="M81.9,44.4L0.3,44.7"/>
			<path id="Fill-13" class="st3" d="M245.1,89.9c0-6.9-4.8-9.7-8.4-11.2l-5-2.2c-2.7-1.2-3.6-1.8-3.6-3c0-2.1,2.7-2.3,3.6-2.3
				c2.1,0,3.9,0.8,5.6,2.3c0.5,0.5,1.3,0.9,2.1,0.8c0.8,0,1.5-0.4,2-1l2-2.3c0.9-1.1,0.9-2.6-0.1-3.7c-2.3-2.4-5.4-4-8.7-4.6v-3.1
				c0-1-0.8-1.8-1.8-1.8h-2.5c-1,0-1.8,0.8-1.8,1.8V63c-5.5,1.3-9.3,5.5-9.3,10.8c0,4.8,2.8,8.5,8.2,10.8l4.7,2.1
				c3.4,1.5,3.9,2,3.9,3.5c0,2.6-3.1,2.9-4.4,2.9c-2.6,0-5.2-1.2-7.1-3.3c-0.5-0.6-1.2-0.7-2.1-0.9c-0.8,0-1.5,0.3-2,0.9l-2.2,2.5
				c-0.9,1.1-0.9,2.7,0.1,3.7c2.7,2.9,6.3,4.8,10.2,5.4v3.6c0,1,0.8,1.8,1.8,1.8h2.5c1,0,1.8-0.8,1.8-1.8v-3.5
				C240.8,100.4,245.1,95.9,245.1,89.9"/>
			<path id="Stroke-15" class="st1" d="M93.2,64.1h39.5"/>
			<path id="Stroke-17" class="st1" d="M206.7,101.6H111"/>
			<path id="Fill-19" class="st4" d="M174.5,85.3c0,18.5-15,33.5-33.5,33.5c-18.5,0-33.5-15-33.5-33.5s15-33.5,33.5-33.5
				C159.5,51.8,174.5,66.8,174.5,85.3"/>
			<path id="Stroke-21" class="st5" d="M174.5,85.3c0,18.5-15,33.5-33.5,33.5c-18.5,0-33.5-15-33.5-33.5s15-33.5,33.5-33.5
				C159.5,51.8,174.5,66.8,174.5,85.3z"/>
			<path id="Stroke-23" class="st6" d="M135.1,75.7c1.9-1.1,4-1.8,6.4-1.8c6.8,0,12.4,5.5,12.4,12.4c0,1-0.1,2-0.3,2.9"/>
			<path id="Stroke-25" class="st0" d="M149.4,95.8c-2.1,1.8-4.9,2.9-7.9,2.9c-6.8,0-12.4-5.5-12.4-12.4c0-0.8,0.1-1.6,0.2-2.4"/>
			<path id="Stroke-27" class="st0" d="M145.6,94c0,0,4.2,1.2,5.7,0.6c0,0-2,3-1.8,5.9"/>
			<path id="Stroke-29" class="st6" d="M138,78.6c0,0-3.9-1.8-5.6-1.4c0,0,2.4-2.7,2.6-5.6"/>
			<path id="Stroke-31" class="st1" d="M185,75.2h35.8"/>
			<path id="Stroke-33" class="st7" d="M185,87.5h18.2"/>
			<path id="Stroke-35" class="st0" d="M55,61.1h19.7"/>
			<path id="Stroke-37" class="st6" d="M55,74.8h19.7"/>
			<path id="Fill-39" class="st8" d="M44.4,64c-1.4,0-2.5-1.1-2.5-2.5c0-1.4,1.1-2.5,2.5-2.5s2.5,1.1,2.5,2.5
				C46.9,62.8,45.7,64,44.4,64"/>
			<path id="Fill-41" class="st9" d="M44.4,77.5c-1.4,0-2.5-1.1-2.5-2.5s1.1-2.5,2.5-2.5s2.5,1.1,2.5,2.5S45.7,77.5,44.4,77.5"/>
			<path id="Stroke-43" class="st7" d="M55,89.8h19.7"/>
			<path id="Fill-45" class="st4" d="M44.4,92.5c-1.4,0-2.5-1.1-2.5-2.5s1.1-2.5,2.5-2.5s2.5,1.1,2.5,2.5S45.7,92.5,44.4,92.5"/>
		</g>
	</g>
</g>
</svg>
