<?xml version="1.0" encoding="UTF-8"?>
<svg width="152px" height="147px" viewBox="0 0 152 147" version="1.1" xmlns="http://www.w3.org/2000/svg" xmlns:xlink="http://www.w3.org/1999/xlink">
    <!-- Generator: Sketch 51.2 (57519) - http://www.bohemiancoding.com/sketch -->
    <title>Group 5</title>
    <desc>Created with Sketch.</desc>
    <defs>
        <polygon id="path-1" points="0.703126677 0.942349262 24.1225501 0.942349262 24.1225501 19.8947368 0.703126677 19.8947368"></polygon>
        <polygon id="path-3" points="0 0.842105249 18.8995769 0.842105249 18.8995769 24.3268667 0 24.3268667"></polygon>
    </defs>
    <g id="Desktop" stroke="none" stroke-width="1" fill="none" fill-rule="evenodd">
        <g id="6-About" transform="translate(-334.000000, -4115.000000)">
            <g id="Group-5" transform="translate(334.000000, 4115.000000)">
                <g id="Group-35">
                    <path d="M74,135 L74,105 L74,135 Z" id="Fill-1" fill="#007BFF"></path>
                    <path d="M74,135 L74,105" id="Stroke-2" stroke="#000076" stroke-width="6"></path>
                    <path d="M74,48 L74,15 L74,48 Z" id="Fill-4" fill="#007BFF"></path>
                    <path d="M74,48 L74,15" id="Stroke-5" stroke="#000076" stroke-width="6"></path>
                    <path d="M106,75 L134,75 L106,75 Z" id="Fill-6" fill="#007BFF"></path>
                    <path d="M106,75 L134,75" id="Stroke-7" stroke="#64EFFF" stroke-width="6"></path>
                    <path d="M14,75 L43,75 L14,75 Z" id="Fill-8" fill="#007BFF"></path>
                    <path d="M14,75 L43,75" id="Stroke-9" stroke="#000076" stroke-width="6"></path>
                    <g id="Group-34">
                        <path d="M53.4282088,56.2971316 C57.4236467,51.9976579 62.7571431,48.8741842 68.9459387,47.6473421 C76.933508,46.0623947 84.8042453,47.9446579 91.0084715,52.2540789" id="Stroke-10" stroke="#000076" stroke-width="6" stroke-linecap="round" stroke-linejoin="round"></path>
                        <g id="Group-15" transform="translate(96.992701, 57.473684)">
                            <path d="M0.393922628,0.831489474 C3.06893723,4.28322632 5.00328029,8.39701579 5.90707591,12.9783316 C6.75796642,17.2977 6.60586423,21.5828053 5.60838248,25.5904895" id="Fill-12" fill="#007BFF"></path>
                            <path d="M0.393922628,0.831489474 C3.06893723,4.28322632 5.00328029,8.39701579 5.90707591,12.9783316 C6.75796642,17.2977 6.60586423,21.5828053 5.60838248,25.5904895" id="Stroke-14" stroke="#64EFFF" stroke-width="6" stroke-linecap="round" stroke-linejoin="round"></path>
                        </g>
                        <path d="M97.1099737,94.1847789 C92.999908,99.3386211 87.1197255,103.119726 80.1571927,104.5002 C70.9252511,106.331621 61.8520248,103.531989 55.3248569,97.7083579" id="Stroke-16" stroke="#000076" stroke-width="6" stroke-linecap="round" stroke-linejoin="round"></path>
                        <g id="Group-21" transform="translate(45.189781, 64.105263)">
                            <path d="M4.6444073,26.9947263 C2.93931971,24.1752 1.68833431,21.0130421 1.01379416,17.5900421 C-0.144607299,11.7177789 0.555283212,5.90851579 2.70455328,0.775673684" id="Fill-18" fill="#007BFF"></path>
                            <path d="M4.6444073,26.9947263 C2.93931971,24.1752 1.68833431,21.0130421 1.01379416,17.5900421 C-0.144607299,11.7177789 0.555283212,5.90851579 2.70455328,0.775673684" id="Stroke-20" stroke="#000076" stroke-width="6" stroke-linecap="round" stroke-linejoin="round"></path>
                        </g>
                        <path d="M66.3843394,19.1633842 C62.7471131,19.1081211 61.3903175,16.5593842 63.3687482,13.4989105 L70.3114416,2.75022632 C72.2887701,-0.310247368 75.5468431,-0.323510526 77.5506241,2.72038421 L84.9474197,13.9609105 C86.9500985,17.0059105 85.6131423,19.4518579 81.9770182,19.3965947 L66.3843394,19.1633842 Z" id="Fill-22" fill="#000076"></path>
                        <g id="Group-26" transform="translate(61.722628, 127.105263)">
                            <mask id="mask-2" fill="white">
                                <use xlink:href="#path-1"></use>
                            </mask>
                            <g id="Clip-25"></g>
                            <path d="M20.196746,1.17754737 C23.8339723,1.23170526 25.1907679,3.78154737 23.2134394,6.84202105 L16.2696438,17.5907053 C14.2923153,20.6511789 11.0342423,20.6644421 9.0315635,17.6205474 L1.63476788,6.38002105 C-0.369013139,3.33502105 0.967943066,0.889073684 4.60516934,0.943231579 L20.196746,1.17754737 Z" id="Fill-24" fill="#000076" mask="url(#mask-2)"></path>
                        </g>
                        <g id="Group-29" transform="translate(0.000000, 61.894737)">
                            <mask id="mask-4" fill="white">
                                <use xlink:href="#path-3"></use>
                            </mask>
                            <g id="Clip-28"></g>
                            <path d="M18.6650328,20.3901158 C18.6110255,24.0374842 16.0693759,25.3980632 13.0163102,23.4152211 L2.2975146,16.4520632 C-0.754448905,14.4692211 -0.767675182,11.2020632 2.26775547,9.1938 L13.4781277,1.77637895 C16.5135584,-0.232989474 18.9527044,1.10769474 18.8986971,4.75395789 L18.6650328,20.3901158 Z" id="Fill-27" fill="#000076" mask="url(#mask-4)"></path>
                        </g>
                        <path d="M131.986124,66.7063895 C132.040131,63.0590211 134.581781,61.6984421 137.634847,63.6812842 L148.35254,70.6444421 C151.404504,72.6283895 151.418832,75.8944421 148.383401,77.9027053 L137.173029,85.3212316 C134.137599,87.3294947 131.69735,85.9899158 131.75246,82.3425474 L131.986124,66.7063895 Z" id="Fill-30" fill="#64EFFF"></path>
                        <path d="M131.986124,66.7063895 C132.040131,63.0590211 134.581781,61.6984421 137.634847,63.6812842 L148.35254,70.6444421 C151.404504,72.6283895 151.418832,75.8944421 148.383401,77.9027053 L137.173029,85.3212316 C134.137599,87.3294947 131.69735,85.9899158 131.75246,82.3425474 L131.986124,66.7063895 Z" id="Stroke-32" stroke="#64EFFF"></path>
                    </g>
                </g>
                <ellipse id="Oval-2" fill="#000076" fill-rule="nonzero" opacity="0.187555804" cx="65" cy="80.5" rx="30" ry="30.5"></ellipse>
            </g>
        </g>
    </g>
</svg>