<?xml version="1.0" encoding="UTF-8"?>
<svg width="229px" height="185px" viewBox="0 0 229 185" version="1.1" xmlns="http://www.w3.org/2000/svg" xmlns:xlink="http://www.w3.org/1999/xlink">
    <!-- Generator: Sketch 51.2 (57519) - http://www.bohemiancoding.com/sketch -->
    <title>Group 23</title>
    <desc>Created with Sketch.</desc>
    <defs></defs>
    <g id="Desktop" stroke="none" stroke-width="1" fill="none" fill-rule="evenodd" stroke-linecap="round" stroke-linejoin="round">
        <g id="6-About-Copy" transform="translate(-765.000000, -2450.000000)">
            <g id="Group-23" transform="translate(768.000000, 2453.000000)">
                <path d="M149.453417,23 C136.378947,30.0787952 128,42.5564558 128,57.4703967 C128,75.0625484 138.274586,88.3644696 158.48639,96.9839788 C158.48639,96.9839788 164.950716,99.8005566 170,102" id="Stroke-1" stroke="#64EFFF" stroke-width="6"></path>
                <path d="M170.642197,103 C173.430365,104.227112 175.584469,105.17642 175.584469,105.17642 C188.1218,110.702685 190,112.373774 190,117.900039 C190,127.458732 178.729084,128.500925 173.884492,128.500925 C164.352967,128.500925 154.84115,124.134451 147.761911,116.523799 C145.824589,114.419813 143.19408,113.809665 140.207981,113.278769 C137.340984,113.317968 134.631645,114.557863 132.733737,116.681449 L124.526893,125.923989 C121.086667,129.818366 121.165497,135.678679 124.724823,139.474205 C134.809869,150.190985 147.886154,156.903459 162.257129,159.301441 L162.257129,172.302865 C162.257129,176.001245 165.27236,179 168.990203,179 L175.683863,179" id="Stroke-3" stroke="#007BFF" stroke-width="6"></path>
                <path d="M176,179 L178.253125,179 C181.984541,179 185.010781,175.99422 185.010781,172.289083 L185.010781,159.353981 C198.926839,156.879335 210.211385,149.904559 217,140" id="Stroke-5" stroke="#FF6F00" stroke-width="6"></path>
                <path d="M221.360177,129 C222.434282,125.292689 223,121.346772 223,117.211499 C223,93.026519 206.752682,82.6238018 194,77" id="Stroke-7" stroke="#080052" stroke-width="6"></path>
                <path d="M185.520644,73 C180.33043,70.7137531 174.034496,67.9392972 174.034496,67.9392972 C164.253924,63.6798015 161,61.5202848 161,57.10429 C161,49.3116582 171.077082,48.7035233 174.172925,48.7035233 C181.982172,48.7035233 188.647248,51.4898868 194.583438,57.2616396 C196.575271,59.204269 199.473724,60.5396141 202.09703,60.0879783 C204.897216,59.9697535 207.500014,58.693946 209.314111,56.5744046 L216.591007,48.0554132 C219.923545,44.1488908 219.785971,38.3975509 216.256044,34.6687911 C207.859757,25.7372885 196.511184,19.961283 184.2107,17.8536492 L184.2107,6.68523093 C184.2107,2.99304423 181.202871,0 177.496063,0 L168.207682,0 C166.570466,0 165.069969,0.583469264 163.904435,1.55393345" id="Stroke-9" stroke="#007BFF" stroke-width="6"></path>
                <path d="M127,8 L85,8" id="Stroke-11" stroke="#FF6F00" stroke-width="5"></path>
                <path d="M70,8 L51,8" id="Stroke-13" stroke="#000076" stroke-width="5"></path>
                <path d="M62,68 L0.5,68" id="Stroke-15" stroke="#007BFF" stroke-width="7"></path>
                <path d="M93,68 L76,68" id="Stroke-17" stroke="#000075" stroke-width="7"></path>
                <path d="M108,37 L23,37" id="Stroke-19" stroke="#64EEFF" stroke-width="4"></path>
                <path d="M111,101 L57,101" id="Stroke-21" stroke="#007BFF" stroke-width="6"></path>
            </g>
        </g>
    </g>
</svg>