<?xml version="1.0" encoding="utf-8"?>
<!-- Generator: Adobe Illustrator 22.1.0, SVG Export Plug-In . SVG Version: 6.00 Build 0)  -->
<svg version="1.1" id="Layer_1" xmlns="http://www.w3.org/2000/svg" xmlns:xlink="http://www.w3.org/1999/xlink" x="0px" y="0px"
	 viewBox="0 0 229 185" style="enable-background:new 0 0 229 185;" xml:space="preserve">
<style type="text/css">
	.st0{fill:none;stroke:#64EFFF;stroke-width:5.4;stroke-linecap:round;stroke-linejoin:round;}
	.st1{fill:none;stroke:#007BFF;stroke-width:5.4;stroke-linecap:round;stroke-linejoin:round;}
	.st2{fill:none;stroke:#FF6F00;stroke-width:5.4;stroke-linecap:round;stroke-linejoin:round;}
	.st3{fill:none;stroke:#080052;stroke-width:5.4;stroke-linecap:round;stroke-linejoin:round;}
	.st4{fill:none;stroke:#FF6F00;stroke-width:4.5;stroke-linecap:round;stroke-linejoin:round;}
	.st5{fill:none;stroke:#000076;stroke-width:4.5;stroke-linecap:round;stroke-linejoin:round;}
	.st6{fill:none;stroke:#007BFF;stroke-width:6.3;stroke-linecap:round;stroke-linejoin:round;}
	.st7{fill:none;stroke:#000075;stroke-width:6.3;stroke-linecap:round;stroke-linejoin:round;}
	.st8{fill:none;stroke:#64EEFF;stroke-width:3.6;stroke-linecap:round;stroke-linejoin:round;}
</style>
<title>Group 23</title>
<desc>Created with Sketch.</desc>
<g id="Desktop">
	<g id="_x36_-About-Copy" transform="translate(-765.000000, -2450.000000)">
		<g id="Group-23" transform="translate(768.000000, 2453.000000)">
			<path id="Stroke-1" class="st0" d="M145.7,29.6c-11.8,6.4-19.3,17.6-19.3,31c0,15.8,9.2,27.8,27.4,35.6c0,0,5.8,2.5,10.4,4.5"/>
			<path id="Stroke-3" class="st1" d="M164.8,101.6c2.5,1.1,4.4,2,4.4,2c11.3,5,13,6.5,13,11.5c0,8.6-10.1,9.5-14.5,9.5
				c-8.6,0-17.1-3.9-23.5-10.8c-1.7-1.9-4.1-2.4-6.8-2.9c-2.6,0-5,1.2-6.7,3.1l-7.4,8.3c-3.1,3.5-3,8.8,0.2,12.2
				c9.1,9.6,20.8,15.7,33.8,17.8V164c0,3.3,2.7,6,6.1,6h6"/>
			<path id="Stroke-5" class="st2" d="M169.6,170h2c3.4,0,6.1-2.7,6.1-6v-11.6c12.5-2.2,22.7-8.5,28.8-17.4"/>
			<path id="Stroke-7" class="st3" d="M210.4,125c1-3.3,1.5-6.9,1.5-10.6c0-21.8-14.6-31.1-26.1-36.2"/>
			<path id="Stroke-9" class="st1" d="M178.1,74.6c-4.7-2.1-10.3-4.6-10.3-4.6c-8.8-3.8-11.7-5.8-11.7-9.8c0-7,9.1-7.6,11.9-7.6
				c7,0,13,2.5,18.4,7.7c1.8,1.7,4.4,3,6.8,2.5c2.5-0.1,4.9-1.3,6.5-3.2l6.5-7.7c3-3.5,2.9-8.7-0.3-12c-7.6-8-17.8-13.2-28.8-15.1
				V15c0-3.3-2.7-6-6-6h-8.4c-1.5,0-2.8,0.5-3.9,1.4"/>
			<path id="Stroke-11" class="st4" d="M125.5,16.1H87.7"/>
			<path id="Stroke-13" class="st5" d="M74.2,16.1H57.1"/>
			<path id="Stroke-15" class="st6" d="M67,70.1H11.6"/>
			<path id="Stroke-17" class="st7" d="M94.9,70.1H79.6"/>
			<path id="Stroke-19" class="st8" d="M108.4,42.2H31.9"/>
			<path id="Stroke-21" class="st1" d="M111.1,99.8H62.5"/>
		</g>
	</g>
</g>
</svg>
