<?xml version="1.0" encoding="UTF-8"?>
<svg width="160px" height="155px" viewBox="0 0 160 155" version="1.1" xmlns="http://www.w3.org/2000/svg" xmlns:xlink="http://www.w3.org/1999/xlink">
    <!-- Generator: Sketch 51.2 (57519) - http://www.bohemiancoding.com/sketch -->
    <title>Group 44</title>
    <desc>Created with Sketch.</desc>
    <defs>
        <polyline id="path-1" points="0.633 36 0.691 4.909 29.496 0.861 29.438 31.952"></polyline>
        <polyline id="path-3" points="0.633 36 0.691 4.909 29.496 0.861 29.438 31.952"></polyline>
        <polyline id="path-5" points="0.496 35.213 0.553 4.123 29.359 0.074 29.302 31.165"></polyline>
        <polyline id="path-7" points="0.496 35.213 0.553 4.123 29.359 0.074 29.302 31.165"></polyline>
        <polyline id="path-9" points="0 14.046 22.81 0.791 45.769 14.046 22.959 27.302"></polyline>
        <polyline id="path-11" points="0 14.046 22.81 0.791 45.769 14.046 22.959 27.302"></polyline>
    </defs>
    <g id="Desktop" stroke="none" stroke-width="1" fill="none" fill-rule="evenodd">
        <g id="9-Join" transform="translate(-265.000000, -560.000000)">
            <g id="Group-44" transform="translate(259.000000, 558.000000)">
                <path d="M89.8689,77.8718 C77.7929,84.9048 68.1539,90.5258 68.1539,90.5258 C68.1539,90.5258 61.1429,96.1368 51.5969,91.5828 C46.7289,89.2608 29.7969,79.5588 13.5499,70.1248" id="Stroke-1" stroke="#FF6F00" stroke-width="3"></path>
                <path d="M86.5643,82.0451 C86.2663,82.2161 85.9683,82.3881 85.6713,82.5591" id="Stroke-3" stroke="#FFFFFF"></path>
                <path d="M91.7415,87.2551 C75.4835,96.6191 60.0225,105.5231 60.0225,105.5231 C60.0225,105.5231 49.7775,110.2511 49.7775,118.5261 C49.7775,123.0971 49.8735,131.9741 49.9705,150.4061" id="Stroke-5" stroke="#FFFFFF" stroke-width="3"></path>
                <path d="M129.305,106.0422 C130.863,105.1572 130.865,102.9452 129.308,102.0622 L105.514,88.5232 C103.353,87.2932 100.669,87.2912 98.502,88.5182 L74.685,102.0162 C73.127,102.8972 73.125,105.1082 74.682,105.9962 L98.476,119.5312 C100.637,120.7612 103.321,120.7632 105.488,119.5372 L129.305,106.0422 Z" id="Fill-7" fill="#000076" opacity="0.3"></path>
                <g id="Group-15" transform="translate(35.000000, 122.926000)">
                    <g id="Group-11">
                        <mask id="mask-2" fill="white">
                            <use xlink:href="#path-1"></use>
                        </mask>
                        <g id="Clip-10"></g>
                        <path d="M15.0862,6.7241 C9.1102,7.5641 4.2382,13.5041 4.2262,19.9531 C4.2142,26.4031 9.0672,30.9681 15.0432,30.1281 C21.0192,29.2881 25.8912,23.3571 25.9022,16.9071 C25.9152,10.4571 21.0622,5.8841 15.0862,6.7241" id="Fill-9" fill="#007BFF" mask="url(#mask-2)"></path>
                    </g>
                    <g id="Group-14">
                        <mask id="mask-4" fill="white">
                            <use xlink:href="#path-3"></use>
                        </mask>
                        <g id="Clip-13"></g>
                        <path d="M15.0935,2.8852 C7.1555,4.0012 0.6775,11.8862 0.6615,20.4542 C0.6455,29.0232 7.0975,35.0912 15.0355,33.9762 C22.9735,32.8602 29.4515,24.9742 29.4675,16.4062 C29.4835,7.8382 23.0315,1.7692 15.0935,2.8852 M15.0425,30.1282 C9.0675,30.9682 4.2145,26.4032 4.2265,19.9532 C4.2385,13.5042 9.1105,7.5642 15.0865,6.7242 C21.0625,5.8842 25.9145,10.4572 25.9025,16.9072 C25.8905,23.3572 21.0185,29.2882 15.0425,30.1282" id="Fill-12" fill="#FFFFFF" mask="url(#mask-4)"></path>
                    </g>
                </g>
                <path d="M109.2498,83.152 C125.5078,73.788 140.9688,64.883 140.9688,64.883 C140.9688,64.883 151.2138,60.155 151.2138,51.881 C151.2138,47.31 151.1178,27.952 151.0198,9.52" id="Stroke-16" stroke="#64EFFF" stroke-width="3"></path>
                <g id="Group-24" transform="translate(136.000000, 0.926000)">
                    <g id="Group-20">
                        <mask id="mask-6" fill="white">
                            <use xlink:href="#path-5"></use>
                        </mask>
                        <g id="Clip-19"></g>
                        <path d="M14.9495,5.9458 C8.9735,6.7858 4.0935,12.7178 4.0815,19.1678 C4.0695,25.6178 8.9295,30.1898 14.9065,29.3498 C20.8815,28.5098 25.7535,22.5708 25.7655,16.1198 C25.7775,9.6708 20.9255,5.1058 14.9495,5.9458" id="Fill-18" fill="#007BFF" mask="url(#mask-6)"></path>
                    </g>
                    <g id="Group-23">
                        <mask id="mask-8" fill="white">
                            <use xlink:href="#path-7"></use>
                        </mask>
                        <g id="Clip-22"></g>
                        <path d="M14.9563,2.0981 C7.0183,3.2141 0.5403,11.0991 0.5243,19.6681 C0.5093,28.2441 6.9603,34.3051 14.8983,33.1891 C22.8373,32.0731 29.3143,24.1961 29.3303,15.6191 C29.3463,7.0511 22.8943,0.9831 14.9563,2.0981 M14.9063,29.3501 C8.9303,30.1901 4.0693,25.6181 4.0813,19.1681 C4.0933,12.7181 8.9733,6.7851 14.9493,5.9461 C20.9253,5.1061 25.7773,9.6701 25.7663,16.1201 C25.7533,22.5701 20.8813,28.5101 14.9063,29.3501" id="Fill-21" fill="#FFFFFF" mask="url(#mask-8)"></path>
                    </g>
                </g>
                <g id="Group-31" transform="translate(0.000000, 60.926000)">
                    <g id="Group-27">
                        <mask id="mask-10" fill="white">
                            <use xlink:href="#path-9"></use>
                        </mask>
                        <g id="Clip-26"></g>
                        <path d="M31.4734,9.0551 C26.7104,6.3051 18.9844,6.3051 14.2464,9.0591 C9.5144,11.8091 9.5394,16.2841 14.3024,19.0341 C19.0654,21.7841 26.7974,21.7871 31.5294,19.0371 C36.2674,16.2841 36.2364,11.8051 31.4734,9.0551" id="Fill-25" fill="#007BFF" mask="url(#mask-10)"></path>
                    </g>
                    <g id="Group-30">
                        <mask id="mask-12" fill="white">
                            <use xlink:href="#path-11"></use>
                        </mask>
                        <g id="Clip-29"></g>
                        <path d="M34.2898,7.4184 C27.9628,3.7654 17.6978,3.7624 11.4048,7.4184 C5.1188,11.0714 5.1528,17.0214 11.4798,20.6744 C17.8068,24.3274 28.0778,24.3274 34.3638,20.6744 C40.6568,17.0174 40.6168,11.0714 34.2898,7.4184 M14.3028,19.0344 C9.5398,16.2844 9.5138,11.8094 14.2468,9.0594 C18.9848,6.3054 26.7098,6.3054 31.4738,9.0554 C36.2358,11.8054 36.2678,16.2844 31.5298,19.0374 C26.7978,21.7874 19.0648,21.7834 14.3028,19.0344" id="Fill-28" fill="#FF6F00" mask="url(#mask-12)"></path>
                    </g>
                </g>
                <path d="M97.9993,103.2946 C97.8603,103.2946 97.7243,103.2566 97.5953,103.1836 L74.2093,89.8806 C72.5533,88.9386 71.5253,87.1896 71.5273,85.3156 L71.5493,58.7516 C71.5503,58.2816 71.9663,57.9916 72.3513,57.9916 C72.4913,57.9916 72.6273,58.0286 72.7563,58.1016 L96.1403,71.4026 C97.7963,72.3446 98.8233,74.0936 98.8223,75.9686 L98.8003,102.5326 C98.7993,103.0026 98.3843,103.2946 97.9993,103.2946" id="Fill-32" fill="#007BFF"></path>
                <path d="M72.3514,56.4914 C71.1524,56.4914 70.0504,57.4324 70.0494,58.7504 L70.0274,85.3144 C70.0254,87.7284 71.3444,89.9764 73.4674,91.1854 L96.8524,104.4874 C97.2234,104.6984 97.6164,104.7944 97.9994,104.7944 C99.1984,104.7944 100.2984,103.8514 100.3004,102.5334 L100.3224,75.9694 C100.3244,73.5554 99.0094,71.3084 96.8814,70.0994 L73.4974,56.7974 C73.1264,56.5874 72.7334,56.4914 72.3514,56.4914 M73.0484,59.9934 L95.3994,72.7074 C96.5864,73.3824 97.3234,74.6314 97.3224,75.9674 L97.3014,101.2904 L74.9524,88.5774 C73.7634,87.9014 73.0264,86.6524 73.0274,85.3174 L73.0484,59.9934 M73.0494,58.7524 L73.0544,58.7524 L73.0494,58.7524" id="Fill-34" fill="#FFFFFF"></path>
                <path d="M102.6883,65.4982 C101.7353,65.4982 100.7993,65.2522 99.9813,64.7862 L76.5963,51.4842 C76.2583,51.2912 76.2083,50.9922 76.2083,50.8312 C76.2083,50.6702 76.2593,50.3732 76.5953,50.1822 L100.0043,36.9152 C100.8213,36.4532 101.7563,36.2072 102.7073,36.2072 C103.6593,36.2072 104.5953,36.4542 105.4143,36.9192 L128.7983,50.2262 C129.1363,50.4172 129.1863,50.7152 129.1863,50.8752 C129.1873,51.0372 129.1363,51.3362 128.7963,51.5292 L105.3913,64.7902 C104.5733,65.2532 103.6383,65.4982 102.6883,65.4982" id="Fill-36" fill="#007BFF"></path>
                <path d="M102.7063,34.7077 C101.5173,34.7077 100.3283,35.0087 99.2643,35.6097 L75.8573,48.8767 C74.3263,49.7427 74.3243,51.9157 75.8543,52.7887 L99.2393,66.0897 C100.3023,66.6957 101.4953,66.9987 102.6883,66.9987 C103.8773,66.9987 105.0663,66.6977 106.1303,66.0957 L129.5373,52.8337 C131.0683,51.9637 131.0703,49.7907 129.5403,48.9217 L106.1553,35.6157 C105.0923,35.0107 103.8993,34.7077 102.7063,34.7077 M102.7063,37.7077 C103.3993,37.7077 104.0793,37.8857 104.6723,38.2237 L126.9073,50.8747 L104.6523,63.4847 C104.0593,63.8207 103.3793,63.9987 102.6883,63.9987 C101.9953,63.9987 101.3153,63.8197 100.7223,63.4827 L78.4873,50.8347 L100.7423,38.2217 C101.3353,37.8857 102.0153,37.7077 102.7063,37.7077" id="Fill-38" fill="#FFFFFF"></path>
                <path d="M107.3084,103.3024 C107.0994,103.3024 106.8914,103.2194 106.7374,103.0734 C106.5844,102.9294 106.5074,102.7504 106.5074,102.5394 L106.5304,75.9754 C106.5314,74.0994 107.5624,72.3524 109.2194,71.4144 L132.6274,58.1514 C132.7554,58.0794 132.8914,58.0424 133.0304,58.0424 C133.2404,58.0424 133.4494,58.1254 133.6024,58.2714 C133.7554,58.4144 133.8314,58.5934 133.8314,58.8034 L133.8094,85.3674 C133.8074,87.2414 132.7774,88.9894 131.1194,89.9294 L107.7124,103.1914 C107.5824,103.2654 107.4474,103.3024 107.3084,103.3024" id="Fill-40" fill="#007BFF"></path>
                <path d="M133.0301,56.5427 C132.6481,56.5427 132.2571,56.6377 131.8881,56.8467 L108.4811,70.1087 C106.3511,71.3137 105.0321,73.5597 105.0301,75.9737 L105.0081,102.5377 C105.0071,103.8557 106.1081,104.8027 107.3081,104.8027 C107.6901,104.8027 108.0821,104.7067 108.4511,104.4967 L131.8591,91.2337 C133.9851,90.0287 135.3071,87.7837 135.3091,85.3697 L135.3321,58.8057 C135.3331,57.4857 134.2311,56.5427 133.0301,56.5427 M132.3311,60.0437 L132.3091,85.3667 C132.3081,86.7017 131.5691,87.9497 130.3801,88.6237 L108.0091,101.2997 L108.0301,75.9767 C108.0311,74.6397 108.7701,73.3927 109.9591,72.7187 L132.3311,60.0437 M133.3641,59.4577 L133.3691,59.4577 L133.3641,59.4577" id="Fill-42" fill="#FFFFFF"></path>
            </g>
        </g>
    </g>
</svg>