<?xml version="1.0" encoding="utf-8"?>
<svg version="1.1" id="Layer_1" xmlns="http://www.w3.org/2000/svg" xmlns:xlink="http://www.w3.org/1999/xlink" x="0px" y="0px"
	 viewBox="0 0 141.7 183" style="enable-background:new 0 0 141.7 183;" xml:space="preserve">
<style type="text/css">
	.st0{fill:#64f0ff;fill-opacity:0.2;}
	.st1{fill:#64f0ff;fill-opacity:0.5;}
	.st2{fill:#161656;}
	.st3{fill:#161656;fill-opacity:0.2;}
	.st4{fill:#007bff;}
	.st5{fill:#ff6f00;}
</style>
<title>Security icon</title>
<g id="Desktop">
	<g id="_x35_-Project-" transform="translate(-384.000000, -2980.000000)">
		<g id="Security-Copy" transform="translate(384.000000, 2979.000000)">
			<g id="Group-3" transform="translate(0.000000, 0.869000)">
				<path id="Fill-1" class="st0" d="M70.9,16.1c-8.9,0-17.5,2.6-24.9,7.4c-3.4,2.2-7.2,4-9.7,4.4C17,31.3,2.9,47.8,2.9,67.3v21
					c0,12.5,3.5,24.5,10.4,35.6c4.8,7.8,11.2,15,19,21.5c11.8,9.8,23.3,14.9,25.4,15.9l0,0l13.1,5.7l13.1-5.7
					c2.2-0.9,13.7-6.1,25.5-15.9c7.9-6.5,14.3-13.7,19-21.5c6.9-11.1,10.4-23.1,10.4-35.6v-21c0-19.5-14-36-33.4-39.4
					c-2.5-0.4-6.3-2.1-9.7-4.4C88.4,18.7,79.8,16.1,70.9,16.1z M70.9,168l-13.5-5.8c-2.2-0.9-13.8-6.1-25.7-16
					c-7.9-6.6-14.4-13.9-19.3-21.7C5.4,113.2,1.9,101,1.9,88.4v-21c0-19.9,14.4-36.9,34.2-40.3c2.3-0.4,6-2.1,9.3-4.2
					c7.6-4.9,16.4-7.6,25.5-7.6s17.9,2.6,25.5,7.6c3.3,2.2,7,3.8,9.3,4.2c19.8,3.4,34.2,20.4,34.2,40.3v21
					c0,12.7-3.5,24.9-10.5,36.1c-4.8,7.8-11.3,15.2-19.3,21.7c-11.9,9.9-23.5,15.1-25.7,16L70.9,168z"/>
			</g>
			<path id="Fill-4" class="st1" d="M70.9,32c-6,0-11.8,1.7-16.7,5c-2.5,1.6-8.9,5.5-15.3,6.6c-12.2,2.1-21,12.4-21,24.5v21
				c0,9.7,2.7,19,8.1,27.7c3.9,6.4,9.3,12.3,15.8,17.8c10.5,8.7,20.7,13.2,21.8,13.6l7.2,3.1l7.2-3.1c1.1-0.5,11.4-5,21.8-13.7
				c6.6-5.4,11.9-11.4,15.8-17.8c5.4-8.7,8.1-18.1,8.1-27.7V68c0-12.1-8.8-22.5-20.9-24.6c-6.4-1.1-12.9-5-15.3-6.6
				C82.7,33.7,76.9,32,70.9,32z M70.9,152.5l-7.6-3.3c-1.1-0.5-11.5-5.1-22.1-13.8c-6.7-5.5-12.1-11.6-16.1-18
				c-5.5-8.9-8.3-18.4-8.3-28.3v-21c0-12.6,9.2-23.4,21.8-25.6c6.2-1.1,12.5-4.9,15-6.5c5.1-3.4,11.1-5.1,17.3-5.1S83,32.7,88.2,36
				c2.4,1.6,8.7,5.4,15,6.5c12.6,2.2,21.8,12.9,21.8,25.6v21c0,9.9-2.8,19.4-8.3,28.3c-4,6.5-9.4,12.5-16.1,18
				c-10.6,8.7-20.9,13.3-22.1,13.8L70.9,152.5z"/>
			<path id="Fill-6" class="st2" d="M70.9,42c-4,0-7.9,1.2-11.3,3.3c-3.7,2.4-11.2,6.7-19.1,8.1c-7.3,1.3-12.6,7.5-12.6,14.7v21
				c0,7.8,2.2,15.4,6.6,22.5c3.4,5.4,8,10.6,13.7,15.3c9.5,7.9,19,12,19.4,12.2l0,0l3.2,1.4l3.2-1.4c0.4-0.2,9.9-4.3,19.4-12.2
				c5.7-4.7,10.4-9.9,13.7-15.3c4.4-7.1,6.6-14.7,6.6-22.5v-21c0-7.3-5.3-13.5-12.6-14.7C93.2,52,85.7,47.7,82,45.3
				C78.8,43.2,74.9,42,70.9,42z M70.9,141.6l-3.6-1.6c-0.4-0.2-10-4.3-19.7-12.3c-5.8-4.8-10.5-10.1-13.9-15.6
				c-4.5-7.3-6.8-15-6.8-23v-21c0-7.7,5.7-14.4,13.5-15.7s15-5.5,18.7-7.9c3.5-2.3,7.6-3.5,11.8-3.5s8.3,1.2,11.8,3.5
				c3.7,2.4,11,6.6,18.7,7.9c7.8,1.4,13.5,8,13.5,15.7v21c0,8-2.3,15.7-6.8,23c-3.4,5.5-8.1,10.8-13.9,15.6
				c-9.6,8-19.3,12.1-19.7,12.3L70.9,141.6z"/>
			<path id="Fill-8" class="st3" d="M91.6,73.5C84,72.2,77,68.2,73.5,65.9c-2.3-1.5-4.9-2.3-7.7-2.3s-5.4,0.8-7.7,2.3
				c-3.5,2.3-10.5,6.3-18.1,7.6c-4.5,0.8-7.8,4.5-7.8,9v18.3c0,6,1.7,11.9,5.2,17.5c2.7,4.4,6.4,8.5,11.1,12.4
				c7.8,6.5,15.6,9.9,15.9,10l1.3,0.5l1.3-0.5c0.3-0.1,8.1-3.5,15.9-10c4.7-3.9,8.4-8,11.1-12.4c3.4-5.6,5.2-11.5,5.2-17.5V82.4
				C99.4,78,96.1,74.3,91.6,73.5"/>
			<path id="Fill-10" class="st4" d="M70.9,50c-2.9,0-5.7,0.8-8.1,2.4c-3.7,2.4-11.1,6.7-19.1,8.1c-4.8,0.8-8.2,4.8-8.2,9.5v19.4
				c0,6.4,1.8,12.6,5.5,18.6c2.9,4.6,6.8,9,11.8,13.1c8.3,6.9,16.6,10.5,16.9,10.6l1.3,0.6l1.3-0.6c0.3-0.1,8.6-3.7,16.9-10.6
				c4.9-4.1,8.9-8.5,11.8-13.1c3.6-5.9,5.5-12.1,5.5-18.6V69.9c0-4.7-3.5-8.7-8.2-9.5c-8-1.4-15.4-5.6-19.2-8.1
				C76.6,50.8,73.8,50,70.9,50 M70.9,57c1.5,0,3,0.4,4.3,1.3c4.2,2.7,12.5,7.5,21.8,9.1c1.4,0.2,2.4,1.3,2.4,2.6v19.4
				c0,5.1-1.5,10.1-4.5,14.9c-2.5,4-5.9,7.8-10.3,11.4c-5.6,4.6-11.2,7.6-13.8,8.9c-2.6-1.3-8.2-4.3-13.8-8.9
				c-4.4-3.6-7.8-7.4-10.3-11.4c-3-4.8-4.5-9.8-4.5-14.9V69.9c0-1.3,1-2.3,2.4-2.6c9.3-1.6,17.6-6.4,21.8-9.1
				C67.9,57.4,69.4,57,70.9,57"/>
			<path id="Fill-12" class="st5" d="M64.4,104.1c-0.8,0-1.5-0.3-2.1-0.9l-9-9c-1.2-1.2-1.2-3.1,0-4.2c1.2-1.2,3.1-1.2,4.2,0l7,7
				c4.9-4.3,17-14.9,20.5-17.9c1.3-1.1,3.2-0.9,4.2,0.3c1.1,1.3,0.9,3.2-0.3,4.2c-4.4,3.8-22.3,19.6-22.5,19.7
				C65.8,103.8,65.1,104.1,64.4,104.1"/>
		</g>
	</g>
</g>
</svg>
