<?xml version="1.0" encoding="utf-8"?>
<!-- Generator: Adobe Illustrator 22.1.0, SVG Export Plug-In . SVG Version: 6.00 Build 0)  -->
<svg version="1.1" id="Layer_1" xmlns="http://www.w3.org/2000/svg" xmlns:xlink="http://www.w3.org/1999/xlink" x="0px" y="0px"
	 viewBox="0 0 141.7 183" style="enable-background:new 0 0 141.7 183;" xml:space="preserve">
<style type="text/css">
	.st0{fill:#FFFFFF;}
	.st1{fill:#FF6F00;}
	.st2{opacity:0.8;fill:#000076;enable-background:new    ;}
	.st3{fill:#64EFFF;}
	.st4{fill:#000076;fill-opacity:0.2;}
</style>
<title>Transparency Copy</title>
<desc>Created with Sketch.</desc>
<g id="Desktop">
	<g id="_x35_-Project-" transform="translate(-209.000000, -3005.000000)">
		<g id="Transparency-Copy" transform="translate(209.000000, 3005.000000)">
			<path id="Fill-1" class="st0" d="M98.7,127.1c-0.9,0-1.8-0.4-2.4-1.2c-1-1.3-0.8-3.2,0.5-4.2c12.6-9.8,19.8-25.2,19.1-41.2
				c-1-27.3-24.1-48.6-51.5-47.5c-16.1,0.7-31,9.2-39.7,22.8c-0.9,1.4-2.8,1.8-4.1,0.9c-1.4-0.9-1.8-2.8-0.9-4.1
				C29.5,37.3,46.1,27.8,64.2,27c30.6-1.2,56.5,22.6,57.8,53.3c0.7,17.9-7.3,35.2-21.5,46.2C100,126.9,99.4,127.1,98.7,127.1"/>
			<path id="Fill-3" class="st0" d="M66.4,138.2c-11.8,0-23-3.6-32.5-10.6c-1.3-1-1.6-2.8-0.7-4.2c1-1.3,2.9-1.6,4.2-0.7
				c9.1,6.6,19.9,9.8,31.1,9.4c5.8-0.2,11.4-1.5,16.7-3.6c1.5-0.6,3.3,0.1,3.9,1.6s-0.1,3.3-1.6,3.9c-5.9,2.4-12.2,3.8-18.7,4.1
				C68,138.1,67.2,138.2,66.4,138.2"/>
			<path id="Fill-5" class="st1" d="M26.2,120.4c-1.1,0-2.3-0.5-3.1-1.4C15,109.3,10.4,97.6,9.9,84.9c-0.2-4.9,0.2-9.8,1.3-14.6
				c0.5-2.2,2.6-3.5,4.8-3s3.5,2.6,3,4.8c-0.9,4.1-1.3,8.3-1.1,12.5c0.4,10.9,4.4,21,11.3,29.3c1.4,1.7,1.2,4.2-0.5,5.6
				C28.1,120.1,27.1,120.4,26.2,120.4"/>
			<g id="Group-9" transform="translate(86.000000, 93.637000)">
				<g id="Clip-8">
				</g>
				<path id="Fill-7" class="st0" d="M41.2,62c-1,0-2-0.4-2.8-1.2l-27-27c-1.6-1.6-1.6-4.1,0-5.7c1.6-1.6,4.1-1.6,5.7,0l27,27
					c1.6,1.6,1.6,4.1,0,5.7C43.3,61.6,42.2,62,41.2,62"/>
			</g>
			<path id="Fill-10" class="st0" d="M60,66.2c-0.2,0-0.5,0.1-0.6,0.2c-0.5,0.3-0.8,1-0.8,1.9l-0.1,27c0,2.4,1.8,5.4,3.8,6.7
				l7.1,4.1c0.8,0.5,1.6,0.6,2.1,0.3c0.5-0.3,0.8-1,0.8-1.9l0.1-27c0-2.4-1.8-5.4-3.8-6.7l-7.2-4.1C60.9,66.4,60.4,66.2,60,66.2
				 M70.9,108.6c-0.8,0-1.6-0.2-2.5-0.7l-7.1-4.1c-2.7-1.6-4.9-5.3-4.8-8.4l0.1-27c0-1.7,0.6-3,1.8-3.7c1.1-0.7,2.6-0.5,4.1,0.3
				l7.1,4.1c2.7,1.6,4.9,5.3,4.8,8.4l-0.1,27c0,1.7-0.6,3-1.8,3.7C72,108.4,71.5,108.6,70.9,108.6"/>
			<path id="Fill-12" class="st2" d="M56.9,77l-7.1-4.1c-2.4-1.4-4.4-0.3-4.4,2.5l-0.1,27c0,2.8,1.9,6.1,4.3,7.5l7.1,4.1
				c2.4,1.4,4.4,0.3,4.4-2.5l0.1-27C61.2,81.8,59.3,78.4,56.9,77"/>
			<path id="Fill-14" class="st3" d="M72.1,59.4c-0.2,0-0.5,0.1-0.6,0.2c-0.5,0.3-0.8,1-0.8,1.9l-0.1,27c0,2.4,1.8,5.4,3.8,6.7
				l7.1,4.1c0.8,0.5,1.6,0.6,2.1,0.3c0.5-0.3,0.8-1,0.8-1.9l0.1-27c0-2.4-1.8-5.4-3.8-6.7l-7.1-4.1C73,59.5,72.5,59.4,72.1,59.4
				 M83,101.7c-0.8,0-1.6-0.2-2.5-0.7l-7.1-4.1c-2.7-1.6-4.9-5.3-4.8-8.4l0.1-27c0-1.7,0.6-3,1.8-3.7c1.1-0.7,2.6-0.5,4.1,0.3
				l7.1,4.1c2.7,1.6,4.9,5.3,4.8,8.4l-0.1,27c0,1.7-0.6,3-1.8,3.7C84.2,101.6,83.6,101.7,83,101.7"/>
			<path id="Fill-16" class="st4" d="M92.3,119.4c0,2.5-10.2,4.6-22.9,4.6c-12.6,0-22.9-2-22.9-4.6c0-2.5,10.2-4.6,22.9-4.6
				C82,114.9,92.3,116.9,92.3,119.4"/>
		</g>
	</g>
</g>
</svg>
