<?xml version="1.0" encoding="utf-8"?>
<!-- Generator: Adobe Illustrator 22.1.0, SVG Export Plug-In . SVG Version: 6.00 Build 0)  -->
<svg version="1.1" id="Logos" xmlns="http://www.w3.org/2000/svg" xmlns:xlink="http://www.w3.org/1999/xlink" x="0px" y="0px"
	 viewBox="0 0 115 140" style="enable-background:new 0 0 115 140;" xml:space="preserve">
<style type="text/css">
	.st0{fill:url(#SVGID_1_);}
</style>
<title>fernLarge-Icon-Colour</title>
<linearGradient id="SVGID_1_" gradientUnits="userSpaceOnUse" x1="29.3015" y1="22.0572" x2="85.692" y2="119.7264" gradientTransform="matrix(1 0 0 -1 0 140.8929)">
	<stop  offset="0" style="stop-color:#00FFDD"/>
	<stop  offset="1" style="stop-color:#3FA9F5"/>
</linearGradient>
<path class="st0" d="M113.9,98.5v-57c0-2.2-1.6-5-3.5-6.1L61,6.9c-1.9-1.1-5.1-1.1-7,0L4.6,35.4c-1.9,1.1-3.5,3.8-3.5,6.1v57
	c0,2.2,1.6,5,3.5,6.1l21.4,12.4c0.8,0.5,1.8,0.2,2.3-0.6c0,0,0,0,0,0l6.7-11.6c-1.1-1.5-1.4-3.6-0.6-5.3l-6.2-23.1
	c-3-0.4-5-3.1-4.6-6.1c0.4-3,3.1-5,6.1-4.6c3,0.4,5,3.1,4.6,6.1c-0.2,1.4-0.9,2.6-2,3.5l5.7,21.1l0,0c0.7-0.2,1.3-0.2,2-0.1
	l7.3-12.6c-1.1-1.5-1.4-3.4-0.7-5.1l-4-14.8c-3-0.4-5-3.1-4.6-6.1s3.1-5,6.1-4.6c3,0.4,5,3.1,4.6,6.1c-0.2,1.4-0.9,2.6-2,3.5
	L50,75.2l0.2,0c0.7-0.2,1.3-0.2,2-0.1l6.4-11.2c-1.3-1.7-1.4-4-0.3-5.9c0.1-0.2,0.2-0.4,0.4-0.6l-1.8-6.5c-3-0.4-5-3.1-4.6-6.1
	c0.4-3,3.1-5,6.1-4.6c3,0.4,5,3.1,4.6,6.1c-0.2,1.4-0.9,2.6-2,3.5l1.5,5.5c0.4,0,0.7,0,1.1,0l7.1-12.3c-1.8-2.4-1.2-5.8,1.2-7.5
	s5.8-1.2,7.5,1.2c1.8,2.4,1.2,5.8-1.2,7.5c-1.1,0.8-2.5,1.2-3.9,1l-7,12.2c0.3,0.3,0.5,0.7,0.6,1l5.5-1.5c0.4-3,3.1-5,6.1-4.6
	c3,0.4,5,3.1,4.6,6.1c-0.4,3-3.1,5-6.1,4.6c-1.4-0.2-2.7-0.9-3.5-2l-6.5,1.7c-0.1,0.2-0.2,0.4-0.3,0.6c-1.1,1.9-3.2,2.9-5.4,2.7
	l-6.4,11.1c0.4,0.6,0.8,1.2,0.9,1.9c0,0.1,0,0.1,0,0.2l12.7-3.4c0.4-3,3.1-5,6.1-4.6c3,0.4,5,3.1,4.6,6.1c-0.4,3-3.1,5-6.1,4.6
	c-1.4-0.2-2.6-0.9-3.5-2l-14.8,4c-1.2,1.4-3,2.2-4.9,1.9l-7.2,12.6c0.4,0.6,0.7,1.2,0.9,1.9v0l21.1-5.7c0.4-3,3.1-5,6.1-4.6
	c3,0.4,5,3.1,4.6,6.1c-0.4,3-3.1,5-6.1,4.6c-1.4-0.2-2.6-0.9-3.5-2l-23.1,6.2c-1.2,1.5-3.1,2.3-5,2.1l-6.7,11.6
	c-0.5,0.8-0.2,1.8,0.6,2.2L54,133.1c1.9,1.1,5.1,1.1,7,0l49.4-28.5C112.3,103.5,113.9,100.7,113.9,98.5z"/>
</svg>
