<svg id="Logos" xmlns="http://www.w3.org/2000/svg" xmlns:xlink="http://www.w3.org/1999/xlink" viewBox="0 0 674.4 763"><defs><style>.cls-1{fill:url(#Fern_Gradient_color);}</style><linearGradient id="Fern_Gradient_color" x1="171.37" y1="668.72" x2="503.03" y2="94.28" gradientUnits="userSpaceOnUse"><stop offset="0" stop-color="#0fd"/><stop offset="1" stop-color="#3fa9f5"/></linearGradient></defs><title>fernLarge-Icon-Colour</title><path class="cls-1" d="M668.85,549.21V213.8c0-13.08-9.26-29.13-20.59-35.67L357.79,10.43c-11.32-6.54-29.85-6.54-41.18,0L26.14,178.13C14.81,184.67,5.55,200.72,5.55,213.8V549.21c0,13.07,9.26,29.12,20.59,35.66L152.2,657.65a9.69,9.69,0,0,0,13.25-3.56l39.19-68a31.73,31.73,0,0,1-3.8-31.39L164.43,418.83a31.76,31.76,0,1,1,24-6.42l33.24,124.06.22-.07a31.78,31.78,0,0,1,11.91-.86l42.72-74.14a31.75,31.75,0,0,1-4.16-30.21L248.93,343.9a31.76,31.76,0,1,1,24-6.42l20,74.61.89-.26a31.89,31.89,0,0,1,11.77-.88l37.83-65.64a31.72,31.72,0,0,1-1.92-34.67,32.55,32.55,0,0,1,2.24-3.35L333.43,269a31.75,31.75,0,1,1,23.95-6.42l8.67,32.36a31.9,31.9,0,0,1,6.33,0l41.84-72.61a31.77,31.77,0,1,1,21.27,12.75l-41.46,72a31.61,31.61,0,0,1,3.73,6.16l32.36-8.67a31.79,31.79,0,1,1,6.42,23.95l-38.32,10.27a31.1,31.1,0,0,1-1.78,3.62A31.73,31.73,0,0,1,364.69,358l-37.55,65.17a31.59,31.59,0,0,1,5.51,11.14c.08.3.15.6.22.9l74.61-20a31.76,31.76,0,1,1,6.42,24l-87.3,23.39A31.74,31.74,0,0,1,297.85,474l-42.54,73.85a31.65,31.65,0,0,1,5.42,11l0,.22,124.06-33.24a31.76,31.76,0,1,1,6.42,24l-135.87,36.4a31.72,31.72,0,0,1-29.32,12.37l-39.15,68a9.69,9.69,0,0,0,3.55,13.23l126.14,72.83c11.33,6.54,29.86,6.54,41.18,0l290.47-167.7C659.59,578.33,668.85,562.28,668.85,549.21Z"/></svg>