<?xml version="1.0" encoding="UTF-8"?>
<svg width="240px" height="240px" viewBox="0 0 240 240" version="1.1" xmlns="http://www.w3.org/2000/svg" xmlns:xlink="http://www.w3.org/1999/xlink">
    <!-- Generator: Sketch 51.2 (57519) - http://www.bohemiancoding.com/sketch -->
    <title>Icon</title>
    <desc>Created with Sketch.</desc>
    <defs></defs>
    <g id="Desktop" stroke="none" stroke-width="1" fill="none" fill-rule="evenodd">
        <g id="1-Home" transform="translate(-270.000000, -3899.000000)">
            <g id="Icon" transform="translate(270.000000, 3899.000000)">
                <path d="M216.033915,119.949634 C216.033915,66.883371 173.01565,23.8648451 119.949972,23.8648451 C66.883579,23.8648451 23.8651831,66.883241 23.8651831,119.949634 C23.8651831,173.016027 66.883579,216.034423 119.949972,216.034423 C173.01565,216.034423 216.033915,173.015897 216.033915,119.949634 Z" id="Stroke-1" stroke="#64F0FF"></path>
                <path d="M239.188338,119.949634 C239.188338,54.0964804 185.803463,0.711605634 119.95031,0.711605634 C54.0964415,0.711605634 0.71143662,54.0963503 0.71143662,119.949634 C0.71143662,185.802917 54.0964415,239.187662 119.95031,239.187662 C185.803463,239.187662 239.188338,185.802787 239.188338,119.949634 Z" id="Stroke-3" stroke="#64F0FF"></path>
                <path d="M109.22569,43.5982817 C107.89893,41.3039155 105.431324,39.8765915 102.778648,39.8765915 L57.6442817,39.8765915 C54.9907606,39.8765915 52.5231549,41.3039155 51.1972394,43.5982817 L28.6330141,82.6827887 C27.3062535,84.9839155 27.3062535,87.8318028 28.6330141,90.1295493 L51.1972394,129.214056 C52.5231549,131.511803 54.9907606,132.935746 57.6442817,132.935746 L102.778648,132.935746 C105.431324,132.935746 107.89893,131.511803 109.22569,129.214056 L131.789915,90.1295493 C133.116676,87.8318028 133.116676,84.9839155 131.789915,82.6827887 L109.22569,43.5982817 Z" id="Fill-11" fill="#64F0FF"></path>
                <path d="M70.2624507,74.5877746 C70.2675211,69.023831 74.7979437,64.500169 80.3618873,64.5052394 C85.9266761,64.5094648 90.450338,69.0407324 90.4452676,74.6046761 C90.4401972,80.1694648 85.9106197,84.6922817 80.345831,84.6880563 C74.7810423,84.6829859 70.2573803,80.1517183 70.2624507,74.5877746 M88.9689296,87.0255211 C92.9010423,84.2925634 95.4869577,79.7503099 95.4911831,74.6089014 C95.4979437,66.2621408 88.7128732,59.4660845 80.3661127,59.4593239 C72.0193521,59.4517183 65.2241408,66.2376338 65.2165352,74.5835493 C65.2123099,79.7249577 67.7906197,84.2705915 71.717662,87.0111549 C65.3441408,90.6229859 60.7004789,98.1086197 59.7759718,107.015662 L64.8463944,107.019042 C66.0447042,97.2289014 72.5382254,89.7272113 80.3416056,89.7331268 C88.1432958,89.7398873 94.6249859,97.2534085 95.8072394,107.046085 L100.877662,107.05031 C99.9675211,98.1415775 95.3365352,90.648338 88.9689296,87.0255211" id="Fill-13" fill="#FFFFFF"></path>
                <path d="M128.256254,152.212056 C127.391746,150.712901 125.781887,149.787549 124.057944,149.787549 L94.6824507,149.787549 C92.9559718,149.787549 91.3511831,150.712901 90.4866761,152.212056 L75.8001972,177.648676 C74.9373803,179.142761 74.9373803,180.99769 75.8001972,182.491775 L90.4866761,207.928394 C91.3511831,209.427549 92.9559718,210.354592 94.6824507,210.354592 L124.057944,210.354592 C125.781887,210.354592 127.391746,209.427549 128.256254,207.928394 L142.937662,182.491775 C143.802169,180.99769 143.802169,179.142761 142.937662,177.648676 L128.256254,152.212056 Z" id="Fill-9" fill="#007BFF"></path>
                <path d="M103.348141,173.810028 C103.351521,170.566648 105.992366,167.929183 109.236592,167.931718 C112.480817,167.934254 115.117437,170.575944 115.114901,173.820169 C115.111521,177.063549 112.470676,179.701014 109.226451,179.697634 C105.982225,179.695099 103.345606,177.053408 103.348141,173.810028 M114.253775,181.061577 C116.545606,179.467775 118.053211,176.819324 118.055746,173.822704 C118.059972,168.956789 114.105042,164.994254 109.239127,164.990028 C104.373211,164.986648 100.410676,168.941577 100.407296,173.807493 C100.404761,176.804113 101.907296,179.455099 104.196592,181.052282 C100.480817,183.158197 97.7740563,187.522141 97.2349014,192.714254 L100.190958,192.716789 C100.889831,187.009183 104.674901,182.635944 109.223915,182.639324 C113.77293,182.643549 117.551239,187.023549 118.239972,192.732 L121.196028,192.734535 C120.665324,187.541577 117.966169,183.173408 114.253775,181.061577" id="Fill-15" fill="#FFFFFF"></path>
                <path d="M201.004141,88.1683099 C199.948648,86.3429577 197.983859,85.2097183 195.873718,85.2097183 L159.970056,85.2097183 C157.859915,85.2097183 155.897662,86.3429577 154.843014,88.1683099 L136.892873,119.260141 C135.840761,121.085493 135.840761,123.354507 136.892873,125.182394 L154.843014,156.27169 C155.897662,158.099577 157.859915,159.232817 159.970056,159.232817 L195.873718,159.232817 C197.983859,159.232817 199.948648,158.099577 201.004141,156.27169 L218.950901,125.182394 C220.006394,123.354507 220.006394,121.085493 218.950901,119.260141 L201.004141,88.1683099 Z" id="Fill-7" fill="#000076"></path>
                <path d="M171.519887,115.210141 C171.523268,111.195211 174.792,107.931549 178.80693,107.93493 C182.821859,107.93831 186.085521,111.207887 186.082141,115.222817 C186.079606,119.237746 182.809183,122.501408 178.794254,122.498028 C174.779324,122.494648 171.516507,119.22507 171.519887,115.210141 M185.017352,124.184789 C187.854254,122.212394 189.720169,118.935211 189.722704,115.226197 C189.72862,109.20338 184.833127,104.299437 178.81031,104.294366 C172.787493,104.289296 167.883549,109.184789 167.878479,115.207606 C167.875944,118.91662 169.735944,122.197183 172.569465,124.173803 C167.970592,126.78 164.619887,132.18169 163.953127,138.607606 L167.611437,138.610986 C168.475944,131.547042 173.161859,126.133521 178.791718,126.138592 C184.421577,126.143662 189.098197,131.564789 189.951718,138.630423 L193.610028,138.632958 C192.953408,132.205352 189.612,126.798592 185.017352,124.184789" id="Fill-17" fill="#007BFF"></path>
                <path d="M122.547127,40.3326761 C149.335014,41.0442254 172.767972,55.2169014 186.328817,76.3326761" id="Stroke-5" stroke="#005EFF" stroke-width="5" stroke-linecap="round" stroke-linejoin="round"></path>
                <path d="M184.063944,164.138366 C175.025915,176.736676 162.339718,186.540338 147.550141,192.004563" id="Stroke-19" stroke="#000000"></path>
                <path d="M68.742338,177.33769 C55.3352958,165.537972 45.9989577,149.221352 43.110507,130.768394" id="Stroke-21" stroke="#64EFFF" stroke-width="3" stroke-linecap="round" stroke-linejoin="round"></path>
            </g>
        </g>
    </g>
</svg>