<?xml version="1.0" encoding="utf-8"?>
<!-- Generator: Adobe Illustrator 22.1.0, SVG Export Plug-In . SVG Version: 6.00 Build 0)  -->
<svg version="1.1" id="Layer_1" xmlns="http://www.w3.org/2000/svg" xmlns:xlink="http://www.w3.org/1999/xlink" x="0px" y="0px"
	 viewBox="0 0 142 160" style="enable-background:new 0 0 142 160;" xml:space="preserve">
<style type="text/css">
	.st0{fill:#FF6F00;}
	.st1{enable-background:new    ;}
	.st2{fill:#FFFFFF;}
	.st3{fill:#000076;}
	.st4{fill:none;stroke:#FFFFFF;stroke-width:5.0123;}
</style>
<title>Gartner</title>
<desc>Created with Sketch.</desc>
<g id="Desktop">
	<g id="_x31_-Home-Copy" transform="translate(-1198.000000, -608.000000)">
		<g id="Gartner" transform="translate(1198.000000, 608.000000)">
			<path id="Fill-7" class="st0" d="M71.1,158.6c-2.3,0-4.6-0.6-6.5-1.8L8,124.1c-4-2.3-6.5-6.7-6.5-11.3V47.4c0-4.7,2.5-9,6.5-11.3
				L64.6,3.4c2-1.1,4.2-1.8,6.5-1.8c2.3,0,4.6,0.6,6.5,1.8l56.6,32.7c4,2.3,6.5,6.7,6.5,11.3v65.4c0,4.7-2.5,9-6.5,11.3l-56.6,32.7
				C75.7,158,73.4,158.6,71.1,158.6"/>
			<g class="st1">
				<path class="st2" d="M21.8,42.3v0.7h-0.6v-0.7c0-1-0.4-1.7-1.3-1.7s-1.3,0.7-1.3,1.7v4.6c0,1,0.4,1.7,1.3,1.7s1.3-0.7,1.3-1.7
					V45h-1.2v-0.5h1.7v2.4c0,1.3-0.6,2.2-1.9,2.2s-1.9-1-1.9-2.2v-4.5c0-1.3,0.6-2.2,1.9-2.2S21.8,41,21.8,42.3z"/>
				<path class="st2" d="M22.8,49v-8.9h0.6v8.3h2.8V49H22.8z"/>
				<path class="st2" d="M27,42.3c0-1.3,0.6-2.2,1.9-2.2c1.4,0,2,1,2,2.2v4.5c0,1.3-0.6,2.2-2,2.2c-1.3,0-1.9-1-1.9-2.2V42.3z
					 M27.6,46.9c0,1,0.4,1.7,1.4,1.7c1,0,1.4-0.7,1.4-1.7v-4.6c0-1-0.4-1.7-1.4-1.7c-1,0-1.4,0.7-1.4,1.7V46.9z"/>
				<path class="st2" d="M33.7,40.1c1.3,0,1.8,0.7,1.8,1.9v0.5c0,1-0.3,1.6-1.2,1.8c1,0.2,1.3,0.9,1.3,1.9v0.8
					c0,1.3-0.6,2.1-1.9,2.1h-1.9v-8.9H33.7z M33.4,44c1,0,1.5-0.3,1.5-1.4v-0.6c0-0.9-0.3-1.4-1.2-1.4h-1.3V44H33.4z M33.7,48.5
					c1,0,1.4-0.5,1.4-1.5v-0.8c0-1.2-0.5-1.6-1.6-1.6h-1.1v3.9H33.7z"/>
				<path class="st2" d="M37.5,47L37,49h-0.5l1.9-8.9h0.8l2,8.9h-0.6l-0.4-2H37.5z M37.6,46.5h2.6l-1.3-5.7L37.6,46.5z"/>
				<path class="st2" d="M42.2,49v-8.9h0.6v8.3h2.8V49H42.2z"/>
				<path class="st2" d="M49.9,49v-8.3h-1.8v-0.5h4.2v0.5h-1.8V49H49.9z"/>
				<path class="st2" d="M53,42.3C53,41,53.6,40,55,40c1.4,0,2,1,2,2.2v4.5c0,1.3-0.6,2.2-2,2.2c-1.3,0-1.9-1-1.9-2.2V42.3z
					 M53.6,46.9c0,1,0.4,1.7,1.4,1.7c1,0,1.4-0.7,1.4-1.7v-4.6c0-1-0.4-1.7-1.4-1.7c-1,0-1.4,0.7-1.4,1.7V46.9z"/>
				<path class="st2" d="M59.7,40.1c1.4,0,1.9,0.9,1.9,2.2v1c0,1.4-0.6,2.1-2.1,2.1h-1.1V49h-0.6v-8.9H59.7z M59.6,44.8
					c1,0,1.5-0.5,1.5-1.5v-1c0-1-0.3-1.6-1.3-1.6h-1.3v4.2H59.6z"/>
				<path class="st2" d="M68.3,42.3c0,2.6-3.2,3.4-3.2,6.1v0.1h3.2V49h-3.8v-0.4c0-3.1,3.2-3.8,3.2-6.2c0-1-0.3-1.8-1.4-1.8
					c-1,0-1.3,0.8-1.3,1.7v0.6h-0.6v-0.6c0-1.3,0.5-2.3,1.9-2.3C67.8,40,68.3,41,68.3,42.3z"/>
				<path class="st2" d="M69.2,42.3c0-1.3,0.6-2.2,2-2.2s2,0.9,2,2.2v4.5c0,1.3-0.6,2.2-2,2.2s-2-1-2-2.2V42.3z M69.8,46.9
					c0,1,0.4,1.7,1.4,1.7c1,0,1.4-0.7,1.4-1.7v-4.6c0-1-0.4-1.7-1.4-1.7c-1,0-1.4,0.7-1.4,1.7V46.9z"/>
				<path class="st2" d="M77.9,40.1c1.3,0,1.8,0.7,1.8,1.9v0.5c0,1-0.3,1.6-1.2,1.8c1,0.2,1.3,0.9,1.3,1.9v0.8
					c0,1.3-0.6,2.1-1.9,2.1h-1.9v-8.9H77.9z M77.6,44c1,0,1.5-0.3,1.5-1.4v-0.6c0-0.9-0.3-1.4-1.2-1.4h-1.3V44H77.6z M78,48.5
					c1,0,1.4-0.5,1.4-1.5v-0.8c0-1.2-0.5-1.6-1.6-1.6h-1.1v3.9H78z"/>
				<path class="st2" d="M80.8,49v-8.9h0.6v8.3h2.8V49H80.8z"/>
				<path class="st2" d="M85.1,42.3c0-1.3,0.6-2.2,1.9-2.2c1.4,0,2,1,2,2.2v4.5c0,1.3-0.6,2.2-2,2.2c-1.3,0-1.9-1-1.9-2.2V42.3z
					 M85.6,46.9c0,1,0.4,1.7,1.4,1.7c1,0,1.4-0.7,1.4-1.7v-4.6c0-1-0.4-1.7-1.4-1.7c-1,0-1.4,0.7-1.4,1.7V46.9z"/>
				<path class="st2" d="M93.7,42.3V43h-0.6v-0.8c0-1-0.4-1.7-1.3-1.7c-1,0-1.3,0.7-1.3,1.7v4.6c0,1,0.4,1.7,1.3,1.7
					c1,0,1.3-0.7,1.3-1.7v-1.1h0.6v1c0,1.3-0.6,2.2-1.9,2.2c-1.4,0-1.9-1-1.9-2.2v-4.5c0-1.3,0.6-2.2,1.9-2.2
					C93.2,40,93.7,41,93.7,42.3z"/>
				<path class="st2" d="M95.9,44.8l-0.6,1V49h-0.6v-8.9h0.6v4.7l2.9-4.7h0.6l-2.5,4.1l2.7,4.7h-0.6L95.9,44.8z"/>
				<path class="st2" d="M103.5,42.3V43h-0.6v-0.8c0-1-0.4-1.7-1.3-1.7s-1.3,0.7-1.3,1.7v4.6c0,1,0.4,1.7,1.3,1.7s1.3-0.7,1.3-1.7
					v-1.1h0.6v1c0,1.3-0.6,2.2-1.9,2.2c-1.4,0-1.9-1-1.9-2.2v-4.5c0-1.3,0.6-2.2,1.9-2.2C102.9,40,103.5,41,103.5,42.3z"/>
				<path class="st2" d="M105,44.8V49h-0.6v-8.9h0.6v4.2h2.8v-4.2h0.6V49h-0.6v-4.2H105z"/>
				<path class="st2" d="M110.2,47l-0.4,2h-0.5l1.9-8.9h0.8l2,8.9h-0.6l-0.4-2H110.2z M110.3,46.5h2.6l-1.3-5.7L110.3,46.5z"/>
				<path class="st2" d="M115.5,40.1V49h-0.6v-8.9H115.5z"/>
				<path class="st2" d="M117.1,49h-0.5v-8.9h0.8l2.7,7.5v-7.5h0.5V49h-0.6l-2.8-7.9V49z"/>
			</g>
			<g class="st1">
				<path class="st2" d="M41.6,57.3V58h-0.6v-0.8c0-1-0.4-1.7-1.3-1.7s-1.3,0.7-1.3,1.7v4.6c0,1,0.4,1.7,1.3,1.7s1.3-0.7,1.3-1.7
					v-1.1h0.6v1c0,1.3-0.6,2.2-1.9,2.2s-1.9-1-1.9-2.2v-4.5c0-1.3,0.6-2.2,1.9-2.2S41.6,56,41.6,57.3z"/>
				<path class="st2" d="M42.5,57.3c0-1.3,0.6-2.2,1.9-2.2c1.4,0,2,1,2,2.2v4.5c0,1.3-0.6,2.2-2,2.2c-1.3,0-1.9-1-1.9-2.2V57.3z
					 M43.1,61.9c0,1,0.4,1.7,1.4,1.7c1,0,1.4-0.7,1.4-1.7v-4.6c0-1-0.4-1.7-1.4-1.7c-1,0-1.4,0.7-1.4,1.7V61.9z"/>
				<path class="st2" d="M47.9,64h-0.5v-8.9h0.8l2.7,7.5v-7.5h0.5V64h-0.6l-2.8-7.9V64z"/>
				<path class="st2" d="M56.1,57.3v0.2h-0.6v-0.2c0-0.9-0.4-1.6-1.3-1.6c-1,0-1.3,0.7-1.3,1.6c0,2.2,3.2,2.2,3.2,4.6
					c0,1.3-0.6,2.2-1.9,2.2c-1.4,0-1.9-0.9-1.9-2.2v-0.5h0.6v0.5c0,1,0.4,1.6,1.3,1.6c1,0,1.3-0.7,1.3-1.6c0-2.1-3.2-2.2-3.2-4.6
					c0-1.3,0.6-2.2,1.9-2.2C55.5,55,56.1,56,56.1,57.3z"/>
				<path class="st2" d="M57.6,61.9c0,1,0.4,1.7,1.3,1.7s1.3-0.7,1.3-1.7v-6.7h0.5v6.7c0,1.3-0.5,2.2-1.9,2.2s-1.9-1-1.9-2.2v-6.7
					h0.6V61.9z"/>
				<path class="st2" d="M61.8,64v-8.9h0.6v8.3h2.8V64H61.8z"/>
				<path class="st2" d="M66.9,64v-8.3h-1.8v-0.5h4.2v0.5h-1.8V64H66.9z"/>
				<path class="st2" d="M70.6,55.1V64H70v-8.9H70.6z"/>
				<path class="st2" d="M72.2,64h-0.5v-8.9h0.8l2.7,7.5v-7.5h0.5V64h-0.6l-2.8-7.9V64z"/>
				<path class="st2" d="M80.4,57.3v0.7h-0.6v-0.7c0-1-0.4-1.7-1.3-1.7s-1.3,0.7-1.3,1.7v4.6c0,1,0.4,1.7,1.3,1.7s1.3-0.7,1.3-1.7
					V60h-1.2v-0.5h1.7v2.4c0,1.3-0.6,2.2-1.9,2.2c-1.4,0-1.9-1-1.9-2.2v-4.5c0-1.3,0.6-2.2,1.9-2.2C79.8,55,80.4,56,80.4,57.3z"/>
				<path class="st2" d="M86.2,59.4V60h-2.3v4h-0.6v-8.9h3.4v0.5h-2.8v3.8H86.2z"/>
				<path class="st2" d="M88.2,55.1V64h-0.6v-8.9H88.2z"/>
				<path class="st2" d="M91,55.1c1.4,0,1.9,0.7,1.9,2v0.8c0,1-0.4,1.6-1.3,1.8c0.9,0.2,1.3,0.8,1.3,1.8v1.4c0,0.4,0,0.8,0.2,1.1
					h-0.6c-0.2-0.3-0.2-0.6-0.2-1.1v-1.4c0-1.2-0.6-1.5-1.7-1.5h-0.9v4h-0.6v-8.9H91z M90.7,59.5c1,0,1.6-0.3,1.6-1.5v-0.8
					c0-1-0.4-1.5-1.3-1.5h-1.3v3.8H90.7z"/>
				<path class="st2" d="M97.1,64h-0.6l-1.9-7.8V64h-0.5v-8.9h0.8l1.9,7.8l1.9-7.8h0.8V64h-0.6v-7.9L97.1,64z"/>
			</g>
			<g class="st1">
				<path class="st2" d="M60.6,124.4c0,4.7-5.8,6.3-5.9,11v0.2h5.8v1h-6.8v-0.8c0-5.7,5.9-6.9,5.9-11.4c0-1.9-0.6-3.2-2.5-3.2
					c-1.8,0-2.4,1.4-2.4,3.1v1.1h-1v-1c0-2.3,1-4.2,3.5-4.2C59.6,120.3,60.6,122,60.6,124.4z"/>
				<path class="st2" d="M62.3,124.3c0-2.4,1.1-4.1,3.6-4.1c2.5,0,3.6,1.7,3.6,4.1v8.3c0,2.4-1.1,4.1-3.6,4.1
					c-2.5,0-3.6-1.7-3.6-4.1V124.3z M63.3,132.7c0,1.8,0.7,3.1,2.5,3.1c1.8,0,2.5-1.3,2.5-3.1v-8.4c0-1.8-0.7-3.1-2.5-3.1
					c-1.8,0-2.5,1.3-2.5,3.1V132.7z"/>
				<path class="st2" d="M74.2,122.2c-0.6,0.8-1.4,1.3-2.5,1.4v-0.9c1.6-0.1,2.3-1.1,2.8-2.3h0.8v16.2h-1.1V122.2z"/>
				<path class="st2" d="M84.9,124.2v0.5c0,1.7-0.6,3-2.1,3.4c1.6,0.5,2.1,1.8,2.1,3.5v1.2c0,2.4-1.2,4-3.7,4c-2.5,0-3.7-1.6-3.7-4
					v-1.2c0-1.7,0.6-3,2.2-3.5c-1.6-0.4-2.2-1.7-2.2-3.4v-0.5c0-2.4,1.2-3.9,3.7-3.9C83.6,120.3,84.9,121.8,84.9,124.2z M78.6,124.2
					v0.7c0,1.8,0.9,2.8,2.6,2.8c1.7,0,2.6-0.9,2.6-2.8v-0.7c0-1.9-0.9-3-2.6-3C79.5,121.2,78.6,122.3,78.6,124.2z M78.6,131.5v1.2
					c0,1.9,0.9,3.1,2.6,3.1s2.6-1.2,2.6-3.1v-1.2c0-1.9-0.9-2.8-2.6-2.8C79.4,128.6,78.6,129.6,78.6,131.5z"/>
			</g>
			<polygon id="Fill-9" class="st3" points="1.4,113.9 140.9,113.9 140.9,70.7 1.4,70.7 			"/>
			<g id="Logo" transform="translate(21.407925, 80.261072)">
				<path id="Fill-11" class="st2" d="M98,7.6l-0.3,3.4l-1.3,0c-2.2,0-3.3,1.8-3.3,3.5l0,7.7l-3.9,0l0-14.5l3.7,0l0.1,1.8
					c0.8-1.2,2.1-1.8,3.8-1.8L98,7.6z"/>
				<path id="Fill-12" class="st2" d="M70.8,22.1l-3.9,0l0-7.7c0-1.6-0.1-3.6-2.5-3.6c-2.1,0-3,1.6-3,3.4l0,7.9l-3.9,0l0-14.5l3.7,0
					l0,1.9c0.8-1.2,2.2-2.2,4.4-2.2c4,0,5.3,2.8,5.3,5.7L70.8,22.1z"/>
				<path id="Fill-13" class="st2" d="M55.9,18.7l-0.2,3.4c-1,0.2-1.8,0.3-2.8,0.3c-3.7,0-4.8-1.7-4.8-5l0-13.7l3.9,0l0,4l3.9,0
					L55.6,11l-3.7,0l0,6c0,1.3,0.3,2.1,1.8,2.1C54.3,19.2,55,19,55.9,18.7"/>
				<path id="Fill-14" class="st2" d="M46.8,7.7L46.5,11l-1.1,0c-2.1,0-3.2,1.8-3.2,3.5l0,7.7l-3.9,0l0-14.5l3.7,0L42,9.5
					c0.8-1.2,2.1-1.8,3.8-1.8L46.8,7.7z"/>
				<path id="Fill-15" class="st2" d="M20.6,20.5c-2.7,1.5-5.4,2.2-8.8,2.2c-6.5-0.2-11.2-4.2-11.2-11c0-6.8,4.7-11.2,11.2-11.3
					c3.2,0,6.1,0.8,8.5,2.8L17.4,6C16,4.9,14,4.1,11.5,4.2c-4.1,0.2-6.6,3.1-6.6,7.3c-0.1,4.4,2.6,7.4,6.8,7.5
					c2,0.1,3.5-0.2,4.7-0.8l0-4.5l-4.5,0l0.3-3.7l8.3,0L20.6,20.5z"/>
				<path id="Fill-16" class="st2" d="M83.3,13.2c-0.1-1.8-1.5-3-3.4-2.9c-1.9,0.1-3.2,1.3-3.5,2.9L83.3,13.2z M87.2,16.2l-10.7,0
					c0.3,1.9,1.8,3,3.6,3c1.8,0.1,2.8-0.5,4-1.8l2.6,2c-1.8,2.2-4,3-6.5,3c-4.4,0-7.6-3-7.6-7.6c0-4.6,3.2-7.6,7.5-7.6
					c4.6,0,7.2,2.8,7.2,7.8L87.2,16.2z"/>
				<path id="Fill-17" class="st2" d="M32,15.8l-0.6,0c-1.8,0-5.1,0.1-5,2c0,2.8,5.6,1.9,5.6-1.3L32,15.8z M35.8,12.7l0,9.5l-3.5,0
					l-0.1-1.5c-1,1.3-2.8,1.8-4.6,1.8c-2.6,0-5.1-1.3-5.1-4.3c-0.1-4.8,5.4-5.1,8.8-5.1l0.7,0v-0.2c0-1.6-1-2.5-3-2.5
					c-1.5,0-2.8,0.6-3.9,1.6l-2.2-2.3c2-1.7,4.1-2.2,6.5-2.2C33.7,7.3,35.7,9.5,35.8,12.7z"/>
			</g>
			<path id="Fill-7_1_" class="st4" d="M71,157.5c1.9,0,3.8-0.5,5.4-1.5l57.7-33.3c3.3-1.9,5.4-5.5,5.4-9.4V46.7
				c0-3.9-2.1-7.5-5.4-9.4L76.4,4C74.7,3,72.9,2.5,71,2.5c-1.9,0-3.8,0.5-5.4,1.4L7.9,37.3c-3.3,1.9-5.4,5.5-5.4,9.4v66.7
				c0,3.9,2.1,7.5,5.4,9.4L65.6,156C67.2,157,69.1,157.5,71,157.5z"/>
		</g>
	</g>
</g>
</svg>
