<?xml version="1.0" encoding="utf-8"?>
<!-- Generator: Adobe Illustrator 22.1.0, SVG Export Plug-In . SVG Version: 6.00 Build 0)  -->
<svg version="1.1" id="Layer_1" xmlns="http://www.w3.org/2000/svg" xmlns:xlink="http://www.w3.org/1999/xlink" x="0px" y="0px"
	 viewBox="0 0 264.3 125" style="enable-background:new 0 0 264.3 125;" xml:space="preserve">
<style type="text/css">
	.st0{fill:#FFFFFF;}
	.st1{fill:#FF6F00;}
	.st2{opacity:0.2;fill:url(#SVGID_1_);}
	.st3{fill:#0065A4;}
</style>
<title>Group 7</title>
<desc>Created with Sketch.</desc>
<polygon id="Fill-1" class="st0" points="-11.6,0 -11.6,125 228.3,125 264.3,0 62.3,0 "/>
<polygon id="Fill-2" class="st1" points="228.2,125 -11.7,125 -11.7,69 244.6,69 "/>
<linearGradient id="SVGID_1_" gradientUnits="userSpaceOnUse" x1="-11.5982" y1="62.5" x2="48.9362" y2="62.5">
	<stop  offset="0" style="stop-color:#000000"/>
	<stop  offset="1" style="stop-color:#000000;stop-opacity:0"/>
</linearGradient>
<rect x="-11.6" y="0" class="st2" width="60.5" height="125"/>
<g>
	<path class="st0" d="M44,87h2.8v4c0,2-1,3.2-3,3.2c-1.9,0-3-1.1-3-3.2v-6.6c0-2,1-3.2,3-3.2c1.9,0,3,1.1,3,3.2v1.2h-1.9v-1.4
		c0-0.9-0.4-1.2-1-1.2c-0.6,0-1,0.3-1,1.2v6.8c0,0.9,0.4,1.2,1,1.2c0.6,0,1-0.3,1-1.2v-2.3H44V87z"/>
	<path class="st0" d="M48.1,81.4h2v10.8h3.3V94h-5.2V81.4z"/>
	<path class="st0" d="M54,84.4c0-2,1.1-3.2,3-3.2c1.9,0,3,1.1,3,3.2V91c0,2-1.1,3.2-3,3.2c-1.9,0-3-1.1-3-3.2V84.4z M56,91.1
		c0,0.9,0.4,1.2,1,1.2c0.6,0,1-0.3,1-1.2v-6.8c0-0.9-0.4-1.2-1-1.2c-0.6,0-1,0.3-1,1.2V91.1z"/>
	<path class="st0" d="M64.3,81.4c2.1,0,2.9,1,2.9,2.9v0.5c0,1.3-0.4,2.1-1.3,2.5c1.1,0.4,1.5,1.4,1.5,2.7v1c0,1.9-1,3-3,3h-3.1V81.4
		H64.3z M63.3,83.2v3.3h0.8c0.7,0,1.2-0.3,1.2-1.3v-0.7c0-0.9-0.3-1.3-1-1.3H63.3z M63.3,88.3v3.9h1.1c0.7,0,1-0.3,1-1.2v-1.1
		c0-1.2-0.4-1.5-1.3-1.5H63.3z"/>
	<path class="st0" d="M75,94h-2l-0.3-2.3h-2.4L69.9,94h-1.8l2-12.6H73L75,94z M70.5,90h1.9l-1-6.4L70.5,90z"/>
	<path class="st0" d="M75.9,81.4h2v10.8h3.3V94h-5.2V81.4z"/>
	<path class="st0" d="M84.3,81.4h6.1v1.8h-2.1V94h-2V83.2h-2.1V81.4z"/>
	<path class="st0" d="M91.1,84.4c0-2,1.1-3.2,3-3.2c1.9,0,3,1.1,3,3.2V91c0,2-1.1,3.2-3,3.2c-1.9,0-3-1.1-3-3.2V84.4z M93.1,91.1
		c0,0.9,0.4,1.2,1,1.2c0.6,0,1-0.3,1-1.2v-6.8c0-0.9-0.4-1.2-1-1.2c-0.6,0-1,0.3-1,1.2V91.1z"/>
	<path class="st0" d="M101.3,81.4c2,0,3,1.1,3,3.1v1.6c0,2-1,3.1-3,3.1h-0.9V94h-2V81.4H101.3z M100.3,83.2v4.3h0.9
		c0.6,0,1-0.3,1-1.2v-1.9c0-0.9-0.3-1.2-1-1.2H100.3z"/>
	<path class="st0" d="M110.8,83.1c-0.6,0-1,0.3-1,1.2v1.4h-1.9v-1.2c0-2,1-3.2,3-3.2c1.9,0,3,1.1,3,3.2c0,1.3-0.4,2.4-1,3.2
		c-0.3,0.5-0.6,0.8-1,1.2c-0.7,0.7-1.3,1.4-1.7,2c-0.2,0.3-0.3,0.7-0.3,1c0,0.1,0,0.2,0,0.3h3.7V94h-5.7v-1.5c0-1.2,0.4-2.1,1-2.9
		c0.3-0.4,0.6-0.8,0.9-1.1c0.7-0.7,1.3-1.4,1.7-2.3c0.2-0.5,0.3-1,0.3-1.6C111.9,83.4,111.5,83.1,110.8,83.1z"/>
	<path class="st0" d="M114.9,84.4c0-2,1.1-3.2,3-3.2c1.9,0,3,1.1,3,3.2V91c0,2-1.1,3.2-3,3.2c-1.9,0-3-1.1-3-3.2V84.4z M116.9,91.1
		c0,0.9,0.4,1.2,1,1.2c0.6,0,1-0.3,1-1.2v-6.8c0-0.9-0.4-1.2-1-1.2c-0.6,0-1,0.3-1,1.2V91.1z"/>
	<path class="st0" d="M128,81.4c2.1,0,2.9,1,2.9,2.9v0.5c0,1.3-0.4,2.1-1.3,2.5c1.1,0.4,1.5,1.4,1.5,2.7v1c0,1.9-1,3-3,3H125V81.4
		H128z M127,83.2v3.3h0.8c0.7,0,1.2-0.3,1.2-1.3v-0.7c0-0.9-0.3-1.3-1-1.3H127z M127,88.3v3.9h1.1c0.7,0,1-0.3,1-1.2v-1.1
		c0-1.2-0.4-1.5-1.3-1.5H127z"/>
	<path class="st0" d="M132.3,81.4h2v10.8h3.3V94h-5.2V81.4z"/>
	<path class="st0" d="M138.2,84.4c0-2,1.1-3.2,3-3.2s3,1.1,3,3.2V91c0,2-1.1,3.2-3,3.2s-3-1.1-3-3.2V84.4z M140.2,91.1
		c0,0.9,0.4,1.2,1,1.2s1-0.3,1-1.2v-6.8c0-0.9-0.4-1.2-1-1.2s-1,0.3-1,1.2V91.1z"/>
	<path class="st0" d="M151.3,89.3V91c0,2-1,3.2-3,3.2s-3-1.1-3-3.2v-6.6c0-2,1-3.2,3-3.2s3,1.1,3,3.2v1.2h-1.9v-1.4
		c0-0.9-0.4-1.2-1-1.2c-0.6,0-1,0.3-1,1.2v6.8c0,0.9,0.4,1.2,1,1.2c0.6,0,1-0.3,1-1.2v-1.8H151.3z"/>
	<path class="st0" d="M155.1,89l-0.6,1.2V94h-2V81.4h2v5.5l2.6-5.5h2l-2.8,5.6l2.8,7h-2L155.1,89z"/>
	<path class="st0" d="M165.4,89.3V91c0,2-1,3.2-3,3.2s-3-1.1-3-3.2v-6.6c0-2,1-3.2,3-3.2s3,1.1,3,3.2v1.2h-1.9v-1.4
		c0-0.9-0.4-1.2-1-1.2c-0.6,0-1,0.3-1,1.2v6.8c0,0.9,0.4,1.2,1,1.2c0.6,0,1-0.3,1-1.2v-1.8H165.4z"/>
	<path class="st0" d="M168.6,94h-2V81.4h2v5.4h2.3v-5.4h2V94h-2v-5.4h-2.3V94z"/>
	<path class="st0" d="M180.7,94h-2l-0.3-2.3h-2.4l-0.3,2.3h-1.8l2-12.6h2.9L180.7,94z M176.2,90h1.9l-1-6.4L176.2,90z"/>
	<path class="st0" d="M181.6,81.4h2V94h-2V81.4z"/>
	<path class="st0" d="M186.8,84.9V94H185V81.4h2.5l2,7.5v-7.5h1.8V94h-2L186.8,84.9z"/>
	<path class="st0" d="M46.8,109.3v1.7c0,2-1,3.2-3,3.2c-1.9,0-3-1.1-3-3.2v-6.6c0-2,1-3.2,3-3.2c1.9,0,3,1.1,3,3.2v1.2h-1.9v-1.4
		c0-0.9-0.4-1.2-1-1.2c-0.6,0-1,0.3-1,1.2v6.8c0,0.9,0.4,1.2,1,1.2c0.6,0,1-0.3,1-1.2v-1.8H46.8z"/>
	<path class="st0" d="M47.8,104.4c0-2,1.1-3.2,3-3.2c1.9,0,3,1.1,3,3.2v6.6c0,2-1.1,3.2-3,3.2c-1.9,0-3-1.1-3-3.2V104.4z
		 M49.8,111.1c0,0.9,0.4,1.2,1,1.2c0.6,0,1-0.3,1-1.2v-6.8c0-0.9-0.4-1.2-1-1.2c-0.6,0-1,0.3-1,1.2V111.1z"/>
	<path class="st0" d="M56.9,104.9v9.1h-1.8v-12.6h2.5l2,7.5v-7.5h1.8V114h-2L56.9,104.9z"/>
	<path class="st0" d="M65.5,101.3c1.9,0,2.9,1.1,2.9,3.2v0.4h-1.9v-0.5c0-0.9-0.4-1.2-1-1.2c-0.6,0-1,0.3-1,1.2c0,0.9,0.4,1.5,1,2.1
		c0.3,0.3,0.6,0.6,0.9,0.9c0.6,0.6,1.3,1.3,1.6,2.2c0.2,0.5,0.3,1,0.3,1.6c0,2-1,3.2-3,3.2c-1.9,0-3-1.1-3-3.2v-0.8h1.9v0.9
		c0,0.9,0.4,1.2,1,1.2s1-0.3,1-1.2c0-0.9-0.4-1.5-1-2.1c-0.3-0.3-0.6-0.6-0.9-0.9c-0.7-0.6-1.3-1.3-1.7-2.1c-0.2-0.5-0.3-1-0.3-1.6
		C62.6,102.4,63.5,101.3,65.5,101.3z"/>
	<path class="st0" d="M71.4,101.4v9.7c0,0.9,0.4,1.2,1,1.2c0.6,0,1-0.3,1-1.2v-9.7h1.9v9.6c0,2-1,3.2-3,3.2c-1.9,0-3-1.1-3-3.2v-9.6
		H71.4z"/>
	<path class="st0" d="M76.7,101.4h2v10.8H82v1.8h-5.2V101.4z"/>
	<path class="st0" d="M81.3,101.4h6.1v1.8h-2.1V114h-2v-10.8h-2.1V101.4z"/>
	<path class="st0" d="M88.3,101.4h2V114h-2V101.4z"/>
	<path class="st0" d="M93.5,104.9v9.1h-1.8v-12.6h2.5l2,7.5v-7.5H98V114h-2L93.5,104.9z"/>
	<path class="st0" d="M102.4,107h2.8v4c0,2-1,3.2-3,3.2c-1.9,0-3-1.1-3-3.2v-6.6c0-2,1-3.2,3-3.2c1.9,0,3,1.1,3,3.2v1.2h-1.9v-1.4
		c0-0.9-0.4-1.2-1-1.2c-0.6,0-1,0.3-1,1.2v6.8c0,0.9,0.4,1.2,1,1.2c0.6,0,1-0.3,1-1.2v-2.3h-0.9V107z"/>
	<path class="st0" d="M111.2,107h2.6v1.8h-2.6v5.2h-2v-12.6h5.2v1.8h-3.3V107z"/>
	<path class="st0" d="M115.4,101.4h2V114h-2V101.4z"/>
	<path class="st0" d="M123,114c0-0.1-0.1-0.2-0.1-0.2c-0.1-0.1-0.1-0.3-0.1-0.7c0-0.2,0-0.4,0-0.6v-2c0-1.2-0.4-1.6-1.3-1.6h-0.7
		v5.1h-2v-12.6h3c2.1,0,2.9,1,2.9,2.9v1c0,1.3-0.4,2.1-1.3,2.6c1,0.4,1.3,1.4,1.3,2.7v1.9c0,0.6,0,1,0.2,1.5H123z M120.8,103.2v3.9
		h0.8c0.7,0,1.2-0.3,1.2-1.3v-1.2c0-0.9-0.3-1.3-1-1.3H120.8z"/>
	<path class="st0" d="M130.3,110.3l1.4-8.9h2.8V114h-1.9v-9l-1.4,9h-1.9l-1.5-8.9v8.9h-1.7v-12.6h2.8L130.3,110.3z"/>
</g>
<g>
	<path id="Fill-16" class="st3" d="M189.7,49.8v-1.1h0.7c0.4,0,0.7,0.1,0.7,0.5c0,0.5-0.4,0.6-0.8,0.6H189.7z M189.7,50.2h0.6
		l0.9,1.5h0.6l-1-1.5c0.5-0.1,0.9-0.3,0.9-1c0-0.7-0.4-1-1.2-1h-1.3v3.5h0.5V50.2z M190.3,53c1.6,0,3-1.3,3-3c0-1.7-1.4-3-3-3
		c-1.6,0-3,1.3-3,3C187.3,51.7,188.7,53,190.3,53z M187.9,50c0-1.4,1.1-2.5,2.4-2.5c1.3,0,2.4,1.1,2.4,2.5c0,1.4-1.1,2.5-2.4,2.5
		C189,52.5,187.9,51.4,187.9,50z"/>
	<path id="Fill-11" class="st3" d="M191.3,27.7l-0.5,5.2l-2.1,0c-3.5,0-5.2,2.8-5.2,5.3l0,11.9l-6.1,0l0-22.4l5.8,0l0.2,2.8
		c1.2-1.9,3.3-2.8,5.9-2.8L191.3,27.7z"/>
	<path id="Fill-12" class="st3" d="M148.9,50.2l-6.1,0l0-11.9c0-2.4-0.2-5.5-3.8-5.5c-3.3,0-4.7,2.4-4.7,5.2l0,12.2l-6.1,0l0-22.4
		l5.8,0l0,2.9c1.2-1.9,3.5-3.5,6.8-3.5c6.3,0,8.2,4.3,8.2,8.8L148.9,50.2z"/>
	<path id="Fill-13" class="st3" d="M125.6,44.9l-0.3,5.2c-1.6,0.3-2.8,0.5-4.4,0.5c-5.8,0-7.5-2.6-7.5-7.7l0-21.2l6.1,0l0,6.2l6.1,0
		l-0.3,5.2l-5.8,0l0,9.3c0,2.1,0.5,3.3,2.8,3.3C123.1,45.6,124.2,45.4,125.6,44.9"/>
	<path id="Fill-14" class="st3" d="M111.4,27.8l-0.5,5.2l-1.7,0c-3.3,0-5.1,2.8-5.1,5.3l0,11.9l-6.1,0l0-22.4l5.8,0l0.2,2.8
		c1.2-1.9,3.3-2.8,5.9-2.8L111.4,27.8z"/>
	<path id="Fill-15" class="st3" d="M70.5,47.7c-4.2,2.2-8.4,3.5-13.8,3.5c-10.1-0.3-17.4-6.5-17.5-17c0-10.5,7.3-17.2,17.4-17.4
		c5.1,0,9.6,1.2,13.3,4.3l-4.4,4.3c-2.3-1.7-5.4-2.9-9.2-2.7C49.8,22.9,46,27.4,46,33.8c-0.2,6.7,4,11.4,10.7,11.5
		c3.1,0.2,5.4-0.4,7.3-1.2l0-6.9l-7,0l0.5-5.7l12.9,0L70.5,47.7z"/>
	<path id="Fill-16_1_" class="st3" d="M168.4,36.4c-0.2-2.8-2.3-4.7-5.2-4.5c-3,0.2-5.1,2.1-5.4,4.5L168.4,36.4z M174.5,41l-16.7,0
		c0.5,2.9,2.8,4.6,5.6,4.6c2.8,0.2,4.4-0.7,6.3-2.8l4,3.1c-2.8,3.5-6.3,4.7-10.1,4.7c-6.8,0-11.9-4.6-11.9-11.7
		c0-7.1,5-11.7,11.7-11.7c7.2,0,11.2,4.3,11.2,12L174.5,41z"/>
	<path id="Fill-17" class="st3" d="M88.2,40.4l-0.9,0c-2.8,0-8,0.2-7.8,3.1c0,4.3,8.7,2.9,8.7-2.1L88.2,40.4z M94.2,35.6l0,14.6
		l-5.4,0L88.6,48c-1.6,2.1-4.4,2.8-7.1,2.8c-4,0-8-2.1-8-6.7c-0.2-7.4,8.4-7.9,13.8-7.9l1,0v-0.3c0-2.4-1.6-3.8-4.7-3.8
		c-2.3,0-4.4,0.9-6.1,2.4l-3.5-3.6c3.1-2.6,6.4-3.5,10.1-3.5C91,27.3,94.1,30.6,94.2,35.6z"/>
</g>
</svg>
