<?xml version="1.0" encoding="utf-8"?>
<!-- Generator: Adobe Illustrator 22.1.0, SVG Export Plug-In . SVG Version: 6.00 Build 0)  -->
<svg version="1.1" id="Layer_1" xmlns="http://www.w3.org/2000/svg" xmlns:xlink="http://www.w3.org/1999/xlink" x="0px" y="0px"
	 viewBox="0 0 264.3 125" style="enable-background:new 0 0 264.3 125;" xml:space="preserve">
<style type="text/css">
	.st0{fill:#FFFFFF;}
	.st1{fill:#FF6F00;}
	.st2{opacity:0.2;fill:url(#SVGID_1_);enable-background:new    ;}
	.st3{fill:#0065A4;}
	.st4{clip-path:url(#SVGID_3_);}
</style>
<title>Group 7</title>
<desc>Created with Sketch.</desc>
<polygon id="Fill-1" class="st0" points="-11.6,0 -11.6,125 228.3,125 264.3,0 62.3,0 "/>
<polygon id="Fill-2" class="st1" points="228.2,125 -11.7,125 -11.7,69 244.6,69 "/>
<linearGradient id="SVGID_1_" gradientUnits="userSpaceOnUse" x1="-11.6" y1="63.3898" x2="48.9" y2="63.3898" gradientTransform="matrix(1 0 0 -1 0 125.8898)">
	<stop  offset="0" style="stop-color:#000000"/>
	<stop  offset="1" style="stop-color:#000000;stop-opacity:0"/>
</linearGradient>
<rect x="-11.6" y="0" class="st2" width="60.5" height="125"/>
<g>
	<path id="Fill-16" class="st3" d="M189.7,49.8v-1.1h0.7c0.4,0,0.7,0.1,0.7,0.5c0,0.5-0.4,0.6-0.8,0.6H189.7z M189.7,50.2h0.6
		l0.9,1.5h0.6l-1-1.5c0.5-0.1,0.9-0.3,0.9-1s-0.4-1-1.2-1h-1.3v3.5h0.5V50.2z M190.3,53c1.6,0,3-1.3,3-3s-1.4-3-3-3s-3,1.3-3,3
		S188.7,53,190.3,53z M187.9,50c0-1.4,1.1-2.5,2.4-2.5c1.3,0,2.4,1.1,2.4,2.5s-1.1,2.5-2.4,2.5S187.9,51.4,187.9,50z"/>
	<path id="Fill-11" class="st3" d="M191.3,27.7l-0.5,5.2h-2.1c-3.5,0-5.2,2.8-5.2,5.3v11.9h-6.1V27.7h5.8l0.2,2.8
		c1.2-1.9,3.3-2.8,5.9-2.8L191.3,27.7z"/>
	<path id="Fill-12" class="st3" d="M148.9,50.2h-6.1V38.3c0-2.4-0.2-5.5-3.8-5.5c-3.3,0-4.7,2.4-4.7,5.2v12.2h-6.1V27.8h5.8v2.9
		c1.2-1.9,3.5-3.5,6.8-3.5c6.3,0,8.2,4.3,8.2,8.8L148.9,50.2z"/>
	<path id="Fill-13" class="st3" d="M125.6,44.9l-0.3,5.2c-1.6,0.3-2.8,0.5-4.4,0.5c-5.8,0-7.5-2.6-7.5-7.7V21.7h6.1v6.2h6.1
		l-0.3,5.2h-5.8v9.3c0,2.1,0.5,3.3,2.8,3.3C123.1,45.6,124.2,45.4,125.6,44.9"/>
	<path id="Fill-14" class="st3" d="M111.4,27.8l-0.5,5.2h-1.7c-3.3,0-5.1,2.8-5.1,5.3v11.9H98V27.8h5.8l0.2,2.8
		c1.2-1.9,3.3-2.8,5.9-2.8L111.4,27.8z"/>
	<path id="Fill-15" class="st3" d="M70.5,47.7c-4.2,2.2-8.4,3.5-13.8,3.5c-10.1-0.3-17.4-6.5-17.5-17c0-10.5,7.3-17.2,17.4-17.4
		c5.1,0,9.6,1.2,13.3,4.3l-4.4,4.3c-2.3-1.7-5.4-2.9-9.2-2.7C49.8,22.9,46,27.4,46,33.8c-0.2,6.7,4,11.4,10.7,11.5
		c3.1,0.2,5.4-0.4,7.3-1.2v-6.9h-7l0.5-5.7h12.9L70.5,47.7z"/>
	<path id="Fill-16_1_" class="st3" d="M168.4,36.4c-0.2-2.8-2.3-4.7-5.2-4.5c-3,0.2-5.1,2.1-5.4,4.5H168.4z M174.5,41h-16.7
		c0.5,2.9,2.8,4.6,5.6,4.6c2.8,0.2,4.4-0.7,6.3-2.8l4,3.1c-2.8,3.5-6.3,4.7-10.1,4.7c-6.8,0-11.9-4.6-11.9-11.7s5-11.7,11.7-11.7
		c7.2,0,11.2,4.3,11.2,12L174.5,41z"/>
	<path id="Fill-17" class="st3" d="M88.2,40.4h-0.9c-2.8,0-8,0.2-7.8,3.1c0,4.3,8.7,2.9,8.7-2.1L88.2,40.4z M94.2,35.6v14.6h-5.4
		L88.6,48c-1.6,2.1-4.4,2.8-7.1,2.8c-4,0-8-2.1-8-6.7c-0.2-7.4,8.4-7.9,13.8-7.9h1v-0.3c0-2.4-1.6-3.8-4.7-3.8
		c-2.3,0-4.4,0.9-6.1,2.4L74,30.9c3.1-2.6,6.4-3.5,10.1-3.5C91,27.3,94.1,30.6,94.2,35.6z"/>
</g>
<g>
	<defs>
		<rect id="SVGID_2_" x="40.8" y="77" width="189" height="36"/>
	</defs>
	<clipPath id="SVGID_3_">
		<use xlink:href="#SVGID_2_"  style="overflow:visible;"/>
	</clipPath>
	<g class="st4">
		<path class="st0" d="M44.4,85.2h2.7v3.9c0,2-1,3.1-2.9,3.1c-1.9,0-2.9-1.1-2.9-3.1v-6.4c0-2,1-3.1,2.9-3.1c1.9,0,2.9,1.1,2.9,3.1
			v1.2h-1.8v-1.3c0-0.9-0.4-1.2-1-1.2c-0.6,0-1,0.3-1,1.2v6.6c0,0.9,0.4,1.2,1,1.2c0.6,0,1-0.3,1-1.2v-2.3h-0.9V85.2z"/>
		<path class="st0" d="M48.3,79.7h1.9v10.5h3.2V92h-5.1V79.7z"/>
		<path class="st0" d="M54.1,82.7c0-2,1-3.1,2.9-3.1s2.9,1.1,2.9,3.1v6.4c0,2-1,3.1-2.9,3.1s-2.9-1.1-2.9-3.1V82.7z M56,89.2
			c0,0.9,0.4,1.2,1,1.2c0.6,0,1-0.3,1-1.2v-6.6c0-0.9-0.4-1.2-1-1.2c-0.6,0-1,0.3-1,1.2V89.2z"/>
		<path class="st0" d="M64.1,79.7c2,0,2.9,0.9,2.9,2.8V83c0,1.3-0.4,2.1-1.2,2.5c1.1,0.4,1.4,1.3,1.4,2.6v1c0,1.9-1,2.9-2.9,2.9h-3
			V79.7H64.1z M63.1,81.5v3.2h0.8c0.7,0,1.2-0.3,1.2-1.3v-0.7c0-0.9-0.3-1.3-1-1.3H63.1z M63.1,86.5v3.8h1.1c0.6,0,1-0.3,1-1.2V88
			c0-1.1-0.4-1.5-1.2-1.5H63.1z"/>
		<path class="st0" d="M74.5,92h-1.9l-0.3-2.2h-2.4L69.6,92h-1.8l2-12.3h2.8L74.5,92z M70.1,88.1H72l-0.9-6.2L70.1,88.1z"/>
		<path class="st0" d="M75.4,79.7h1.9v10.5h3.2V92h-5.1V79.7z"/>
		<path class="st0" d="M83.5,79.7h6v1.8h-2V92h-1.9V81.5h-2V79.7z"/>
		<path class="st0" d="M90.1,82.7c0-2,1-3.1,2.9-3.1s2.9,1.1,2.9,3.1v6.4c0,2-1,3.1-2.9,3.1s-2.9-1.1-2.9-3.1V82.7z M92.1,89.2
			c0,0.9,0.4,1.2,1,1.2c0.6,0,1-0.3,1-1.2v-6.6c0-0.9-0.4-1.2-1-1.2c-0.6,0-1,0.3-1,1.2V89.2z"/>
		<path class="st0" d="M100.1,79.7c1.9,0,2.9,1,2.9,3v1.6c0,2-0.9,3-2.9,3h-0.9V92h-1.9V79.7H100.1z M99.1,81.5v4.1h0.9
			c0.6,0,0.9-0.3,0.9-1.2v-1.8c0-0.9-0.3-1.2-0.9-1.2H99.1z"/>
		<path class="st0" d="M109.3,81.4c-0.6,0-1,0.3-1,1.2v1.3h-1.8v-1.2c0-2,1-3.1,2.9-3.1s2.9,1.1,2.9,3.1c0,1.3-0.4,2.3-1,3.2
			c-0.3,0.4-0.6,0.8-0.9,1.2c-0.7,0.7-1.3,1.4-1.6,2c-0.2,0.3-0.3,0.6-0.3,1c0,0.1,0,0.2,0,0.3h3.6V92h-5.6v-1.5
			c0-1.2,0.4-2.1,1-2.8c0.3-0.4,0.6-0.7,0.9-1.1c0.6-0.7,1.3-1.4,1.6-2.3c0.2-0.4,0.3-1,0.3-1.6C110.3,81.7,110,81.4,109.3,81.4z"/>
		<path class="st0" d="M113.3,82.7c0-2,1-3.1,2.9-3.1s2.9,1.1,2.9,3.1v6.4c0,2-1,3.1-2.9,3.1s-2.9-1.1-2.9-3.1V82.7z M115.2,89.2
			c0,0.9,0.4,1.2,1,1.2c0.6,0,1-0.3,1-1.2v-6.6c0-0.9-0.4-1.2-1-1.2c-0.6,0-1,0.3-1,1.2V89.2z"/>
		<path class="st0" d="M126,79.7c2,0,2.9,0.9,2.9,2.8V83c0,1.3-0.4,2.1-1.2,2.5c1,0.4,1.4,1.3,1.4,2.6v1c0,1.9-1,2.9-2.9,2.9h-3
			V79.7H126z M125,81.5v3.2h0.8c0.7,0,1.2-0.3,1.2-1.3v-0.7c0-0.9-0.3-1.3-1-1.3H125z M125,86.5v3.8h1.1c0.6,0,1-0.3,1-1.2V88
			c0-1.1-0.3-1.5-1.2-1.5H125z"/>
		<path class="st0" d="M130.2,79.7h1.9v10.5h3.2V92h-5.1V79.7z"/>
		<path class="st0" d="M136,82.7c0-2,1-3.1,2.9-3.1c1.9,0,2.9,1.1,2.9,3.1v6.4c0,2-1,3.1-2.9,3.1c-1.9,0-2.9-1.1-2.9-3.1V82.7z
			 M137.9,89.2c0,0.9,0.4,1.2,1,1.2c0.6,0,1-0.3,1-1.2v-6.6c0-0.9-0.4-1.2-1-1.2c-0.6,0-1,0.3-1,1.2V89.2z"/>
		<path class="st0" d="M148.7,87.4v1.6c0,2-1,3.1-2.9,3.1c-1.9,0-2.9-1.1-2.9-3.1v-6.4c0-2,1-3.1,2.9-3.1c1.9,0,2.9,1.1,2.9,3.1v1.2
			h-1.8v-1.3c0-0.9-0.4-1.2-1-1.2c-0.6,0-1,0.3-1,1.2v6.6c0,0.9,0.4,1.2,1,1.2c0.6,0,1-0.3,1-1.2v-1.8H148.7z"/>
	</g>
	<g class="st4">
		<path class="st0" d="M152.3,87.1l-0.6,1.1V92h-1.9V79.7h1.9v5.3l2.5-5.3h1.9l-2.7,5.5l2.7,6.8h-2L152.3,87.1z"/>
	</g>
	<g class="st4">
		<path class="st0" d="M162.4,87.4v1.6c0,2-1,3.1-2.9,3.1c-1.9,0-2.9-1.1-2.9-3.1v-6.4c0-2,1-3.1,2.9-3.1c1.9,0,2.9,1.1,2.9,3.1v1.2
			h-1.8v-1.3c0-0.9-0.4-1.2-1-1.2c-0.6,0-1,0.3-1,1.2v6.6c0,0.9,0.4,1.2,1,1.2c0.6,0,1-0.3,1-1.2v-1.8H162.4z"/>
		<path class="st0" d="M165.5,92h-1.9V79.7h1.9V85h2.2v-5.2h2V92h-2v-5.3h-2.2V92z"/>
		<path class="st0" d="M177.3,92h-1.9l-0.3-2.2h-2.4l-0.3,2.2h-1.8l2-12.3h2.8L177.3,92z M172.9,88.1h1.9l-0.9-6.2L172.9,88.1z"/>
		<path class="st0" d="M178.2,79.7h1.9V92h-1.9V79.7z"/>
		<path class="st0" d="M183.2,83.1V92h-1.7V79.7h2.4l2,7.3v-7.3h1.7V92h-2L183.2,83.1z"/>
	</g>
	<g class="st4">
		<path class="st0" d="M47.1,107.4v1.6c0,2-1,3.1-2.9,3.1c-1.9,0-2.9-1.1-2.9-3.1v-6.4c0-2,1-3.1,2.9-3.1c1.9,0,2.9,1.1,2.9,3.1v1.2
			h-1.8v-1.3c0-0.9-0.4-1.2-1-1.2c-0.6,0-1,0.3-1,1.2v6.6c0,0.9,0.4,1.2,1,1.2c0.6,0,1-0.3,1-1.2v-1.8H47.1z"/>
		<path class="st0" d="M48.1,102.7c0-2,1-3.1,2.9-3.1s2.9,1.1,2.9,3.1v6.4c0,2-1,3.1-2.9,3.1s-2.9-1.1-2.9-3.1V102.7z M50,109.2
			c0,0.9,0.4,1.2,1,1.2c0.6,0,1-0.3,1-1.2v-6.6c0-0.9-0.4-1.2-1-1.2c-0.6,0-1,0.3-1,1.2V109.2z"/>
		<path class="st0" d="M56.9,103.1v8.9h-1.7V99.7h2.4l2,7.3v-7.3h1.7V112h-2L56.9,103.1z"/>
		<path class="st0" d="M65.2,99.6c1.9,0,2.8,1.1,2.8,3.1v0.4h-1.8v-0.5c0-0.9-0.4-1.2-1-1.2c-0.6,0-1,0.3-1,1.2c0,0.8,0.4,1.5,1,2
			c0.3,0.3,0.6,0.6,0.9,0.9c0.6,0.6,1.2,1.2,1.6,2.1c0.2,0.4,0.3,0.9,0.3,1.5c0,2-1,3.1-2.9,3.1c-1.9,0-2.9-1.1-2.9-3.1v-0.8h1.8
			v0.9c0,0.9,0.4,1.2,1,1.2c0.6,0,1-0.3,1-1.2c0-0.8-0.4-1.5-1-2c-0.3-0.3-0.6-0.6-0.9-0.9c-0.6-0.6-1.2-1.2-1.6-2.1
			c-0.2-0.4-0.3-0.9-0.3-1.5C62.4,100.7,63.4,99.6,65.2,99.6z"/>
		<path class="st0" d="M71,99.7v9.5c0,0.9,0.4,1.2,1,1.2c0.6,0,1-0.3,1-1.2v-9.5h1.8v9.3c0,2-1,3.1-2.9,3.1s-2.9-1.1-2.9-3.1v-9.3
			H71z"/>
		<path class="st0" d="M76.2,99.7h1.9v10.5h3.2v1.8h-5.1V99.7z"/>
		<path class="st0" d="M80.7,99.7h6v1.8h-2V112h-1.9v-10.5h-2V99.7z"/>
		<path class="st0" d="M87.5,99.7h1.9V112h-1.9V99.7z"/>
		<path class="st0" d="M92.5,103.1v8.9h-1.7V99.7h2.4l2,7.3v-7.3h1.7V112h-2L92.5,103.1z"/>
		<path class="st0" d="M101.2,105.2h2.7v3.9c0,2-1,3.1-2.9,3.1c-1.9,0-2.9-1.1-2.9-3.1v-6.4c0-2,1-3.1,2.9-3.1
			c1.9,0,2.9,1.1,2.9,3.1v1.2H102v-1.3c0-0.9-0.4-1.2-1-1.2c-0.6,0-1,0.3-1,1.2v6.6c0,0.9,0.4,1.2,1,1.2c0.6,0,1-0.3,1-1.2v-2.3
			h-0.9V105.2z"/>
		<path class="st0" d="M109.7,105.2h2.5v1.8h-2.5v5.1h-1.9V99.7h5.1v1.8h-3.2V105.2z"/>
		<path class="st0" d="M113.8,99.7h1.9V112h-1.9V99.7z"/>
		<path class="st0" d="M121.2,112c0-0.1-0.1-0.2-0.1-0.2c-0.1-0.1-0.1-0.3-0.1-0.7c0-0.2,0-0.4,0-0.6v-1.9c0-1.1-0.4-1.6-1.3-1.6
			h-0.7v5h-1.9V99.7h2.9c2,0,2.9,0.9,2.9,2.8v1c0,1.3-0.4,2.1-1.3,2.5c1,0.4,1.3,1.3,1.3,2.6v1.9c0,0.6,0,1,0.2,1.5H121.2z
			 M119.1,101.5v3.8h0.8c0.7,0,1.2-0.3,1.2-1.3v-1.2c0-0.9-0.3-1.3-1-1.3H119.1z"/>
		<path class="st0" d="M128.3,108.4l1.3-8.7h2.7V112h-1.8v-8.8l-1.3,8.8h-1.8l-1.4-8.7v8.7h-1.7V99.7h2.7L128.3,108.4z"/>
		<path class="st0" d="M139.2,101.4c-0.6,0-1,0.3-1,1.2v1.3h-1.8v-1.2c0-2,1-3.1,2.9-3.1c1.9,0,2.9,1.1,2.9,3.1c0,1.3-0.4,2.3-1,3.2
			c-0.3,0.4-0.6,0.8-0.9,1.2c-0.7,0.7-1.3,1.4-1.6,2c-0.2,0.3-0.3,0.6-0.3,1c0,0.1,0,0.2,0,0.3h3.6v1.8h-5.6v-1.5
			c0-1.2,0.4-2.1,1-2.8c0.3-0.4,0.6-0.7,0.9-1.1c0.6-0.7,1.3-1.4,1.6-2.3c0.2-0.4,0.3-1,0.3-1.6
			C140.2,101.7,139.8,101.4,139.2,101.4z"/>
		<path class="st0" d="M143.1,102.7c0-2,1-3.1,2.9-3.1c1.9,0,2.9,1.1,2.9,3.1v6.4c0,2-1,3.1-2.9,3.1c-1.9,0-2.9-1.1-2.9-3.1V102.7z
			 M145.1,109.2c0,0.9,0.4,1.2,1,1.2c0.6,0,1-0.3,1-1.2v-6.6c0-0.9-0.4-1.2-1-1.2c-0.6,0-1,0.3-1,1.2V109.2z"/>
		<path class="st0" d="M151.4,101.3c0.8,0,1.2-0.2,1.5-0.5s0.5-0.7,0.6-1.1h1.3V112h-1.9v-9.3h-1.5V101.3z"/>
		<path class="st0" d="M162.8,99.7v1.7L160,112H158l2.8-10.5H157v-1.8H162.8z"/>
		<path class="st0" d="M166.8,108.1c0-1.3,0.4-2.2,1.3-2.6c-0.9-0.4-1.3-1.2-1.3-2.5v-0.2c0-2,0.9-3,2.9-3h2.2v1.8h-2.2
			c-0.6,0-1,0.3-1,1.2v0.8c0,1,0.4,1.3,1.2,1.3h0.8v-1.4h1.9v1.4h0.5v1.8h-0.5v4c0,0.6,0,1,0.2,1.5h-2c-0.1-0.3-0.1-0.4-0.2-1
			c-0.3,0.7-0.9,1.1-1.8,1.1c-1.4,0-2.1-1-2.1-2.8V108.1z M168.7,109.2c0,0.9,0.4,1.2,1,1.2c0.6,0,0.9-0.3,1-1.1v-2.8H170
			c-0.9,0-1.3,0.4-1.3,1.6V109.2z"/>
		<path class="st0" d="M179.6,101.4c-0.6,0-1,0.3-1,1.2v1.3h-1.8v-1.2c0-2,1-3.1,2.9-3.1c1.9,0,2.9,1.1,2.9,3.1c0,1.3-0.4,2.3-1,3.2
			c-0.3,0.4-0.6,0.8-0.9,1.2c-0.7,0.7-1.3,1.4-1.6,2c-0.2,0.3-0.3,0.6-0.3,1c0,0.1,0,0.2,0,0.3h3.6v1.8h-5.6v-1.5
			c0-1.2,0.4-2.1,1-2.8c0.3-0.4,0.6-0.7,0.9-1.1c0.6-0.7,1.3-1.4,1.6-2.3c0.2-0.4,0.3-1,0.3-1.6
			C180.6,101.7,180.2,101.4,179.6,101.4z"/>
		<path class="st0" d="M183.5,102.7c0-2,1-3.1,2.9-3.1c1.9,0,2.9,1.1,2.9,3.1v6.4c0,2-1,3.1-2.9,3.1c-1.9,0-2.9-1.1-2.9-3.1V102.7z
			 M185.5,109.2c0,0.9,0.4,1.2,1,1.2c0.6,0,1-0.3,1-1.2v-6.6c0-0.9-0.4-1.2-1-1.2c-0.6,0-1,0.3-1,1.2V109.2z"/>
		<path class="st0" d="M191.8,101.3c0.8,0,1.2-0.2,1.5-0.5c0.3-0.3,0.5-0.7,0.6-1.1h1.3V112h-1.9v-9.3h-1.5V101.3z"/>
		<path class="st0" d="M203.3,109.1c0,2-1,3.1-3,3.1s-3-1.1-3-3.1v-1c0-1.2,0.4-2.1,1.2-2.6c-0.8-0.4-1.2-1.3-1.2-2.5v-0.4
			c0-2,1.1-3.1,3-3.1s3,1.1,3,3.1v0.4c0,1.2-0.4,2-1.2,2.5c0.8,0.5,1.2,1.4,1.2,2.6V109.1z M199.2,103.4c0,1,0.5,1.3,1.1,1.3
			c0.6,0,1.1-0.3,1.1-1.3v-0.7c0-1.1-0.5-1.4-1.1-1.4s-1.1,0.3-1.1,1.4V103.4z M199.2,109c0,1.1,0.5,1.4,1.1,1.4s1.1-0.3,1.1-1.4
			v-1.1c0-1-0.4-1.4-1.1-1.4s-1.1,0.4-1.1,1.4V109z"/>
	</g>
</g>
</svg>
