<?xml version="1.0" encoding="UTF-8"?>
<svg width="142px" height="160px" viewBox="0 0 142 160" version="1.1" xmlns="http://www.w3.org/2000/svg" xmlns:xlink="http://www.w3.org/1999/xlink">
    <!-- Generator: Sketch 51.2 (57519) - http://www.bohemiancoding.com/sketch -->
    <title>Gartner</title>
    <desc>Created with Sketch.</desc>
    <defs></defs>
    <g id="Desktop" stroke="none" stroke-width="1" fill="none" fill-rule="evenodd">
        <g id="1-Home" transform="translate(-1198.000000, -608.000000)">
            <g id="Gartner" transform="translate(1198.000000, 608.000000)">
                <path d="M71.1454732,158.559925 C68.8532587,158.559925 66.591627,157.954238 64.6052401,156.807012 L7.97419114,124.111068 C3.93950583,121.782303 1.43395804,117.441044 1.43395804,112.783515 L1.43395804,47.391627 C1.43395804,42.733352 3.93950583,38.3928392 7.97419114,36.0633287 L64.6052401,3.36738462 C66.591627,2.22090443 68.8532587,1.61521678 71.1454732,1.61521678 C73.4384336,1.61521678 75.6993193,2.22090443 77.6857063,3.36738462 L134.316755,36.0633287 C138.351441,38.3928392 140.856988,42.733352 140.856988,47.391627 L140.856988,112.783515 C140.856988,117.441044 138.351441,121.782303 134.316755,124.111068 L77.6857063,156.807012 C75.6993193,157.954238 73.4384336,158.559925 71.1454732,158.559925" id="Fill-7" fill="#FF6F00"></path>
                <text id="Global-Top-20-Blockc" font-family="BebasNeue, Bebas Neue" font-size="12.6806527" font-weight="normal" fill="#FFFFFF">
                    <tspan x="17.4929604" y="48.997669">Global Top 20 Blockchain </tspan>
                    <tspan x="37.3128205" y="63.997669">consulting firm</tspan>
                </text>
                <text id="2017" font-family="BebasNeue, Bebas Neue" font-size="23.1235431" font-weight="normal" fill="#FFFFFF">
                    <tspan x="52.6978089" y="136.573427">2017</tspan>
                </text>
                <polygon id="Fill-9" fill="#000076" points="1.43365967 113.865548 140.85669 113.865548 140.85669 70.7446154 1.43365967 70.7446154"></polygon>
                <g id="Logo" transform="translate(21.407925, 80.261072)" fill="#FFFFFF">
                    <path d="M97.9601305,7.59086247 L97.6296876,10.9422844 L96.2892681,10.9445221 C94.0559814,10.9475058 92.9408298,12.7354779 92.9423217,14.4115618 L92.9535105,22.1184149 L89.0441399,22.1228904 L89.0247459,7.6027972 L92.7110862,7.59832168 L92.8244662,9.38480186 C93.6046993,8.15552448 94.944373,7.59459207 96.619711,7.59235431 L97.9601305,7.59086247 Z" id="Fill-11"></path>
                    <path d="M70.8374825,22.1472075 L66.9288578,22.1524289 L66.9184149,14.4455758 C66.9161772,12.8821259 66.8020513,10.8711235 64.4561305,10.8748531 C62.333986,10.8778368 61.4426107,12.4420326 61.4448485,14.2292587 L61.4552914,22.1598881 L57.5459207,22.1651096 L57.5265268,7.6442704 L61.2128671,7.63979487 L61.2158508,9.53816317 C61.995338,8.30888578 63.4461538,7.30189277 65.5690443,7.29890909 C69.5895571,7.29368765 70.8218182,10.0841772 70.8255478,12.9880466 L70.8374825,22.1472075 Z" id="Fill-12"></path>
                    <path d="M55.8658834,18.704634 L55.6473287,22.0560559 C54.6418275,22.2805781 53.8608485,22.3932121 52.8553473,22.394704 C49.169007,22.3991795 48.04938,20.7253333 48.0456503,17.3746573 L48.0270023,3.63628904 L51.936373,3.6310676 L51.9415944,7.65232634 L55.850965,7.6471049 L55.6324103,10.9977809 L51.9460699,11.0030023 L51.9542751,17.0345175 C51.9565128,18.3749371 52.2921772,19.1559161 53.7444848,19.1544242 C54.3024336,19.1536783 54.9730163,19.0410443 55.8658834,18.704634" id="Fill-13"></path>
                    <path d="M46.8040653,7.65859207 L46.4736224,11.010014 L45.356979,11.0115058 C43.2340886,11.0144895 42.119683,12.8024615 42.1219207,14.4785455 L42.1316177,22.1853986 L38.222993,22.19062 L38.2035991,7.67052681 L41.8891935,7.66530536 L42.0033193,9.45253147 C42.7835524,8.22250816 44.1232261,7.66232168 45.7985641,7.66008392 L46.8040653,7.65859207 Z" id="Fill-14"></path>
                    <path d="M20.5730163,20.5384802 C17.893669,21.9937716 15.2143217,22.7792261 11.7517576,22.7837016 C5.27268998,22.5688765 0.57637296,18.554331 0.568167832,11.7410909 C0.558470862,4.92785082 5.24359907,0.565706294 11.7226667,0.444867133 C14.9614545,0.441137529 17.8668159,1.21913287 20.2149744,3.22640559 L17.4259767,6.02211655 C15.9729231,4.90696503 13.9611748,4.12822378 11.5041119,4.24309557 C7.37171096,4.47209324 4.91837762,7.37894639 4.92359907,11.5113473 C4.81767832,15.8682704 7.50224709,18.8802984 11.7465361,18.9862191 C13.7575385,19.0951235 15.2091002,18.7587133 16.4368858,18.1985268 L16.4309184,13.7304615 L11.9628531,13.7364289 L12.293296,10.0500886 L20.5588438,10.0388998 L20.5730163,20.5384802 Z" id="Fill-15"></path>
                    <path d="M83.3359814,13.1951142 C83.2218555,11.4078881 81.8799441,10.1808485 79.9808298,10.2957203 C78.0824615,10.4098462 76.7435338,11.6406154 76.5219953,13.2040653 L83.3359814,13.1951142 Z M87.2490816,16.2056503 L76.5264709,16.2198228 C76.863627,18.1181911 78.3166807,19.2333427 80.1046527,19.2311049 C81.8911329,19.3400093 82.8958881,18.7805688 84.1236737,17.4386573 L86.6948625,19.4451841 C84.91062,21.6814545 82.6773333,22.4669091 80.2202704,22.4698928 C75.8640932,22.4758601 72.6215758,19.4638322 72.6148625,14.8846247 C72.6088951,10.3054172 75.8439534,7.28518415 80.0882424,7.2799627 C84.6681958,7.27399534 87.2401305,10.0622471 87.2475897,15.089007 L87.2490816,16.2056503 Z" id="Fill-16"></path>
                    <path d="M31.9592727,15.8320186 L31.401324,15.8327646 C29.613352,15.8350023 26.262676,15.951366 26.3775478,17.8504802 C26.3805315,20.6424615 31.9644942,19.7413893 31.9600186,16.5018555 L31.9592727,15.8320186 Z M35.7530256,12.6998974 L35.7657063,22.1939767 L32.3031422,22.1984522 L32.1897622,20.7461445 C31.1857529,22.0880559 29.3992727,22.5371002 27.6120466,22.539338 C25.0438415,22.5430676 22.4726527,21.2063776 22.4681772,18.19062 C22.3503217,13.3876364 27.8231422,13.0452587 31.2857063,13.0407832 L31.9555431,13.0392914 L31.9555431,12.8162611 C31.9533054,11.2528112 30.9470583,10.36069 28.9360559,10.3629277 C27.4844942,10.3651655 26.1448205,10.925352 25.0289231,11.9315991 L22.7919068,9.58940793 C24.7999254,7.91108625 26.9220699,7.35015385 29.2679907,7.34717016 C33.73531,7.3412028 35.7485501,9.46036364 35.7530256,12.6998974 Z" id="Fill-17"></path>
                </g>
                <path d="M70.974359,157.49387 C72.8687079,157.49387 74.7377523,156.992322 76.3787581,156.04331 L134.035962,122.71071 C137.368035,120.784929 139.442588,117.186683 139.442588,113.332446 L139.442588,46.6675538 C139.442588,42.8128792 137.36829,39.2150748 134.035695,37.2883756 L76.3790537,3.95610035 C74.7378572,3.00759532 72.86853,2.50612993 70.974359,2.50612993 C69.0806469,2.50612993 67.2106005,3.00774573 65.5699599,3.95592946 L7.91305748,37.2883559 C4.58042822,39.2150748 2.50612993,42.8128792 2.50612993,46.6675538 L2.50612993,113.332446 C2.50612993,117.186683 4.58068306,120.784929 7.91302343,122.710864 L65.5702757,156.043493 C67.2107056,156.992172 69.080469,157.49387 70.974359,157.49387 Z" id="Fill-7" stroke="#FFFFFF" stroke-width="5.01225985"></path>
            </g>
        </g>
    </g>
</svg>