<?xml version="1.0" encoding="utf-8"?>
<!-- Generator: Adobe Illustrator 23.0.6, SVG Export Plug-In . SVG Version: 6.00 Build 0)  -->
<svg version="1.1" id="Layer_1" xmlns="http://www.w3.org/2000/svg" xmlns:xlink="http://www.w3.org/1999/xlink" x="0px" y="0px"
	 viewBox="0 0 304.3 125" style="enable-background:new 0 0 304.3 125;" xml:space="preserve">
<style type="text/css">
	.st0{fill:#FFFFFF;}
	.st1{fill:#FF6F00;}
	.st2{opacity:0.2;fill:url(#SVGID_1_);enable-background:new    ;}
	.st3{fill:#0065A4;}
</style>
<title>Group 7</title>
<desc>Created with Sketch.</desc>
<polygon id="Fill-1" class="st0" points="-11.6,0 -11.6,125 268.3,125 304.3,0 62.3,0 "/>
<polygon id="Fill-2" class="st1" points="268.2,125 -11.7,125 -11.7,69 284.6,69 "/>
<linearGradient id="SVGID_1_" gradientUnits="userSpaceOnUse" x1="-11.6" y1="-890.6102" x2="48.9" y2="-890.6102" gradientTransform="matrix(1 0 0 -1 0 -828.1102)">
	<stop  offset="0" style="stop-color:#000000"/>
	<stop  offset="1" style="stop-color:#000000;stop-opacity:0"/>
</linearGradient>
<rect x="-11.6" class="st2" width="60.5" height="125"/>
<g>
	<path id="Fill-16" class="st3" d="M189.7,49.8v-1.1h0.7c0.4,0,0.7,0.1,0.7,0.5c0,0.5-0.4,0.6-0.8,0.6H189.7z M189.7,50.2h0.6
		l0.9,1.5h0.6l-1-1.5c0.5-0.1,0.9-0.3,0.9-1s-0.4-1-1.2-1h-1.3v3.5h0.5V50.2z M190.3,53c1.6,0,3-1.3,3-3s-1.4-3-3-3s-3,1.3-3,3
		S188.7,53,190.3,53z M187.9,50c0-1.4,1.1-2.5,2.4-2.5c1.3,0,2.4,1.1,2.4,2.5s-1.1,2.5-2.4,2.5S187.9,51.4,187.9,50z"/>
	<path id="Fill-11" class="st3" d="M191.3,27.7l-0.5,5.2h-2.1c-3.5,0-5.2,2.8-5.2,5.3v11.9h-6.1V27.7h5.8l0.2,2.8
		c1.2-1.9,3.3-2.8,5.9-2.8H191.3z"/>
	<path id="Fill-12" class="st3" d="M148.9,50.2h-6.1V38.3c0-2.4-0.2-5.5-3.8-5.5c-3.3,0-4.7,2.4-4.7,5.2v12.2h-6.1V27.8h5.8v2.9
		c1.2-1.9,3.5-3.5,6.8-3.5c6.3,0,8.2,4.3,8.2,8.8L148.9,50.2z"/>
	<path id="Fill-13" class="st3" d="M125.6,44.9l-0.3,5.2c-1.6,0.3-2.8,0.5-4.4,0.5c-5.8,0-7.5-2.6-7.5-7.7V21.7h6.1v6.2h6.1
		l-0.3,5.2h-5.8v9.3c0,2.1,0.5,3.3,2.8,3.3C123.1,45.6,124.2,45.4,125.6,44.9"/>
	<path id="Fill-14" class="st3" d="M111.4,27.8l-0.5,5.2h-1.7c-3.3,0-5.1,2.8-5.1,5.3v11.9H98V27.8h5.8l0.2,2.8
		c1.2-1.9,3.3-2.8,5.9-2.8H111.4z"/>
	<path id="Fill-15" class="st3" d="M70.5,47.7c-4.2,2.2-8.4,3.5-13.8,3.5c-10.1-0.3-17.4-6.5-17.5-17c0-10.5,7.3-17.2,17.4-17.4
		c5.1,0,9.6,1.2,13.3,4.3l-4.4,4.3c-2.3-1.7-5.4-2.9-9.2-2.7C49.8,22.9,46,27.4,46,33.8c-0.2,6.7,4,11.4,10.7,11.5
		c3.1,0.2,5.4-0.4,7.3-1.2v-6.9h-7l0.5-5.7h12.9L70.5,47.7z"/>
	<path id="Fill-16_1_" class="st3" d="M168.4,36.4c-0.2-2.8-2.3-4.7-5.2-4.5c-3,0.2-5.1,2.1-5.4,4.5H168.4z M174.5,41h-16.7
		c0.5,2.9,2.8,4.6,5.6,4.6c2.8,0.2,4.4-0.7,6.3-2.8l4,3.1c-2.8,3.5-6.3,4.7-10.1,4.7c-6.8,0-11.9-4.6-11.9-11.7s5-11.7,11.7-11.7
		c7.2,0,11.2,4.3,11.2,12L174.5,41z"/>
	<path id="Fill-17" class="st3" d="M88.2,40.4h-0.9c-2.8,0-8,0.2-7.8,3.1c0,4.3,8.7,2.9,8.7-2.1L88.2,40.4z M94.2,35.6v14.6h-5.4
		L88.6,48c-1.6,2.1-4.4,2.8-7.1,2.8c-4,0-8-2.1-8-6.7c-0.2-7.4,8.4-7.9,13.8-7.9h1v-0.3c0-2.4-1.6-3.8-4.7-3.8
		c-2.3,0-4.4,0.9-6.1,2.4L74,30.9c3.1-2.6,6.4-3.5,10.1-3.5C91,27.3,94.1,30.6,94.2,35.6z"/>
</g>
<g>
	<path class="st0" d="M47.4,92.2h-1.7c-0.1-0.2-0.1-0.8-0.1-1.1c-0.4,0.9-1.2,1.3-2.1,1.3c-2.1,0-2.7-1.5-2.7-3.9V82
		c0-2.3,0.9-4,3.3-4c2.9,0,3.3,2.2,3.3,3.7v0.5h-2.2v-0.6c0-0.7-0.1-1.6-1.1-1.6c-0.8,0-1.1,0.5-1.1,1.7v7.2c0,1.1,0.3,1.7,1.1,1.7
		c0.9,0,1.2-0.8,1.2-2.2v-2H44v-1.9h3.4V92.2z"/>
	<path class="st0" d="M49.3,78.2h2.2v12.1H55l-0.2,1.9h-5.5V78.2z"/>
	<path class="st0" d="M62.6,81.9v6.5c0,2.7-1.1,4-3.5,4c-2.3,0-3.3-1.3-3.3-3.9v-6.6c0-2.7,1.4-3.9,3.4-3.9
		C61.4,78,62.6,79.2,62.6,81.9z M58,81.7v7.1c0,1.2,0.4,1.7,1.2,1.7s1.2-0.5,1.2-1.7v-7c0-1.1-0.3-1.7-1.2-1.7
		C58.4,80,58,80.5,58,81.7z"/>
	<path class="st0" d="M64.3,78.2h2.9c2.4,0,3.4,1.1,3.4,3.2v0.5c0,2-0.7,2.6-1.3,2.8c0.6,0.2,1.6,0.8,1.6,2.8v1.1
		c0,2.4-1,3.6-3.4,3.6h-3.1L64.3,78.2L64.3,78.2z M67,83.9c1.2,0,1.6-0.4,1.6-1.8v-0.5c0-1.2-0.4-1.6-1.4-1.6h-0.7v3.9H67z
		 M66.4,90.5h0.7c1.2,0,1.6-0.6,1.6-1.9v-0.9c0-1.4-0.3-2-1.7-2h-0.6V90.5z"/>
	<path class="st0" d="M74.4,88.5L74,92.2h-2.2l2.3-14h3.1l2.3,14h-2.3l-0.6-3.8h-2.2V88.5z M76.3,86.5c-0.3-2.4-0.6-4.6-0.8-6.2
		h-0.1c-0.1,1.2-0.5,4.2-0.8,6.2H76.3z"/>
	<path class="st0" d="M80.6,78.2h2.2v12.1h3.5l-0.2,1.9h-5.5V78.2z"/>
	<path class="st0" d="M91.5,80.2h-2.3v-2h6.7v2h-2.3v12h-2.2v-12H91.5z"/>
	<path class="st0" d="M103.5,81.9v6.5c0,2.7-1.1,4-3.5,4c-2.3,0-3.3-1.3-3.3-3.9v-6.6c0-2.7,1.4-3.9,3.4-3.9
		C102.2,78,103.5,79.2,103.5,81.9z M98.9,81.7v7.1c0,1.2,0.4,1.7,1.2,1.7c0.8,0,1.2-0.5,1.2-1.7v-7c0-1.1-0.3-1.7-1.2-1.7
		C99.3,80,98.9,80.5,98.9,81.7z"/>
	<path class="st0" d="M105.2,78.2h3.1c2.2,0,3.4,1.1,3.4,3.6v0.8c0,2.3-0.8,3.9-3.5,3.9h-0.8v5.8h-2.2V78.2z M107.4,84.7h0.6
		c1.3,0,1.6-0.8,1.6-2.2v-0.7c0-1-0.2-1.9-1.4-1.9h-0.8C107.4,79.9,107.4,84.7,107.4,84.7z"/>
	<path class="st0" d="M115.4,92.2V92c0-2.8,0.9-4.1,2.5-6.4c1.2-1.8,1.5-2.4,1.5-3.9c0-1.2-0.1-1.9-0.9-1.9c-0.7,0-1,0.5-1,1.5V82
		h-2.1v-0.8c0-1.6,0.5-3.3,3.1-3.3c2.4,0,3.1,1.6,3.1,3.6c0,2.3-0.6,3-1.8,4.9c-1,1.4-1.8,2.6-1.9,3.8h4.1l-0.3,1.9h-6.3V92.2z"/>
	<path class="st0" d="M129.5,81.7v6.8c0,2.1-0.6,3.9-3.4,3.9c-2.5,0-3.2-1.8-3.2-3.8v-6.8c0-2.1,1-3.7,3.3-3.7
		C128.7,78,129.5,79.8,129.5,81.7z M125.1,81.5v7.3c0,0.9,0.3,1.6,1.1,1.6c0.8,0,1.1-0.6,1.1-1.6v-7.3c0-1-0.3-1.5-1.1-1.5
		S125.1,80.6,125.1,81.5z"/>
	<path class="st0" d="M134.1,78.2h2.9c2.4,0,3.4,1.1,3.4,3.2v0.5c0,2-0.7,2.6-1.3,2.8c0.6,0.2,1.6,0.8,1.6,2.8v1.1
		c0,2.4-1,3.6-3.4,3.6h-3.1L134.1,78.2L134.1,78.2z M136.8,83.9c1.2,0,1.6-0.4,1.6-1.8v-0.5c0-1.2-0.4-1.6-1.4-1.6h-0.7v3.9H136.8z
		 M136.2,90.5h0.7c1.2,0,1.6-0.6,1.6-1.9v-0.9c0-1.4-0.3-2-1.7-2h-0.6V90.5z"/>
	<path class="st0" d="M142.2,78.2h2.2v12.1h3.5l-0.2,1.9h-5.5V78.2z"/>
	<path class="st0" d="M155.5,81.9v6.5c0,2.7-1.1,4-3.5,4c-2.3,0-3.3-1.3-3.3-3.9v-6.6c0-2.7,1.4-3.9,3.4-3.9
		C154.2,78,155.5,79.2,155.5,81.9z M150.8,81.7v7.1c0,1.2,0.4,1.7,1.2,1.7s1.2-0.5,1.2-1.7v-7c0-1.1-0.3-1.7-1.2-1.7
		C151.3,80,150.8,80.5,150.8,81.7z"/>
	<path class="st0" d="M163.4,88v0.5c0,1.6-0.3,3.9-3.2,3.9c-2.6,0-3.1-1.6-3.1-3.8v-7.1c0-2.2,1-3.6,3.2-3.6c2.6,0,3.1,1.7,3.1,3.7
		v0.6h-2.2v-0.9c0-0.9-0.2-1.5-1-1.5c-0.7,0-1,0.5-1,1.5v7.4c0,0.9,0.2,1.6,1,1.6s1-0.6,1-1.7V88H163.4z"/>
	<path class="st0" d="M164.7,78.2h2.1v6.3l0,0c0.5-1.4,1.7-4.4,2.5-6.3h2.4l-2.6,5.4l2.7,8.6h-2.4l-1.8-6.3l-0.9,1.9v4.4h-2.1v-14
		H164.7z"/>
	<path class="st0" d="M178.9,88v0.5c0,1.6-0.3,3.9-3.2,3.9c-2.6,0-3.1-1.6-3.1-3.8v-7.1c0-2.2,1-3.6,3.2-3.6c2.6,0,3.1,1.7,3.1,3.7
		v0.6h-2.2v-0.9c0-0.9-0.2-1.5-1-1.5c-0.7,0-1,0.5-1,1.5v7.4c0,0.9,0.2,1.6,1,1.6s1-0.6,1-1.7V88H178.9z"/>
	<path class="st0" d="M180.3,78.2h2.2v5.5h2.3v-5.5h2.2v14h-2.2v-6.5h-2.3v6.5h-2.2V78.2z"/>
	<path class="st0" d="M190.8,88.5l-0.5,3.8h-2.2l2.3-14h3.1l2.3,14h-2.3l-0.6-3.8H190.8z M192.7,86.5c-0.3-2.4-0.6-4.6-0.8-6.2h-0.1
		c-0.1,1.2-0.5,4.2-0.8,6.2H192.7z"/>
	<path class="st0" d="M199.1,78.2v14H197v-14H199.1z"/>
	<path class="st0" d="M201.2,92.2v-14h2.5c0.6,2,2.2,8.9,2.4,9.6l0,0c-0.1-1.7-0.1-3.7-0.1-6v-3.6h2v14h-2.4
		c-0.4-1.7-2.3-9.4-2.4-10l0,0c0.1,1.7,0.1,3.6,0.1,6.1v3.8L201.2,92.2L201.2,92.2z"/>
	<path class="st0" d="M47.2,110v0.5c0,1.6-0.3,3.9-3.2,3.9c-2.6,0-3.1-1.6-3.1-3.8v-7.1c0-2.2,1-3.6,3.2-3.6c2.6,0,3.1,1.7,3.1,3.7
		v0.6H45v-0.9c0-0.9-0.2-1.5-1-1.5c-0.7,0-1,0.5-1,1.5v7.4c0,0.9,0.2,1.6,1,1.6s1-0.6,1-1.7V110H47.2z"/>
	<path class="st0" d="M55.3,103.9v6.5c0,2.7-1.1,4-3.5,4c-2.3,0-3.3-1.3-3.3-3.9v-6.6c0-2.7,1.4-3.9,3.4-3.9
		C54.1,100,55.3,101.2,55.3,103.9z M50.7,103.7v7.1c0,1.2,0.4,1.7,1.2,1.7s1.2-0.5,1.2-1.7v-7c0-1.1-0.3-1.7-1.2-1.7
		C51.1,102,50.7,102.5,50.7,103.7z"/>
	<path class="st0" d="M57.1,114.2v-14h2.5c0.6,2,2.2,8.9,2.4,9.6l0,0c-0.1-1.7-0.1-3.7-0.1-6v-3.6h2v14h-2.4
		c-0.4-1.7-2.3-9.4-2.4-10l0,0c0.1,1.7,0.1,3.6,0.1,6.1v3.8L57.1,114.2L57.1,114.2z"/>
	<path class="st0" d="M67.4,110.1v0.9c0,1,0.3,1.6,1.1,1.6c0.8,0,1.1-0.8,1.1-1.7c0-1.5-0.3-2-1.8-3.2s-2.3-2-2.3-4
		c0-1.8,0.6-3.7,3.1-3.7c2.6,0,3,1.8,3,3.4v0.7h-2.1v-0.7c0-1-0.2-1.6-0.9-1.6c-0.7,0-0.9,0.6-0.9,1.5c0,1,0.2,1.5,1.4,2.4
		c2.1,1.6,2.7,2.5,2.7,4.8c0,2-0.7,3.9-3.3,3.9c-2.6,0-3.2-1.7-3.2-3.5v-0.8L67.4,110.1L67.4,110.1z"/>
	<path class="st0" d="M75.4,100.2v10.7c0,1,0.3,1.6,1.2,1.6c0.9,0,1.1-0.7,1.1-1.6v-10.7h2.2v10.6c0,2.2-1,3.6-3.3,3.6
		c-2.2,0-3.3-1.2-3.3-3.6v-10.6H75.4z"/>
	<path class="st0" d="M81.8,100.2H84v12.1h3.5l-0.2,1.9h-5.5V100.2z"/>
	<path class="st0" d="M88.8,102.2h-2.3v-2h6.7v2h-2.3v12h-2.2v-12H88.8z"/>
	<path class="st0" d="M96.4,100.2v14h-2.2v-14H96.4z"/>
	<path class="st0" d="M98.5,114.2v-14h2.5c0.6,2,2.2,8.9,2.4,9.6l0,0c-0.1-1.7-0.1-3.7-0.1-6v-3.6h2v14h-2.4
		c-0.4-1.7-2.3-9.4-2.4-10l0,0c0.1,1.7,0.1,3.6,0.1,6.1v3.8L98.5,114.2L98.5,114.2z"/>
	<path class="st0" d="M113.6,114.2h-1.7c-0.1-0.2-0.1-0.8-0.1-1.1c-0.4,0.9-1.2,1.3-2.1,1.3c-2.1,0-2.7-1.5-2.7-3.9V104
		c0-2.3,0.9-4,3.3-4c2.9,0,3.3,2.2,3.3,3.7v0.5h-2.2v-0.6c0-0.7-0.1-1.6-1.1-1.6c-0.8,0-1.1,0.5-1.1,1.7v7.2c0,1.1,0.3,1.7,1.1,1.7
		c0.9,0,1.2-0.8,1.2-2.2v-2h-1.2v-1.9h3.4v7.7H113.6z"/>
	<path class="st0" d="M118.4,100.2h5.5v2h-3.3v3.7h3.1v2h-3.1v6.3h-2.2V100.2z"/>
	<path class="st0" d="M127.4,100.2v14h-2.2v-14H127.4z"/>
	<path class="st0" d="M131.6,108v6.3h-2.2v-14h3c2.1,0,3.4,0.9,3.4,3.4v0.5c0,2.2-0.9,2.7-1.4,2.9c0.8,0.4,1.3,1,1.3,2.9
		c0,1.2,0,3.5,0.1,4.3h-2.1c-0.2-0.8-0.1-3.2-0.1-4.2c0-1.7-0.2-2.1-1.5-2.1L131.6,108L131.6,108z M131.6,106.2h0.5
		c1.1,0,1.6-0.4,1.6-2v-0.5c0-1.1-0.2-1.7-1.5-1.7h-0.6V106.2z"/>
	<path class="st0" d="M144.6,109c0-2.4,0-5.4,0.1-7l0,0c-0.3,2.4-1.1,8.1-1.7,12.2h-2c-0.5-3.6-1.2-9.6-1.6-12.2l0,0
		c0,1.6,0.1,4.8,0.1,7.2v5h-2v-14h3.2c0.5,3.6,1.1,7.6,1.3,9.5l0,0c0.2-2,1-6.2,1.5-9.5h3.1v14h-2.1L144.6,109L144.6,109z"/>
	<path class="st0" d="M151,114.2V114c0-2.8,0.9-4.1,2.5-6.4c1.2-1.8,1.5-2.4,1.5-3.9c0-1.2-0.1-1.9-0.9-1.9c-0.7,0-1,0.5-1,1.5v0.7
		H151v-0.8c0-1.6,0.5-3.3,3.1-3.3c2.4,0,3.1,1.6,3.1,3.6c0,2.3-0.6,3-1.8,4.9c-1,1.4-1.8,2.6-1.9,3.8h4.1l-0.3,1.9H151V114.2z"/>
	<path class="st0" d="M165.1,103.7v6.8c0,2.1-0.6,3.9-3.4,3.9c-2.5,0-3.2-1.8-3.2-3.8v-6.8c0-2.1,1-3.7,3.3-3.7
		C164.2,100,165.1,101.8,165.1,103.7z M160.7,103.5v7.3c0,0.9,0.3,1.6,1.1,1.6s1.1-0.6,1.1-1.6v-7.3c0-1-0.3-1.5-1.1-1.5
		S160.7,102.6,160.7,103.5z"/>
	<path class="st0" d="M167.4,114.2v-11.5c-0.3,0.1-1,0.1-1.4,0v-1.6c0.9-0.1,1.5-0.5,1.9-1h1.6v14.1H167.4z"/>
	<path class="st0" d="M177.3,100.2v1.7c-1.8,3.5-2.9,7.6-3.4,12.3h-2.3c0.4-4.5,1.9-9.2,3.4-12h-3.9v-2H177.3z"/>
	<path class="st0" d="M175.8,116.2c0.7-1.9,1.1-3.9,1.1-5.1h2c0,1.9-0.7,3.9-1.4,5.1H175.8z"/>
	<path class="st0" d="M182.7,114.2V114c0-2.8,0.9-4.1,2.5-6.4c1.2-1.8,1.5-2.4,1.5-3.9c0-1.2-0.1-1.9-0.9-1.9c-0.7,0-1,0.5-1,1.5
		v0.7h-2.1v-0.8c0-1.6,0.5-3.3,3.1-3.3c2.4,0,3.1,1.6,3.1,3.6c0,2.3-0.6,3-1.8,4.9c-1,1.4-1.8,2.6-1.9,3.8h4.1l-0.3,1.9h-6.3V114.2z
		"/>
	<path class="st0" d="M196.8,103.7v6.8c0,2.1-0.6,3.9-3.4,3.9c-2.5,0-3.2-1.8-3.2-3.8v-6.8c0-2.1,1-3.7,3.3-3.7
		C196,100,196.8,101.8,196.8,103.7z M192.4,103.5v7.3c0,0.9,0.3,1.6,1.1,1.6s1.1-0.6,1.1-1.6v-7.3c0-1-0.3-1.5-1.1-1.5
		S192.4,102.6,192.4,103.5z"/>
	<path class="st0" d="M199.1,114.2v-11.5c-0.3,0.1-1,0.1-1.4,0v-1.6c0.9-0.1,1.5-0.5,1.9-1h1.6v14.1H199.1z"/>
	<path class="st0" d="M203.1,110.8v-1.1c0-1.9,0.8-2.5,1.3-2.9c-0.7-0.5-1.1-1.1-1.1-2.8v-0.6c0-2.3,1.3-3.3,3.2-3.3
		c1.7,0,3.1,0.9,3.1,3.4v0.6c0,1.9-0.5,2.4-1.1,2.8c0.7,0.4,1.3,1.1,1.3,2.9v1c0,2.7-1.3,3.6-3.4,3.6
		C204.7,114.4,203.1,113.6,203.1,110.8z M207.6,110.9v-1.7c0-1.1-0.4-1.5-1.2-1.5c-0.7,0-1.1,0.4-1.1,1.5v1.7c0,0.9,0.3,1.6,1.1,1.6
		C207.2,112.5,207.6,112,207.6,110.9z M205.4,103.4v1.1c0,0.9,0.4,1.4,1.1,1.4c0.7,0,1-0.4,1-1.4v-1.1c0-0.8-0.2-1.4-1-1.4
		C205.6,101.9,205.4,102.5,205.4,103.4z"/>
	<path class="st0" d="M222.9,105.8l-2.2,5.2c-1,2.3-2,3.4-3.7,3.4c-2.1,0-3-1.5-3-3.9c0-2.3,0.9-3,2.7-4.5c1.3-1,1.7-1.5,1.7-2.9
		c0-0.8-0.1-1.4-0.8-1.4c-0.6,0-0.8,0.6-0.8,1.4c0,1.1,0.1,1.6,0.7,2.5l5.4,8.6h-2.4l-4.5-7c-0.9-1.4-1.1-2.1-1.1-3.8
		c0-2.2,1-3.3,2.8-3.3s2.7,1.1,2.7,3.2c0,1.9-0.6,2.6-2.6,4.2c-1.4,1-1.7,1.5-1.7,3c0,1.3,0.4,1.9,1.2,1.9c0.9,0,1.1-0.6,1.7-1.8
		l2-4.6h1.9V105.8z"/>
	<path class="st0" d="M226.5,114.2V114c0-2.8,0.9-4.1,2.5-6.4c1.2-1.8,1.5-2.4,1.5-3.9c0-1.2-0.1-1.9-0.9-1.9c-0.7,0-1,0.5-1,1.5
		v0.7h-2.1v-0.8c0-1.6,0.5-3.3,3.1-3.3c2.4,0,3.1,1.6,3.1,3.6c0,2.3-0.6,3-1.8,4.9c-1,1.4-1.8,2.6-1.9,3.8h4.1l-0.3,1.9h-6.3V114.2z
		"/>
	<path class="st0" d="M240.5,103.7v6.8c0,2.1-0.6,3.9-3.4,3.9c-2.5,0-3.2-1.8-3.2-3.8v-6.8c0-2.1,1-3.7,3.3-3.7
		C239.7,100,240.5,101.8,240.5,103.7z M236.1,103.5v7.3c0,0.9,0.3,1.6,1.1,1.6s1.1-0.6,1.1-1.6v-7.3c0-1-0.3-1.5-1.1-1.5
		C236.4,102,236.1,102.6,236.1,103.5z"/>
	<path class="st0" d="M242.9,114.2v-11.5c-0.3,0.1-1,0.1-1.4,0v-1.6c0.9-0.1,1.5-0.5,1.9-1h1.6v14.1H242.9z"/>
	<path class="st0" d="M249,111.1v0.2c0,0.8,0.3,1.4,1,1.4c0.9,0,1.1-0.7,1.1-2.7v-1.9c-0.3,0.5-0.9,0.9-1.8,0.9
		c-1.7,0-2.5-1.2-2.5-3.2v-2c0-2.1,1-3.5,3.2-3.5c2.3,0,3.3,1.3,3.3,3.6v5.9c0,2.7-0.3,4.9-3.3,4.9c-2.6,0-3.1-1.7-3.1-3.4v0.1h2.1
		V111.1z M248.9,103.3v2c0,0.9,0.2,1.6,1,1.6c0.9,0,1.1-0.7,1.1-1.7v-1.9c0-0.9-0.3-1.4-1.1-1.4
		C249.1,101.8,248.9,102.4,248.9,103.3z"/>
</g>
</svg>
