<?xml version="1.0" encoding="UTF-8"?>
<svg width="240px" height="263px" viewBox="0 0 240 263" version="1.1" xmlns="http://www.w3.org/2000/svg" xmlns:xlink="http://www.w3.org/1999/xlink">
    <!-- Generator: Sketch 51.2 (57519) - http://www.bohemiancoding.com/sketch -->
    <title>Gartner</title>
    <desc>Created with Sketch.</desc>
    <defs></defs>
    <g id="Desktop" stroke="none" stroke-width="1" fill="none" fill-rule="evenodd">
        <g id="1-Home" transform="translate(-560.000000, -3635.000000)">
            <g id="Gartner" transform="translate(560.000000, 3635.000000)">
                <path d="M120,261.686747 C128.455746,261.686747 136.796158,259.451047 144.119553,255.221482 L215.399191,214.049621 C230.27573,205.456407 239.518072,189.441172 239.518072,172.255781 L239.518072,89.9128936 C239.518072,72.727615 230.275826,56.7123146 215.399203,48.1182174 L144.119554,6.94719354 C136.79726,2.71778219 128.456056,0.481927711 120,0.481927711 C111.544151,0.481927711 103.203761,2.7176787 95.8812875,6.94719424 L24.6008087,48.1190537 C9.72426961,56.7122676 0.481927711,72.7275028 0.481927711,89.9128936 L0.481927711,172.255781 C0.481927711,189.440721 9.72460945,205.456607 24.6016382,214.050456 L95.8804612,255.220647 C103.203517,259.450851 111.543861,261.686747 120,261.686747 Z" id="Stroke-1" stroke="#64F0FF" stroke-width="0.963855422"></path>
                <path d="M120,242.409639 C125.069747,242.409639 130.071512,241.068875 134.460809,238.533141 L205.780848,197.337421 C214.699564,192.18632 220.240964,182.583467 220.240964,172.279626 L220.240964,89.8890488 C220.240964,79.5856185 214.699915,69.9833733 205.780834,64.8304027 L134.460781,23.6355173 C130.071512,21.0997995 125.069747,19.7590361 120,19.7590361 C114.930462,19.7590361 109.929511,21.0996953 105.540032,23.6355349 L34.2191809,64.8312374 C25.3001773,69.9833339 19.7590361,79.5855091 19.7590361,89.8890488 L19.7590361,172.279626 C19.7590361,182.583553 25.3005115,192.186369 34.220011,197.338273 L105.539185,238.533138 C109.929583,241.069029 114.930562,242.409639 120,242.409639 Z" id="Stroke-3" stroke="#64F0FF" stroke-width="0.963855422"></path>
                <path d="M120.201008,222.886659 C117.508346,222.886659 114.85161,222.175159 112.518204,220.827514 L45.9937788,182.419628 C41.2542388,179.684031 38.3109748,174.584359 38.3109748,169.113165 L38.3109748,92.2973932 C38.3109748,86.8253231 41.2542388,81.7265279 45.9937788,78.9900548 L112.518204,40.5821687 C114.85161,39.2353998 117.508346,38.5238992 120.201008,38.5238992 C122.894545,38.5238992 125.550405,39.2353998 127.883812,40.5821687 L194.408237,78.9900548 C199.147777,81.7265279 202.091041,86.8253231 202.091041,92.2973932 L202.091041,169.113165 C202.091041,174.584359 199.147777,179.684031 194.408237,182.419628 L127.883812,220.827514 C125.550405,222.175159 122.894545,222.886659 120.201008,222.886659" id="Fill-7" fill="#007BFF"></path>
                <text id="Global-Top-20-Blockc" font-family="BebasNeue, Bebas Neue" font-size="14.8959474" font-weight="normal" fill="#FFFFFF">
                    <tspan x="57.1754655" y="94.0876232">Global Top 20 Blockchain </tspan>
                    <tspan x="80.4578313" y="111.087623">consulting firm</tspan>
                </text>
                <text id="2017" font-family="BebasNeue, Bebas Neue" font-size="27.1631982" font-weight="normal" fill="#FFFFFF">
                    <tspan x="98.5305586" y="195.215772">2017</tspan>
                </text>
                <polygon id="Fill-9" fill="#FFFFFF" points="38.3106243 170.384228 202.09069 170.384228 202.09069 119.73012 38.3106243 119.73012"></polygon>
                <g id="Logo" transform="translate(61.774370, 130.909091)" fill="#000076">
                    <path d="M115.073647,8.916977 L114.685476,12.8538883 L113.110887,12.856517 C110.487448,12.8600219 109.177481,14.9603505 109.179233,16.9292442 L109.192377,25.9824754 L104.600044,25.9877327 L104.577262,8.93099671 L108.907601,8.92573932 L109.040789,11.0243154 C109.957327,9.58028478 111.531041,8.92135816 113.499058,8.91872946 L115.073647,8.916977 Z" id="Fill-11"></path>
                    <path d="M83.2127054,26.0162979 L78.6212486,26.0224315 L78.6089814,16.9692004 C78.6063527,15.1326177 78.4722892,12.7702957 75.7165389,12.7746769 C73.2236583,12.7781818 72.1765608,14.6156407 72.1791895,16.7150931 L72.1914567,26.0311939 L67.5991238,26.0373275 L67.5763417,8.97971522 L71.9066813,8.97445783 L71.9101862,11.2044688 C72.8258488,9.76043812 74.5301205,8.57752464 77.0238773,8.57401972 C81.7467689,8.56788609 83.1943045,11.8458708 83.1986857,15.2570427 L83.2127054,26.0162979 Z" id="Fill-12"></path>
                    <path d="M65.625586,21.9723111 L65.3688499,25.9092223 C64.1876889,26.1729682 63.2702738,26.3052793 62.0891128,26.3070318 C57.7587733,26.3122892 56.4435487,24.3460241 56.4391676,20.409989 L56.4172618,4.27154436 L61.0095947,4.26541073 L61.0157284,8.98917853 L65.6080613,8.98304491 L65.3513253,12.91908 L61.0209858,12.9252136 L61.0306243,20.0104272 C61.033253,21.5850164 61.4275575,22.5024315 63.1335816,22.5006791 C63.7890033,22.4998028 64.576736,22.3674918 65.625586,21.9723111" id="Fill-13"></path>
                    <path d="M54.9806791,8.99653888 L54.5925082,12.9334502 L53.2807886,12.9352026 C50.7870318,12.9387076 49.4779409,15.0390361 49.4805696,17.0079299 L49.4919606,26.061161 L44.9005038,26.0672946 L44.8777218,9.0105586 L49.2071851,9.00442497 L49.3412486,11.1038773 C50.2577875,9.65897043 51.8315005,9.00092004 53.7995181,8.99829135 L54.9806791,8.99653888 Z" id="Fill-14"></path>
                    <path d="M24.1670975,24.1265279 C21.0196714,25.836057 17.8722453,26.7587295 13.8047755,26.7639869 C6.19382256,26.511632 0.677064622,21.7957503 0.667426068,13.7922453 C0.656035049,5.78874042 6.15964951,0.664534502 13.7706024,0.522584885 C17.5752026,0.518203724 20.9881271,1.43211391 23.746506,3.79005476 L20.4702738,7.07417306 C18.7633735,5.76420591 16.4001752,4.8494195 13.5138664,4.98435926 C8.65953998,5.25336254 5.77761227,8.66803943 5.78374589,13.5223658 C5.65932092,18.6404381 8.81288061,22.1786637 13.7986418,22.3030887 C16.1609639,22.4310186 17.8661117,22.0358379 19.3083899,21.3777875 L19.3013801,16.1291566 L14.0527492,16.1361665 L14.44092,11.8058269 L24.1504491,11.7926835 L24.1670975,24.1265279 Z" id="Fill-15"></path>
                    <path d="M97.8946769,15.5002848 C97.7606134,13.4008324 96.1842716,11.9594304 93.9533844,12.0943702 C91.7233735,12.2284337 90.1505367,13.6742169 89.8902957,15.5107996 L97.8946769,15.5002848 Z M102.491391,19.0367579 L89.8955531,19.0534064 C90.2916101,21.2834173 91.9985104,22.5933844 94.098839,22.5907558 C96.1974151,22.7186857 97.3776999,22.0615115 98.8199781,20.4851698 L101.84035,22.8422344 C99.7444031,25.4691785 97.1209639,26.391851 94.234655,26.395356 C89.1174589,26.4023658 85.3084775,22.8641402 85.3005915,17.4849507 C85.2935816,12.1057612 89.0938007,8.55789704 94.0795619,8.55176342 C99.4596276,8.54475356 102.480876,11.8201095 102.489639,17.7250383 L102.491391,19.0367579 Z" id="Fill-16"></path>
                    <path d="M37.5425192,18.5978532 L36.8870975,18.5987295 C34.7867689,18.6013582 30.8507338,18.7380504 30.9856736,20.9689376 C30.9891785,24.2486747 37.5486528,23.1901862 37.5433954,19.3847097 L37.5425192,18.5978532 Z M41.9990361,14.9185542 L42.0139321,26.0712377 L37.9464622,26.0764951 L37.8132749,24.370471 C36.6338664,25.9468127 34.5352903,26.4743045 32.4358379,26.4769332 C29.4189704,26.4813143 26.398598,24.9111062 26.3933406,21.3684995 C26.2548959,15.7264403 32.6838116,15.3242497 36.7512815,15.3189923 L37.538138,15.3172399 L37.538138,15.0552464 C37.5355093,13.2186637 36.3534721,12.17069 33.9911501,12.1733187 C32.2860022,12.1759474 30.7122892,12.8339978 29.4014458,14.016035 L26.7736254,11.2646659 C29.1324425,9.29314348 31.6253231,8.63421687 34.3810734,8.63071194 C39.628828,8.62370208 41.9937788,11.1130778 41.9990361,14.9185542 Z" id="Fill-17"></path>
                </g>
            </g>
        </g>
    </g>
</svg>