<?xml version="1.0" encoding="UTF-8"?>
<svg width="576px" height="403px" viewBox="0 0 576 403" version="1.1" xmlns="http://www.w3.org/2000/svg" xmlns:xlink="http://www.w3.org/1999/xlink">
    <!-- Generator: Sketch 51.2 (57519) - http://www.bohemiancoding.com/sketch -->
    <title>Header icon\</title>
    <desc>Created with Sketch.</desc>
    <defs>
        <linearGradient x1="86.0795973%" y1="39.1235975%" x2="27.9092888%" y2="79.3725401%" id="linearGradient-1">
            <stop stop-color="#64F0FF" stop-opacity="0.985450634" offset="0%"></stop>
            <stop stop-color="#64EFFF" stop-opacity="0" offset="100%"></stop>
        </linearGradient>
        <linearGradient x1="88.0451745%" y1="42.1498026%" x2="42.3955092%" y2="74.1124554%" id="linearGradient-2">
            <stop stop-color="#FFFFFF" offset="0%"></stop>
            <stop stop-color="#FFFFFF" stop-opacity="0" offset="100%"></stop>
        </linearGradient>
        <linearGradient x1="50%" y1="43.8044447%" x2="50%" y2="100%" id="linearGradient-3">
            <stop stop-color="#FF6F00" offset="0%"></stop>
            <stop stop-color="#FF6F00" stop-opacity="0" offset="100%"></stop>
        </linearGradient>
        <linearGradient x1="18.7213319%" y1="38.7773782%" x2="89.7515838%" y2="86.2104842%" id="linearGradient-4">
            <stop stop-color="#9DF9FF" offset="0%"></stop>
            <stop stop-color="#64F0FF" stop-opacity="0" offset="100%"></stop>
        </linearGradient>
        <linearGradient x1="70.3548912%" y1="78.3896108%" x2="13.2353131%" y2="36.2988116%" id="linearGradient-5">
            <stop stop-color="#FFFFFF" stop-opacity="0" offset="0%"></stop>
            <stop stop-color="#FFFFFF" offset="100%"></stop>
        </linearGradient>
        <linearGradient x1="21.9218821%" y1="51.6358833%" x2="93.3093552%" y2="100%" id="linearGradient-6">
            <stop stop-color="#FF6F00" offset="0%"></stop>
            <stop stop-color="#FF6F00" stop-opacity="0" offset="100%"></stop>
        </linearGradient>
        <polyline id="path-7" points="0.694 19.485 32.918 0.759 59.573 16.149 27.351 34.875"></polyline>
    </defs>
    <g id="Desktop" stroke="none" stroke-width="1" fill="none" fill-rule="evenodd">
        <g id="HOME-+-Dark-Gradient--Copy-5" transform="translate(-408.000000, -399.000000)">
            <g id="Header-icon\" transform="translate(354.000000, 402.000000)">
                <path d="M455.5461,220.1865 C461.5441,216.7725 461.5441,208.2525 455.5461,204.8535 L363.8411,152.7775 C355.5131,148.0455 345.1741,148.0455 336.8311,152.7775 L245.1261,204.8535 C239.1271,208.2525 239.1271,216.7725 245.1261,220.1865 L336.8311,272.2475 C345.1581,276.9795 355.4971,276.9795 363.8411,272.2475 L455.5461,220.1865 Z" id="Fill-1" fill="#080052" opacity="0.4"></path>
                <path d="M316.6232,198.663 L316.6232,208.921 C316.6232,241.497 299.0982,271.852 270.8872,288.141 C270.8872,288.141 72.0072,403.792 44.1772,419.86" id="Stroke-3" stroke="url(#linearGradient-1)" stroke-width="0.626" stroke-dasharray="8.759"></path>
                <path d="M284.1798,182.9211 L284.1798,211.8131 C284.1798,231.4631 273.6098,249.7721 256.5928,259.5971 C256.5928,259.5971 29.2678,391.2731 0.1568,408.0801" id="Stroke-5" stroke="url(#linearGradient-2)" stroke-width="0.626"></path>
                <path d="M254.3957,95.0141 L254.3957,205.4341 C254.3957,218.0411 247.6697,229.6901 236.7517,235.9941 C236.7517,235.9941 78.3547,327.8261 55.3757,341.0921" id="Stroke-7" stroke="url(#linearGradient-3)" stroke-width="2.287"></path>
                <path d="M378.3234,201.6689 L378.3234,208.9209 C378.3234,241.4969 395.8484,271.8519 424.0604,288.1409 C424.0604,288.1409 622.9404,403.7929 650.7704,419.8599" id="Stroke-9" stroke="url(#linearGradient-4)" stroke-width="0.626" stroke-dasharray="8.759"></path>
                <path d="M410.7668,182.9211 L410.7668,211.8131 C410.7668,231.4631 421.3378,249.7721 438.3548,259.5971 C438.3548,259.5971 665.6798,391.2731 694.7908,408.0801" id="Stroke-11" stroke="url(#linearGradient-5)" stroke-width="0.626"></path>
                <path d="M440.5519,165.7143 L440.5519,205.4333 C440.5519,218.0413 447.2779,229.6903 458.1959,235.9943 C458.1959,235.9943 616.5929,327.8263 639.5709,341.0923" id="Stroke-13" stroke="url(#linearGradient-6)" stroke-width="2.287"></path>
                <path d="M240.0197,60.9379 L240.0197,151.2169 C240.0197,151.2169 239.1577,157.0799 244.6757,160.5289 C250.1947,163.9779 331.9337,209.6759 331.9337,209.6759 C331.9337,209.6759 338.1417,213.2979 344.1777,214.5049 L344.1777,124.3979 C344.1777,124.3979 339.8667,124.2259 330.2087,118.7079 C320.5517,113.1889 245.8827,70.7679 245.8827,70.7679 C245.8827,70.7679 239.5017,68.0079 240.0197,60.9379" id="Fill-15" fill="#080052"></path>
                <path d="M450.0832,160.3481 C455.9442,157.0121 455.9442,148.6861 450.0832,145.3651 L360.4712,94.4771 C352.3332,89.8541 342.2302,89.8541 334.0772,94.4771 L244.4652,145.3651 C238.6042,148.6861 238.6042,157.0121 244.4652,160.3481 L334.0772,211.2211 C342.2152,215.8451 352.3172,215.8451 360.4712,211.2211 L450.0832,160.3481 Z" id="Stroke-17" stroke="#64EFFF" stroke-width="1.094"></path>
                <path d="M450.0832,70.0925 C455.9442,66.7565 455.9442,58.4305 450.0832,55.1105 L360.4712,4.2215 C352.3332,-0.4015 342.2302,-0.4015 334.0772,4.2215 L244.4652,55.1105 C238.6042,58.4305 238.6042,66.7565 244.4652,70.0925 L334.0772,120.9655 C342.2152,125.5895 352.3172,125.5895 360.4712,120.9655 L450.0832,70.0925 Z" id="Stroke-19" stroke="#FFFFFF" stroke-width="7.508"></path>
                <path d="M412.2277,68.1618 C415.8677,66.0898 415.8677,60.9208 412.2277,58.8588 L356.5827,27.2588 C351.5297,24.3888 345.2567,24.3888 340.1937,27.2588 L284.5487,58.8588 C280.9097,60.9208 280.9097,66.0898 284.5487,68.1618 L340.1937,99.7518 C345.2477,102.6228 351.5207,102.6228 356.5827,99.7518 L412.2277,68.1618 Z" id="Fill-23" fill="#080052"></path>
                <g id="Group-27" transform="translate(318.000000, 45.131000)">
                    <mask id="mask-8" fill="white">
                        <use xlink:href="#path-7"></use>
                    </mask>
                    <g id="Clip-26"></g>
                    <path d="M46.2492,8.4561 C45.5402,8.0471 44.4002,8.0501 43.7032,8.4561 L22.8032,20.6021 C22.0992,21.0111 22.1022,21.6671 22.8112,22.0771 C23.5132,22.4821 24.6522,22.4861 25.3562,22.0761 L46.2572,9.9301 C46.9552,9.5251 46.9512,8.8621 46.2492,8.4561 M13.8532,13.3181 C13.1442,12.9091 12.0042,12.9131 11.3072,13.3181 L1.9632,18.7481 C1.2592,19.1571 1.2632,19.8131 1.9722,20.2221 C2.6742,20.6281 3.8122,20.6321 4.5172,20.2231 L13.8602,14.7931 C14.5592,14.3871 14.5552,13.7241 13.8532,13.3181 M37.9612,27.2371 C37.2522,26.8281 36.1122,26.8321 35.4152,27.2371 L26.0712,32.6671 C25.3672,33.0761 25.3712,33.7321 26.0802,34.1421 C26.7822,34.5471 27.9152,34.5471 28.6192,34.1381 L37.9632,28.7081 C38.6602,28.3021 38.6632,27.6431 37.9612,27.2371 M23.1712,12.5551 C22.4692,12.1501 21.3292,12.1461 20.6322,12.5511 L5.9782,21.0671 C5.2742,21.4761 5.2852,22.1351 5.9872,22.5411 C6.6892,22.9461 7.8282,22.9501 8.5332,22.5411 L23.1862,14.0261 C23.8842,13.6201 23.8732,12.9601 23.1712,12.5551 M39.2412,21.8331 C38.5392,21.4281 37.4062,21.4281 36.7082,21.8331 L22.0562,30.3481 C21.3522,30.7581 21.3552,31.4141 22.0582,31.8191 C22.7672,32.2281 23.8982,32.2281 24.6032,31.8191 L39.2562,23.3041 C39.9532,22.8981 39.9502,22.2421 39.2412,21.8331 M36.2262,9.6211 C35.5232,9.2151 34.3782,9.2151 33.6802,9.6211 L14.7142,20.6431 C14.0172,21.0481 14.0202,21.7121 14.7232,22.1171 C15.4322,22.5261 16.5702,22.5231 17.2692,22.1171 L36.2342,11.0951 C36.9322,10.6901 36.9352,10.0301 36.2262,9.6211 M44.2642,14.2621 C43.5612,13.8561 42.4162,13.8561 41.7192,14.2621 L22.7532,25.2831 C22.0552,25.6891 22.0592,26.3521 22.7612,26.7581 C23.4632,27.1641 24.6082,27.1641 25.3072,26.7581 L44.2722,15.7361 C44.9702,15.3311 44.9672,14.6671 44.2642,14.2621" id="Fill-25" fill="#007BFF" mask="url(#mask-8)"></path>
                </g>
            </g>
        </g>
    </g>
</svg>