<?xml version="1.0" encoding="UTF-8"?>
<svg width="587px" height="351px" viewBox="0 0 587 351" version="1.1" xmlns="http://www.w3.org/2000/svg" xmlns:xlink="http://www.w3.org/1999/xlink">
    <!-- Generator: Sketch 51.2 (57519) - http://www.bohemiancoding.com/sketch -->
    <title>Header icon</title>
    <desc>Created with Sketch.</desc>
    <defs>
        <linearGradient x1="57.1772906%" y1="57.4893034%" x2="93.8196082%" y2="30.7062584%" id="linearGradient-1">
            <stop stop-color="#FFFFFF" stop-opacity="0" offset="0%"></stop>
            <stop stop-color="#64EFFF" offset="100%"></stop>
        </linearGradient>
        <linearGradient x1="94.6309761%" y1="30.7733507%" x2="52.6605328%" y2="63.0677195%" id="linearGradient-2">
            <stop stop-color="#FFFFFF" offset="0%"></stop>
            <stop stop-color="#FFFFFF" stop-opacity="0" offset="100%"></stop>
        </linearGradient>
        <linearGradient x1="50%" y1="43.8044447%" x2="50%" y2="100%" id="linearGradient-3">
            <stop stop-color="#FF6F00" offset="0%"></stop>
            <stop stop-color="#FF6F00" stop-opacity="0" offset="100%"></stop>
        </linearGradient>
        <linearGradient x1="50%" y1="64.2175868%" x2="13.0775492%" y2="32.9999332%" id="linearGradient-4">
            <stop stop-color="#FFFFFF" stop-opacity="0" offset="0%"></stop>
            <stop stop-color="#64EFFF" offset="100%"></stop>
        </linearGradient>
        <linearGradient x1="18.9413367%" y1="40.1493987%" x2="52.6605328%" y2="63.0677195%" id="linearGradient-5">
            <stop stop-color="#FFFFFF" offset="0%"></stop>
            <stop stop-color="#FFFFFF" stop-opacity="0" offset="100%"></stop>
        </linearGradient>
        <linearGradient x1="21.9218821%" y1="51.6358833%" x2="93.3093552%" y2="100%" id="linearGradient-6">
            <stop stop-color="#FF6F00" offset="0%"></stop>
            <stop stop-color="#FF6F00" stop-opacity="0" offset="100%"></stop>
        </linearGradient>
        <polyline id="path-7" points="0.27907438 19.2807018 32.8875868 0.176395534 59.8680992 15.8811802 27.2606942 34.9854864"></polyline>
    </defs>
    <g id="Desktop" stroke="none" stroke-width="1" fill="none" fill-rule="evenodd">
        <g id="HOME-+-Dark-Gradient--Copy" transform="translate(-421.000000, -413.000000)">
            <g id="Header-icon" transform="translate(365.000000, 417.000000)">
                <path d="M464.407153,223.32119 C470.530949,219.841636 470.530949,211.157249 464.407153,207.694424 L370.78636,154.616729 C362.285432,149.794424 351.731324,149.794424 343.21364,154.616729 L249.592847,207.694424 C243.469051,211.157249 243.469051,219.841636 249.592847,223.32119 L343.21364,276.383271 C351.714568,281.205576 362.268676,281.205576 370.78636,276.383271 L464.407153,223.32119 Z" id="Fill-1" fill="#000076"></path>
                <path d="M323,196 L323,211.630739 C323,244.890887 305.116633,275.88312 276.331523,292.514869 C276.331523,292.514869 73.3965589,410.595042 45,427" id="Stroke-3" stroke="url(#linearGradient-1)" stroke-width="0.572"></path>
                <path d="M289,185 L289,214.513002 C289,234.58551 278.243513,253.288777 260.929144,263.323913 C260.929144,263.323913 29.6195857,397.832518 0,415" id="Stroke-5" stroke="url(#linearGradient-2)" stroke-width="0.572" stroke-dasharray="8.005000000000001"></path>
                <path d="M260,96 L260,208.628506 C260,221.487165 253.13932,233.370347 242.002853,239.799119 C242.002853,239.799119 80.4370282,333.468329 57,347" id="Stroke-7" stroke="url(#linearGradient-3)" stroke-width="2.287"></path>
                <path d="M386,204 L386,211.411228 C386,244.705275 403.883367,275.730215 432.668477,292.377798 C432.668477,292.377798 635.603441,410.578321 664,427" id="Stroke-9" stroke="url(#linearGradient-4)" stroke-width="0.572"></path>
                <path d="M420,185 L420,214.513002 C420,234.58551 430.756487,253.288777 448.070856,263.323913 C448.070856,263.323913 679.380414,397.832518 709,415" id="Stroke-11" stroke="url(#linearGradient-5)" stroke-width="0.572" stroke-dasharray="8.005000000000001"></path>
                <path d="M450,168 L450,208.539323 C450,221.407282 456.86068,233.296911 467.997147,239.730891 C467.997147,239.730891 629.562972,333.459717 653,347" id="Stroke-13" stroke="url(#linearGradient-6)" stroke-width="2.287"></path>
                <path d="M245.049724,61 L245.049724,153.297336 C245.049724,153.297336 244.17264,159.291265 249.785759,162.817369 C255.399992,166.343473 338.546065,213.064349 338.546065,213.064349 C338.546065,213.064349 344.86152,216.766087 351,218 L351,125.879417 C351,125.879417 346.614576,125.702664 336.791895,120.061122 C326.969214,114.419579 251.013455,71.0491724 251.013455,71.0491724 C251.013455,71.0491724 244.523251,68.2278418 245.049724,61" id="Fill-15" fill="#080052"></path>
                <path d="M459.509599,70.6394039 C465.4968,67.241636 465.4968,58.758364 459.509599,55.3762027 L367.979305,3.53237429 C359.667411,-1.1774581 349.349353,-1.1774581 341.020695,3.53237429 L249.490401,55.3762027 C243.5032,58.758364 243.5032,67.241636 249.490401,70.6394039 L341.020695,122.467626 C349.332589,127.177458 359.651764,127.177458 367.979305,122.467626 L459.509599,70.6394039 Z" id="Stroke-17" stroke="#FFFFFF" stroke-width="6.861"></path>
                <path d="M459.509599,162.639404 C465.4968,159.240521 465.4968,150.758364 459.509599,147.376203 L367.979305,95.5323743 C359.667411,90.8225419 349.349353,90.8225419 341.020695,95.5323743 L249.490401,147.376203 C243.5032,150.758364 243.5032,159.240521 249.490401,162.639404 L341.020695,214.467626 C349.332589,219.177458 359.651764,219.177458 367.979305,214.467626 L459.509599,162.639404 Z" id="Stroke-19" stroke="#64EFFF" stroke-width="2"></path>
                <path d="M421.211795,69.2893455 C424.929402,67.1586214 424.929402,61.840253 421.211795,59.7196592 L364.370202,27.2151426 C359.208475,24.2616191 352.801585,24.2616191 347.629798,27.2151426 L290.788205,59.7196592 C287.070598,61.840253 287.070598,67.1586214 290.788205,69.2893455 L347.629798,101.784857 C352.791525,104.738381 359.199533,104.738381 364.370202,101.784857 L421.211795,69.2893455 Z" id="Fill-23" fill="#080052"></path>
                <g id="Group-27" transform="translate(325.000000, 46.000000)">
                    <mask id="mask-8" fill="white">
                        <use xlink:href="#path-7"></use>
                    </mask>
                    <g id="Clip-26"></g>
                    <path d="M46.3780645,8.02889952 C45.6637669,7.61358852 44.5142463,7.61805423 43.813238,8.02889952 L22.6545273,20.4245933 C21.9457669,20.8410207 21.9424446,21.5108772 22.6556347,21.9273046 C23.3699322,22.3426156 24.5260975,22.3426156 25.2348579,21.9273046 L46.3935686,9.53161085 C47.0956843,9.11964912 47.092362,8.44532695 46.3780645,8.02889952 M13.592362,12.9925359 C12.8780645,12.5772249 11.7296512,12.5727592 11.0197835,12.9880702 L1.55672562,18.5322488 C0.847965289,18.9475598 0.857932231,19.6185327 1.57222975,20.0338437 C2.28763471,20.4491547 3.43604793,20.4536204 4.14480826,20.0383094 L13.6067587,14.4952472 C14.3166264,14.0788198 14.3055521,13.4078469 13.592362,12.9925359 M37.9925438,27.1946093 C37.2782463,26.7781818 36.1298331,26.7748325 35.4199653,27.1901435 L25.9580149,32.7332057 C25.2481471,33.1496332 25.2592215,33.8206061 25.973519,34.2359171 C26.6878165,34.6512281 27.8295851,34.6512281 28.5394529,34.2359171 L38.0014033,28.6928549 C38.7101636,28.2764274 38.7068413,27.6099203 37.9925438,27.1946093 M23.0310562,12.2110367 C22.3167587,11.7946093 21.1605934,11.7946093 20.4518331,12.2110367 L5.62323802,20.8979585 C4.91447769,21.3132695 4.92333719,21.9842424 5.63874215,22.4006699 C6.35193223,22.8159809 7.50145289,22.8204466 8.21021322,22.4040191 L23.0399157,13.7170973 C23.748676,13.3006699 23.7453537,12.6263477 23.0310562,12.2110367 M39.3004281,21.6805742 C38.587238,21.2641467 37.4310727,21.2641467 36.721205,21.6805742 L21.8926099,30.367496 C21.1827421,30.782807 21.1938165,31.4537799 21.9070066,31.8690909 C22.6224116,32.2855183 23.7641802,32.2855183 24.4740479,31.8690909 L39.3015355,23.1821691 C40.0114033,22.7668581 40.0147256,22.0958852 39.3004281,21.6805742 M36.2438992,9.21789474 C35.5284942,8.80258373 34.3734364,8.80258373 33.664676,9.21789474 L14.4661306,20.4659011 C13.7629074,20.8778628 13.7673372,21.552185 14.4805273,21.967496 C15.1948248,22.3839234 16.3509901,22.3839234 17.0531058,21.9719617 L36.2505438,10.7250718 C36.9604116,10.3086443 36.9570893,9.63432217 36.2438992,9.21789474 M44.3813537,13.9548963 C43.6670562,13.5395853 42.5119983,13.5395853 41.8021306,13.9548963 L22.6035851,25.2029027 C21.900362,25.613748 21.9047917,26.2891866 22.6190893,26.705614 C23.3267421,27.1164593 24.4829074,27.1164593 25.1839157,26.705614 L44.3824612,15.4576077 C45.0923289,15.0411802 45.0890066,14.3668581 44.3813537,13.9548963" id="Fill-25" fill="#007BFF" mask="url(#mask-8)"></path>
                </g>
            </g>
        </g>
    </g>
</svg>