<?xml version="1.0" encoding="UTF-8"?>
<svg width="181px" height="225px" viewBox="0 0 181 225" version="1.1" xmlns="http://www.w3.org/2000/svg" xmlns:xlink="http://www.w3.org/1999/xlink">
    <!-- Generator: Sketch 51.2 (57519) - http://www.bohemiancoding.com/sketch -->
    <title>Gartner badge Copy</title>
    <desc>Created with Sketch.</desc>
    <defs>
        <path d="M93.287457,2.74884098 L106.882378,10.5867155 L152.147661,36.8231042 C159.626969,41.1583985 164.230416,49.1407049 164.230416,57.7766583 L164.230416,124.879763 C164.230416,133.515717 159.626969,141.49876 152.147661,145.833317 L94.4555136,179.273226 C86.9245472,183.638734 77.6276226,183.638734 70.0966562,179.273226 L12.404509,145.833317 C5.27202134,141.699756 0.755539372,134.24823 0.352010875,126.076619 L0.352010875,56.8139522 C0.69019365,49.9476597 3.91713733,43.5877955 9.15283426,39.2576362 L74.4476757,1.61322573 C76.8676532,0.716285653 79.3966894,0.21588097 81.9380954,0.112011684 C82.0502666,0.110537846 82.1631757,0.109800927 82.2760849,0.109800927 C86.0532307,0.109800927 89.8297817,0.989481113 93.2874581,2.74884148 L93.287457,2.74884098 Z" id="path-1"></path>
        <path d="M93.287457,2.74884098 L106.882378,10.5867155 L152.147661,36.8231042 C159.626969,41.1583985 164.230416,49.1407049 164.230416,57.7766583 L164.230416,124.879763 C164.230416,133.515717 159.626969,141.49876 152.147661,145.833317 L94.4555136,179.273226 C86.9245472,183.638734 77.6276226,183.638734 70.0966562,179.273226 L12.404509,145.833317 C5.27202134,141.699756 0.755539372,134.24823 0.352010875,126.076619 L0.352010875,56.8139522 C0.69019365,49.9476597 3.91713733,43.5877955 9.15283426,39.2576362 L74.4476757,1.61322573 C76.8676532,0.716285653 79.3966894,0.21588097 81.9380954,0.112011684 C82.0502666,0.110537846 82.1631757,0.109800927 82.2760849,0.109800927 C86.0532307,0.109800927 89.8297817,0.989481113 93.2874581,2.74884148" id="path-3"></path>
        <path d="M81.9380954,0.112011684 C78.061548,0.270449263 74.2137813,1.3515094 70.7379506,3.35519209 L12.5181561,36.9211144 C4.97095442,41.271884 0.322492144,49.312407 0.322492144,58.0139462 L0.322492144,124.879763 C0.322492144,133.515717 4.92520038,141.49876 12.404509,145.833317 L70.0966562,179.273226 C77.6276226,183.638734 86.9245472,183.638734 94.4555136,179.273226 L152.147661,145.833317 C159.626969,141.49876 164.230416,133.515717 164.230416,124.879763 L164.230416,57.7766583 C164.230416,49.1407049 159.626969,41.1583985 152.147661,36.8231042 L94.4555136,3.38393193 C90.6896614,1.20117793 86.4832421,0.109800927 82.2760849,0.109800927 C82.1631757,0.109800927 82.0502666,0.110537846 81.9380954,0.112011684" id="path-5"></path>
        <path d="M81.9380954,0.112011684 C78.061548,0.270449263 74.2137813,1.3515094 70.7379506,3.35519209 L12.5181561,36.9211144 C4.97095442,41.271884 0.322492144,49.312407 0.322492144,58.0139462 L0.322492144,124.879763 C0.322492144,133.515717 4.92520038,141.49876 12.404509,145.833317 L70.0966562,179.273226 C77.6276226,183.638734 86.9245472,183.638734 94.4555136,179.273226 L152.147661,145.833317 C159.626969,141.49876 164.230416,133.515717 164.230416,124.879763 L164.230416,57.7766583 C164.230416,49.1407049 159.626969,41.1583985 152.147661,36.8231042 L94.4555136,3.38393193 C90.6896614,1.20117793 86.4832421,0.109800927 82.2760849,0.109800927 C82.1631757,0.109800927 82.0502666,0.110537846 81.9380954,0.112011684" id="path-7"></path>
        <path d="M81.9380954,0.112011684 C78.061548,0.270449263 74.2137813,1.3515094 70.7379506,3.35519209 L12.5181561,36.9211144 C4.97095442,41.271884 0.322492144,49.312407 0.322492144,58.0139462 L0.322492144,124.879763 C0.322492144,133.515717 4.92520038,141.49876 12.404509,145.833317 L70.0966562,179.273226 C77.6276226,183.638734 86.9245472,183.638734 94.4555136,179.273226 L152.147661,145.833317 C159.626969,141.49876 164.230416,133.515717 164.230416,124.879763 L164.230416,57.7766583 C164.230416,49.1407049 159.626969,41.1583985 152.147661,36.8231042 L94.4555136,3.38393193 C90.6896614,1.20117793 86.4832421,0.109800927 82.2760849,0.109800927 C82.1631757,0.109800927 82.0502666,0.110537846 81.9380954,0.112011684" id="path-9"></path>
        <path d="M81.9380954,0.112011684 C78.061548,0.270449263 74.2137813,1.3515094 70.7379506,3.35519209 L12.5181561,36.9211144 C4.97095442,41.271884 0.322492144,49.312407 0.322492144,58.0139462 L0.322492144,124.879763 C0.322492144,133.515717 4.92520038,141.49876 12.404509,145.833317 L70.0966562,179.273226 C77.6276226,183.638734 86.9245472,183.638734 94.4555136,179.273226 L152.147661,145.833317 C159.626969,141.49876 164.230416,133.515717 164.230416,124.879763 L164.230416,57.7766583 C164.230416,49.1407049 159.626969,41.1583985 152.147661,36.8231042 L94.4555136,3.38393193 C90.6896614,1.20117793 86.4832421,0.109800927 82.2760849,0.109800927 C82.1631757,0.109800927 82.0502666,0.110537846 81.9380954,0.112011684" id="path-11"></path>
        <path d="M81.9380954,0.112011684 C78.061548,0.270449263 74.2137813,1.3515094 70.7379506,3.35519209 L12.5181561,36.9211144 C4.97095442,41.271884 0.322492144,49.312407 0.322492144,58.0139462 L0.322492144,124.879763 C0.322492144,133.515717 4.92520038,141.49876 12.404509,145.833317 L70.0966562,179.273226 C77.6276226,183.638734 86.9245472,183.638734 94.4555136,179.273226 L152.147661,145.833317 C159.626969,141.49876 164.230416,133.515717 164.230416,124.879763 L164.230416,57.7766583 C164.230416,49.1407049 159.626969,41.1583985 152.147661,36.8231042 L94.4555136,3.38393193 C90.6896614,1.20117793 86.4832421,0.109800927 82.2760849,0.109800927 C82.1631757,0.109800927 82.0502666,0.110537846 81.9380954,0.112011684" id="path-13"></path>
        <path d="M81.9380954,0.112011684 C78.061548,0.270449263 74.2137813,1.3515094 70.7379506,3.35519209 L12.5181561,36.9211144 C4.97095442,41.271884 0.322492144,49.312407 0.322492144,58.0139462 L0.322492144,124.879763 C0.322492144,133.515717 4.92520038,141.49876 12.404509,145.833317 L70.0966562,179.273226 C77.6276226,183.638734 86.9245472,183.638734 94.4555136,179.273226 L152.147661,145.833317 C159.626969,141.49876 164.230416,133.515717 164.230416,124.879763 L164.230416,57.7766583 C164.230416,49.1407049 159.626969,41.1583985 152.147661,36.8231042 L94.4555136,3.38393193 C90.6896614,1.20117793 86.4832421,0.109800927 82.2760849,0.109800927 C82.1631757,0.109800927 82.0502666,0.110537846 81.9380954,0.112011684" id="path-15"></path>
        <path d="M81.9380954,0.112011684 C78.061548,0.270449263 74.2137813,1.3515094 70.7379506,3.35519209 L12.5181561,36.9211144 C4.97095442,41.271884 0.322492144,49.312407 0.322492144,58.0139462 L0.322492144,124.879763 C0.322492144,133.515717 4.92520038,141.49876 12.404509,145.833317 L70.0966562,179.273226 C77.6276226,183.638734 86.9245472,183.638734 94.4555136,179.273226 L152.147661,145.833317 C159.626969,141.49876 164.230416,133.515717 164.230416,124.879763 L164.230416,57.7766583 C164.230416,49.1407049 159.626969,41.1583985 152.147661,36.8231042 L94.4555136,3.38393193 C90.6896614,1.20117793 86.4832421,0.109800927 82.2760849,0.109800927 C82.1631757,0.109800927 82.0502666,0.110537846 81.9380954,0.112011684" id="path-17"></path>
        <path d="M81.9380954,0.112011684 C78.061548,0.270449263 74.2137813,1.3515094 70.7379506,3.35519209 L12.5181561,36.9211144 C4.97095442,41.271884 0.322492144,49.312407 0.322492144,58.0139462 L0.322492144,124.879763 C0.322492144,133.515717 4.92520038,141.49876 12.404509,145.833317 L70.0966562,179.273226 C77.6276226,183.638734 86.9245472,183.638734 94.4555136,179.273226 L152.147661,145.833317 C159.626969,141.49876 164.230416,133.515717 164.230416,124.879763 L164.230416,57.7766583 C164.230416,49.1407049 159.626969,41.1583985 152.147661,36.8231042 L94.4555136,3.38393193 C90.6896614,1.20117793 86.4832421,0.109800927 82.2760849,0.109800927 C82.1631757,0.109800927 82.0502666,0.110537846 81.9380954,0.112011684" id="path-19"></path>
        <path d="M81.9380954,0.112011684 C78.061548,0.270449263 74.2137813,1.3515094 70.7379506,3.35519209 L12.5181561,36.9211144 C4.97095442,41.271884 0.322492144,49.312407 0.322492144,58.0139462 L0.322492144,124.879763 C0.322492144,133.515717 4.92520038,141.49876 12.404509,145.833317 L70.0966562,179.273226 C77.6276226,183.638734 86.9245472,183.638734 94.4555136,179.273226 L152.147661,145.833317 C159.626969,141.49876 164.230416,133.515717 164.230416,124.879763 L164.230416,57.7766583 C164.230416,49.1407049 159.626969,41.1583985 152.147661,36.8231042 L94.4555136,3.38393193 C90.6896614,1.20117793 86.4832421,0.109800927 82.2760849,0.109800927 C82.1631757,0.109800927 82.0502666,0.110537846 81.9380954,0.112011684" id="path-21"></path>
    </defs>
    <g id="Desktop" stroke="none" stroke-width="1" fill="none" fill-rule="evenodd">
        <g id="HOME-+-Dark-Gradient--Copy" transform="translate(-777.000000, -3790.000000)">
            <g id="Gartner-badge-Copy" transform="translate(780.000000, 3795.000000)">
                <g id="Group-13">
                    <g id="Group-10" transform="translate(0.000000, 117.737988)" fill="#000076" opacity="0.426618304">
                        <path d="M77.4287687,98.6048985 C84.0701242,102.371033 92.3154353,102.371033 98.9694029,98.6048985 L172.104437,57.1640887 C176.888112,54.4464886 176.888112,47.6643362 172.104437,44.9593244 L98.9694029,3.50592628 C92.3280474,-0.260208358 84.0827362,-0.260208358 77.4287687,3.50592628 L4.29373428,44.9593244 C-0.489940928,47.6643362 -0.489940928,54.4464886 4.29373428,57.1640887" id="Fill-8"></path>
                    </g>
                    <path d="M173.103311,129.598794 L173.103311,60.0659969 C173.103311,51.0527466 168.285509,42.7244501 160.465299,38.2178249 L100.135201,3.45105593 C92.3149902,-1.0548287 82.6793864,-1.0548287 74.8591754,3.45105593 L14.5283362,38.2178249 C6.70812519,42.7244501 1.89106515,51.0527466 1.89106515,60.0659969 L1.89106515,129.598794 C1.89106515,138.612045 6.70812519,146.940341 14.5283362,151.446966 L74.8591754,186.213735 C82.6793864,190.72036 92.3149902,190.72036 100.135201,186.213735 L160.465299,151.446966 C168.285509,146.940341 173.103311,138.612045 173.103311,129.598794 Z" id="Stroke-11" stroke="#FFFFFF" stroke-width="8.685"></path>
                </g>
                <g id="Group-48" transform="translate(5.196850, 3.464567)">
                    <g id="Group-20">
                        <g id="Group-16">
                            <mask id="mask-2" fill="white">
                                <use xlink:href="#path-1"></use>
                            </mask>
                            <g id="Clip-15"></g>
                            <path d="M23.4390537,-33.3927464 L23.5003051,-33.2792609 C23.8862625,-32.5622387 24.0006476,-31.7641554 23.8235352,-31.0309211 L23.7932785,-30.9071187 L77.1373165,-9.48783179 L77.2015197,-9.59763272 C77.2133272,-9.61826645 77.2221828,-9.63890018 77.2317764,-9.65953391 C77.2362042,-9.67132461 77.24137,-9.68311532 77.2487497,-9.6941691 C77.5424611,-10.1628496 77.9881939,-10.5327829 78.6103012,-10.8238659 L78.7224724,-10.8769241 L65.2006794,-60.5054693 L65.0744868,-60.4914678 C64.9409145,-60.4759925 64.8051283,-60.4686233 64.6722941,-60.4686233 C63.8457696,-60.4686233 63.1011596,-60.7523371 62.5189026,-61.2888141 C62.5137368,-61.2939726 62.5048812,-61.3087109 62.4967635,-61.3219755 C62.4820042,-61.3485046 62.462079,-61.380929 62.4318223,-61.4118796 L62.3425282,-61.5025206 L23.4390537,-33.3927464 Z M80.0190827,-11.1422149 C80.616099,-11.1422149 81.1570298,-10.9926203 81.6278535,-10.6978527 C82.1614046,-10.3640284 82.570239,-9.84302673 82.8432873,-9.1503229 L82.8897793,-9.03094202 L127.313257,-19.5593034 L127.314733,-19.6735258 C127.325802,-20.2667456 127.530219,-20.8688084 127.905107,-21.4141285 L127.989236,-21.5379308 L67.1931937,-61.5953724 L67.093568,-61.4863084 L67.0743808,-61.4509363 C66.792477,-61.1495364 66.4323484,-60.8945625 66.0205621,-60.7125435 L65.9039631,-60.6616961 L79.4095209,-11.0935782 L79.5371894,-11.1097904 C79.6995424,-11.1311611 79.8611574,-11.1422149 80.0190827,-11.1422149 Z M-38.0137799,-14.6860582 L-37.9599082,-14.5379375 C-37.6809562,-13.7663834 -37.708999,-12.9307172 -38.0396088,-12.1842183 L-38.0912666,-12.0677851 L8.97192331,17.3920247 L9.05531372,17.2940145 C9.65601991,16.5865723 10.5356781,16.1805299 11.46847,16.1805299 C11.5053685,16.1805299 11.5415289,16.1805299 11.5784273,16.1820037 L11.7060958,16.1864253 L19.8643353,-28.7354185 L19.7433085,-28.775949 C19.4791159,-28.8643793 19.2562494,-28.966811 19.0621638,-29.0884027 C18.5271368,-29.4229639 18.1087087,-29.904172 17.8511578,-30.4789688 L17.798762,-30.5961389 L-38.0137799,-14.6860582 Z M23.4892355,-30.1886227 C23.478166,-30.1687259 23.4685724,-30.1480921 23.4589788,-30.1267215 C23.4538131,-30.1149308 23.4486473,-30.1031401 23.4420056,-30.0913494 C23.2826044,-29.8385862 23.0700696,-29.6005613 22.7911175,-29.3647473 L22.6937057,-29.2822123 L56.3716267,24.6536243 L56.4897016,24.5990923 C56.9029639,24.4097041 57.3605042,24.31022 57.8150927,24.31022 C58.2158095,24.31022 58.6091466,24.3853858 58.9832965,24.5335065 L59.0976816,24.5784585 L77.9904078,-5.5187862 L77.892996,-5.60132112 C76.9757014,-6.3772968 76.5831023,-7.58584392 76.8672201,-8.75533433 L76.8974768,-8.87987363 L23.5534388,-30.2991605 L23.4892355,-30.1886227 Z M12.3510801,16.2984369 L12.4721069,16.3389675 C12.7370375,16.4273978 12.959166,16.5298295 13.1539896,16.6514211 C14.1096586,17.2490624 14.6609209,18.2881182 14.6291882,19.4303426 L14.6254984,19.5578296 L54.7768772,26.565929 L54.8182035,26.4472851 C54.9045457,26.1967326 55.0049094,25.9830261 55.1244603,25.7936379 C55.2742679,25.5534023 55.4683535,25.3338005 55.7340221,25.101671 L55.828482,25.0191361 L22.1453953,-28.9240697 L22.0287963,-28.8732223 C21.6413629,-28.702994 21.2140793,-28.6175114 20.7602288,-28.6175114 C20.7189026,-28.6175114 20.6783143,-28.6182483 20.6369881,-28.6189853 L20.5093196,-28.6241437 L12.3510801,16.2984369 Z M83.0440147,-8.330869 L83.0521323,-8.20632969 C83.0993623,-7.46572612 82.9628382,-6.84966186 82.6322284,-6.32423863 C82.5148914,-6.13779813 82.3746774,-5.9616745 82.2042068,-5.78849854 L82.1149126,-5.69712059 L114.19218,36.3934804 L114.293282,36.3581083 C114.590683,36.2549397 114.916127,36.2018815 115.260758,36.2018815 C115.444513,36.2018815 115.637122,36.2166199 115.831946,36.2460966 L115.963304,36.2667304 L129.629739,-16.5217234 L129.499119,-16.5652016 C129.042316,-16.7170069 128.646027,-16.9447149 128.322797,-17.2431671 C127.92946,-17.6057312 127.658626,-18.0736748 127.470444,-18.7162681 L127.430594,-18.8503874 L83.0440147,-8.330869 Z M59.6607514,24.9122828 L59.7648049,24.9940808 C60.5647625,25.6189881 61.0171371,26.5968796 60.9765489,27.6094063 L60.9713831,27.7346825 L112.416629,38.12524 L112.502971,37.9365888 C112.547987,37.8363678 112.590051,37.7420422 112.645399,37.6543488 C112.857934,37.3153661 113.136148,37.0198616 113.471185,36.7766783 L113.593688,36.688248 L81.5865273,-5.31023813 L81.4750941,-5.24833693 C81.0035324,-4.98820453 80.4714572,-4.85040069 79.9364302,-4.85040069 C79.4951252,-4.85040069 79.0663656,-4.94104172 78.661959,-5.12011303 L78.544622,-5.17169736 L59.6607514,24.9122828 Z M116.643711,36.506966 L116.749978,36.5600241 C116.808278,36.588764 116.864364,36.6020285 116.914545,36.6138192 C116.958823,36.6241361 116.99646,36.6329791 117.024503,36.6506652 C117.582407,36.9992278 118.011166,37.5099127 118.266503,38.1267139 L118.314471,38.2431471 L167.650603,26.4273882 L167.661673,26.3242196 C167.714069,25.8253254 167.867566,25.3706464 168.117737,24.9734471 C168.178251,24.8761738 168.263855,24.7980604 168.353887,24.7162624 C168.408497,24.6646781 168.464582,24.6138306 168.51624,24.5578248 L168.604796,24.4620253 L132.752083,-17.3448619 L132.639912,-17.2446409 C132.031088,-16.7037424 131.296809,-16.4178178 130.515301,-16.4178178 L130.346306,-16.4200286 L116.643711,36.506966 Z M-24.9738802,37.9454318 C-24.3805537,37.9454318 -23.8064143,38.1082909 -23.3127135,38.4177969 C-23.0374514,38.5902359 -22.7865421,38.8172069 -22.5467024,39.1127115 L-22.4662639,39.2114586 L8.5881798,20.6757356 L8.53947389,20.5578286 C8.20886409,19.7649038 8.22067159,18.8555458 8.57268246,18.062621 L8.62434024,17.9461878 L-38.4388496,-11.5128851 L-38.5215021,-11.4156118 C-38.9524755,-10.9078747 -39.5162833,-10.5541535 -40.1494601,-10.3927683 L-40.2992677,-10.3544485 L-25.6011532,38.0021746 L-25.4742227,37.9830147 C-25.3081798,37.9579594 -25.1391851,37.9454318 -24.9738802,37.9454318 Z M-22.1231086,39.7678324 L-22.0744027,39.8857395 C-21.6766378,40.8385757 -21.7644561,41.9247943 -22.3083387,42.7906741 C-22.3991088,42.936584 -22.5120179,43.0677556 -22.6197613,43.1900841 L-22.7038897,43.2858836 L1.14872144,71.1731083 L1.25646481,71.1053118 C1.764187,70.7862259 2.35013382,70.6174714 2.95010204,70.6174714 L3.1095032,70.6189453 L10.655967,22.3964415 L10.5342022,22.3588586 C10.2316352,22.2660068 9.99179549,22.1606274 9.77852265,22.027245 C9.50326048,21.854806 9.25235126,21.627098 9.0117736,21.3315935 L8.93059708,21.2321095 L-22.1231086,39.7678324 Z M3.75596342,70.7221139 L3.87772819,70.7589599 C4.18103316,70.8525486 4.42087285,70.957928 4.63340772,71.0913103 C4.78764309,71.1871098 4.92564316,71.3057537 5.04298012,71.4089224 L5.138916,71.4936681 L55.1355298,29.15841 L55.0742785,29.0515567 C54.7746633,28.530555 54.6307595,27.9380721 54.6565884,27.338957 L54.6617542,27.2099962 L14.5162791,20.2026337 L14.4756908,20.3242253 C14.3849207,20.6020438 14.2838191,20.8238564 14.1583645,21.0242983 C13.5783214,21.9491316 12.5702567,22.5018209 11.4633043,22.5018209 L11.3031651,22.4996101 L3.75596342,70.7221139 Z M5.56103386,71.9925622 L5.62892694,72.1008893 C5.68132269,72.1841612 5.72929063,72.2696438 5.77356873,72.3566002 L5.837034,72.4840872 L42.9428177,55.5474784 L42.9066573,55.4251499 C42.7007641,54.7206553 42.8018658,53.9667872 43.1841333,53.3573552 C43.6505293,52.6145409 44.4556527,52.1716526 45.3390007,52.1716526 C45.588434,52.1716526 45.8349154,52.2077616 46.0732792,52.2785058 L46.1957819,52.3146149 L56.3900759,30.303582 L56.271263,30.2365224 C56.2454341,30.221784 56.2188673,30.2099933 56.1923004,30.1982026 C56.1708993,30.1886227 56.1487603,30.1797797 56.1280972,30.1665151 C55.9487709,30.0537665 55.7783002,29.921858 55.6233269,29.7744742 L55.526653,29.6838332 L5.56103386,71.9925622 Z M46.6319212,52.5076876 L46.7389266,52.5776949 C47.9027026,53.3337738 48.2488097,54.8533007 47.5270767,56.0367926 L47.4606596,56.1458566 L70.9974203,75.5680931 L71.0926182,75.4840843 C71.4254419,75.1893167 71.8099234,74.9719256 72.2335172,74.8385433 L72.3744691,74.7943282 L58.3707828,30.5895066 L58.2468041,30.6064557 C58.1036383,30.6263526 57.9575206,30.6366694 57.8143547,30.6366694 C57.5243332,30.6366694 57.2350496,30.5961389 56.9538837,30.5165516 L56.8321189,30.4826534 L46.6319212,52.5076876 Z M73.192138,74.6815796 C73.7913682,74.6815796 74.3736252,74.8473863 74.8747057,75.1613138 C75.0326309,75.259324 75.1861283,75.3794418 75.3447915,75.5260887 L75.4444172,75.6182036 L112.941324,41.4074771 L112.85572,41.299887 C112.316265,40.6175 112.075687,39.7390926 112.196714,38.889425 L112.216639,38.7523581 L60.857736,28.3794866 L60.8156718,28.5018152 C60.7285915,28.7560522 60.6282278,28.9719695 60.507939,29.1635684 C60.1751153,29.6934131 59.6961739,30.1097724 59.1242484,30.367694 L59.0039596,30.4214891 L73.0260951,74.6837903 L73.192138,74.6815796 Z M6.00750468,72.9299232 L6.03554747,73.0470933 C6.06949402,73.1893186 6.08425338,73.3367024 6.09827478,73.4995615 L6.11008227,73.6263116 L70.0941471,77.1819456 L70.1244038,77.0647755 C70.2159119,76.7117913 70.3369387,76.4170237 70.4956019,76.1642605 C70.5088853,76.1428899 70.5265965,76.1229931 70.5428318,76.1030963 C70.562019,76.0802518 70.5812062,76.0566704 70.5989174,76.032352 L70.6771421,75.9203404 L47.1507129,56.5076838 L47.056253,56.5931664 C46.5817393,57.0227902 45.9692257,57.2593412 45.3316211,57.2593412 C44.8585834,57.2593412 44.3951393,57.1252219 43.9914706,56.8731956 C43.680786,56.678649 43.4173313,56.414832 43.2077483,56.0891139 L43.1383793,55.9822606 L6.00750468,72.9299232 Z M118.469445,38.8783712 L118.483466,39.007332 C118.5366,39.5054893 118.482728,39.980802 118.322589,40.4192688 L118.284953,40.5231744 L172.695355,80.6970491 L172.783911,80.6314634 C173.232596,80.2954283 173.773526,80.0846695 174.346928,80.0227683 L174.485666,80.007293 L171.692456,29.7110992 L171.521247,29.7501559 C171.286573,29.803951 171.045996,29.831217 170.805418,29.831217 C170.210615,29.831217 169.628358,29.6631995 169.122112,29.3463243 C168.37086,28.8769069 167.865352,28.1311449 167.697095,27.248316 L167.668315,27.0957737 L118.469445,38.8783712 Z M136.088438,73.4118682 C136.562213,73.4118682 137.024919,73.5445136 137.427112,73.7965399 C138.192385,74.2755372 138.646236,75.1421539 138.610813,76.0588811 L138.606385,76.1856312 L171.629728,82.326377 L171.669579,82.2025746 C171.762563,81.9122285 171.86514,81.6815729 171.993547,81.4774463 C172.017162,81.4398635 172.046681,81.4059652 172.074723,81.3720669 C172.098338,81.344064 172.121953,81.3153242 172.144092,81.2858474 L172.231911,81.1672035 L117.96615,41.099445 L117.878332,41.218089 C117.673177,41.4936967 117.448834,41.7221415 117.209733,41.8960544 L117.104203,41.9734309 L135.029453,73.6344177 L135.148266,73.5879918 C135.450833,73.4715586 135.767421,73.4118682 136.088438,73.4118682 Z M172.682809,29.1842021 C172.590563,29.257894 172.503483,29.3271644 172.410499,29.3824333 L172.332274,29.4273854 L175.143196,80.0264529 L175.257581,80.0470866 C175.664201,80.1215154 176.039089,80.2652146 176.372651,80.4744996 C177.074459,80.9137033 177.569635,81.6041964 177.766673,82.4192288 L177.794716,82.5319774 L225.388505,82.4678654 L225.407692,82.3425892 C225.482227,81.8525381 225.664505,81.3978591 225.950099,80.9925537 L226.022419,80.889385 L172.878371,29.0301861 L172.682809,29.1842021 Z M-49.5371548,86.7095711 L-49.4360531,86.7862106 C-49.391037,86.8208458 -49.3423311,86.846638 -49.2936252,86.8709563 C-49.2493471,86.8930639 -49.2109728,86.9122238 -49.18293,86.9387529 C-48.8722453,87.2246774 -48.62355,87.5688186 -48.4420098,87.9608595 L-48.3896141,88.0765558 L-0.153792592,74.1377334 L-0.16338618,74.0183525 C-0.221685675,73.2755382 -0.0814716994,72.6285233 0.254303873,72.094257 C0.345811942,71.9483471 0.45872109,71.8164386 0.566464461,71.6933731 L0.650592846,71.5975737 L-23.2012803,43.7110859 L-23.3097617,43.7788824 C-23.8093662,44.0935468 -24.3886713,44.2600905 -24.9856877,44.2600905 C-25.3288429,44.2600905 -25.6690463,44.2048216 -25.9974422,44.0964945 L-26.1140412,44.0581747 L-49.5371548,86.7095711 Z M32.7802563,92.5113341 C33.2577218,92.5113341 33.7248558,92.6454534 34.1322143,92.8996904 C34.4554444,93.1023432 34.7277547,93.3823724 34.9425034,93.730935 L35.0096586,93.839999 L70.1317835,78.7147371 L70.1030027,78.5938824 C70.0513449,78.3816497 70.0210882,78.170154 70.0129706,77.9660274 L70.0078048,77.8319082 L6.0768737,74.2792218 L6.05178278,74.404498 C6.00381484,74.6425229 5.92190036,74.8805477 5.80234949,75.132574 L5.74921578,75.2431118 L30.8526832,93.3786878 L30.9419773,93.2873098 C31.4194428,92.7935741 32.090256,92.5113341 32.7802563,92.5113341 Z M116.606813,42.6381318 L123.065511,100.530486 L123.249265,100.575438 C123.324538,100.593125 123.399811,100.610811 123.473608,100.636603 L123.597586,100.680818 L134.734266,78.124465 L134.628736,78.05151 C133.496693,77.2755344 133.179367,75.7604289 133.905527,74.6027292 C134.059763,74.3580721 134.258276,74.1436287 134.512875,73.9468713 L134.613977,73.8687579 L116.882075,42.5489646 L116.606813,42.6381318 Z M75.8473479,76.1355207 L75.9085993,76.2386894 C76.3277653,76.9476054 76.4546958,77.7781131 76.265038,78.5776702 L76.2384711,78.6896819 L120.05829,101.490692 L120.135039,101.412578 C120.689253,100.842203 121.436815,100.503957 122.241201,100.459742 L122.39765,100.450899 L115.926406,42.4450591 L115.77586,42.4656928 C115.620887,42.4878004 115.464438,42.4988541 115.310202,42.4988541 C114.716876,42.4988541 114.142736,42.335995 113.650512,42.027226 C113.627635,42.0132245 113.608447,41.9962754 113.588522,41.9793263 C113.564907,41.9601664 113.542768,41.9410065 113.517677,41.9233204 L113.420266,41.8555239 L75.8473479,76.1355207 Z M124.02487,100.891577 L124.135565,100.963058 C124.565063,101.240876 124.91486,101.618916 125.174624,102.088333 L125.23809,102.201819 L171.581023,83.7766335 L171.561835,83.6594634 C171.524199,83.4221755 171.513867,83.1753077 171.532317,82.9254921 L171.54191,82.7943205 L138.524471,76.6550486 L138.483145,76.7759033 C138.4123,76.9829775 138.331123,77.1591012 138.234449,77.3116434 C137.767315,78.0559315 136.960716,78.5002937 136.07663,78.5002937 C135.806534,78.5002937 135.539389,78.4582893 135.283314,78.3742805 L135.161549,78.3352238 L124.02487,100.891577 Z M88.2024131,105.859148 C88.6747128,105.859148 89.135205,105.991056 89.5344458,106.240872 C90.0576653,106.568064 90.4436228,107.08317 90.6207351,107.692602 L90.6561576,107.81493 L119.241359,103.824514 L119.23767,103.693343 C119.225862,103.178236 119.354269,102.648392 119.609606,102.160551 L119.678237,102.030117 L76.0030592,79.3042723 L75.9322143,79.4266008 C75.9204068,79.4479715 75.9100752,79.4700791 75.9004816,79.4921866 C75.8938399,79.506925 75.8879362,79.5216634 75.8790805,79.5349279 C75.6444066,79.9092828 75.3315081,80.2283687 74.9499785,80.4826057 L74.8429731,80.5540869 L87.2806907,106.022744 L87.4024554,105.984424 C87.6636962,105.901152 87.9323167,105.859148 88.2024131,105.859148 Z M177.377763,84.8481137 C177.37555,84.8481137 177.366694,84.8584306 177.359314,84.8694844 L177.295849,84.9674946 L202.426621,111.419938 L202.529937,111.351405 C202.955007,111.069902 203.442804,110.921044 203.940194,110.921044 C204.349767,110.921044 204.762291,111.02495 205.132751,111.220233 L205.240494,111.276239 L226.278494,85.0699263 L226.193628,84.9770745 C225.765606,84.5098679 225.497724,83.9490726 225.398836,83.3109007 L225.379649,83.1856245 L177.821282,83.2497365 L177.811689,83.3868034 C177.771101,83.9689694 177.629411,84.4464929 177.377763,84.8481137 Z M-32.3380657,114.06474 C-31.7639264,114.06474 -31.1860972,114.223915 -30.6658296,114.524578 L-30.5558723,114.587953 L0.688229229,75.9387633 L0.60557678,75.8451746 C0.377544578,75.587253 0.19969422,75.2969069 0.0609561809,74.9586611 L0.0107743371,74.8355956 L-48.2302129,88.7758919 L-48.2139776,88.9011681 C-48.0855711,89.8901133 -48.3652611,90.8142097 -49.0013898,91.5017551 C-49.0183631,91.520915 -49.0456679,91.5371273 -49.0774005,91.5562871 C-49.1142989,91.5776578 -49.1563631,91.60345 -49.1969514,91.6410328 L-49.2899354,91.7272523 L-33.7667724,114.416988 L-33.6523873,114.362456 C-33.2413389,114.164961 -32.798558,114.06474 -32.3380657,114.06474 Z M5.40975036,75.7574813 C5.07471276,76.1738405 4.67768582,76.4840834 4.22973906,76.6815777 L4.1124021,76.7324251 L20.4163356,135.047771 L20.5580255,135.008714 C20.7897475,134.943866 21.0059722,134.906283 21.2192451,134.893755 L21.3240366,134.887123 L31.8600099,97.4339529 L31.7057745,97.3654194 C31.6039349,97.3204674 31.508737,97.278463 31.4187048,97.2224571 C30.3021588,96.523121 29.9088217,95.0573892 30.5242873,93.8842142 L30.5833247,93.7707287 L5.49756859,75.6484173 L5.40975036,75.7574813 Z M21.8133096,134.906283 L21.9734487,134.935759 C22.2782296,134.991028 22.5911281,135.10304 22.9025508,135.269584 L23.0066043,135.324853 L71.0446503,80.1878381 L70.9465005,80.0905648 C70.7192062,79.8635938 70.5236446,79.5916707 70.3664574,79.2829016 L70.3037301,79.1590993 L35.2007923,94.2755182 L35.2332629,94.3985836 C35.4221828,95.0971828 35.3181293,95.8134681 34.9395516,96.4162678 C34.4724176,97.1612929 33.6628664,97.605655 32.7765665,97.605655 C32.6658713,97.605655 32.5537001,97.5990227 32.4444808,97.5842844 L32.3175502,97.5680721 L21.8133096,134.906283 Z M74.2894968,80.8112716 C74.1050048,80.8790681 73.9529833,80.9240202 73.8112934,80.95276 L73.7020741,80.9741307 L69.2927135,134.984396 L69.4307136,135.004293 C69.7318047,135.047034 70.0469171,135.147255 70.3671954,135.303482 L70.4845323,135.361699 L86.6024978,110.401516 L86.5058239,110.317507 C85.5516309,109.488473 85.3442619,108.112646 86.0135991,107.047061 C86.2003051,106.749346 86.4453105,106.496582 86.7427118,106.294667 L86.8489792,106.223185 L74.4149514,80.7648457 L74.2894968,80.8112716 Z M70.886725,135.61741 L70.9885647,135.700681 C70.9885647,135.700681 71.049816,135.747107 71.0594096,135.75595 L71.1428,135.827431 L119.65536,105.182656 L119.594108,105.063275 C119.481937,104.842936 119.400023,104.632914 119.344675,104.421419 L119.311466,104.294669 L90.7247887,108.285085 L90.7247887,108.413309 C90.7225748,108.895991 90.5904784,109.36025 90.3417831,109.756712 C89.8753872,110.499526 89.0710017,110.943152 88.1891296,110.943152 L88.1883917,110.943152 C87.8179316,110.943152 87.458541,110.864301 87.1205515,110.710285 L87.0046905,110.657227 L70.886725,135.61741 Z M-29.9846849,115.021261 L-29.8998185,115.11485 C-29.1965347,115.889352 -28.9249624,116.923986 -29.1537326,117.955672 L-29.1810374,118.078738 L18.5529656,136.770688 L18.613479,136.649833 C18.63857,136.598986 18.6548053,136.545927 18.6703026,136.492869 C18.684324,136.444233 18.6961315,136.402228 18.7175326,136.36833 C18.964752,135.975552 19.3012655,135.642465 19.7196935,135.379385 L19.8126775,135.321168 L3.47774937,76.8945472 L3.35081883,76.9107595 C3.21503266,76.9284455 3.07629462,76.9372885 2.93977049,76.9372885 C2.37301084,76.9372885 1.81436884,76.7840094 1.3243579,76.4929264 L1.21440062,76.4273406 L-29.9846849,115.021261 Z M71.5789393,136.325589 L71.6571639,136.450865 C71.840918,136.739737 71.9737523,137.045558 72.0534529,137.358012 L72.0829716,137.471498 L99.3457343,136.896701 L99.3538519,136.759634 C99.3782049,136.313798 99.5043974,135.907756 99.7265259,135.552561 C100.194398,134.808272 101.000997,134.363173 101.883607,134.363173 C102.32565,134.363173 102.764741,134.479607 103.150699,134.699208 L103.276153,134.769953 L120.574868,106.194446 L120.471553,106.114858 C120.324697,105.999899 120.212526,105.901152 120.118804,105.803879 L120.035413,105.716185 L71.5789393,136.325589 Z M23.5438452,135.704366 L23.641995,135.802376 C24.1438134,136.297586 24.4663056,136.967445 24.550434,137.688152 L24.5659313,137.819323 L65.8987974,137.431704 L65.9275781,137.323377 C66.0198242,136.977025 66.1342092,136.701417 66.2891826,136.455286 C66.7769796,135.678574 67.5902207,135.153887 68.5193228,135.016084 L68.6359218,134.999134 L73.0423304,81.008029 L72.8969507,80.9955013 C72.4718809,80.9564446 72.0637845,80.8326422 71.6829928,80.6270418 L71.5789393,80.571036 L23.5438452,135.704366 Z M125.482357,102.808303 L125.5104,102.930632 C125.666849,103.627757 125.569438,104.377203 125.235138,105.039694 L125.187908,105.133282 L160.482717,141.274736 L160.580129,141.223889 C161.040621,140.983653 161.552771,140.856903 162.061232,140.856903 C162.204397,140.856903 162.349039,140.86722 162.490729,140.887117 L162.627253,140.906277 L173.922596,86.2305737 L173.791976,86.1922539 C173.473173,86.0986652 173.220788,85.9903381 172.99866,85.8510605 C172.495365,85.5363961 172.090221,85.0795063 171.827504,84.5305017 L171.767729,84.4066993 L125.482357,102.808303 Z M176.705474,85.5872435 C176.128383,86.0625562 175.412554,86.3256363 174.690083,86.3271101 L174.569794,86.3271101 L163.254526,141.103771 L163.439756,141.18778 C163.54381,141.234206 163.64196,141.277684 163.733468,141.335164 C163.848591,141.407382 163.939361,141.506129 164.036035,141.610772 C164.086217,141.66604 164.137874,141.721309 164.192484,141.774368 L164.281778,141.859113 L201.649541,114.689648 L201.597145,114.57911 C201.209712,113.760393 201.30122,112.802398 201.844364,112.018316 L201.912257,111.919569 L176.81248,85.4988132 L176.705474,85.5872435 Z M205.803564,111.721338 L205.882527,111.81419 C206.68765,112.761868 206.715693,114.098639 205.948206,115.066213 L205.872933,115.161276 L236.406371,150.553283 L236.513377,150.486961 C236.765762,150.329997 237.018147,150.215774 237.284554,150.136924 L237.406318,150.100815 L228.617116,86.0220257 L228.490185,86.0198149 C227.989843,86.0117088 227.475479,85.8584296 226.961853,85.564399 L226.852634,85.5017609 L205.803564,111.721338 Z M164.733415,142.422119 L164.793928,142.535605 C165.071404,143.049237 165.197597,143.6034 165.169554,144.182619 L165.16365,144.303473 L192.101707,150.949009 L192.157792,150.854683 C192.189525,150.800888 192.218306,150.745619 192.246349,150.691087 C192.303172,150.581286 192.356306,150.478118 192.435269,150.392635 C192.911258,149.877529 193.582809,149.593815 194.325943,149.593815 C194.379077,149.593815 194.431473,149.595289 194.484606,149.598236 L194.606371,149.604869 L202.977884,115.847347 L202.867188,115.795763 C202.622183,115.683751 202.386033,115.568055 202.188257,115.389721 L202.184568,115.383088 L202.158001,115.355822 L202.069445,115.276235 L164.733415,142.422119 Z M195.306703,149.777308 L195.417398,149.828155 C195.668308,149.943114 195.909623,150.061758 196.109613,150.246725 C196.518447,150.622554 196.77526,151.132502 196.87341,151.760357 L196.891859,151.881211 L235.002018,153.15387 L235.009397,153.009434 C235.047772,152.279884 235.305323,151.616657 235.754007,151.092708 L235.835922,150.996172 L205.321671,115.626272 L205.216141,115.686699 C204.819114,115.914407 204.391093,116.030103 203.943146,116.030103 C203.895178,116.030103 203.847948,116.028629 203.800718,116.026419 L203.678215,116.019049 L195.306703,149.777308 Z M103.651779,135.069142 L103.730004,135.150203 C104.541031,135.995449 104.674603,137.275477 104.055448,138.262212 C103.840699,138.604142 103.541084,138.887119 103.166196,139.103773 L103.063619,139.162727 L111.255067,165.293874 L111.384211,165.269555 C111.441035,165.259238 111.498596,165.252606 111.556158,165.246711 L111.717773,165.228288 L122.126815,106.780296 L121.974794,106.759662 C121.694366,106.720606 121.399917,106.632912 121.101777,106.497319 L120.982227,106.44205 L103.651779,135.069142 Z M72.1508647,137.946073 L72.1538166,138.09272 C72.1604583,138.54003 72.0659984,138.98734 71.8719127,139.422859 L71.8232068,139.53266 L109.470659,166.438309 L109.558477,166.33514 C109.88097,165.95489 110.257333,165.667491 110.676499,165.481051 L110.796788,165.427256 L102.623051,139.352852 L102.488741,139.384539 C102.290966,139.432439 102.086548,139.456757 101.883607,139.456757 C101.406142,139.456757 100.939746,139.322638 100.534601,139.068401 C99.9604618,138.709522 99.5590071,138.147989 99.4047717,137.48771 L99.3774669,137.371277 L72.1508647,137.946073 Z M124.715608,105.806089 C124.240357,106.307194 123.612346,106.631439 122.899468,106.74345 L122.796153,106.759662 L112.381944,165.231972 L112.527324,165.257764 C112.936158,165.329983 113.31695,165.475156 113.658629,165.689599 C113.937581,165.863512 114.189966,166.092694 114.430544,166.389672 L114.503603,166.48105 L159.017112,144.957858 L158.986118,144.83995 C158.754396,143.974071 158.885016,143.086083 159.354364,142.338847 C159.476867,142.143564 159.634054,141.953439 159.834043,141.758155 L159.939573,141.655724 L124.821138,105.694815 L124.715608,105.806089 Z M-29.5190269,118.852503 C-29.5566633,118.916615 -29.5898718,118.982201 -29.6245563,119.048523 C-29.7005671,119.19517 -29.77215,119.333711 -29.8798934,119.450881 C-29.9204816,119.494359 -29.9714014,119.526047 -30.0311769,119.562156 C-30.0857865,119.595317 -30.1403962,119.629215 -30.190578,119.671957 L-30.2872519,119.753755 L5.10423149,176.837709 L5.22894813,176.76328 C5.7278147,176.464091 6.27317326,176.313023 6.85026447,176.313023 C7.04803997,176.313023 7.24950531,176.331446 7.44875675,176.368292 L7.57273543,176.391136 L20.0458755,140.870168 L19.9337043,140.811214 C19.8827845,140.783948 19.8333406,140.772895 19.7934903,140.764052 C19.7639716,140.757419 19.7381427,140.750787 19.7226454,140.741207 C18.6422598,140.065452 18.0732863,138.814901 18.2725377,137.556243 L18.2909869,137.439073 L-29.4548236,118.742702 L-29.5190269,118.852503 Z M24.5585516,138.473707 L24.5371505,138.595299 C24.4663056,139.0065 24.3194499,139.391172 24.1017492,139.73826 C23.8936422,140.069874 23.6198559,140.360957 23.2892461,140.603403 L23.1711712,140.69036 L55.59676,185.516404 L55.7045034,185.471452 C56.0889849,185.312277 56.4956054,185.231953 56.9140334,185.231953 C57.1273062,185.231953 57.342055,185.253324 57.552376,185.296065 L57.6940659,185.324805 L67.6669694,141.012393 L67.5636538,140.960809 C67.5289693,140.943123 67.4928089,140.927648 67.4573864,140.911435 C67.4020388,140.88638 67.3466911,140.861325 67.2935574,140.828164 C66.3947121,140.265157 65.838284,139.293898 65.8065513,138.231261 L65.8021235,138.086825 L24.5585516,138.473707 Z M58.3124833,185.558408 L58.4113711,185.61073 C58.4423657,185.627679 58.4748363,185.64168 58.506569,185.656419 C58.5405155,185.671894 58.5752,185.687369 58.6076706,185.707266 C59.1205586,186.027826 59.529393,186.492085 59.7913718,187.049932 L59.8489333,187.172998 L108.85667,168.931306 L108.839696,168.814135 C108.757782,168.231233 108.839696,167.640224 109.075108,167.105957 L109.123814,166.996156 L71.4748858,140.089034 L71.3870675,140.192203 C70.7819335,140.901855 69.9015374,141.307898 68.9739112,141.307898 C68.7908951,141.307898 68.606403,141.291686 68.4263388,141.259998 L68.2868628,141.23568 L58.3124833,185.558408 Z M8.25092829,176.629898 L8.36309947,176.689589 C8.41623318,176.718328 8.47010487,176.744857 8.52323859,176.772123 C8.71953815,176.871608 8.90476819,176.965933 9.06195544,177.110369 C9.73203065,177.728644 10.0892073,178.597472 10.0670683,179.55694 L10.0633784,179.68369 L53.9621602,187.426498 L54.0049624,187.310802 C54.0315293,187.240057 54.0529303,187.167839 54.0743314,187.096358 C54.1156576,186.958554 54.1555079,186.827383 54.2285668,186.710213 C54.4012514,186.434605 54.6300215,186.184053 54.9266848,185.943817 L55.0351661,185.856124 L22.5800586,140.989549 L22.4752671,141.026395 C22.1859835,141.1303 21.8664433,141.181885 21.5262399,141.181885 C21.3122291,141.181885 21.0856728,141.161988 20.8509989,141.12072 L20.7277582,141.100087 L8.25092829,176.629898 Z M164.954067,145.128086 C164.9275,145.199567 164.905361,145.271785 164.88396,145.343266 C164.844848,145.474438 164.807212,145.59824 164.737843,145.708778 C164.676591,145.806788 164.602794,145.893745 164.525308,145.985859 L164.405757,146.128085 L194.928863,191.845064 L194.046253,154.685188 L193.925964,154.665291 C193.360681,154.571702 192.92159,154.374208 192.582124,154.061018 C191.964445,153.492116 191.689183,152.653502 191.827183,151.76183 L191.847846,151.629185 L165.000559,145.005757 L164.954067,145.128086 Z M196.839463,152.715404 C196.725078,153.227562 196.53911,153.608549 196.25573,153.915108 C195.919955,154.279146 195.47127,154.51717 194.883847,154.643184 L194.764296,154.668239 L195.641003,191.55914 L195.764243,191.576826 C196.237281,191.643885 196.632094,191.780215 196.97156,191.992448 C196.989271,192.003502 197.00772,192.024135 197.029121,192.047717 C197.055688,192.077931 197.085945,192.111829 197.128009,192.142779 L197.228373,192.215734 L235.697184,155.130287 L235.623387,155.026381 C235.382809,154.69182 235.219718,154.34989 235.123044,153.97922 L235.09574,153.872366 L196.86603,152.596023 L196.839463,152.715404 Z M163.799147,146.662351 C163.492152,146.864267 163.160066,147.011651 162.809531,147.09787 L162.682601,147.129558 L166.973149,180.741169 L167.071298,180.765487 C167.36132,180.836969 167.604849,180.936453 167.815908,181.067624 C168.79224,181.679267 169.233545,182.878971 168.887438,183.985086 L168.84685,184.116995 L192.432317,193.311533 L192.493568,193.195837 C192.510541,193.164886 192.524563,193.133199 192.538584,193.101511 C192.554819,193.065402 192.570317,193.03003 192.591718,192.995395 C192.909782,192.489131 193.370274,192.083089 193.923751,191.820746 L194.077986,191.747791 L163.92165,146.58129 L163.799147,146.662351 Z M60.0297355,187.8038 L60.0474468,187.921708 C60.135265,188.497978 60.0304735,189.124359 59.7463557,189.733791 L59.6946979,189.845066 L87.1485943,209.526698 L87.2371505,209.442689 C87.7234716,208.982115 88.3551725,208.728615 89.0163921,208.728615 C89.2717291,208.728615 89.5263282,208.766935 89.7713336,208.8421 L89.8879326,208.877472 L110.073579,170.880456 L109.980595,170.803817 C109.565119,170.461886 109.262552,170.087531 109.08175,169.690332 L109.024926,169.565793 L60.0297355,187.8038 Z M128.714658,210.317412 C129.102092,210.317412 129.479194,210.388156 129.837108,210.526697 L129.964777,210.576071 L160.529947,146.807524 L160.414086,146.738991 C160.400065,146.730148 160.385306,146.723515 160.370546,146.716883 C159.953594,146.458225 159.613391,146.108188 159.346984,145.672669 L159.276877,145.558446 L114.848972,167.040371 L114.901368,167.168595 C115.293967,168.119221 115.204673,169.201018 114.663742,170.062476 C114.306565,170.631378 113.778918,171.065423 113.137624,171.318186 L113.003313,171.371244 L127.626893,210.502379 L127.759727,210.461848 C128.072626,210.366049 128.39438,210.317412 128.714658,210.317412 Z M130.528584,210.912106 L130.623044,210.985061 C130.739643,211.075702 130.852553,211.164869 130.948488,211.262879 L131.040734,211.356468 L164.806474,185.180369 L164.683971,185.062462 C163.821286,184.23048 163.656719,182.890025 164.294324,181.87455 C164.734153,181.17374 165.493522,180.730115 166.326688,180.6859 L166.485352,180.677794 L162.210301,147.188511 L162.049424,147.189985 C161.801467,147.189985 161.541702,147.153876 161.256846,147.080921 L161.139509,147.050707 L130.528584,210.912106 Z M90.5196335,209.225298 L90.6155694,209.301938 C90.6524678,209.330678 90.6893662,209.349101 90.7196229,209.363839 C90.7424999,209.37563 90.7616871,209.38521 90.7727566,209.394789 C91.1926606,209.781672 91.4598051,210.321834 91.5468854,210.955584 L91.5631207,211.076439 L125.618143,212.842833 L125.647662,212.724926 C125.728839,212.399208 125.816657,212.08307 125.996721,211.795672 C126.232871,211.419106 126.548721,211.098546 126.933941,210.843572 L127.031353,210.778723 L112.358329,171.516417 L112.246158,171.526734 C112.175313,171.53263 112.10373,171.535577 112.032885,171.535577 C111.655783,171.535577 111.259494,171.453779 110.823355,171.285762 L110.700852,171.238599 L90.5196335,209.225298 Z M131.328542,211.735244 L131.396435,211.847256 C131.576499,212.145708 131.70343,212.445634 131.773537,212.738191 L131.809697,212.887049 L192.362948,195.90254 L192.309076,195.753682 C192.092113,195.150146 192.062595,194.503868 192.224948,193.882645 L192.258156,193.755895 L168.640219,184.548092 L168.573802,184.646103 C168.101502,185.349123 167.313352,185.76843 166.465426,185.76843 C166.068399,185.76843 165.670635,185.673368 165.314934,185.495033 L165.232281,185.453029 L131.328542,211.735244 Z M128.68514,216.654178 C128.090337,216.654178 127.50808,216.486161 127.001096,216.169286 C126.16793,215.648284 125.649138,214.744084 125.577555,213.688816 L125.5687,213.558382 L91.5240083,211.791987 L91.4952276,211.910631 C91.3764147,212.400682 91.1933985,212.767668 90.9181364,213.063909 C90.4281254,213.594491 89.7314834,213.898838 89.0082744,213.898838 C88.3522206,213.898838 87.7264235,213.654181 87.2445302,213.209819 C86.4298132,212.458899 86.2039949,211.259195 86.6836743,210.226034 L86.7353321,210.115496 L59.2762699,190.429443 L59.1877137,190.523031 C58.5707722,191.175942 57.7176809,191.550297 56.8476163,191.550297 C56.2786427,191.550297 55.7207387,191.388911 55.2329416,191.083827 C54.2839144,190.490607 53.7474115,189.433128 53.7975933,188.254795 L53.8034971,188.126571 L9.96080082,180.393343 L9.92095053,180.513461 C9.76966703,180.961508 9.54163483,181.352075 9.24349564,181.674108 C8.63319586,182.334388 7.76755906,182.713164 6.86649977,182.713164 C6.05178278,182.713164 5.27248826,182.408817 4.67399597,181.856127 C3.37664772,180.660108 3.28071184,178.682954 4.45481939,177.353553 L4.52787825,177.271755 L-30.8754126,120.169377 L-30.9912736,120.218751 C-31.400846,120.392664 -31.8325575,120.480357 -32.2760764,120.480357 C-33.0856276,120.480357 -33.8575425,120.178957 -34.450131,119.6329 C-35.7607627,118.424353 -35.8419392,116.377192 -34.6316712,115.069161 C-34.6146979,115.050001 -34.5866551,115.033789 -34.5556605,115.014629 C-34.518762,114.992521 -34.4766979,114.967466 -34.4368476,114.929883 L-34.3431256,114.843664 L-49.8662886,92.1539284 L-49.9806737,92.2084604 C-50.4205028,92.4199562 -50.9112517,92.5312309 -51.3983108,92.5312309 C-52.2063861,92.5312309 -52.9783009,92.230568 -53.5708894,91.6837741 C-54.8815211,90.475227 -54.9626976,88.4280661 -53.7531676,87.1200349 C-53.1436058,86.4612294 -52.2794449,86.0839268 -51.3805996,86.0839268 C-50.998332,86.0839268 -50.6227061,86.1502496 -50.2647915,86.2806842 L-50.1452406,86.3248994 L-26.7450041,43.7147704 L-26.8497956,43.6381309 C-28.213561,42.6403426 -28.5751654,40.8275219 -27.6925553,39.4207436 C-27.3708012,38.907848 -26.9051432,38.498858 -26.3457632,38.2379886 L-26.2299022,38.1834566 L-40.967129,-10.3006534 L-41.0719205,-10.304338 C-41.6431079,-10.3293933 -42.1648515,-10.486357 -42.6216539,-10.7722816 C-43.340435,-11.2225391 -43.8407775,-11.9248228 -44.0304354,-12.750909 C-44.2200932,-13.5762583 -44.0761894,-14.4273997 -43.6252908,-15.1451588 C-43.0408199,-16.0766243 -42.0334932,-16.6329982 -40.9302306,-16.6329982 C-40.3346902,-16.6329982 -39.7524332,-16.4657176 -39.2461869,-16.1481055 C-38.9251707,-15.9476635 -38.639577,-15.6808988 -38.3960475,-15.3559176 L-38.3347961,-15.2748565 L17.6327192,-31.2291523 L17.6157459,-31.3551654 C17.5139063,-32.1097704 17.6666657,-32.8385833 18.0577889,-33.4620168 C18.6422598,-34.3934823 19.6503245,-34.9498562 20.7528491,-34.9498562 C21.3483895,-34.9498562 21.9306465,-34.7818386 22.4376307,-34.4649635 C22.5726789,-34.3794809 22.6841121,-34.26968 22.8014491,-34.1532468 C22.8368716,-34.1178747 22.8722941,-34.0832395 22.9091925,-34.0486043 L22.9977487,-33.9631217 L61.9196723,-62.0868974 L61.8613728,-62.1989091 C61.2311479,-63.4244053 61.4178539,-64.8591866 62.3373624,-65.8525533 C62.9476622,-66.5128327 63.8140369,-66.8916091 64.7143583,-66.8916091 C65.5290752,-66.8916091 66.3083698,-66.5865246 66.906862,-66.0338354 C67.9171406,-65.1031067 68.2005205,-63.6152673 67.6123597,-62.3330283 L67.559964,-62.218069 L128.505075,-22.0626172 L128.588466,-22.1259922 C129.169247,-22.5688805 129.8836,-22.8135376 130.599429,-22.8135376 C131.38389,-22.8135376 132.134403,-22.5202438 132.710757,-21.9881883 C133.80295,-20.9808201 134.025816,-19.3500184 133.253163,-18.0220904 L133.200768,-17.9314494 L169.157535,23.9977664 L169.263802,23.9380759 C169.764883,23.655836 170.324263,23.5062414 170.881429,23.5062414 C171.454092,23.5062414 172.012734,23.6668898 172.496841,23.9697635 C173.980895,24.8997552 174.431794,26.8614335 173.501216,28.3433776 C173.474649,28.3728543 173.45989,28.3890665 173.446606,28.4082264 L173.378713,28.5099213 L226.530142,80.3764894 L226.630505,80.2998498 C227.20981,79.8650676 227.91826,79.625569 228.625972,79.625569 C229.410432,79.625569 230.160208,79.9181258 230.737299,80.4501813 C232.047193,81.6579915 232.129107,83.7051524 230.918839,85.0139205 C230.557973,85.4044876 230.091577,85.6741999 229.451758,85.8635881 L229.329993,85.8989602 L238.119196,149.97775 L238.245388,149.97996 C239.076341,149.993962 239.817261,150.279149 240.386972,150.80531 C241.696866,152.01312 241.77878,154.060281 240.56925,155.369049 C239.967068,156.019748 239.14571,156.378628 238.256458,156.378628 L238.25572,156.378628 C237.557602,156.378628 236.859484,156.146498 236.29051,155.724981 L236.190147,155.650552 L197.754544,192.703575 L197.830555,192.80748 C198.611325,193.866433 198.668887,195.262894 197.975934,196.365325 C197.391464,197.297528 196.384137,197.853901 195.280874,197.853901 C194.686072,197.853901 194.103815,197.685884 193.596831,197.369009 C193.273601,197.166356 192.986531,196.898854 192.743739,196.573136 L192.683226,196.492812 L131.851762,213.554697 L131.84512,213.660077 C131.814863,214.21645 131.658414,214.723451 131.380938,215.165602 C130.795729,216.097804 129.787664,216.654178 128.68514,216.654178 Z" id="Fill-14" fill="#64EFFF" mask="url(#mask-2)"></path>
                        </g>
                        <g id="Group-19">
                            <mask id="mask-4" fill="white">
                                <use xlink:href="#path-3"></use>
                            </mask>
                            <g id="Clip-18"></g>
                            <path d="M109.911817,169.107798 C109.556854,167.939781 110.218074,166.705442 111.387753,166.351721 C112.557433,165.997263 113.79353,166.656805 114.147755,167.824822 C114.502717,168.993575 113.842236,170.227914 112.671818,170.581636 C111.502138,170.935357 110.266041,170.275814 109.911817,169.107798" id="Fill-17" fill="#FF6F00" mask="url(#mask-4)"></path>
                        </g>
                    </g>
                    <g id="Group-23">
                        <mask id="mask-6" fill="white">
                            <use xlink:href="#path-5"></use>
                        </mask>
                        <g id="Clip-22"></g>
                        <path d="M-8.60559585,39.0444728 C-7.2241192,39.4269337 -5.8906105,39.9833075 -4.64049221,40.7040143 C-4.64049221,40.7040143 15.252919,52.1726843 34.3817951,63.2014136" id="Stroke-21" stroke="#FFFFFF" stroke-width="6.691" stroke-linecap="round" stroke-linejoin="round" mask="url(#mask-6)"></path>
                    </g>
                    <g id="Group-26">
                        <mask id="mask-8" fill="white">
                            <use xlink:href="#path-7"></use>
                        </mask>
                        <g id="Clip-25"></g>
                        <path d="M174.882545,42.7841155 C173.501068,43.1673133 172.16756,43.7229502 170.917441,44.443657 C170.917441,44.443657 151.02403,55.9130639 131.895154,66.9410564" id="Stroke-24" stroke="#FFFFFF" stroke-width="6.691" stroke-linecap="round" stroke-linejoin="round" mask="url(#mask-8)"></path>
                    </g>
                    <g id="Group-29">
                        <mask id="mask-10" fill="white">
                            <use xlink:href="#path-9"></use>
                        </mask>
                        <g id="Clip-28"></g>
                        <path d="M83.292341,152.062199 L83.292341,184.493266" id="Stroke-27" stroke="#FFFFFF" stroke-width="6.691" stroke-linecap="round" stroke-linejoin="round" mask="url(#mask-10)"></path>
                    </g>
                    <g id="Group-32">
                        <mask id="mask-12" fill="white">
                            <use xlink:href="#path-11"></use>
                        </mask>
                        <g id="Clip-31"></g>
                        <path d="M57.6425557,29.7279009 C56.4234321,29.6372599 55.5090894,28.5768335 55.5998595,27.3594434 C55.6906296,26.1420532 56.751828,25.2290106 57.9709516,25.3196516 C59.1900752,25.4102927 60.1051559,26.4707191 60.0143858,27.6873723 C59.9236157,28.9047624 58.8616793,29.818542 57.6425557,29.7279009" id="Fill-30" fill="#FF6F00" mask="url(#mask-12)"></path>
                    </g>
                    <g id="Group-35">
                        <mask id="mask-14" fill="white">
                            <use xlink:href="#path-13"></use>
                        </mask>
                        <g id="Clip-34"></g>
                        <path d="M135.911104,77.8913775 C134.896397,77.8162118 134.134814,76.9333829 134.210087,75.9201193 C134.286098,74.9061188 135.170184,74.1456184 136.18489,74.2215211 C137.200334,74.2966868 137.96118,75.1795157 137.885907,76.1927793 C137.809896,77.2067798 136.92581,77.9672802 135.911104,77.8913775" id="Fill-33" fill="#FF6F00" mask="url(#mask-14)"></path>
                    </g>
                    <g id="Group-38">
                        <mask id="mask-16" fill="white">
                            <use xlink:href="#path-15"></use>
                        </mask>
                        <g id="Clip-37"></g>
                        <path d="M0.867629321,74.4086248 C0.512666573,73.2406082 1.17388616,72.0062689 2.34356591,71.6518109 C3.51324565,71.2980898 4.74934254,71.9576323 5.10356732,73.1256488 C5.45853007,74.2944023 4.79804844,75.5280047 3.62763073,75.8824627 C2.45795099,76.2361838 1.2218541,75.5766414 0.867629321,74.4086248" id="Fill-36" fill="#FF6F00" mask="url(#mask-16)"></path>
                    </g>
                    <g id="Group-41">
                        <mask id="mask-18" fill="white">
                            <use xlink:href="#path-17"></use>
                        </mask>
                        <g id="Clip-40"></g>
                        <path d="M43.5858095,55.3372354 C43.294312,54.3777669 43.8374567,53.3645033 44.7982914,53.0734203 C45.7583881,52.7830743 46.7738325,53.3247097 47.064592,54.2841782 C47.3560895,55.2436467 46.8136828,56.2569103 45.8528481,56.5479933 C44.8927513,56.8390763 43.8773069,56.2967039 43.5858095,55.3372354" id="Fill-39" fill="#080052" mask="url(#mask-18)"></path>
                    </g>
                    <g id="Group-44">
                        <mask id="mask-20" fill="white">
                            <use xlink:href="#path-19"></use>
                        </mask>
                        <g id="Clip-43"></g>
                        <path d="M113.184411,39.6791811 C113.029438,38.5170598 113.847106,37.4492643 115.010882,37.2937744 C116.174658,37.1390214 117.243974,37.9555276 117.399686,39.1176488 C117.554659,40.27977 116.73699,41.3483025 115.573214,41.5030555 C114.409438,41.6585454 113.339384,40.8420392 113.184411,39.6791811" id="Fill-42" fill="#080052" mask="url(#mask-20)"></path>
                    </g>
                    <g id="Group-47">
                        <mask id="mask-22" fill="white">
                            <use xlink:href="#path-21"></use>
                        </mask>
                        <g id="Clip-46"></g>
                        <path d="M19.2555853,138.183804 C19.1006119,137.021682 19.9175428,135.953887 21.0820568,135.798397 C22.2458328,135.643644 23.3151488,136.46015 23.4701222,137.622271 C23.6258335,138.784392 22.8081646,139.852925 21.6443886,140.007678 C20.4806126,140.163168 19.4105586,139.345925 19.2555853,138.183804" id="Fill-45" fill="#080052" mask="url(#mask-22)"></path>
                    </g>
                </g>
                <g id="Group-71" transform="translate(45.905512, 53.700787)">
                    <path d="M42.3541192,84.4254054 C19.2776711,84.4254054 0.569767671,65.717502 0.569767671,42.6410538 C0.569767671,19.563954 19.2776711,0.856702298 42.3541192,0.856702298 C65.4305673,0.856702298 84.1384707,19.563954 84.1384707,42.6410538 C84.1384707,65.717502 65.4305673,84.4254054 42.3541192,84.4254054 Z" id="Fill-51" fill="#007BFF"></path>
                    <g id="Group-2" transform="translate(7.795276, 8.661417)" stroke-width="3.473">
                        <path d="M51.9685039,63.3049112 C46.8195584,66.5151482 40.7529869,68.3843696 34.249603,68.4245679 C15.4474714,68.5379271 0.114237951,53.3132193 0.000634738896,34.4184059 C-0.112968473,15.5235924 15.0370598,0.114776309 33.8391914,0.000613109508 C38.1633136,-0.0251138087 42.3042307,0.759557196 46.1187386,2.21393204" id="Stroke-53" stroke="#FFFFFF" stroke-linecap="round" stroke-linejoin="round"></path>
                        <path d="M9.52755906,22.519685 C15.7873782,19.3678644 24.5756382,17.3805439 34.3176441,17.3239847 C38.0587627,17.3030655 41.6627042,17.5680416 45.0393701,18.0770746" id="Stroke-55" stroke="#FF6F00" stroke-linecap="round" stroke-linejoin="round"></path>
                        <path d="M51.9672287,34.1088854 C52.0821179,53.0031498 44.4193325,68.367151 34.8535937,68.4250373 C25.2862368,68.4821197 17.4389814,53.2113798 17.3240922,34.3163115 C17.2100121,15.4212431 24.8719884,0.0572418808 34.4377272,0.000159511056 C44.0050842,-0.0569228587 51.8523395,15.213817 51.9672287,34.1088854 Z" id="Stroke-57" stroke="#FFFFFF"></path>
                        <path d="M51.1023622,19.0551181 C61.9100111,21.9602825 69.2516765,27.640335 69.2911655,34.2135952 C69.3142008,37.9004182 67.0361784,41.3332021 63.1317024,44.1732283" id="Stroke-59" stroke="#FFFFFF" stroke-linecap="round" stroke-linejoin="round"></path>
                        <path d="M5.54225259,44.1732283 C2.06099827,41.4189756 0.0199737854,38.0900711 0.000150611407,34.493811 C-0.0211974221,30.6848074 2.22797039,27.1456049 6.06299213,24.2519685" id="Stroke-61" stroke="#FFFFFF" stroke-linecap="round" stroke-linejoin="round"></path>
                        <path d="M52.8346457,5.19685039 C62.1451676,11.2547236 68.3537557,21.9051031 68.4245581,34.0685365 C68.4851335,44.2493198 64.2330532,53.4238253 57.4273645,59.7637795" id="Stroke-63" stroke="#64EFFF" stroke-linecap="round" stroke-linejoin="round"></path>
                        <path d="M33.7795276,0.866141732 C33.7795276,0.866141732 33.8339333,18.9852788 33.901009,31.1811024" id="Stroke-65" stroke="#FFFFFF" stroke-linecap="round"></path>
                        <path d="M33.7795276,40.7086614 C33.8503296,53.5632993 33.9084618,68.4251969 33.9084618,68.4251969" id="Stroke-67" stroke="#FFFFFF" stroke-linecap="round"></path>
                        <path d="M58.0314961,46.5412206 C51.9346865,49.3225433 43.7556859,51.0492554 34.7545984,51.1011342 C24.7913229,51.1592074 15.8087545,49.1537437 9.52755906,45.9055118" id="Stroke-69" stroke="#64EFFF" stroke-linecap="round" stroke-linejoin="round"></path>
                    </g>
                </g>
            </g>
        </g>
    </g>
</svg>