<?xml version="1.0" encoding="utf-8"?>
<!-- Generator: Adobe Illustrator 24.1.2, SVG Export Plug-In . SVG Version: 6.00 Build 0)  -->
<svg version="1.1" id="Layer_1" xmlns="http://www.w3.org/2000/svg" xmlns:xlink="http://www.w3.org/1999/xlink" x="0px" y="0px"
	 viewBox="0 0 356 355" style="enable-background:new 0 0 356 355;" xml:space="preserve">
<style type="text/css">
	.st0{fill:none;stroke:#FFFFFF;stroke-width:2;stroke-linecap:round;stroke-linejoin:round;}
	.st1{fill:none;stroke:#004A99;stroke-width:2;stroke-linecap:round;stroke-linejoin:round;}
	.st2{fill:none;stroke:#66B0FF;stroke-width:2;stroke-linecap:round;stroke-linejoin:round;}
	.st3{fill:none;stroke:#66B0FF;stroke-width:4;stroke-linecap:round;stroke-linejoin:round;}
	.st4{fill:none;stroke:#FFFFFF;stroke-width:4;stroke-linecap:round;stroke-linejoin:round;}
	.st5{fill:none;stroke:#004A99;stroke-width:4;stroke-linecap:round;stroke-linejoin:round;}
	.st6{fill:none;stroke:#004A99;stroke-width:8;stroke-linecap:round;stroke-linejoin:round;}
	.st7{fill:none;stroke:#66B0FF;stroke-width:8;stroke-linecap:round;stroke-linejoin:round;}
	.st8{fill:none;stroke:#FFFFFF;stroke-width:8;stroke-linecap:round;stroke-linejoin:round;}
	.st9{fill-rule:evenodd;clip-rule:evenodd;fill:#66B0FF;}
	.st10{filter:url(#Adobe_OpacityMaskFilter);}
	.st11{fill-rule:evenodd;clip-rule:evenodd;fill:#FFFFFF;}
	.st12{mask:url(#mask-2_1_);fill:#FFFFFF;}
	.st13{filter:url(#Adobe_OpacityMaskFilter_1_);}
	.st14{mask:url(#mask-4_1_);fill-rule:evenodd;clip-rule:evenodd;fill:#004A99;}
</style>
<desc>Created with Sketch.</desc>
<path id="Stroke-1" class="st0" d="M0.9,185.2c-0.1-2.5-0.2-5.1-0.2-7.7C0.7,80,80,0.7,177.5,0.7"/>
<path id="Stroke-3" class="st1" d="M223.5,6.8c13.8,3.7,27,9.1,39.3,15.9"/>
<path id="Stroke-5" class="st2" d="M266,24.5c43.6,25.3,75.5,68.7,85.2,119.9"/>
<path id="Stroke-7" class="st1" d="M354.3,179.4c-0.9,87.8-66.2,160.5-150.8,173"/>
<path id="Stroke-9" class="st2" d="M165.9,354c-74.5-4.9-136.5-56-157.5-124.9"/>
<path id="Stroke-11" class="st3" d="M170.3,35.9c2.4-0.1,4.8-0.2,7.2-0.2c78.2,0,141.8,63.6,141.8,141.8c0,9.5-0.9,18.9-2.7,27.9"/>
<path id="Stroke-13" class="st4" d="M302,245.5c-18.1,33-48.9,58.1-85.8,68.5"/>
<path id="Stroke-15" class="st5" d="M195.2,318.3c-5.8,0.7-11.7,1.1-17.7,1.1c-38.5,0-73.5-15.4-99.1-40.5"/>
<path id="Stroke-17" class="st3" d="M48.3,236c-8.1-17.8-12.6-37.7-12.6-58.5c0-45.5,21.5-86,54.9-112"/>
<path id="Stroke-19" class="st6" d="M80.4,123.5c19-34.1,55.4-57.2,97.2-57.2c32,0,60.8,13.5,81.1,35.2"/>
<path id="Stroke-21" class="st7" d="M275.4,124.8c8.5,15.7,13.3,33.6,13.3,52.7c0,61.3-49.9,111.2-111.2,111.2
	c-17.3,0-33.7-4-48.4-11.1"/>
<path id="Stroke-23" class="st8" d="M112.8,267.9c-28.1-20.2-46.5-53.2-46.5-90.4c0-6,0.5-12,1.4-17.7"/>
<g id="square">
	<path id="square_x5F_left" class="st9" d="M134.1,158.7c-2.3-1.3-5.1,0.3-5.1,2.9l0,39.3c0,3.6,1.9,6.9,5.1,8.7l34.6,19.7
		c2.3,1.3,5.1-0.3,5.1-2.9l0-39.3c0-3.6-1.9-6.9-5.1-8.7L134.1,158.7z"/>
	<defs>
		<filter id="Adobe_OpacityMaskFilter" filterUnits="userSpaceOnUse" x="135.9" y="126" width="82.8" height="47.8">
			<feColorMatrix  type="matrix" values="1 0 0 0 0  0 1 0 0 0  0 0 1 0 0  0 0 0 1 0"/>
		</filter>
	</defs>
	<mask maskUnits="userSpaceOnUse" x="135.9" y="126" width="82.8" height="47.8" id="mask-2_1_">
		<g class="st10">
			<polygon id="path-1_1_" class="st11" points="135.9,126 218.7,126 218.7,173.8 135.9,173.8 			"/>
		</g>
	</mask>
	<path id="square_x5F_top" class="st12" d="M217,152.8c2.3-1.3,2.3-4.5,0-5.8l-34.6-19.7c-3.1-1.8-7-1.8-10.2,0L137.6,147
		c-2.3,1.3-2.3,4.5,0,5.8l34.6,19.7c3.1,1.8,7,1.8,10.2,0L217,152.8z"/>
	<defs>
		<filter id="Adobe_OpacityMaskFilter_1_" filterUnits="userSpaceOnUse" x="180.7" y="158.3" width="44.9" height="71.4">
			<feColorMatrix  type="matrix" values="1 0 0 0 0  0 1 0 0 0  0 0 1 0 0  0 0 0 1 0"/>
		</filter>
	</defs>
	<mask maskUnits="userSpaceOnUse" x="180.7" y="158.3" width="44.9" height="71.4" id="mask-4_1_">
		<g class="st13">
			<polygon id="path-3_1_" class="st11" points="180.7,158.3 225.6,158.3 225.6,229.7 180.7,229.7 			"/>
		</g>
	</mask>
	<path id="square_x5F_right" class="st14" d="M225.6,161.6c0-2.6-2.8-4.2-5.1-2.9l-34.6,19.6c-3.2,1.8-5.1,5.1-5.1,8.7l0,39.3
		c0,2.6,2.8,4.2,5.1,2.9l34.6-19.6c3.1-1.8,5.1-5.1,5.1-8.7L225.6,161.6z"/>
</g>
</svg>
