<svg width="116" height="116" viewBox="0 0 116 116" fill="none" xmlns="http://www.w3.org/2000/svg">
<path d="M43.953 77.2125C43.9908 77.491 43.9648 77.7744 43.8768 78.0413C43.7889 78.3082 43.6414 78.5516 43.4455 78.7531L21.2242 100.974C20.9686 101.224 20.6451 101.394 20.294 101.462C19.9429 101.529 19.5796 101.492 19.2493 101.355C18.919 101.218 18.6364 100.987 18.4364 100.69C18.2365 100.394 18.1282 100.045 18.1249 99.6875V87H5.43737C5.07883 87.0013 4.72818 86.8948 4.43085 86.6945C4.13353 86.4941 3.90325 86.209 3.76987 85.8762C3.63162 85.5461 3.594 85.1824 3.66171 84.8309C3.72943 84.4794 3.89947 84.1558 4.15049 83.9006L23.363 64.6881L26.988 61.0631C27.1984 60.8589 27.4546 60.7079 27.7352 60.6228C28.0158 60.5377 28.3127 60.5209 28.6011 60.5737C28.8901 60.6226 29.1623 60.7427 29.3933 60.923C29.6243 61.1034 29.8068 61.3384 29.9242 61.6069C32.6532 67.652 37.2539 72.6593 43.0467 75.8894C43.2906 76.0238 43.4996 76.2136 43.657 76.4433C43.8144 76.6731 43.9157 76.9365 43.953 77.2125ZM112.23 85.8762C112.096 86.209 111.866 86.4941 111.569 86.6945C111.272 86.8948 110.921 87.0013 110.562 87H97.8749V99.6875C97.8716 100.045 97.7632 100.394 97.5633 100.69C97.3634 100.987 97.0807 101.218 96.7504 101.355C96.4202 101.492 96.0569 101.529 95.7057 101.462C95.3546 101.394 95.0311 101.224 94.7755 100.974L72.5542 78.7531C72.3583 78.5516 72.2108 78.3082 72.1229 78.0413C72.035 77.7744 72.0089 77.491 72.0467 77.2125C72.084 76.9365 72.1854 76.6731 72.3428 76.4433C72.5001 76.2136 72.7091 76.0238 72.953 75.8894C78.7459 72.6593 83.3465 67.652 86.0755 61.6069C86.193 61.3384 86.3755 61.1034 86.6064 60.923C86.8374 60.7427 87.1097 60.6226 87.3986 60.5737C87.687 60.5209 87.9839 60.5377 88.2645 60.6228C88.5451 60.7079 88.8013 60.8589 89.0117 61.0631L92.6367 64.6881L111.849 83.9006C112.1 84.1558 112.27 84.4794 112.338 84.8309C112.406 85.1824 112.368 85.5461 112.23 85.8762Z" fill="url(#paint0_linear_5301_8293)"/>
<path d="M43.9533 77.2125C43.9911 77.491 43.9651 77.7744 43.8771 78.0413C43.7892 78.3082 43.6417 78.5516 43.4458 78.7531L39.8208 82.3781C32.5684 78.4136 26.7947 72.2074 23.3633 64.6881L26.9883 61.0631C27.1987 60.8589 27.4549 60.7079 27.7355 60.6228C28.0161 60.5377 28.313 60.5209 28.6014 60.5737C28.8904 60.6226 29.1626 60.7427 29.3936 60.923C29.6246 61.1034 29.807 61.3384 29.9245 61.6069C32.6535 67.652 37.2541 72.6593 43.047 75.8894C43.2909 76.0238 43.4999 76.2136 43.6573 76.4433C43.8146 76.6731 43.916 76.9365 43.9533 77.2125ZM92.637 64.6881C89.2057 72.2074 83.4319 78.4136 76.1795 82.3781L72.5545 78.7531C72.3586 78.5516 72.2111 78.3082 72.1232 78.0413C72.0353 77.7744 72.0092 77.491 72.047 77.2125C72.0843 76.9365 72.1857 76.6731 72.343 76.4433C72.5004 76.2136 72.7094 76.0238 72.9533 75.8894C78.7462 72.6593 83.3468 67.652 86.0758 61.6069C86.1933 61.3384 86.3757 61.1034 86.6067 60.923C86.8377 60.7427 87.11 60.6226 87.3989 60.5737C87.6873 60.5209 87.9842 60.5377 88.2648 60.6228C88.5454 60.7079 88.8016 60.8589 89.012 61.0631L92.637 64.6881Z" fill="#080052"/>
<path d="M58 83.375C77.0193 83.375 92.4375 67.9568 92.4375 48.9375C92.4375 29.9182 77.0193 14.5 58 14.5C38.9807 14.5 23.5625 29.9182 23.5625 48.9375C23.5625 67.9568 38.9807 83.375 58 83.375Z" fill="#D3E5FF"/>
<path d="M86.909 67.6244C84.2361 71.766 80.705 75.2852 76.5544 77.9441C72.4038 80.603 67.7306 82.3395 62.8509 83.0362C57.9712 83.7328 52.9987 83.3733 48.2699 81.9821C43.5411 80.5908 39.1663 78.2002 35.4413 74.972C31.7163 71.7438 28.7281 67.7532 26.6787 63.2702C24.6293 58.7872 23.5666 53.9164 23.5625 48.9872C23.5584 44.058 24.6129 39.1854 26.6548 34.6989C28.6966 30.2125 31.6782 26.217 35.3977 22.9825C38.5152 41.76 49.5896 67.4431 86.909 67.6244Z" fill="#9FC2FC"/>
<path d="M58 76.125C73.0152 76.125 85.1875 63.9527 85.1875 48.9375C85.1875 33.9223 73.0152 21.75 58 21.75C42.9848 21.75 30.8125 33.9223 30.8125 48.9375C30.8125 63.9527 42.9848 76.125 58 76.125Z" fill="url(#paint1_linear_5301_8293)"/>
<path d="M78.2285 67.0806C73.465 72.4079 66.7943 75.6435 59.6618 76.0865C52.5292 76.5294 45.5094 74.144 40.1234 69.4471C34.7375 64.7502 31.4193 58.1201 30.8878 50.9936C30.3563 43.8671 32.6544 36.8182 37.2841 31.3744C41.7428 46.9256 52.5635 63.8544 78.2285 67.0806Z" fill="#CADAF8"/>
<path d="M60.4092 47.8319L56.7382 46.6072C55.9593 46.3485 55.298 45.8211 54.8727 45.1192C54.4474 44.4173 54.2858 43.5869 54.4171 42.7768C54.5483 41.9667 54.9636 41.2298 55.5888 40.698C56.2139 40.1663 57.0079 39.8745 57.8286 39.875H58.1719C59.0875 39.8759 59.9653 40.24 60.6128 40.8875C61.2602 41.5349 61.6243 42.4127 61.6252 43.3284V43.5C61.6269 43.7336 61.6755 43.9646 61.7682 44.179C61.8609 44.3935 61.9959 44.5871 62.165 44.7483C62.3341 44.9095 62.534 45.035 62.7526 45.1173C62.9713 45.1996 63.2043 45.2371 63.4377 45.2275C63.9272 45.208 64.39 44.999 64.7282 44.6446C65.0665 44.2902 65.2536 43.8182 65.2502 43.3284C65.2462 41.7395 64.7077 40.1983 63.7214 38.9527C62.7351 37.707 61.3583 36.8295 59.8127 36.4613V34.4375C59.8127 33.9568 59.6218 33.4958 59.2819 33.1559C58.942 32.816 58.481 32.625 58.0002 32.625C57.5195 32.625 57.0585 32.816 56.7186 33.1559C56.3787 33.4958 56.1877 33.9568 56.1877 34.4375V36.4613C54.6913 36.8157 53.3514 37.6486 52.3712 38.8335C51.3911 40.0185 50.8243 41.4909 50.7568 43.0272C50.6893 44.5635 51.1249 46.0799 51.9974 47.3462C52.8699 48.6125 54.1317 49.5597 55.5913 50.0438L59.2623 51.2686C60.0406 51.5276 60.7014 52.0551 61.1262 52.7568C61.5511 53.4585 61.7124 54.2885 61.5813 55.0982C61.4501 55.908 61.035 56.6446 60.4104 57.1763C59.7857 57.7079 58.9922 57.9999 58.1719 58H57.8286C57.3621 57.9943 56.9015 57.8954 56.4738 57.7091C56.0461 57.5228 55.6601 57.2528 55.3383 56.915C55.0165 56.5772 54.7655 56.1785 54.6001 55.7423C54.4348 55.3061 54.3583 54.8412 54.3752 54.375C54.3736 54.1414 54.325 53.9104 54.2323 53.696C54.1396 53.4815 54.0046 53.2879 53.8355 53.1267C53.6664 52.9655 53.4665 52.84 53.2478 52.7577C53.0292 52.6754 52.7962 52.6379 52.5627 52.6475C52.0732 52.667 51.6105 52.876 51.2723 53.2304C50.934 53.5848 50.7469 54.0568 50.7502 54.5466C50.7543 56.1355 51.2928 57.6767 52.2791 58.9223C53.2654 60.168 54.6422 61.0455 56.1877 61.4137V63.4375C56.1877 63.9182 56.3787 64.3792 56.7186 64.7191C57.0585 65.059 57.5195 65.25 58.0002 65.25C58.481 65.25 58.942 65.059 59.2819 64.7191C59.6218 64.3792 59.8127 63.9182 59.8127 63.4375V61.4137C61.3092 61.0593 62.6491 60.2264 63.6293 59.0415C64.6094 57.8565 65.1762 56.3841 65.2437 54.8478C65.3112 53.3115 64.8756 51.7951 64.0031 50.5288C63.1306 49.2625 61.8688 48.3153 60.4092 47.8312V47.8319Z" fill="#FF6F00"/>
<path d="M59.8125 61.4075V63.4375C59.8125 63.9182 59.6215 64.3792 59.2816 64.7191C58.9417 65.059 58.4807 65.25 58 65.25C57.5193 65.25 57.0583 65.059 56.7184 64.7191C56.3785 64.3792 56.1875 63.9182 56.1875 63.4375V61.4075C54.679 61.0513 53.3295 60.2089 52.3469 59.0102C51.3643 57.8114 50.8032 56.3228 50.75 54.7737C53.4595 57.3816 56.5077 59.6129 59.8125 61.4075Z" fill="#080052"/>
<defs>
<linearGradient id="paint0_linear_5301_8293" x1="79.7938" y1="73.0097" x2="65.1417" y2="112.192" gradientUnits="userSpaceOnUse">
<stop stop-color="#017CFF"/>
<stop offset="1" stop-color="#061526"/>
</linearGradient>
<linearGradient id="paint1_linear_5301_8293" x1="58" y1="21.75" x2="58" y2="76.125" gradientUnits="userSpaceOnUse">
<stop stop-color="white"/>
<stop offset="1" stop-color="#D1E7FF"/>
</linearGradient>
</defs>
</svg>
