<svg width="116" height="116" viewBox="0 0 116 116" fill="none" xmlns="http://www.w3.org/2000/svg">
<path d="M23.7191 42.6528L45.1559 38.1713C49.1737 37.3313 52.5625 41.5025 52.5625 45.6405V94.9371C52.5625 99.075 49.2592 102.406 45.1559 102.406H23.7191C19.6158 102.406 16.3125 99.075 16.3125 94.9371V51.6625C16.3125 47.5246 18.3978 43.7652 23.7191 42.6528Z" fill="url(#paint0_linear_5301_8284)"/>
<path d="M41.6406 82.4687C43.6687 82.4709 45.3141 80.6456 45.3125 78.3896C45.3114 76.1365 43.6659 74.3111 41.6385 74.3125L30.8567 74.3125C28.8307 74.3137 27.1885 76.138 27.1875 78.3886C27.1884 80.6393 28.8306 82.4636 30.8567 82.4648L41.6406 82.4687Z" fill="url(#paint1_linear_5301_8284)"/>
<path d="M41.6406 63.4375C43.6687 63.4394 45.3141 61.8169 45.3125 59.8116C45.3114 57.8088 43.6659 56.1863 41.6385 56.1875L30.8567 56.1875C28.8307 56.1886 27.1885 57.8102 27.1875 59.8107C27.1884 61.8113 28.8306 63.4329 30.8567 63.434L41.6406 63.4375Z" fill="url(#paint2_linear_5301_8284)"/>
<path d="M47.4022 12.6875C43.2321 12.6875 39.9508 16.0227 39.875 20.1641V102.406H91.254C95.4241 102.406 98.7812 99.0717 98.7812 94.9297V20.1641C98.7648 16.0221 95.4241 12.6875 91.254 12.6875H47.4022Z" fill="url(#paint3_linear_5301_8284)"/>
<path d="M67.8391 76.125C63.8944 76.125 60.7188 79.4165 60.7188 83.505V102.406H78.8438V83.505C78.8438 79.4165 75.6681 76.125 71.7234 76.125H67.8391Z" fill="url(#paint4_linear_5301_8284)"/>
<path d="M84.9675 42.5937C87.0912 42.5957 88.8142 40.9732 88.8125 38.9678C88.8114 36.965 87.0883 35.3425 84.9653 35.3438L53.6859 35.3438C51.5644 35.3448 49.8448 36.9664 49.8438 38.967C49.8447 40.9676 51.5643 42.5892 53.686 42.5903L84.9675 42.5937Z" fill="#007BFF"/>
<path d="M76.2246 59.8125C74.1674 59.8147 72.4983 57.9894 72.5 55.7334C72.5011 53.4802 74.1702 51.6549 76.2267 51.6563L84.1844 51.6563C86.2395 51.6574 87.9052 53.4817 87.9062 55.7324C87.9053 57.983 86.2396 59.8073 84.1844 59.8086L76.2246 59.8125Z" fill="#007BFF"/>
<path d="M53.7874 59.8125C51.6093 59.8147 49.842 57.9894 49.8438 55.7334C49.8449 53.4802 51.6122 51.6549 53.7897 51.6563L62.2155 51.6563C64.3914 51.6574 66.1551 53.4817 66.1562 55.7324C66.1553 57.983 64.3915 59.8073 62.2154 59.8086L53.7874 59.8125Z" fill="#007BFF"/>
<defs>
<linearGradient id="paint0_linear_5301_8284" x1="41.7027" y1="57.6497" x2="11.5842" y2="74.7377" gradientUnits="userSpaceOnUse">
<stop stop-color="#017CFF"/>
<stop offset="1" stop-color="#061526"/>
</linearGradient>
<linearGradient id="paint1_linear_5301_8284" x1="28.1206" y1="78.5804" x2="37.2528" y2="78.5804" gradientUnits="userSpaceOnUse">
<stop stop-color="#EAF2FF"/>
<stop offset="1" stop-color="#9BBAFF"/>
</linearGradient>
<linearGradient id="paint2_linear_5301_8284" x1="27.7543" y1="59.9773" x2="37.6219" y2="59.9773" gradientUnits="userSpaceOnUse">
<stop stop-color="#EAF2FF"/>
<stop offset="1" stop-color="#9BBAFF"/>
</linearGradient>
<linearGradient id="paint3_linear_5301_8284" x1="69.3281" y1="12.6875" x2="69.3281" y2="102.406" gradientUnits="userSpaceOnUse">
<stop stop-color="#E3F1FF"/>
<stop offset="1" stop-color="#BADBFF"/>
</linearGradient>
<linearGradient id="paint4_linear_5301_8284" x1="73.4138" y1="84.1254" x2="59.9848" y2="93.4522" gradientUnits="userSpaceOnUse">
<stop stop-color="#017CFF"/>
<stop offset="1" stop-color="#061526"/>
</linearGradient>
</defs>
</svg>
