<svg width="81" height="81" viewBox="0 0 81 81" fill="none" xmlns="http://www.w3.org/2000/svg">
<path d="M33.8116 65.626L14.9546 46.7458C13.7011 45.4958 12.7065 44.0108 12.0279 42.3757C11.3493 40.7407 11 38.9878 11 37.2176C11 35.4473 11.3493 33.6944 12.0279 32.0594C12.7065 30.4244 13.7011 28.9393 14.9546 27.6893L28.8004 13.8204C33.3065 9.31457 38.6785 5.7681 44.5924 3.39486C50.5064 1.02162 56.8398 -0.129227 63.2106 0.0117299V0.0117299C67.5762 0.110749 71.7413 1.86384 74.8638 4.9165C77.9862 7.96917 79.833 12.0936 80.0306 16.4559V16.7111C80.3268 23.2598 79.2552 29.7983 76.8841 35.9098C74.513 42.0213 70.8944 47.5717 66.2591 52.2071L52.8402 65.626C50.3168 68.1492 46.8944 69.5666 43.3259 69.5666C39.7574 69.5666 36.335 68.1492 33.8116 65.626V65.626Z" fill="url(#paint0_linear_5301_8244)"/>
<path d="M19.2779 23.3467L21.4819 21.152C18.2581 20.7412 14.9829 21.0992 11.924 22.1968C8.86517 23.2944 6.1095 25.1004 3.88237 27.4671C-1.01283 32.1999 -0.799393 39.0671 4.28605 40.4591L8.98637 41.7211C9.43343 41.8492 9.90466 41.8685 10.3607 41.7772C10.8167 41.686 11.2443 41.487 11.6076 41.1967C11.971 40.9065 12.2596 40.5335 12.4494 40.1089C12.6391 39.6843 12.7245 39.2205 12.6984 38.7562C12.6619 35.8711 13.2283 33.0103 14.3612 30.3568C15.4942 27.7033 17.1689 25.3157 19.2779 23.3467V23.3467Z" fill="url(#paint1_linear_5301_8244)"/>
<path d="M59.4191 59.0747L57.2104 61.2833C55.2442 63.3921 52.8601 65.0679 50.2101 66.2039C47.5602 67.3399 44.7026 67.9113 41.8196 67.8814C41.3549 67.8542 40.8906 67.9389 40.4654 68.1283C40.0403 68.3177 39.6668 68.6064 39.3764 68.9701C39.0859 69.3337 38.8869 69.7617 38.7961 70.2182C38.7053 70.6747 38.7254 71.1463 38.8546 71.5934L40.1213 76.2938C41.4901 81.3978 48.3712 81.5973 53.1133 76.6974C55.4836 74.4683 57.2911 71.7086 58.3873 68.645C59.4835 65.5815 59.8371 62.3015 59.4191 59.0747V59.0747Z" fill="url(#paint2_linear_5301_8244)"/>
<path d="M55.9389 34.7843C61.551 34.7843 66.1005 30.2348 66.1005 24.6227C66.1005 19.0106 61.551 14.4611 55.9389 14.4611C50.3268 14.4611 45.7773 19.0106 45.7773 24.6227C45.7773 30.2348 50.3268 34.7843 55.9389 34.7843Z" fill="url(#paint3_linear_5301_8244)"/>
<path style="mix-blend-mode:soft-light" d="M15.3438 69.3384C16.163 64.7185 17.8576 60.2977 20.3364 56.3139V56.3139C20.4988 56.0448 20.8329 55.9288 20.9814 56.0819L28.5863 63.6822C28.7394 63.8353 28.6188 64.1694 28.3543 64.3272C24.377 66.8125 19.9606 68.5135 15.3438 69.3384V69.3384Z" fill="url(#paint4_linear_5301_8244)"/>
<path style="mix-blend-mode:soft-light" d="M11.3203 65.3155C12.1435 60.6938 13.8445 56.2726 16.3315 52.291V52.291C16.4893 52.0266 16.8234 51.9059 16.9765 52.059L24.5768 59.664C24.7299 59.8125 24.6139 60.128 24.3448 60.309C20.3621 62.7927 15.9412 64.492 11.3203 65.3155V65.3155Z" fill="url(#paint5_linear_5301_8244)"/>
<path style="mix-blend-mode:overlay" d="M13.2788 67.2782C13.1029 62.1129 14.1506 56.979 16.3365 52.2957V52.2957C16.3683 52.2285 16.4158 52.17 16.4749 52.125C16.5341 52.08 16.6032 52.0499 16.6764 52.0371C16.7496 52.0244 16.8248 52.0294 16.8956 52.0518C16.9665 52.0742 17.031 52.1133 17.0836 52.1658L28.3912 63.4781C28.4428 63.5307 28.481 63.5949 28.5028 63.6652C28.5246 63.7355 28.5294 63.8101 28.5167 63.8826C28.504 63.9551 28.4742 64.0236 28.4298 64.0824C28.3854 64.1411 28.3276 64.1885 28.2613 64.2205C23.578 66.4064 18.4442 67.4542 13.2788 67.2782V67.2782Z" fill="url(#paint6_linear_5301_8244)"/>
<defs>
<linearGradient id="paint0_linear_5301_8244" x1="59.3841" y1="21.1773" x2="21.4494" y2="59.1119" gradientUnits="userSpaceOnUse">
<stop stop-color="#017CFF"/>
<stop offset="1" stop-color="#061526"/>
</linearGradient>
<linearGradient id="paint1_linear_5301_8244" x1="6.45232" y1="24.8805" x2="17.1844" y2="35.6126" gradientUnits="userSpaceOnUse">
<stop stop-color="#FFA865"/>
<stop offset="1" stop-color="#FF6F00"/>
</linearGradient>
<linearGradient id="paint2_linear_5301_8244" x1="44.9518" y1="63.3795" x2="55.6806" y2="74.1083" gradientUnits="userSpaceOnUse">
<stop stop-color="#FF6F00"/>
<stop offset="1" stop-color="#FFAD6D"/>
</linearGradient>
<linearGradient id="paint3_linear_5301_8244" x1="51.6544" y1="18.257" x2="62.1158" y2="28.5714" gradientUnits="userSpaceOnUse">
<stop stop-color="#CEFAFF"/>
<stop offset="1" stop-color="#64F0FF"/>
</linearGradient>
<linearGradient id="paint4_linear_5301_8244" x1="16.053" y1="60.5907" x2="24.0947" y2="68.6323" gradientUnits="userSpaceOnUse">
<stop stop-color="#F5C749"/>
<stop offset="1" stop-color="#FFA300"/>
</linearGradient>
<linearGradient id="paint5_linear_5301_8244" x1="12.03" y1="56.5682" x2="20.075" y2="64.6132" gradientUnits="userSpaceOnUse">
<stop stop-color="#F5C749"/>
<stop offset="1" stop-color="#FFA300"/>
</linearGradient>
<linearGradient id="paint6_linear_5301_8244" x1="12.0304" y1="56.5682" x2="23.9961" y2="68.5339" gradientUnits="userSpaceOnUse">
<stop stop-color="#0058FF"/>
<stop offset="1" stop-color="#030CFF"/>
</linearGradient>
</defs>
</svg>
