<svg width="120" height="60" viewBox="0 0 120 60" fill="none" xmlns="http://www.w3.org/2000/svg">
<path d="M34.6101 21.282V38.5188H31.0938V21.282H34.6101Z" fill="white"/>
<path d="M48.964 26.8968V38.5552C48.964 42.1752 46.1459 44.3999 42.6941 44.3999C39.2423 44.3999 36.8841 42.3377 36.6457 39.4238L40.1536 39.4434C40.2966 40.6846 41.3874 41.2198 42.8203 41.2198C44.1775 41.2198 45.4393 40.4941 45.4393 38.6029V37.1123C44.542 37.6951 43.3951 38.0397 42.1137 38.0397C38.903 38.0397 36.3317 35.4424 36.3317 32.4529C36.3317 28.9758 38.9114 26.6475 42.1137 26.6475C43.4035 26.6475 44.542 26.9921 45.4393 27.5749V26.9445L48.9668 26.8968H48.964ZM45.4477 33.7613V30.9259C44.7299 29.8864 43.7372 29.5418 42.753 29.5418C41.0229 29.5418 39.8199 30.6961 39.8199 32.4529C39.8199 33.7417 41.0229 35.1566 42.753 35.1566C43.7372 35.1482 44.7299 34.7924 45.4477 33.7613Z" fill="white"/>
<path d="M62.9929 32.5678C62.9929 36.1569 60.3375 38.7178 56.7707 38.7178C53.2039 38.7178 50.5204 36.1598 50.5204 32.5678C50.5204 28.9759 53.1759 26.3982 56.7707 26.3982C60.3655 26.3982 62.9929 29.0039 62.9929 32.5678ZM59.6 32.5678C59.6 30.8783 58.4924 29.511 56.7707 29.511C55.049 29.511 53.9218 30.8755 53.9218 32.5678C53.9218 34.2601 55.0294 35.605 56.7707 35.605C58.4812 35.5966 59.6 34.3049 59.6 32.5678Z" fill="white"/>
<path d="M84.8311 26.9165V38.4993L81.3821 38.5189V37.8605C80.4848 38.4433 79.3379 38.8047 78.0565 38.8047C74.8458 38.8047 72.2745 36.0841 72.2745 32.7303C72.2745 29.3765 74.8542 26.6392 78.0565 26.6392C79.3464 26.6392 80.4848 27.0034 81.3821 27.5834V26.9249L84.8311 26.9165ZM81.3821 30.9568C80.6559 29.9257 79.6436 29.6399 78.6285 29.6399C76.8591 29.6399 75.6366 31.052 75.6366 32.7443C75.6366 34.4366 76.8591 35.8292 78.6285 35.8292C79.6408 35.8208 80.6559 35.5434 81.3821 34.5123V30.9568Z" fill="white"/>
<path d="M99.0142 32.2257V38.5186H95.6212V32.6375C95.6212 30.7463 94.6762 29.7432 92.9938 29.7432C92.1133 29.7432 91.1487 30.2504 90.3187 31.2226V38.5186H86.8501V26.9358H90.3187V27.8156C91.2637 27.0619 92.3629 26.65 93.6724 26.65C96.7681 26.65 99.0142 28.8271 99.0142 32.2257Z" fill="white"/>
<path d="M29.487 38.5078H25.9034L23.5732 29.8474L18.5539 38.5078H14.5497L22.2917 25.1011L21.0495 20.4417L10.6043 38.5191H6.6001L19.8353 15.6001H23.3432L24.8827 21.2906H28.5027L26.0295 25.5886L29.487 38.5078Z" fill="white"/>
<path d="M113.023 38.5192H109.507V37.8607C108.61 38.4435 107.463 38.805 106.181 38.805C102.971 38.805 100.399 36.0844 100.399 32.7138C100.399 29.3432 102.979 26.6394 106.181 26.6394C107.471 26.6394 108.61 27.0037 109.507 27.5836V21.2711L113.023 21.2795V38.5192ZM109.507 34.5182V30.9374C108.772 29.898 107.749 29.6094 106.737 29.6094C104.959 29.6094 103.725 31.0327 103.725 32.7138C103.725 34.3949 104.959 35.8462 106.737 35.8462C107.749 35.8462 108.772 35.5604 109.507 34.5182Z" fill="white"/>
<path d="M71.6435 29.8563C70.878 29.9516 69.0834 30.0384 68.0319 31.4898V38.528H64.5632V26.9536H68.0319V27.8222C68.8255 27.1441 70.02 26.7435 71.6435 26.906" fill="white"/>
</svg>
