<svg width="120" height="60" viewBox="0 0 120 60" fill="none" xmlns="http://www.w3.org/2000/svg">
<path d="M91.9886 43.2656V45.1775H105V36.5597H103.103V43.2684H91.9886V43.2656ZM91.9886 14.8225V16.7345H103.103V23.4432H105V14.8253H91.9886V14.8225ZM85.278 29.6064V25.1667H88.2512C89.7015 25.1667 90.2203 25.6531 90.2203 26.9831V27.7704C90.2203 29.1368 89.7183 29.6064 88.2512 29.6064H85.278ZM90 30.3937C91.3555 30.0366 92.3038 28.7629 92.3038 27.2446C92.3038 26.2886 91.9329 25.4282 91.2272 24.7337C90.3347 23.8705 89.1465 23.4403 87.6013 23.4403H83.4204V36.5569H85.278V31.33H88.0671C89.498 31.33 90.0753 31.9288 90.0753 33.4275V36.5569H91.9719V33.7283C91.9719 31.6674 91.4894 30.8801 90.0028 30.6551V30.3937H90ZM74.3501 30.8239H80.0762V29.1003H74.3501V25.1639H80.6313V23.4403H72.4535V36.5569H80.9102V34.8333H74.3501V30.8239ZM68.122 31.5183V32.4181C68.122 34.3103 67.4331 34.9289 65.7066 34.9289H65.2966C63.5673 34.9289 62.7306 34.3666 62.7306 31.763V28.2399C62.7306 25.6166 63.6036 25.0739 65.3329 25.0739H65.7038C67.394 25.0739 67.9351 25.7122 67.9519 27.4723H69.9963C69.8094 24.8856 68.0997 23.2576 65.5365 23.2576C64.2925 23.2576 63.2494 23.6512 62.4684 24.3991C61.297 25.5041 60.6471 27.3795 60.6471 30.0028C60.6471 32.6261 61.2049 34.4059 62.3568 35.5672C63.1378 36.3348 64.2144 36.7481 65.2743 36.7481C66.3899 36.7481 67.4107 36.2982 67.9323 35.3254H68.1917V36.5625H69.9015V29.7976H64.8643V31.5211H68.1164L68.122 31.5183ZM51.7274 25.1667H53.7523C55.6657 25.1667 56.7088 25.6531 56.7088 28.2765V31.7236C56.7088 34.3469 55.6685 34.8333 53.7523 34.8333H51.7274V25.1639V25.1667ZM53.9197 36.5597C57.4702 36.5597 58.7895 33.8436 58.7895 30.0028C58.7895 26.1621 57.3782 23.446 53.8834 23.446H49.867V36.5625H53.9197V36.5597ZM40.8916 30.8267H46.6177V29.1031H40.8916V25.1667H47.1728V23.4432H38.995V36.5597H47.4517V34.8361H40.8916V30.8267ZM29.9247 23.4432H28.0281V36.5597H36.5768V34.8361H29.9219V23.4432H29.9247ZM15 36.5597V45.1775H28.0113V43.2656H16.8966V36.5569H15V36.5597ZM15 14.8253V23.4432H16.8966V16.7345H28.0113V14.8225H15V14.8253Z" fill="#AFB8BD"/>
</svg>
