<svg width="120" height="60" viewBox="0 0 120 60" fill="none" xmlns="http://www.w3.org/2000/svg">
<path fill-rule="evenodd" clip-rule="evenodd" d="M82.7551 15.0788C77.9339 8.62579 69.7469 3.70238 59.9767 3.6001C50.209 3.6001 42.0451 8.42123 36.9706 14.8742C32.8887 20.588 30.1085 26.6063 31.6148 37.7037C34.8041 40.0236 37.4564 42.039 40.8991 44.4891L42.1985 55.0216H56.0483C56.992 55.7097 58.1403 56.349 59.9767 56.4001C61.8387 56.349 63.0126 55.712 63.8797 55.0216H77.8317L79.1334 44.4891L87.9319 38.0105C89.6915 28.9052 87.2694 21.2017 82.7551 15.0811V15.0788ZM83.3409 34.9468L73.8009 42.0367L72.7293 49.9936H62.1711C61.8643 50.605 61.1762 51.3465 59.9767 51.4209C58.7261 51.3442 58.4728 50.8863 57.7057 49.9936L47.1196 49.9169L46.0992 41.9855L36.4824 34.8445C36.15 33.7217 35.8455 31.8597 36.0222 30.3046C36.1756 28.6983 36.4825 27.8824 36.966 26.9131C41.8894 31.7087 48.0099 37.8804 52.9845 42.6759C48.2145 36.911 42.5518 29.9745 37.8074 24.1841C37.9609 22.8823 38.3165 21.5317 39.0325 20.3834C39.874 18.9561 40.5132 18.4192 41.3547 17.6799C45.69 24.7698 50.9203 34.182 55.23 41.323C51.5061 33.4683 47.0685 23.3914 43.3701 15.4856C44.2116 14.2094 44.7486 13.6747 45.6668 12.9611C46.5338 12.2475 47.7333 11.5594 48.956 11.3037C51.5061 20.2811 54.9487 31.5552 57.5267 40.5582C55.6391 31.2995 53.4192 19.4141 51.5061 10.0786C52.5521 9.49285 53.4447 9.16044 54.6698 8.77689C55.8948 8.57233 57.3733 8.49562 58.4193 8.75132C59.0307 18.468 59.2352 30.5836 59.9744 40.4048C60.7136 30.637 60.7392 18.547 61.4529 8.75132C62.5245 8.57233 63.8773 8.62347 65.2535 8.87917C66.4529 9.23715 67.3456 9.56724 68.2638 10.2321C66.4529 19.5419 64.1819 31.3251 62.3711 40.5838C64.9722 31.6575 68.2638 20.2811 70.9417 11.3293C72.1156 11.6105 73.3151 12.2986 74.2821 13.0378C75.098 13.7003 75.6861 14.3372 76.502 15.5878C72.7525 23.3914 68.4172 33.4683 64.591 41.3486C68.9007 34.2587 74.2077 24.7698 78.5685 17.7055C79.3845 18.4703 79.8959 19.0049 80.7885 20.4345C81.5533 21.5829 81.8601 22.9079 82.1158 24.2096C77.3203 30.0512 71.7088 37.0133 66.9156 42.7271C71.839 37.9315 77.9851 31.7598 82.9341 26.9898C83.3432 27.8824 83.6477 28.7239 83.8011 30.4069C83.929 31.962 83.6988 33.7729 83.3409 34.9468Z" fill="#AFB8BD"/>
</svg>
