<svg width="120" height="60" viewBox="0 0 120 60" fill="none" xmlns="http://www.w3.org/2000/svg">
<path fill-rule="evenodd" clip-rule="evenodd" d="M82.7551 15.0786C77.9339 8.62567 69.7469 3.70226 59.9767 3.59998C50.209 3.59998 42.0451 8.42111 36.9706 14.8741C32.8887 20.5878 30.1085 26.6061 31.6148 37.7036C34.8041 40.0235 37.4564 42.0389 40.8991 44.4889L42.1985 55.0215H56.0483C56.992 55.7096 58.1403 56.3488 59.9767 56.4C61.8387 56.3488 63.0126 55.7119 63.8797 55.0215H77.8317L79.1334 44.4889L87.9319 38.0104C89.6915 28.9051 87.2694 21.2015 82.7551 15.081V15.0786ZM83.3409 34.9466L73.8009 42.0365L72.7293 49.9935H62.1711C61.8643 50.6049 61.1762 51.3464 59.9767 51.4208C58.7261 51.3441 58.4728 50.8861 57.7057 49.9935L47.1196 49.9168L46.0992 41.9854L36.4824 34.8444C36.15 33.7216 35.8455 31.8596 36.0222 30.3045C36.1756 28.6982 36.4825 27.8823 36.966 26.913C41.8894 31.7085 48.0099 37.8802 52.9845 42.6758C48.2145 36.9109 42.5518 29.9744 37.8074 24.1839C37.9609 22.8822 38.3165 21.5316 39.0325 20.3833C39.874 18.956 40.5132 18.419 41.3547 17.6798C45.69 24.7697 50.9203 34.1819 55.23 41.3229C51.5061 33.4682 47.0685 23.3913 43.3701 15.4854C44.2116 14.2093 44.7486 13.6746 45.6668 12.961C46.5338 12.2473 47.7333 11.5593 48.956 11.3036C51.5061 20.281 54.9487 31.5551 57.5267 40.5581C55.6391 31.2994 53.4192 19.4139 51.5061 10.0785C52.5521 9.49273 53.4447 9.16032 54.6698 8.77677C55.8948 8.57221 57.3733 8.49549 58.4193 8.7512C59.0307 18.4678 59.2352 30.5834 59.9744 40.4047C60.7136 30.6369 60.7392 18.5469 61.4529 8.7512C62.5245 8.57221 63.8773 8.62335 65.2535 8.87905C66.4529 9.23703 67.3456 9.56711 68.2638 10.2319C66.4529 19.5418 64.1819 31.325 62.3711 40.5837C64.9722 31.6574 68.2638 20.281 70.9417 11.3291C72.1156 11.6104 73.3151 12.2985 74.2821 13.0377C75.098 13.7002 75.6861 14.3371 76.502 15.5877C72.7525 23.3913 68.4172 33.4682 64.591 41.3485C68.9007 34.2586 74.2077 24.7697 78.5685 17.7054C79.3845 18.4702 79.8959 19.0048 80.7885 20.4344C81.5533 21.5827 81.8601 22.9078 82.1158 24.2095C77.3203 30.0511 71.7088 37.0132 66.9156 42.7269C71.839 37.9314 77.9851 31.7597 82.9341 26.9897C83.3432 27.8823 83.6477 28.7238 83.8011 30.4068C83.929 31.9619 83.6988 33.7727 83.3409 34.9466Z" fill="white"/>
</svg>
