<svg width="120" height="60" viewBox="0 0 120 60" fill="none" xmlns="http://www.w3.org/2000/svg">
<path d="M27.5742 26.1791V26.2343C27.5742 30.7288 31.9141 31.9877 36.3534 32.8932C38.6392 33.346 39.335 33.6993 39.335 34.3619V34.4171C39.335 35.0797 38.6945 35.411 37.4356 35.411C34.7411 35.411 31.6822 34.4061 29.5951 32.849L27 37.7742C29.3853 39.6736 33.162 40.7999 37.1153 40.7999C42.7803 40.7999 46.292 38.1055 46.292 33.7766V33.7214C46.292 29.5251 42.7362 28.0122 37.3914 27.0294C35.2491 26.6208 34.5202 26.2564 34.5202 25.5828V25.5276C34.5202 25.2405 34.6748 24.5668 36.1435 24.5668C37.8994 24.5668 40.5165 24.9865 43.1006 26.9742L45.7509 22.0159C43.2883 20.0945 40.3178 19.2 36.3865 19.2C31.0307 19.1889 27.5742 21.9386 27.5742 26.1791Z" fill="white"/>
<path d="M48.4341 19.7852C47.904 19.7852 47.4733 20.2159 47.4733 20.7459V40.2146H52.9837C53.5028 40.2036 53.9224 39.7729 53.9224 39.2539V19.7852H48.4341Z" fill="white"/>
<path d="M56.0554 19.7852C55.5253 19.7852 55.0946 20.2159 55.0946 20.7459V25.66H61.6541L61.6762 25.6821V40.2146H67.1535C67.6725 40.2036 68.0922 39.7729 68.0922 39.2539V25.6711H74.6958L76.9155 19.7962H56.0554V19.7852Z" fill="white"/>
<path d="M79.0335 19.7852C78.4923 19.7852 78.0396 20.1165 77.8519 20.5913L70.442 40.2146H77.4764L81.8604 28.6085L83.2519 32.3079H81.7169L79.696 37.6527H85.2727L86.2445 40.2146H93.2567L85.8469 20.5913C85.6592 20.1165 85.2064 19.7852 84.6653 19.7852H79.0335Z" fill="white"/>
</svg>
