<svg width="120" height="60" viewBox="0 0 120 60" fill="none" xmlns="http://www.w3.org/2000/svg">
<path d="M27.5742 26.1794V26.2346C27.5742 30.729 31.9141 31.9879 36.3534 32.8935C38.6392 33.3462 39.335 33.6996 39.335 34.3622V34.4174C39.335 35.08 38.6945 35.4112 37.4356 35.4112C34.7411 35.4112 31.6822 34.4063 29.5951 32.8493L27 37.7744C29.3853 39.6738 33.162 40.8002 37.1153 40.8002C42.7803 40.8002 46.292 38.1057 46.292 33.7769V33.7217C46.292 29.5254 42.7362 28.0125 37.3914 27.0297C35.2491 26.6211 34.5202 26.2567 34.5202 25.583V25.5278C34.5202 25.2407 34.6748 24.5671 36.1435 24.5671C37.8994 24.5671 40.5165 24.9867 43.1006 26.9744L45.7509 22.0162C43.2883 20.0947 40.3178 19.2002 36.3865 19.2002C31.0307 19.1892 27.5742 21.9389 27.5742 26.1794Z" fill="#AFB8BD"/>
<path d="M48.4341 19.7854C47.904 19.7854 47.4733 20.2161 47.4733 20.7462V40.2149H52.9837C53.5028 40.2038 53.9224 39.7731 53.9224 39.2541V19.7854H48.4341Z" fill="#AFB8BD"/>
<path d="M56.0554 19.7854C55.5253 19.7854 55.0946 20.2161 55.0946 20.7462V25.6603H61.6541L61.6762 25.6824V40.2149H67.1535C67.6725 40.2038 68.0922 39.7731 68.0922 39.2541V25.6713H74.6958L76.9155 19.7965H56.0554V19.7854Z" fill="#AFB8BD"/>
<path d="M79.0335 19.7854C78.4923 19.7854 78.0396 20.1167 77.8519 20.5916L70.442 40.2149H77.4764L81.8604 28.6087L83.2519 32.3081H81.7169L79.696 37.6529H85.2727L86.2445 40.2149H93.2567L85.8469 20.5916C85.6592 20.1167 85.2064 19.7854 84.6653 19.7854H79.0335Z" fill="#AFB8BD"/>
</svg>
