<svg width="120" height="60" viewBox="0 0 120 60" fill="none" xmlns="http://www.w3.org/2000/svg">
<path d="M3.00023 32.9947L8.94162 26.6818C9.02999 26.5879 9.16355 26.5515 9.28735 26.5875L10.9022 27.0575C11.1483 27.1291 11.2318 27.4354 11.0562 27.622L6.64656 32.3073C6.47093 32.494 6.55446 32.8002 6.80053 32.8719L8.13127 33.2592C8.37734 33.3308 8.46087 33.6371 8.28524 33.8237L6.2167 36.0216C5.3808 36.9097 3.98314 36.9522 3.09494 36.1163C2.20673 35.2805 2.16433 33.8829 3.00023 32.9947Z" fill="white"/>
<path d="M15.9645 26.5216L10.0231 32.8345C9.9347 32.9284 9.80114 32.9648 9.67734 32.9288L8.0625 32.4588C7.81644 32.3872 7.7329 32.0809 7.90854 31.8943L12.3181 27.209C12.4938 27.0223 12.4102 26.716 12.1642 26.6444L10.8334 26.2571C10.5874 26.1855 10.5038 25.8792 10.6795 25.6926L12.748 23.4947C13.5839 22.6065 14.9815 22.5641 15.8698 23.4C16.758 24.2358 16.8004 25.6334 15.9645 26.5216Z" fill="white"/>
<path d="M25.7435 34.6603C25.5793 34.6603 25.4462 34.5272 25.4462 34.363V26.9527C25.4462 26.7885 25.3131 26.6554 25.1489 26.6554H22.6043C22.4401 26.6554 22.307 26.5223 22.307 26.3582V25.1691C22.307 25.0049 22.4401 24.8718 22.6043 24.8718H30.4427C30.6068 24.8718 30.7399 25.0049 30.7399 25.1691V26.3582C30.7399 26.5223 30.6068 26.6554 30.4427 26.6554H27.8838C27.7196 26.6554 27.5865 26.7885 27.5865 26.9527V34.363C27.5865 34.5272 27.4534 34.6603 27.2892 34.6603H25.7435Z" fill="white"/>
<path d="M30.4115 34.6603C30.2028 34.6603 30.0591 34.4509 30.134 34.2562L33.6722 25.0623C33.7164 24.9475 33.8267 24.8718 33.9497 24.8718H36.1669C36.2899 24.8718 36.4002 24.9475 36.4443 25.0623L39.9825 34.2562C40.0574 34.4509 39.9137 34.6603 39.7051 34.6603H38.0491C37.924 34.6603 37.8123 34.582 37.7696 34.4644L37.2126 32.9298C37.1699 32.8122 37.0583 32.734 36.9332 32.734H33.0835C32.9584 32.734 32.8467 32.8122 32.8041 32.9298L32.247 34.4644C32.2044 34.582 32.0927 34.6603 31.9676 34.6603H30.4115ZM33.6324 30.6235C33.5625 30.8173 33.706 31.0217 33.912 31.0217H36.1046C36.3106 31.0217 36.4542 30.8173 36.3842 30.6235L35.6576 28.6103C35.6195 28.5056 35.572 28.382 35.5149 28.2393C35.4673 28.0871 35.415 27.9206 35.3579 27.7399C35.3008 27.5591 35.2438 27.3831 35.1867 27.2119C35.1434 27.0476 35.1002 26.8989 35.0569 26.7661C35.0493 26.7426 35.0273 26.7268 35.0026 26.7268C34.9766 26.7268 34.9538 26.7443 34.947 26.7695C34.9011 26.941 34.8431 27.1408 34.7729 27.3689C34.6968 27.6067 34.6207 27.8397 34.5446 28.068C34.4685 28.2868 34.4067 28.4676 34.3591 28.6103L33.6324 30.6235Z" fill="white"/>
<path d="M41.6001 34.6603C41.4359 34.6603 41.3028 34.5272 41.3028 34.363V25.1691C41.3028 25.0049 41.4359 24.8718 41.6001 24.8718H43.1316C43.2958 24.8718 43.4289 25.0049 43.4289 25.1691V32.5508C43.4289 32.715 43.562 32.8481 43.7261 32.8481H48.0686C48.2328 32.8481 48.3659 32.9812 48.3659 33.1454V34.363C48.3659 34.5272 48.2328 34.6603 48.0686 34.6603H41.6001Z" fill="white"/>
<path d="M50.0304 34.6603C49.8662 34.6603 49.7331 34.5272 49.7331 34.363V25.1691C49.7331 25.0049 49.8662 24.8718 50.0304 24.8718H51.5619C51.7261 24.8718 51.8592 25.0049 51.8592 25.1691V32.5508C51.8592 32.715 51.9923 32.8481 52.1565 32.8481H56.499C56.6631 32.8481 56.7962 32.9812 56.7962 33.1454V34.363C56.7962 34.5272 56.6631 34.6603 56.499 34.6603H50.0304Z" fill="white"/>
<path d="M59.4748 34.6603C59.3107 34.6603 59.1776 34.5272 59.1776 34.363V30.81C59.1776 30.7526 59.1609 30.6964 59.1297 30.6482L55.6799 25.3309C55.5516 25.1331 55.6935 24.8718 55.9293 24.8718H57.6845C57.7877 24.8718 57.8835 24.9253 57.9376 25.0132L60.2576 28.7797C60.2692 28.7985 60.2898 28.81 60.3119 28.81C60.3341 28.81 60.3547 28.7985 60.3663 28.7796L62.6721 25.0138C62.7261 24.9256 62.8221 24.8718 62.9256 24.8718H64.5399C64.7752 24.8718 64.9172 25.1322 64.7899 25.33L61.3652 30.6485C61.3343 30.6965 61.3179 30.7524 61.3179 30.8095V34.363C61.3179 34.5272 61.1848 34.6603 61.0206 34.6603H59.4748Z" fill="white"/>
<path d="M69.4979 34.8315C68.9271 34.8315 68.3849 34.7744 67.8712 34.6603C67.3575 34.5461 66.9009 34.3654 66.5014 34.118C66.1114 33.8612 65.8022 33.5425 65.5739 33.162C65.3551 32.772 65.2458 32.3011 65.2458 31.7494C65.2458 31.7018 65.2458 31.6543 65.2458 31.6067C65.2458 31.5293 65.3123 31.4783 65.3897 31.4783H67.2563C67.3131 31.4783 67.3575 31.5356 67.3575 31.5925C67.3575 31.64 67.3575 31.6828 67.3575 31.7209C67.3575 32.0253 67.4384 32.2821 67.6001 32.4914C67.7713 32.7007 68.0187 32.8576 68.3421 32.9623C68.6655 33.0669 69.0413 33.1192 69.4693 33.1192C69.7452 33.1192 69.9878 33.105 70.197 33.0764C70.4158 33.0384 70.6061 32.9908 70.7678 32.9337C70.939 32.8671 71.077 32.791 71.1816 32.7054C71.2957 32.6198 71.3766 32.5199 71.4242 32.4058C71.4812 32.2916 71.5098 32.1632 71.5098 32.0205C71.5098 31.7637 71.4242 31.5544 71.2529 31.3927C71.0912 31.231 70.8629 31.093 70.568 30.9789C70.2827 30.8647 69.9592 30.7601 69.5978 30.665C69.2363 30.5698 68.8653 30.4747 68.4848 30.3796C68.1043 30.275 67.7333 30.1513 67.3718 30.0086C67.0103 29.8564 66.6869 29.6757 66.4015 29.4664C66.1161 29.2571 65.8879 28.9908 65.7166 28.6673C65.5454 28.3439 65.4598 27.9539 65.4598 27.4973C65.4598 27.0121 65.5597 26.5936 65.7594 26.2416C65.9687 25.8897 66.2588 25.5995 66.6298 25.3712C67.0008 25.1429 67.4289 24.9765 67.914 24.8718C68.3992 24.7577 68.9271 24.7006 69.4979 24.7006C70.0306 24.7006 70.5347 24.7577 71.0104 24.8718C71.486 24.9765 71.9046 25.1477 72.266 25.3855C72.6275 25.6233 72.9081 25.923 73.1079 26.2844C73.3172 26.6459 73.4218 27.074 73.4218 27.5686C73.4218 27.6632 73.3451 27.7399 73.2506 27.7399H71.467C71.4039 27.7399 71.3528 27.6887 71.3528 27.6257C71.3528 27.3689 71.2767 27.1501 71.1245 26.9693C70.9723 26.7886 70.7583 26.6459 70.4824 26.5413C70.2066 26.4366 69.8831 26.3843 69.5121 26.3843C69.1126 26.3843 68.7702 26.4224 68.4848 26.4985C68.2089 26.5746 67.9949 26.6887 67.8427 26.8409C67.7 26.9836 67.6286 27.1548 67.6286 27.3546C67.6286 27.5829 67.7095 27.7731 67.8712 27.9254C68.0424 28.068 68.2708 28.1965 68.5561 28.3106C68.851 28.4152 69.1792 28.5104 69.5407 28.596C69.9022 28.6816 70.2732 28.7767 70.6537 28.8814C71.0342 28.986 71.4051 29.1097 71.7666 29.2524C72.1281 29.395 72.4515 29.5758 72.7369 29.7946C73.0223 30.0039 73.2506 30.2654 73.4218 30.5794C73.593 30.8933 73.6786 31.269 73.6786 31.7066C73.6786 32.4581 73.4979 33.0621 73.1364 33.5187C72.775 33.9754 72.2803 34.3083 71.6525 34.5176C71.0246 34.7268 70.3064 34.8315 69.4979 34.8315Z" fill="white"/>
<path d="M78.0812 34.6603C77.9171 34.6603 77.784 34.5272 77.784 34.363V26.9527C77.784 26.7885 77.6509 26.6554 77.4867 26.6554H74.9421C74.7779 26.6554 74.6448 26.5223 74.6448 26.3582V25.1691C74.6448 25.0049 74.7779 24.8718 74.9421 24.8718H82.7804C82.9446 24.8718 83.0777 25.0049 83.0777 25.1691V26.3582C83.0777 26.5223 82.9446 26.6554 82.7804 26.6554H80.2216C80.0574 26.6554 79.9243 26.7885 79.9243 26.9527V34.363C79.9243 34.5272 79.7912 34.6603 79.627 34.6603H78.0812Z" fill="white"/>
<path d="M84.8108 34.6603C84.6466 34.6603 84.5135 34.5272 84.5135 34.363V25.1691C84.5135 25.0049 84.6466 24.8718 84.8108 24.8718H86.3423C86.5065 24.8718 86.6396 25.0049 86.6396 25.1691V34.363C86.6396 34.5272 86.5065 34.6603 86.3423 34.6603H84.8108Z" fill="white"/>
<path d="M93.1859 34.8315C92.168 34.8315 91.2976 34.6555 90.5747 34.3035C89.8517 33.9421 89.3 33.3856 88.9195 32.6341C88.5485 31.8826 88.363 30.9266 88.363 29.766C88.363 28.0538 88.7815 26.7838 89.6187 25.9562C90.4653 25.1191 91.6544 24.7006 93.1859 24.7006C94.023 24.7006 94.7745 24.8433 95.4404 25.1287C96.1062 25.414 96.6294 25.8421 97.0099 26.4129C97.3544 26.917 97.5468 27.5361 97.587 28.2702C97.596 28.4342 97.4619 28.5675 97.2977 28.5675H95.7519C95.5877 28.5675 95.4567 28.434 95.4402 28.2706C95.4071 27.9414 95.3168 27.6551 95.1693 27.4117C94.9885 27.0978 94.7269 26.8599 94.3845 26.6982C94.0515 26.527 93.6615 26.4414 93.2144 26.4414C92.6056 26.4414 92.1014 26.5603 91.7019 26.7981C91.3119 27.0359 91.0218 27.3879 90.8315 27.854C90.6508 28.3106 90.5604 28.8719 90.5604 29.5377V29.9801C90.5604 30.665 90.6555 31.2405 90.8458 31.7066C91.036 32.1632 91.3214 32.5104 91.7019 32.7482C92.0919 32.9765 92.5913 33.0907 93.2001 33.0907C93.6758 33.0907 94.0896 33.0098 94.4415 32.8481C94.7935 32.6864 95.0646 32.4486 95.2549 32.1347C95.4024 31.8912 95.4927 31.6049 95.5258 31.2757C95.5423 31.1124 95.6733 30.9789 95.8375 30.9789H97.2977C97.4619 30.9789 97.5959 31.1122 97.5872 31.2761C97.5479 32.0103 97.3603 32.6294 97.0242 33.1335C96.6532 33.7042 96.1348 34.1323 95.4689 34.4177C94.803 34.6936 94.042 34.8315 93.1859 34.8315Z" fill="white"/>
<path d="M99.5674 34.6603C99.4032 34.6603 99.2701 34.5272 99.2701 34.363V25.1691C99.2701 25.0049 99.4032 24.8718 99.5674 24.8718H101.099C101.263 24.8718 101.396 25.0049 101.396 25.1691V28.571C101.396 28.8406 101.726 28.971 101.91 28.7742L105.475 24.966C105.531 24.9059 105.609 24.8718 105.692 24.8718H107.501C107.762 24.8718 107.896 25.1828 107.718 25.3726L104.61 28.6821C104.516 28.7822 104.503 28.9338 104.578 29.0487L107.958 34.1999C108.087 34.3976 107.945 34.6603 107.709 34.6603H105.883C105.781 34.6603 105.687 34.608 105.632 34.5217L103.168 30.6207C103.07 30.4649 102.855 30.4352 102.718 30.5586L101.494 31.6609C101.432 31.7172 101.396 31.7975 101.396 31.8817V34.363C101.396 34.5272 101.263 34.6603 101.099 34.6603H99.5674Z" fill="white"/>
<path d="M113.419 34.8315C112.848 34.8315 112.306 34.7744 111.793 34.6603C111.279 34.5461 110.822 34.3654 110.423 34.118C110.033 33.8612 109.724 33.5425 109.495 33.162C109.277 32.772 109.167 32.3011 109.167 31.7494C109.167 31.7018 109.167 31.6543 109.167 31.6067C109.167 31.5293 109.234 31.4783 109.311 31.4783H111.178C111.235 31.4783 111.279 31.5356 111.279 31.5925C111.279 31.64 111.279 31.6828 111.279 31.7209C111.279 32.0253 111.36 32.2821 111.521 32.4914C111.693 32.7007 111.94 32.8576 112.263 32.9623C112.587 33.0669 112.963 33.1192 113.391 33.1192C113.667 33.1192 113.909 33.105 114.118 33.0764C114.337 33.0384 114.527 32.9908 114.689 32.9337C114.86 32.8671 114.998 32.791 115.103 32.7054C115.217 32.6198 115.298 32.5199 115.346 32.4058C115.403 32.2916 115.431 32.1632 115.431 32.0205C115.431 31.7637 115.346 31.5544 115.174 31.3927C115.013 31.231 114.784 31.093 114.489 30.9789C114.204 30.8647 113.881 30.7601 113.519 30.665C113.158 30.5698 112.787 30.4747 112.406 30.3796C112.026 30.275 111.655 30.1513 111.293 30.0086C110.932 29.8564 110.608 29.6757 110.323 29.4664C110.038 29.2571 109.809 28.9908 109.638 28.6673C109.467 28.3439 109.381 27.9539 109.381 27.4973C109.381 27.0121 109.481 26.5936 109.681 26.2416C109.89 25.8897 110.18 25.5995 110.551 25.3712C110.922 25.1429 111.35 24.9765 111.835 24.8718C112.321 24.7577 112.848 24.7006 113.419 24.7006C113.952 24.7006 114.456 24.7577 114.932 24.8718C115.407 24.9765 115.826 25.1477 116.187 25.3855C116.549 25.6233 116.83 25.923 117.029 26.2844C117.239 26.6459 117.343 27.074 117.343 27.5686C117.343 27.6632 117.267 27.7399 117.172 27.7399H115.388C115.325 27.7399 115.274 27.6887 115.274 27.6257C115.274 27.3689 115.198 27.1501 115.046 26.9693C114.894 26.7886 114.68 26.6459 114.404 26.5413C114.128 26.4366 113.805 26.3843 113.434 26.3843C113.034 26.3843 112.692 26.4224 112.406 26.4985C112.13 26.5746 111.916 26.6887 111.764 26.8409C111.621 26.9836 111.55 27.1548 111.55 27.3546C111.55 27.5829 111.631 27.7731 111.793 27.9254C111.964 28.068 112.192 28.1965 112.478 28.3106C112.772 28.4152 113.101 28.5104 113.462 28.596C113.824 28.6816 114.195 28.7767 114.575 28.8814C114.956 28.986 115.327 29.1097 115.688 29.2524C116.049 29.395 116.373 29.5758 116.658 29.7946C116.944 30.0039 117.172 30.2654 117.343 30.5794C117.514 30.8933 117.6 31.269 117.6 31.7066C117.6 32.4581 117.419 33.0621 117.058 33.5187C116.696 33.9754 116.202 34.3083 115.574 34.5176C114.946 34.7268 114.228 34.8315 113.419 34.8315Z" fill="white"/>
</svg>
