<svg width="120" height="60" viewBox="0 0 120 60" fill="none" xmlns="http://www.w3.org/2000/svg">
<path d="M9.07681 26.3399V36.1536H6.40511V26.3399H3V24.1746H12.4645V26.3399H9.07681Z" fill="white"/>
<path d="M20.84 33.7962H16.0728L15.2346 36.1536H12.6328L16.9809 24.1746H20.1939L24.5419 36.1536H21.7131L20.84 33.7962ZM16.8062 31.7532H20.124C19.6817 30.4377 19.1462 28.8719 18.5175 27.0559H18.4302L16.8062 31.7532Z" fill="white"/>
<path d="M25.8262 36.1536V24.1746H28.5328V33.9185H33.4571L33.754 36.1536H25.8262Z" fill="white"/>
<path d="M35.1371 36.1536V24.1746H37.8437V33.9185H42.768L43.0648 36.1536H35.1371Z" fill="white"/>
<path d="M50.1056 31.5611V36.1536H47.4165V31.5611L43.3129 24.1746H46.3513L48.8483 28.9243H48.9357L51.4327 24.1746H54.1917L50.1056 31.5611Z" fill="white"/>
<path d="M61.9051 27.5623C61.9051 27.1199 61.7305 26.7765 61.3812 26.532C61.032 26.2759 60.5489 26.1478 59.9319 26.1478C59.2916 26.1478 58.791 26.2526 58.4301 26.4622C58.0809 26.6601 57.9063 26.9278 57.9063 27.2654C57.9063 27.5564 58.0168 27.8009 58.238 27.9988C58.4592 28.1851 58.7386 28.3364 59.0762 28.4528C59.4255 28.5692 59.8969 28.6973 60.4906 28.837C61.3637 29.0465 62.0797 29.2619 62.6385 29.4831C63.2089 29.7043 63.692 30.0477 64.0878 30.5134C64.4953 30.979 64.699 31.6018 64.699 32.3818C64.699 33.7438 64.2566 34.745 63.3719 35.3853C62.4988 36.0139 61.2939 36.3282 59.7572 36.3282C58.3603 36.3282 57.202 36.0256 56.2823 35.4202C55.3743 34.8032 54.9202 33.8719 54.9202 32.6263L54.9377 32.2421H57.4872L57.4697 32.5215C57.4697 33.0337 57.6618 33.4412 58.046 33.7438C58.4301 34.0349 58.9714 34.1804 59.6699 34.1804C60.4848 34.1804 61.0669 34.0523 61.4161 33.7962C61.777 33.5401 61.9575 33.2142 61.9575 32.8184C61.9575 32.5157 61.8469 32.2712 61.6257 32.0849C61.4161 31.887 61.1426 31.7357 60.805 31.6309C60.479 31.5145 60.0192 31.3865 59.4255 31.2468C58.5407 31.0256 57.8189 30.8044 57.2602 30.5832C56.7014 30.362 56.2183 30.007 55.8108 29.518C55.4034 29.0291 55.1996 28.3713 55.1996 27.5448C55.1996 26.7765 55.4092 26.1246 55.8283 25.589C56.2474 25.0535 56.8061 24.6577 57.5046 24.4016C58.2148 24.1339 59.0064 24 59.8795 24C61.2182 24 62.3125 24.2969 63.1623 24.8906C64.0122 25.4726 64.4371 26.3457 64.4371 27.5099V27.7194H61.9051V27.5623Z" fill="white"/>
<path d="M71.5924 26.3399V36.1536H68.9207V26.3399H65.5156V24.1746H74.9801V26.3399H71.5924Z" fill="white"/>
<path d="M76.3708 24.1746H81.8888V26.3225H80.4918V34.0058H81.8888V36.1536H76.3708V34.0058H77.7852V26.3225H76.3708V24.1746Z" fill="white"/>
<path d="M86.8295 31.4039C86.8295 32.2887 87.0681 32.9755 87.5454 33.4644C88.0227 33.9417 88.6281 34.1804 89.3615 34.1804C90.188 34.1804 90.7992 33.9592 91.195 33.5168C91.5908 33.0628 91.7887 32.3702 91.7887 31.4388H94.2509C94.2509 32.4633 94.0413 33.348 93.6222 34.0931C93.2148 34.8265 92.6502 35.3853 91.9284 35.7694C91.2066 36.142 90.3917 36.3282 89.4837 36.3282H89.2392C88.2381 36.3282 87.3417 36.1245 86.5501 35.7171C85.7585 35.3096 85.1357 34.7101 84.6816 33.9185C84.2276 33.1152 84.0006 32.149 84.0006 31.0198V29.3085C84.0006 28.2142 84.2276 27.2654 84.6816 26.4622C85.1357 25.6589 85.7526 25.0477 86.5326 24.6286C87.3242 24.2095 88.2032 24 89.1694 24H89.4139C90.3452 24 91.1717 24.1863 91.8935 24.5588C92.6269 24.9197 93.2031 25.4726 93.6222 26.2177C94.0413 26.9511 94.2509 27.8533 94.2509 28.9243H91.6839C91.6839 28.0163 91.4802 27.3294 91.0728 26.8638C90.6769 26.3865 90.1007 26.1478 89.344 26.1478C88.6106 26.1478 88.0052 26.3923 87.528 26.8812C87.0623 27.3585 86.8295 28.0396 86.8295 28.9243V31.4039Z" fill="white"/>
<path d="M98.9764 24.1746V29.6577L103.29 24.1746H106.31L102.277 29.2212C103.266 30.8742 103.837 31.8288 103.988 32.0849L106.433 36.1536H103.377L100.531 31.2992L98.9764 33.0279V36.1536H96.3396V24.1746H98.9764Z" fill="white"/>
<path d="M114.206 27.5623C114.206 27.1199 114.031 26.7765 113.682 26.532C113.333 26.2759 112.85 26.1478 112.233 26.1478C111.593 26.1478 111.092 26.2526 110.731 26.4622C110.382 26.6601 110.207 26.9278 110.207 27.2654C110.207 27.5564 110.318 27.8009 110.539 27.9988C110.76 28.1851 111.04 28.3364 111.377 28.4528C111.726 28.5692 112.198 28.6973 112.792 28.837C113.665 29.0465 114.381 29.2619 114.939 29.4831C115.51 29.7043 115.993 30.0477 116.389 30.5134C116.796 30.979 117 31.6018 117 32.3818C117 33.7438 116.558 34.745 115.673 35.3853C114.8 36.0139 113.595 36.3282 112.058 36.3282C110.661 36.3282 109.503 36.0256 108.583 35.4202C107.675 34.8032 107.221 33.8719 107.221 32.6263L107.239 32.2421H109.788L109.771 32.5215C109.771 33.0337 109.963 33.4412 110.347 33.7438C110.731 34.0349 111.272 34.1804 111.971 34.1804C112.786 34.1804 113.368 34.0523 113.717 33.7962C114.078 33.5401 114.258 33.2142 114.258 32.8184C114.258 32.5157 114.148 32.2712 113.927 32.0849C113.717 31.887 113.444 31.7357 113.106 31.6309C112.78 31.5145 112.32 31.3865 111.726 31.2468C110.842 31.0256 110.12 30.8044 109.561 30.5832C109.002 30.362 108.519 30.007 108.112 29.518C107.704 29.0291 107.501 28.3713 107.501 27.5448C107.501 26.7765 107.71 26.1246 108.129 25.589C108.548 25.0535 109.107 24.6577 109.806 24.4016C110.516 24.1339 111.307 24 112.18 24C113.519 24 114.614 24.2969 115.463 24.8906C116.313 25.4726 116.738 26.3457 116.738 27.5099V27.7194H114.206V27.5623Z" fill="white"/>
</svg>
