<svg width="177" height="40" viewBox="0 0 177 40" fill="none" xmlns="http://www.w3.org/2000/svg">
<path d="M52.8695 20.7207C52.0238 20.7181 51.1798 20.7932 50.3479 20.945C49.38 21.1693 49.0352 21.4643 49.0352 22.5485C49.0352 23.7116 49.6832 23.9941 50.8713 23.9941C51.5328 24.0235 52.1933 23.916 52.8113 23.6784C52.8523 23.2643 52.8717 22.8483 52.8695 22.4322V20.7207ZM47.0828 22.5817C47.0828 20.9616 47.7848 19.9438 49.5752 19.6738C50.6667 19.5324 51.765 19.4492 52.8653 19.4246C52.8653 18.1368 52.3003 17.4929 50.8879 17.4929C49.8083 17.5047 48.7304 17.5824 47.6602 17.7255L47.4982 16.2758C48.679 16.0643 49.8754 15.9517 51.0749 15.9393C53.1229 15.9393 54.8136 16.4959 54.8136 18.8472V22.939C54.8136 23.5496 54.7887 24.0814 54.7346 24.6463C53.6961 25.232 52.317 25.4771 50.5805 25.4771C48.0673 25.4771 47.0828 24.5092 47.0828 22.5817Z" fill="white"/>
<path d="M60.0685 23.9443C62.561 23.9443 62.5942 22.5817 62.5942 20.7082C62.5942 19.0009 62.4738 17.4597 60.2555 17.4597C59.6749 17.4439 59.0976 17.5501 58.5606 17.7712C58.5197 18.1854 58.5003 18.6013 58.5024 19.0175V23.6784C59.0082 23.845 59.5361 23.9346 60.0685 23.9443ZM58.5024 28.7714H56.5292V18.4567C56.5292 17.846 56.5542 17.3143 56.604 16.7493C57.7358 16.1805 58.989 15.8954 60.2555 15.9185C63.3046 15.9185 64.5924 17.0484 64.5924 20.6874C64.5924 24.3264 63.3461 25.4564 60.5338 25.4564C59.849 25.4495 59.1673 25.3631 58.5024 25.1988V28.7714Z" fill="white"/>
<path d="M69.4568 23.9443C71.9493 23.9443 71.9826 22.5817 71.9826 20.7082C71.9826 19.0009 71.8621 17.4597 69.6438 17.4597C69.0633 17.4439 68.4859 17.5501 67.9489 17.7712C67.908 18.1854 67.8886 18.6013 67.8907 19.0175V23.6784C68.3966 23.8447 68.9245 23.9343 69.4568 23.9443ZM67.8907 28.7714H65.9175V18.4567C65.9175 17.846 65.9425 17.3143 65.9923 16.7493C67.1241 16.1805 68.3773 15.8954 69.6438 15.9185C72.6971 15.9185 73.9807 17.0484 73.9807 20.6874C73.9807 24.3264 72.7345 25.4564 69.9221 25.4564C69.2373 25.4495 68.5556 25.3631 67.8907 25.1988V28.7714Z" fill="white"/>
<path d="M75.2643 12.4623H77.2666V22.8476C77.2365 23.5987 77.4767 24.3356 77.9437 24.9246L76.2198 25.7555C75.5518 24.9748 75.2149 23.9643 75.2809 22.939L75.2643 12.4623Z" fill="white"/>
<path d="M79.0653 25.34H81.0593V16.0639H79.0653V25.34ZM80.0582 14.747C79.1235 14.747 78.8576 14.4479 78.8576 13.5424C78.8576 12.6368 79.1401 12.3377 80.0582 12.3377C80.9762 12.3377 81.2629 12.6326 81.2629 13.5424C81.2629 14.4521 81.0053 14.7595 80.0582 14.7595V14.747Z" fill="white"/>
<path d="M86.2187 20.2554C86.9041 20.2263 87.9801 20.1349 88.6198 20.0477C88.6275 19.9093 88.6275 19.7707 88.6198 19.6323C88.6198 18.2157 88.0964 17.4472 86.5427 17.4472C84.5861 17.4472 84.3203 18.6935 84.3203 20.3551L86.2187 20.2554ZM84.4034 21.6969C84.5114 23.4832 85.4419 23.9027 86.8958 23.9027C88.0076 23.8926 89.1176 23.8122 90.2191 23.6618L90.3853 25.1365C89.0614 25.3657 87.7201 25.4797 86.3766 25.4771C83.261 25.4771 82.4426 23.4582 82.4426 20.7041C82.4426 17.3351 83.4853 15.9393 86.5967 15.9393C89.92 15.9393 90.6553 17.7006 90.6553 20.4714C90.6553 20.6957 90.6553 20.9242 90.6262 21.1569C89.1119 21.3891 87.5868 21.5444 86.0567 21.6221L84.4034 21.6969Z" fill="white"/>
<path d="M96.1471 17.4721C93.6546 17.4721 93.6214 18.8305 93.6214 20.7041C93.6214 22.4155 93.7418 23.9526 95.9601 23.9526C96.5407 23.9683 97.118 23.8622 97.655 23.641C97.6946 23.2268 97.7127 22.8108 97.709 22.3948V17.7297C97.2038 17.5676 96.6775 17.4808 96.1471 17.4721ZM97.709 12.4872H99.6988V22.9556C99.6988 23.5662 99.6739 24.098 99.6199 24.6629C98.4904 25.2339 97.238 25.5192 95.9726 25.4937C92.9193 25.4937 91.6357 24.3597 91.6357 20.7207C91.6357 17.0817 92.8612 15.9559 95.6943 15.9559C96.3775 15.9614 97.0579 16.0464 97.7215 16.2093L97.709 12.4872Z" fill="white"/>
<path d="M102.636 22.6149C102.636 23.0636 102.636 23.6909 102.661 24.1561C103.444 24.4713 104.28 24.6307 105.124 24.6255C107.471 24.6255 108.273 23.5164 108.273 20.7041C108.273 17.7962 107.662 16.7909 105.041 16.7909C104.223 16.8102 103.413 16.9502 102.636 17.2063V22.6149ZM101.664 12.4623H102.636V16.309C103.543 16.0629 104.479 15.9345 105.419 15.9268C108.169 15.9268 109.253 17.1731 109.253 20.6916C109.253 24.3015 108.032 25.4647 105.124 25.4647C103.943 25.4908 102.772 25.2449 101.701 24.746C101.676 24.2517 101.664 23.7199 101.664 23.2048V12.4623Z" fill="white"/>
<path d="M110.915 12.4623H111.887V22.8476C111.838 23.7468 112.118 24.6331 112.676 25.34L111.866 25.7555C111.196 24.9788 110.855 23.9715 110.915 22.9473V12.4623Z" fill="white"/>
<path d="M120.885 20.7041C120.885 17.7297 120.141 16.7992 117.815 16.7992C115.551 16.7992 114.741 17.6009 114.741 20.7041C114.741 23.8072 115.551 24.6172 117.815 24.6172C120.079 24.6172 120.885 23.6784 120.885 20.7041ZM113.761 20.7041C113.761 17.2312 114.836 15.9393 117.815 15.9393C120.793 15.9393 121.865 17.2769 121.865 20.7041C121.865 24.1312 120.793 25.4771 117.815 25.4771C114.836 25.4771 113.761 24.1852 113.761 20.7041Z" fill="white"/>
<path d="M129.459 25.2279C128.72 25.3868 127.967 25.4703 127.212 25.4771C124.071 25.4771 123.448 23.3295 123.448 20.6044C123.448 17.5635 124.133 15.9393 127.469 15.9393C128.134 15.9366 128.797 16.0162 129.442 16.1761L129.359 16.9487C128.855 16.8618 128.346 16.8132 127.835 16.8033C124.744 16.8033 124.437 17.9665 124.437 20.6044C124.437 23.0677 124.702 24.6006 127.806 24.6006C128.328 24.5778 128.848 24.5111 129.359 24.4012L129.459 25.2279Z" fill="white"/>
<path d="M131.86 20.4008L136.118 16.0639H137.348L132.791 20.6833L137.643 25.3525H136.301L131.86 21.0447V25.3525H130.888V12.4747H131.86V20.4008Z" fill="white"/>
<path d="M144.102 25.2279C143.362 25.3867 142.608 25.4702 141.851 25.4771C138.714 25.4771 138.091 23.3295 138.091 20.6044C138.091 17.5635 138.777 15.9393 142.112 15.9393C142.777 15.9366 143.44 16.0162 144.086 16.1761L144.003 16.9487C143.499 16.8618 142.989 16.8132 142.478 16.8033C139.387 16.8033 139.076 17.9665 139.076 20.6044C139.076 23.0677 139.346 24.6006 142.449 24.6006C142.971 24.5775 143.491 24.5108 144.003 24.4012L144.102 25.2279Z" fill="white"/>
<path d="M151.966 25.34V19.4744C151.966 17.6051 151.6 16.8033 149.058 16.8033C148.192 16.8103 147.331 16.9504 146.507 17.2187V25.34H145.54V12.4623H146.507V16.3256C147.441 16.0643 148.404 15.9247 149.374 15.9102C152.506 15.8853 152.946 17.1897 152.946 19.1753V25.34H151.966Z" fill="white"/>
<path d="M158.168 24.6338C159.105 24.6405 160.036 24.4831 160.918 24.1686C160.918 23.6992 160.943 23.0677 160.943 22.6233V20.405C159.627 20.4033 158.313 20.4921 157.009 20.6708C155.921 20.8827 155.406 21.3562 155.406 22.7188C155.406 24.2558 156.195 24.6338 158.168 24.6338ZM155.044 16.255C156.167 16.0554 157.306 15.9498 158.446 15.9393C160.395 15.9393 161.907 16.4212 161.907 18.7101V23.2173C161.907 23.7324 161.907 24.2683 161.869 24.7585C160.679 25.2701 159.392 25.5154 158.097 25.4771C155.605 25.4771 154.429 24.8042 154.429 22.7479C154.429 21.1485 155.098 20.1266 156.697 19.8857C158.107 19.7162 159.524 19.6205 160.943 19.5991V19.0258C160.943 17.4098 160.449 16.7992 158.189 16.7992C157.164 16.8163 156.143 16.9079 155.131 17.0734L155.044 16.255Z" fill="white"/>
<path d="M163.955 25.34H164.918V16.0639H163.951L163.955 25.34ZM163.855 13.156C163.855 12.562 163.984 12.3252 164.437 12.3252C164.889 12.3252 165.027 12.5495 165.027 13.156C165.027 13.7625 164.91 13.9536 164.437 13.9536C163.963 13.9536 163.855 13.7584 163.855 13.1685V13.156Z" fill="white"/>
<path d="M167.93 25.34H166.962V18.2365C166.962 17.7214 166.962 17.1897 166.996 16.6995C168.334 16.1865 169.757 15.9287 171.191 15.9393C174.315 15.9393 174.627 17.4223 174.627 19.2875V25.34H173.642V19.5243C173.642 17.6591 173.301 16.8033 170.797 16.8033C169.823 16.8204 168.859 16.99 167.939 17.306C167.939 17.7796 167.914 18.4068 167.914 18.8513L167.93 25.34Z" fill="white"/>
<path d="M39.352 20.0018C39.3479 23.8263 38.2097 27.5638 36.0815 30.7415C33.9532 33.9193 30.9305 36.3946 27.3955 37.8544C23.8604 39.3142 19.9719 39.6929 16.2216 38.9428C12.4713 38.1926 9.02773 36.3472 6.32625 33.6399C3.62477 30.9326 1.78676 27.485 1.04466 23.7331C0.302546 19.9813 0.689666 16.0936 2.15706 12.5617C3.62446 9.02981 6.10623 6.01238 9.28853 3.89097C12.4708 1.76957 16.2107 0.63946 20.0353 0.643566C25.1629 0.652372 30.0773 2.69604 33.6992 6.32569C37.3211 9.95534 39.3542 14.8742 39.352 20.0018Z" fill="white"/>
<path d="M13.2225 23.1426C13.2225 22.9333 13.1394 22.7325 12.9914 22.5845C12.8434 22.4365 12.6426 22.3533 12.4333 22.3533C12.2239 22.3533 12.0232 22.4365 11.8752 22.5845C11.7271 22.7325 11.644 22.9333 11.644 23.1426V29.0789C11.644 29.1825 11.6644 29.2852 11.7041 29.3809C11.7437 29.4767 11.8019 29.5637 11.8752 29.637C11.9484 29.7103 12.0355 29.7684 12.1312 29.8081C12.227 29.8477 12.3296 29.8681 12.4333 29.8681C12.5369 29.8681 12.6395 29.8477 12.7353 29.8081C12.8311 29.7684 12.9181 29.7103 12.9914 29.637C13.0647 29.5637 13.1228 29.4767 13.1625 29.3809C13.2021 29.2852 13.2225 29.1825 13.2225 29.0789V23.1426ZM28.3851 23.1426C28.3851 22.9333 28.3019 22.7325 28.1539 22.5845C28.0059 22.4365 27.8051 22.3533 27.5958 22.3533C27.3865 22.3533 27.1857 22.4365 27.0377 22.5845C26.8897 22.7325 26.8065 22.9333 26.8065 23.1426V29.0789C26.8065 29.2882 26.8897 29.489 27.0377 29.637C27.1857 29.785 27.3865 29.8681 27.5958 29.8681C27.8051 29.8681 28.0059 29.785 28.1539 29.637C28.3019 29.489 28.3851 29.2882 28.3851 29.0789V23.1426ZM25.8511 19.7778C25.8511 19.5685 25.7679 19.3677 25.6199 19.2197C25.4719 19.0717 25.2711 18.9885 25.0618 18.9885C24.8525 18.9885 24.6517 19.0717 24.5037 19.2197C24.3557 19.3677 24.2725 19.5685 24.2725 19.7778V29.0789C24.2725 29.2882 24.3557 29.489 24.5037 29.637C24.6517 29.785 24.8525 29.8681 25.0618 29.8681C25.2711 29.8681 25.4719 29.785 25.6199 29.637C25.7679 29.489 25.8511 29.2882 25.8511 29.0789V19.7778ZM15.7566 19.7778C15.7566 19.5685 15.6734 19.3677 15.5254 19.2197C15.3774 19.0717 15.1766 18.9885 14.9673 18.9885C14.7579 18.9885 14.5572 19.0717 14.4092 19.2197C14.2611 19.3677 14.178 19.5685 14.178 19.7778V29.0789C14.178 29.2882 14.2611 29.489 14.4092 29.637C14.5572 29.785 14.7579 29.8681 14.9673 29.8681C15.1766 29.8681 15.3774 29.785 15.5254 29.637C15.6734 29.489 15.7566 29.2882 15.7566 29.0789V19.7778ZM23.3171 14.0451C23.3171 13.8358 23.2339 13.635 23.0859 13.487C22.9379 13.339 22.7371 13.2558 22.5278 13.2558C22.3184 13.2558 22.1177 13.339 21.9697 13.487C21.8216 13.635 21.7385 13.8358 21.7385 14.0451V26.0505C21.7385 26.2598 21.8216 26.4606 21.9697 26.6086C22.1177 26.7566 22.3184 26.8398 22.5278 26.8398C22.7371 26.8398 22.9379 26.7566 23.0859 26.6086C23.2339 26.4606 23.3171 26.2598 23.3171 26.0505V14.0451ZM18.2906 14.0451C18.2906 13.9415 18.2702 13.8388 18.2305 13.7431C18.1908 13.6473 18.1327 13.5603 18.0594 13.487C17.9861 13.4137 17.8991 13.3556 17.8033 13.3159C17.7076 13.2762 17.6049 13.2558 17.5013 13.2558C17.3976 13.2558 17.295 13.2762 17.1992 13.3159C17.1035 13.3556 17.0165 13.4137 16.9432 13.487C16.8699 13.5603 16.8118 13.6473 16.7721 13.7431C16.7324 13.8388 16.712 13.9415 16.712 14.0451V26.0505C16.712 26.1542 16.7324 26.2568 16.7721 26.3526C16.8118 26.4483 16.8699 26.5353 16.9432 26.6086C17.0165 26.6819 17.1035 26.7401 17.1992 26.7797C17.295 26.8194 17.3976 26.8398 17.5013 26.8398C17.6049 26.8398 17.7076 26.8194 17.8033 26.7797C17.8991 26.7401 17.9861 26.6819 18.0594 26.6086C18.1327 26.5353 18.1908 26.4483 18.2305 26.3526C18.2702 26.2568 18.2906 26.1542 18.2906 26.0505V14.0451ZM20.8246 23.5165C20.8246 23.7258 20.7414 23.9266 20.5934 24.0746C20.4454 24.2226 20.2446 24.3058 20.0353 24.3058C19.826 24.3058 19.6252 24.2226 19.4772 24.0746C19.3292 23.9266 19.246 23.7258 19.246 23.5165V10.2649C19.246 10.0555 19.3292 9.85478 19.4772 9.70676C19.6252 9.55874 19.826 9.47559 20.0353 9.47559C20.2446 9.47559 20.4454 9.55874 20.5934 9.70676C20.7414 9.85478 20.8246 10.0555 20.8246 10.2649V23.5165Z" fill="#007BFF"/>
</svg>
