<svg width="480" height="69" viewBox="0 0 480 69" fill="none" xmlns="http://www.w3.org/2000/svg">
<g filter="url(#filter0_d)">
<path d="M45.1207 33.792C48.0007 34.704 50.2567 36.24 51.8887 38.4C53.5207 40.512 54.3367 43.128 54.3367 46.248C54.3367 50.664 52.6087 54.072 49.1527 56.472C45.7447 58.824 40.7527 60 34.1767 60H8.11273V9.59999H32.7367C38.8807 9.59999 43.5847 10.776 46.8487 13.128C50.1607 15.48 51.8167 18.672 51.8167 22.704C51.8167 25.152 51.2167 27.336 50.0167 29.256C48.8647 31.176 47.2327 32.688 45.1207 33.792ZM19.7047 18.384V30.264H31.2967C34.1767 30.264 36.3607 29.76 37.8487 28.752C39.3367 27.744 40.0807 26.256 40.0807 24.288C40.0807 22.32 39.3367 20.856 37.8487 19.896C36.3607 18.888 34.1767 18.384 31.2967 18.384H19.7047ZM33.3127 51.216C36.3847 51.216 38.6887 50.712 40.2247 49.704C41.8087 48.696 42.6007 47.136 42.6007 45.024C42.6007 40.848 39.5047 38.76 33.3127 38.76H19.7047V51.216H33.3127Z" fill="white"/>
<path d="M130.991 50.64V60H91.9674V9.59999H130.055V18.96H103.559V29.904H126.959V38.976H103.559V50.64H130.991Z" fill="white"/>
<path d="M192.772 42.144V60H181.108V42L161.596 9.59999H173.98L187.444 31.992L200.908 9.59999H212.356L192.772 42.144Z" fill="white"/>
<path d="M268.264 60.864C263.032 60.864 258.304 59.736 254.08 57.48C249.904 55.224 246.616 52.128 244.216 48.192C241.864 44.208 240.688 39.744 240.688 34.8C240.688 29.856 241.864 25.416 244.216 21.48C246.616 17.496 249.904 14.376 254.08 12.12C258.304 9.86399 263.032 8.73599 268.264 8.73599C273.496 8.73599 278.2 9.86399 282.376 12.12C286.552 14.376 289.84 17.496 292.24 21.48C294.64 25.416 295.84 29.856 295.84 34.8C295.84 39.744 294.64 44.208 292.24 48.192C289.84 52.128 286.552 55.224 282.376 57.48C278.2 59.736 273.496 60.864 268.264 60.864ZM268.264 50.928C271.24 50.928 273.928 50.256 276.328 48.912C278.728 47.52 280.6 45.6 281.944 43.152C283.336 40.704 284.032 37.92 284.032 34.8C284.032 31.68 283.336 28.896 281.944 26.448C280.6 24 278.728 22.104 276.328 20.76C273.928 19.368 271.24 18.672 268.264 18.672C265.288 18.672 262.6 19.368 260.2 20.76C257.8 22.104 255.904 24 254.512 26.448C253.168 28.896 252.496 31.68 252.496 34.8C252.496 37.92 253.168 40.704 254.512 43.152C255.904 45.6 257.8 47.52 260.2 48.912C262.6 50.256 265.288 50.928 268.264 50.928Z" fill="white"/>
<path d="M379.63 9.59999V60H370.054L344.926 29.4V60H333.406V9.59999H343.054L368.11 40.2V9.59999H379.63Z" fill="white"/>
<path d="M420.355 9.59999H443.251C448.723 9.59999 453.547 10.656 457.723 12.768C461.947 14.832 465.211 17.76 467.515 21.552C469.867 25.344 471.043 29.76 471.043 34.8C471.043 39.84 469.867 44.256 467.515 48.048C465.211 51.84 461.947 54.792 457.723 56.904C453.547 58.968 448.723 60 443.251 60H420.355V9.59999ZM442.675 50.424C447.715 50.424 451.723 49.032 454.699 46.248C457.723 43.416 459.235 39.6 459.235 34.8C459.235 30 457.723 26.208 454.699 23.424C451.723 20.592 447.715 19.176 442.675 19.176H432.019V50.424H442.675Z" fill="white"/>
</g>
<defs>
<filter id="filter0_d" x="0.112732" y="0.735992" width="478.93" height="68.128" filterUnits="userSpaceOnUse" color-interpolation-filters="sRGB">
<feFlood flood-opacity="0" result="BackgroundImageFix"/>
<feColorMatrix in="SourceAlpha" type="matrix" values="0 0 0 0 0 0 0 0 0 0 0 0 0 0 0 0 0 0 127 0"/>
<feOffset/>
<feGaussianBlur stdDeviation="4"/>
<feColorMatrix type="matrix" values="0 0 0 0 1 0 0 0 0 1 0 0 0 0 1 0 0 0 1 0"/>
<feBlend mode="normal" in2="BackgroundImageFix" result="effect1_dropShadow"/>
<feBlend mode="normal" in="SourceGraphic" in2="effect1_dropShadow" result="shape"/>
</filter>
</defs>
</svg>
