<svg width="479" height="99" viewBox="0 0 479 99" fill="none" xmlns="http://www.w3.org/2000/svg">
<g filter="url(#filter0_d)">
<path d="M45.008 33.792C47.888 34.704 50.144 36.24 51.776 38.4C53.408 40.512 54.224 43.128 54.224 46.248C54.224 50.664 52.496 54.072 49.04 56.472C45.632 58.824 40.64 60 34.064 60H8V9.59999H32.624C38.768 9.59999 43.472 10.776 46.736 13.128C50.048 15.48 51.704 18.672 51.704 22.704C51.704 25.152 51.104 27.336 49.904 29.256C48.752 31.176 47.12 32.688 45.008 33.792ZM19.592 18.384V30.264H31.184C34.064 30.264 36.248 29.76 37.736 28.752C39.224 27.744 39.968 26.256 39.968 24.288C39.968 22.32 39.224 20.856 37.736 19.896C36.248 18.888 34.064 18.384 31.184 18.384H19.592ZM33.2 51.216C36.272 51.216 38.576 50.712 40.112 49.704C41.696 48.696 42.488 47.136 42.488 45.024C42.488 40.848 39.392 38.76 33.2 38.76H19.592V51.216H33.2Z" fill="white"/>
<path d="M130.879 50.64V60H91.8547V9.59999H129.943V18.96H103.447V29.904H126.847V38.976H103.447V50.64H130.879Z" fill="white"/>
<path d="M192.659 42.144V60H180.995V42L161.483 9.59999H173.867L187.331 31.992L200.795 9.59999H212.243L192.659 42.144Z" fill="white"/>
<path d="M268.152 60.864C262.92 60.864 258.192 59.736 253.968 57.48C249.792 55.224 246.504 52.128 244.104 48.192C241.752 44.208 240.576 39.744 240.576 34.8C240.576 29.856 241.752 25.416 244.104 21.48C246.504 17.496 249.792 14.376 253.968 12.12C258.192 9.86399 262.92 8.73599 268.152 8.73599C273.384 8.73599 278.088 9.86399 282.264 12.12C286.44 14.376 289.728 17.496 292.128 21.48C294.528 25.416 295.728 29.856 295.728 34.8C295.728 39.744 294.528 44.208 292.128 48.192C289.728 52.128 286.44 55.224 282.264 57.48C278.088 59.736 273.384 60.864 268.152 60.864ZM268.152 50.928C271.128 50.928 273.816 50.256 276.216 48.912C278.616 47.52 280.488 45.6 281.832 43.152C283.224 40.704 283.92 37.92 283.92 34.8C283.92 31.68 283.224 28.896 281.832 26.448C280.488 24 278.616 22.104 276.216 20.76C273.816 19.368 271.128 18.672 268.152 18.672C265.176 18.672 262.488 19.368 260.088 20.76C257.688 22.104 255.792 24 254.4 26.448C253.056 28.896 252.384 31.68 252.384 34.8C252.384 37.92 253.056 40.704 254.4 43.152C255.792 45.6 257.688 47.52 260.088 48.912C262.488 50.256 265.176 50.928 268.152 50.928Z" fill="white"/>
<path d="M379.518 9.59999V60H369.942L344.814 29.4V60H333.294V9.59999H342.942L367.998 40.2V9.59999H379.518Z" fill="white"/>
<path d="M420.242 9.59999H443.138C448.61 9.59999 453.434 10.656 457.61 12.768C461.834 14.832 465.098 17.76 467.402 21.552C469.754 25.344 470.93 29.76 470.93 34.8C470.93 39.84 469.754 44.256 467.402 48.048C465.098 51.84 461.834 54.792 457.61 56.904C453.434 58.968 448.61 60 443.138 60H420.242V9.59999ZM442.562 50.424C447.602 50.424 451.61 49.032 454.586 46.248C457.61 43.416 459.122 39.6 459.122 34.8C459.122 30 457.61 26.208 454.586 23.424C451.61 20.592 447.602 19.176 442.562 19.176H431.906V50.424H442.562Z" fill="white"/>
</g>
<path fill-rule="evenodd" clip-rule="evenodd" d="M370.251 85H372.93V97.6736H370.232L370.227 97.6021L370.227 97.6007C370.219 97.4995 370.213 97.4137 370.213 97.3279V85.3744C370.217 85.3121 370.225 85.2498 370.232 85.1875L370.24 85.1177C370.244 85.0784 370.248 85.0392 370.251 85ZM368.926 97.0303C368.158 96.435 367.601 95.6669 367.256 94.7164C366.18 95.2253 365.345 95.0909 364.759 94.3612C364.231 93.7083 364.222 92.7674 364.73 92.1049C365.307 91.356 366.132 91.2216 367.256 91.7016C367.592 90.7607 368.158 89.983 368.965 89.3685C366.958 87.8612 364.087 88.2356 362.503 90.1654C360.842 92.1721 361.101 95.1292 363.079 96.8479C364.74 98.2784 367.64 98.3841 368.926 97.0303ZM357.299 97.6639H359.997C359.997 96.983 359.999 96.3063 360.001 95.6321C360.006 94.2911 360.01 92.9601 359.997 91.6248C359.987 90.8375 359.728 90.0982 359.162 89.5029C357.981 88.274 355.792 88.178 354.38 89.2917C354.365 89.3033 354.351 89.3158 354.337 89.3287C354.316 89.3485 354.295 89.3695 354.275 89.3904C354.199 89.4691 354.123 89.5472 353.996 89.5605C353.944 89.4386 353.941 89.3087 353.938 89.1825C353.935 89.0307 353.932 88.8843 353.843 88.7636H351.25V97.6447H353.977L353.977 97.4036L353.977 97.0794L353.976 96.6206L353.975 96.1498C353.973 95.1684 353.971 94.1983 353.977 93.2282C353.977 92.9402 353.987 92.6521 354.044 92.3737C354.227 91.4136 355.033 90.8279 355.984 90.9239C356.79 91.0103 357.222 91.5864 357.232 92.6137C357.242 94.1307 357.242 95.6573 357.242 97.1839C357.242 97.2201 357.239 97.2568 357.236 97.2939C357.227 97.4144 357.218 97.5392 357.299 97.6639ZM340.036 93.161C340.055 90.5399 342.196 88.4372 344.846 88.4372C347.506 88.4372 349.657 90.5783 349.657 93.2186C349.657 95.8589 347.496 98 344.837 97.9904C342.139 97.9808 340.017 95.8493 340.036 93.161ZM343.857 95.4461H345.826C345.72 94.7644 345.614 94.1211 345.509 93.497C346.19 92.7194 346.258 92.0569 345.701 91.5192C345.24 91.0679 344.481 91.0391 344.011 91.4808C343.454 92.0089 343.368 92.7001 344.155 93.5163C344.059 94.1499 343.963 94.7932 343.857 95.4461ZM382.714 91.5672C382.512 89.8582 381.427 88.7637 379.728 88.5044C378.691 88.3412 377.654 88.3988 376.636 88.6676C375.935 88.8501 375.273 89.1477 374.687 89.6278C374.894 89.936 375.096 90.2336 375.293 90.5234L375.305 90.541C375.477 90.7957 375.646 91.0443 375.81 91.2888L375.963 91.2122C376.2 91.0929 376.4 90.9922 376.607 90.9047C377.471 90.5495 378.364 90.4151 379.267 90.7223C379.9 90.9335 380.102 91.2888 380.073 91.9417C379.869 91.9417 379.664 91.9395 379.458 91.9374C379.044 91.9331 378.627 91.9288 378.211 91.9417C377.01 91.98 375.897 92.2777 375.052 93.1994C373.583 94.8028 374.332 97.3471 376.444 97.8272C377.721 98.1248 378.921 97.952 379.929 97.0303C379.977 96.9823 380.025 96.9535 380.092 96.9919L380.121 97.2105C380.14 97.3556 380.16 97.5007 380.179 97.6544H382.781C382.781 97.5842 382.781 97.5146 382.781 97.4453L382.783 97.2148C382.785 96.9279 382.787 96.6452 382.781 96.3582C382.774 95.8418 382.785 95.3224 382.795 94.8015C382.815 93.7245 382.836 92.6415 382.714 91.5672ZM377.999 95.7053C377.586 95.6381 377.327 95.4365 377.298 95.0044C377.26 94.5724 377.452 94.2747 377.855 94.1115C378.268 93.9387 379.094 93.8907 379.814 93.9963C379.929 95.2253 379.19 95.9165 377.999 95.7053ZM398.527 88.4468C400.504 88.5812 401.945 89.9158 402.367 92.0281C402.501 92.6713 402.54 93.3146 402.482 94.0539H396.146C396.184 94.9372 396.894 95.6285 397.874 95.7821C399.064 95.9645 400.159 95.6765 401.186 94.966C401.288 95.1211 401.388 95.2748 401.488 95.4278L401.753 95.8349C401.94 96.123 402.127 96.411 402.319 96.7038C400.773 97.8848 399.045 98.2112 397.192 97.8944C395.224 97.5583 393.889 96.2526 393.505 94.3131C393.313 93.3338 393.361 92.3545 393.707 91.404C394.437 89.3685 396.213 88.2836 398.527 88.4468ZM398.162 90.5879C397.048 90.5399 396.261 91.164 396.136 92.2297H399.871C399.823 91.2696 399.151 90.6263 398.162 90.5879ZM390.385 88.7444C389.713 90.6551 389.041 92.5657 388.34 94.5724C387.61 92.5657 386.909 90.6455 386.218 88.754H383.126C384.37 91.6805 385.595 94.5615 386.82 97.4412L386.919 97.6735H389.569C390.846 94.7068 392.123 91.7496 393.419 88.754C392.363 88.7444 391.383 88.7444 390.385 88.7444ZM339.537 97.0303C338.769 96.435 338.212 95.6669 337.866 94.7164C336.791 95.2253 335.956 95.0909 335.37 94.3612C334.842 93.7083 334.832 92.7674 335.341 92.1049C335.917 91.356 336.743 91.2216 337.866 91.7016C338.202 90.7607 338.769 89.983 339.575 89.3685C337.569 87.8612 334.698 88.2356 333.114 90.1654C331.453 92.1721 331.712 95.1292 333.69 96.8479C335.351 98.2784 338.25 98.3841 339.537 97.0303Z" fill="#FEFEFE"/>
<path d="M419.311 93.2331C419.311 93.266 419.294 93.4961 419.261 93.9234H412.572C412.692 94.4713 412.977 94.9042 413.426 95.2219C413.876 95.5397 414.434 95.6986 415.103 95.6986C415.563 95.6986 415.969 95.6329 416.319 95.5014C416.681 95.3589 417.015 95.1397 417.322 94.8439L418.686 96.3232C417.853 97.2765 416.637 97.7532 415.037 97.7532C414.04 97.7532 413.158 97.5614 412.391 97.1779C411.624 96.7834 411.032 96.241 410.616 95.5507C410.199 94.8603 409.991 94.0768 409.991 93.2002C409.991 92.3346 410.194 91.5565 410.599 90.8662C411.016 90.1649 411.58 89.6225 412.292 89.239C413.015 88.8445 413.821 88.6473 414.708 88.6473C415.574 88.6473 416.358 88.8335 417.059 89.2061C417.76 89.5787 418.308 90.1156 418.703 90.8169C419.108 91.5072 419.311 92.3126 419.311 93.2331ZM414.725 90.5868C414.144 90.5868 413.656 90.7511 413.262 91.0799C412.868 91.4086 412.626 91.8579 412.539 92.4277H416.895C416.807 91.8688 416.566 91.4251 416.171 91.0963C415.777 90.7566 415.295 90.5868 414.725 90.5868Z" fill="white"/>
<path d="M430.025 85.4257V97.6217H427.576V96.6026C426.94 97.3697 426.02 97.7532 424.815 97.7532C423.982 97.7532 423.226 97.5669 422.546 97.1943C421.878 96.8218 421.352 96.2903 420.968 95.6C420.585 94.9096 420.393 94.1097 420.393 93.2002C420.393 92.2907 420.585 91.4908 420.968 90.8005C421.352 90.1101 421.878 89.5787 422.546 89.2061C423.226 88.8335 423.982 88.6473 424.815 88.6473C425.943 88.6473 426.825 89.0034 427.461 89.7156V85.4257H430.025ZM425.258 95.6493C425.905 95.6493 426.442 95.4301 426.869 94.9918C427.297 94.5425 427.51 93.9453 427.51 93.2002C427.51 92.4551 427.297 91.8634 426.869 91.4251C426.442 90.9758 425.905 90.7511 425.258 90.7511C424.601 90.7511 424.059 90.9758 423.631 91.4251C423.204 91.8634 422.99 92.4551 422.99 93.2002C422.99 93.9453 423.204 94.5425 423.631 94.9918C424.059 95.4301 424.601 95.6493 425.258 95.6493Z" fill="white"/>
<path d="M432.398 88.7787H434.962V97.6217H432.398V88.7787ZM433.68 87.546C433.209 87.546 432.826 87.409 432.53 87.1351C432.234 86.8611 432.086 86.5214 432.086 86.116C432.086 85.7106 432.234 85.3709 432.53 85.0969C432.826 84.823 433.209 84.686 433.68 84.686C434.152 84.686 434.535 84.8175 434.831 85.0805C435.127 85.3435 435.275 85.6722 435.275 86.0667C435.275 86.494 435.127 86.8502 434.831 87.1351C434.535 87.409 434.152 87.546 433.68 87.546Z" fill="white"/>
<path d="M443.046 97.1943C442.794 97.3806 442.481 97.5231 442.109 97.6217C441.747 97.7094 441.364 97.7532 440.958 97.7532C439.906 97.7532 439.09 97.4847 438.509 96.9478C437.939 96.4109 437.654 95.6219 437.654 94.5809V90.9484H436.29V88.976H437.654V86.8228H440.219V88.976H442.421V90.9484H440.219V94.548C440.219 94.9206 440.312 95.211 440.498 95.4192C440.695 95.6164 440.969 95.715 441.32 95.715C441.725 95.715 442.07 95.6055 442.355 95.3863L443.046 97.1943Z" fill="white"/>
<path d="M444.485 88.7787H447.049V97.6217H444.485V88.7787ZM445.767 87.546C445.296 87.546 444.912 87.409 444.617 87.1351C444.321 86.8611 444.173 86.5214 444.173 86.116C444.173 85.7106 444.321 85.3709 444.617 85.0969C444.912 84.823 445.296 84.686 445.767 84.686C446.238 84.686 446.622 84.8175 446.918 85.0805C447.214 85.3435 447.361 85.6722 447.361 86.0667C447.361 86.494 447.214 86.8502 446.918 87.1351C446.622 87.409 446.238 87.546 445.767 87.546Z" fill="white"/>
<path d="M453.637 97.7532C452.705 97.7532 451.867 97.5614 451.122 97.1779C450.388 96.7834 449.812 96.241 449.396 95.5507C448.98 94.8603 448.771 94.0768 448.771 93.2002C448.771 92.3236 448.98 91.5401 449.396 90.8498C449.812 90.1594 450.388 89.6225 451.122 89.239C451.867 88.8445 452.705 88.6473 453.637 88.6473C454.568 88.6473 455.401 88.8445 456.135 89.239C456.869 89.6225 457.445 90.1594 457.861 90.8498C458.277 91.5401 458.486 92.3236 458.486 93.2002C458.486 94.0768 458.277 94.8603 457.861 95.5507C457.445 96.241 456.869 96.7834 456.135 97.1779C455.401 97.5614 454.568 97.7532 453.637 97.7532ZM453.637 95.6493C454.294 95.6493 454.831 95.4301 455.248 94.9918C455.675 94.5425 455.889 93.9453 455.889 93.2002C455.889 92.4551 455.675 91.8634 455.248 91.4251C454.831 90.9758 454.294 90.7511 453.637 90.7511C452.979 90.7511 452.437 90.9758 452.009 91.4251C451.582 91.8634 451.368 92.4551 451.368 93.2002C451.368 93.9453 451.582 94.5425 452.009 94.9918C452.437 95.4301 452.979 95.6493 453.637 95.6493Z" fill="white"/>
<path d="M465.574 88.6473C466.67 88.6473 467.552 88.976 468.221 89.6335C468.9 90.2909 469.24 91.2662 469.24 92.5592V97.6217H466.676V92.9537C466.676 92.2524 466.522 91.7319 466.215 91.3922C465.908 91.0415 465.465 90.8662 464.884 90.8662C464.237 90.8662 463.722 91.0689 463.339 91.4744C462.955 91.8688 462.764 92.4606 462.764 93.2495V97.6217H460.199V88.7787H462.649V89.8143C462.988 89.4417 463.41 89.1568 463.914 88.9595C464.418 88.7514 464.972 88.6473 465.574 88.6473Z" fill="white"/>
<defs>
<filter id="filter0_d" x="0" y="0.735992" width="478.93" height="68.128" filterUnits="userSpaceOnUse" color-interpolation-filters="sRGB">
<feFlood flood-opacity="0" result="BackgroundImageFix"/>
<feColorMatrix in="SourceAlpha" type="matrix" values="0 0 0 0 0 0 0 0 0 0 0 0 0 0 0 0 0 0 127 0"/>
<feOffset/>
<feGaussianBlur stdDeviation="4"/>
<feColorMatrix type="matrix" values="0 0 0 0 1 0 0 0 0 1 0 0 0 0 1 0 0 0 1 0"/>
<feBlend mode="normal" in2="BackgroundImageFix" result="effect1_dropShadow"/>
<feBlend mode="normal" in="SourceGraphic" in2="effect1_dropShadow" result="shape"/>
</filter>
</defs>
</svg>
