<svg xmlns="http://www.w3.org/2000/svg" xmlns:xlink="http://www.w3.org/1999/xlink" viewBox="0 0 280.63 314.65"><defs><style>.cls-1,.cls-13,.cls-14,.cls-15,.cls-16{fill:none;}.cls-2{isolation:isolate;}.cls-3{clip-path:url(#clip-path);}.cls-4{fill:#0049ff;}.cls-5{fill:#6ef3fd;}.cls-6{mix-blend-mode:multiply;}.cls-7{clip-path:url(#clip-path-4);}.cls-8{clip-path:url(#clip-path-5);}.cls-9{fill:url(#linear-gradient);}.cls-10{clip-path:url(#clip-path-6);}.cls-11{fill:url(#linear-gradient-2);}.cls-12{fill:#00b0f8;}.cls-13,.cls-14{stroke:#64f0ff;}.cls-13{stroke-width:0.37px;}.cls-14{stroke-width:0.92px;}.cls-15{stroke:#64f0ff;stroke-width:3.7px;}.cls-15,.cls-16{stroke-linecap:round;stroke-linejoin:round;}.cls-16{stroke:#007bff;stroke-width:6.16px;}</style><clipPath id="clip-path"><rect class="cls-1" x="66.64" y="64.68" width="147.4" height="180.71"/></clipPath><clipPath id="clip-path-4"><rect class="cls-1" x="184.11" y="94.63" width="29.93" height="23.17"/></clipPath><clipPath id="clip-path-5"><path class="cls-1" d="M66.76,164.31h0v.05s.12,24.11,22.92,48.47c10.91,11.66,26.93,23.38,50.63,32.56,0,0,.11-32.63,0-32.58-16.69-8.06-29-18.27-36.58-30.45a47.33,47.33,0,0,1-7-18.05h0V94.61l-29.93,0Z"/></clipPath><linearGradient id="linear-gradient" x1="3819.19" y1="341" x2="3819.48" y2="341" gradientTransform="matrix(0, 603.65, 603.65, 0, -205741.24, -2305346.36)" gradientUnits="userSpaceOnUse"><stop offset="0" stop-color="#6ef3fd"/><stop offset="0.03" stop-color="#6ef3fd"/><stop offset="0.33" stop-color="#00b0f8"/><stop offset="0.64" stop-color="#0049ff"/><stop offset="0.9" stop-color="#002aff"/><stop offset="1" stop-color="#002aff"/></linearGradient><clipPath id="clip-path-6"><path class="cls-1" d="M184,164.35c-.73,5.33-6.07,30.08-43.42,48.32l-.29.13v32.59c23.56-9.17,39.82-20.95,50.69-32.56,22.79-24.36,23-48.43,23-48.43v-.05Z"/></clipPath><linearGradient id="linear-gradient-2" x1="3816.79" y1="356.4" x2="3817.08" y2="356.4" gradientTransform="matrix(352.73, 0, 0, -352.73, -1346146.74, 125917.12)" xlink:href="#linear-gradient"/></defs><title>mantle-white_1</title><g class="cls-2"><g id="graphic"><g class="cls-3"><g class="cls-3"><g class="cls-3"><path class="cls-4" d="M184.11,163.62c0,.17-.05.43-.09.73h30V141H184.11Z"/><rect class="cls-5" x="184.11" y="94.63" width="29.93" height="23.17"/><g class="cls-6"><g class="cls-7"><rect class="cls-5" x="184.11" y="94.63" width="29.93" height="23.17"/></g></g><polygon class="cls-5" points="153.29 64.68 153.27 64.7 140.34 77.63 127.41 64.7 127.39 64.68 66.76 64.68 66.64 64.7 66.76 94.63 115.02 94.63 140.34 119.94 165.66 94.63 165.68 94.6 214.04 94.63 214.04 94.6 214.04 64.7 214.04 64.68 153.29 64.68"/></g><g class="cls-8"><rect class="cls-9" x="32.92" y="86.44" width="141.34" height="167.11" transform="translate(-73.3 78.68) rotate(-31.34)"/></g><g class="cls-10"><rect class="cls-11" x="123.76" y="152.84" width="106.82" height="104.06" transform="translate(-88.36 258.31) rotate(-60.52)"/></g><g class="cls-3"><rect class="cls-12" x="184.09" y="117.81" width="29.93" height="23.17"/></g></g></g><path class="cls-13" d="M163,304c29.88-11.57,54.72-27.8,73.84-48.24,37.74-40.32,39.85-83,39.89-91.13l.17-138.39A24.46,24.46,0,0,0,252.47,1.79H28.16A24.46,24.46,0,0,0,3.7,26.25V165c.12,11.39,3.35,51.59,40,90.78,19,20.33,43.86,36.54,73.8,48.19l22.75,8.86Z"/><path class="cls-14" d="M155.46,284.49c26.91-10.43,49.15-24.9,66.1-43,32.4-34.61,34.2-70.14,34.24-76.92L256,36.75a14,14,0,0,0-14-14H135.87v0l-8.47,0H38.64a14,14,0,0,0-14,14l0,104.31v23.78c.06,6.75,2,42.14,34.35,76.66,16.86,18,39.1,32.48,66.09,43l15.17,5.9Z"/><path class="cls-15" d="M140.3,267.88l7.59-2.94c24-9.28,43.59-22,58.37-37.78,27.62-29.51,28.56-59.39,28.57-62.7L235,50.71a7,7,0,0,0-7-7H144.56L140.29,48,136,43.73H52.62a7,7,0,0,0-7,7V141"/><path class="cls-16" d="M45.63,164.61c0,3.3,1.12,33.08,28.7,62.55,12.44,13.29,28.42,24.44,47.61,33.22"/></g></g></svg>