<?xml version="1.0" encoding="utf-8"?>
<svg version="1.1" id="Layer_1" xmlns="http://www.w3.org/2000/svg" xmlns:xlink="http://www.w3.org/1999/xlink" x="0px" y="0px"
	 viewBox="0 0 141.7 183" style="enable-background:new 0 0 141.7 183;" xml:space="preserve">
<style type="text/css">
	.st0{fill:#161656;}
	.st1{fill:#007bff;}
	.st2{fill:none;stroke:#64f0ff;stroke-width:5;stroke-linecap:round;stroke-linejoin:round;}
	.st3{fill:none;stroke:#007bff;stroke-width:5;stroke-linecap:round;stroke-linejoin:round;}
	.st4{fill:#ff6f00;}
</style>
<title>Lock icon</title>
<g id="Desktop">
	<g id="_x35_-Project-" transform="translate(-1132.000000, -3017.000000)">
		<g id="Group-14" transform="translate(1134.000000, 3016.000000)">
			<polygon id="Fill-1" class="st0" points="66.4,124.3 72.5,124.3 72.5,107.3 66.4,107.3 			"/>
			<g id="Group-13" transform="translate(0.000000, 0.643400)">
				<path id="Fill-2" class="st1" d="M77.5,105.3c0,4.5-3.6,8.1-8.1,8.1s-8.1-3.6-8.1-8.1s3.6-8.1,8.1-8.1
					C73.9,97.2,77.5,100.8,77.5,105.3"/>
				<path id="Fill-4" class="st0" d="M69.4,100.2c-2.8,0-5,2.3-5,5c0,2.8,2.3,5,5,5s5-2.3,5-5C74.5,102.5,72.2,100.2,69.4,100.2
					 M69.4,116.4c-6.1,0-11.1-5-11.1-11.1s5-11.1,11.1-11.1s11.1,5,11.1,11.1S75.6,116.4,69.4,116.4"/>
				<path id="Stroke-6" class="st2" d="M34.4,97.9v-5.2c0-5.7,4.7-10.4,10.4-10.4h47.5c5.7,0,10.4,4.7,10.4,10.4V112"/>
				<path id="Stroke-8" class="st3" d="M102.7,122.7v4.4c0,5.7-4.7,10.4-10.4,10.4H44.8c-5.7,0-10.4-4.7-10.4-10.4v-19.7"/>
				<g id="Group-12" transform="translate(7.000000, 0.000000)">
					<g id="Clip-11">
					</g>
					<path id="Fill-10" class="st4" d="M45.8,69.1c0-7.9,6.4-14.2,14.2-14.2h2.4c7.9,0,14.2,6.4,14.2,14.2v7.6h11.5v-7.6
						c0-14.2-11.6-25.8-25.8-25.8h-2.4c-14.2,0-25.8,11.6-25.8,25.8v7.6h11.5v-7.6H45.8z"/>
				</g>
			</g>
		</g>
	</g>
</g>
</svg>
