<?xml version="1.0" encoding="UTF-8"?>
<svg width="226px" height="159px" viewBox="0 0 226 159" version="1.1" xmlns="http://www.w3.org/2000/svg" xmlns:xlink="http://www.w3.org/1999/xlink">
    <title>Advisory icon</title>
    <defs></defs>
    <g id="Desktop" stroke="none" stroke-width="1" fill="none" fill-rule="evenodd" stroke-linecap="round">
        <g id="2-Services" transform="translate(-957.000000, -1521.000000)" stroke-width="6">
            <g id="Consultationn-icon" transform="translate(960.000000, 1523.000000)">
                <path d="M71.7219,13.3471 C72.3899,13.2371 75.8319,13.1791 76.5299,13.1791 L81.4559,13.1791 C88.3989,13.1791 94.0789,18.8591 94.0789,25.8021 L94.0789,37.8541 C94.0789,44.7971 88.3989,50.4771 81.4559,50.4771 L76.5299,50.4771 C76.3889,50.4771 73.4929,50.4751 73.3529,50.4701" id="Stroke-1" stroke="#007bff"></path>
                <path d="M16.7861,92.8102 L16.7861,152.6472" id="Stroke-3" stroke="#ff6f00"></path>
                <path d="M59.3755,92.8102 L59.3755,152.6472" id="Stroke-5" stroke="#007bff"></path>
                <path d="M200.5117,92.8102 L200.5117,153.1902" id="Stroke-7" stroke="#161656" stroke-linejoin="round"></path>
                <path d="M8.7578,131.0886 C3.3138,124.9206 -0.0002,116.8336 -0.0002,108.0096 L-0.0002,95.9016 C-0.0002,76.6776 15.7288,60.9486 34.9518,60.9486 L41.5598,60.9486 C43.6918,60.9486 41.9268,61.2726 43.9568,61.6426" id="Stroke-9" stroke="#161656"></path>
                <path d="M55.729,63.9678 C62.722,67.0948 68.52,72.4578 72.198,79.1328" id="Stroke-11" stroke="#64f0ff" stroke-linejoin="round"></path>
                <path d="M75.2966,89.6428 C76.0886,92.5538 76.5116,92.7488 76.5116,95.9008 L76.5116,108.0098 C76.5116,117.1848 72.9296,125.5628 67.0936,131.8158" id="Stroke-13" stroke="#007bff"></path>
                <path d="M179.7661,55.5206 C169.4411,55.5206 160.9931,47.0726 160.9931,36.7476 L160.9931,27.8796 C160.9931,17.5546 169.4411,9.1066 179.7661,9.1066 C190.0911,9.1066 198.5391,17.5546 198.5391,27.8796 L198.5391,36.7476 C198.5391,47.0726 190.0911,55.5206 179.7661,55.5206 Z" id="Stroke-15" stroke="#007bff" stroke-linejoin="round"></path>
                <path d="M40.4321,48.5495 C29.8541,48.5495 21.2001,39.8945 21.2001,29.3175 L21.2001,20.2325 C21.2001,9.6545 29.8541,0.9995 40.4321,0.9995 C51.0101,0.9995 59.6641,9.6545 59.6641,20.2325 L59.6641,29.3175 C59.6641,39.8945 51.0101,48.5495 40.4321,48.5495 Z" id="Stroke-17" stroke="#007bff" stroke-linejoin="round"></path>
                <path d="M92.9387,71.0554 C98.5977,73.5864 103.2897,77.9254 106.2667,83.3274" id="Stroke-19" stroke="#161656"></path>
                <path d="M108.7739,92.6428 C109.4149,94.9978 109.7569,94.3468 109.7569,96.8978 L109.7569,106.6968 C109.7569,114.1208 106.8579,120.9018 102.1359,125.9608" id="Stroke-21" stroke="#007bff"></path>
                <path d="M100.1289,106.3947 L100.1289,152.9087" id="Stroke-23" stroke="#007bff"></path>
                <path d="M157.3796,96.3154 L157.3796,153.7334" id="Stroke-25" stroke="#007bff" stroke-linejoin="round"></path>
                <path d="M130.4279,106.6845 C130.4279,106.6845 142.5849,107.3245 156.6619,95.8065" id="Stroke-27" stroke="#007bff" stroke-linejoin="round"></path>
                <path d="M125.9565,92.6428 C125.9565,92.6428 140.0255,93.8878 156.0225,76.6108" id="Stroke-29" stroke="#007bff" stroke-linejoin="round"></path>
                <path d="M171.9565,68.6428 C171.9565,68.6428 188.9565,64.6428 200.9565,73.6428" id="Stroke-31" stroke="#ff6f00"></path>
                <path d="M211.9565,134.6428 C213.9565,134.6428 228.9565,104.6428 210.9565,81.6428" id="Stroke-33" stroke="#007bff"></path>
            </g>
        </g>
    </g>
</svg>