<?xml version="1.0" encoding="utf-8"?>
<svg version="1.1" id="Layer_1" xmlns="http://www.w3.org/2000/svg" xmlns:xlink="http://www.w3.org/1999/xlink" x="0px" y="0px"
	 viewBox="0 0 133 133" style="enable-background:new 0 0 133 133;" xml:space="preserve">
<style type="text/css">
	.st0{fill:#161656;}
	.st1{fill:none;stroke:#64f0ff;stroke-width:0.5;stroke-linecap:round;stroke-linejoin:round;}
	.st2{fill:none;stroke:#64f0ff;stroke-linecap:round;stroke-linejoin:round;}
	.st3{fill:none;stroke:#64f0ff;stroke-width:3;stroke-linecap:round;stroke-linejoin:round;}
	.st4{fill:#ffffff;}
	.st5{fill:none;stroke:#64f0ff;stroke-width:2;stroke-linecap:round;stroke-linejoin:round;}
	.st6{fill:none;stroke:#ffffff;stroke-width:2;stroke-linecap:round;stroke-linejoin:round;}
	.st7{fill:#ff6f00;}
</style>
<title>Privacy icon</title>
<g id="Desktop">
	<g id="_x33_.1-Mantle" transform="translate(-519.000000, -1662.000000)">
		<g id="Group-37" transform="translate(520.000000, 1663.000000)">
			<path id="Fill-1" class="st0" d="M98.5,66c0,17.9-14.6,32.5-32.5,32.5C48,98.5,33.5,83.9,33.5,66S48,33.5,66,33.5
				C83.9,33.5,98.5,48,98.5,66"/>
			<path id="Stroke-3" class="st1" d="M0.6,68.4c0-0.9-0.1-1.9-0.1-2.8c0-35.9,29.2-65.1,65-65.1"/>
			<path id="Stroke-5" class="st1" d="M83,3.4c5.1,1.4,10,3.3,14.6,5.8"/>
			<path id="Stroke-7" class="st1" d="M98.5,9.2c15.9,9.2,27.5,25,31,43.7"/>
			<path id="Stroke-9" class="st1" d="M130.5,66.5c-0.3,32-24.3,58.5-55.3,63.1"/>
			<path id="Stroke-11" class="st1" d="M61.6,130.5C34.1,128.7,11.2,110,3.4,84.9"/>
			<path id="Stroke-13" class="st2" d="M62.6,14.1c0.9,0,1.7-0.1,2.6-0.1c28.5,0,51.7,23.3,51.7,51.9c0,3.5-0.3,6.9-1,10.2"/>
			<path id="Stroke-15" class="st2" d="M111.1,90.7c-6.5,12.1-17.7,21.4-31,25.2"/>
			<path id="Stroke-17" class="st2" d="M72.3,117.5c-2.1,0.3-4.3,0.4-6.5,0.4c-14.1,0-26.9-5.6-36.2-14.6"/>
			<path id="Stroke-19" class="st2" d="M17.8,87.8c-3-6.6-4.7-13.9-4.7-21.6c0-16.8,8-31.8,20.4-41.4"/>
			<path id="Stroke-21" class="st3" d="M29.6,46.1C36.5,33.4,49.8,24.8,65,24.8c11.7,0,22.2,5.1,29.6,13.1"/>
			<path id="Stroke-23" class="st3" d="M101.4,46.1c3.1,5.8,4.9,12.3,4.9,19.3c0,22.5-18.2,40.8-40.6,40.8c-6.3,0-12.3-1.5-17.6-4.1
				"/>
			<path id="Stroke-25" class="st3" d="M42.2,98.5c-10.6-7.4-17.5-19.6-17.5-33.3c0-2.2,0.2-4.4,0.5-6.5"/>
			<path id="Fill-27" class="st4" d="M66.5,69.6c-1,0-1.7,0.8-1.7,1.8c0,1,0.8,1.7,1.7,1.7s1.8-0.8,1.8-1.7
				C68.2,70.4,67.4,69.6,66.5,69.6 M66.5,75.2c-2.1,0-3.9-1.7-3.9-3.9c0-2.1,1.7-3.9,3.9-3.9c2.1,0,3.9,1.7,3.9,3.9
				C70.4,73.5,68.6,75.2,66.5,75.2"/>
			<path id="Stroke-29" class="st5" d="M54.8,69.2v-1.9c0-2.1,1.7-3.7,3.7-3.7h16.9c2,0,3.7,1.7,3.7,3.7v6.9"/>
			<path id="Stroke-31" class="st6" d="M79.1,77.7v1.6c0,2-1.7,3.7-3.7,3.7H58.5c-2,0-3.7-1.7-3.7-3.7v-7"/>
			<path id="Fill-33" class="st7" d="M60.9,58c0-2.7,2.3-5,5.1-5h0.9c2.8,0,5.1,2.2,5.1,5v2.7h4.2V58c0-5-4.2-9-9.3-9H66
				c-5.1,0-9.3,4-9.3,9v2.7h4.2V58z"/>
			<path id="Fill-35" class="st4" d="M66.5,78.1c-0.5,0-1-0.5-1-1.2v-2.5c0-0.6,0.4-1.2,1-1.2c0.5,0,1,0.5,1,1.2v2.5
				C67.4,77.6,67,78.1,66.5,78.1"/>
		</g>
	</g>
</g>
</svg>
