<?xml version="1.0" encoding="UTF-8"?>
<svg width="165px" height="165px" viewBox="0 0 165 165" version="1.1" xmlns="http://www.w3.org/2000/svg" xmlns:xlink="http://www.w3.org/1999/xlink">
    <title>Support icon</title>
    <defs></defs>
    <g id="Desktop" stroke="none" stroke-width="1" fill="none" fill-rule="evenodd" stroke-linecap="round" stroke-linejoin="round">
        <g id="2-Services" transform="translate(-1099.000000, -1899.000000)">
            <g id="Group-23" transform="translate(1100.000000, 1900.000000)">
                <path d="M64.5025,54.2416 C69.3965,51.2926 75.1305,49.5966 81.2605,49.5966 C99.2205,49.5966 113.7805,64.1556 113.7805,82.1156 C113.7805,86.1536 113.0445,90.0186 111.6995,93.5856" id="Stroke-1" stroke="#64f0ff" stroke-width="7.136"></path>
                <path d="M102.0725,107.1041 C96.4335,111.8061 89.1775,114.6351 81.2605,114.6351 C63.3015,114.6351 48.7415,100.0751 48.7415,82.1161 C48.7415,77.1381 49.8595,72.4221 51.8585,68.2051" id="Stroke-3" stroke="#007bff" stroke-width="7.136"></path>
                <path d="M89.846,104.7492 C89.846,104.7492 100.772,107.8712 104.935,106.3102 C104.935,106.3102 99.732,114.1142 100.252,121.9192" id="Stroke-5" stroke="#007bff" stroke-width="7.136"></path>
                <path d="M74.4661,59.4496 C74.4661,59.4496 64.1111,54.7686 59.7661,55.7066 C59.7661,55.7066 66.0501,48.7436 66.6731,40.9466" id="Stroke-7" stroke="#64f0ff" stroke-width="7.136"></path>
                <path d="M24.2708,23.856 C25.2398,22.895 26.2378,21.954 27.2648,21.033 C60.5688,-8.836 111.9648,-6.041 141.8328,27.264 C145.4758,31.325 148.6318,35.656 151.3068,40.183" id="Stroke-9" stroke="#64f0ff" stroke-width="2.676"></path>
                <path d="M160.3904,62.8291 C165.2924,83.7931 161.7364,106.2451 150.0144,124.7981" id="Stroke-11" stroke="#64f0ff" stroke-width="2.676"></path>
                <path d="M142.7288,134.5949 C140.5338,137.1219 138.1578,139.5409 135.6028,141.8329 C119.1948,156.5469 98.3968,163.3349 77.9458,162.4519" id="Stroke-13" stroke="#64f0ff" stroke-width="2.676"></path>
                <path d="M48.7551,155.6896 C38.4851,151.1886 28.9951,144.4786 21.0331,135.6016 C3.6651,116.2356 -2.6589,90.7526 1.6381,66.9416" id="Stroke-15" stroke="#64f0ff" stroke-width="2.676"></path>
                <path d="M19.4182,95.5225 C14.5102,73.7505 21.2032,50.0105 38.9662,34.0805 C52.5722,21.8775 70.0292,16.6295 86.9432,18.0955" id="Stroke-17" stroke="#007bff" stroke-width="4.862"></path>
                <path d="M102.9912,21.6013 C112.5982,25.0443 121.5072,30.8493 128.7852,38.9653 C152.2022,65.0753 150.0112,105.3683 123.9012,128.7853 C116.5252,135.3993 108.0192,139.9703 99.0802,142.5363" id="Stroke-19" stroke="#ff6f00" stroke-width="4.862"></path>
                <path d="M88.3872,144.6353 C68.6972,146.7753 48.2842,139.7373 34.0812,123.9003 C31.7772,121.3323 29.7222,118.6273 27.9132,115.8143" id="Stroke-21" stroke="#161656" stroke-width="4.862"></path>
            </g>
        </g>
    </g>
</svg>