<?xml version="1.0" encoding="utf-8"?>
<svg version="1.1" id="Layer_1" xmlns="http://www.w3.org/2000/svg" xmlns:xlink="http://www.w3.org/1999/xlink" x="0px" y="0px"
	 viewBox="0 0 133 133" style="enable-background:new 0 0 133 133;" xml:space="preserve">
<style type="text/css">
	.st0{fill:#ffffff;}
	.st1{fill:#007bff;}
	.st2{fill:none;stroke:#ffffff;stroke-width:6;stroke-linecap:round;stroke-linejoin:round;}
	.st3{fill:none;stroke:#161656;stroke-width:6;stroke-linecap:round;stroke-linejoin:round;}
	.st4{fill:none;stroke:#ff6f00;stroke-width:6;stroke-linecap:round;stroke-linejoin:round;}
	.st5{opacity:0.3;}
	.st6{filter:url(#Adobe_OpacityMaskFilter);}
	.st7{mask:url(#mask-2_1_);fill:#161656;}
</style>
<title>Key icon</title>
<g id="Desktop">
	<g id="_x33_.1-Mantle" transform="translate(-799.000000, -1681.000000)">
		<g id="Group-16" transform="translate(802.000000, 1684.000000)">
			<path id="Fill-1" class="st0" d="M89.6,40.7c-0.9-7.4-7.6-12.8-15-12.1c-7.4,0.7-12.7,7.2-11.8,14.6c0.3,2.5,1.3,4.8,2.7,6.7
				c0.2,0.2,0.2,0.5,0,0.8l-2.1,3l-1.1,1.5l-1.5,2.2c-0.1,0.2-0.1,0.4-0.1,0.6l0.7,2.1c0.1,0.4-0.1,0.8-0.5,0.9l-2.1,0.4
				c-0.4,0.1-0.6,0.4-0.6,0.8l0.4,2.9c0,0.3-0.2,0.7-0.5,0.8l-2.9,0.7c-0.3,0.1-0.6,0.4-0.5,0.8l0.5,2.8c0.1,0.4-0.2,0.7-0.5,0.8
				l-2.9,0.6c-0.4,0.1-0.6,0.4-0.5,0.8l0.9,4.7c0.1,0.4,0.4,0.6,0.8,0.5l5.7-0.9c0.2,0,0.3-0.1,0.4-0.3l14.2-20.9
				c0.2-0.2,0.4-0.3,0.7-0.3c1.2,0.2,2.4,0.3,3.7,0.2C85.2,54.6,90.5,48,89.6,40.7"/>
			<path id="Fill-3" class="st1" d="M82.3,38.8c0.2,2.3-1.4,4.4-3.8,4.6c-2.3,0.2-4.4-1.4-4.7-3.8c-0.2-2.3,1.4-4.4,3.8-4.7
				C80,34.7,82,36.4,82.3,38.8"/>
			<path id="Stroke-5" class="st2" d="M22.1,51.8c0.6-16.9,10.7-32.6,26.6-40"/>
			<path id="Stroke-7" class="st3" d="M60.8,8.1c21.8-3.5,43.6,9.1,50.9,30.8c1.2,3.6,1.9,7.2,2.3,10.8"/>
			<path id="Stroke-9" class="st4" d="M113.2,62.8C110,78.3,98.9,91.8,82.8,97.2c-12.5,4.2-25.6,2.7-36.4-3.1"/>
			<path id="Stroke-11" class="st2" d="M13,44.5c0.4-0.2,9.5,4.6,9.1,12.2c0,0,1.6-8.6,11.1-9.8"/>
			<g id="Group-15" transform="translate(13.230088, 103.928451)" class="st5">
				<g id="Clip-14">
				</g>
				<defs>
					<filter id="Adobe_OpacityMaskFilter" filterUnits="userSpaceOnUse" x="13.9" y="7.7" width="78.3" height="10">
						<feColorMatrix  type="matrix" values="1 0 0 0 0  0 1 0 0 0  0 0 1 0 0  0 0 0 1 0"/>
					</filter>
				</defs>
				<mask maskUnits="userSpaceOnUse" x="13.9" y="7.7" width="78.3" height="10" id="mask-2_1_">
					<g class="st6">
						<polygon id="path-1_1_" class="st0" points="13.9,7.7 92.2,7.7 92.2,17.7 13.9,17.7 						"/>
					</g>
				</mask>
				<path id="Fill-13" class="st7" d="M92.2,12.7c0,2.8-17.5,5-39.1,5s-39.1-2.2-39.1-5s17.5-5,39.1-5S92.2,9.9,92.2,12.7"/>
			</g>
		</g>
	</g>
</g>
</svg>
