<?xml version="1.0" encoding="utf-8"?>
<svg version="1.1" id="Layer_1" xmlns="http://www.w3.org/2000/svg" xmlns:xlink="http://www.w3.org/1999/xlink" x="0px" y="0px"
	 viewBox="0 0 133 133" style="enable-background:new 0 0 133 133;" xml:space="preserve">
<style type="text/css">
	.st0{fill:none;stroke:#ffffff;stroke-width:5;stroke-linecap:round;stroke-linejoin:round;}
	.st1{fill:none;stroke:#161656;stroke-width:5;stroke-linecap:round;stroke-linejoin:round;}
	.st2{fill:none;stroke:#ff6f00;stroke-width:5;stroke-linecap:round;stroke-linejoin:round;}
	.st3{fill:none;stroke:#64f0ff;stroke-width:5;stroke-linecap:round;stroke-linejoin:round;}
	.st4{fill:#ffffff;}
	.st5{fill:#007bff;}
	.st6{fill:#161656;}
	.st7{opacity:0.3;fill:#161656;enable-background:new    ;}
	.st8{fill:none;stroke:#161656;stroke-width:4;}
</style>
<title>Management icon</title>
<g id="Desktop">
	<g id="_x33_.1-Mantle" transform="translate(-792.000000, -1986.000000)">
		<g id="Group-21" transform="translate(794.000000, 1988.000000)">
			<path id="Stroke-1" class="st0" d="M31.6,69.1c-3.6-10.4-2.3-22.3,4.5-31.9c5.2-7.3,12.6-11.9,20.7-13.7"/>
			<path id="Stroke-3" class="st1" d="M65.6,22.7c6.7,0.2,13.3,2.3,19.1,6.5c7.8,5.6,12.6,13.8,14.1,22.6"/>
			<path id="Stroke-5" class="st2" d="M99.3,59.7c-0.4,6.3-2.5,12.6-6.4,18.1C88.1,84.5,81.5,88.9,74.2,91"/>
			<path id="Stroke-7" class="st3" d="M65.8,92.4c-7.4,0.3-15-1.8-21.6-6.5c-2.5-1.8-4.7-3.9-6.6-6.2"/>
			<path id="Fill-9" class="st4" d="M61.1,49.2c-2.2-2.7-6.1-3.1-8.8-1c-2.7,2.1-3.2,5.9-1,8.6c0.7,0.9,1.7,1.6,2.7,1.9
				c0.1,0,0.2,0.2,0.2,0.3l-0.1,1.7l0,0.9l0,1.2c0,0.1,0,0.2,0.1,0.3l0.8,0.7c0.1,0.1,0.1,0.3,0,0.5l-0.7,0.7
				c-0.1,0.1-0.1,0.3,0,0.4l0.9,1c0.1,0.1,0.1,0.3,0,0.4l-0.9,1c-0.1,0.1-0.1,0.3,0,0.4l0.9,1c0.1,0.1,0.1,0.3,0,0.4l-1,0.9
				c-0.1,0.1-0.1,0.3,0,0.4l1.5,1.6c0.1,0.1,0.3,0.1,0.4,0l2-1.8c0.1-0.1,0.1-0.1,0.1-0.2L58.4,59c0-0.1,0.1-0.2,0.2-0.3
				c0.5-0.2,1-0.5,1.5-0.9C62.8,55.8,63.3,51.9,61.1,49.2"/>
			<path id="Fill-11" class="st5" d="M57.8,50.3c0.7,0.9,0.5,2.1-0.3,2.8c-0.9,0.7-2.1,0.5-2.8-0.3s-0.5-2.1,0.3-2.8
				C55.9,49.3,57.1,49.4,57.8,50.3"/>
			<path id="Fill-13" class="st6" d="M78.8,49.2c-2.2-2.7-6.1-3.1-8.8-1c-2.7,2.1-3.2,5.9-1,8.6c0.7,0.9,1.7,1.6,2.7,1.9
				c0.1,0,0.2,0.2,0.2,0.3l-0.1,1.7l0,0.9l0,1.2c0,0.1,0,0.2,0.1,0.3l0.8,0.7c0.1,0.1,0.1,0.3,0,0.5L72,64.9c-0.1,0.1-0.1,0.3,0,0.4
				l0.9,1c0.1,0.1,0.1,0.3,0,0.4l-0.9,1c-0.1,0.1-0.1,0.3,0,0.4l0.9,1c0.1,0.1,0.1,0.3,0,0.4l-1,0.9c-0.1,0.1-0.1,0.3,0,0.4l1.5,1.6
				c0.1,0.1,0.3,0.1,0.4,0l2-1.8c0.1-0.1,0.1-0.1,0.1-0.2L76.2,59c0-0.1,0.1-0.2,0.2-0.3c0.5-0.2,1-0.5,1.5-0.9
				C80.5,55.8,81,51.9,78.8,49.2"/>
			<path id="Fill-15" class="st5" d="M75.5,50.3c0.7,0.9,0.5,2.1-0.3,2.8c-0.9,0.7-2.1,0.5-2.8-0.3c-0.7-0.9-0.5-2.1,0.3-2.8
				C73.6,49.3,74.9,49.4,75.5,50.3"/>
			<path id="Fill-17" class="st7" d="M98.3,126c0,2.4-15.3,4.4-34.2,4.4c-18.9,0-34.2-1.9-34.2-4.4c0-2.4,15.3-4.4,34.2-4.4
				C83,121.6,98.3,123.6,98.3,126"/>
			<path id="Stroke-19" class="st8" d="M116.4,80c0.4,0.1,0.9-0.2,1-0.6l3.5-11.2c0.1-0.4-0.1-0.9-0.5-1.1l-9-4.2
				c-0.4-0.2-0.7-0.7-0.7-1.1c0,0,0.2-2.7,0.2-4.4c0-2.9-0.7-7.7-0.7-7.7c-0.1-0.4,0.2-1,0.6-1.2l8-5c0.4-0.2,0.5-0.8,0.3-1.1
				l-4.9-10.7c-0.2-0.4-0.7-0.6-1.1-0.5l-7.9,2.4c-0.4,0.1-1-0.1-1.2-0.4l-7.2-9c-0.3-0.3-0.4-0.9-0.2-1.3l3.9-7
				c0.2-0.4,0.1-0.9-0.3-1.2l-9.5-7c-0.4-0.3-0.9-0.2-1.2,0.1l-6.1,6.3c-0.3,0.3-0.9,0.4-1.3,0.3L71.5,11c-0.4-0.1-0.8-0.5-0.9-1
				l-1.2-8.7c-0.1-0.4-0.5-0.8-0.9-0.8H56.7c-0.4,0-0.8,0.4-0.9,0.8l-1.2,9.3c-0.1,0.4-0.5,0.9-0.9,1l-10.4,3.7
				c-0.4,0.2-1,0.1-1.3-0.2l-6.3-5.9c-0.3-0.3-0.9-0.3-1.2,0l-9.2,7.4c-0.3,0.3-0.4,0.8-0.2,1.2l4.2,6.9c0.2,0.4,0.2,1-0.1,1.3
				l-6.7,9.5c-0.2,0.4-0.8,0.6-1.2,0.5l-8.2-1.4c-0.4-0.1-0.9,0.2-1,0.6L8.6,46.3c-0.1,0.4,0.1,0.9,0.5,1.1l7.7,3.6
				c0.4,0.2,0.7,0.7,0.6,1.1c0,0-0.3,3.1-0.3,5c0,2.6,0.6,7,0.6,7c0.1,0.4-0.2,0.9-0.6,1.1L9.2,69c-0.4,0.2-0.6,0.7-0.5,1.1
				l3.5,11.3c0.1,0.4,0.6,0.7,1,0.6l9.3-1.6c0.4-0.1,1,0.2,1.2,0.5l7.2,9.3c0.3,0.3,0.4,0.9,0.2,1.3l-3.5,7.9
				c-0.2,0.4,0,0.9,0.4,1.1l10,6.2c0.4,0.2,0.9,0.1,1.2-0.2l5-6.1c0.3-0.3,0.8-0.5,1.3-0.3l10.6,3.2c0.4,0.1,0.8,0.5,0.9,1L58,113
				c0.1,0.4,0.5,0.8,0.9,0.8l11.8-0.1c0.4,0,0.8-0.4,0.9-0.8l1.1-8.8c0.1-0.4,0.4-0.9,0.9-1l11.6-4c0.4-0.2,1-0.1,1.3,0.3l5.5,6
				c0.3,0.3,0.8,0.4,1.2,0.1l9.7-6.8c0.4-0.3,0.5-0.8,0.3-1.2l-4.1-7.9c-0.2-0.4-0.1-1,0.1-1.3l6.5-9.5c0.2-0.4,0.8-0.6,1.2-0.6
				L116.4,80z"/>
		</g>
	</g>
</g>
</svg>
